<svg width="960" height="250" viewBox="0 0 960 250" fill="none" xmlns="http://www.w3.org/2000/svg">
<path d="M198.267 117.571C207.979 117.571 213.516 110.32 213.494 101.268H198.047V104.783H209.451C208.638 109.903 204.946 113.99 198.179 113.99C191.675 113.99 186.467 109.09 186.467 102.037C186.467 95.0493 191.675 90.0396 198.179 90.0396C202.991 90.0396 206.902 92.4565 208.572 96.5435H212.527C210.923 90.1494 204.617 86.458 198.267 86.458C189.521 86.458 182.578 93.3354 182.578 102.037C182.578 110.672 189.521 117.571 198.267 117.571ZM239.531 105.245C239.531 99.2241 234.917 93.9507 228.457 93.9507C221.975 93.9507 217.053 99.2461 217.053 105.794C217.053 112.364 221.975 117.615 228.457 117.615C233.555 117.615 237.554 114.363 238.828 110.254H234.587C233.599 112.781 231.379 114.1 228.369 114.1C224.678 114.1 221.338 111.287 220.876 106.783H239.465C239.509 105.97 239.531 105.64 239.531 105.245ZM221.052 103.443C221.909 99.5757 225.029 97.5103 228.391 97.5103C232.214 97.5103 235.444 100.257 235.664 103.443H221.052ZM271.941 93.9507C268.469 93.9507 265.437 95.8843 263.701 99.7075C262.537 95.9062 259.9 93.9507 255.879 93.9507C252.275 93.9507 249.309 96.104 248.167 98.9165L248.123 94.5879H244.563V117H248.298V105.223C248.298 100.652 251.44 97.4883 254.868 97.4883C258.45 97.4883 260.625 99.7515 260.625 104.915V117H264.36V105.223C264.36 100.652 267.502 97.4883 270.908 97.4883C274.512 97.4883 276.687 99.7734 276.687 104.915V117H280.444V104.849C280.444 97.686 277.5 93.9507 271.941 93.9507ZM308.042 105.245C308.042 99.2241 303.428 93.9507 296.968 93.9507C290.486 93.9507 285.564 99.2461 285.564 105.794C285.564 112.364 290.486 117.615 296.968 117.615C302.065 117.615 306.064 114.363 307.339 110.254H303.098C302.109 112.781 299.89 114.1 296.88 114.1C293.188 114.1 289.849 111.287 289.387 106.783H307.976C308.02 105.97 308.042 105.64 308.042 105.245ZM289.563 103.443C290.42 99.5757 293.54 97.5103 296.902 97.5103C300.725 97.5103 303.955 100.257 304.175 103.443H289.563ZM314.941 90.2153C316.567 90.2153 317.556 89.1387 317.556 87.7983C317.556 86.48 316.567 85.4033 314.963 85.4033C313.381 85.4033 312.393 86.48 312.393 87.7983C312.393 89.1387 313.381 90.2153 314.941 90.2153ZM316.853 117V94.5879H313.074V117H316.853ZM327.883 117V105.223C327.883 100.433 331.289 97.4883 335.024 97.4883C338.914 97.4883 341.287 99.7515 341.287 104.915V117H345.066V104.849C345.066 97.686 341.946 93.9507 335.991 93.9507C332.19 93.9507 329.004 96.0381 327.729 98.9165V94.5879H324.104V117H327.883ZM359.524 117.637C364.863 117.637 368.555 115.264 368.555 110.672C368.555 105.794 364.446 104.695 360.337 104.058C356.162 103.355 354.954 102.564 354.954 100.433C354.954 98.6309 356.338 97.1147 359.238 97.1147C362.227 97.1147 364.028 98.543 364.138 100.674H367.852C367.852 96.7632 364.424 93.9507 359.238 93.9507C353.899 93.9507 351.218 96.8511 351.218 100.521C351.218 105.047 354.888 106.519 359.062 107.134C362.578 107.706 364.709 108.365 364.709 110.87C364.709 113.133 362.952 114.561 359.568 114.561C355.876 114.561 353.855 112.583 353.811 110.145L350.164 110.123C350.164 113.946 353.262 117.637 359.524 117.637ZM382.661 117.637C386.66 117.637 390.022 115.55 391.538 112.232V117H395.164V94.5879H391.538V99.3999C390.022 96.0601 386.682 93.9727 382.639 93.9727C376.553 93.9727 371.829 99.2461 371.829 105.794C371.829 112.386 376.531 117.637 382.661 117.637ZM383.496 114.1C379.189 114.1 375.586 110.76 375.586 105.794C375.586 100.96 379.146 97.5103 383.518 97.5103C387.869 97.5103 391.406 101.158 391.406 105.794C391.406 110.496 387.891 114.1 383.496 114.1ZM429.792 93.9507C426.321 93.9507 423.289 95.8843 421.553 99.7075C420.388 95.9062 417.751 93.9507 413.73 93.9507C410.127 93.9507 407.161 96.104 406.018 98.9165L405.974 94.5879H402.415V117H406.15V105.223C406.15 100.652 409.292 97.4883 412.72 97.4883C416.301 97.4883 418.477 99.7515 418.477 104.915V117H422.212V105.223C422.212 100.652 425.354 97.4883 428.76 97.4883C432.363 97.4883 434.539 99.7734 434.539 104.915V117H438.296V104.849C438.296 97.686 435.352 93.9507 429.792 93.9507ZM465.564 117.637C469.629 117.637 472.793 115.264 474.221 112.232V117H477.847V86.0625H474.067V97.1367L474.155 99.312C472.859 96.6094 469.783 93.9507 465.586 93.9507C459.148 93.9507 454.534 99.2461 454.534 105.794C454.534 112.386 459.236 117.637 465.564 117.637ZM466.179 114.122C461.675 114.122 458.291 110.496 458.291 105.794C458.291 101.048 461.763 97.4883 466.179 97.4883C470.596 97.4883 474.111 101.136 474.111 105.794C474.111 110.496 470.574 114.122 466.179 114.122ZM486.987 90.2153C488.613 90.2153 489.602 89.1387 489.602 87.7983C489.602 86.48 488.613 85.4033 487.009 85.4033C485.427 85.4033 484.438 86.48 484.438 87.7983C484.438 89.1387 485.427 90.2153 486.987 90.2153ZM488.899 117V94.5879H485.12V117H488.899ZM516.738 105.245C516.738 99.2241 512.124 93.9507 505.664 93.9507C499.182 93.9507 494.26 99.2461 494.26 105.794C494.26 112.364 499.182 117.615 505.664 117.615C510.762 117.615 514.761 114.363 516.035 110.254H511.794C510.806 112.781 508.586 114.1 505.576 114.1C501.885 114.1 498.545 111.287 498.083 106.783H516.672C516.716 105.97 516.738 105.64 516.738 105.245ZM498.259 103.443C499.116 99.5757 502.236 97.5103 505.598 97.5103C509.421 97.5103 512.651 100.257 512.871 103.443H498.259ZM558.574 117L545.94 87.1172H542.205L529.548 117H533.679L536.514 110.232H551.609L554.443 117H558.574ZM543.918 92.5884L544.05 92.083H544.094L544.204 92.5884L550.225 106.937H537.898L543.918 92.5884ZM566.309 117V106.453C566.309 101.048 569.231 97.9058 573.164 97.9058H575.142V94.5879H572.966C569.714 94.5879 567.253 96.4995 566.155 99.5977V94.5879H562.507V117H566.309ZM591.863 117.637C598.125 117.637 602.871 112.386 602.871 105.794C602.871 99.2461 598.147 93.9727 591.819 93.9727C587.93 93.9727 584.744 96.2798 583.271 99.312L583.337 96.2358V86.0625H579.558V117H583.184V112.232C584.788 115.572 588.171 117.637 591.863 117.637ZM591.204 114.122C586.897 114.122 583.315 110.562 583.315 105.794C583.315 101.158 586.831 97.4883 591.204 97.4883C595.576 97.4883 599.114 100.96 599.114 105.794C599.114 110.738 595.51 114.122 591.204 114.122ZM629.37 105.245C629.37 99.2241 624.756 93.9507 618.296 93.9507C611.814 93.9507 606.892 99.2461 606.892 105.794C606.892 112.364 611.814 117.615 618.296 117.615C623.394 117.615 627.393 114.363 628.667 110.254H624.426C623.438 112.781 621.218 114.1 618.208 114.1C614.517 114.1 611.177 111.287 610.715 106.783H629.304C629.348 105.97 629.37 105.64 629.37 105.245ZM610.891 103.443C611.748 99.5757 614.868 97.5103 618.23 97.5103C622.053 97.5103 625.283 100.257 625.503 103.443H610.891ZM636.27 90.2153C637.896 90.2153 638.884 89.1387 638.884 87.7983C638.884 86.48 637.896 85.4033 636.292 85.4033C634.709 85.4033 633.721 86.48 633.721 87.7983C633.721 89.1387 634.709 90.2153 636.27 90.2153ZM638.181 117V94.5879H634.402V117H638.181ZM658.22 117V113.792H654.836C652.837 113.792 650.815 113.045 650.815 108.87V97.9058H658.22V94.5879H650.815V87.9082L647.036 87.9302V94.5879H642.048V97.9058H647.036V108.694C647.036 115.682 650.684 117 654.089 117H658.22ZM670.569 117.637C675.908 117.637 679.6 115.264 679.6 110.672C679.6 105.794 675.491 104.695 671.382 104.058C667.207 103.355 665.999 102.564 665.999 100.433C665.999 98.6309 667.383 97.1147 670.283 97.1147C673.271 97.1147 675.073 98.543 675.183 100.674H678.896C678.896 96.7632 675.469 93.9507 670.283 93.9507C664.944 93.9507 662.263 96.8511 662.263 100.521C662.263 105.047 665.933 106.519 670.107 107.134C673.623 107.706 675.754 108.365 675.754 110.87C675.754 113.133 673.997 114.561 670.613 114.561C666.921 114.561 664.9 112.583 664.856 110.145L661.208 110.123C661.208 113.946 664.307 117.637 670.569 117.637ZM691.816 117L697.397 100.213H697.419L702.957 117H706.516L714.229 94.5879H710.229L705.022 110.452L704.429 112.122H704.363L703.857 110.518L698.914 94.5879H696.013L690.916 110.804L690.476 112.122H690.432L690.015 110.782L684.697 94.5879H680.632L688.345 117H691.816ZM738.003 105.245C738.003 99.2241 733.389 93.9507 726.929 93.9507C720.447 93.9507 715.525 99.2461 715.525 105.794C715.525 112.364 720.447 117.615 726.929 117.615C732.026 117.615 736.025 114.363 737.3 110.254H733.059C732.07 112.781 729.851 114.1 726.841 114.1C723.149 114.1 719.81 111.287 719.348 106.783H737.937C737.981 105.97 738.003 105.64 738.003 105.245ZM719.524 103.443C720.381 99.5757 723.501 97.5103 726.863 97.5103C730.686 97.5103 733.916 100.257 734.136 103.443H719.524ZM746.814 117V86.0186H743.035V117H746.814ZM766.853 117V113.792H763.469C761.47 113.792 759.448 113.045 759.448 108.87V97.9058H766.853V94.5879H759.448V87.9082L755.669 87.9302V94.5879H750.681V97.9058H755.669V108.694C755.669 115.682 759.316 117 762.722 117H766.853ZM252.407 171L261.526 148.588H257.483L251.155 164.408L250.627 166.408L250.078 164.408L243.75 148.588H239.729L248.826 171H252.407ZM274.446 171.637C281.147 171.637 286.135 166.386 286.135 159.794C286.135 153.224 281.125 147.951 274.446 147.951C267.788 147.951 262.8 153.246 262.8 159.794C262.8 166.386 267.81 171.637 274.446 171.637ZM274.49 168.078C270.029 168.078 266.58 164.562 266.58 159.794C266.58 155.07 270.029 151.51 274.49 151.51C278.928 151.51 282.356 155.07 282.356 159.794C282.356 164.562 278.928 168.078 274.49 168.078ZM295.276 171V159.223C295.276 154.433 298.682 151.488 302.417 151.488C306.306 151.488 308.679 153.751 308.679 158.915V171H312.458V158.849C312.458 151.686 309.338 147.951 303.384 147.951C299.583 147.951 296.396 150.038 295.122 152.917V148.588H291.497V171H295.276ZM357.942 147.951C354.47 147.951 351.438 149.884 349.702 153.708C348.538 149.906 345.901 147.951 341.88 147.951C338.276 147.951 335.31 150.104 334.167 152.917L334.124 148.588H330.564V171H334.299V159.223C334.299 154.652 337.441 151.488 340.869 151.488C344.451 151.488 346.626 153.751 346.626 158.915V171H350.361V159.223C350.361 154.652 353.503 151.488 356.909 151.488C360.513 151.488 362.688 153.773 362.688 158.915V171H366.445V158.849C366.445 151.686 363.501 147.951 357.942 147.951ZM383.21 171.637C389.912 171.637 394.9 166.386 394.9 159.794C394.9 153.224 389.89 147.951 383.21 147.951C376.553 147.951 371.565 153.246 371.565 159.794C371.565 166.386 376.575 171.637 383.21 171.637ZM383.254 168.078C378.794 168.078 375.344 164.562 375.344 159.794C375.344 155.07 378.794 151.51 383.254 151.51C387.693 151.51 391.121 155.07 391.121 159.794C391.121 164.562 387.693 168.078 383.254 168.078ZM404.062 171V160.453C404.062 155.048 406.985 151.906 410.918 151.906H412.896V148.588H410.72C407.468 148.588 405.007 150.5 403.909 153.598V148.588H400.261V171H404.062ZM426.035 179.438C433.879 179.438 437.659 174.23 437.659 167.99V148.588H434.033V153.4C432.693 150.434 429.507 147.973 425.222 147.973C418.982 147.973 414.324 153.246 414.324 159.376C414.324 165.551 419.026 170.583 425.332 170.583C429.133 170.583 432.451 168.737 434.033 165.331V168.1C434.033 172.274 431.858 176.208 426.035 176.208C421.157 176.208 419.29 173.834 418.85 171.132H415.269C415.51 175.219 418.499 179.438 426.035 179.438ZM425.991 167.243C421.597 167.243 418.081 163.837 418.081 159.376C418.081 154.872 421.597 151.51 426.013 151.51C430.408 151.51 433.901 155.114 433.901 159.376C433.901 163.683 430.386 167.243 425.991 167.243ZM465.498 159.245C465.498 153.224 460.884 147.951 454.424 147.951C447.942 147.951 443.02 153.246 443.02 159.794C443.02 166.364 447.942 171.615 454.424 171.615C459.521 171.615 463.521 168.363 464.795 164.254H460.554C459.565 166.781 457.346 168.1 454.336 168.1C450.645 168.1 447.305 165.287 446.843 160.783H465.432C465.476 159.97 465.498 159.64 465.498 159.245ZM447.019 157.443C447.876 153.576 450.996 151.51 454.358 151.51C458.181 151.51 461.411 154.257 461.631 157.443H447.019ZM474.309 171V159.223C474.309 154.433 477.715 151.488 481.45 151.488C485.339 151.488 487.712 153.751 487.712 158.915V171H491.492V158.849C491.492 151.686 488.372 147.951 482.417 147.951C478.616 147.951 475.43 150.038 474.155 152.917V148.588H470.53V171H474.309ZM519.419 179.438C527.263 179.438 531.042 174.23 531.042 167.99V148.588H527.417V153.4C526.077 150.434 522.891 147.973 518.606 147.973C512.366 147.973 507.708 153.246 507.708 159.376C507.708 165.551 512.41 170.583 518.716 170.583C522.517 170.583 525.835 168.737 527.417 165.331V168.1C527.417 172.274 525.242 176.208 519.419 176.208C514.541 176.208 512.673 173.834 512.234 171.132H508.652C508.894 175.219 511.882 179.438 519.419 179.438ZM519.375 167.243C514.98 167.243 511.465 163.837 511.465 159.376C511.465 154.872 514.98 151.51 519.397 151.51C523.792 151.51 527.285 155.114 527.285 159.376C527.285 163.683 523.77 167.243 519.375 167.243ZM558.882 159.245C558.882 153.224 554.268 147.951 547.808 147.951C541.326 147.951 536.404 153.246 536.404 159.794C536.404 166.364 541.326 171.615 547.808 171.615C552.905 171.615 556.904 168.363 558.179 164.254H553.938C552.949 166.781 550.73 168.1 547.72 168.1C544.028 168.1 540.688 165.287 540.227 160.783H558.816C558.86 159.97 558.882 159.64 558.882 159.245ZM540.403 157.443C541.26 153.576 544.38 151.51 547.742 151.51C551.565 151.51 554.795 154.257 555.015 157.443H540.403ZM571.384 171.637C576.724 171.637 580.415 169.264 580.415 164.672C580.415 159.794 576.306 158.695 572.197 158.058C568.022 157.355 566.814 156.564 566.814 154.433C566.814 152.631 568.198 151.115 571.099 151.115C574.087 151.115 575.889 152.543 575.999 154.674H579.712C579.712 150.763 576.284 147.951 571.099 147.951C565.759 147.951 563.079 150.851 563.079 154.521C563.079 159.047 566.748 160.519 570.923 161.134C574.438 161.706 576.57 162.365 576.57 164.87C576.57 167.133 574.812 168.561 571.428 168.561C567.737 168.561 565.715 166.583 565.671 164.145L562.024 164.123C562.024 167.946 565.122 171.637 571.384 171.637ZM598.367 171V167.792H594.983C592.983 167.792 590.962 167.045 590.962 162.87V151.906H598.367V148.588H590.962V141.908L587.183 141.93V148.588H582.195V151.906H587.183V162.694C587.183 169.682 590.83 171 594.236 171H598.367ZM611.484 171.637C615.483 171.637 618.845 169.55 620.361 166.232V171H623.987V148.588H620.361V153.4C618.845 150.06 615.505 147.973 611.462 147.973C605.376 147.973 600.652 153.246 600.652 159.794C600.652 166.386 605.354 171.637 611.484 171.637ZM612.319 168.1C608.013 168.1 604.409 164.76 604.409 159.794C604.409 154.96 607.969 151.51 612.341 151.51C616.692 151.51 620.229 155.158 620.229 159.794C620.229 164.496 616.714 168.1 612.319 168.1ZM635.017 171V140.019H631.238V171H635.017ZM655.056 171V167.792H651.672C649.673 167.792 647.651 167.045 647.651 162.87V151.906H655.056V148.588H647.651V141.908L643.872 141.93V148.588H638.884V151.906H643.872V162.694C643.872 169.682 647.52 171 650.925 171H655.056ZM679.819 159.245C679.819 153.224 675.205 147.951 668.745 147.951C662.263 147.951 657.341 153.246 657.341 159.794C657.341 166.364 662.263 171.615 668.745 171.615C673.843 171.615 677.842 168.363 679.116 164.254H674.875C673.887 166.781 671.667 168.1 668.657 168.1C664.966 168.1 661.626 165.287 661.165 160.783H679.753C679.797 159.97 679.819 159.64 679.819 159.245ZM661.34 157.443C662.197 153.576 665.317 151.51 668.679 151.51C672.502 151.51 675.732 154.257 675.952 157.443H661.34ZM688.63 171V159.223C688.63 154.433 692.036 151.488 695.771 151.488C699.661 151.488 702.034 153.751 702.034 158.915V171H705.813V158.849C705.813 151.686 702.693 147.951 696.738 147.951C692.937 147.951 689.751 150.038 688.477 152.917V148.588H684.851V171H688.63ZM714.844 171.461C716.316 171.461 717.327 170.407 717.327 169.11C717.327 167.836 716.316 166.759 714.844 166.759C713.372 166.759 712.361 167.836 712.361 169.11C712.361 170.407 713.372 171.461 714.844 171.461Z" fill="white"/>
</svg>
