<svg
        xmlns="http://www.w3.org/2000/svg"
        xmlns:xlink="http://www.w3.org/1999/xlink"
        width="240px" height="50px">
    <path fill-rule="evenodd" fill="#FF0022"
          d="M0.0,0.0 L239.999,0.0 L239.999,50.0 L0.0,50.0 L0.0,0.0 Z"/>
    <path fill-rule="evenodd" fill="rgb(255, 255, 255)"
          d="M211.950,32.545 L203.927,21.47 L203.927,32.545 L200.978,32.545 L200.978,16.316 L203.950,16.316 L211.950,27.790 L211.950,16.316 L214.899,16.316 L214.899,32.545 L211.950,32.545 ZM187.498,16.316 L197.212,16.316 L197.212,19.36 L190.584,19.36 L190.584,23.104 L197.7,23.104 L197.7,25.733 L190.584,25.733 L190.584,29.825 L197.395,29.825 L197.395,32.545 L187.498,32.545 L187.498,16.316 ZM181.535,32.545 L177.718,26.213 L175.752,26.213 L175.752,32.545 L172.666,32.545 L172.666,16.316 L178.335,16.316 C181.809,16.316 183.729,18.350 183.729,21.70 C183.729,23.59 182.678,24.796 180.689,25.665 L185.169,32.545 L181.535,32.545 ZM177.878,18.876 L175.752,18.876 L175.752,23.767 L177.855,23.767 C179.295,23.767 180.507,22.990 180.507,21.276 C180.507,19.584 179.341,18.876 177.878,18.876 ZM165.490,25.779 L158.152,25.779 L158.152,32.545 L155.66,32.545 L155.66,16.316 L158.152,16.316 L158.152,23.82 L165.490,23.82 L165.490,16.316 L168.575,16.316 L168.575,32.545 L165.490,32.545 L165.490,25.779 ZM147.892,27.973 L142.86,27.973 L140.486,32.545 L137.355,32.545 L143.389,16.316 L146.726,16.316 L152.761,32.545 L149.492,32.545 L147.892,27.973 ZM144.989,19.699 L142.955,25.527 L147.23,25.527 L144.989,19.699 ZM130.437,23.173 L136.677,23.173 L136.677,25.893 L130.437,25.893 L130.437,32.545 L127.351,32.545 L127.351,16.316 L136.997,16.316 L136.997,19.36 L130.437,19.36 L130.437,23.173 ZM121.388,32.545 L117.571,26.213 L115.605,26.213 L115.605,32.545 L112.519,32.545 L112.519,16.316 L118.188,16.316 C121.662,16.316 123.582,18.350 123.582,21.70 C123.582,23.59 122.531,24.796 120.542,25.665 L125.23,32.545 L121.388,32.545 ZM117.731,18.876 L115.605,18.876 L115.605,23.767 L117.708,23.767 C119.148,23.767 120.360,22.990 120.360,21.276 C120.360,19.584 119.194,18.876 117.731,18.876 ZM99.39,16.316 L108.753,16.316 L108.753,19.36 L102.125,19.36 L102.125,23.104 L108.548,23.104 L108.548,25.733 L102.125,25.733 L102.125,29.825 L108.936,29.825 L108.936,32.545 L99.39,32.545 L99.39,16.316 ZM87.539,32.545 L83.722,26.213 L81.756,26.213 L81.756,32.545 L78.671,32.545 L78.671,16.316 L84.339,16.316 C87.814,16.316 89.734,18.350 89.734,21.70 C89.734,23.59 88.682,24.796 86.694,25.665 L91.174,32.545 L87.539,32.545 ZM83.882,18.876 L81.756,18.876 L81.756,23.767 L83.859,23.767 C85.299,23.767 86.511,22.990 86.511,21.276 C86.511,19.584 85.345,18.876 83.882,18.876 ZM71.494,25.779 L64.156,25.779 L64.156,32.545 L61.71,32.545 L61.71,16.316 L64.156,16.316 L64.156,23.82 L71.494,23.82 L71.494,16.316 L74.580,16.316 L74.580,32.545 L71.494,32.545 L71.494,25.779 ZM47.590,16.316 L57.305,16.316 L57.305,19.36 L50.676,19.36 L50.676,23.104 L57.99,23.104 L57.99,25.733 L50.676,25.733 L50.676,29.825 L57.487,29.825 L57.487,32.545 L47.590,32.545 L47.590,16.316 ZM40.456,20.293 L36.273,27.585 L33.873,27.585 L29.782,20.293 L29.782,32.545 L26.788,32.545 L26.788,16.316 L30.765,16.316 L35.85,23.996 L39.634,16.316 L43.496,16.316 L43.496,32.545 L40.456,32.545 L40.456,20.293 Z"/>
</svg>