<?xml version="1.0" encoding="UTF-8"?>
<svg width="840px" height="17px" viewBox="0 0 840 17" version="1.1" xmlns="http://www.w3.org/2000/svg" xmlns:xlink="http://www.w3.org/1999/xlink">
    <title>1Apple CarPlay ist e</title>
    <g id="Page-1" stroke="none" stroke-width="1" fill="none" fill-rule="evenodd">
        <g id="1Apple-CarPlay-ist-e" transform="translate(0.540000, 0.520000)" fill="#282830" fill-rule="nonzero">
            <polygon id="1" points="1.818 0.036 0 1.296 0 1.962 1.431 0.972 1.431 6.48 2.097 6.48 2.097 0.036"></polygon>
            <path d="M12.258639,12.48 L13.428639,12.48 L9.333639,1.83 L8.163639,1.83 L4.068639,12.48 L5.208639,12.48 L6.513639,9.03 L10.953639,9.03 L12.258639,12.48 Z M6.858639,8.085 L8.733639,3.12 L10.608639,8.085 L6.858639,8.085 Z" id="A"></path>
            <path d="M19.549704,4.8 C18.424704,4.8 17.254704,5.355 16.609704,6.465 L16.609704,4.95 L15.559704,4.95 L15.559704,15.63 L16.609704,15.63 L16.609704,10.965 C17.224704,12.09 18.409704,12.63 19.459704,12.63 C21.664704,12.63 23.149704,10.965 23.149704,8.7 C23.149704,6.45 21.664704,4.8 19.549704,4.8 Z M19.369704,11.64 C17.749704,11.64 16.519704,10.365 16.519704,8.7 C16.519704,7.005 17.794704,5.79 19.399704,5.79 C21.049704,5.79 22.084704,7.065 22.084704,8.715 C22.084704,10.425 20.974704,11.64 19.369704,11.64 Z" id="p"></path>
            <path d="M29.690769,4.8 C28.565769,4.8 27.395769,5.355 26.750769,6.465 L26.750769,4.95 L25.700769,4.95 L25.700769,15.63 L26.750769,15.63 L26.750769,10.965 C27.365769,12.09 28.550769,12.63 29.600769,12.63 C31.805769,12.63 33.290769,10.965 33.290769,8.7 C33.290769,6.45 31.805769,4.8 29.690769,4.8 Z M29.510769,11.64 C27.890769,11.64 26.660769,10.365 26.660769,8.7 C26.660769,7.005 27.935769,5.79 29.540769,5.79 C31.190769,5.79 32.225769,7.065 32.225769,8.715 C32.225769,10.425 31.115769,11.64 29.510769,11.64 Z" id="p"></path>
            <path d="M37.341834,12.63 C37.866834,12.63 38.286834,12.495 38.526834,12.36 L38.361834,11.475 C38.211834,11.535 37.911834,11.67 37.581834,11.67 C37.131834,11.67 36.846834,11.385 36.846834,10.68 L36.846834,1.2 L35.796834,1.2 L35.796834,10.83 C35.796834,12.075 36.396834,12.63 37.341834,12.63 Z" id="l"></path>
            <path d="M47.092899,8.655 C47.092899,6.405 45.652899,4.8 43.552899,4.8 C41.437899,4.8 39.847899,6.465 39.847899,8.715 C39.847899,10.875 41.332899,12.63 43.747899,12.63 C45.082899,12.63 46.207899,12.135 46.852899,11.55 L46.552899,10.62 C45.967899,11.175 44.977899,11.67 43.807899,11.67 C42.082899,11.67 40.957899,10.56 40.912899,8.79 L47.092899,8.79 L47.092899,8.655 Z M40.972899,7.965 C41.212899,6.63 42.307899,5.73 43.552899,5.73 C44.902899,5.73 45.817899,6.675 45.982899,7.965 L40.972899,7.965 Z" id="e"></path>
            <path d="M58.990029,12.63 C60.430029,12.63 61.630029,12.225 62.740029,11.4 L62.395029,10.35 C61.540029,11.025 60.370029,11.55 59.020029,11.55 C56.485029,11.55 54.655029,9.66 54.655029,7.125 C54.655029,4.605 56.470029,2.76 59.020029,2.76 C60.220029,2.76 61.330029,3.21 62.185029,3.93 L62.575029,2.865 C61.630029,2.13 60.400029,1.68 59.005029,1.68 C55.840029,1.68 53.500029,3.945 53.500029,7.125 C53.500029,10.32 55.825029,12.63 58.990029,12.63 Z" id="C"></path>
            <path d="M67.931094,4.8 C66.656094,4.8 65.636094,5.235 65.006094,5.7 L65.306094,6.645 C65.756094,6.285 66.626094,5.73 67.781094,5.73 C69.191094,5.73 69.911094,6.555 69.911094,7.8 L69.911094,7.995 C65.996094,8.025 64.541094,8.7 64.541094,10.395 C64.541094,11.76 65.486094,12.63 67.106094,12.63 C68.456094,12.63 69.461094,12 69.926094,11.16 L69.926094,12.48 L70.961094,12.48 L70.961094,7.8 C70.961094,5.79 69.836094,4.8 67.931094,4.8 Z M67.316094,11.76 C66.221094,11.76 65.636094,11.205 65.636094,10.365 C65.636094,9.27 66.626094,8.79 69.911094,8.76 L69.911094,9.51 C69.911094,11.145 68.471094,11.76 67.316094,11.76 Z" id="a"></path>
            <path d="M77.052159,4.785 C76.197159,4.785 75.537159,5.175 75.102159,6.3 L75.102159,4.95 L74.067159,4.95 L74.067159,12.48 L75.102159,12.48 L75.102159,8.475 C75.102159,6.93 75.687159,5.82 76.947159,5.82 C77.232159,5.82 77.487159,5.895 77.712159,5.97 L77.967159,4.95 C77.727159,4.845 77.382159,4.785 77.052159,4.785 Z" id="r"></path>
            <path d="M83.053224,1.83 L80.098224,1.83 L80.098224,12.48 L81.223224,12.48 L81.223224,8.505 L83.053224,8.505 C85.393224,8.505 86.638224,6.885 86.638224,5.1 C86.638224,3.12 85.393224,1.83 83.053224,1.83 Z M82.933224,7.515 L81.223224,7.515 L81.223224,2.82 L82.933224,2.82 C84.358224,2.82 85.483224,3.39 85.483224,5.1 C85.483224,6.645 84.358224,7.515 82.933224,7.515 Z" id="P"></path>
            <path d="M90.644289,12.63 C91.169289,12.63 91.589289,12.495 91.829289,12.36 L91.664289,11.475 C91.514289,11.535 91.214289,11.67 90.884289,11.67 C90.434289,11.67 90.149289,11.385 90.149289,10.68 L90.149289,1.2 L89.099289,1.2 L89.099289,10.83 C89.099289,12.075 89.699289,12.63 90.644289,12.63 Z" id="l"></path>
            <path d="M96.795354,4.8 C95.520354,4.8 94.500354,5.235 93.870354,5.7 L94.170354,6.645 C94.620354,6.285 95.490354,5.73 96.645354,5.73 C98.055354,5.73 98.775354,6.555 98.775354,7.8 L98.775354,7.995 C94.860354,8.025 93.405354,8.7 93.405354,10.395 C93.405354,11.76 94.350354,12.63 95.970354,12.63 C97.320354,12.63 98.325354,12 98.790354,11.16 L98.790354,12.48 L99.825354,12.48 L99.825354,7.8 C99.825354,5.79 98.700354,4.8 96.795354,4.8 Z M96.180354,11.76 C95.085354,11.76 94.500354,11.205 94.500354,10.365 C94.500354,9.27 95.490354,8.79 98.775354,8.76 L98.775354,9.51 C98.775354,11.145 97.335354,11.76 96.180354,11.76 Z" id="a"></path>
            <path d="M107.686419,4.95 L105.376419,10.86 L102.751419,4.95 L101.596419,4.95 L104.821419,12.105 L104.341419,13.215 C103.831419,14.4 103.276419,14.7 102.466419,14.7 C102.241419,14.7 102.061419,14.67 101.896419,14.625 L101.746419,15.585 C102.031419,15.675 102.331419,15.705 102.616419,15.705 C103.861419,15.705 104.686419,15.03 105.286419,13.56 L108.811419,4.95 L107.686419,4.95 Z" id="y"></path>
            <path d="M115.563549,3.3 C116.013549,3.3 116.358549,2.955 116.358549,2.505 C116.358549,2.055 116.013549,1.71 115.563549,1.71 C115.113549,1.71 114.768549,2.055 114.768549,2.505 C114.768549,2.955 115.113549,3.3 115.563549,3.3 Z M115.023549,12.48 L116.073549,12.48 L116.073549,4.95 L115.023549,4.95 L115.023549,12.48 Z" id="i"></path>
            <path d="M121.399614,12.63 C123.154614,12.63 124.174614,11.715 124.174614,10.38 C124.174614,9 123.064614,8.55 121.789614,8.19 C120.829614,7.92 120.049614,7.65 120.049614,6.855 C120.049614,6.12 120.679614,5.685 121.624614,5.685 C122.494614,5.685 123.229614,6.045 123.709614,6.36 L123.934614,5.43 C123.409614,5.1 122.614614,4.8 121.654614,4.8 C120.079614,4.8 118.999614,5.61 118.999614,6.96 C118.999614,8.355 120.139614,8.76 121.279614,9.105 C122.464614,9.48 123.139614,9.705 123.139614,10.485 C123.139614,11.265 122.494614,11.745 121.459614,11.745 C120.469614,11.745 119.569614,11.34 119.059614,10.89 L118.774614,11.82 C119.299614,12.285 120.349614,12.63 121.399614,12.63 Z" id="s"></path>
            <path d="M129.035679,12.63 C129.770679,12.63 130.415679,12.375 130.790679,12.105 L130.580679,11.19 C130.265679,11.385 129.800679,11.64 129.230679,11.64 C128.555679,11.64 128.165679,11.25 128.165679,10.47 L128.165679,5.865 L130.355679,5.865 L130.355679,4.95 L128.165679,4.95 L128.165679,2.565 L127.115679,2.745 L127.115679,4.95 L126.050679,4.95 L126.050679,5.865 L127.115679,5.865 L127.115679,10.59 C127.115679,11.97 127.895679,12.63 129.035679,12.63 Z" id="t"></path>
            <path d="M143.587809,8.655 C143.587809,6.405 142.147809,4.8 140.047809,4.8 C137.932809,4.8 136.342809,6.465 136.342809,8.715 C136.342809,10.875 137.827809,12.63 140.242809,12.63 C141.577809,12.63 142.702809,12.135 143.347809,11.55 L143.047809,10.62 C142.462809,11.175 141.472809,11.67 140.302809,11.67 C138.577809,11.67 137.452809,10.56 137.407809,8.79 L143.587809,8.79 L143.587809,8.655 Z M137.467809,7.965 C137.707809,6.63 138.802809,5.73 140.047809,5.73 C141.397809,5.73 142.312809,6.675 142.477809,7.965 L137.467809,7.965 Z" id="e"></path>
            <path d="M146.603874,3.3 C147.053874,3.3 147.398874,2.955 147.398874,2.505 C147.398874,2.055 147.053874,1.71 146.603874,1.71 C146.153874,1.71 145.808874,2.055 145.808874,2.505 C145.808874,2.955 146.153874,3.3 146.603874,3.3 Z M146.063874,12.48 L147.113874,12.48 L147.113874,4.95 L146.063874,4.95 L146.063874,12.48 Z" id="i"></path>
            <path d="M154.119939,4.8 C152.829939,4.8 151.854939,5.4 151.359939,6.345 L151.359939,4.95 L150.309939,4.95 L150.309939,12.48 L151.359939,12.48 L151.359939,8.19 C151.359939,6.78 152.379939,5.76 153.789939,5.76 C155.094939,5.76 155.784939,6.585 155.784939,8.16 L155.784939,12.48 L156.834939,12.48 L156.834939,7.875 C156.834939,5.805 155.799939,4.8 154.119939,4.8 Z" id="n"></path>
            <path d="M166.541004,8.655 C166.541004,6.405 165.101004,4.8 163.001004,4.8 C160.886004,4.8 159.296004,6.465 159.296004,8.715 C159.296004,10.875 160.781004,12.63 163.196004,12.63 C164.531004,12.63 165.656004,12.135 166.301004,11.55 L166.001004,10.62 C165.416004,11.175 164.426004,11.67 163.256004,11.67 C161.531004,11.67 160.406004,10.56 160.361004,8.79 L166.541004,8.79 L166.541004,8.655 Z M160.421004,7.965 C160.661004,6.63 161.756004,5.73 163.001004,5.73 C164.351004,5.73 165.266004,6.675 165.431004,7.965 L160.421004,7.965 Z" id="e"></path>
            <path d="M179.938134,8.655 C179.938134,6.405 178.498134,4.8 176.398134,4.8 C174.283134,4.8 172.693134,6.465 172.693134,8.715 C172.693134,10.875 174.178134,12.63 176.593134,12.63 C177.928134,12.63 179.053134,12.135 179.698134,11.55 L179.398134,10.62 C178.813134,11.175 177.823134,11.67 176.653134,11.67 C174.928134,11.67 173.803134,10.56 173.758134,8.79 L179.938134,8.79 L179.938134,8.655 Z M173.818134,7.965 C174.058134,6.63 175.153134,5.73 176.398134,5.73 C177.748134,5.73 178.663134,6.675 178.828134,7.965 L173.818134,7.965 Z" id="e"></path>
            <path d="M182.954199,3.3 C183.404199,3.3 183.749199,2.955 183.749199,2.505 C183.749199,2.055 183.404199,1.71 182.954199,1.71 C182.504199,1.71 182.159199,2.055 182.159199,2.505 C182.159199,2.955 182.504199,3.3 182.954199,3.3 Z M182.414199,12.48 L183.464199,12.48 L183.464199,4.95 L182.414199,4.95 L182.414199,12.48 Z" id="i"></path>
            <path d="M190.470264,4.8 C189.180264,4.8 188.205264,5.4 187.710264,6.345 L187.710264,4.95 L186.660264,4.95 L186.660264,12.48 L187.710264,12.48 L187.710264,8.19 C187.710264,6.78 188.730264,5.76 190.140264,5.76 C191.445264,5.76 192.135264,6.585 192.135264,8.16 L192.135264,12.48 L193.185264,12.48 L193.185264,7.875 C193.185264,5.805 192.150264,4.8 190.470264,4.8 Z" id="n"></path>
            <path d="M202.201329,4.95 L202.201329,6.42 C201.541329,5.34 200.581329,4.8 199.351329,4.8 C197.101329,4.8 195.646329,6.48 195.646329,8.685 C195.646329,10.905 197.161329,12.525 199.336329,12.525 C200.536329,12.525 201.556329,12.03 202.201329,10.89 L202.201329,12.27 C202.201329,13.98 201.106329,14.79 199.456329,14.79 C198.136329,14.79 197.221329,14.295 196.561329,13.695 L196.231329,14.73 C196.951329,15.315 197.956329,15.765 199.411329,15.765 C201.706329,15.765 203.251329,14.595 203.251329,12.285 L203.251329,4.95 L202.201329,4.95 Z M199.501329,11.55 C197.866329,11.55 196.711329,10.35 196.711329,8.67 C196.711329,7.05 197.806329,5.775 199.486329,5.775 C201.106329,5.775 202.276329,7.125 202.276329,8.655 C202.276329,10.29 201.166329,11.55 199.501329,11.55 Z" id="g"></path>
            <path d="M213.017394,8.655 C213.017394,6.405 211.577394,4.8 209.477394,4.8 C207.362394,4.8 205.772394,6.465 205.772394,8.715 C205.772394,10.875 207.257394,12.63 209.672394,12.63 C211.007394,12.63 212.132394,12.135 212.777394,11.55 L212.477394,10.62 C211.892394,11.175 210.902394,11.67 209.732394,11.67 C208.007394,11.67 206.882394,10.56 206.837394,8.79 L213.017394,8.79 L213.017394,8.655 Z M206.897394,7.965 C207.137394,6.63 208.232394,5.73 209.477394,5.73 C210.827394,5.73 211.742394,6.675 211.907394,7.965 L206.897394,7.965 Z" id="e"></path>
            <path d="M217.638459,12.63 C218.373459,12.63 219.018459,12.375 219.393459,12.105 L219.183459,11.19 C218.868459,11.385 218.403459,11.64 217.833459,11.64 C217.158459,11.64 216.768459,11.25 216.768459,10.47 L216.768459,5.865 L218.958459,5.865 L218.958459,4.95 L216.768459,4.95 L216.768459,2.565 L215.718459,2.745 L215.718459,4.95 L214.653459,4.95 L214.653459,5.865 L215.718459,5.865 L215.718459,10.59 C215.718459,11.97 216.498459,12.63 217.638459,12.63 Z" id="t"></path>
            <path d="M224.254524,4.785 C223.399524,4.785 222.739524,5.175 222.304524,6.3 L222.304524,4.95 L221.269524,4.95 L221.269524,12.48 L222.304524,12.48 L222.304524,8.475 C222.304524,6.93 222.889524,5.82 224.149524,5.82 C224.434524,5.82 224.689524,5.895 224.914524,5.97 L225.169524,4.95 C224.929524,4.845 224.584524,4.785 224.254524,4.785 Z" id="r"></path>
            <path d="M229.775589,4.8 C228.500589,4.8 227.480589,5.235 226.850589,5.7 L227.150589,6.645 C227.600589,6.285 228.470589,5.73 229.625589,5.73 C231.035589,5.73 231.755589,6.555 231.755589,7.8 L231.755589,7.995 C227.840589,8.025 226.385589,8.7 226.385589,10.395 C226.385589,11.76 227.330589,12.63 228.950589,12.63 C230.300589,12.63 231.305589,12 231.770589,11.16 L231.770589,12.48 L232.805589,12.48 L232.805589,7.8 C232.805589,5.79 231.680589,4.8 229.775589,4.8 Z M229.160589,11.76 C228.065589,11.76 227.480589,11.205 227.480589,10.365 C227.480589,9.27 228.470589,8.79 231.755589,8.76 L231.755589,9.51 C231.755589,11.145 230.315589,11.76 229.160589,11.76 Z" id="a"></path>
            <path d="M241.806654,4.95 L241.806654,6.42 C241.146654,5.34 240.186654,4.8 238.956654,4.8 C236.706654,4.8 235.251654,6.48 235.251654,8.685 C235.251654,10.905 236.766654,12.525 238.941654,12.525 C240.141654,12.525 241.161654,12.03 241.806654,10.89 L241.806654,12.27 C241.806654,13.98 240.711654,14.79 239.061654,14.79 C237.741654,14.79 236.826654,14.295 236.166654,13.695 L235.836654,14.73 C236.556654,15.315 237.561654,15.765 239.016654,15.765 C241.311654,15.765 242.856654,14.595 242.856654,12.285 L242.856654,4.95 L241.806654,4.95 Z M239.106654,11.55 C237.471654,11.55 236.316654,10.35 236.316654,8.67 C236.316654,7.05 237.411654,5.775 239.091654,5.775 C240.711654,5.775 241.881654,7.125 241.881654,8.655 C241.881654,10.29 240.771654,11.55 239.106654,11.55 Z" id="g"></path>
            <path d="M252.622719,8.655 C252.622719,6.405 251.182719,4.8 249.082719,4.8 C246.967719,4.8 245.377719,6.465 245.377719,8.715 C245.377719,10.875 246.862719,12.63 249.277719,12.63 C250.612719,12.63 251.737719,12.135 252.382719,11.55 L252.082719,10.62 C251.497719,11.175 250.507719,11.67 249.337719,11.67 C247.612719,11.67 246.487719,10.56 246.442719,8.79 L252.622719,8.79 L252.622719,8.655 Z M246.502719,7.965 C246.742719,6.63 247.837719,5.73 249.082719,5.73 C250.432719,5.73 251.347719,6.675 251.512719,7.965 L246.502719,7.965 Z" id="e"></path>
            <path d="M258.908784,4.8 C257.618784,4.8 256.643784,5.4 256.148784,6.345 L256.148784,4.95 L255.098784,4.95 L255.098784,12.48 L256.148784,12.48 L256.148784,8.19 C256.148784,6.78 257.168784,5.76 258.578784,5.76 C259.883784,5.76 260.573784,6.585 260.573784,8.16 L260.573784,12.48 L261.623784,12.48 L261.623784,7.875 C261.623784,5.805 260.588784,4.8 258.908784,4.8 Z" id="n"></path>
            <path d="M271.329849,8.655 C271.329849,6.405 269.889849,4.8 267.789849,4.8 C265.674849,4.8 264.084849,6.465 264.084849,8.715 C264.084849,10.875 265.569849,12.63 267.984849,12.63 C269.319849,12.63 270.444849,12.135 271.089849,11.55 L270.789849,10.62 C270.204849,11.175 269.214849,11.67 268.044849,11.67 C266.319849,11.67 265.194849,10.56 265.149849,8.79 L271.329849,8.79 L271.329849,8.655 Z M265.209849,7.965 C265.449849,6.63 266.544849,5.73 267.789849,5.73 C269.139849,5.73 270.054849,6.675 270.219849,7.965 L265.209849,7.965 Z" id="e"></path>
            <polygon id="M" points="278.291979 12.48 279.401979 12.48 279.401979 3.465 282.776979 8.595 283.586979 8.595 287.021979 3.465 287.021979 12.48 288.131979 12.48 288.131979 1.83 286.871979 1.83 283.181979 7.305 279.581979 1.83 278.291979 1.83"></polygon>
            <path d="M294.433044,4.8 C293.158044,4.8 292.138044,5.235 291.508044,5.7 L291.808044,6.645 C292.258044,6.285 293.128044,5.73 294.283044,5.73 C295.693044,5.73 296.413044,6.555 296.413044,7.8 L296.413044,7.995 C292.498044,8.025 291.043044,8.7 291.043044,10.395 C291.043044,11.76 291.988044,12.63 293.608044,12.63 C294.958044,12.63 295.963044,12 296.428044,11.16 L296.428044,12.48 L297.463044,12.48 L297.463044,7.8 C297.463044,5.79 296.338044,4.8 294.433044,4.8 Z M293.818044,11.76 C292.723044,11.76 292.138044,11.205 292.138044,10.365 C292.138044,9.27 293.128044,8.79 296.413044,8.76 L296.413044,9.51 C296.413044,11.145 294.973044,11.76 293.818044,11.76 Z" id="a"></path>
            <path d="M303.554109,4.785 C302.699109,4.785 302.039109,5.175 301.604109,6.3 L301.604109,4.95 L300.569109,4.95 L300.569109,12.48 L301.604109,12.48 L301.604109,8.475 C301.604109,6.93 302.189109,5.82 303.449109,5.82 C303.734109,5.82 303.989109,5.895 304.214109,5.97 L304.469109,4.95 C304.229109,4.845 303.884109,4.785 303.554109,4.785 Z" id="r"></path>
            <polygon id="k" points="306.450174 12.48 307.500174 12.48 307.500174 8.595 311.145174 12.48 312.585174 12.48 308.805174 8.505 312.450174 4.95 311.040174 4.95 307.500174 8.52 307.500174 1.2 306.450174 1.2"></polygon>
            <path d="M321.061239,8.655 C321.061239,6.405 319.621239,4.8 317.521239,4.8 C315.406239,4.8 313.816239,6.465 313.816239,8.715 C313.816239,10.875 315.301239,12.63 317.716239,12.63 C319.051239,12.63 320.176239,12.135 320.821239,11.55 L320.521239,10.62 C319.936239,11.175 318.946239,11.67 317.776239,11.67 C316.051239,11.67 314.926239,10.56 314.881239,8.79 L321.061239,8.79 L321.061239,8.655 Z M314.941239,7.965 C315.181239,6.63 316.276239,5.73 317.521239,5.73 C318.871239,5.73 319.786239,6.675 319.951239,7.965 L314.941239,7.965 Z" id="e"></path>
            <path d="M333.768369,1.2 L333.768369,6.45 C333.168369,5.325 332.058369,4.8 330.858369,4.8 C328.743369,4.8 327.213369,6.435 327.213369,8.73 C327.213369,10.995 328.713369,12.63 330.858369,12.63 C332.028369,12.63 333.108369,12.15 333.768369,10.935 L333.768369,12.51 L334.818369,12.51 L334.818369,1.2 L333.768369,1.2 Z M330.993369,11.64 C329.373369,11.64 328.293369,10.455 328.293369,8.73 C328.293369,6.975 329.418369,5.79 331.008369,5.79 C332.628369,5.79 333.843369,7.035 333.843369,8.7 C333.843369,10.365 332.628369,11.64 330.993369,11.64 Z" id="d"></path>
            <path d="M344.584434,8.655 C344.584434,6.405 343.144434,4.8 341.044434,4.8 C338.929434,4.8 337.339434,6.465 337.339434,8.715 C337.339434,10.875 338.824434,12.63 341.239434,12.63 C342.574434,12.63 343.699434,12.135 344.344434,11.55 L344.044434,10.62 C343.459434,11.175 342.469434,11.67 341.299434,11.67 C339.574434,11.67 338.449434,10.56 338.404434,8.79 L344.584434,8.79 L344.584434,8.655 Z M338.464434,7.965 C338.704434,6.63 339.799434,5.73 341.044434,5.73 C342.394434,5.73 343.309434,6.675 343.474434,7.965 L338.464434,7.965 Z" id="e"></path>
            <path d="M350.045499,4.785 C349.190499,4.785 348.530499,5.175 348.095499,6.3 L348.095499,4.95 L347.060499,4.95 L347.060499,12.48 L348.095499,12.48 L348.095499,8.475 C348.095499,6.93 348.680499,5.82 349.940499,5.82 C350.225499,5.82 350.480499,5.895 350.705499,5.97 L350.960499,4.95 C350.720499,4.845 350.375499,4.785 350.045499,4.785 Z" id="r"></path>
            <path d="M364.387629,12.48 L365.557629,12.48 L361.462629,1.83 L360.292629,1.83 L356.197629,12.48 L357.337629,12.48 L358.642629,9.03 L363.082629,9.03 L364.387629,12.48 Z M358.987629,8.085 L360.862629,3.12 L362.737629,8.085 L358.987629,8.085 Z" id="A"></path>
            <path d="M371.678694,4.8 C370.553694,4.8 369.383694,5.355 368.738694,6.465 L368.738694,4.95 L367.688694,4.95 L367.688694,15.63 L368.738694,15.63 L368.738694,10.965 C369.353694,12.09 370.538694,12.63 371.588694,12.63 C373.793694,12.63 375.278694,10.965 375.278694,8.7 C375.278694,6.45 373.793694,4.8 371.678694,4.8 Z M371.498694,11.64 C369.878694,11.64 368.648694,10.365 368.648694,8.7 C368.648694,7.005 369.923694,5.79 371.528694,5.79 C373.178694,5.79 374.213694,7.065 374.213694,8.715 C374.213694,10.425 373.103694,11.64 371.498694,11.64 Z" id="p"></path>
            <path d="M381.819759,4.8 C380.694759,4.8 379.524759,5.355 378.879759,6.465 L378.879759,4.95 L377.829759,4.95 L377.829759,15.63 L378.879759,15.63 L378.879759,10.965 C379.494759,12.09 380.679759,12.63 381.729759,12.63 C383.934759,12.63 385.419759,10.965 385.419759,8.7 C385.419759,6.45 383.934759,4.8 381.819759,4.8 Z M381.639759,11.64 C380.019759,11.64 378.789759,10.365 378.789759,8.7 C378.789759,7.005 380.064759,5.79 381.669759,5.79 C383.319759,5.79 384.354759,7.065 384.354759,8.715 C384.354759,10.425 383.244759,11.64 381.639759,11.64 Z" id="p"></path>
            <path d="M389.470824,12.63 C389.995824,12.63 390.415824,12.495 390.655824,12.36 L390.490824,11.475 C390.340824,11.535 390.040824,11.67 389.710824,11.67 C389.260824,11.67 388.975824,11.385 388.975824,10.68 L388.975824,1.2 L387.925824,1.2 L387.925824,10.83 C387.925824,12.075 388.525824,12.63 389.470824,12.63 Z" id="l"></path>
            <path d="M399.221889,8.655 C399.221889,6.405 397.781889,4.8 395.681889,4.8 C393.566889,4.8 391.976889,6.465 391.976889,8.715 C391.976889,10.875 393.461889,12.63 395.876889,12.63 C397.211889,12.63 398.336889,12.135 398.981889,11.55 L398.681889,10.62 C398.096889,11.175 397.106889,11.67 395.936889,11.67 C394.211889,11.67 393.086889,10.56 393.041889,8.79 L399.221889,8.79 L399.221889,8.655 Z M393.101889,7.965 C393.341889,6.63 394.436889,5.73 395.681889,5.73 C397.031889,5.73 397.946889,6.675 398.111889,7.965 L393.101889,7.965 Z" id="e"></path>
            <polygon id="I" points="406.184019 12.48 407.309019 12.48 407.309019 1.83 406.184019 1.83"></polygon>
            <path d="M414.495084,4.8 C413.205084,4.8 412.230084,5.4 411.735084,6.345 L411.735084,4.95 L410.685084,4.95 L410.685084,12.48 L411.735084,12.48 L411.735084,8.19 C411.735084,6.78 412.755084,5.76 414.165084,5.76 C415.470084,5.76 416.160084,6.585 416.160084,8.16 L416.160084,12.48 L417.210084,12.48 L417.210084,7.875 C417.210084,5.805 416.175084,4.8 414.495084,4.8 Z" id="n"></path>
            <path d="M423.391149,12.63 C424.516149,12.63 425.506149,12.255 426.166149,11.76 L425.896149,10.83 C425.221149,11.31 424.351149,11.64 423.436149,11.64 C421.861149,11.64 420.751149,10.47 420.751149,8.7 C420.751149,6.96 421.861149,5.79 423.526149,5.79 C424.381149,5.79 425.131149,6.105 425.716149,6.555 L426.061149,5.595 C425.416149,5.145 424.546149,4.8 423.481149,4.8 C421.231149,4.8 419.671149,6.405 419.671149,8.73 C419.671149,11.055 421.231149,12.63 423.391149,12.63 Z" id="c"></path>
            <path d="M429.332214,12.645 C429.782214,12.645 430.127214,12.3 430.127214,11.865 C430.127214,11.415 429.782214,11.07 429.332214,11.07 C428.897214,11.07 428.552214,11.415 428.552214,11.865 C428.552214,12.3 428.897214,12.645 429.332214,12.645 Z" id="."></path>
            <path d="M436.876344,6.48 L440.881344,6.48 L440.881344,5.877 L437.794344,5.877 L439.405344,4.014 C440.134344,3.186 440.692344,2.475 440.692344,1.674 C440.692344,0.765 440.026344,0 438.865344,0 C438.073344,0 437.389344,0.351 436.939344,0.891 L437.236344,1.413 C437.677344,0.9 438.190344,0.603 438.820344,0.603 C439.648344,0.603 440.026344,1.089 440.026344,1.71 C440.026344,2.349 439.630344,2.88 438.964344,3.645 L436.876344,6.066 L436.876344,6.48 Z" id="2"></path>
            <path d="M450.259983,12.48 L451.429983,12.48 L447.334983,1.83 L446.164983,1.83 L442.069983,12.48 L443.209983,12.48 L444.514983,9.03 L448.954983,9.03 L450.259983,12.48 Z M444.859983,8.085 L446.734983,3.12 L448.609983,8.085 L444.859983,8.085 Z" id="A"></path>
            <path d="M457.371048,4.8 C456.081048,4.8 455.106048,5.4 454.611048,6.345 L454.611048,4.95 L453.561048,4.95 L453.561048,12.48 L454.611048,12.48 L454.611048,8.19 C454.611048,6.78 455.631048,5.76 457.041048,5.76 C458.346048,5.76 459.036048,6.585 459.036048,8.16 L459.036048,12.48 L460.086048,12.48 L460.086048,7.875 C460.086048,5.805 459.051048,4.8 457.371048,4.8 Z" id="n"></path>
            <path d="M469.102113,1.2 L469.102113,6.45 C468.502113,5.325 467.392113,4.8 466.192113,4.8 C464.077113,4.8 462.547113,6.435 462.547113,8.73 C462.547113,10.995 464.047113,12.63 466.192113,12.63 C467.362113,12.63 468.442113,12.15 469.102113,10.935 L469.102113,12.51 L470.152113,12.51 L470.152113,1.2 L469.102113,1.2 Z M466.327113,11.64 C464.707113,11.64 463.627113,10.455 463.627113,8.73 C463.627113,6.975 464.752113,5.79 466.342113,5.79 C467.962113,5.79 469.177113,7.035 469.177113,8.7 C469.177113,10.365 467.962113,11.64 466.327113,11.64 Z" id="d"></path>
            <path d="M476.318178,4.785 C475.463178,4.785 474.803178,5.175 474.368178,6.3 L474.368178,4.95 L473.333178,4.95 L473.333178,12.48 L474.368178,12.48 L474.368178,8.475 C474.368178,6.93 474.953178,5.82 476.213178,5.82 C476.498178,5.82 476.753178,5.895 476.978178,5.97 L477.233178,4.95 C476.993178,4.845 476.648178,4.785 476.318178,4.785 Z" id="r"></path>
            <path d="M482.229243,12.63 C484.554243,12.63 486.174243,11.01 486.174243,8.715 C486.174243,6.42 484.554243,4.8 482.229243,4.8 C479.904243,4.8 478.284243,6.42 478.284243,8.715 C478.284243,11.01 479.904243,12.63 482.229243,12.63 Z M482.229243,11.625 C480.549243,11.625 479.364243,10.455 479.364243,8.7 C479.364243,6.99 480.519243,5.805 482.229243,5.805 C483.909243,5.805 485.109243,6.975 485.109243,8.715 C485.109243,10.44 483.939243,11.625 482.229243,11.625 Z" id="o"></path>
            <path d="M489.265308,3.3 C489.715308,3.3 490.060308,2.955 490.060308,2.505 C490.060308,2.055 489.715308,1.71 489.265308,1.71 C488.815308,1.71 488.470308,2.055 488.470308,2.505 C488.470308,2.955 488.815308,3.3 489.265308,3.3 Z M488.725308,12.48 L489.775308,12.48 L489.775308,4.95 L488.725308,4.95 L488.725308,12.48 Z" id="i"></path>
            <path d="M498.866373,1.2 L498.866373,6.45 C498.266373,5.325 497.156373,4.8 495.956373,4.8 C493.841373,4.8 492.311373,6.435 492.311373,8.73 C492.311373,10.995 493.811373,12.63 495.956373,12.63 C497.126373,12.63 498.206373,12.15 498.866373,10.935 L498.866373,12.51 L499.916373,12.51 L499.916373,1.2 L498.866373,1.2 Z M496.091373,11.64 C494.471373,11.64 493.391373,10.455 493.391373,8.73 C493.391373,6.975 494.516373,5.79 496.106373,5.79 C497.726373,5.79 498.941373,7.035 498.941373,8.7 C498.941373,10.365 497.726373,11.64 496.091373,11.64 Z" id="d"></path>
            <path d="M507.973503,3.3 C508.423503,3.3 508.768503,2.955 508.768503,2.505 C508.768503,2.055 508.423503,1.71 507.973503,1.71 C507.523503,1.71 507.178503,2.055 507.178503,2.505 C507.178503,2.955 507.523503,3.3 507.973503,3.3 Z M507.433503,12.48 L508.483503,12.48 L508.483503,4.95 L507.433503,4.95 L507.433503,12.48 Z" id="i"></path>
            <path d="M513.809568,12.63 C515.564568,12.63 516.584568,11.715 516.584568,10.38 C516.584568,9 515.474568,8.55 514.199568,8.19 C513.239568,7.92 512.459568,7.65 512.459568,6.855 C512.459568,6.12 513.089568,5.685 514.034568,5.685 C514.904568,5.685 515.639568,6.045 516.119568,6.36 L516.344568,5.43 C515.819568,5.1 515.024568,4.8 514.064568,4.8 C512.489568,4.8 511.409568,5.61 511.409568,6.96 C511.409568,8.355 512.549568,8.76 513.689568,9.105 C514.874568,9.48 515.549568,9.705 515.549568,10.485 C515.549568,11.265 514.904568,11.745 513.869568,11.745 C512.879568,11.745 511.979568,11.34 511.469568,10.89 L511.184568,11.82 C511.709568,12.285 512.759568,12.63 513.809568,12.63 Z" id="s"></path>
            <path d="M521.445633,12.63 C522.180633,12.63 522.825633,12.375 523.200633,12.105 L522.990633,11.19 C522.675633,11.385 522.210633,11.64 521.640633,11.64 C520.965633,11.64 520.575633,11.25 520.575633,10.47 L520.575633,5.865 L522.765633,5.865 L522.765633,4.95 L520.575633,4.95 L520.575633,2.565 L519.525633,2.745 L519.525633,4.95 L518.460633,4.95 L518.460633,5.865 L519.525633,5.865 L519.525633,10.59 C519.525633,11.97 520.305633,12.63 521.445633,12.63 Z" id="t"></path>
            <path d="M535.997763,8.655 C535.997763,6.405 534.557763,4.8 532.457763,4.8 C530.342763,4.8 528.752763,6.465 528.752763,8.715 C528.752763,10.875 530.237763,12.63 532.652763,12.63 C533.987763,12.63 535.112763,12.135 535.757763,11.55 L535.457763,10.62 C534.872763,11.175 533.882763,11.67 532.712763,11.67 C530.987763,11.67 529.862763,10.56 529.817763,8.79 L535.997763,8.79 L535.997763,8.655 Z M529.877763,7.965 C530.117763,6.63 531.212763,5.73 532.457763,5.73 C533.807763,5.73 534.722763,6.675 534.887763,7.965 L529.877763,7.965 Z" id="e"></path>
            <path d="M539.013828,3.3 C539.463828,3.3 539.808828,2.955 539.808828,2.505 C539.808828,2.055 539.463828,1.71 539.013828,1.71 C538.563828,1.71 538.218828,2.055 538.218828,2.505 C538.218828,2.955 538.563828,3.3 539.013828,3.3 Z M538.473828,12.48 L539.523828,12.48 L539.523828,4.95 L538.473828,4.95 L538.473828,12.48 Z" id="i"></path>
            <path d="M546.529893,4.8 C545.239893,4.8 544.264893,5.4 543.769893,6.345 L543.769893,4.95 L542.719893,4.95 L542.719893,12.48 L543.769893,12.48 L543.769893,8.19 C543.769893,6.78 544.789893,5.76 546.199893,5.76 C547.504893,5.76 548.194893,6.585 548.194893,8.16 L548.194893,12.48 L549.244893,12.48 L549.244893,7.875 C549.244893,5.805 548.209893,4.8 546.529893,4.8 Z" id="n"></path>
            <path d="M558.950958,8.655 C558.950958,6.405 557.510958,4.8 555.410958,4.8 C553.295958,4.8 551.705958,6.465 551.705958,8.715 C551.705958,10.875 553.190958,12.63 555.605958,12.63 C556.940958,12.63 558.065958,12.135 558.710958,11.55 L558.410958,10.62 C557.825958,11.175 556.835958,11.67 555.665958,11.67 C553.940958,11.67 552.815958,10.56 552.770958,8.79 L558.950958,8.79 L558.950958,8.655 Z M552.830958,7.965 C553.070958,6.63 554.165958,5.73 555.410958,5.73 C556.760958,5.73 557.675958,6.675 557.840958,7.965 L552.830958,7.965 Z" id="e"></path>
            <path d="M572.348088,8.655 C572.348088,6.405 570.908088,4.8 568.808088,4.8 C566.693088,4.8 565.103088,6.465 565.103088,8.715 C565.103088,10.875 566.588088,12.63 569.003088,12.63 C570.338088,12.63 571.463088,12.135 572.108088,11.55 L571.808088,10.62 C571.223088,11.175 570.233088,11.67 569.063088,11.67 C567.338088,11.67 566.213088,10.56 566.168088,8.79 L572.348088,8.79 L572.348088,8.655 Z M566.228088,7.965 C566.468088,6.63 567.563088,5.73 568.808088,5.73 C570.158088,5.73 571.073088,6.675 571.238088,7.965 L566.228088,7.965 Z" id="e"></path>
            <path d="M575.364153,3.3 C575.814153,3.3 576.159153,2.955 576.159153,2.505 C576.159153,2.055 575.814153,1.71 575.364153,1.71 C574.914153,1.71 574.569153,2.055 574.569153,2.505 C574.569153,2.955 574.914153,3.3 575.364153,3.3 Z M574.824153,12.48 L575.874153,12.48 L575.874153,4.95 L574.824153,4.95 L574.824153,12.48 Z" id="i"></path>
            <path d="M582.880218,4.8 C581.590218,4.8 580.615218,5.4 580.120218,6.345 L580.120218,4.95 L579.070218,4.95 L579.070218,12.48 L580.120218,12.48 L580.120218,8.19 C580.120218,6.78 581.140218,5.76 582.550218,5.76 C583.855218,5.76 584.545218,6.585 584.545218,8.16 L584.545218,12.48 L585.595218,12.48 L585.595218,7.875 C585.595218,5.805 584.560218,4.8 582.880218,4.8 Z" id="n"></path>
            <path d="M594.611283,4.95 L594.611283,6.42 C593.951283,5.34 592.991283,4.8 591.761283,4.8 C589.511283,4.8 588.056283,6.48 588.056283,8.685 C588.056283,10.905 589.571283,12.525 591.746283,12.525 C592.946283,12.525 593.966283,12.03 594.611283,10.89 L594.611283,12.27 C594.611283,13.98 593.516283,14.79 591.866283,14.79 C590.546283,14.79 589.631283,14.295 588.971283,13.695 L588.641283,14.73 C589.361283,15.315 590.366283,15.765 591.821283,15.765 C594.116283,15.765 595.661283,14.595 595.661283,12.285 L595.661283,4.95 L594.611283,4.95 Z M591.911283,11.55 C590.276283,11.55 589.121283,10.35 589.121283,8.67 C589.121283,7.05 590.216283,5.775 591.896283,5.775 C593.516283,5.775 594.686283,7.125 594.686283,8.655 C594.686283,10.29 593.576283,11.55 591.911283,11.55 Z" id="g"></path>
            <path d="M605.427348,8.655 C605.427348,6.405 603.987348,4.8 601.887348,4.8 C599.772348,4.8 598.182348,6.465 598.182348,8.715 C598.182348,10.875 599.667348,12.63 602.082348,12.63 C603.417348,12.63 604.542348,12.135 605.187348,11.55 L604.887348,10.62 C604.302348,11.175 603.312348,11.67 602.142348,11.67 C600.417348,11.67 599.292348,10.56 599.247348,8.79 L605.427348,8.79 L605.427348,8.655 Z M599.307348,7.965 C599.547348,6.63 600.642348,5.73 601.887348,5.73 C603.237348,5.73 604.152348,6.675 604.317348,7.965 L599.307348,7.965 Z" id="e"></path>
            <path d="M610.048413,12.63 C610.783413,12.63 611.428413,12.375 611.803413,12.105 L611.593413,11.19 C611.278413,11.385 610.813413,11.64 610.243413,11.64 C609.568413,11.64 609.178413,11.25 609.178413,10.47 L609.178413,5.865 L611.368413,5.865 L611.368413,4.95 L609.178413,4.95 L609.178413,2.565 L608.128413,2.745 L608.128413,4.95 L607.063413,4.95 L607.063413,5.865 L608.128413,5.865 L608.128413,10.59 C608.128413,11.97 608.908413,12.63 610.048413,12.63 Z" id="t"></path>
            <path d="M616.664478,4.785 C615.809478,4.785 615.149478,5.175 614.714478,6.3 L614.714478,4.95 L613.679478,4.95 L613.679478,12.48 L614.714478,12.48 L614.714478,8.475 C614.714478,6.93 615.299478,5.82 616.559478,5.82 C616.844478,5.82 617.099478,5.895 617.324478,5.97 L617.579478,4.95 C617.339478,4.845 616.994478,4.785 616.664478,4.785 Z" id="r"></path>
            <path d="M622.185543,4.8 C620.910543,4.8 619.890543,5.235 619.260543,5.7 L619.560543,6.645 C620.010543,6.285 620.880543,5.73 622.035543,5.73 C623.445543,5.73 624.165543,6.555 624.165543,7.8 L624.165543,7.995 C620.250543,8.025 618.795543,8.7 618.795543,10.395 C618.795543,11.76 619.740543,12.63 621.360543,12.63 C622.710543,12.63 623.715543,12 624.180543,11.16 L624.180543,12.48 L625.215543,12.48 L625.215543,7.8 C625.215543,5.79 624.090543,4.8 622.185543,4.8 Z M621.570543,11.76 C620.475543,11.76 619.890543,11.205 619.890543,10.365 C619.890543,9.27 620.880543,8.79 624.165543,8.76 L624.165543,9.51 C624.165543,11.145 622.725543,11.76 621.570543,11.76 Z" id="a"></path>
            <path d="M634.216608,4.95 L634.216608,6.42 C633.556608,5.34 632.596608,4.8 631.366608,4.8 C629.116608,4.8 627.661608,6.48 627.661608,8.685 C627.661608,10.905 629.176608,12.525 631.351608,12.525 C632.551608,12.525 633.571608,12.03 634.216608,10.89 L634.216608,12.27 C634.216608,13.98 633.121608,14.79 631.471608,14.79 C630.151608,14.79 629.236608,14.295 628.576608,13.695 L628.246608,14.73 C628.966608,15.315 629.971608,15.765 631.426608,15.765 C633.721608,15.765 635.266608,14.595 635.266608,12.285 L635.266608,4.95 L634.216608,4.95 Z M631.516608,11.55 C629.881608,11.55 628.726608,10.35 628.726608,8.67 C628.726608,7.05 629.821608,5.775 631.501608,5.775 C633.121608,5.775 634.291608,7.125 634.291608,8.655 C634.291608,10.29 633.181608,11.55 631.516608,11.55 Z" id="g"></path>
            <path d="M645.032673,8.655 C645.032673,6.405 643.592673,4.8 641.492673,4.8 C639.377673,4.8 637.787673,6.465 637.787673,8.715 C637.787673,10.875 639.272673,12.63 641.687673,12.63 C643.022673,12.63 644.147673,12.135 644.792673,11.55 L644.492673,10.62 C643.907673,11.175 642.917673,11.67 641.747673,11.67 C640.022673,11.67 638.897673,10.56 638.852673,8.79 L645.032673,8.79 L645.032673,8.655 Z M638.912673,7.965 C639.152673,6.63 640.247673,5.73 641.492673,5.73 C642.842673,5.73 643.757673,6.675 643.922673,7.965 L638.912673,7.965 Z" id="e"></path>
            <path d="M651.318738,4.8 C650.028738,4.8 649.053738,5.4 648.558738,6.345 L648.558738,4.95 L647.508738,4.95 L647.508738,12.48 L648.558738,12.48 L648.558738,8.19 C648.558738,6.78 649.578738,5.76 650.988738,5.76 C652.293738,5.76 652.983738,6.585 652.983738,8.16 L652.983738,12.48 L654.033738,12.48 L654.033738,7.875 C654.033738,5.805 652.998738,4.8 651.318738,4.8 Z" id="n"></path>
            <path d="M663.739803,8.655 C663.739803,6.405 662.299803,4.8 660.199803,4.8 C658.084803,4.8 656.494803,6.465 656.494803,8.715 C656.494803,10.875 657.979803,12.63 660.394803,12.63 C661.729803,12.63 662.854803,12.135 663.499803,11.55 L663.199803,10.62 C662.614803,11.175 661.624803,11.67 660.454803,11.67 C658.729803,11.67 657.604803,10.56 657.559803,8.79 L663.739803,8.79 L663.739803,8.655 Z M657.619803,7.965 C657.859803,6.63 658.954803,5.73 660.199803,5.73 C661.549803,5.73 662.464803,6.675 662.629803,7.965 L657.619803,7.965 Z" id="e"></path>
            <polygon id="M" points="670.701933 12.48 671.811933 12.48 671.811933 3.465 675.186933 8.595 675.996933 8.595 679.431933 3.465 679.431933 12.48 680.541933 12.48 680.541933 1.83 679.281933 1.83 675.591933 7.305 671.991933 1.83 670.701933 1.83"></polygon>
            <path d="M686.842998,4.8 C685.567998,4.8 684.547998,5.235 683.917998,5.7 L684.217998,6.645 C684.667998,6.285 685.537998,5.73 686.692998,5.73 C688.102998,5.73 688.822998,6.555 688.822998,7.8 L688.822998,7.995 C684.907998,8.025 683.452998,8.7 683.452998,10.395 C683.452998,11.76 684.397998,12.63 686.017998,12.63 C687.367998,12.63 688.372998,12 688.837998,11.16 L688.837998,12.48 L689.872998,12.48 L689.872998,7.8 C689.872998,5.79 688.747998,4.8 686.842998,4.8 Z M686.227998,11.76 C685.132998,11.76 684.547998,11.205 684.547998,10.365 C684.547998,9.27 685.537998,8.79 688.822998,8.76 L688.822998,9.51 C688.822998,11.145 687.382998,11.76 686.227998,11.76 Z" id="a"></path>
            <path d="M695.964063,4.785 C695.109063,4.785 694.449063,5.175 694.014063,6.3 L694.014063,4.95 L692.979063,4.95 L692.979063,12.48 L694.014063,12.48 L694.014063,8.475 C694.014063,6.93 694.599063,5.82 695.859063,5.82 C696.144063,5.82 696.399063,5.895 696.624063,5.97 L696.879063,4.95 C696.639063,4.845 696.294063,4.785 695.964063,4.785 Z" id="r"></path>
            <polygon id="k" points="698.860128 12.48 699.910128 12.48 699.910128 8.595 703.555128 12.48 704.995128 12.48 701.215128 8.505 704.860128 4.95 703.450128 4.95 699.910128 8.52 699.910128 1.2 698.860128 1.2"></polygon>
            <path d="M713.471193,8.655 C713.471193,6.405 712.031193,4.8 709.931193,4.8 C707.816193,4.8 706.226193,6.465 706.226193,8.715 C706.226193,10.875 707.711193,12.63 710.126193,12.63 C711.461193,12.63 712.586193,12.135 713.231193,11.55 L712.931193,10.62 C712.346193,11.175 711.356193,11.67 710.186193,11.67 C708.461193,11.67 707.336193,10.56 707.291193,8.79 L713.471193,8.79 L713.471193,8.655 Z M707.351193,7.965 C707.591193,6.63 708.686193,5.73 709.931193,5.73 C711.281193,5.73 712.196193,6.675 712.361193,7.965 L707.351193,7.965 Z" id="e"></path>
            <path d="M726.178323,1.2 L726.178323,6.45 C725.578323,5.325 724.468323,4.8 723.268323,4.8 C721.153323,4.8 719.623323,6.435 719.623323,8.73 C719.623323,10.995 721.123323,12.63 723.268323,12.63 C724.438323,12.63 725.518323,12.15 726.178323,10.935 L726.178323,12.51 L727.228323,12.51 L727.228323,1.2 L726.178323,1.2 Z M723.403323,11.64 C721.783323,11.64 720.703323,10.455 720.703323,8.73 C720.703323,6.975 721.828323,5.79 723.418323,5.79 C725.038323,5.79 726.253323,7.035 726.253323,8.7 C726.253323,10.365 725.038323,11.64 723.403323,11.64 Z" id="d"></path>
            <path d="M736.994388,8.655 C736.994388,6.405 735.554388,4.8 733.454388,4.8 C731.339388,4.8 729.749388,6.465 729.749388,8.715 C729.749388,10.875 731.234388,12.63 733.649388,12.63 C734.984388,12.63 736.109388,12.135 736.754388,11.55 L736.454388,10.62 C735.869388,11.175 734.879388,11.67 733.709388,11.67 C731.984388,11.67 730.859388,10.56 730.814388,8.79 L736.994388,8.79 L736.994388,8.655 Z M730.874388,7.965 C731.114388,6.63 732.209388,5.73 733.454388,5.73 C734.804388,5.73 735.719388,6.675 735.884388,7.965 L730.874388,7.965 Z" id="e"></path>
            <path d="M742.455453,4.785 C741.600453,4.785 740.940453,5.175 740.505453,6.3 L740.505453,4.95 L739.470453,4.95 L739.470453,12.48 L740.505453,12.48 L740.505453,8.475 C740.505453,6.93 741.090453,5.82 742.350453,5.82 C742.635453,5.82 742.890453,5.895 743.115453,5.97 L743.370453,4.95 C743.130453,4.845 742.785453,4.785 742.455453,4.785 Z" id="r"></path>
            <path d="M754.667583,7.44 L754.667583,8.4 L758.327583,8.4 C758.282583,9.9 756.917583,11.55 754.547583,11.55 C752.117583,11.55 750.437583,9.705 750.437583,7.17 C750.437583,4.575 752.267583,2.76 754.772583,2.76 C756.242583,2.76 757.292583,3.24 758.342583,4.035 L758.747583,2.97 C757.652583,2.205 756.437583,1.68 754.772583,1.68 C751.652583,1.68 749.282583,3.975 749.282583,7.155 C749.282583,10.305 751.427583,12.63 754.457583,12.63 C756.557583,12.63 757.862583,11.49 758.357583,10.53 L758.357583,12.48 L759.407583,12.48 L759.407583,7.44 L754.667583,7.44 Z" id="G"></path>
            <path d="M765.708648,12.63 C768.033648,12.63 769.653648,11.01 769.653648,8.715 C769.653648,6.42 768.033648,4.8 765.708648,4.8 C763.383648,4.8 761.763648,6.42 761.763648,8.715 C761.763648,11.01 763.383648,12.63 765.708648,12.63 Z M765.708648,11.625 C764.028648,11.625 762.843648,10.455 762.843648,8.7 C762.843648,6.99 763.998648,5.805 765.708648,5.805 C767.388648,5.805 768.588648,6.975 768.588648,8.715 C768.588648,10.44 767.418648,11.625 765.708648,11.625 Z" id="o"></path>
            <path d="M775.489713,12.63 C777.814713,12.63 779.434713,11.01 779.434713,8.715 C779.434713,6.42 777.814713,4.8 775.489713,4.8 C773.164713,4.8 771.544713,6.42 771.544713,8.715 C771.544713,11.01 773.164713,12.63 775.489713,12.63 Z M775.489713,11.625 C773.809713,11.625 772.624713,10.455 772.624713,8.7 C772.624713,6.99 773.779713,5.805 775.489713,5.805 C777.169713,5.805 778.369713,6.975 778.369713,8.715 C778.369713,10.44 777.199713,11.625 775.489713,11.625 Z" id="o"></path>
            <path d="M787.880778,4.95 L787.880778,6.42 C787.220778,5.34 786.260778,4.8 785.030778,4.8 C782.780778,4.8 781.325778,6.48 781.325778,8.685 C781.325778,10.905 782.840778,12.525 785.015778,12.525 C786.215778,12.525 787.235778,12.03 787.880778,10.89 L787.880778,12.27 C787.880778,13.98 786.785778,14.79 785.135778,14.79 C783.815778,14.79 782.900778,14.295 782.240778,13.695 L781.910778,14.73 C782.630778,15.315 783.635778,15.765 785.090778,15.765 C787.385778,15.765 788.930778,14.595 788.930778,12.285 L788.930778,4.95 L787.880778,4.95 Z M785.180778,11.55 C783.545778,11.55 782.390778,10.35 782.390778,8.67 C782.390778,7.05 783.485778,5.775 785.165778,5.775 C786.785778,5.775 787.955778,7.125 787.955778,8.655 C787.955778,10.29 786.845778,11.55 785.180778,11.55 Z" id="g"></path>
            <path d="M793.611843,12.63 C794.136843,12.63 794.556843,12.495 794.796843,12.36 L794.631843,11.475 C794.481843,11.535 794.181843,11.67 793.851843,11.67 C793.401843,11.67 793.116843,11.385 793.116843,10.68 L793.116843,1.2 L792.066843,1.2 L792.066843,10.83 C792.066843,12.075 792.666843,12.63 793.611843,12.63 Z" id="l"></path>
            <path d="M803.362908,8.655 C803.362908,6.405 801.922908,4.8 799.822908,4.8 C797.707908,4.8 796.117908,6.465 796.117908,8.715 C796.117908,10.875 797.602908,12.63 800.017908,12.63 C801.352908,12.63 802.477908,12.135 803.122908,11.55 L802.822908,10.62 C802.237908,11.175 801.247908,11.67 800.077908,11.67 C798.352908,11.67 797.227908,10.56 797.182908,8.79 L803.362908,8.79 L803.362908,8.655 Z M797.242908,7.965 C797.482908,6.63 798.577908,5.73 799.822908,5.73 C801.172908,5.73 802.087908,6.675 802.252908,7.965 L797.242908,7.965 Z" id="e"></path>
            <polygon id="L" points="811.450038 11.445 811.450038 1.83 810.325038 1.83 810.325038 12.48 816.205038 12.48 816.205038 11.445"></polygon>
            <polygon id="L" points="819.596103 11.445 819.596103 1.83 818.471103 1.83 818.471103 12.48 824.351103 12.48 824.351103 11.445"></polygon>
            <path d="M830.622168,12.63 C832.062168,12.63 833.262168,12.225 834.372168,11.4 L834.027168,10.35 C833.172168,11.025 832.002168,11.55 830.652168,11.55 C828.117168,11.55 826.287168,9.66 826.287168,7.125 C826.287168,4.605 828.102168,2.76 830.652168,2.76 C831.852168,2.76 832.962168,3.21 833.817168,3.93 L834.207168,2.865 C833.262168,2.13 832.032168,1.68 830.637168,1.68 C827.472168,1.68 825.132168,3.945 825.132168,7.125 C825.132168,10.32 827.457168,12.63 830.622168,12.63 Z" id="C"></path>
            <path d="M837.673233,12.645 C838.123233,12.645 838.468233,12.3 838.468233,11.865 C838.468233,11.415 838.123233,11.07 837.673233,11.07 C837.238233,11.07 836.893233,11.415 836.893233,11.865 C836.893233,12.3 837.238233,12.645 837.673233,12.645 Z" id="."></path>
        </g>
    </g>
</svg>