<?xml version="1.0" encoding="UTF-8"?>
<svg width="484px" height="88px" viewBox="0 0 484 88" version="1.1" xmlns="http://www.w3.org/2000/svg" xmlns:xlink="http://www.w3.org/1999/xlink">
    <title>DER NEUE TOYOTA AYGO</title>
    <g id="Page-1" stroke="none" stroke-width="1" fill="none" fill-rule="evenodd">
        <g id="DER-NEUE-TOYOTA-AYGO" transform="translate(0.954000, 0.840000)" fill-rule="nonzero">
            <path d="M16.907,0.53 L4.081,0.53 L4.081,38.16 L16.907,38.16 C28.514,38.16 36.093,30.528 36.093,19.08 C36.093,7.95 28.514,0.53 16.907,0.53 Z M16.324,33.337 L9.54,33.337 L9.54,5.353 L16.377,5.353 C25.069,5.353 30.475,10.653 30.475,19.133 C30.475,27.878 25.069,33.337 16.324,33.337 Z" id="D" fill="#FFFFFF"></path>
            <polygon id="E" fill="#FFFFFF" points="44.5767612 38.16 66.4657612 38.16 66.4657612 33.337 50.0357612 33.337 50.0357612 21.677 65.5647612 21.677 65.5647612 16.96 50.0357612 16.96 50.0357612 5.353 66.0947612 5.353 66.0947612 0.53 44.5767612 0.53"></polygon>
            <path d="M103.251522,38.16 L92.4925225,21.942 C97.1565225,20.14 99.8065225,16.112 99.8065225,11.395 C99.8065225,4.982 95.2485225,0.53 87.6165225,0.53 L75.7445225,0.53 L75.7445225,38.16 L81.2035225,38.16 L81.2035225,22.896 L86.7685225,22.896 L87.2455225,22.896 L96.8385225,38.16 L103.251522,38.16 Z M81.2035225,5.141 L86.9275225,5.141 C90.7965225,5.141 94.1885225,6.943 94.1885225,11.713 C94.1885225,16.483 90.6905225,18.497 86.8215225,18.497 L81.2035225,18.497 L81.2035225,5.141 Z" id="R" fill="#FFFFFF"></path>
            <polygon id="N" fill="#FFFFFF" points="149.369045 0.53 149.369045 29.786 128.646045 0.53 123.452045 0.53 123.452045 38.16 128.699045 38.16 128.699045 9.01 149.475045 38.16 154.616045 38.16 154.616045 0.53"></polygon>
            <polygon id="E" fill="#FFFFFF" points="165.113806 38.16 187.002806 38.16 187.002806 33.337 170.572806 33.337 170.572806 21.677 186.101806 21.677 186.101806 16.96 170.572806 16.96 170.572806 5.353 186.631806 5.353 186.631806 0.53 165.113806 0.53"></polygon>
            <path d="M210.856567,38.69 C220.131567,38.69 225.696567,33.019 225.696567,24.274 L225.696567,0.53 L220.290567,0.53 L220.290567,23.479 C220.290567,30.316 216.368567,33.549 210.856567,33.549 C205.344567,33.549 201.422567,30.316 201.422567,23.479 L201.422567,0.53 L196.016567,0.53 L196.016567,24.274 C196.016567,33.019 201.581567,38.69 210.856567,38.69 Z" id="U" fill="#FFFFFF"></path>
            <polygon id="E" fill="#FFFFFF" points="235.929329 38.16 257.818329 38.16 257.818329 33.337 241.388329 33.337 241.388329 21.677 256.917329 21.677 256.917329 16.96 241.388329 16.96 241.388329 5.353 257.447329 5.353 257.447329 0.53 235.929329 0.53"></polygon>
            <polygon id="T" fill="#FFFFFF" points="302.557851 0.53 276.640851 0.53 276.640851 5.353 286.975851 5.353 286.975851 38.16 292.381851 38.16 292.381851 5.353 302.557851 5.353"></polygon>
            <path d="M325.086612,38.69 C336.375612,38.69 344.749612,30.581 344.749612,19.292 C344.749612,8.003 336.375612,0 325.139612,0 C313.850612,0 305.476612,8.003 305.476612,19.345 C305.476612,30.687 313.903612,38.69 325.086612,38.69 Z M325.139612,33.549 C316.977612,33.549 311.041612,27.507 311.041612,19.345 C311.041612,11.13 316.977612,5.141 325.139612,5.141 C333.301612,5.141 339.184612,11.13 339.184612,19.345 C339.184612,27.507 333.301612,33.549 325.139612,33.549 Z" id="O" fill="#FFFFFF"></path>
            <polygon id="Y" fill="#FFFFFF" points="378.461374 0.53 373.002374 0.53 362.985374 18.179 352.915374 0.53 346.926374 0.53 360.017374 23.267 360.017374 38.16 365.370374 38.16 365.370374 23.214"></polygon>
            <path d="M400.195135,38.69 C411.484135,38.69 419.858135,30.581 419.858135,19.292 C419.858135,8.003 411.484135,0 400.248135,0 C388.959135,0 380.585135,8.003 380.585135,19.345 C380.585135,30.687 389.012135,38.69 400.195135,38.69 Z M400.248135,33.549 C392.086135,33.549 386.150135,27.507 386.150135,19.345 C386.150135,11.13 392.086135,5.141 400.248135,5.141 C408.410135,5.141 414.293135,11.13 414.293135,19.345 C414.293135,27.507 408.410135,33.549 400.248135,33.549 Z" id="O" fill="#FFFFFF"></path>
            <polygon id="T" fill="#FFFFFF" points="448.746896 0.53 422.829896 0.53 422.829896 5.353 433.164896 5.353 433.164896 38.16 438.570896 38.16 438.570896 5.353 448.746896 5.353"></polygon>
            <path d="M476.893657,38.16 L482.617657,38.16 L468.360657,0.53 L462.530657,0.53 L448.326657,38.16 L453.838657,38.16 L458.025657,26.712 L472.706657,26.712 L476.893657,38.16 Z M459.615657,22.26 L465.339657,6.572 L471.063657,22.26 L459.615657,22.26 Z" id="A" fill="#FFFFFF"></path>
            <path d="M28.567,86.16 L34.291,86.16 L20.034,48.53 L14.204,48.53 L2.84217094e-14,86.16 L5.512,86.16 L9.699,74.712 L24.38,74.712 L28.567,86.16 Z M11.289,70.26 L17.013,54.572 L22.737,70.26 L11.289,70.26 Z" id="A" fill="#FF0022"></path>
            <polygon id="Y" fill="#FF0022" points="64.3987612 48.53 58.9397612 48.53 48.9227612 66.179 38.8527612 48.53 32.8637612 48.53 45.9547612 71.267 45.9547612 86.16 51.3077612 86.16 51.3077612 71.214"></polygon>
            <path d="M85.5495225,67.504 L85.5495225,71.956 L97.3685225,71.956 C96.9975225,76.567 92.7045225,81.549 85.2845225,81.549 C77.5465225,81.549 72.1405225,75.878 72.1405225,67.398 C72.1405225,58.706 78.1295225,53.141 86.0795225,53.141 C90.9025225,53.141 94.6125225,54.837 98.1635225,57.54 L100.124522,52.505 C96.3085225,49.908 91.9625225,48 86.0265225,48 C75.0025225,48 66.5225225,55.897 66.5225225,67.398 C66.5225225,78.634 74.1545225,86.69 84.6485225,86.69 C91.3795225,86.69 95.7255225,83.245 97.6335225,80.171 L97.6335225,86.16 L102.615522,86.16 L102.615522,67.504 L85.5495225,67.504 Z" id="G" fill="#FF0022"></path>
            <path d="M129.278284,86.69 C140.567284,86.69 148.941284,78.581 148.941284,67.292 C148.941284,56.003 140.567284,48 129.331284,48 C118.042284,48 109.668284,56.003 109.668284,67.345 C109.668284,78.687 118.095284,86.69 129.278284,86.69 Z M129.331284,81.549 C121.169284,81.549 115.233284,75.507 115.233284,67.345 C115.233284,59.13 121.169284,53.141 129.331284,53.141 C137.493284,53.141 143.376284,59.13 143.376284,67.345 C143.376284,75.507 137.493284,81.549 129.331284,81.549 Z" id="O" fill="#FF0022"></path>
            <polygon id="X" fill="#FF0022" points="202.372806 48.53 196.118806 48.53 184.617806 63.052 177.674806 48.53 171.844806 48.53 180.907806 66.974 164.848806 86.16 171.261806 86.16 183.239806 71.373 190.288806 86.16 196.065806 86.16 186.949806 67.398"></polygon>
        </g>
    </g>
</svg>