<svg xmlns="http://www.w3.org/2000/svg" viewBox="0 0 1356.92 877.53"><defs><style>.cls-1{fill:#3c3a42;}</style></defs><g id="Layer_2" data-name="Layer 2"><g id="Layer_1-2" data-name="Layer 1"><path class="cls-1" d="M678.46,0C303.76,0,0,196.44,0,438.77S303.76,877.53,678.46,877.53s678.46-196.44,678.46-438.76S1053.16,0,678.46,0Zm0,689.18c-55.7,0-101.19-109.7-104.14-247.81,33.6,3,68.44,4.61,104.14,4.61s70.54-1.59,104.14-4.61C779.65,579.48,734.15,689.18,678.46,689.18ZM581.28,331.79c15.17-97.61,53-166.76,97.18-166.76s82,69.15,97.18,166.76c-31.08,2.82-63.64,4.31-97.18,4.31S612.36,334.61,581.28,331.79ZM678.46,63.53c-72.85,0-134.81,108.9-157.74,260.85-138-21.54-234.29-70.48-234.29-127.4,0-76.84,175.52-139.13,392-139.13s392,62.29,392,139.13c0,56.92-96.32,105.86-234.28,127.4C813.27,172.43,751.31,63.53,678.46,63.53ZM97.28,422.31c0-74.36,28.59-144.06,78.49-204A94.56,94.56,0,0,0,174.9,231c0,93.74,140.54,173.46,336.57,202.86q-.23,10.22-.22,20.54c0,174.62,49,322.48,116.57,372.63C330.56,809.11,97.28,634.75,97.28,422.31ZM729.1,827c67.59-50.15,116.57-198,116.57-372.63q0-10.34-.23-20.54C1041.48,404.47,1182,324.75,1182,231a94.56,94.56,0,0,0-.87-12.71c49.9,59.95,78.49,129.65,78.49,204C1259.64,634.75,1026.36,809.11,729.1,827Z"/></g></g></svg>