<?xml version="1.0" encoding="UTF-8"?>
<svg width="1357px" height="878px" viewBox="0 0 1357 878" version="1.1" xmlns="http://www.w3.org/2000/svg" xmlns:xlink="http://www.w3.org/1999/xlink">
    <title>TME Toyota Ellipse Mono WHITE_UPDATED</title>
    <g id="Page-1" stroke="none" stroke-width="1" fill="none" fill-rule="evenodd">
        <path d="M729.099,827.042 C796.693,776.89 845.673,629.027 845.673,454.414 C845.673,447.524 845.595,440.676 845.445,433.873 C1041.48,404.468 1182.02,324.746 1182.02,231.011 C1182.02,226.743 1181.72,222.506 1181.15,218.301 C1231.05,278.255 1259.64,347.946 1259.64,422.307 C1259.64,634.751 1026.36,809.105 729.099,827.042 Z M97.281,422.307 C97.281,347.946 125.87,278.255 175.771,218.301 C175.197,222.506 174.896,226.743 174.896,231.011 C174.896,324.746 315.438,404.468 511.473,433.873 C511.323,440.676 511.246,447.524 511.246,454.414 C511.246,629.027 560.225,776.89 627.819,827.042 C330.556,809.105 97.281,634.752 97.281,422.307 Z M678.459,63.533 C605.612,63.533 543.645,172.428 520.721,324.381 C382.762,302.837 286.434,253.899 286.434,196.975 C286.434,120.137 461.95,57.846 678.459,57.846 C894.968,57.846 1070.48,120.137 1070.48,196.975 C1070.48,253.899 974.156,302.837 836.197,324.381 C813.273,172.428 751.306,63.533 678.459,63.533 Z M581.28,331.794 C596.454,234.183 634.241,165.031 678.459,165.031 C722.677,165.031 760.465,234.183 775.638,331.794 C744.562,334.607 712.004,336.103 678.459,336.103 C644.915,336.103 612.356,334.607 581.28,331.794 Z M678.459,689.181 C622.763,689.181 577.268,579.475 574.32,441.368 C607.923,444.385 642.756,445.975 678.459,445.975 C714.163,445.975 748.996,444.385 782.598,441.368 C779.65,579.475 734.155,689.181 678.459,689.181 Z M678.459,0 C303.757,0 0,196.443 0,438.767 C0,681.091 303.757,877.534 678.459,877.534 C1053.16,877.534 1356.92,681.091 1356.92,438.767 C1356.92,196.443 1053.16,0 678.459,0 L678.459,0 Z" id="TME-Toyota-Ellipse-Mono-WHITE_UPDATED" fill="#ffffff"></path>
    </g>
</svg>