<svg xmlns="http://www.w3.org/2000/svg" viewBox="0 0 167.17 167.17"><defs><style>.cls-1{fill:#fff;}</style></defs><title>Ресурс 6</title><g id="Слой_2" data-name="Слой 2"><g id="Layer_1" data-name="Layer 1"><circle cx="83.59" cy="83.59" r="83.59" transform="translate(-12.31 152.71) rotate(-80.78)"/><path class="cls-1" d="M62.3,103.39l45.57-45.57V56a3.77,3.77,0,0,0-1.71-3.17h0l-.06,0-.27-.16-.16-.08a2.36,2.36,0,0,0-.28-.12l-.18-.07-.28-.07-.2-.05a2.66,2.66,0,0,0-.28,0l-.21,0h-.5l-.31,0-.2,0a2.42,2.42,0,0,0-.36.1l-.14,0c-.16.07-.33.14-.5.23l-6,3.23L83.14,63a3.49,3.49,0,0,1-.44.2,3.79,3.79,0,0,1-1.37.26H63.87a3.81,3.81,0,0,0-3.81,3.81V99.91A3.82,3.82,0,0,0,62.3,103.39Z"/><path class="cls-1" d="M89.22,101.28l-4,4h0l4,2.14,13.09,7.08.16.07c.11,0,.22.11.33.15l.12,0a3.81,3.81,0,0,0,5-3.62V84.58h0V82.63h0Z"/><path class="cls-1" d="M120.56,57.53l-.17-.14h0l-.1-.07-.23-.16-.19-.1-.22-.1-.24-.07-.2,0-.27,0h-.19a1.27,1.27,0,0,0-.28,0l-.18,0-.29.08a1,1,0,0,0-.16.06,2,2,0,0,0-.29.15l-.13.07a2.72,2.72,0,0,0-.38.31h0L60.87,113.72h0a2.46,2.46,0,0,0-.65,1.19,2.15,2.15,0,0,0-.07.56,2.41,2.41,0,0,0,.35,1.25.39.39,0,0,0,.06.11,1.47,1.47,0,0,0,.1.13,2.65,2.65,0,0,0,.21.26h0a2.41,2.41,0,0,0,.36.29l.13.07a1.51,1.51,0,0,0,.28.15.76.76,0,0,0,.16.06l.27.08.18,0,.15,0v0a2.47,2.47,0,0,0,2-.7L120.56,61a2.47,2.47,0,0,0,0-3.5Z"/></g></g></svg>