<svg xmlns="http://www.w3.org/2000/svg" viewBox="0 0 167.17 167.17"><defs><style>.cls-1{fill:#fff;}</style></defs><title>Ресурс 2</title><g id="Слой_2" data-name="Слой 2"><g id="Layer_1" data-name="Layer 1"><circle cx="83.59" cy="83.59" r="83.59" transform="translate(-34.62 83.59) rotate(-45)"/><path class="cls-1" d="M60.66,109.13a2.15,2.15,0,0,0,.15.51s0,0,0,0a5.12,5.12,0,0,0,.27.52l0,0a2.88,2.88,0,0,0,.33.43l0,0a3.13,3.13,0,0,0,.93.69h0a3.28,3.28,0,0,0,3.1-.08l44.62-25.12a3.33,3.33,0,0,0,0-5.79l-44.38-25h0l-.25-.14a3.32,3.32,0,0,0-4.95,2.89h0v50.24h0a3.68,3.68,0,0,0,.06.59Z"/></g></g></svg>