<svg xmlns="http://www.w3.org/2000/svg" viewBox="0 0 167.17 167.17"><defs><style>.cls-1{fill:#fff;}</style></defs><title>Ресурс 5</title><g id="Слой_2" data-name="Слой 2"><g id="Layer_1" data-name="Layer 1"><circle cx="83.59" cy="83.59" r="83.59" transform="translate(-34.62 83.59) rotate(-45)"/><path class="cls-1" d="M93.18,99.21a25.29,25.29,0,0,0,0-31.24,2.56,2.56,0,0,0-.43-.44h0a3.12,3.12,0,0,0-.43-.27.61.61,0,0,0-.14-.07l-.34-.13-.18,0L91.34,67h-.28l-.21,0-.25,0a1.63,1.63,0,0,0-.3.07,1.29,1.29,0,0,0-.21.07,1.81,1.81,0,0,0-.37.18l-.12.06a2.6,2.6,0,0,0-.46.36,2.72,2.72,0,0,0-.26,3.51.56.56,0,0,1,.05.08,19.87,19.87,0,0,1,0,24.54.61.61,0,0,1-.07.1c-.07.1-.13.2-.19.3l-.08.18a2.77,2.77,0,0,0-.1.26c0,.06,0,.12,0,.18l-.06.28a.86.86,0,0,0,0,.16,1.49,1.49,0,0,0,0,.21s0,.06,0,.09a2.29,2.29,0,0,0,0,.25,2,2,0,0,0,0,.24,2.58,2.58,0,0,0,.08.26,1.87,1.87,0,0,0,.07.22c0,.09.09.18.14.27l.11.18.17.21c.05.06.09.13.15.19a2.81,2.81,0,0,0,.44.35l.09,0a2.38,2.38,0,0,0,.39.2l.12,0a2,2,0,0,0,.4.1l.11,0h0A2.7,2.7,0,0,0,93.18,99.21Z"/><path class="cls-1" d="M106.25,106.52a35.51,35.51,0,0,0,0-45.87,2.6,2.6,0,0,0-.38-.36h0l0,0-.12-.08L105.4,60l-.17-.07-.33-.11-.18,0a1.86,1.86,0,0,0-.33,0h-.19a1.83,1.83,0,0,0-.33,0l-.2,0-.3.08-.21.07-.27.14-.2.11a2.65,2.65,0,0,0-.26.21l-.16.13h0a2.7,2.7,0,0,0-.15,3.65,30.11,30.11,0,0,1,.74,38c-.24.31-.49.61-.74.91a2.38,2.38,0,0,0-.3.43,2.7,2.7,0,0,0,.45,3.22h0l0,0a2.08,2.08,0,0,0,.38.3,1.19,1.19,0,0,0,.15.09,1.82,1.82,0,0,0,.31.16l.16.06a1.64,1.64,0,0,0,.38.1l.1,0,.08,0h0A2.72,2.72,0,0,0,106.25,106.52Z"/><path class="cls-1" d="M119.35,113.87a45.75,45.75,0,0,0,0-60.57A2,2,0,0,0,119,53h0l0,0-.25-.17-.2-.11-.24-.11-.25-.08-.23,0-.28,0h-.22a1.55,1.55,0,0,0-.31,0l-.2,0-.33.1-.16.05a2.58,2.58,0,0,0-.37.19l-.1.05a3.47,3.47,0,0,0-.43.35h0a2.74,2.74,0,0,0-.1,3.72c.85,1,1.65,2,2.4,3a40.37,40.37,0,0,1,3.62,6c.3.64.6,1.28.88,1.93A40.5,40.5,0,0,1,124,94.06a39.48,39.48,0,0,1-1.79,5.24c-.4,1-.85,1.89-1.32,2.81a40.21,40.21,0,0,1-3,4.86,39.23,39.23,0,0,1-2.61,3.29,2.78,2.78,0,0,0-.68,1.79,2.66,2.66,0,0,0,.78,1.93h0l0,0a2.54,2.54,0,0,0,.36.29l.16.1.28.14.2.07a1.29,1.29,0,0,0,.28.08l.21,0,.07,0h0A2.67,2.67,0,0,0,119.35,113.87Z"/><path class="cls-1" d="M34.93,100.6a3.77,3.77,0,0,0,.16.6l0,0a4.64,4.64,0,0,0,.26.55l0,0a3.91,3.91,0,0,0,.8,1h0a3.68,3.68,0,0,0,.51.37l0,0a5.6,5.6,0,0,0,.55.27h0a3.92,3.92,0,0,0,1.37.26H56.14a3.69,3.69,0,0,1,1.81.46l19.11,10.32a3.8,3.8,0,0,0,5.62-3.35V56A3.77,3.77,0,0,0,81,52.84h0l-.1-.05a1.18,1.18,0,0,0-.19-.11,1.27,1.27,0,0,0-.23-.12l-.21-.09L80,52.38a1.8,1.8,0,0,0-.22-.06l-.25-.06-.25,0-.23,0h-.5l-.33,0-.17,0a2.77,2.77,0,0,0-.41.12l-.09,0a4.52,4.52,0,0,0-.5.23L73.2,54.74,58,63a3.54,3.54,0,0,1-.53.23,3.71,3.71,0,0,1-1.28.23H38.68a3.81,3.81,0,0,0-3.81,3.81V99.91a3.49,3.49,0,0,0,.06.65Z"/></g></g></svg>