<?xml version="1.0" encoding="UTF-8"?>
<svg width="316px" height="39px" viewBox="0 0 316 39" version="1.1" xmlns="http://www.w3.org/2000/svg" xmlns:xlink="http://www.w3.org/1999/xlink">
    <title>Der moderne Crossove</title>
    <g id="Page-1" stroke="none" stroke-width="1" fill="none" fill-rule="evenodd">
        <g id="Der-moderne-Crossove" transform="translate(0.330000, 0.440000)" fill="#282830" fill-rule="nonzero">
            <path d="M3.04,0.46 L0.62,0.46 L0.62,7.56 L3.04,7.56 C5.23,7.56 6.66,6.12 6.66,3.96 C6.66,1.86 5.23,0.46 3.04,0.46 Z M2.93,6.65 L1.65,6.65 L1.65,1.37 L2.94,1.37 C4.58,1.37 5.6,2.37 5.6,3.97 C5.6,5.62 4.58,6.65 2.93,6.65 Z" id="D"></path>
            <path d="M12.5440431,5.06 C12.5440431,3.5 11.5740431,2.42 10.1540431,2.42 C8.72404312,2.42 7.64404313,3.52 7.64404313,5.05 C7.64404313,6.52 8.66404313,7.66 10.2840431,7.66 C11.1740431,7.66 11.9040431,7.36 12.3540431,6.99 L12.1040431,6.21 C11.7040431,6.55 11.0840431,6.83 10.3640431,6.83 C9.33404313,6.83 8.66404313,6.22 8.60404313,5.19 L12.5440431,5.19 L12.5440431,5.06 Z M8.64404312,4.51 C8.80404312,3.73 9.41404313,3.2 10.1540431,3.2 C10.9140431,3.2 11.4640431,3.74 11.5640431,4.51 L8.64404312,4.51 Z" id="e"></path>
            <path d="M15.9480863,2.41 C15.4180862,2.41 14.9680863,2.67 14.6780862,3.38 L14.6780862,2.52 L13.7380863,2.52 L13.7380863,7.56 L14.6780862,7.56 L14.6780862,5.01 C14.6780862,4 15.0580863,3.34 15.8680862,3.34 C16.0580863,3.34 16.2480863,3.39 16.3880863,3.45 L16.5780862,2.53 C16.4080863,2.46 16.1780862,2.41 15.9480863,2.41 Z" id="r"></path>
            <path d="M25.6461725,2.41 C24.8661725,2.41 24.2761725,2.79 23.9561725,3.5 C23.7261725,2.77 23.1861725,2.41 22.3861725,2.41 C21.6761725,2.41 21.1161725,2.75 20.8061725,3.34 L20.8061725,2.52 L19.8561725,2.52 L19.8561725,7.56 L20.8061725,7.56 L20.8061725,4.76 C20.8061725,3.87 21.3061725,3.27 22.0561725,3.27 C22.7861725,3.27 23.1361725,3.76 23.1361725,4.74 L23.1361725,7.56 L24.0861725,7.56 L24.0861725,4.71 C24.0861725,3.87 24.5961725,3.27 25.3261725,3.27 C26.0561725,3.27 26.4161725,3.76 26.4161725,4.74 L26.4161725,7.56 L27.3661725,7.56 L27.3661725,4.42 C27.3661725,3.08 26.7461725,2.41 25.6461725,2.41 Z" id="m"></path>
            <path d="M31.2402156,7.66 C32.8302156,7.66 33.9302156,6.57 33.9302156,5.04 C33.9302156,3.52 32.8302156,2.42 31.2402156,2.42 C29.6602156,2.42 28.5602156,3.52 28.5602156,5.04 C28.5602156,6.57 29.6602156,7.66 31.2402156,7.66 Z M31.2402156,6.77 C30.2402156,6.77 29.5402156,6.08 29.5402156,5.04 C29.5402156,4.01 30.2302156,3.31 31.2502156,3.31 C32.2502156,3.31 32.9502156,4.01 32.9502156,5.04 C32.9502156,6.06 32.2602156,6.77 31.2402156,6.77 Z" id="o"></path>
            <path d="M39.0442588,0.04 L39.0442588,3.42 C38.6842588,2.75 37.9942588,2.42 37.2142588,2.42 C35.8042588,2.42 34.7842588,3.51 34.7842588,5.05 C34.7842588,6.57 35.7942588,7.66 37.2142588,7.66 C37.9842588,7.66 38.6442588,7.36 39.0442588,6.64 L39.0442588,7.57 L39.9942588,7.57 L39.9942588,0.04 L39.0442588,0.04 Z M37.3842588,6.78 C36.4142588,6.78 35.7642588,6.08 35.7642588,5.05 C35.7642588,4 36.4342588,3.3 37.3942588,3.3 C38.3642588,3.3 39.0942588,4.04 39.0942588,5.04 C39.0942588,6.03 38.3642588,6.78 37.3842588,6.78 Z" id="d"></path>
            <path d="M46.1183019,5.06 C46.1183019,3.5 45.1483019,2.42 43.7283019,2.42 C42.2983019,2.42 41.2183019,3.52 41.2183019,5.05 C41.2183019,6.52 42.2383019,7.66 43.8583019,7.66 C44.7483019,7.66 45.4783019,7.36 45.9283019,6.99 L45.6783019,6.21 C45.2783019,6.55 44.6583019,6.83 43.9383019,6.83 C42.9083019,6.83 42.2383019,6.22 42.1783019,5.19 L46.1183019,5.19 L46.1183019,5.06 Z M42.2183019,4.51 C42.3783019,3.73 42.9883019,3.2 43.7283019,3.2 C44.4883019,3.2 45.0383019,3.74 45.1383019,4.51 L42.2183019,4.51 Z" id="e"></path>
            <path d="M49.522345,2.41 C48.992345,2.41 48.542345,2.67 48.252345,3.38 L48.252345,2.52 L47.312345,2.52 L47.312345,7.56 L48.252345,7.56 L48.252345,5.01 C48.252345,4 48.632345,3.34 49.442345,3.34 C49.632345,3.34 49.822345,3.39 49.962345,3.45 L50.152345,2.53 C49.982345,2.46 49.752345,2.41 49.522345,2.41 Z" id="r"></path>
            <path d="M53.7763881,2.42 C52.9663881,2.42 52.3163881,2.78 51.9763881,3.4 L51.9763881,2.52 L51.0263881,2.52 L51.0263881,7.56 L51.9763881,7.56 L51.9763881,4.78 C51.9763881,3.88 52.5663881,3.28 53.4363881,3.28 C54.2263881,3.28 54.6263881,3.77 54.6263881,4.75 L54.6263881,7.56 L55.5763881,7.56 L55.5763881,4.43 C55.5763881,3.1 54.9263881,2.42 53.7763881,2.42 Z" id="n"></path>
            <path d="M61.6804313,5.06 C61.6804313,3.5 60.7104313,2.42 59.2904313,2.42 C57.8604313,2.42 56.7804313,3.52 56.7804313,5.05 C56.7804313,6.52 57.8004313,7.66 59.4204313,7.66 C60.3104313,7.66 61.0404313,7.36 61.4904313,6.99 L61.2404313,6.21 C60.8404313,6.55 60.2204313,6.83 59.5004313,6.83 C58.4704313,6.83 57.8004313,6.22 57.7404313,5.19 L61.6804313,5.19 L61.6804313,5.06 Z M57.7804313,4.51 C57.9404313,3.73 58.5504313,3.2 59.2904313,3.2 C60.0504313,3.2 60.6004313,3.74 60.7004313,4.51 L57.7804313,4.51 Z" id="e"></path>
            <path d="M68.6785175,7.66 C69.6685175,7.66 70.4685175,7.39 71.1785175,6.87 L70.8785175,5.95 C70.3385175,6.35 69.5885175,6.69 68.7385175,6.69 C67.1585175,6.69 66.0685175,5.54 66.0685175,3.99 C66.0685175,2.45 67.1585175,1.33 68.7385175,1.33 C69.4885175,1.33 70.1785175,1.61 70.7285175,2.04 L71.0685175,1.1 C70.4485175,0.66 69.6485175,0.36 68.7085175,0.36 C66.5785175,0.36 65.0085175,1.85 65.0085175,4 C65.0085175,6.14 66.5385175,7.66 68.6785175,7.66 Z" id="C"></path>
            <path d="M74.4325606,2.41 C73.9025606,2.41 73.4525606,2.67 73.1625606,3.38 L73.1625606,2.52 L72.2225606,2.52 L72.2225606,7.56 L73.1625606,7.56 L73.1625606,5.01 C73.1625606,4 73.5425606,3.34 74.3525606,3.34 C74.5425606,3.34 74.7325606,3.39 74.8725606,3.45 L75.0625606,2.53 C74.8925606,2.46 74.6625606,2.41 74.4325606,2.41 Z" id="r"></path>
            <path d="M78.0666037,7.66 C79.6566038,7.66 80.7566037,6.57 80.7566037,5.04 C80.7566037,3.52 79.6566038,2.42 78.0666037,2.42 C76.4866038,2.42 75.3866038,3.52 75.3866038,5.04 C75.3866038,6.57 76.4866038,7.66 78.0666037,7.66 Z M78.0666037,6.77 C77.0666037,6.77 76.3666038,6.08 76.3666038,5.04 C76.3666038,4.01 77.0566038,3.31 78.0766038,3.31 C79.0766038,3.31 79.7766038,4.01 79.7766038,5.04 C79.7766038,6.06 79.0866038,6.77 78.0666037,6.77 Z" id="o"></path>
            <path d="M83.5106469,7.66 C84.7406469,7.66 85.4506469,7.02 85.4506469,6.08 C85.4506469,5.17 84.7706469,4.83 83.8406469,4.58 C83.2506469,4.42 82.7806469,4.27 82.7806469,3.81 C82.7806469,3.4 83.1506469,3.17 83.6806469,3.17 C84.2306469,3.17 84.7506469,3.39 85.0906469,3.62 L85.2806469,2.84 C84.9006469,2.61 84.3306469,2.42 83.7006469,2.42 C82.5906469,2.42 81.8406469,2.98 81.8406469,3.93 C81.8406469,4.86 82.5706469,5.15 83.3506469,5.39 C84.1006469,5.62 84.5206469,5.76 84.5206469,6.22 C84.5206469,6.66 84.1506469,6.91 83.5606469,6.91 C82.9406469,6.91 82.3206469,6.66 81.9306469,6.34 L81.7006469,7.13 C82.0906469,7.45 82.8206469,7.66 83.5106469,7.66 Z" id="s"></path>
            <path d="M88.30469,7.66 C89.53469,7.66 90.24469,7.02 90.24469,6.08 C90.24469,5.17 89.56469,4.83 88.63469,4.58 C88.04469,4.42 87.57469,4.27 87.57469,3.81 C87.57469,3.4 87.94469,3.17 88.47469,3.17 C89.02469,3.17 89.54469,3.39 89.88469,3.62 L90.07469,2.84 C89.69469,2.61 89.12469,2.42 88.49469,2.42 C87.38469,2.42 86.63469,2.98 86.63469,3.93 C86.63469,4.86 87.36469,5.15 88.14469,5.39 C88.89469,5.62 89.31469,5.76 89.31469,6.22 C89.31469,6.66 88.94469,6.91 88.35469,6.91 C87.73469,6.91 87.11469,6.66 86.72469,6.34 L86.49469,7.13 C86.88469,7.45 87.61469,7.66 88.30469,7.66 Z" id="s"></path>
            <path d="M93.8787331,7.66 C95.4687331,7.66 96.5687331,6.57 96.5687331,5.04 C96.5687331,3.52 95.4687331,2.42 93.8787331,2.42 C92.2987331,2.42 91.1987331,3.52 91.1987331,5.04 C91.1987331,6.57 92.2987331,7.66 93.8787331,7.66 Z M93.8787331,6.77 C92.8787331,6.77 92.1787331,6.08 92.1787331,5.04 C92.1787331,4.01 92.8687331,3.31 93.8887331,3.31 C94.8887331,3.31 95.5887331,4.01 95.5887331,5.04 C95.5887331,6.06 94.8987331,6.77 93.8787331,6.77 Z" id="o"></path>
            <polygon id="v" points="100.912776 2.52 99.4427763 6.46 97.9827763 2.52 96.9327763 2.52 98.9427763 7.56 99.9127763 7.56 101.912776 2.52"></polygon>
            <path d="M107.186819,5.06 C107.186819,3.5 106.216819,2.42 104.796819,2.42 C103.366819,2.42 102.286819,3.52 102.286819,5.05 C102.286819,6.52 103.306819,7.66 104.926819,7.66 C105.816819,7.66 106.546819,7.36 106.996819,6.99 L106.746819,6.21 C106.346819,6.55 105.726819,6.83 105.006819,6.83 C103.976819,6.83 103.306819,6.22 103.246819,5.19 L107.186819,5.19 L107.186819,5.06 Z M103.286819,4.51 C103.446819,3.73 104.056819,3.2 104.796819,3.2 C105.556819,3.2 106.106819,3.74 106.206819,4.51 L103.286819,4.51 Z" id="e"></path>
            <path d="M110.590863,2.41 C110.060862,2.41 109.610862,2.67 109.320863,3.38 L109.320863,2.52 L108.380863,2.52 L108.380863,7.56 L109.320863,7.56 L109.320863,5.01 C109.320863,4 109.700862,3.34 110.510863,3.34 C110.700862,3.34 110.890862,3.39 111.030862,3.45 L111.220863,2.53 C111.050863,2.46 110.820863,2.41 110.590863,2.41 Z" id="r"></path>
            <polygon id="-" points="111.604906 5.24 115.064906 5.24 115.064906 4.43 111.604906 4.43"></polygon>
            <path d="M118.358949,7.66 C119.788949,7.66 120.758949,6.9 120.758949,5.56 C120.758949,4.27 119.858949,3.95 118.758949,3.54 C117.868949,3.21 117.268949,2.95 117.268949,2.26 C117.268949,1.65 117.778949,1.27 118.568949,1.27 C119.148949,1.27 119.798949,1.47 120.268949,1.74 L120.538949,0.83 C120.058949,0.56 119.318949,0.35 118.588949,0.35 C117.198949,0.35 116.248949,1.11 116.248949,2.35 C116.248949,3.54 117.128949,4 118.218949,4.4 C119.188949,4.76 119.738949,4.97 119.738949,5.66 C119.738949,6.36 119.248949,6.74 118.428949,6.74 C117.658949,6.74 116.888949,6.42 116.358949,5.99 L116.078949,6.95 C116.688949,7.4 117.518949,7.66 118.358949,7.66 Z" id="S"></path>
            <path d="M123.792992,7.66 C124.322992,7.66 124.782992,7.49 125.052992,7.29 L124.892992,6.5 C124.682992,6.63 124.362992,6.79 124.002992,6.79 C123.582992,6.79 123.342992,6.54 123.342992,6.04 L123.342992,3.33 L124.762992,3.33 L124.762992,2.52 L123.342992,2.52 L123.342992,0.94 L122.392992,1.07 L122.392992,2.52 L121.662992,2.52 L121.662992,3.33 L122.392992,3.33 L122.392992,6.16 C122.392992,7.17 122.942992,7.66 123.792992,7.66 Z" id="t"></path>
            <path d="M129.087035,2.52 L127.697035,6.23 L126.137035,2.52 L125.097035,2.52 L127.207035,7.33 L126.937035,7.95 C126.647035,8.63 126.297035,8.82 125.787035,8.82 C125.627035,8.82 125.487035,8.79 125.377035,8.75 L125.247035,9.59 C125.477035,9.67 125.727035,9.7 125.947035,9.7 C126.847035,9.7 127.407035,9.22 127.797035,8.24 L130.087035,2.52 L129.087035,2.52 Z" id="y"></path>
            <path d="M132.081078,7.66 C132.471078,7.66 132.771078,7.56 132.951078,7.47 L132.821078,6.69 C132.721078,6.74 132.531078,6.81 132.331078,6.81 C132.031078,6.81 131.851078,6.63 131.851078,6.18 L131.851078,0.04 L130.901078,0.04 L130.901078,6.33 C130.901078,7.25 131.351078,7.66 132.081078,7.66 Z" id="l"></path>
            <path d="M138.325121,5.06 C138.325121,3.5 137.355121,2.42 135.935121,2.42 C134.505121,2.42 133.425121,3.52 133.425121,5.05 C133.425121,6.52 134.445121,7.66 136.065121,7.66 C136.955121,7.66 137.685121,7.36 138.135121,6.99 L137.885121,6.21 C137.485121,6.55 136.865121,6.83 136.145121,6.83 C135.115121,6.83 134.445121,6.22 134.385121,5.19 L138.325121,5.19 L138.325121,5.06 Z M134.425121,4.51 C134.585121,3.73 135.195121,3.2 135.935121,3.2 C136.695121,3.2 137.245121,3.74 137.345121,4.51 L134.425121,4.51 Z" id="e"></path>
            <path d="M143.433207,7.66 C144.663207,7.66 145.373207,7.02 145.373207,6.08 C145.373207,5.17 144.693207,4.83 143.763207,4.58 C143.173207,4.42 142.703207,4.27 142.703207,3.81 C142.703207,3.4 143.073207,3.17 143.603207,3.17 C144.153207,3.17 144.673207,3.39 145.013207,3.62 L145.203207,2.84 C144.823207,2.61 144.253207,2.42 143.623207,2.42 C142.513207,2.42 141.763207,2.98 141.763207,3.93 C141.763207,4.86 142.493207,5.15 143.273207,5.39 C144.023207,5.62 144.443207,5.76 144.443207,6.22 C144.443207,6.66 144.073207,6.91 143.483207,6.91 C142.863207,6.91 142.243207,6.66 141.853207,6.34 L141.623207,7.13 C142.013207,7.45 142.743207,7.66 143.433207,7.66 Z" id="s"></path>
            <path d="M149.007251,7.66 C150.597251,7.66 151.697251,6.57 151.697251,5.04 C151.697251,3.52 150.597251,2.42 149.007251,2.42 C147.427251,2.42 146.327251,3.52 146.327251,5.04 C146.327251,6.57 147.427251,7.66 149.007251,7.66 Z M149.007251,6.77 C148.007251,6.77 147.307251,6.08 147.307251,5.04 C147.307251,4.01 147.997251,3.31 149.017251,3.31 C150.017251,3.31 150.717251,4.01 150.717251,5.04 C150.717251,6.06 150.027251,6.77 149.007251,6.77 Z" id="o"></path>
            <path d="M155.151294,2.41 C154.621294,2.41 154.171294,2.67 153.881294,3.38 L153.881294,2.52 L152.941294,2.52 L152.941294,7.56 L153.881294,7.56 L153.881294,5.01 C153.881294,4 154.261294,3.34 155.071294,3.34 C155.261294,3.34 155.451294,3.39 155.591294,3.45 L155.781294,2.53 C155.611294,2.46 155.381294,2.41 155.151294,2.41 Z" id="r"></path>
            <path d="M160.365337,2.52 L160.365337,3.41 C159.955337,2.77 159.355337,2.42 158.545337,2.42 C157.095337,2.42 156.105337,3.53 156.105337,5.01 C156.105337,6.5 157.125337,7.56 158.545337,7.56 C159.335337,7.56 159.975337,7.24 160.365337,6.57 L160.365337,7.38 C160.365337,8.39 159.695337,8.89 158.655337,8.89 C157.805337,8.89 157.195337,8.59 156.755337,8.2 L156.485337,9.1 C156.995337,9.48 157.655337,9.76 158.655337,9.76 C160.215337,9.76 161.315337,8.97 161.315337,7.39 L161.315337,2.52 L160.365337,2.52 Z M158.745337,6.71 C157.765337,6.71 157.075337,6 157.075337,5 C157.075337,4.02 157.735337,3.26 158.735337,3.26 C159.705337,3.26 160.395337,4.07 160.395337,4.98 C160.395337,5.96 159.735337,6.71 158.745337,6.71 Z" id="g"></path>
            <path d="M164.54938,7.66 C165.07938,7.66 165.53938,7.49 165.80938,7.29 L165.64938,6.5 C165.43938,6.63 165.11938,6.79 164.75938,6.79 C164.33938,6.79 164.09938,6.54 164.09938,6.04 L164.09938,3.33 L165.51938,3.33 L165.51938,2.52 L164.09938,2.52 L164.09938,0.94 L163.14938,1.07 L163.14938,2.52 L162.41938,2.52 L162.41938,3.33 L163.14938,3.33 L163.14938,6.16 C163.14938,7.17 163.69938,7.66 164.54938,7.66 Z" id="t"></path>
            <path d="M169.347466,7.56 L170.297466,7.56 L170.297466,3.33 L171.497466,3.33 L171.497466,2.52 L170.297466,2.52 L170.297466,1.78 C170.297466,1.1 170.557466,0.86 170.977466,0.86 C171.227466,0.86 171.477466,0.95 171.647466,1.05 L171.837466,0.23 C171.567466,0.1 171.227466,0 170.827466,0 C169.947466,0 169.347466,0.52 169.347466,1.73 L169.347466,2.52 L168.477466,2.52 L168.477466,3.33 L169.347466,3.33 L169.347466,7.56 Z" id="f"></path>
            <path d="M176.031509,2.52 L176.031509,5.31 C176.031509,6.2 175.431509,6.81 174.561509,6.81 C173.771509,6.81 173.371509,6.32 173.371509,5.34 L173.371509,2.52 L172.421509,2.52 L172.421509,5.66 C172.421509,6.99 173.091509,7.66 174.211509,7.66 C175.041509,7.66 175.691509,7.3 176.031509,6.68 L176.031509,7.56 L176.981509,7.56 L176.981509,2.52 L176.031509,2.52 Z M173.661509,1.46 C173.991509,1.46 174.241509,1.2 174.241509,0.88 C174.241509,0.56 173.991509,0.31 173.661509,0.31 C173.341509,0.31 173.091509,0.56 173.091509,0.88 C173.091509,1.2 173.341509,1.46 173.661509,1.46 Z M175.821509,1.46 C176.141509,1.46 176.391509,1.2 176.391509,0.88 C176.391509,0.56 176.141509,0.31 175.821509,0.31 C175.501509,0.31 175.241509,0.56 175.241509,0.88 C175.241509,1.2 175.501509,1.46 175.821509,1.46 Z" id="ü"></path>
            <path d="M180.825552,2.41 C180.295552,2.41 179.845552,2.67 179.555552,3.38 L179.555552,2.52 L178.615552,2.52 L178.615552,7.56 L179.555552,7.56 L179.555552,5.01 C179.555552,4 179.935552,3.34 180.745552,3.34 C180.935552,3.34 181.125552,3.39 181.265552,3.45 L181.455552,2.53 C181.285552,2.46 181.055552,2.41 180.825552,2.41 Z" id="r"></path>
            <path d="M189.243639,5.06 C189.243639,3.5 188.273639,2.42 186.853639,2.42 C185.423639,2.42 184.343639,3.52 184.343639,5.05 C184.343639,6.52 185.363639,7.66 186.983639,7.66 C187.873639,7.66 188.603639,7.36 189.053639,6.99 L188.803639,6.21 C188.403639,6.55 187.783639,6.83 187.063639,6.83 C186.033639,6.83 185.363639,6.22 185.303639,5.19 L189.243639,5.19 L189.243639,5.06 Z M185.343639,4.51 C185.503639,3.73 186.113639,3.2 186.853639,3.2 C187.613639,3.2 188.163639,3.74 188.263639,4.51 L185.343639,4.51 Z" id="e"></path>
            <path d="M190.927682,1.54 C191.287682,1.54 191.557682,1.26 191.557682,0.9 C191.557682,0.54 191.287682,0.26 190.927682,0.26 C190.567682,0.26 190.287682,0.54 190.287682,0.9 C190.287682,1.26 190.567682,1.54 190.927682,1.54 Z M190.437682,7.56 L191.387682,7.56 L191.387682,2.52 L190.437682,2.52 L190.437682,7.56 Z" id="i"></path>
            <path d="M195.771725,2.42 C194.961725,2.42 194.311725,2.78 193.971725,3.4 L193.971725,2.52 L193.021725,2.52 L193.021725,7.56 L193.971725,7.56 L193.971725,4.78 C193.971725,3.88 194.561725,3.28 195.431725,3.28 C196.221725,3.28 196.621725,3.77 196.621725,4.75 L196.621725,7.56 L197.571725,7.56 L197.571725,4.43 C197.571725,3.1 196.921725,2.42 195.771725,2.42 Z" id="n"></path>
            <path d="M203.675768,5.06 C203.675768,3.5 202.705768,2.42 201.285768,2.42 C199.855768,2.42 198.775768,3.52 198.775768,5.05 C198.775768,6.52 199.795768,7.66 201.415768,7.66 C202.305768,7.66 203.035768,7.36 203.485768,6.99 L203.235768,6.21 C202.835768,6.55 202.215768,6.83 201.495768,6.83 C200.465768,6.83 199.795768,6.22 199.735768,5.19 L203.675768,5.19 L203.675768,5.06 Z M199.775768,4.51 C199.935768,3.73 200.545768,3.2 201.285768,3.2 C202.045768,3.2 202.595768,3.74 202.695768,4.51 L199.775768,4.51 Z" id="e"></path>
            <path d="M207.619811,2.42 C206.809811,2.42 206.159811,2.78 205.819811,3.4 L205.819811,2.52 L204.869811,2.52 L204.869811,7.56 L205.819811,7.56 L205.819811,4.78 C205.819811,3.88 206.409811,3.28 207.279811,3.28 C208.069811,3.28 208.469811,3.77 208.469811,4.75 L208.469811,7.56 L209.419811,7.56 L209.419811,4.43 C209.419811,3.1 208.769811,2.42 207.619811,2.42 Z" id="n"></path>
            <path d="M214.927897,7.66 C216.157897,7.66 216.867897,7.02 216.867897,6.08 C216.867897,5.17 216.187897,4.83 215.257897,4.58 C214.667897,4.42 214.197897,4.27 214.197897,3.81 C214.197897,3.4 214.567897,3.17 215.097897,3.17 C215.647897,3.17 216.167897,3.39 216.507897,3.62 L216.697897,2.84 C216.317897,2.61 215.747897,2.42 215.117897,2.42 C214.007897,2.42 213.257897,2.98 213.257897,3.93 C213.257897,4.86 213.987897,5.15 214.767897,5.39 C215.517897,5.62 215.937897,5.76 215.937897,6.22 C215.937897,6.66 215.567897,6.91 214.977897,6.91 C214.357897,6.91 213.737897,6.66 213.347897,6.34 L213.117897,7.13 C213.507897,7.45 214.237897,7.66 214.927897,7.66 Z" id="s"></path>
            <path d="M222.721941,5.06 C222.721941,3.5 221.751941,2.42 220.331941,2.42 C218.901941,2.42 217.821941,3.52 217.821941,5.05 C217.821941,6.52 218.841941,7.66 220.461941,7.66 C221.351941,7.66 222.081941,7.36 222.531941,6.99 L222.281941,6.21 C221.881941,6.55 221.261941,6.83 220.541941,6.83 C219.511941,6.83 218.841941,6.22 218.781941,5.19 L222.721941,5.19 L222.721941,5.06 Z M218.821941,4.51 C218.981941,3.73 219.591941,3.2 220.331941,3.2 C221.091941,3.2 221.641941,3.74 221.741941,4.51 L218.821941,4.51 Z" id="e"></path>
            <path d="M225.075984,7.66 C225.465984,7.66 225.765984,7.56 225.945984,7.47 L225.815984,6.69 C225.715984,6.74 225.525984,6.81 225.325984,6.81 C225.025984,6.81 224.845984,6.63 224.845984,6.18 L224.845984,0.04 L223.895984,0.04 L223.895984,6.33 C223.895984,7.25 224.345984,7.66 225.075984,7.66 Z" id="l"></path>
            <path d="M229.670027,2.42 C228.940027,2.42 228.230027,2.76 227.830027,3.41 L227.830027,0.04 L226.880027,0.04 L226.880027,7.56 L227.830027,7.56 L227.830027,6.66 C228.210027,7.33 228.930027,7.66 229.620027,7.66 C231.080027,7.66 232.080027,6.55 232.080027,5.04 C232.080027,3.52 231.080027,2.42 229.670027,2.42 Z M229.480027,6.78 C228.520027,6.78 227.780027,6.04 227.780027,5.04 C227.780027,4.01 228.540027,3.3 229.490027,3.3 C230.480027,3.3 231.110027,4.04 231.110027,5.04 C231.110027,6.07 230.440027,6.78 229.480027,6.78 Z" id="b"></path>
            <path d="M234.84407,7.66 C236.07407,7.66 236.78407,7.02 236.78407,6.08 C236.78407,5.17 236.10407,4.83 235.17407,4.58 C234.58407,4.42 234.11407,4.27 234.11407,3.81 C234.11407,3.4 234.48407,3.17 235.01407,3.17 C235.56407,3.17 236.08407,3.39 236.42407,3.62 L236.61407,2.84 C236.23407,2.61 235.66407,2.42 235.03407,2.42 C233.92407,2.42 233.17407,2.98 233.17407,3.93 C233.17407,4.86 233.90407,5.15 234.68407,5.39 C235.43407,5.62 235.85407,5.76 235.85407,6.22 C235.85407,6.66 235.48407,6.91 234.89407,6.91 C234.27407,6.91 233.65407,6.66 233.26407,6.34 L233.03407,7.13 C233.42407,7.45 234.15407,7.66 234.84407,7.66 Z" id="s"></path>
            <path d="M239.708113,7.66 C240.238113,7.66 240.698113,7.49 240.968113,7.29 L240.808113,6.5 C240.598113,6.63 240.278113,6.79 239.918113,6.79 C239.498113,6.79 239.258113,6.54 239.258113,6.04 L239.258113,3.33 L240.678113,3.33 L240.678113,2.52 L239.258113,2.52 L239.258113,0.94 L238.308113,1.07 L238.308113,2.52 L237.578113,2.52 L237.578113,3.33 L238.308113,3.33 L238.308113,6.16 C238.308113,7.17 238.858113,7.66 239.708113,7.66 Z" id="t"></path>
            <path d="M244.612156,2.42 C243.882156,2.42 243.172156,2.76 242.772156,3.41 L242.772156,0.04 L241.822156,0.04 L241.822156,7.56 L242.772156,7.56 L242.772156,6.66 C243.152156,7.33 243.872156,7.66 244.562156,7.66 C246.022156,7.66 247.022156,6.55 247.022156,5.04 C247.022156,3.52 246.022156,2.42 244.612156,2.42 Z M244.422156,6.78 C243.462156,6.78 242.722156,6.04 242.722156,5.04 C242.722156,4.01 243.482156,3.3 244.432156,3.3 C245.422156,3.3 246.052156,4.04 246.052156,5.04 C246.052156,6.07 245.382156,6.78 244.422156,6.78 Z" id="b"></path>
            <path d="M252.786199,5.06 C252.786199,3.5 251.816199,2.42 250.396199,2.42 C248.966199,2.42 247.886199,3.52 247.886199,5.05 C247.886199,6.52 248.906199,7.66 250.526199,7.66 C251.416199,7.66 252.146199,7.36 252.596199,6.99 L252.346199,6.21 C251.946199,6.55 251.326199,6.83 250.606199,6.83 C249.576199,6.83 248.906199,6.22 248.846199,5.19 L252.786199,5.19 L252.786199,5.06 Z M248.886199,4.51 C249.046199,3.73 249.656199,3.2 250.396199,3.2 C251.156199,3.2 251.706199,3.74 251.806199,4.51 L248.886199,4.51 Z" id="e"></path>
            <polygon id="w" points="259.920242 2.52 258.740242 6.38 257.500242 2.52 256.680242 2.52 255.450242 6.42 254.250242 2.52 253.200242 2.52 254.890242 7.56 255.870242 7.56 257.080242 3.8 258.300242 7.56 259.280242 7.56 260.920242 2.52"></polygon>
            <path d="M265.404286,2.52 L265.404286,5.31 C265.404286,6.2 264.804286,6.81 263.934286,6.81 C263.144286,6.81 262.744286,6.32 262.744286,5.34 L262.744286,2.52 L261.794286,2.52 L261.794286,5.66 C261.794286,6.99 262.464286,7.66 263.584286,7.66 C264.414286,7.66 265.064286,7.3 265.404286,6.68 L265.404286,7.56 L266.354286,7.56 L266.354286,2.52 L265.404286,2.52 Z" id="u"></path>
            <path d="M269.498329,7.66 C270.728329,7.66 271.438329,7.02 271.438329,6.08 C271.438329,5.17 270.758329,4.83 269.828329,4.58 C269.238329,4.42 268.768329,4.27 268.768329,3.81 C268.768329,3.4 269.138329,3.17 269.668329,3.17 C270.218329,3.17 270.738329,3.39 271.078329,3.62 L271.268329,2.84 C270.888329,2.61 270.318329,2.42 269.688329,2.42 C268.578329,2.42 267.828329,2.98 267.828329,3.93 C267.828329,4.86 268.558329,5.15 269.338329,5.39 C270.088329,5.62 270.508329,5.76 270.508329,6.22 C270.508329,6.66 270.138329,6.91 269.548329,6.91 C268.928329,6.91 268.308329,6.66 267.918329,6.34 L267.688329,7.13 C268.078329,7.45 268.808329,7.66 269.498329,7.66 Z" id="s"></path>
            <path d="M274.292372,7.66 C275.522372,7.66 276.232372,7.02 276.232372,6.08 C276.232372,5.17 275.552372,4.83 274.622372,4.58 C274.032372,4.42 273.562372,4.27 273.562372,3.81 C273.562372,3.4 273.932372,3.17 274.462372,3.17 C275.012372,3.17 275.532372,3.39 275.872372,3.62 L276.062372,2.84 C275.682372,2.61 275.112372,2.42 274.482372,2.42 C273.372372,2.42 272.622372,2.98 272.622372,3.93 C272.622372,4.86 273.352372,5.15 274.132372,5.39 C274.882372,5.62 275.302372,5.76 275.302372,6.22 C275.302372,6.66 274.932372,6.91 274.342372,6.91 C273.722372,6.91 273.102372,6.66 272.712372,6.34 L272.482372,7.13 C272.872372,7.45 273.602372,7.66 274.292372,7.66 Z" id="s"></path>
            <path d="M279.156415,7.66 C279.686415,7.66 280.146415,7.49 280.416415,7.29 L280.256415,6.5 C280.046415,6.63 279.726415,6.79 279.366415,6.79 C278.946415,6.79 278.706415,6.54 278.706415,6.04 L278.706415,3.33 L280.126415,3.33 L280.126415,2.52 L278.706415,2.52 L278.706415,0.94 L277.756415,1.07 L277.756415,2.52 L277.026415,2.52 L277.026415,3.33 L277.756415,3.33 L277.756415,6.16 C277.756415,7.17 278.306415,7.66 279.156415,7.66 Z" id="t"></path>
            <path d="M285.740458,5.06 C285.740458,3.5 284.770458,2.42 283.350458,2.42 C281.920458,2.42 280.840458,3.52 280.840458,5.05 C280.840458,6.52 281.860458,7.66 283.480458,7.66 C284.370458,7.66 285.100458,7.36 285.550458,6.99 L285.300458,6.21 C284.900458,6.55 284.280458,6.83 283.560458,6.83 C282.530458,6.83 281.860458,6.22 281.800458,5.19 L285.740458,5.19 L285.740458,5.06 Z M281.840458,4.51 C282.000458,3.73 282.610458,3.2 283.350458,3.2 C284.110458,3.2 284.660458,3.74 284.760458,4.51 L281.840458,4.51 Z" id="e"></path>
            <path d="M289.684501,2.42 C288.874501,2.42 288.224501,2.78 287.884501,3.4 L287.884501,2.52 L286.934501,2.52 L286.934501,7.56 L287.884501,7.56 L287.884501,4.78 C287.884501,3.88 288.474501,3.28 289.344501,3.28 C290.134501,3.28 290.534501,3.77 290.534501,4.75 L290.534501,7.56 L291.484501,7.56 L291.484501,4.43 C291.484501,3.1 290.834501,2.42 289.684501,2.42 Z" id="n"></path>
            <path d="M300.212587,7.56 L301.292587,7.56 L298.602587,0.46 L297.502587,0.46 L294.822587,7.56 L295.862587,7.56 L296.652587,5.4 L299.422587,5.4 L300.212587,7.56 Z M296.952587,4.56 L298.032587,1.6 L299.112587,4.56 L296.952587,4.56 Z" id="A"></path>
            <path d="M305.686631,2.52 L305.686631,5.31 C305.686631,6.2 305.086631,6.81 304.216631,6.81 C303.426631,6.81 303.026631,6.32 303.026631,5.34 L303.026631,2.52 L302.076631,2.52 L302.076631,5.66 C302.076631,6.99 302.746631,7.66 303.866631,7.66 C304.696631,7.66 305.346631,7.3 305.686631,6.68 L305.686631,7.56 L306.636631,7.56 L306.636631,2.52 L305.686631,2.52 Z" id="u"></path>
            <path d="M308.550674,7.56 L309.500674,7.56 L309.500674,3.33 L310.700674,3.33 L310.700674,2.52 L309.500674,2.52 L309.500674,1.78 C309.500674,1.1 309.760674,0.86 310.180674,0.86 C310.430674,0.86 310.680674,0.95 310.850674,1.05 L311.040674,0.23 C310.770674,0.1 310.430674,0 310.030674,0 C309.150674,0 308.550674,0.52 308.550674,1.73 L308.550674,2.52 L307.680674,2.52 L307.680674,3.33 L308.550674,3.33 L308.550674,7.56 Z" id="f"></path>
            <polygon id="-" points="311.324717 5.24 314.784717 5.24 314.784717 4.43 311.324717 4.43"></polygon>
            <path d="M2.13,21.66 C2.66,21.66 3.12,21.49 3.39,21.29 L3.23,20.5 C3.02,20.63 2.7,20.79 2.34,20.79 C1.92,20.79 1.68,20.54 1.68,20.04 L1.68,17.33 L3.1,17.33 L3.1,16.52 L1.68,16.52 L1.68,14.94 L0.73,15.07 L0.73,16.52 L0,16.52 L0,17.33 L0.73,17.33 L0.73,20.16 C0.73,21.17 1.28,21.66 2.13,21.66 Z" id="t"></path>
            <path d="M6.45404313,16.41 C5.92404312,16.41 5.47404312,16.67 5.18404312,17.38 L5.18404312,16.52 L4.24404313,16.52 L4.24404313,21.56 L5.18404312,21.56 L5.18404312,19.01 C5.18404312,18 5.56404312,17.34 6.37404313,17.34 C6.56404312,17.34 6.75404312,17.39 6.89404312,17.45 L7.08404312,16.53 C6.91404313,16.46 6.68404313,16.41 6.45404313,16.41 Z" id="r"></path>
            <path d="M8.44808625,15.54 C8.80808625,15.54 9.07808625,15.26 9.07808625,14.9 C9.07808625,14.54 8.80808625,14.26 8.44808625,14.26 C8.08808625,14.26 7.80808625,14.54 7.80808625,14.9 C7.80808625,15.26 8.08808625,15.54 8.44808625,15.54 Z M7.95808625,21.56 L8.90808625,21.56 L8.90808625,16.52 L7.95808625,16.52 L7.95808625,21.56 Z" id="i"></path>
            <path d="M12.1621294,21.66 C12.6921294,21.66 13.1521294,21.49 13.4221294,21.29 L13.2621294,20.5 C13.0521294,20.63 12.7321294,20.79 12.3721294,20.79 C11.9521294,20.79 11.7121294,20.54 11.7121294,20.04 L11.7121294,17.33 L13.1321294,17.33 L13.1321294,16.52 L11.7121294,16.52 L11.7121294,14.94 L10.7621294,15.07 L10.7621294,16.52 L10.0321294,16.52 L10.0321294,17.33 L10.7621294,17.33 L10.7621294,20.16 C10.7621294,21.17 11.3121294,21.66 12.1621294,21.66 Z" id="t"></path>
            <path d="M15.8561725,21.66 C16.3861725,21.66 16.8461725,21.49 17.1161725,21.29 L16.9561725,20.5 C16.7461725,20.63 16.4261725,20.79 16.0661725,20.79 C15.6461725,20.79 15.4061725,20.54 15.4061725,20.04 L15.4061725,17.33 L16.8261725,17.33 L16.8261725,16.52 L15.4061725,16.52 L15.4061725,14.94 L14.4561725,15.07 L14.4561725,16.52 L13.7261725,16.52 L13.7261725,17.33 L14.4561725,17.33 L14.4561725,20.16 C14.4561725,21.17 15.0061725,21.66 15.8561725,21.66 Z" id="t"></path>
            <path d="M23.9242587,16.52 L23.9242587,19.31 C23.9242587,20.2 23.3242587,20.81 22.4542587,20.81 C21.6642587,20.81 21.2642587,20.32 21.2642587,19.34 L21.2642587,16.52 L20.3142588,16.52 L20.3142588,19.66 C20.3142588,20.99 20.9842587,21.66 22.1042587,21.66 C22.9342587,21.66 23.5842588,21.3 23.9242587,20.68 L23.9242587,21.56 L24.8742587,21.56 L24.8742587,16.52 L23.9242587,16.52 Z" id="u"></path>
            <path d="M29.2583019,16.42 C28.4483019,16.42 27.7983019,16.78 27.4583019,17.4 L27.4583019,16.52 L26.5083019,16.52 L26.5083019,21.56 L27.4583019,21.56 L27.4583019,18.78 C27.4583019,17.88 28.0483019,17.28 28.9183019,17.28 C29.7083019,17.28 30.1083019,17.77 30.1083019,18.75 L30.1083019,21.56 L31.0583019,21.56 L31.0583019,18.43 C31.0583019,17.1 30.4083019,16.42 29.2583019,16.42 Z" id="n"></path>
            <path d="M36.522345,14.04 L36.522345,17.42 C36.162345,16.75 35.472345,16.42 34.692345,16.42 C33.282345,16.42 32.262345,17.51 32.262345,19.05 C32.262345,20.57 33.272345,21.66 34.692345,21.66 C35.462345,21.66 36.122345,21.36 36.522345,20.64 L36.522345,21.57 L37.472345,21.57 L37.472345,14.04 L36.522345,14.04 Z M34.862345,20.78 C33.892345,20.78 33.242345,20.08 33.242345,19.05 C33.242345,18 33.912345,17.3 34.872345,17.3 C35.842345,17.3 36.572345,18.04 36.572345,19.04 C36.572345,20.03 35.842345,20.78 34.862345,20.78 Z" id="d"></path>
            <path d="M45.3604313,14.04 L45.3604313,17.42 C45.0004313,16.75 44.3104313,16.42 43.5304313,16.42 C42.1204313,16.42 41.1004313,17.51 41.1004313,19.05 C41.1004313,20.57 42.1104313,21.66 43.5304313,21.66 C44.3004313,21.66 44.9604313,21.36 45.3604313,20.64 L45.3604313,21.57 L46.3104313,21.57 L46.3104313,14.04 L45.3604313,14.04 Z M43.7004313,20.78 C42.7304313,20.78 42.0804313,20.08 42.0804313,19.05 C42.0804313,18 42.7504313,17.3 43.7104313,17.3 C44.6804313,17.3 45.4104313,18.04 45.4104313,19.04 C45.4104313,20.03 44.6804313,20.78 43.7004313,20.78 Z" id="d"></path>
            <path d="M48.4144744,15.54 C48.7744744,15.54 49.0444744,15.26 49.0444744,14.9 C49.0444744,14.54 48.7744744,14.26 48.4144744,14.26 C48.0544744,14.26 47.7744744,14.54 47.7744744,14.9 C47.7744744,15.26 48.0544744,15.54 48.4144744,15.54 Z M47.9244744,21.56 L48.8744744,21.56 L48.8744744,16.52 L47.9244744,16.52 L47.9244744,21.56 Z" id="i"></path>
            <path d="M55.0185175,19.06 C55.0185175,17.5 54.0485175,16.42 52.6285175,16.42 C51.1985175,16.42 50.1185175,17.52 50.1185175,19.05 C50.1185175,20.52 51.1385175,21.66 52.7585175,21.66 C53.6485175,21.66 54.3785175,21.36 54.8285175,20.99 L54.5785175,20.21 C54.1785175,20.55 53.5585175,20.83 52.8385175,20.83 C51.8085175,20.83 51.1385175,20.22 51.0785175,19.19 L55.0185175,19.19 L55.0185175,19.06 Z M51.1185175,18.51 C51.2785175,17.73 51.8885175,17.2 52.6285175,17.2 C53.3885175,17.2 53.9385175,17.74 54.0385175,18.51 L51.1185175,18.51 Z" id="e"></path>
            <path d="M63.1266038,19.06 C63.1266038,17.5 62.1566038,16.42 60.7366038,16.42 C59.3066038,16.42 58.2266038,17.52 58.2266038,19.05 C58.2266038,20.52 59.2466038,21.66 60.8666038,21.66 C61.7566038,21.66 62.4866038,21.36 62.9366038,20.99 L62.6866038,20.21 C62.2866038,20.55 61.6666038,20.83 60.9466038,20.83 C59.9166038,20.83 59.2466038,20.22 59.1866038,19.19 L63.1266038,19.19 L63.1266038,19.06 Z M59.2266038,18.51 C59.3866038,17.73 59.9966038,17.2 60.7366038,17.2 C61.4966038,17.2 62.0466038,17.74 62.1466038,18.51 L59.2266038,18.51 Z" id="e"></path>
            <path d="M66.5306469,16.41 C66.0006469,16.41 65.5506469,16.67 65.2606469,17.38 L65.2606469,16.52 L64.3206469,16.52 L64.3206469,21.56 L65.2606469,21.56 L65.2606469,19.01 C65.2606469,18 65.6406469,17.34 66.4506469,17.34 C66.6406469,17.34 66.8306469,17.39 66.9706469,17.45 L67.1606469,16.53 C66.9906469,16.46 66.7606469,16.41 66.5306469,16.41 Z" id="r"></path>
            <path d="M70.77469,16.41 C69.95469,16.41 69.31469,16.77 68.98469,17.38 L68.98469,14.04 L68.03469,14.04 L68.03469,21.56 L68.98469,21.56 L68.98469,18.76 C68.98469,17.87 69.59469,17.27 70.44469,17.27 C71.23469,17.27 71.63469,17.76 71.63469,18.74 L71.63469,21.56 L72.58469,21.56 L72.58469,18.42 C72.58469,17.08 71.92469,16.41 70.77469,16.41 Z" id="h"></path>
            <path d="M76.4687331,21.66 C78.0587331,21.66 79.1587331,20.57 79.1587331,19.04 C79.1587331,17.52 78.0587331,16.42 76.4687331,16.42 C74.8887331,16.42 73.7887331,17.52 73.7887331,19.04 C73.7887331,20.57 74.8887331,21.66 76.4687331,21.66 Z M76.4687331,20.77 C75.4687331,20.77 74.7687331,20.08 74.7687331,19.04 C74.7687331,18.01 75.4587331,17.31 76.4787331,17.31 C77.4787331,17.31 78.1787331,18.01 78.1787331,19.04 C78.1787331,20.06 77.4887331,20.77 76.4687331,20.77 Z M75.3787331,15.46 C75.7087331,15.46 75.9587331,15.2 75.9587331,14.88 C75.9587331,14.56 75.7087331,14.31 75.3787331,14.31 C75.0587331,14.31 74.8087331,14.56 74.8087331,14.88 C74.8087331,15.2 75.0587331,15.46 75.3787331,15.46 Z M77.5387331,15.46 C77.8587331,15.46 78.1087331,15.2 78.1087331,14.88 C78.1087331,14.56 77.8587331,14.31 77.5387331,14.31 C77.2187331,14.31 76.9587331,14.56 76.9587331,14.88 C76.9587331,15.2 77.2187331,15.46 77.5387331,15.46 Z" id="ö"></path>
            <path d="M83.1427762,16.41 C82.3227763,16.41 81.6827763,16.77 81.3527763,17.38 L81.3527763,14.04 L80.4027763,14.04 L80.4027763,21.56 L81.3527763,21.56 L81.3527763,18.76 C81.3527763,17.87 81.9627763,17.27 82.8127762,17.27 C83.6027763,17.27 84.0027762,17.76 84.0027762,18.74 L84.0027762,21.56 L84.9527762,21.56 L84.9527762,18.42 C84.9527762,17.08 84.2927763,16.41 83.1427762,16.41 Z" id="h"></path>
            <path d="M88.1268194,21.66 C88.6568194,21.66 89.1168194,21.49 89.3868194,21.29 L89.2268194,20.5 C89.0168194,20.63 88.6968194,20.79 88.3368194,20.79 C87.9168194,20.79 87.6768194,20.54 87.6768194,20.04 L87.6768194,17.33 L89.0968194,17.33 L89.0968194,16.52 L87.6768194,16.52 L87.6768194,14.94 L86.7268194,15.07 L86.7268194,16.52 L85.9968194,16.52 L85.9968194,17.33 L86.7268194,17.33 L86.7268194,20.16 C86.7268194,21.17 87.2768194,21.66 88.1268194,21.66 Z" id="t"></path>
            <path d="M94.7108625,19.06 C94.7108625,17.5 93.7408625,16.42 92.3208625,16.42 C90.8908625,16.42 89.8108625,17.52 89.8108625,19.05 C89.8108625,20.52 90.8308625,21.66 92.4508625,21.66 C93.3408625,21.66 94.0708625,21.36 94.5208625,20.99 L94.2708625,20.21 C93.8708625,20.55 93.2508625,20.83 92.5308625,20.83 C91.5008625,20.83 90.8308625,20.22 90.7708625,19.19 L94.7108625,19.19 L94.7108625,19.06 Z M90.8108625,18.51 C90.9708625,17.73 91.5808625,17.2 92.3208625,17.2 C93.0808625,17.2 93.6308625,17.74 93.7308625,18.51 L90.8108625,18.51 Z" id="e"></path>
            <path d="M100.318949,21.66 C101.748949,21.66 102.718949,20.9 102.718949,19.56 C102.718949,18.27 101.818949,17.95 100.718949,17.54 C99.8289487,17.21 99.2289488,16.95 99.2289488,16.26 C99.2289488,15.65 99.7389487,15.27 100.528949,15.27 C101.108949,15.27 101.758949,15.47 102.228949,15.74 L102.498949,14.83 C102.018949,14.56 101.278949,14.35 100.548949,14.35 C99.1589487,14.35 98.2089487,15.11 98.2089487,16.35 C98.2089487,17.54 99.0889488,18 100.178949,18.4 C101.148949,18.76 101.698949,18.97 101.698949,19.66 C101.698949,20.36 101.208949,20.74 100.388949,20.74 C99.6189488,20.74 98.8489487,20.42 98.3189487,19.99 L98.0389487,20.95 C98.6489488,21.4 99.4789488,21.66 100.318949,21.66 Z" id="S"></path>
            <path d="M104.622992,15.54 C104.982992,15.54 105.252992,15.26 105.252992,14.9 C105.252992,14.54 104.982992,14.26 104.622992,14.26 C104.262992,14.26 103.982992,14.54 103.982992,14.9 C103.982992,15.26 104.262992,15.54 104.622992,15.54 Z M104.132992,21.56 L105.082992,21.56 L105.082992,16.52 L104.132992,16.52 L104.132992,21.56 Z" id="i"></path>
            <path d="M108.337035,21.66 C108.867035,21.66 109.327035,21.49 109.597035,21.29 L109.437035,20.5 C109.227035,20.63 108.907035,20.79 108.547035,20.79 C108.127035,20.79 107.887035,20.54 107.887035,20.04 L107.887035,17.33 L109.307035,17.33 L109.307035,16.52 L107.887035,16.52 L107.887035,14.94 L106.937035,15.07 L106.937035,16.52 L106.207035,16.52 L106.207035,17.33 L106.937035,17.33 L106.937035,20.16 C106.937035,21.17 107.487035,21.66 108.337035,21.66 Z" id="t"></path>
            <polygon id="z" points="110.031078 21.56 114.121078 21.56 114.121078 20.75 111.451078 20.75 114.071078 16.96 114.071078 16.52 110.141078 16.52 110.141078 17.33 112.701078 17.33 110.031078 21.14"></polygon>
            <path d="M118.155121,16.42 C117.425121,16.42 116.715121,16.76 116.315121,17.41 L116.315121,16.52 L115.365121,16.52 L115.365121,23.66 L116.315121,23.66 L116.315121,20.66 C116.695121,21.33 117.415121,21.66 118.105121,21.66 C119.565121,21.66 120.565121,20.55 120.565121,19.04 C120.565121,17.52 119.565121,16.42 118.155121,16.42 Z M117.965121,20.78 C117.005121,20.78 116.265121,20.04 116.265121,19.04 C116.265121,18.01 117.025121,17.3 117.975121,17.3 C118.965121,17.3 119.595121,18.04 119.595121,19.04 C119.595121,20.07 118.925121,20.78 117.965121,20.78 Z" id="p"></path>
            <path d="M124.109164,21.66 C125.699164,21.66 126.799164,20.57 126.799164,19.04 C126.799164,17.52 125.699164,16.42 124.109164,16.42 C122.529164,16.42 121.429164,17.52 121.429164,19.04 C121.429164,20.57 122.529164,21.66 124.109164,21.66 Z M124.109164,20.77 C123.109164,20.77 122.409164,20.08 122.409164,19.04 C122.409164,18.01 123.099164,17.31 124.119164,17.31 C125.119164,17.31 125.819164,18.01 125.819164,19.04 C125.819164,20.06 125.129164,20.77 124.109164,20.77 Z" id="o"></path>
            <path d="M129.553207,21.66 C130.783208,21.66 131.493207,21.02 131.493207,20.08 C131.493207,19.17 130.813207,18.83 129.883207,18.58 C129.293207,18.42 128.823207,18.27 128.823207,17.81 C128.823207,17.4 129.193207,17.17 129.723208,17.17 C130.273208,17.17 130.793207,17.39 131.133207,17.62 L131.323207,16.84 C130.943207,16.61 130.373207,16.42 129.743207,16.42 C128.633207,16.42 127.883207,16.98 127.883207,17.93 C127.883207,18.86 128.613207,19.15 129.393208,19.39 C130.143208,19.62 130.563207,19.76 130.563207,20.22 C130.563207,20.66 130.193207,20.91 129.603207,20.91 C128.983207,20.91 128.363207,20.66 127.973207,20.34 L127.743207,21.13 C128.133207,21.45 128.863207,21.66 129.553207,21.66 Z" id="s"></path>
            <path d="M133.327251,15.54 C133.687251,15.54 133.957251,15.26 133.957251,14.9 C133.957251,14.54 133.687251,14.26 133.327251,14.26 C132.967251,14.26 132.687251,14.54 132.687251,14.9 C132.687251,15.26 132.967251,15.54 133.327251,15.54 Z M132.837251,21.56 L133.787251,21.56 L133.787251,16.52 L132.837251,16.52 L132.837251,21.56 Z" id="i"></path>
            <path d="M137.041294,21.66 C137.571294,21.66 138.031294,21.49 138.301294,21.29 L138.141294,20.5 C137.931294,20.63 137.611294,20.79 137.251294,20.79 C136.831294,20.79 136.591294,20.54 136.591294,20.04 L136.591294,17.33 L138.011294,17.33 L138.011294,16.52 L136.591294,16.52 L136.591294,14.94 L135.641294,15.07 L135.641294,16.52 L134.911294,16.52 L134.911294,17.33 L135.641294,17.33 L135.641294,20.16 C135.641294,21.17 136.191294,21.66 137.041294,21.66 Z" id="t"></path>
            <path d="M139.645337,15.54 C140.005337,15.54 140.275337,15.26 140.275337,14.9 C140.275337,14.54 140.005337,14.26 139.645337,14.26 C139.285337,14.26 139.005337,14.54 139.005337,14.9 C139.005337,15.26 139.285337,15.54 139.645337,15.54 Z M139.155337,21.56 L140.105337,21.56 L140.105337,16.52 L139.155337,16.52 L139.155337,21.56 Z" id="i"></path>
            <path d="M144.02938,21.66 C145.61938,21.66 146.71938,20.57 146.71938,19.04 C146.71938,17.52 145.61938,16.42 144.02938,16.42 C142.44938,16.42 141.34938,17.52 141.34938,19.04 C141.34938,20.57 142.44938,21.66 144.02938,21.66 Z M144.02938,20.77 C143.02938,20.77 142.32938,20.08 142.32938,19.04 C142.32938,18.01 143.01938,17.31 144.03938,17.31 C145.03938,17.31 145.73938,18.01 145.73938,19.04 C145.73938,20.06 145.04938,20.77 144.02938,20.77 Z" id="o"></path>
            <path d="M150.713423,16.42 C149.903423,16.42 149.253423,16.78 148.913423,17.4 L148.913423,16.52 L147.963423,16.52 L147.963423,21.56 L148.913423,21.56 L148.913423,18.78 C148.913423,17.88 149.503423,17.28 150.373423,17.28 C151.163423,17.28 151.563423,17.77 151.563423,18.75 L151.563423,21.56 L152.513423,21.56 L152.513423,18.43 C152.513423,17.1 151.863423,16.42 150.713423,16.42 Z" id="n"></path>
            <path d="M159.301509,16.42 C158.571509,16.42 157.861509,16.76 157.461509,17.41 L157.461509,14.04 L156.511509,14.04 L156.511509,21.56 L157.461509,21.56 L157.461509,20.66 C157.841509,21.33 158.561509,21.66 159.251509,21.66 C160.711509,21.66 161.711509,20.55 161.711509,19.04 C161.711509,17.52 160.711509,16.42 159.301509,16.42 Z M159.111509,20.78 C158.151509,20.78 157.411509,20.04 157.411509,19.04 C157.411509,18.01 158.171509,17.3 159.121509,17.3 C160.111509,17.3 160.741509,18.04 160.741509,19.04 C160.741509,20.07 160.071509,20.78 159.111509,20.78 Z" id="b"></path>
            <path d="M165.175552,16.41 C164.645552,16.41 164.195552,16.67 163.905552,17.38 L163.905552,16.52 L162.965552,16.52 L162.965552,21.56 L163.905552,21.56 L163.905552,19.01 C163.905552,18 164.285552,17.34 165.095552,17.34 C165.285552,17.34 165.475552,17.39 165.615552,17.45 L165.805552,16.53 C165.635552,16.46 165.405552,16.41 165.175552,16.41 Z" id="r"></path>
            <path d="M167.169596,15.54 C167.529596,15.54 167.799596,15.26 167.799596,14.9 C167.799596,14.54 167.529596,14.26 167.169596,14.26 C166.809596,14.26 166.529596,14.54 166.529596,14.9 C166.529596,15.26 166.809596,15.54 167.169596,15.54 Z M166.679596,21.56 L167.629596,21.56 L167.629596,16.52 L166.679596,16.52 L166.679596,21.56 Z" id="i"></path>
            <path d="M172.013639,16.42 C171.203639,16.42 170.553639,16.78 170.213639,17.4 L170.213639,16.52 L169.263639,16.52 L169.263639,21.56 L170.213639,21.56 L170.213639,18.78 C170.213639,17.88 170.803639,17.28 171.673639,17.28 C172.463639,17.28 172.863639,17.77 172.863639,18.75 L172.863639,21.56 L173.813639,21.56 L173.813639,18.43 C173.813639,17.1 173.163639,16.42 172.013639,16.42 Z" id="n"></path>
            <path d="M179.277682,16.52 L179.277682,17.41 C178.867682,16.77 178.267682,16.42 177.457682,16.42 C176.007682,16.42 175.017682,17.53 175.017682,19.01 C175.017682,20.5 176.037682,21.56 177.457682,21.56 C178.247682,21.56 178.887682,21.24 179.277682,20.57 L179.277682,21.38 C179.277682,22.39 178.607682,22.89 177.567682,22.89 C176.717682,22.89 176.107682,22.59 175.667682,22.2 L175.397682,23.1 C175.907682,23.48 176.567682,23.76 177.567682,23.76 C179.127682,23.76 180.227682,22.97 180.227682,21.39 L180.227682,16.52 L179.277682,16.52 Z M177.657682,20.71 C176.677682,20.71 175.987682,20 175.987682,19 C175.987682,18.02 176.647682,17.26 177.647682,17.26 C178.617682,17.26 179.307682,18.07 179.307682,18.98 C179.307682,19.96 178.647682,20.71 177.657682,20.71 Z" id="g"></path>
            <path d="M183.461725,21.66 C183.991725,21.66 184.451725,21.49 184.721725,21.29 L184.561725,20.5 C184.351725,20.63 184.031725,20.79 183.671725,20.79 C183.251725,20.79 183.011725,20.54 183.011725,20.04 L183.011725,17.33 L184.431725,17.33 L184.431725,16.52 L183.011725,16.52 L183.011725,14.94 L182.061725,15.07 L182.061725,16.52 L181.331725,16.52 L181.331725,17.33 L182.061725,17.33 L182.061725,20.16 C182.061725,21.17 182.611725,21.66 183.461725,21.66 Z" id="t"></path>
            <path d="M191.849811,14.04 L191.849811,17.42 C191.489811,16.75 190.799811,16.42 190.019811,16.42 C188.609811,16.42 187.589811,17.51 187.589811,19.05 C187.589811,20.57 188.599811,21.66 190.019811,21.66 C190.789811,21.66 191.449811,21.36 191.849811,20.64 L191.849811,21.57 L192.799811,21.57 L192.799811,14.04 L191.849811,14.04 Z M190.189811,20.78 C189.219811,20.78 188.569811,20.08 188.569811,19.05 C188.569811,18 189.239811,17.3 190.199811,17.3 C191.169811,17.3 191.899811,18.04 191.899811,19.04 C191.899811,20.03 191.169811,20.78 190.189811,20.78 Z" id="d"></path>
            <path d="M194.903854,15.54 C195.263854,15.54 195.533854,15.26 195.533854,14.9 C195.533854,14.54 195.263854,14.26 194.903854,14.26 C194.543854,14.26 194.263854,14.54 194.263854,14.9 C194.263854,15.26 194.543854,15.54 194.903854,15.54 Z M194.413854,21.56 L195.363854,21.56 L195.363854,16.52 L194.413854,16.52 L194.413854,21.56 Z" id="i"></path>
            <path d="M199.147897,21.66 C199.897897,21.66 200.537897,21.42 200.977897,21.1 L200.747897,20.29 C200.307897,20.59 199.757897,20.79 199.227897,20.79 C198.257897,20.79 197.597897,20.08 197.597897,19.04 C197.597897,18 198.267897,17.3 199.257897,17.3 C199.797897,17.3 200.267897,17.5 200.617897,17.76 L200.917897,16.93 C200.497897,16.65 199.927897,16.42 199.207897,16.42 C197.687897,16.42 196.607897,17.49 196.607897,19.06 C196.607897,20.61 197.667897,21.66 199.147897,21.66 Z" id="c"></path>
            <path d="M204.841941,16.41 C204.021941,16.41 203.381941,16.77 203.051941,17.38 L203.051941,14.04 L202.101941,14.04 L202.101941,21.56 L203.051941,21.56 L203.051941,18.76 C203.051941,17.87 203.661941,17.27 204.511941,17.27 C205.301941,17.27 205.701941,17.76 205.701941,18.74 L205.701941,21.56 L206.651941,21.56 L206.651941,18.42 C206.651941,17.08 205.991941,16.41 204.841941,16.41 Z" id="h"></path>
            <path d="M212.710027,16.42 C211.850027,16.42 211.140027,16.71 210.700027,17.01 L210.940027,17.8 C211.270027,17.56 211.830027,17.23 212.550027,17.23 C213.410027,17.23 213.840027,17.7 213.840027,18.43 L213.840027,18.54 C211.370027,18.56 210.360027,19.01 210.360027,20.17 C210.360027,21.09 211.000027,21.66 212.040027,21.66 C212.890027,21.66 213.520027,21.29 213.840027,20.78 L213.840027,21.56 L214.790027,21.56 L214.790027,18.41 C214.790027,17.05 213.990027,16.42 212.710027,16.42 Z M212.330027,20.93 C211.690027,20.93 211.350027,20.61 211.350027,20.12 C211.350027,19.47 211.950027,19.19 213.840027,19.17 L213.840027,19.6 C213.840027,20.54 213.020027,20.93 212.330027,20.93 Z" id="a"></path>
            <path d="M219.92407,16.52 L219.92407,19.31 C219.92407,20.2 219.32407,20.81 218.45407,20.81 C217.66407,20.81 217.26407,20.32 217.26407,19.34 L217.26407,16.52 L216.31407,16.52 L216.31407,19.66 C216.31407,20.99 216.98407,21.66 218.10407,21.66 C218.93407,21.66 219.58407,21.3 219.92407,20.68 L219.92407,21.56 L220.87407,21.56 L220.87407,16.52 L219.92407,16.52 Z" id="u"></path>
            <path d="M222.788113,21.56 L223.738113,21.56 L223.738113,17.33 L224.938113,17.33 L224.938113,16.52 L223.738113,16.52 L223.738113,15.78 C223.738113,15.1 223.998113,14.86 224.418113,14.86 C224.668113,14.86 224.918113,14.95 225.088113,15.05 L225.278113,14.23 C225.008113,14.1 224.668113,14 224.268113,14 C223.388113,14 222.788113,14.52 222.788113,15.73 L222.788113,16.52 L221.918113,16.52 L221.918113,17.33 L222.788113,17.33 L222.788113,21.56 Z" id="f"></path>
            <path d="M233.056199,21.56 L234.136199,21.56 L231.446199,14.46 L230.346199,14.46 L227.666199,21.56 L228.706199,21.56 L229.496199,19.4 L232.266199,19.4 L233.056199,21.56 Z M229.796199,18.56 L230.876199,15.6 L231.956199,18.56 L229.796199,18.56 Z" id="A"></path>
            <path d="M238.530242,16.52 L238.530242,19.31 C238.530242,20.2 237.930242,20.81 237.060242,20.81 C236.270242,20.81 235.870242,20.32 235.870242,19.34 L235.870242,16.52 L234.920242,16.52 L234.920242,19.66 C234.920242,20.99 235.590242,21.66 236.710242,21.66 C237.540242,21.66 238.190242,21.3 238.530242,20.68 L238.530242,21.56 L239.480242,21.56 L239.480242,16.52 L238.530242,16.52 Z" id="u"></path>
            <path d="M244.984286,16.52 L244.984286,17.41 C244.574286,16.77 243.974286,16.42 243.164286,16.42 C241.714286,16.42 240.724286,17.53 240.724286,19.01 C240.724286,20.5 241.744286,21.56 243.164286,21.56 C243.954286,21.56 244.594286,21.24 244.984286,20.57 L244.984286,21.38 C244.984286,22.39 244.314286,22.89 243.274286,22.89 C242.424286,22.89 241.814286,22.59 241.374286,22.2 L241.104286,23.1 C241.614286,23.48 242.274286,23.76 243.274286,23.76 C244.834286,23.76 245.934286,22.97 245.934286,21.39 L245.934286,16.52 L244.984286,16.52 Z M243.364286,20.71 C242.384286,20.71 241.694286,20 241.694286,19 C241.694286,18.02 242.354286,17.26 243.354286,17.26 C244.324286,17.26 245.014286,18.07 245.014286,18.98 C245.014286,19.96 244.354286,20.71 243.364286,20.71 Z" id="g"></path>
            <path d="M252.058329,19.06 C252.058329,17.5 251.088329,16.42 249.668329,16.42 C248.238329,16.42 247.158329,17.52 247.158329,19.05 C247.158329,20.52 248.178329,21.66 249.798329,21.66 C250.688329,21.66 251.418329,21.36 251.868329,20.99 L251.618329,20.21 C251.218329,20.55 250.598329,20.83 249.878329,20.83 C248.848329,20.83 248.178329,20.22 248.118329,19.19 L252.058329,19.19 L252.058329,19.06 Z M248.158329,18.51 C248.318329,17.73 248.928329,17.2 249.668329,17.2 C250.428329,17.2 250.978329,17.74 251.078329,18.51 L248.158329,18.51 Z" id="e"></path>
            <path d="M256.002372,16.42 C255.192372,16.42 254.542372,16.78 254.202372,17.4 L254.202372,16.52 L253.252372,16.52 L253.252372,21.56 L254.202372,21.56 L254.202372,18.78 C254.202372,17.88 254.792372,17.28 255.662372,17.28 C256.452372,17.28 256.852372,17.77 256.852372,18.75 L256.852372,21.56 L257.802372,21.56 L257.802372,18.43 C257.802372,17.1 257.152372,16.42 256.002372,16.42 Z" id="n"></path>
            <path d="M262.136415,16.41 C261.316415,16.41 260.676415,16.77 260.346415,17.38 L260.346415,14.04 L259.396415,14.04 L259.396415,21.56 L260.346415,21.56 L260.346415,18.76 C260.346415,17.87 260.956415,17.27 261.806415,17.27 C262.596415,17.27 262.996415,17.76 262.996415,18.74 L262.996415,21.56 L263.946415,21.56 L263.946415,18.42 C263.946415,17.08 263.286415,16.41 262.136415,16.41 Z" id="h"></path>
            <path d="M267.830458,21.66 C269.420458,21.66 270.520458,20.57 270.520458,19.04 C270.520458,17.52 269.420458,16.42 267.830458,16.42 C266.250458,16.42 265.150458,17.52 265.150458,19.04 C265.150458,20.57 266.250458,21.66 267.830458,21.66 Z M267.830458,20.77 C266.830458,20.77 266.130458,20.08 266.130458,19.04 C266.130458,18.01 266.820458,17.31 267.840458,17.31 C268.840458,17.31 269.540458,18.01 269.540458,19.04 C269.540458,20.06 268.850458,20.77 267.830458,20.77 Z M266.740458,15.46 C267.070458,15.46 267.320458,15.2 267.320458,14.88 C267.320458,14.56 267.070458,14.31 266.740458,14.31 C266.420458,14.31 266.170458,14.56 266.170458,14.88 C266.170458,15.2 266.420458,15.46 266.740458,15.46 Z M268.900458,15.46 C269.220458,15.46 269.470458,15.2 269.470458,14.88 C269.470458,14.56 269.220458,14.31 268.900458,14.31 C268.580458,14.31 268.320458,14.56 268.320458,14.88 C268.320458,15.2 268.580458,15.46 268.900458,15.46 Z" id="ö"></path>
            <path d="M274.504501,16.41 C273.684501,16.41 273.044501,16.77 272.714501,17.38 L272.714501,14.04 L271.764501,14.04 L271.764501,21.56 L272.714501,21.56 L272.714501,18.76 C272.714501,17.87 273.324501,17.27 274.174501,17.27 C274.964501,17.27 275.364501,17.76 275.364501,18.74 L275.364501,21.56 L276.314501,21.56 L276.314501,18.42 C276.314501,17.08 275.654501,16.41 274.504501,16.41 Z" id="h"></path>
            <path d="M282.418544,19.06 C282.418544,17.5 281.448544,16.42 280.028544,16.42 C278.598544,16.42 277.518544,17.52 277.518544,19.05 C277.518544,20.52 278.538544,21.66 280.158544,21.66 C281.048544,21.66 281.778544,21.36 282.228544,20.99 L281.978544,20.21 C281.578544,20.55 280.958544,20.83 280.238544,20.83 C279.208544,20.83 278.538544,20.22 278.478544,19.19 L282.418544,19.19 L282.418544,19.06 Z M278.518544,18.51 C278.678544,17.73 279.288544,17.2 280.028544,17.2 C280.788544,17.2 281.338544,17.74 281.438544,18.51 L278.518544,18.51 Z" id="e"></path>
            <path d="M291.806631,16.41 C291.026631,16.41 290.436631,16.79 290.116631,17.5 C289.886631,16.77 289.346631,16.41 288.546631,16.41 C287.836631,16.41 287.276631,16.75 286.966631,17.34 L286.966631,16.52 L286.016631,16.52 L286.016631,21.56 L286.966631,21.56 L286.966631,18.76 C286.966631,17.87 287.466631,17.27 288.216631,17.27 C288.946631,17.27 289.296631,17.76 289.296631,18.74 L289.296631,21.56 L290.246631,21.56 L290.246631,18.71 C290.246631,17.87 290.756631,17.27 291.486631,17.27 C292.216631,17.27 292.576631,17.76 292.576631,18.74 L292.576631,21.56 L293.526631,21.56 L293.526631,18.42 C293.526631,17.08 292.906631,16.41 291.806631,16.41 Z" id="m"></path>
            <path d="M295.600674,15.54 C295.960674,15.54 296.230674,15.26 296.230674,14.9 C296.230674,14.54 295.960674,14.26 295.600674,14.26 C295.240674,14.26 294.960674,14.54 294.960674,14.9 C294.960674,15.26 295.240674,15.54 295.600674,15.54 Z M295.110674,21.56 L296.060674,21.56 L296.060674,16.52 L295.110674,16.52 L295.110674,21.56 Z" id="i"></path>
            <path d="M299.314717,21.66 C299.844717,21.66 300.304717,21.49 300.574717,21.29 L300.414717,20.5 C300.204717,20.63 299.884717,20.79 299.524717,20.79 C299.104717,20.79 298.864717,20.54 298.864717,20.04 L298.864717,17.33 L300.284717,17.33 L300.284717,16.52 L298.864717,16.52 L298.864717,14.94 L297.914717,15.07 L297.914717,16.52 L297.184717,16.52 L297.184717,17.33 L297.914717,17.33 L297.914717,20.16 C297.914717,21.17 298.464717,21.66 299.314717,21.66 Z" id="t"></path>
            <path d="M4.38,28.04 L4.38,31.42 C4.02,30.75 3.33,30.42 2.55,30.42 C1.14,30.42 0.12,31.51 0.12,33.05 C0.12,34.57 1.13,35.66 2.55,35.66 C3.32,35.66 3.98,35.36 4.38,34.64 L4.38,35.57 L5.33,35.57 L5.33,28.04 L4.38,28.04 Z M2.72,34.78 C1.75,34.78 1.1,34.08 1.1,33.05 C1.1,32 1.77,31.3 2.73,31.3 C3.7,31.3 4.43,32.04 4.43,33.04 C4.43,34.03 3.7,34.78 2.72,34.78 Z" id="d"></path>
            <path d="M11.4540431,33.06 C11.4540431,31.5 10.4840431,30.42 9.06404312,30.42 C7.63404312,30.42 6.55404312,31.52 6.55404312,33.05 C6.55404312,34.52 7.57404312,35.66 9.19404312,35.66 C10.0840431,35.66 10.8140431,35.36 11.2640431,34.99 L11.0140431,34.21 C10.6140431,34.55 9.99404312,34.83 9.27404313,34.83 C8.24404312,34.83 7.57404312,34.22 7.51404312,33.19 L11.4540431,33.19 L11.4540431,33.06 Z M7.55404312,32.51 C7.71404312,31.73 8.32404312,31.2 9.06404312,31.2 C9.82404312,31.2 10.3740431,31.74 10.4740431,32.51 L7.55404312,32.51 Z" id="e"></path>
            <path d="M18.4380862,30.41 C17.6580863,30.41 17.0680863,30.79 16.7480863,31.5 C16.5180863,30.77 15.9780863,30.41 15.1780863,30.41 C14.4680863,30.41 13.9080863,30.75 13.5980862,31.34 L13.5980862,30.52 L12.6480863,30.52 L12.6480863,35.56 L13.5980862,35.56 L13.5980862,32.76 C13.5980862,31.87 14.0980862,31.27 14.8480862,31.27 C15.5780863,31.27 15.9280863,31.76 15.9280863,32.74 L15.9280863,35.56 L16.8780863,35.56 L16.8780863,32.71 C16.8780863,31.87 17.3880863,31.27 18.1180863,31.27 C18.8480863,31.27 19.2080863,31.76 19.2080863,32.74 L19.2080863,35.56 L20.1580863,35.56 L20.1580863,32.42 C20.1580863,31.08 19.5380862,30.41 18.4380862,30.41 Z" id="m"></path>
            <path d="M26.1561725,35.66 C27.5861725,35.66 28.5561725,34.9 28.5561725,33.56 C28.5561725,32.27 27.6561725,31.95 26.5561725,31.54 C25.6661725,31.21 25.0661725,30.95 25.0661725,30.26 C25.0661725,29.65 25.5761725,29.27 26.3661725,29.27 C26.9461725,29.27 27.5961725,29.47 28.0661725,29.74 L28.3361725,28.83 C27.8561725,28.56 27.1161725,28.35 26.3861725,28.35 C24.9961725,28.35 24.0461725,29.11 24.0461725,30.35 C24.0461725,31.54 24.9261725,32 26.0161725,32.4 C26.9861725,32.76 27.5361725,32.97 27.5361725,33.66 C27.5361725,34.36 27.0461725,34.74 26.2261725,34.74 C25.4561725,34.74 24.6861725,34.42 24.1561725,33.99 L23.8761725,34.95 C24.4861725,35.4 25.3161725,35.66 26.1561725,35.66 Z" id="S"></path>
            <path d="M31.5902156,35.66 C32.1202156,35.66 32.5802156,35.49 32.8502156,35.29 L32.6902156,34.5 C32.4802156,34.63 32.1602156,34.79 31.8002156,34.79 C31.3802156,34.79 31.1402156,34.54 31.1402156,34.04 L31.1402156,31.33 L32.5602156,31.33 L32.5602156,30.52 L31.1402156,30.52 L31.1402156,28.94 L30.1902156,29.07 L30.1902156,30.52 L29.4602156,30.52 L29.4602156,31.33 L30.1902156,31.33 L30.1902156,34.16 C30.1902156,35.17 30.7402156,35.66 31.5902156,35.66 Z" id="t"></path>
            <path d="M35.7242587,30.42 C34.8642587,30.42 34.1542587,30.71 33.7142587,31.01 L33.9542588,31.8 C34.2842587,31.56 34.8442588,31.23 35.5642588,31.23 C36.4242587,31.23 36.8542587,31.7 36.8542587,32.43 L36.8542587,32.54 C34.3842588,32.56 33.3742587,33.01 33.3742587,34.17 C33.3742587,35.09 34.0142587,35.66 35.0542587,35.66 C35.9042587,35.66 36.5342587,35.29 36.8542587,34.78 L36.8542587,35.56 L37.8042588,35.56 L37.8042588,32.41 C37.8042588,31.05 37.0042587,30.42 35.7242587,30.42 Z M35.3442588,34.93 C34.7042588,34.93 34.3642587,34.61 34.3642587,34.12 C34.3642587,33.47 34.9642587,33.19 36.8542587,33.17 L36.8542587,33.6 C36.8542587,34.54 36.0342587,34.93 35.3442588,34.93 Z" id="a"></path>
            <path d="M43.2583019,28.04 L43.2583019,31.42 C42.8983019,30.75 42.2083019,30.42 41.4283019,30.42 C40.0183019,30.42 38.9983019,31.51 38.9983019,33.05 C38.9983019,34.57 40.0083019,35.66 41.4283019,35.66 C42.1983019,35.66 42.8583019,35.36 43.2583019,34.64 L43.2583019,35.57 L44.2083019,35.57 L44.2083019,28.04 L43.2583019,28.04 Z M41.5983019,34.78 C40.6283019,34.78 39.9783019,34.08 39.9783019,33.05 C39.9783019,32 40.6483019,31.3 41.6083019,31.3 C42.5783019,31.3 43.3083019,32.04 43.3083019,33.04 C43.3083019,34.03 42.5783019,34.78 41.5983019,34.78 Z" id="d"></path>
            <path d="M47.442345,35.66 C47.972345,35.66 48.432345,35.49 48.702345,35.29 L48.542345,34.5 C48.332345,34.63 48.012345,34.79 47.652345,34.79 C47.232345,34.79 46.992345,34.54 46.992345,34.04 L46.992345,31.33 L48.412345,31.33 L48.412345,30.52 L46.992345,30.52 L46.992345,28.94 L46.042345,29.07 L46.042345,30.52 L45.312345,30.52 L45.312345,31.33 L46.042345,31.33 L46.042345,34.16 C46.042345,35.17 46.592345,35.66 47.442345,35.66 Z" id="t"></path>
            <polygon id="v" points="52.7263881 30.52 51.2563881 34.46 49.7963881 30.52 48.7463881 30.52 50.7563881 35.56 51.7263881 35.56 53.7263881 30.52"></polygon>
            <path d="M59.0004313,33.06 C59.0004313,31.5 58.0304313,30.42 56.6104313,30.42 C55.1804313,30.42 54.1004313,31.52 54.1004313,33.05 C54.1004313,34.52 55.1204313,35.66 56.7404313,35.66 C57.6304313,35.66 58.3604313,35.36 58.8104313,34.99 L58.5604313,34.21 C58.1604313,34.55 57.5404313,34.83 56.8204313,34.83 C55.7904313,34.83 55.1204313,34.22 55.0604313,33.19 L59.0004313,33.19 L59.0004313,33.06 Z M55.1004313,32.51 C55.2604313,31.73 55.8704313,31.2 56.6104313,31.2 C57.3704313,31.2 57.9204313,31.74 58.0204313,32.51 L55.1004313,32.51 Z" id="e"></path>
            <path d="M62.4044744,30.41 C61.8744744,30.41 61.4244744,30.67 61.1344744,31.38 L61.1344744,30.52 L60.1944744,30.52 L60.1944744,35.56 L61.1344744,35.56 L61.1344744,33.01 C61.1344744,32 61.5144744,31.34 62.3244744,31.34 C62.5144744,31.34 62.7044744,31.39 62.8444744,31.45 L63.0344744,30.53 C62.8644744,30.46 62.6344744,30.41 62.4044744,30.41 Z" id="r"></path>
            <polygon id="k" points="63.9085175 35.56 64.8585175 35.56 64.8585175 32.96 67.0985175 35.56 68.3385175 35.56 65.9885175 32.9 68.2485175 30.52 67.0485175 30.52 64.8585175 32.9 64.8585175 28.04 63.9085175 28.04"></polygon>
            <path d="M73.6025606,33.06 C73.6025606,31.5 72.6325606,30.42 71.2125606,30.42 C69.7825606,30.42 68.7025606,31.52 68.7025606,33.05 C68.7025606,34.52 69.7225606,35.66 71.3425606,35.66 C72.2325606,35.66 72.9625606,35.36 73.4125606,34.99 L73.1625606,34.21 C72.7625606,34.55 72.1425606,34.83 71.4225606,34.83 C70.3925606,34.83 69.7225606,34.22 69.6625606,33.19 L73.6025606,33.19 L73.6025606,33.06 Z M69.7025606,32.51 C69.8625606,31.73 70.4725606,31.2 71.2125606,31.2 C71.9725606,31.2 72.5225606,31.74 72.6225606,32.51 L69.7025606,32.51 Z" id="e"></path>
            <path d="M77.5366037,30.41 C76.7166038,30.41 76.0766038,30.77 75.7466038,31.38 L75.7466038,28.04 L74.7966038,28.04 L74.7966038,35.56 L75.7466038,35.56 L75.7466038,32.76 C75.7466038,31.87 76.3566038,31.27 77.2066037,31.27 C77.9966038,31.27 78.3966037,31.76 78.3966037,32.74 L78.3966037,35.56 L79.3466037,35.56 L79.3466037,32.42 C79.3466037,31.08 78.6866038,30.41 77.5366037,30.41 Z" id="h"></path>
            <path d="M83.1506469,30.41 C82.6206469,30.41 82.1706469,30.67 81.8806469,31.38 L81.8806469,30.52 L80.9406469,30.52 L80.9406469,35.56 L81.8806469,35.56 L81.8806469,33.01 C81.8806469,32 82.2606469,31.34 83.0706469,31.34 C83.2606469,31.34 83.4506469,31.39 83.5906469,31.45 L83.7806469,30.53 C83.6106469,30.46 83.3806469,30.41 83.1506469,30.41 Z" id="r"></path>
            <path d="M84.68469,35.69 C85.03469,35.69 85.32469,35.4 85.32469,35.05 C85.32469,34.69 85.03469,34.41 84.68469,34.41 C84.32469,34.41 84.04469,34.69 84.04469,35.05 C84.04469,35.4 84.32469,35.69 84.68469,35.69 Z" id="."></path>
            <polygon id="E" points="89.4727763 35.56 93.6027763 35.56 93.6027763 34.65 90.5027763 34.65 90.5027763 32.45 93.4327763 32.45 93.4327763 31.56 90.5027763 31.56 90.5027763 29.37 93.5327763 29.37 93.5327763 28.46 89.4727763 28.46"></polygon>
            <path d="M97.3368194,30.41 C96.8068194,30.41 96.3568194,30.67 96.0668194,31.38 L96.0668194,30.52 L95.1268194,30.52 L95.1268194,35.56 L96.0668194,35.56 L96.0668194,33.01 C96.0668194,32 96.4468194,31.34 97.2568194,31.34 C97.4468194,31.34 97.6368194,31.39 97.7768194,31.45 L97.9668194,30.53 C97.7968194,30.46 97.5668194,30.41 97.3368194,30.41 Z" id="r"></path>
            <path d="M100.000863,35.66 C100.390863,35.66 100.690863,35.56 100.870863,35.47 L100.740863,34.69 C100.640863,34.74 100.450863,34.81 100.250863,34.81 C99.9508625,34.81 99.7708625,34.63 99.7708625,34.18 L99.7708625,28.04 L98.8208625,28.04 L98.8208625,34.33 C98.8208625,35.25 99.2708625,35.66 100.000863,35.66 Z" id="l"></path>
            <path d="M106.244906,33.06 C106.244906,31.5 105.274906,30.42 103.854906,30.42 C102.424906,30.42 101.344906,31.52 101.344906,33.05 C101.344906,34.52 102.364906,35.66 103.984906,35.66 C104.874906,35.66 105.604906,35.36 106.054906,34.99 L105.804906,34.21 C105.404906,34.55 104.784906,34.83 104.064906,34.83 C103.034906,34.83 102.364906,34.22 102.304906,33.19 L106.244906,33.19 L106.244906,33.06 Z M102.344906,32.51 C102.504906,31.73 103.114906,31.2 103.854906,31.2 C104.614906,31.2 105.164906,31.74 105.264906,32.51 L102.344906,32.51 Z" id="e"></path>
            <path d="M110.228949,30.42 C109.498949,30.42 108.788949,30.76 108.388949,31.41 L108.388949,28.04 L107.438949,28.04 L107.438949,35.56 L108.388949,35.56 L108.388949,34.66 C108.768949,35.33 109.488949,35.66 110.178949,35.66 C111.638949,35.66 112.638949,34.55 112.638949,33.04 C112.638949,31.52 111.638949,30.42 110.228949,30.42 Z M110.038949,34.78 C109.078949,34.78 108.338949,34.04 108.338949,33.04 C108.338949,32.01 109.098949,31.3 110.048949,31.3 C111.038949,31.3 111.668949,32.04 111.668949,33.04 C111.668949,34.07 110.998949,34.78 110.038949,34.78 Z" id="b"></path>
            <path d="M118.402992,33.06 C118.402992,31.5 117.432992,30.42 116.012992,30.42 C114.582992,30.42 113.502992,31.52 113.502992,33.05 C113.502992,34.52 114.522992,35.66 116.142992,35.66 C117.032992,35.66 117.762992,35.36 118.212992,34.99 L117.962992,34.21 C117.562992,34.55 116.942992,34.83 116.222992,34.83 C115.192992,34.83 114.522992,34.22 114.462992,33.19 L118.402992,33.19 L118.402992,33.06 Z M114.502992,32.51 C114.662992,31.73 115.272992,31.2 116.012992,31.2 C116.772992,31.2 117.322992,31.74 117.422992,32.51 L114.502992,32.51 Z" id="e"></path>
            <path d="M125.871078,28.04 L125.871078,31.42 C125.511078,30.75 124.821078,30.42 124.041078,30.42 C122.631078,30.42 121.611078,31.51 121.611078,33.05 C121.611078,34.57 122.621078,35.66 124.041078,35.66 C124.811078,35.66 125.471078,35.36 125.871078,34.64 L125.871078,35.57 L126.821078,35.57 L126.821078,28.04 L125.871078,28.04 Z M124.211078,34.78 C123.241078,34.78 122.591078,34.08 122.591078,33.05 C122.591078,32 123.261078,31.3 124.221078,31.3 C125.191078,31.3 125.921078,32.04 125.921078,33.04 C125.921078,34.03 125.191078,34.78 124.211078,34.78 Z" id="d"></path>
            <path d="M128.925121,29.54 C129.285121,29.54 129.555121,29.26 129.555121,28.9 C129.555121,28.54 129.285121,28.26 128.925121,28.26 C128.565121,28.26 128.285121,28.54 128.285121,28.9 C128.285121,29.26 128.565121,29.54 128.925121,29.54 Z M128.435121,35.56 L129.385121,35.56 L129.385121,30.52 L128.435121,30.52 L128.435121,35.56 Z" id="i"></path>
            <path d="M135.529164,33.06 C135.529164,31.5 134.559164,30.42 133.139164,30.42 C131.709164,30.42 130.629164,31.52 130.629164,33.05 C130.629164,34.52 131.649164,35.66 133.269164,35.66 C134.159164,35.66 134.889164,35.36 135.339164,34.99 L135.089164,34.21 C134.689164,34.55 134.069164,34.83 133.349164,34.83 C132.319164,34.83 131.649164,34.22 131.589164,33.19 L135.529164,33.19 L135.529164,33.06 Z M131.629164,32.51 C131.789164,31.73 132.399164,31.2 133.139164,31.2 C133.899164,31.2 134.449164,31.74 134.549164,32.51 L131.629164,32.51 Z" id="e"></path>
            <path d="M141.137251,35.66 C142.567251,35.66 143.537251,34.9 143.537251,33.56 C143.537251,32.27 142.637251,31.95 141.537251,31.54 C140.647251,31.21 140.047251,30.95 140.047251,30.26 C140.047251,29.65 140.557251,29.27 141.347251,29.27 C141.927251,29.27 142.577251,29.47 143.047251,29.74 L143.317251,28.83 C142.837251,28.56 142.097251,28.35 141.367251,28.35 C139.977251,28.35 139.027251,29.11 139.027251,30.35 C139.027251,31.54 139.907251,32 140.997251,32.4 C141.967251,32.76 142.517251,32.97 142.517251,33.66 C142.517251,34.36 142.027251,34.74 141.207251,34.74 C140.437251,34.74 139.667251,34.42 139.137251,33.99 L138.857251,34.95 C139.467251,35.4 140.297251,35.66 141.137251,35.66 Z" id="S"></path>
            <path d="M146.571294,35.66 C147.101294,35.66 147.561294,35.49 147.831294,35.29 L147.671294,34.5 C147.461294,34.63 147.141294,34.79 146.781294,34.79 C146.361294,34.79 146.121294,34.54 146.121294,34.04 L146.121294,31.33 L147.541294,31.33 L147.541294,30.52 L146.121294,30.52 L146.121294,28.94 L145.171294,29.07 L145.171294,30.52 L144.441294,30.52 L144.441294,31.33 L145.171294,31.33 L145.171294,34.16 C145.171294,35.17 145.721294,35.66 146.571294,35.66 Z" id="t"></path>
            <path d="M150.705337,30.42 C149.845337,30.42 149.135337,30.71 148.695337,31.01 L148.935337,31.8 C149.265337,31.56 149.825337,31.23 150.545337,31.23 C151.405337,31.23 151.835337,31.7 151.835337,32.43 L151.835337,32.54 C149.365337,32.56 148.355337,33.01 148.355337,34.17 C148.355337,35.09 148.995337,35.66 150.035337,35.66 C150.885337,35.66 151.515337,35.29 151.835337,34.78 L151.835337,35.56 L152.785337,35.56 L152.785337,32.41 C152.785337,31.05 151.985337,30.42 150.705337,30.42 Z M150.325337,34.93 C149.685337,34.93 149.345337,34.61 149.345337,34.12 C149.345337,33.47 149.945337,33.19 151.835337,33.17 L151.835337,33.6 C151.835337,34.54 151.015337,34.93 150.325337,34.93 Z" id="a"></path>
            <path d="M158.23938,28.04 L158.23938,31.42 C157.87938,30.75 157.18938,30.42 156.40938,30.42 C154.99938,30.42 153.97938,31.51 153.97938,33.05 C153.97938,34.57 154.98938,35.66 156.40938,35.66 C157.17938,35.66 157.83938,35.36 158.23938,34.64 L158.23938,35.57 L159.18938,35.57 L159.18938,28.04 L158.23938,28.04 Z M156.57938,34.78 C155.60938,34.78 154.95938,34.08 154.95938,33.05 C154.95938,32 155.62938,31.3 156.58938,31.3 C157.55938,31.3 158.28938,32.04 158.28938,33.04 C158.28938,34.03 157.55938,34.78 156.57938,34.78 Z" id="d"></path>
            <path d="M162.423423,35.66 C162.953423,35.66 163.413423,35.49 163.683423,35.29 L163.523423,34.5 C163.313423,34.63 162.993423,34.79 162.633423,34.79 C162.213423,34.79 161.973423,34.54 161.973423,34.04 L161.973423,31.33 L163.393423,31.33 L163.393423,30.52 L161.973423,30.52 L161.973423,28.94 L161.023423,29.07 L161.023423,30.52 L160.293423,30.52 L160.293423,31.33 L161.023423,31.33 L161.023423,34.16 C161.023423,35.17 161.573423,35.66 162.423423,35.66 Z" id="t"></path>
            <path d="M169.001509,30.42 C168.141509,30.42 167.431509,30.71 166.991509,31.01 L167.231509,31.8 C167.561509,31.56 168.121509,31.23 168.841509,31.23 C169.701509,31.23 170.131509,31.7 170.131509,32.43 L170.131509,32.54 C167.661509,32.56 166.651509,33.01 166.651509,34.17 C166.651509,35.09 167.291509,35.66 168.331509,35.66 C169.181509,35.66 169.811509,35.29 170.131509,34.78 L170.131509,35.56 L171.081509,35.56 L171.081509,32.41 C171.081509,31.05 170.281509,30.42 169.001509,30.42 Z M168.621509,34.93 C167.981509,34.93 167.641509,34.61 167.641509,34.12 C167.641509,33.47 168.241509,33.19 170.131509,33.17 L170.131509,33.6 C170.131509,34.54 169.311509,34.93 168.621509,34.93 Z" id="a"></path>
            <path d="M176.215552,30.52 L176.215552,33.31 C176.215552,34.2 175.615552,34.81 174.745552,34.81 C173.955552,34.81 173.555552,34.32 173.555552,33.34 L173.555552,30.52 L172.605552,30.52 L172.605552,33.66 C172.605552,34.99 173.275552,35.66 174.395552,35.66 C175.225552,35.66 175.875552,35.3 176.215552,34.68 L176.215552,35.56 L177.165552,35.56 L177.165552,30.52 L176.215552,30.52 Z" id="u"></path>
            <path d="M180.309596,35.66 C181.539596,35.66 182.249596,35.02 182.249596,34.08 C182.249596,33.17 181.569596,32.83 180.639596,32.58 C180.049596,32.42 179.579596,32.27 179.579596,31.81 C179.579596,31.4 179.949596,31.17 180.479596,31.17 C181.029596,31.17 181.549596,31.39 181.889596,31.62 L182.079596,30.84 C181.699596,30.61 181.129596,30.42 180.499596,30.42 C179.389596,30.42 178.639596,30.98 178.639596,31.93 C178.639596,32.86 179.369596,33.15 180.149596,33.39 C180.899596,33.62 181.319596,33.76 181.319596,34.22 C181.319596,34.66 180.949596,34.91 180.359596,34.91 C179.739596,34.91 179.119596,34.66 178.729596,34.34 L178.499596,35.13 C178.889596,35.45 179.619596,35.66 180.309596,35.66 Z" id="s"></path>
            <path d="M190.507682,33.06 C190.507682,31.5 189.537682,30.42 188.117682,30.42 C186.687682,30.42 185.607682,31.52 185.607682,33.05 C185.607682,34.52 186.627682,35.66 188.247682,35.66 C189.137682,35.66 189.867682,35.36 190.317682,34.99 L190.067682,34.21 C189.667682,34.55 189.047682,34.83 188.327682,34.83 C187.297682,34.83 186.627682,34.22 186.567682,33.19 L190.507682,33.19 L190.507682,33.06 Z M186.607682,32.51 C186.767682,31.73 187.377682,31.2 188.117682,31.2 C188.877682,31.2 189.427682,31.74 189.527682,32.51 L186.607682,32.51 Z" id="e"></path>
            <path d="M192.191725,29.54 C192.551725,29.54 192.821725,29.26 192.821725,28.9 C192.821725,28.54 192.551725,28.26 192.191725,28.26 C191.831725,28.26 191.551725,28.54 191.551725,28.9 C191.551725,29.26 191.831725,29.54 192.191725,29.54 Z M191.701725,35.56 L192.651725,35.56 L192.651725,30.52 L191.701725,30.52 L191.701725,35.56 Z" id="i"></path>
            <path d="M197.035768,30.42 C196.225768,30.42 195.575768,30.78 195.235768,31.4 L195.235768,30.52 L194.285768,30.52 L194.285768,35.56 L195.235768,35.56 L195.235768,32.78 C195.235768,31.88 195.825768,31.28 196.695768,31.28 C197.485768,31.28 197.885768,31.77 197.885768,32.75 L197.885768,35.56 L198.835768,35.56 L198.835768,32.43 C198.835768,31.1 198.185768,30.42 197.035768,30.42 Z" id="n"></path>
            <path d="M204.939811,33.06 C204.939811,31.5 203.969811,30.42 202.549811,30.42 C201.119811,30.42 200.039811,31.52 200.039811,33.05 C200.039811,34.52 201.059811,35.66 202.679811,35.66 C203.569811,35.66 204.299811,35.36 204.749811,34.99 L204.499811,34.21 C204.099811,34.55 203.479811,34.83 202.759811,34.83 C201.729811,34.83 201.059811,34.22 200.999811,33.19 L204.939811,33.19 L204.939811,33.06 Z M201.039811,32.51 C201.199811,31.73 201.809811,31.2 202.549811,31.2 C203.309811,31.2 203.859811,31.74 203.959811,32.51 L201.039811,32.51 Z" id="e"></path>
            <path d="M208.343854,30.41 C207.813854,30.41 207.363854,30.67 207.073854,31.38 L207.073854,30.52 L206.133854,30.52 L206.133854,35.56 L207.073854,35.56 L207.073854,33.01 C207.073854,32 207.453854,31.34 208.263854,31.34 C208.453854,31.34 208.643854,31.39 208.783854,31.45 L208.973854,30.53 C208.803854,30.46 208.573854,30.41 208.343854,30.41 Z" id="r"></path>
            <path d="M215.001941,30.42 C214.191941,30.42 213.541941,30.78 213.201941,31.4 L213.201941,30.52 L212.251941,30.52 L212.251941,35.56 L213.201941,35.56 L213.201941,32.78 C213.201941,31.88 213.791941,31.28 214.661941,31.28 C215.451941,31.28 215.851941,31.77 215.851941,32.75 L215.851941,35.56 L216.801941,35.56 L216.801941,32.43 C216.801941,31.1 216.151941,30.42 215.001941,30.42 Z" id="n"></path>
            <path d="M222.905984,33.06 C222.905984,31.5 221.935984,30.42 220.515984,30.42 C219.085984,30.42 218.005984,31.52 218.005984,33.05 C218.005984,34.52 219.025984,35.66 220.645984,35.66 C221.535984,35.66 222.265984,35.36 222.715984,34.99 L222.465984,34.21 C222.065984,34.55 221.445984,34.83 220.725984,34.83 C219.695984,34.83 219.025984,34.22 218.965984,33.19 L222.905984,33.19 L222.905984,33.06 Z M219.005984,32.51 C219.165984,31.73 219.775984,31.2 220.515984,31.2 C221.275984,31.2 221.825984,31.74 221.925984,32.51 L219.005984,32.51 Z" id="e"></path>
            <path d="M227.650027,30.52 L227.650027,33.31 C227.650027,34.2 227.050027,34.81 226.180027,34.81 C225.390027,34.81 224.990027,34.32 224.990027,33.34 L224.990027,30.52 L224.040027,30.52 L224.040027,33.66 C224.040027,34.99 224.710027,35.66 225.830027,35.66 C226.660027,35.66 227.310027,35.3 227.650027,34.68 L227.650027,35.56 L228.600027,35.56 L228.600027,30.52 L227.650027,30.52 Z" id="u"></path>
            <path d="M234.74407,33.06 C234.74407,31.5 233.77407,30.42 232.35407,30.42 C230.92407,30.42 229.84407,31.52 229.84407,33.05 C229.84407,34.52 230.86407,35.66 232.48407,35.66 C233.37407,35.66 234.10407,35.36 234.55407,34.99 L234.30407,34.21 C233.90407,34.55 233.28407,34.83 232.56407,34.83 C231.53407,34.83 230.86407,34.22 230.80407,33.19 L234.74407,33.19 L234.74407,33.06 Z M230.84407,32.51 C231.00407,31.73 231.61407,31.2 232.35407,31.2 C233.11407,31.2 233.66407,31.74 233.76407,32.51 L230.84407,32.51 Z" id="e"></path>
            <path d="M238.688113,30.42 C237.878113,30.42 237.228113,30.78 236.888113,31.4 L236.888113,30.52 L235.938113,30.52 L235.938113,35.56 L236.888113,35.56 L236.888113,32.78 C236.888113,31.88 237.478113,31.28 238.348113,31.28 C239.138113,31.28 239.538113,31.77 239.538113,32.75 L239.538113,35.56 L240.488113,35.56 L240.488113,32.43 C240.488113,31.1 239.838113,30.42 238.688113,30.42 Z" id="n"></path>
            <path d="M246.776199,28.46 L244.596199,28.46 L244.596199,35.56 L245.626199,35.56 L245.626199,32.98 L246.776199,32.98 C248.346199,32.98 249.186199,31.87 249.186199,30.68 C249.186199,29.38 248.346199,28.46 246.776199,28.46 Z M246.606199,32.12 L245.626199,32.12 L245.626199,29.33 L246.606199,29.33 C247.466199,29.33 248.126199,29.68 248.126199,30.68 C248.126199,31.6 247.466199,32.12 246.606199,32.12 Z" id="P"></path>
            <path d="M254.660242,33.06 C254.660242,31.5 253.690242,30.42 252.270242,30.42 C250.840242,30.42 249.760242,31.52 249.760242,33.05 C249.760242,34.52 250.780242,35.66 252.400242,35.66 C253.290242,35.66 254.020242,35.36 254.470242,34.99 L254.220242,34.21 C253.820242,34.55 253.200242,34.83 252.480242,34.83 C251.450242,34.83 250.780242,34.22 250.720242,33.19 L254.660242,33.19 L254.660242,33.06 Z M250.760242,32.51 C250.920242,31.73 251.530242,31.2 252.270242,31.2 C253.030242,31.2 253.580242,31.74 253.680242,32.51 L250.760242,32.51 Z" id="e"></path>
            <path d="M258.064286,30.41 C257.534286,30.41 257.084286,30.67 256.794286,31.38 L256.794286,30.52 L255.854286,30.52 L255.854286,35.56 L256.794286,35.56 L256.794286,33.01 C256.794286,32 257.174286,31.34 257.984286,31.34 C258.174286,31.34 258.364286,31.39 258.504286,31.45 L258.694286,30.53 C258.524286,30.46 258.294286,30.41 258.064286,30.41 Z" id="r"></path>
            <path d="M261.078329,35.66 C262.308329,35.66 263.018329,35.02 263.018329,34.08 C263.018329,33.17 262.338329,32.83 261.408329,32.58 C260.818329,32.42 260.348329,32.27 260.348329,31.81 C260.348329,31.4 260.718329,31.17 261.248329,31.17 C261.798329,31.17 262.318329,31.39 262.658329,31.62 L262.848329,30.84 C262.468329,30.61 261.898329,30.42 261.268329,30.42 C260.158329,30.42 259.408329,30.98 259.408329,31.93 C259.408329,32.86 260.138329,33.15 260.918329,33.39 C261.668329,33.62 262.088329,33.76 262.088329,34.22 C262.088329,34.66 261.718329,34.91 261.128329,34.91 C260.508329,34.91 259.888329,34.66 259.498329,34.34 L259.268329,35.13 C259.658329,35.45 260.388329,35.66 261.078329,35.66 Z" id="s"></path>
            <path d="M267.152372,30.42 C266.422372,30.42 265.712372,30.76 265.312372,31.41 L265.312372,30.52 L264.362372,30.52 L264.362372,37.66 L265.312372,37.66 L265.312372,34.66 C265.692372,35.33 266.412372,35.66 267.102372,35.66 C268.562372,35.66 269.562372,34.55 269.562372,33.04 C269.562372,31.52 268.562372,30.42 267.152372,30.42 Z M266.962372,34.78 C266.002372,34.78 265.262372,34.04 265.262372,33.04 C265.262372,32.01 266.022372,31.3 266.972372,31.3 C267.962372,31.3 268.592372,32.04 268.592372,33.04 C268.592372,34.07 267.922372,34.78 266.962372,34.78 Z" id="p"></path>
            <path d="M275.326415,33.06 C275.326415,31.5 274.356415,30.42 272.936415,30.42 C271.506415,30.42 270.426415,31.52 270.426415,33.05 C270.426415,34.52 271.446415,35.66 273.066415,35.66 C273.956415,35.66 274.686415,35.36 275.136415,34.99 L274.886415,34.21 C274.486415,34.55 273.866415,34.83 273.146415,34.83 C272.116415,34.83 271.446415,34.22 271.386415,33.19 L275.326415,33.19 L275.326415,33.06 Z M271.426415,32.51 C271.586415,31.73 272.196415,31.2 272.936415,31.2 C273.696415,31.2 274.246415,31.74 274.346415,32.51 L271.426415,32.51 Z" id="e"></path>
            <polygon id="k" points="276.520458 35.56 277.470458 35.56 277.470458 32.96 279.710458 35.56 280.950458 35.56 278.600458 32.9 280.860458 30.52 279.660458 30.52 277.470458 32.9 277.470458 28.04 276.520458 28.04"></polygon>
            <path d="M283.414501,35.66 C283.944501,35.66 284.404501,35.49 284.674501,35.29 L284.514501,34.5 C284.304501,34.63 283.984501,34.79 283.624501,34.79 C283.204501,34.79 282.964501,34.54 282.964501,34.04 L282.964501,31.33 L284.384501,31.33 L284.384501,30.52 L282.964501,30.52 L282.964501,28.94 L282.014501,29.07 L282.014501,30.52 L281.284501,30.52 L281.284501,31.33 L282.014501,31.33 L282.014501,34.16 C282.014501,35.17 282.564501,35.66 283.414501,35.66 Z" id="t"></path>
            <path d="M286.018544,29.54 C286.378544,29.54 286.648544,29.26 286.648544,28.9 C286.648544,28.54 286.378544,28.26 286.018544,28.26 C285.658544,28.26 285.378544,28.54 285.378544,28.9 C285.378544,29.26 285.658544,29.54 286.018544,29.54 Z M285.528544,35.56 L286.478544,35.56 L286.478544,30.52 L285.528544,30.52 L285.528544,35.56 Z" id="i"></path>
            <polygon id="v" points="291.282587 30.52 289.812587 34.46 288.352587 30.52 287.302587 30.52 289.312587 35.56 290.282587 35.56 292.282587 30.52"></polygon>
            <path d="M297.556631,33.06 C297.556631,31.5 296.586631,30.42 295.166631,30.42 C293.736631,30.42 292.656631,31.52 292.656631,33.05 C292.656631,34.52 293.676631,35.66 295.296631,35.66 C296.186631,35.66 296.916631,35.36 297.366631,34.99 L297.116631,34.21 C296.716631,34.55 296.096631,34.83 295.376631,34.83 C294.346631,34.83 293.676631,34.22 293.616631,33.19 L297.556631,33.19 L297.556631,33.06 Z M293.656631,32.51 C293.816631,31.73 294.426631,31.2 295.166631,31.2 C295.926631,31.2 296.476631,31.74 296.576631,32.51 L293.656631,32.51 Z" id="e"></path>
            <path d="M299.390674,35.69 C299.740674,35.69 300.030674,35.4 300.030674,35.05 C300.030674,34.69 299.740674,34.41 299.390674,34.41 C299.030674,34.41 298.750674,34.69 298.750674,35.05 C298.750674,35.4 299.030674,35.69 299.390674,35.69 Z" id="."></path>
        </g>
    </g>
</svg>