<?xml version="1.0" encoding="UTF-8"?>
<svg width="302px" height="38px" viewBox="0 0 302 38" version="1.1" xmlns="http://www.w3.org/2000/svg" xmlns:xlink="http://www.w3.org/1999/xlink">
    <title>textRight</title>
    <g id="Page-1" stroke="none" stroke-width="1" fill="none" fill-rule="evenodd">
        <g id="textRight" transform="translate(0.000000, 0.000000)" fill="#282830" fill-rule="nonzero">
            <polygon id="F" points="0.77 7.56 1.8 7.56 1.8 4.49 4.66 4.49 4.66 3.58 1.8 3.58 1.8 1.37 4.8 1.37 4.8 0.46 0.77 0.46"></polygon>
            <path d="M8.12404312,2.41 C7.59404312,2.41 7.14404312,2.67 6.85404312,3.38 L6.85404312,2.52 L5.91404312,2.52 L5.91404312,7.56 L6.85404312,7.56 L6.85404312,5.01 C6.85404312,4 7.23404312,3.34 8.04404312,3.34 C8.23404312,3.34 8.42404312,3.39 8.56404312,3.45 L8.75404312,2.53 C8.58404312,2.46 8.35404312,2.41 8.12404312,2.41 Z" id="r"></path>
            <path d="M13.9780862,5.06 C13.9780862,3.5 13.0080862,2.42 11.5880862,2.42 C10.1580862,2.42 9.07808625,3.52 9.07808625,5.05 C9.07808625,6.52 10.0980862,7.66 11.7180862,7.66 C12.6080862,7.66 13.3380862,7.36 13.7880862,6.99 L13.5380862,6.21 C13.1380862,6.55 12.5180862,6.83 11.7980862,6.83 C10.7680862,6.83 10.0980862,6.22 10.0380862,5.19 L13.9780862,5.19 L13.9780862,5.06 Z M10.0780862,4.51 C10.2380862,3.73 10.8480862,3.2 11.5880862,3.2 C12.3480862,3.2 12.8980862,3.74 12.9980862,4.51 L10.0780862,4.51 Z" id="e"></path>
            <path d="M18.7221294,2.52 L18.7221294,5.31 C18.7221294,6.2 18.1221294,6.81 17.2521294,6.81 C16.4621294,6.81 16.0621294,6.32 16.0621294,5.34 L16.0621294,2.52 L15.1121294,2.52 L15.1121294,5.66 C15.1121294,6.99 15.7821294,7.66 16.9021294,7.66 C17.7321294,7.66 18.3821294,7.3 18.7221294,6.68 L18.7221294,7.56 L19.6721294,7.56 L19.6721294,2.52 L18.7221294,2.52 Z" id="u"></path>
            <path d="M27.5802156,0.04 L27.5802156,3.42 C27.2202156,2.75 26.5302156,2.42 25.7502156,2.42 C24.3402156,2.42 23.3202156,3.51 23.3202156,5.05 C23.3202156,6.57 24.3302156,7.66 25.7502156,7.66 C26.5202156,7.66 27.1802156,7.36 27.5802156,6.64 L27.5802156,7.57 L28.5302156,7.57 L28.5302156,0.04 L27.5802156,0.04 Z M25.9202156,6.78 C24.9502156,6.78 24.3002156,6.08 24.3002156,5.05 C24.3002156,4 24.9702156,3.3 25.9302156,3.3 C26.9002156,3.3 27.6302156,4.04 27.6302156,5.04 C27.6302156,6.03 26.9002156,6.78 25.9202156,6.78 Z" id="d"></path>
            <path d="M30.6342587,1.54 C30.9942587,1.54 31.2642587,1.26 31.2642587,0.9 C31.2642587,0.54 30.9942587,0.26 30.6342587,0.26 C30.2742587,0.26 29.9942587,0.54 29.9942587,0.9 C29.9942587,1.26 30.2742587,1.54 30.6342587,1.54 Z M30.1442587,7.56 L31.0942587,7.56 L31.0942587,2.52 L30.1442587,2.52 L30.1442587,7.56 Z" id="i"></path>
            <path d="M34.8783019,7.66 C35.6283019,7.66 36.2683019,7.42 36.7083019,7.1 L36.4783019,6.29 C36.0383019,6.59 35.4883019,6.79 34.9583019,6.79 C33.9883019,6.79 33.3283019,6.08 33.3283019,5.04 C33.3283019,4 33.9983019,3.3 34.9883019,3.3 C35.5283019,3.3 35.9983019,3.5 36.3483019,3.76 L36.6483019,2.93 C36.2283019,2.65 35.6583019,2.42 34.9383019,2.42 C33.4183019,2.42 32.3383019,3.49 32.3383019,5.06 C32.3383019,6.61 33.3983019,7.66 34.8783019,7.66 Z" id="c"></path>
            <path d="M40.572345,2.41 C39.752345,2.41 39.112345,2.77 38.782345,3.38 L38.782345,0.04 L37.832345,0.04 L37.832345,7.56 L38.782345,7.56 L38.782345,4.76 C38.782345,3.87 39.392345,3.27 40.242345,3.27 C41.032345,3.27 41.432345,3.76 41.432345,4.74 L41.432345,7.56 L42.382345,7.56 L42.382345,4.42 C42.382345,3.08 41.722345,2.41 40.572345,2.41 Z" id="h"></path>
            <path d="M48.4404312,2.42 C47.5804312,2.42 46.8704312,2.71 46.4304312,3.01 L46.6704312,3.8 C47.0004312,3.56 47.5604312,3.23 48.2804312,3.23 C49.1404312,3.23 49.5704312,3.7 49.5704312,4.43 L49.5704312,4.54 C47.1004312,4.56 46.0904312,5.01 46.0904312,6.17 C46.0904312,7.09 46.7304312,7.66 47.7704312,7.66 C48.6204312,7.66 49.2504312,7.29 49.5704312,6.78 L49.5704312,7.56 L50.5204312,7.56 L50.5204312,4.41 C50.5204312,3.05 49.7204312,2.42 48.4404312,2.42 Z M48.0604312,6.93 C47.4204312,6.93 47.0804312,6.61 47.0804312,6.12 C47.0804312,5.47 47.6804312,5.19 49.5704312,5.17 L49.5704312,5.6 C49.5704312,6.54 48.7504312,6.93 48.0604312,6.93 Z" id="a"></path>
            <path d="M55.6544744,2.52 L55.6544744,5.31 C55.6544744,6.2 55.0544744,6.81 54.1844744,6.81 C53.3944744,6.81 52.9944744,6.32 52.9944744,5.34 L52.9944744,2.52 L52.0444744,2.52 L52.0444744,5.66 C52.0444744,6.99 52.7144744,7.66 53.8344744,7.66 C54.6644744,7.66 55.3144744,7.3 55.6544744,6.68 L55.6544744,7.56 L56.6044744,7.56 L56.6044744,2.52 L55.6544744,2.52 Z" id="u"></path>
            <path d="M58.5185175,7.56 L59.4685175,7.56 L59.4685175,3.33 L60.6685175,3.33 L60.6685175,2.52 L59.4685175,2.52 L59.4685175,1.78 C59.4685175,1.1 59.7285175,0.86 60.1485175,0.86 C60.3985175,0.86 60.6485175,0.95 60.8185175,1.05 L61.0085175,0.23 C60.7385175,0.1 60.3985175,0 59.9985175,0 C59.1185175,0 58.5185175,0.52 58.5185175,1.73 L58.5185175,2.52 L57.6485175,2.52 L57.6485175,3.33 L58.5185175,3.33 L58.5185175,7.56 Z" id="f"></path>
            <path d="M64.5466037,1.54 C64.9066037,1.54 65.1766037,1.26 65.1766037,0.9 C65.1766037,0.54 64.9066037,0.26 64.5466037,0.26 C64.1866037,0.26 63.9066037,0.54 63.9066037,0.9 C63.9066037,1.26 64.1866037,1.54 64.5466037,1.54 Z M64.0566037,7.56 L65.0066037,7.56 L65.0066037,2.52 L64.0566037,2.52 L64.0566037,7.56 Z" id="i"></path>
            <path d="M69.3906469,2.42 C68.5806469,2.42 67.9306469,2.78 67.5906469,3.4 L67.5906469,2.52 L66.6406469,2.52 L66.6406469,7.56 L67.5906469,7.56 L67.5906469,4.78 C67.5906469,3.88 68.1806469,3.28 69.0506469,3.28 C69.8406469,3.28 70.2406469,3.77 70.2406469,4.75 L70.2406469,7.56 L71.1906469,7.56 L71.1906469,4.43 C71.1906469,3.1 70.5406469,2.42 69.3906469,2.42 Z" id="n"></path>
            <path d="M74.36469,7.66 C74.89469,7.66 75.35469,7.49 75.62469,7.29 L75.46469,6.5 C75.25469,6.63 74.93469,6.79 74.57469,6.79 C74.15469,6.79 73.91469,6.54 73.91469,6.04 L73.91469,3.33 L75.33469,3.33 L75.33469,2.52 L73.91469,2.52 L73.91469,0.94 L72.96469,1.07 L72.96469,2.52 L72.23469,2.52 L72.23469,3.33 L72.96469,3.33 L72.96469,6.16 C72.96469,7.17 73.51469,7.66 74.36469,7.66 Z" id="t"></path>
            <path d="M80.0287331,2.52 L80.0287331,5.31 C80.0287331,6.2 79.4287331,6.81 78.5587331,6.81 C77.7687331,6.81 77.3687331,6.32 77.3687331,5.34 L77.3687331,2.52 L76.4187331,2.52 L76.4187331,5.66 C76.4187331,6.99 77.0887331,7.66 78.2087331,7.66 C79.0387331,7.66 79.6887331,7.3 80.0287331,6.68 L80.0287331,7.56 L80.9787331,7.56 L80.9787331,2.52 L80.0287331,2.52 Z" id="u"></path>
            <path d="M83.1027762,1.54 C83.4627762,1.54 83.7327762,1.26 83.7327762,0.9 C83.7327762,0.54 83.4627762,0.26 83.1027762,0.26 C82.7427762,0.26 82.4627762,0.54 82.4627762,0.9 C82.4627762,1.26 82.7427762,1.54 83.1027762,1.54 Z M82.6127762,7.56 L83.5627762,7.56 L83.5627762,2.52 L82.6127762,2.52 L82.6127762,7.56 Z" id="i"></path>
            <path d="M86.8168194,7.66 C87.3468194,7.66 87.8068194,7.49 88.0768194,7.29 L87.9168194,6.5 C87.7068194,6.63 87.3868194,6.79 87.0268194,6.79 C86.6068194,6.79 86.3668194,6.54 86.3668194,6.04 L86.3668194,3.33 L87.7868194,3.33 L87.7868194,2.52 L86.3668194,2.52 L86.3668194,0.94 L85.4168194,1.07 L85.4168194,2.52 L84.6868194,2.52 L84.6868194,3.33 L85.4168194,3.33 L85.4168194,6.16 C85.4168194,7.17 85.9668194,7.66 86.8168194,7.66 Z" id="t"></path>
            <path d="M89.4208625,1.54 C89.7808625,1.54 90.0508625,1.26 90.0508625,0.9 C90.0508625,0.54 89.7808625,0.26 89.4208625,0.26 C89.0608625,0.26 88.7808625,0.54 88.7808625,0.9 C88.7808625,1.26 89.0608625,1.54 89.4208625,1.54 Z M88.9308625,7.56 L89.8808625,7.56 L89.8808625,2.52 L88.9308625,2.52 L88.9308625,7.56 Z" id="i"></path>
            <polygon id="v" points="94.6849056 2.52 93.2149056 6.46 91.7549056 2.52 90.7049056 2.52 92.7149056 7.56 93.6849056 7.56 95.6849056 2.52"></polygon>
            <polygon id="z" points="98.5029919 7.56 102.592992 7.56 102.592992 6.75 99.9229919 6.75 102.542992 2.96 102.542992 2.52 98.6129919 2.52 98.6129919 3.33 101.172992 3.33 98.5029919 7.14"></polygon>
            <path d="M107.257035,2.52 L107.257035,5.31 C107.257035,6.2 106.657035,6.81 105.787035,6.81 C104.997035,6.81 104.597035,6.32 104.597035,5.34 L104.597035,2.52 L103.647035,2.52 L103.647035,5.66 C103.647035,6.99 104.317035,7.66 105.437035,7.66 C106.267035,7.66 106.917035,7.3 107.257035,6.68 L107.257035,7.56 L108.207035,7.56 L108.207035,2.52 L107.257035,2.52 Z" id="u"></path>
            <path d="M115.035121,2.42 C114.305121,2.42 113.595121,2.76 113.195121,3.41 L113.195121,0.04 L112.245121,0.04 L112.245121,7.56 L113.195121,7.56 L113.195121,6.66 C113.575121,7.33 114.295121,7.66 114.985121,7.66 C116.445121,7.66 117.445121,6.55 117.445121,5.04 C117.445121,3.52 116.445121,2.42 115.035121,2.42 Z M114.845121,6.78 C113.885121,6.78 113.145121,6.04 113.145121,5.04 C113.145121,4.01 113.905121,3.3 114.855121,3.3 C115.845121,3.3 116.475121,4.04 116.475121,5.04 C116.475121,6.07 115.805121,6.78 114.845121,6.78 Z" id="b"></path>
            <path d="M123.209164,5.06 C123.209164,3.5 122.239164,2.42 120.819164,2.42 C119.389164,2.42 118.309164,3.52 118.309164,5.05 C118.309164,6.52 119.329164,7.66 120.949164,7.66 C121.839164,7.66 122.569164,7.36 123.019164,6.99 L122.769164,6.21 C122.369164,6.55 121.749164,6.83 121.029164,6.83 C119.999164,6.83 119.329164,6.22 119.269164,5.19 L123.209164,5.19 L123.209164,5.06 Z M119.309164,4.51 C119.469164,3.73 120.079164,3.2 120.819164,3.2 C121.579164,3.2 122.129164,3.74 122.229164,4.51 L119.309164,4.51 Z" id="e"></path>
            <path d="M128.273207,0.04 L128.273207,3.42 C127.913207,2.75 127.223207,2.42 126.443207,2.42 C125.033207,2.42 124.013207,3.51 124.013207,5.05 C124.013207,6.57 125.023207,7.66 126.443207,7.66 C127.213207,7.66 127.873207,7.36 128.273207,6.64 L128.273207,7.57 L129.223207,7.57 L129.223207,0.04 L128.273207,0.04 Z M126.613207,6.78 C125.643207,6.78 124.993207,6.08 124.993207,5.05 C124.993207,4 125.663207,3.3 126.623207,3.3 C127.593207,3.3 128.323207,4.04 128.323207,5.04 C128.323207,6.03 127.593207,6.78 126.613207,6.78 Z" id="d"></path>
            <path d="M131.327251,1.54 C131.687251,1.54 131.957251,1.26 131.957251,0.9 C131.957251,0.54 131.687251,0.26 131.327251,0.26 C130.967251,0.26 130.687251,0.54 130.687251,0.9 C130.687251,1.26 130.967251,1.54 131.327251,1.54 Z M130.837251,7.56 L131.787251,7.56 L131.787251,2.52 L130.837251,2.52 L130.837251,7.56 Z" id="i"></path>
            <path d="M137.931294,5.06 C137.931294,3.5 136.961294,2.42 135.541294,2.42 C134.111294,2.42 133.031294,3.52 133.031294,5.05 C133.031294,6.52 134.051294,7.66 135.671294,7.66 C136.561294,7.66 137.291294,7.36 137.741294,6.99 L137.491294,6.21 C137.091294,6.55 136.471294,6.83 135.751294,6.83 C134.721294,6.83 134.051294,6.22 133.991294,5.19 L137.931294,5.19 L137.931294,5.06 Z M134.031294,4.51 C134.191294,3.73 134.801294,3.2 135.541294,3.2 C136.301294,3.2 136.851294,3.74 136.951294,4.51 L134.031294,4.51 Z" id="e"></path>
            <path d="M141.875337,2.42 C141.065337,2.42 140.415337,2.78 140.075337,3.4 L140.075337,2.52 L139.125337,2.52 L139.125337,7.56 L140.075337,7.56 L140.075337,4.78 C140.075337,3.88 140.665337,3.28 141.535337,3.28 C142.325337,3.28 142.725337,3.77 142.725337,4.75 L142.725337,7.56 L143.675337,7.56 L143.675337,4.43 C143.675337,3.1 143.025337,2.42 141.875337,2.42 Z" id="n"></path>
            <path d="M149.77938,5.06 C149.77938,3.5 148.80938,2.42 147.38938,2.42 C145.95938,2.42 144.87938,3.52 144.87938,5.05 C144.87938,6.52 145.89938,7.66 147.51938,7.66 C148.40938,7.66 149.13938,7.36 149.58938,6.99 L149.33938,6.21 C148.93938,6.55 148.31938,6.83 147.59938,6.83 C146.56938,6.83 145.89938,6.22 145.83938,5.19 L149.77938,5.19 L149.77938,5.06 Z M145.87938,4.51 C146.03938,3.73 146.64938,3.2 147.38938,3.2 C148.14938,3.2 148.69938,3.74 148.79938,4.51 L145.87938,4.51 Z" id="e"></path>
            <path d="M153.723423,2.42 C152.913423,2.42 152.263423,2.78 151.923423,3.4 L151.923423,2.52 L150.973423,2.52 L150.973423,7.56 L151.923423,7.56 L151.923423,4.78 C151.923423,3.88 152.513423,3.28 153.383423,3.28 C154.173423,3.28 154.573423,3.77 154.573423,4.75 L154.573423,7.56 L155.523423,7.56 L155.523423,4.43 C155.523423,3.1 154.873423,2.42 153.723423,2.42 Z" id="n"></path>
            <path d="M160.987466,0.04 L160.987466,3.42 C160.627466,2.75 159.937466,2.42 159.157466,2.42 C157.747466,2.42 156.727466,3.51 156.727466,5.05 C156.727466,6.57 157.737466,7.66 159.157466,7.66 C159.927466,7.66 160.587466,7.36 160.987466,6.64 L160.987466,7.57 L161.937466,7.57 L161.937466,0.04 L160.987466,0.04 Z M159.327466,6.78 C158.357466,6.78 157.707466,6.08 157.707466,5.05 C157.707466,4 158.377466,3.3 159.337466,3.3 C160.307466,3.3 161.037466,4.04 161.037466,5.04 C161.037466,6.03 160.307466,6.78 159.327466,6.78 Z" id="d"></path>
            <path d="M168.061509,5.06 C168.061509,3.5 167.091509,2.42 165.671509,2.42 C164.241509,2.42 163.161509,3.52 163.161509,5.05 C163.161509,6.52 164.181509,7.66 165.801509,7.66 C166.691509,7.66 167.421509,7.36 167.871509,6.99 L167.621509,6.21 C167.221509,6.55 166.601509,6.83 165.881509,6.83 C164.851509,6.83 164.181509,6.22 164.121509,5.19 L168.061509,5.19 L168.061509,5.06 Z M164.161509,4.51 C164.321509,3.73 164.931509,3.2 165.671509,3.2 C166.431509,3.2 166.981509,3.74 167.081509,4.51 L164.161509,4.51 Z" id="e"></path>
            <path d="M175.209596,2.52 L175.209596,5.31 C175.209596,6.2 174.609596,6.81 173.739596,6.81 C172.949596,6.81 172.549596,6.32 172.549596,5.34 L172.549596,2.52 L171.599596,2.52 L171.599596,5.66 C171.599596,6.99 172.269596,7.66 173.389596,7.66 C174.219596,7.66 174.869596,7.3 175.209596,6.68 L175.209596,7.56 L176.159596,7.56 L176.159596,2.52 L175.209596,2.52 Z" id="u"></path>
            <path d="M180.543639,2.42 C179.733639,2.42 179.083639,2.78 178.743639,3.4 L178.743639,2.52 L177.793639,2.52 L177.793639,7.56 L178.743639,7.56 L178.743639,4.78 C178.743639,3.88 179.333639,3.28 180.203639,3.28 C180.993639,3.28 181.393639,3.77 181.393639,4.75 L181.393639,7.56 L182.343639,7.56 L182.343639,4.43 C182.343639,3.1 181.693639,2.42 180.543639,2.42 Z" id="n"></path>
            <path d="M187.807682,0.04 L187.807682,3.42 C187.447682,2.75 186.757682,2.42 185.977682,2.42 C184.567682,2.42 183.547682,3.51 183.547682,5.05 C183.547682,6.57 184.557682,7.66 185.977682,7.66 C186.747682,7.66 187.407682,7.36 187.807682,6.64 L187.807682,7.57 L188.757682,7.57 L188.757682,0.04 L187.807682,0.04 Z M186.147682,6.78 C185.177682,6.78 184.527682,6.08 184.527682,5.05 C184.527682,4 185.197682,3.3 186.157682,3.3 C187.127682,3.3 187.857682,4.04 187.857682,5.04 C187.857682,6.03 187.127682,6.78 186.147682,6.78 Z" id="d"></path>
            <path d="M195.525768,2.42 C194.715768,2.42 194.065768,2.78 193.725768,3.4 L193.725768,2.52 L192.775768,2.52 L192.775768,7.56 L193.725768,7.56 L193.725768,4.78 C193.725768,3.88 194.315768,3.28 195.185768,3.28 C195.975768,3.28 196.375768,3.77 196.375768,4.75 L196.375768,7.56 L197.325768,7.56 L197.325768,4.43 C197.325768,3.1 196.675768,2.42 195.525768,2.42 Z" id="n"></path>
            <path d="M200.979811,2.42 C200.119811,2.42 199.409811,2.71 198.969811,3.01 L199.209811,3.8 C199.539811,3.56 200.099811,3.23 200.819811,3.23 C201.679811,3.23 202.109811,3.7 202.109811,4.43 L202.109811,4.54 C199.639811,4.56 198.629811,5.01 198.629811,6.17 C198.629811,7.09 199.269811,7.66 200.309811,7.66 C201.159811,7.66 201.789811,7.29 202.109811,6.78 L202.109811,7.56 L203.059811,7.56 L203.059811,4.41 C203.059811,3.05 202.259811,2.42 200.979811,2.42 Z M200.599811,6.93 C199.959811,6.93 199.619811,6.61 199.619811,6.12 C199.619811,5.47 200.219811,5.19 202.109811,5.17 L202.109811,5.6 C202.109811,6.54 201.289811,6.93 200.599811,6.93 Z" id="a"></path>
            <path d="M207.383854,2.41 C206.563854,2.41 205.923854,2.77 205.593854,3.38 L205.593854,0.04 L204.643854,0.04 L204.643854,7.56 L205.593854,7.56 L205.593854,4.76 C205.593854,3.87 206.203854,3.27 207.053854,3.27 C207.843854,3.27 208.243854,3.76 208.243854,4.74 L208.243854,7.56 L209.193854,7.56 L209.193854,4.42 C209.193854,3.08 208.533854,2.41 207.383854,2.41 Z" id="h"></path>
            <path d="M212.367897,7.66 C212.897897,7.66 213.357897,7.49 213.627897,7.29 L213.467897,6.5 C213.257897,6.63 212.937897,6.79 212.577897,6.79 C212.157897,6.79 211.917897,6.54 211.917897,6.04 L211.917897,3.33 L213.337897,3.33 L213.337897,2.52 L211.917897,2.52 L211.917897,0.94 L210.967897,1.07 L210.967897,2.52 L210.237897,2.52 L210.237897,3.33 L210.967897,3.33 L210.967897,6.16 C210.967897,7.17 211.517897,7.66 212.367897,7.66 Z" id="t"></path>
            <path d="M215.641941,7.66 C216.031941,7.66 216.331941,7.56 216.511941,7.47 L216.381941,6.69 C216.281941,6.74 216.091941,6.81 215.891941,6.81 C215.591941,6.81 215.411941,6.63 215.411941,6.18 L215.411941,0.04 L214.461941,0.04 L214.461941,6.33 C214.461941,7.25 214.911941,7.66 215.641941,7.66 Z" id="l"></path>
            <path d="M219.665984,7.66 C221.255984,7.66 222.355984,6.57 222.355984,5.04 C222.355984,3.52 221.255984,2.42 219.665984,2.42 C218.085984,2.42 216.985984,3.52 216.985984,5.04 C216.985984,6.57 218.085984,7.66 219.665984,7.66 Z M219.665984,6.77 C218.665984,6.77 217.965984,6.08 217.965984,5.04 C217.965984,4.01 218.655984,3.31 219.675984,3.31 C220.675984,3.31 221.375984,4.01 221.375984,5.04 C221.375984,6.06 220.685984,6.77 219.665984,6.77 Z" id="o"></path>
            <path d="M225.110027,7.66 C226.340027,7.66 227.050027,7.02 227.050027,6.08 C227.050027,5.17 226.370027,4.83 225.440027,4.58 C224.850027,4.42 224.380027,4.27 224.380027,3.81 C224.380027,3.4 224.750027,3.17 225.280027,3.17 C225.830027,3.17 226.350027,3.39 226.690027,3.62 L226.880027,2.84 C226.500027,2.61 225.930027,2.42 225.300027,2.42 C224.190027,2.42 223.440027,2.98 223.440027,3.93 C223.440027,4.86 224.170027,5.15 224.950027,5.39 C225.700027,5.62 226.120027,5.76 226.120027,6.22 C226.120027,6.66 225.750027,6.91 225.160027,6.91 C224.540027,6.91 223.920027,6.66 223.530027,6.34 L223.300027,7.13 C223.690027,7.45 224.420027,7.66 225.110027,7.66 Z" id="s"></path>
            <path d="M231.288113,1.54 C231.648113,1.54 231.918113,1.26 231.918113,0.9 C231.918113,0.54 231.648113,0.26 231.288113,0.26 C230.928113,0.26 230.648113,0.54 230.648113,0.9 C230.648113,1.26 230.928113,1.54 231.288113,1.54 Z M230.798113,7.56 L231.748113,7.56 L231.748113,2.52 L230.798113,2.52 L230.798113,7.56 Z" id="i"></path>
            <path d="M236.132156,2.42 C235.322156,2.42 234.672156,2.78 234.332156,3.4 L234.332156,2.52 L233.382156,2.52 L233.382156,7.56 L234.332156,7.56 L234.332156,4.78 C234.332156,3.88 234.922156,3.28 235.792156,3.28 C236.582156,3.28 236.982156,3.77 236.982156,4.75 L236.982156,7.56 L237.932156,7.56 L237.932156,4.43 C237.932156,3.1 237.282156,2.42 236.132156,2.42 Z" id="n"></path>
            <path d="M241.106199,7.66 C241.636199,7.66 242.096199,7.49 242.366199,7.29 L242.206199,6.5 C241.996199,6.63 241.676199,6.79 241.316199,6.79 C240.896199,6.79 240.656199,6.54 240.656199,6.04 L240.656199,3.33 L242.076199,3.33 L242.076199,2.52 L240.656199,2.52 L240.656199,0.94 L239.706199,1.07 L239.706199,2.52 L238.976199,2.52 L238.976199,3.33 L239.706199,3.33 L239.706199,6.16 C239.706199,7.17 240.256199,7.66 241.106199,7.66 Z" id="t"></path>
            <path d="M247.690242,5.06 C247.690242,3.5 246.720242,2.42 245.300242,2.42 C243.870242,2.42 242.790242,3.52 242.790242,5.05 C242.790242,6.52 243.810242,7.66 245.430242,7.66 C246.320242,7.66 247.050242,7.36 247.500242,6.99 L247.250242,6.21 C246.850242,6.55 246.230242,6.83 245.510242,6.83 C244.480242,6.83 243.810242,6.22 243.750242,5.19 L247.690242,5.19 L247.690242,5.06 Z M243.790242,4.51 C243.950242,3.73 244.560242,3.2 245.300242,3.2 C246.060242,3.2 246.610242,3.74 246.710242,4.51 L243.790242,4.51 Z" id="e"></path>
            <path d="M252.754286,2.52 L252.754286,3.41 C252.344286,2.77 251.744286,2.42 250.934286,2.42 C249.484286,2.42 248.494286,3.53 248.494286,5.01 C248.494286,6.5 249.514286,7.56 250.934286,7.56 C251.724286,7.56 252.364286,7.24 252.754286,6.57 L252.754286,7.38 C252.754286,8.39 252.084286,8.89 251.044286,8.89 C250.194286,8.89 249.584286,8.59 249.144286,8.2 L248.874286,9.1 C249.384286,9.48 250.044286,9.76 251.044286,9.76 C252.604286,9.76 253.704286,8.97 253.704286,7.39 L253.704286,2.52 L252.754286,2.52 Z M251.134286,6.71 C250.154286,6.71 249.464286,6 249.464286,5 C249.464286,4.02 250.124286,3.26 251.124286,3.26 C252.094286,3.26 252.784286,4.07 252.784286,4.98 C252.784286,5.96 252.124286,6.71 251.134286,6.71 Z" id="g"></path>
            <path d="M257.528329,2.41 C256.998329,2.41 256.548329,2.67 256.258329,3.38 L256.258329,2.52 L255.318329,2.52 L255.318329,7.56 L256.258329,7.56 L256.258329,5.01 C256.258329,4 256.638329,3.34 257.448329,3.34 C257.638329,3.34 257.828329,3.39 257.968329,3.45 L258.158329,2.53 C257.988329,2.46 257.758329,2.41 257.528329,2.41 Z" id="r"></path>
            <path d="M259.522372,1.54 C259.882372,1.54 260.152372,1.26 260.152372,0.9 C260.152372,0.54 259.882372,0.26 259.522372,0.26 C259.162372,0.26 258.882372,0.54 258.882372,0.9 C258.882372,1.26 259.162372,1.54 259.522372,1.54 Z M259.032372,7.56 L259.982372,7.56 L259.982372,2.52 L259.032372,2.52 L259.032372,7.56 Z" id="i"></path>
            <path d="M266.126415,5.06 C266.126415,3.5 265.156415,2.42 263.736415,2.42 C262.306415,2.42 261.226415,3.52 261.226415,5.05 C261.226415,6.52 262.246415,7.66 263.866415,7.66 C264.756415,7.66 265.486415,7.36 265.936415,6.99 L265.686415,6.21 C265.286415,6.55 264.666415,6.83 263.946415,6.83 C262.916415,6.83 262.246415,6.22 262.186415,5.19 L266.126415,5.19 L266.126415,5.06 Z M262.226415,4.51 C262.386415,3.73 262.996415,3.2 263.736415,3.2 C264.496415,3.2 265.046415,3.74 265.146415,4.51 L262.226415,4.51 Z" id="e"></path>
            <path d="M269.530458,2.41 C269.000458,2.41 268.550458,2.67 268.260458,3.38 L268.260458,2.52 L267.320458,2.52 L267.320458,7.56 L268.260458,7.56 L268.260458,5.01 C268.260458,4 268.640458,3.34 269.450458,3.34 C269.640458,3.34 269.830458,3.39 269.970458,3.45 L270.160458,2.53 C269.990458,2.46 269.760458,2.41 269.530458,2.41 Z" id="r"></path>
            <path d="M272.724501,7.66 C273.254501,7.66 273.714501,7.49 273.984501,7.29 L273.824501,6.5 C273.614501,6.63 273.294501,6.79 272.934501,6.79 C272.514501,6.79 272.274501,6.54 272.274501,6.04 L272.274501,3.33 L273.694501,3.33 L273.694501,2.52 L272.274501,2.52 L272.274501,0.94 L271.324501,1.07 L271.324501,2.52 L270.594501,2.52 L270.594501,3.33 L271.324501,3.33 L271.324501,6.16 C271.324501,7.17 271.874501,7.66 272.724501,7.66 Z" id="t"></path>
            <path d="M279.308544,5.06 C279.308544,3.5 278.338544,2.42 276.918544,2.42 C275.488544,2.42 274.408544,3.52 274.408544,5.05 C274.408544,6.52 275.428544,7.66 277.048544,7.66 C277.938544,7.66 278.668544,7.36 279.118544,6.99 L278.868544,6.21 C278.468544,6.55 277.848544,6.83 277.128544,6.83 C276.098544,6.83 275.428544,6.22 275.368544,5.19 L279.308544,5.19 L279.308544,5.06 Z M275.408544,4.51 C275.568544,3.73 276.178544,3.2 276.918544,3.2 C277.678544,3.2 278.228544,3.74 278.328544,4.51 L275.408544,4.51 Z" id="e"></path>
            <polygon id="F" points="0.77 21.56 1.8 21.56 1.8 18.49 4.66 18.49 4.66 17.58 1.8 17.58 1.8 15.37 4.8 15.37 4.8 14.46 0.77 14.46"></polygon>
            <path d="M9.36404312,16.52 L9.36404312,19.31 C9.36404312,20.2 8.76404312,20.81 7.89404312,20.81 C7.10404312,20.81 6.70404312,20.32 6.70404312,19.34 L6.70404312,16.52 L5.75404312,16.52 L5.75404312,19.66 C5.75404312,20.99 6.42404312,21.66 7.54404312,21.66 C8.37404312,21.66 9.02404312,21.3 9.36404312,20.68 L9.36404312,21.56 L10.3140431,21.56 L10.3140431,16.52 L9.36404312,16.52 Z" id="u"></path>
            <path d="M14.6980862,16.42 C13.8880862,16.42 13.2380862,16.78 12.8980862,17.4 L12.8980862,16.52 L11.9480862,16.52 L11.9480862,21.56 L12.8980862,21.56 L12.8980862,18.78 C12.8980862,17.88 13.4880862,17.28 14.3580862,17.28 C15.1480862,17.28 15.5480862,17.77 15.5480862,18.75 L15.5480862,21.56 L16.4980862,21.56 L16.4980862,18.43 C16.4980862,17.1 15.8480862,16.42 14.6980862,16.42 Z" id="n"></path>
            <polygon id="k" points="18.0921294 21.56 19.0421294 21.56 19.0421294 18.96 21.2821294 21.56 22.5221294 21.56 20.1721294 18.9 22.4321294 16.52 21.2321294 16.52 19.0421294 18.9 19.0421294 14.04 18.0921294 14.04"></polygon>
            <path d="M24.9861725,21.66 C25.5161725,21.66 25.9761725,21.49 26.2461725,21.29 L26.0861725,20.5 C25.8761725,20.63 25.5561725,20.79 25.1961725,20.79 C24.7761725,20.79 24.5361725,20.54 24.5361725,20.04 L24.5361725,17.33 L25.9561725,17.33 L25.9561725,16.52 L24.5361725,16.52 L24.5361725,14.94 L23.5861725,15.07 L23.5861725,16.52 L22.8561725,16.52 L22.8561725,17.33 L23.5861725,17.33 L23.5861725,20.16 C23.5861725,21.17 24.1361725,21.66 24.9861725,21.66 Z" id="t"></path>
            <path d="M27.5902156,15.54 C27.9502156,15.54 28.2202156,15.26 28.2202156,14.9 C28.2202156,14.54 27.9502156,14.26 27.5902156,14.26 C27.2302156,14.26 26.9502156,14.54 26.9502156,14.9 C26.9502156,15.26 27.2302156,15.54 27.5902156,15.54 Z M27.1002156,21.56 L28.0502156,21.56 L28.0502156,16.52 L27.1002156,16.52 L27.1002156,21.56 Z" id="i"></path>
            <path d="M31.9742587,21.66 C33.5642587,21.66 34.6642587,20.57 34.6642587,19.04 C34.6642587,17.52 33.5642587,16.42 31.9742587,16.42 C30.3942587,16.42 29.2942587,17.52 29.2942587,19.04 C29.2942587,20.57 30.3942587,21.66 31.9742587,21.66 Z M31.9742587,20.77 C30.9742587,20.77 30.2742587,20.08 30.2742587,19.04 C30.2742587,18.01 30.9642587,17.31 31.9842587,17.31 C32.9842587,17.31 33.6842587,18.01 33.6842587,19.04 C33.6842587,20.06 32.9942587,20.77 31.9742587,20.77 Z" id="o"></path>
            <path d="M38.6583019,16.42 C37.8483019,16.42 37.1983019,16.78 36.8583019,17.4 L36.8583019,16.52 L35.9083019,16.52 L35.9083019,21.56 L36.8583019,21.56 L36.8583019,18.78 C36.8583019,17.88 37.4483019,17.28 38.3183019,17.28 C39.1083019,17.28 39.5083019,17.77 39.5083019,18.75 L39.5083019,21.56 L40.4583019,21.56 L40.4583019,18.43 C40.4583019,17.1 39.8083019,16.42 38.6583019,16.42 Z" id="n"></path>
            <path d="M46.562345,19.06 C46.562345,17.5 45.592345,16.42 44.172345,16.42 C42.742345,16.42 41.662345,17.52 41.662345,19.05 C41.662345,20.52 42.682345,21.66 44.302345,21.66 C45.192345,21.66 45.922345,21.36 46.372345,20.99 L46.122345,20.21 C45.722345,20.55 45.102345,20.83 44.382345,20.83 C43.352345,20.83 42.682345,20.22 42.622345,19.19 L46.562345,19.19 L46.562345,19.06 Z M42.662345,18.51 C42.822345,17.73 43.432345,17.2 44.172345,17.2 C44.932345,17.2 45.482345,17.74 45.582345,18.51 L42.662345,18.51 Z" id="e"></path>
            <path d="M50.5063881,16.42 C49.6963881,16.42 49.0463881,16.78 48.7063881,17.4 L48.7063881,16.52 L47.7563881,16.52 L47.7563881,21.56 L48.7063881,21.56 L48.7063881,18.78 C48.7063881,17.88 49.2963881,17.28 50.1663881,17.28 C50.9563881,17.28 51.3563881,17.77 51.3563881,18.75 L51.3563881,21.56 L52.3063881,21.56 L52.3063881,18.43 C52.3063881,17.1 51.6563881,16.42 50.5063881,16.42 Z" id="n"></path>
            <polygon id="," points="53.3904312 22.98 54.2704312 22.98 55.2704312 20.5 54.2504312 20.5"></polygon>
            <polygon id="w" points="65.2285175 16.52 64.0485175 20.38 62.8085175 16.52 61.9885175 16.52 60.7585175 20.42 59.5585175 16.52 58.5085175 16.52 60.1985175 21.56 61.1785175 21.56 62.3885175 17.8 63.6085175 21.56 64.5885175 21.56 66.2285175 16.52"></polygon>
            <path d="M67.6525606,15.54 C68.0125606,15.54 68.2825606,15.26 68.2825606,14.9 C68.2825606,14.54 68.0125606,14.26 67.6525606,14.26 C67.2925606,14.26 67.0125606,14.54 67.0125606,14.9 C67.0125606,15.26 67.2925606,15.54 67.6525606,15.54 Z M67.1625606,21.56 L68.1125606,21.56 L68.1125606,16.52 L67.1625606,16.52 L67.1625606,21.56 Z" id="i"></path>
            <path d="M74.2566037,19.06 C74.2566037,17.5 73.2866037,16.42 71.8666037,16.42 C70.4366037,16.42 69.3566037,17.52 69.3566037,19.05 C69.3566037,20.52 70.3766037,21.66 71.9966037,21.66 C72.8866037,21.66 73.6166037,21.36 74.0666037,20.99 L73.8166037,20.21 C73.4166037,20.55 72.7966037,20.83 72.0766037,20.83 C71.0466037,20.83 70.3766037,20.22 70.3166037,19.19 L74.2566037,19.19 L74.2566037,19.06 Z M70.3566037,18.51 C70.5166037,17.73 71.1266037,17.2 71.8666037,17.2 C72.6266037,17.2 73.1766037,17.74 73.2766037,18.51 L70.3566037,18.51 Z" id="e"></path>
            <polygon id="T" points="82.13469 14.46 77.24469 14.46 77.24469 15.37 79.19469 15.37 79.19469 21.56 80.21469 21.56 80.21469 15.37 82.13469 15.37"></polygon>
            <path d="M84.6087331,21.66 C86.1987331,21.66 87.2987331,20.57 87.2987331,19.04 C87.2987331,17.52 86.1987331,16.42 84.6087331,16.42 C83.0287331,16.42 81.9287331,17.52 81.9287331,19.04 C81.9287331,20.57 83.0287331,21.66 84.6087331,21.66 Z M84.6087331,20.77 C83.6087331,20.77 82.9087331,20.08 82.9087331,19.04 C82.9087331,18.01 83.5987331,17.31 84.6187331,17.31 C85.6187331,17.31 86.3187331,18.01 86.3187331,19.04 C86.3187331,20.06 85.6287331,20.77 84.6087331,20.77 Z" id="o"></path>
            <path d="M91.6327762,16.52 L90.2427762,20.23 L88.6827762,16.52 L87.6427762,16.52 L89.7527762,21.33 L89.4827763,21.95 C89.1927762,22.63 88.8427763,22.82 88.3327762,22.82 C88.1727762,22.82 88.0327762,22.79 87.9227762,22.75 L87.7927763,23.59 C88.0227762,23.67 88.2727762,23.7 88.4927762,23.7 C89.3927762,23.7 89.9527762,23.22 90.3427763,22.24 L92.6327762,16.52 L91.6327762,16.52 Z" id="y"></path>
            <path d="M95.5868194,21.66 C97.1768194,21.66 98.2768194,20.57 98.2768194,19.04 C98.2768194,17.52 97.1768194,16.42 95.5868194,16.42 C94.0068194,16.42 92.9068194,17.52 92.9068194,19.04 C92.9068194,20.57 94.0068194,21.66 95.5868194,21.66 Z M95.5868194,20.77 C94.5868194,20.77 93.8868194,20.08 93.8868194,19.04 C93.8868194,18.01 94.5768194,17.31 95.5968194,17.31 C96.5968194,17.31 97.2968194,18.01 97.2968194,19.04 C97.2968194,20.06 96.6068194,20.77 95.5868194,20.77 Z" id="o"></path>
            <path d="M101.100862,21.66 C101.630862,21.66 102.090863,21.49 102.360862,21.29 L102.200862,20.5 C101.990862,20.63 101.670862,20.79 101.310862,20.79 C100.890862,20.79 100.650863,20.54 100.650863,20.04 L100.650863,17.33 L102.070863,17.33 L102.070863,16.52 L100.650863,16.52 L100.650863,14.94 L99.7008625,15.07 L99.7008625,16.52 L98.9708625,16.52 L98.9708625,17.33 L99.7008625,17.33 L99.7008625,20.16 C99.7008625,21.17 100.250862,21.66 101.100862,21.66 Z" id="t"></path>
            <path d="M105.234906,16.42 C104.374906,16.42 103.664906,16.71 103.224906,17.01 L103.464906,17.8 C103.794906,17.56 104.354906,17.23 105.074906,17.23 C105.934906,17.23 106.364906,17.7 106.364906,18.43 L106.364906,18.54 C103.894906,18.56 102.884906,19.01 102.884906,20.17 C102.884906,21.09 103.524906,21.66 104.564906,21.66 C105.414906,21.66 106.044906,21.29 106.364906,20.78 L106.364906,21.56 L107.314906,21.56 L107.314906,18.41 C107.314906,17.05 106.514906,16.42 105.234906,16.42 Z M104.854906,20.93 C104.214906,20.93 103.874906,20.61 103.874906,20.12 C103.874906,19.47 104.474906,19.19 106.364906,19.17 L106.364906,19.6 C106.364906,20.54 105.544906,20.93 104.854906,20.93 Z" id="a"></path>
            <path d="M113.312992,21.66 C114.742992,21.66 115.712992,20.9 115.712992,19.56 C115.712992,18.27 114.812992,17.95 113.712992,17.54 C112.822992,17.21 112.222992,16.95 112.222992,16.26 C112.222992,15.65 112.732992,15.27 113.522992,15.27 C114.102992,15.27 114.752992,15.47 115.222992,15.74 L115.492992,14.83 C115.012992,14.56 114.272992,14.35 113.542992,14.35 C112.152992,14.35 111.202992,15.11 111.202992,16.35 C111.202992,17.54 112.082992,18 113.172992,18.4 C114.142992,18.76 114.692992,18.97 114.692992,19.66 C114.692992,20.36 114.202992,20.74 113.382992,20.74 C112.612992,20.74 111.842992,20.42 111.312992,19.99 L111.032992,20.95 C111.642992,21.4 112.472992,21.66 113.312992,21.66 Z" id="S"></path>
            <path d="M122.857035,16.41 C122.077035,16.41 121.487035,16.79 121.167035,17.5 C120.937035,16.77 120.397035,16.41 119.597035,16.41 C118.887035,16.41 118.327035,16.75 118.017035,17.34 L118.017035,16.52 L117.067035,16.52 L117.067035,21.56 L118.017035,21.56 L118.017035,18.76 C118.017035,17.87 118.517035,17.27 119.267035,17.27 C119.997035,17.27 120.347035,17.76 120.347035,18.74 L120.347035,21.56 L121.297035,21.56 L121.297035,18.71 C121.297035,17.87 121.807035,17.27 122.537035,17.27 C123.267035,17.27 123.627035,17.76 123.627035,18.74 L123.627035,21.56 L124.577035,21.56 L124.577035,18.42 C124.577035,17.08 123.957035,16.41 122.857035,16.41 Z" id="m"></path>
            <path d="M128.221078,16.42 C127.361078,16.42 126.651078,16.71 126.211078,17.01 L126.451078,17.8 C126.781078,17.56 127.341078,17.23 128.061078,17.23 C128.921078,17.23 129.351078,17.7 129.351078,18.43 L129.351078,18.54 C126.881078,18.56 125.871078,19.01 125.871078,20.17 C125.871078,21.09 126.511078,21.66 127.551078,21.66 C128.401078,21.66 129.031078,21.29 129.351078,20.78 L129.351078,21.56 L130.301078,21.56 L130.301078,18.41 C130.301078,17.05 129.501078,16.42 128.221078,16.42 Z M127.841078,20.93 C127.201078,20.93 126.861078,20.61 126.861078,20.12 C126.861078,19.47 127.461078,19.19 129.351078,19.17 L129.351078,19.6 C129.351078,20.54 128.531078,20.93 127.841078,20.93 Z" id="a"></path>
            <path d="M134.095121,16.41 C133.565121,16.41 133.115121,16.67 132.825121,17.38 L132.825121,16.52 L131.885121,16.52 L131.885121,21.56 L132.825121,21.56 L132.825121,19.01 C132.825121,18 133.205121,17.34 134.015121,17.34 C134.205121,17.34 134.395121,17.39 134.535121,17.45 L134.725121,16.53 C134.555121,16.46 134.325121,16.41 134.095121,16.41 Z" id="r"></path>
            <path d="M137.289164,21.66 C137.819164,21.66 138.279164,21.49 138.549164,21.29 L138.389164,20.5 C138.179164,20.63 137.859164,20.79 137.499164,20.79 C137.079164,20.79 136.839164,20.54 136.839164,20.04 L136.839164,17.33 L138.259164,17.33 L138.259164,16.52 L136.839164,16.52 L136.839164,14.94 L135.889164,15.07 L135.889164,16.52 L135.159164,16.52 L135.159164,17.33 L135.889164,17.33 L135.889164,20.16 C135.889164,21.17 136.439164,21.66 137.289164,21.66 Z" id="t"></path>
            <path d="M145.207251,21.66 C146.197251,21.66 146.997251,21.39 147.707251,20.87 L147.407251,19.95 C146.867251,20.35 146.117251,20.69 145.267251,20.69 C143.687251,20.69 142.597251,19.54 142.597251,17.99 C142.597251,16.45 143.687251,15.33 145.267251,15.33 C146.017251,15.33 146.707251,15.61 147.257251,16.04 L147.597251,15.1 C146.977251,14.66 146.177251,14.36 145.237251,14.36 C143.107251,14.36 141.537251,15.85 141.537251,18 C141.537251,20.14 143.067251,21.66 145.207251,21.66 Z" id="C"></path>
            <path d="M150.911294,21.66 C152.501294,21.66 153.601294,20.57 153.601294,19.04 C153.601294,17.52 152.501294,16.42 150.911294,16.42 C149.331294,16.42 148.231294,17.52 148.231294,19.04 C148.231294,20.57 149.331294,21.66 150.911294,21.66 Z M150.911294,20.77 C149.911294,20.77 149.211294,20.08 149.211294,19.04 C149.211294,18.01 149.901294,17.31 150.921294,17.31 C151.921294,17.31 152.621294,18.01 152.621294,19.04 C152.621294,20.06 151.931294,20.77 150.911294,20.77 Z" id="o"></path>
            <path d="M157.595337,16.42 C156.785337,16.42 156.135337,16.78 155.795337,17.4 L155.795337,16.52 L154.845337,16.52 L154.845337,21.56 L155.795337,21.56 L155.795337,18.78 C155.795337,17.88 156.385337,17.28 157.255337,17.28 C158.045337,17.28 158.445337,17.77 158.445337,18.75 L158.445337,21.56 L159.395337,21.56 L159.395337,18.43 C159.395337,17.1 158.745337,16.42 157.595337,16.42 Z" id="n"></path>
            <path d="M163.73938,16.42 C162.92938,16.42 162.27938,16.78 161.93938,17.4 L161.93938,16.52 L160.98938,16.52 L160.98938,21.56 L161.93938,21.56 L161.93938,18.78 C161.93938,17.88 162.52938,17.28 163.39938,17.28 C164.18938,17.28 164.58938,17.77 164.58938,18.75 L164.58938,21.56 L165.53938,21.56 L165.53938,18.43 C165.53938,17.1 164.88938,16.42 163.73938,16.42 Z" id="n"></path>
            <path d="M171.643423,19.06 C171.643423,17.5 170.673423,16.42 169.253423,16.42 C167.823423,16.42 166.743423,17.52 166.743423,19.05 C166.743423,20.52 167.763423,21.66 169.383423,21.66 C170.273423,21.66 171.003423,21.36 171.453423,20.99 L171.203423,20.21 C170.803423,20.55 170.183423,20.83 169.463423,20.83 C168.433423,20.83 167.763423,20.22 167.703423,19.19 L171.643423,19.19 L171.643423,19.06 Z M167.743423,18.51 C167.903423,17.73 168.513423,17.2 169.253423,17.2 C170.013423,17.2 170.563423,17.74 170.663423,18.51 L167.743423,18.51 Z" id="e"></path>
            <path d="M174.987466,21.66 C175.737466,21.66 176.377466,21.42 176.817466,21.1 L176.587466,20.29 C176.147466,20.59 175.597466,20.79 175.067466,20.79 C174.097466,20.79 173.437466,20.08 173.437466,19.04 C173.437466,18 174.107466,17.3 175.097466,17.3 C175.637466,17.3 176.107466,17.5 176.457466,17.76 L176.757466,16.93 C176.337466,16.65 175.767466,16.42 175.047466,16.42 C173.527466,16.42 172.447466,17.49 172.447466,19.06 C172.447466,20.61 173.507466,21.66 174.987466,21.66 Z" id="c"></path>
            <path d="M179.631509,21.66 C180.161509,21.66 180.621509,21.49 180.891509,21.29 L180.731509,20.5 C180.521509,20.63 180.201509,20.79 179.841509,20.79 C179.421509,20.79 179.181509,20.54 179.181509,20.04 L179.181509,17.33 L180.601509,17.33 L180.601509,16.52 L179.181509,16.52 L179.181509,14.94 L178.231509,15.07 L178.231509,16.52 L177.501509,16.52 L177.501509,17.33 L178.231509,17.33 L178.231509,20.16 C178.231509,21.17 178.781509,21.66 179.631509,21.66 Z" id="t"></path>
            <polygon id="," points="181.485553 22.98 182.365553 22.98 183.365553 20.5 182.345552 20.5"></polygon>
            <path d="M192.043639,21.56 L193.123639,21.56 L190.433639,14.46 L189.333639,14.46 L186.653639,21.56 L187.693639,21.56 L188.483639,19.4 L191.253639,19.4 L192.043639,21.56 Z M188.783639,18.56 L189.863639,15.6 L190.943639,18.56 L188.783639,18.56 Z" id="A"></path>
            <path d="M196.887682,16.42 C196.157682,16.42 195.447682,16.76 195.047682,17.41 L195.047682,16.52 L194.097682,16.52 L194.097682,23.66 L195.047682,23.66 L195.047682,20.66 C195.427682,21.33 196.147682,21.66 196.837682,21.66 C198.297682,21.66 199.297682,20.55 199.297682,19.04 C199.297682,17.52 198.297682,16.42 196.887682,16.42 Z M196.697682,20.78 C195.737682,20.78 194.997682,20.04 194.997682,19.04 C194.997682,18.01 195.757682,17.3 196.707682,17.3 C197.697682,17.3 198.327682,18.04 198.327682,19.04 C198.327682,20.07 197.657682,20.78 196.697682,20.78 Z" id="p"></path>
            <path d="M203.341725,16.42 C202.611725,16.42 201.901725,16.76 201.501725,17.41 L201.501725,16.52 L200.551725,16.52 L200.551725,23.66 L201.501725,23.66 L201.501725,20.66 C201.881725,21.33 202.601725,21.66 203.291725,21.66 C204.751725,21.66 205.751725,20.55 205.751725,19.04 C205.751725,17.52 204.751725,16.42 203.341725,16.42 Z M203.151725,20.78 C202.191725,20.78 201.451725,20.04 201.451725,19.04 C201.451725,18.01 202.211725,17.3 203.161725,17.3 C204.151725,17.3 204.781725,18.04 204.781725,19.04 C204.781725,20.07 204.111725,20.78 203.151725,20.78 Z" id="p"></path>
            <path d="M208.165768,21.66 C208.555768,21.66 208.855768,21.56 209.035768,21.47 L208.905768,20.69 C208.805768,20.74 208.615768,20.81 208.415768,20.81 C208.115768,20.81 207.935768,20.63 207.935768,20.18 L207.935768,14.04 L206.985768,14.04 L206.985768,20.33 C206.985768,21.25 207.435768,21.66 208.165768,21.66 Z" id="l"></path>
            <path d="M214.409811,19.06 C214.409811,17.5 213.439811,16.42 212.019811,16.42 C210.589811,16.42 209.509811,17.52 209.509811,19.05 C209.509811,20.52 210.529811,21.66 212.149811,21.66 C213.039811,21.66 213.769811,21.36 214.219811,20.99 L213.969811,20.21 C213.569811,20.55 212.949811,20.83 212.229811,20.83 C211.199811,20.83 210.529811,20.22 210.469811,19.19 L214.409811,19.19 L214.409811,19.06 Z M210.509811,18.51 C210.669811,17.73 211.279811,17.2 212.019811,17.2 C212.779811,17.2 213.329811,17.74 213.429811,18.51 L210.509811,18.51 Z" id="e"></path>
            <path d="M221.407897,21.66 C222.397897,21.66 223.197897,21.39 223.907897,20.87 L223.607897,19.95 C223.067897,20.35 222.317897,20.69 221.467897,20.69 C219.887897,20.69 218.797897,19.54 218.797897,17.99 C218.797897,16.45 219.887897,15.33 221.467897,15.33 C222.217897,15.33 222.907897,15.61 223.457897,16.04 L223.797897,15.1 C223.177897,14.66 222.377897,14.36 221.437897,14.36 C219.307897,14.36 217.737897,15.85 217.737897,18 C217.737897,20.14 219.267897,21.66 221.407897,21.66 Z" id="C"></path>
            <path d="M226.981941,16.42 C226.121941,16.42 225.411941,16.71 224.971941,17.01 L225.211941,17.8 C225.541941,17.56 226.101941,17.23 226.821941,17.23 C227.681941,17.23 228.111941,17.7 228.111941,18.43 L228.111941,18.54 C225.641941,18.56 224.631941,19.01 224.631941,20.17 C224.631941,21.09 225.271941,21.66 226.311941,21.66 C227.161941,21.66 227.791941,21.29 228.111941,20.78 L228.111941,21.56 L229.061941,21.56 L229.061941,18.41 C229.061941,17.05 228.261941,16.42 226.981941,16.42 Z M226.601941,20.93 C225.961941,20.93 225.621941,20.61 225.621941,20.12 C225.621941,19.47 226.221941,19.19 228.111941,19.17 L228.111941,19.6 C228.111941,20.54 227.291941,20.93 226.601941,20.93 Z" id="a"></path>
            <path d="M232.855984,16.41 C232.325984,16.41 231.875984,16.67 231.585984,17.38 L231.585984,16.52 L230.645984,16.52 L230.645984,21.56 L231.585984,21.56 L231.585984,19.01 C231.585984,18 231.965984,17.34 232.775984,17.34 C232.965984,17.34 233.155984,17.39 233.295984,17.45 L233.485984,16.53 C233.315984,16.46 233.085984,16.41 232.855984,16.41 Z" id="r"></path>
            <path d="M236.650027,14.46 L234.470027,14.46 L234.470027,21.56 L235.500027,21.56 L235.500027,18.98 L236.650027,18.98 C238.220027,18.98 239.060027,17.87 239.060027,16.68 C239.060027,15.38 238.220027,14.46 236.650027,14.46 Z M236.480027,18.12 L235.500027,18.12 L235.500027,15.33 L236.480027,15.33 C237.340027,15.33 238.000027,15.68 238.000027,16.68 C238.000027,17.6 237.340027,18.12 236.480027,18.12 Z" id="P"></path>
            <path d="M241.42407,21.66 C241.81407,21.66 242.11407,21.56 242.29407,21.47 L242.16407,20.69 C242.06407,20.74 241.87407,20.81 241.67407,20.81 C241.37407,20.81 241.19407,20.63 241.19407,20.18 L241.19407,14.04 L240.24407,14.04 L240.24407,20.33 C240.24407,21.25 240.69407,21.66 241.42407,21.66 Z" id="l"></path>
            <path d="M245.288113,16.42 C244.428113,16.42 243.718113,16.71 243.278113,17.01 L243.518113,17.8 C243.848113,17.56 244.408113,17.23 245.128113,17.23 C245.988113,17.23 246.418113,17.7 246.418113,18.43 L246.418113,18.54 C243.948113,18.56 242.938113,19.01 242.938113,20.17 C242.938113,21.09 243.578113,21.66 244.618113,21.66 C245.468113,21.66 246.098113,21.29 246.418113,20.78 L246.418113,21.56 L247.368113,21.56 L247.368113,18.41 C247.368113,17.05 246.568113,16.42 245.288113,16.42 Z M244.908113,20.93 C244.268113,20.93 243.928113,20.61 243.928113,20.12 C243.928113,19.47 244.528113,19.19 246.418113,19.17 L246.418113,19.6 C246.418113,20.54 245.598113,20.93 244.908113,20.93 Z" id="a"></path>
            <path d="M252.132156,16.52 L250.742156,20.23 L249.182156,16.52 L248.142156,16.52 L250.252156,21.33 L249.982156,21.95 C249.692156,22.63 249.342156,22.82 248.832156,22.82 C248.672156,22.82 248.532156,22.79 248.422156,22.75 L248.292156,23.59 C248.522156,23.67 248.772156,23.7 248.992156,23.7 C249.892156,23.7 250.452156,23.22 250.842156,22.24 L253.132156,16.52 L252.132156,16.52 Z" id="y"></path>
            <polygon id="1" points="255.826199 14.4 253.696199 15.3873184 253.696199 16.079162 255.226199 15.3656983 255.226199 19.56 256.216199 19.56 256.216199 14.4"></polygon>
            <path d="M264.374286,16.52 L264.374286,19.31 C264.374286,20.2 263.774286,20.81 262.904286,20.81 C262.114286,20.81 261.714286,20.32 261.714286,19.34 L261.714286,16.52 L260.764286,16.52 L260.764286,19.66 C260.764286,20.99 261.434286,21.66 262.554286,21.66 C263.384286,21.66 264.034286,21.3 264.374286,20.68 L264.374286,21.56 L265.324286,21.56 L265.324286,16.52 L264.374286,16.52 Z" id="u"></path>
            <path d="M269.708329,16.42 C268.898329,16.42 268.248329,16.78 267.908329,17.4 L267.908329,16.52 L266.958329,16.52 L266.958329,21.56 L267.908329,21.56 L267.908329,18.78 C267.908329,17.88 268.498329,17.28 269.368329,17.28 C270.158329,17.28 270.558329,17.77 270.558329,18.75 L270.558329,21.56 L271.508329,21.56 L271.508329,18.43 C271.508329,17.1 270.858329,16.42 269.708329,16.42 Z" id="n"></path>
            <path d="M276.972372,14.04 L276.972372,17.42 C276.612372,16.75 275.922372,16.42 275.142372,16.42 C273.732372,16.42 272.712372,17.51 272.712372,19.05 C272.712372,20.57 273.722372,21.66 275.142372,21.66 C275.912372,21.66 276.572372,21.36 276.972372,20.64 L276.972372,21.57 L277.922372,21.57 L277.922372,14.04 L276.972372,14.04 Z M275.312372,20.78 C274.342372,20.78 273.692372,20.08 273.692372,19.05 C273.692372,18 274.362372,17.3 275.322372,17.3 C276.292372,17.3 277.022372,18.04 277.022372,19.04 C277.022372,20.03 276.292372,20.78 275.312372,20.78 Z" id="d"></path>
            <path d="M5.39,35.56 L6.47,35.56 L3.78,28.46 L2.68,28.46 L0,35.56 L1.04,35.56 L1.83,33.4 L4.6,33.4 L5.39,35.56 Z M2.13,32.56 L3.21,29.6 L4.29,32.56 L2.13,32.56 Z" id="A"></path>
            <path d="M10.1940431,30.42 C9.38404312,30.42 8.73404312,30.78 8.39404312,31.4 L8.39404312,30.52 L7.44404312,30.52 L7.44404312,35.56 L8.39404312,35.56 L8.39404312,32.78 C8.39404312,31.88 8.98404312,31.28 9.85404312,31.28 C10.6440431,31.28 11.0440431,31.77 11.0440431,32.75 L11.0440431,35.56 L11.9940431,35.56 L11.9940431,32.43 C11.9940431,31.1 11.3440431,30.42 10.1940431,30.42 Z" id="n"></path>
            <path d="M17.4580862,28.04 L17.4580862,31.42 C17.0980862,30.75 16.4080862,30.42 15.6280862,30.42 C14.2180862,30.42 13.1980862,31.51 13.1980862,33.05 C13.1980862,34.57 14.2080862,35.66 15.6280862,35.66 C16.3980862,35.66 17.0580862,35.36 17.4580862,34.64 L17.4580862,35.57 L18.4080862,35.57 L18.4080862,28.04 L17.4580862,28.04 Z M15.7980862,34.78 C14.8280862,34.78 14.1780862,34.08 14.1780862,33.05 C14.1780862,32 14.8480862,31.3 15.8080862,31.3 C16.7780862,31.3 17.5080862,32.04 17.5080862,33.04 C17.5080862,34.03 16.7780862,34.78 15.7980862,34.78 Z" id="d"></path>
            <path d="M22.2321294,30.41 C21.7021294,30.41 21.2521294,30.67 20.9621294,31.38 L20.9621294,30.52 L20.0221294,30.52 L20.0221294,35.56 L20.9621294,35.56 L20.9621294,33.01 C20.9621294,32 21.3421294,31.34 22.1521294,31.34 C22.3421294,31.34 22.5321294,31.39 22.6721294,31.45 L22.8621294,30.53 C22.6921294,30.46 22.4621294,30.41 22.2321294,30.41 Z" id="r"></path>
            <path d="M25.8661725,35.66 C27.4561725,35.66 28.5561725,34.57 28.5561725,33.04 C28.5561725,31.52 27.4561725,30.42 25.8661725,30.42 C24.2861725,30.42 23.1861725,31.52 23.1861725,33.04 C23.1861725,34.57 24.2861725,35.66 25.8661725,35.66 Z M25.8661725,34.77 C24.8661725,34.77 24.1661725,34.08 24.1661725,33.04 C24.1661725,32.01 24.8561725,31.31 25.8761725,31.31 C26.8761725,31.31 27.5761725,32.01 27.5761725,33.04 C27.5761725,34.06 26.8861725,34.77 25.8661725,34.77 Z" id="o"></path>
            <path d="M30.2902156,29.54 C30.6502156,29.54 30.9202156,29.26 30.9202156,28.9 C30.9202156,28.54 30.6502156,28.26 30.2902156,28.26 C29.9302156,28.26 29.6502156,28.54 29.6502156,28.9 C29.6502156,29.26 29.9302156,29.54 30.2902156,29.54 Z M29.8002156,35.56 L30.7502156,35.56 L30.7502156,30.52 L29.8002156,30.52 L29.8002156,35.56 Z" id="i"></path>
            <path d="M36.2542587,28.04 L36.2542587,31.42 C35.8942587,30.75 35.2042587,30.42 34.4242587,30.42 C33.0142587,30.42 31.9942587,31.51 31.9942587,33.05 C31.9942587,34.57 33.0042587,35.66 34.4242587,35.66 C35.1942587,35.66 35.8542587,35.36 36.2542587,34.64 L36.2542587,35.57 L37.2042587,35.57 L37.2042587,28.04 L36.2542587,28.04 Z M34.5942587,34.78 C33.6242587,34.78 32.9742587,34.08 32.9742587,33.05 C32.9742587,32 33.6442587,31.3 34.6042587,31.3 C35.5742587,31.3 36.3042587,32.04 36.3042587,33.04 C36.3042587,34.03 35.5742587,34.78 34.5942587,34.78 Z" id="d"></path>
            <path d="M43.5483019,35.56 L44.6283019,35.56 L41.9383019,28.46 L40.8383019,28.46 L38.1583019,35.56 L39.1983019,35.56 L39.9883019,33.4 L42.7583019,33.4 L43.5483019,35.56 Z M40.2883019,32.56 L41.3683019,29.6 L42.4483019,32.56 L40.2883019,32.56 Z" id="A"></path>
            <path d="M49.022345,30.52 L49.022345,33.31 C49.022345,34.2 48.422345,34.81 47.552345,34.81 C46.762345,34.81 46.362345,34.32 46.362345,33.34 L46.362345,30.52 L45.412345,30.52 L45.412345,33.66 C45.412345,34.99 46.082345,35.66 47.202345,35.66 C48.032345,35.66 48.682345,35.3 49.022345,34.68 L49.022345,35.56 L49.972345,35.56 L49.972345,30.52 L49.022345,30.52 Z" id="u"></path>
            <path d="M53.2263881,35.66 C53.7563881,35.66 54.2163881,35.49 54.4863881,35.29 L54.3263881,34.5 C54.1163881,34.63 53.7963881,34.79 53.4363881,34.79 C53.0163881,34.79 52.7763881,34.54 52.7763881,34.04 L52.7763881,31.33 L54.1963881,31.33 L54.1963881,30.52 L52.7763881,30.52 L52.7763881,28.94 L51.8263881,29.07 L51.8263881,30.52 L51.0963881,30.52 L51.0963881,31.33 L51.8263881,31.33 L51.8263881,34.16 C51.8263881,35.17 52.3763881,35.66 53.2263881,35.66 Z" id="t"></path>
            <path d="M57.5904312,35.66 C59.1804312,35.66 60.2804312,34.57 60.2804312,33.04 C60.2804312,31.52 59.1804312,30.42 57.5904312,30.42 C56.0104312,30.42 54.9104312,31.52 54.9104312,33.04 C54.9104312,34.57 56.0104312,35.66 57.5904312,35.66 Z M57.5904312,34.77 C56.5904312,34.77 55.8904312,34.08 55.8904312,33.04 C55.8904312,32.01 56.5804312,31.31 57.6004312,31.31 C58.6004312,31.31 59.3004312,32.01 59.3004312,33.04 C59.3004312,34.06 58.6104312,34.77 57.5904312,34.77 Z" id="o"></path>
            <path d="M61.3044744,33.56 L64.9444744,33.56 L64.9444744,32.9172222 L62.4184399,32.9172222 L63.6500778,31.6244444 C64.2776641,30.9744444 64.7640434,30.4183333 64.7640434,29.7466667 C64.7640434,28.9811111 64.1364572,28.36 63.0852503,28.36 C62.3635261,28.36 61.7437847,28.6416667 61.3201641,29.0894444 L61.6653365,29.66 C62.0654227,29.2483333 62.5125778,29.0172222 63.0303365,29.0172222 C63.6736123,29.0172222 63.9795606,29.3638889 63.9795606,29.8116667 C63.9795606,30.2666667 63.6814572,30.6638889 63.1087847,31.2561111 L61.3044744,33.1266667 L61.3044744,33.56 Z" id="2"></path>
            <path d="M67.9885175,35.69 C68.3385175,35.69 68.6285175,35.4 68.6285175,35.05 C68.6285175,34.69 68.3385175,34.41 67.9885175,34.41 C67.6285175,34.41 67.3485175,34.69 67.3485175,35.05 C67.3485175,35.4 67.6285175,35.69 67.9885175,35.69 Z" id="."></path>
            <path d="M74.6766037,35.66 C76.1066038,35.66 77.0766038,34.9 77.0766038,33.56 C77.0766038,32.27 76.1766037,31.95 75.0766038,31.54 C74.1866038,31.21 73.5866038,30.95 73.5866038,30.26 C73.5866038,29.65 74.0966037,29.27 74.8866038,29.27 C75.4666038,29.27 76.1166038,29.47 76.5866038,29.74 L76.8566038,28.83 C76.3766038,28.56 75.6366038,28.35 74.9066038,28.35 C73.5166038,28.35 72.5666037,29.11 72.5666037,30.35 C72.5666037,31.54 73.4466038,32 74.5366037,32.4 C75.5066038,32.76 76.0566038,32.97 76.0566038,33.66 C76.0566038,34.36 75.5666037,34.74 74.7466038,34.74 C73.9766038,34.74 73.2066037,34.42 72.6766037,33.99 L72.3966037,34.95 C73.0066038,35.4 73.8366038,35.66 74.6766037,35.66 Z" id="S"></path>
            <path d="M80.7406469,35.66 C82.3306469,35.66 83.4306469,34.57 83.4306469,33.04 C83.4306469,31.52 82.3306469,30.42 80.7406469,30.42 C79.1606469,30.42 78.0606469,31.52 78.0606469,33.04 C78.0606469,34.57 79.1606469,35.66 80.7406469,35.66 Z M80.7406469,34.77 C79.7406469,34.77 79.0406469,34.08 79.0406469,33.04 C79.0406469,32.01 79.7306469,31.31 80.7506469,31.31 C81.7506469,31.31 82.4506469,32.01 82.4506469,33.04 C82.4506469,34.06 81.7606469,34.77 80.7406469,34.77 Z" id="o"></path>
            <polygon id="w" points="93.0887331 30.52 91.9087331 34.38 90.6687331 30.52 89.8487331 30.52 88.6187331 34.42 87.4187331 30.52 86.3687331 30.52 88.0587331 35.56 89.0387331 35.56 90.2487331 31.8 91.4687331 35.56 92.4487331 35.56 94.0887331 30.52"></polygon>
            <path d="M95.5127762,29.54 C95.8727762,29.54 96.1427762,29.26 96.1427762,28.9 C96.1427762,28.54 95.8727762,28.26 95.5127762,28.26 C95.1527762,28.26 94.8727762,28.54 94.8727762,28.9 C94.8727762,29.26 95.1527762,29.54 95.5127762,29.54 Z M95.0227762,35.56 L95.9727762,35.56 L95.9727762,30.52 L95.0227762,30.52 L95.0227762,35.56 Z" id="i"></path>
            <path d="M99.8168194,30.41 C99.2868194,30.41 98.8368194,30.67 98.5468194,31.38 L98.5468194,30.52 L97.6068194,30.52 L97.6068194,35.56 L98.5468194,35.56 L98.5468194,33.01 C98.5468194,32 98.9268194,31.34 99.7368194,31.34 C99.9268194,31.34 100.116819,31.39 100.256819,31.45 L100.446819,30.53 C100.276819,30.46 100.046819,30.41 99.8168194,30.41 Z" id="r"></path>
            <path d="M105.030862,28.04 L105.030862,31.42 C104.670862,30.75 103.980862,30.42 103.200862,30.42 C101.790862,30.42 100.770862,31.51 100.770862,33.05 C100.770862,34.57 101.780862,35.66 103.200862,35.66 C103.970862,35.66 104.630862,35.36 105.030862,34.64 L105.030862,35.57 L105.980862,35.57 L105.980862,28.04 L105.030862,28.04 Z M103.370862,34.78 C102.400862,34.78 101.750862,34.08 101.750862,33.05 C101.750862,32 102.420862,31.3 103.380862,31.3 C104.350862,31.3 105.080862,32.04 105.080862,33.04 C105.080862,34.03 104.350862,34.78 103.370862,34.78 Z" id="d"></path>
            <path d="M113.868949,28.04 L113.868949,31.42 C113.508949,30.75 112.818949,30.42 112.038949,30.42 C110.628949,30.42 109.608949,31.51 109.608949,33.05 C109.608949,34.57 110.618949,35.66 112.038949,35.66 C112.808949,35.66 113.468949,35.36 113.868949,34.64 L113.868949,35.57 L114.818949,35.57 L114.818949,28.04 L113.868949,28.04 Z M112.208949,34.78 C111.238949,34.78 110.588949,34.08 110.588949,33.05 C110.588949,32 111.258949,31.3 112.218949,31.3 C113.188949,31.3 113.918949,32.04 113.918949,33.04 C113.918949,34.03 113.188949,34.78 112.208949,34.78 Z" id="d"></path>
            <path d="M120.942992,33.06 C120.942992,31.5 119.972992,30.42 118.552992,30.42 C117.122992,30.42 116.042992,31.52 116.042992,33.05 C116.042992,34.52 117.062992,35.66 118.682992,35.66 C119.572992,35.66 120.302992,35.36 120.752992,34.99 L120.502992,34.21 C120.102992,34.55 119.482992,34.83 118.762992,34.83 C117.732992,34.83 117.062992,34.22 117.002992,33.19 L120.942992,33.19 L120.942992,33.06 Z M117.042992,32.51 C117.202992,31.73 117.812992,31.2 118.552992,31.2 C119.312992,31.2 119.862992,31.74 119.962992,32.51 L117.042992,32.51 Z" id="e"></path>
            <path d="M124.347035,30.41 C123.817035,30.41 123.367035,30.67 123.077035,31.38 L123.077035,30.52 L122.137035,30.52 L122.137035,35.56 L123.077035,35.56 L123.077035,33.01 C123.077035,32 123.457035,31.34 124.267035,31.34 C124.457035,31.34 124.647035,31.39 124.787035,31.45 L124.977035,30.53 C124.807035,30.46 124.577035,30.41 124.347035,30.41 Z" id="r"></path>
            <path d="M132.985121,35.56 L134.065121,35.56 L131.375121,28.46 L130.275121,28.46 L127.595121,35.56 L128.635121,35.56 L129.425121,33.4 L132.195121,33.4 L132.985121,35.56 Z M129.725121,32.56 L130.805121,29.6 L131.885121,32.56 L129.725121,32.56 Z" id="A"></path>
            <path d="M138.109164,30.52 L136.719164,34.23 L135.159164,30.52 L134.119164,30.52 L136.229164,35.33 L135.959164,35.95 C135.669164,36.63 135.319164,36.82 134.809164,36.82 C134.649164,36.82 134.509164,36.79 134.399164,36.75 L134.269164,37.59 C134.499164,37.67 134.749164,37.7 134.969164,37.7 C135.869164,37.7 136.429164,37.22 136.819164,36.24 L139.109164,30.52 L138.109164,30.52 Z" id="y"></path>
            <path d="M143.643208,30.52 L143.643208,31.41 C143.233208,30.77 142.633207,30.42 141.823207,30.42 C140.373208,30.42 139.383207,31.53 139.383207,33.01 C139.383207,34.5 140.403208,35.56 141.823207,35.56 C142.613208,35.56 143.253208,35.24 143.643208,34.57 L143.643208,35.38 C143.643208,36.39 142.973208,36.89 141.933208,36.89 C141.083208,36.89 140.473208,36.59 140.033208,36.2 L139.763208,37.1 C140.273208,37.48 140.933208,37.76 141.933208,37.76 C143.493208,37.76 144.593208,36.97 144.593208,35.39 L144.593208,30.52 L143.643208,30.52 Z M142.023208,34.71 C141.043208,34.71 140.353207,34 140.353207,33 C140.353207,32.02 141.013208,31.26 142.013208,31.26 C142.983208,31.26 143.673208,32.07 143.673208,32.98 C143.673208,33.96 143.013208,34.71 142.023208,34.71 Z" id="g"></path>
            <path d="M148.497251,35.66 C150.087251,35.66 151.187251,34.57 151.187251,33.04 C151.187251,31.52 150.087251,30.42 148.497251,30.42 C146.917251,30.42 145.817251,31.52 145.817251,33.04 C145.817251,34.57 146.917251,35.66 148.497251,35.66 Z M148.497251,34.77 C147.497251,34.77 146.797251,34.08 146.797251,33.04 C146.797251,32.01 147.487251,31.31 148.507251,31.31 C149.507251,31.31 150.207251,32.01 150.207251,33.04 C150.207251,34.06 149.517251,34.77 148.497251,34.77 Z" id="o"></path>
            <polygon id="X" points="160.305337 35.56 157.905337 31.94 160.215337 28.46 159.125337 28.46 157.355337 31.15 155.645337 28.46 154.455337 28.46 156.755337 31.96 154.385337 35.56 155.515337 35.56 157.315337 32.76 159.115337 35.56"></polygon>
            <path d="M168.333423,33.06 C168.333423,31.5 167.363423,30.42 165.943423,30.42 C164.513423,30.42 163.433423,31.52 163.433423,33.05 C163.433423,34.52 164.453423,35.66 166.073423,35.66 C166.963423,35.66 167.693423,35.36 168.143423,34.99 L167.893423,34.21 C167.493423,34.55 166.873423,34.83 166.153423,34.83 C165.123423,34.83 164.453423,34.22 164.393423,33.19 L168.333423,33.19 L168.333423,33.06 Z M164.433423,32.51 C164.593423,31.73 165.203423,31.2 165.943423,31.2 C166.703423,31.2 167.253423,31.74 167.353423,32.51 L164.433423,32.51 Z" id="e"></path>
            <path d="M170.017466,29.54 C170.377466,29.54 170.647466,29.26 170.647466,28.9 C170.647466,28.54 170.377466,28.26 170.017466,28.26 C169.657466,28.26 169.377466,28.54 169.377466,28.9 C169.377466,29.26 169.657466,29.54 170.017466,29.54 Z M169.527466,35.56 L170.477466,35.56 L170.477466,30.52 L169.527466,30.52 L169.527466,35.56 Z" id="i"></path>
            <path d="M174.861509,30.42 C174.051509,30.42 173.401509,30.78 173.061509,31.4 L173.061509,30.52 L172.111509,30.52 L172.111509,35.56 L173.061509,35.56 L173.061509,32.78 C173.061509,31.88 173.651509,31.28 174.521509,31.28 C175.311509,31.28 175.711509,31.77 175.711509,32.75 L175.711509,35.56 L176.661509,35.56 L176.661509,32.43 C176.661509,31.1 176.011509,30.42 174.861509,30.42 Z" id="n"></path>
            <path d="M179.765552,35.66 C180.995552,35.66 181.705552,35.02 181.705552,34.08 C181.705552,33.17 181.025552,32.83 180.095552,32.58 C179.505552,32.42 179.035552,32.27 179.035552,31.81 C179.035552,31.4 179.405552,31.17 179.935552,31.17 C180.485552,31.17 181.005552,31.39 181.345552,31.62 L181.535552,30.84 C181.155552,30.61 180.585552,30.42 179.955552,30.42 C178.845552,30.42 178.095552,30.98 178.095552,31.93 C178.095552,32.86 178.825552,33.15 179.605552,33.39 C180.355552,33.62 180.775552,33.76 180.775552,34.22 C180.775552,34.66 180.405552,34.91 179.815552,34.91 C179.195552,34.91 178.575552,34.66 178.185552,34.34 L177.955552,35.13 C178.345552,35.45 179.075552,35.66 179.765552,35.66 Z" id="s"></path>
            <path d="M191.243639,30.41 C190.463639,30.41 189.873639,30.79 189.553639,31.5 C189.323639,30.77 188.783639,30.41 187.983639,30.41 C187.273639,30.41 186.713639,30.75 186.403639,31.34 L186.403639,30.52 L185.453639,30.52 L185.453639,35.56 L186.403639,35.56 L186.403639,32.76 C186.403639,31.87 186.903639,31.27 187.653639,31.27 C188.383639,31.27 188.733639,31.76 188.733639,32.74 L188.733639,35.56 L189.683639,35.56 L189.683639,32.71 C189.683639,31.87 190.193639,31.27 190.923639,31.27 C191.653639,31.27 192.013639,31.76 192.013639,32.74 L192.013639,35.56 L192.963639,35.56 L192.963639,32.42 C192.963639,31.08 192.343639,30.41 191.243639,30.41 Z" id="m"></path>
            <path d="M195.037682,29.54 C195.397682,29.54 195.667682,29.26 195.667682,28.9 C195.667682,28.54 195.397682,28.26 195.037682,28.26 C194.677682,28.26 194.397682,28.54 194.397682,28.9 C194.397682,29.26 194.677682,29.54 195.037682,29.54 Z M194.547682,35.56 L195.497682,35.56 L195.497682,30.52 L194.547682,30.52 L194.547682,35.56 Z" id="i"></path>
            <path d="M198.751725,35.66 C199.281725,35.66 199.741725,35.49 200.011725,35.29 L199.851725,34.5 C199.641725,34.63 199.321725,34.79 198.961725,34.79 C198.541725,34.79 198.301725,34.54 198.301725,34.04 L198.301725,31.33 L199.721725,31.33 L199.721725,30.52 L198.301725,30.52 L198.301725,28.94 L197.351725,29.07 L197.351725,30.52 L196.621725,30.52 L196.621725,31.33 L197.351725,31.33 L197.351725,34.16 C197.351725,35.17 197.901725,35.66 198.751725,35.66 Z" id="t"></path>
            <path d="M207.139811,28.04 L207.139811,31.42 C206.779811,30.75 206.089811,30.42 205.309811,30.42 C203.899811,30.42 202.879811,31.51 202.879811,33.05 C202.879811,34.57 203.889811,35.66 205.309811,35.66 C206.079811,35.66 206.739811,35.36 207.139811,34.64 L207.139811,35.57 L208.089811,35.57 L208.089811,28.04 L207.139811,28.04 Z M205.479811,34.78 C204.509811,34.78 203.859811,34.08 203.859811,33.05 C203.859811,32 204.529811,31.3 205.489811,31.3 C206.459811,31.3 207.189811,32.04 207.189811,33.04 C207.189811,34.03 206.459811,34.78 205.479811,34.78 Z" id="d"></path>
            <path d="M214.213854,33.06 C214.213854,31.5 213.243854,30.42 211.823854,30.42 C210.393854,30.42 209.313854,31.52 209.313854,33.05 C209.313854,34.52 210.333854,35.66 211.953854,35.66 C212.843854,35.66 213.573854,35.36 214.023854,34.99 L213.773854,34.21 C213.373854,34.55 212.753854,34.83 212.033854,34.83 C211.003854,34.83 210.333854,34.22 210.273854,33.19 L214.213854,33.19 L214.213854,33.06 Z M210.313854,32.51 C210.473854,31.73 211.083854,31.2 211.823854,31.2 C212.583854,31.2 213.133854,31.74 213.233854,32.51 L210.313854,32.51 Z" id="e"></path>
            <path d="M215.897897,29.54 C216.257897,29.54 216.527897,29.26 216.527897,28.9 C216.527897,28.54 216.257897,28.26 215.897897,28.26 C215.537897,28.26 215.257897,28.54 215.257897,28.9 C215.257897,29.26 215.537897,29.54 215.897897,29.54 Z M215.407897,35.56 L216.357897,35.56 L216.357897,30.52 L215.407897,30.52 L215.407897,35.56 Z" id="i"></path>
            <path d="M220.741941,30.42 C219.931941,30.42 219.281941,30.78 218.941941,31.4 L218.941941,30.52 L217.991941,30.52 L217.991941,35.56 L218.941941,35.56 L218.941941,32.78 C218.941941,31.88 219.531941,31.28 220.401941,31.28 C221.191941,31.28 221.591941,31.77 221.591941,32.75 L221.591941,35.56 L222.541941,35.56 L222.541941,32.43 C222.541941,31.1 221.891941,30.42 220.741941,30.42 Z" id="n"></path>
            <path d="M228.645984,33.06 C228.645984,31.5 227.675984,30.42 226.255984,30.42 C224.825984,30.42 223.745984,31.52 223.745984,33.05 C223.745984,34.52 224.765984,35.66 226.385984,35.66 C227.275984,35.66 228.005984,35.36 228.455984,34.99 L228.205984,34.21 C227.805984,34.55 227.185984,34.83 226.465984,34.83 C225.435984,34.83 224.765984,34.22 224.705984,33.19 L228.645984,33.19 L228.645984,33.06 Z M224.745984,32.51 C224.905984,31.73 225.515984,31.2 226.255984,31.2 C227.015984,31.2 227.565984,31.74 227.665984,32.51 L224.745984,32.51 Z" id="e"></path>
            <path d="M235.630027,30.41 C234.850027,30.41 234.260027,30.79 233.940027,31.5 C233.710027,30.77 233.170027,30.41 232.370027,30.41 C231.660027,30.41 231.100027,30.75 230.790027,31.34 L230.790027,30.52 L229.840027,30.52 L229.840027,35.56 L230.790027,35.56 L230.790027,32.76 C230.790027,31.87 231.290027,31.27 232.040027,31.27 C232.770027,31.27 233.120027,31.76 233.120027,32.74 L233.120027,35.56 L234.070027,35.56 L234.070027,32.71 C234.070027,31.87 234.580027,31.27 235.310027,31.27 C236.040027,31.27 236.400027,31.76 236.400027,32.74 L236.400027,35.56 L237.350027,35.56 L237.350027,32.42 C237.350027,31.08 236.730027,30.41 235.630027,30.41 Z" id="m"></path>
            <path d="M243.348113,35.66 C244.778113,35.66 245.748113,34.9 245.748113,33.56 C245.748113,32.27 244.848113,31.95 243.748113,31.54 C242.858113,31.21 242.258113,30.95 242.258113,30.26 C242.258113,29.65 242.768113,29.27 243.558113,29.27 C244.138113,29.27 244.788113,29.47 245.258113,29.74 L245.528113,28.83 C245.048113,28.56 244.308113,28.35 243.578113,28.35 C242.188113,28.35 241.238113,29.11 241.238113,30.35 C241.238113,31.54 242.118113,32 243.208113,32.4 C244.178113,32.76 244.728113,32.97 244.728113,33.66 C244.728113,34.36 244.238113,34.74 243.418113,34.74 C242.648113,34.74 241.878113,34.42 241.348113,33.99 L241.068113,34.95 C241.678113,35.4 242.508113,35.66 243.348113,35.66 Z" id="S"></path>
            <path d="M252.892156,30.41 C252.112156,30.41 251.522156,30.79 251.202156,31.5 C250.972156,30.77 250.432156,30.41 249.632156,30.41 C248.922156,30.41 248.362156,30.75 248.052156,31.34 L248.052156,30.52 L247.102156,30.52 L247.102156,35.56 L248.052156,35.56 L248.052156,32.76 C248.052156,31.87 248.552156,31.27 249.302156,31.27 C250.032156,31.27 250.382156,31.76 250.382156,32.74 L250.382156,35.56 L251.332156,35.56 L251.332156,32.71 C251.332156,31.87 251.842156,31.27 252.572156,31.27 C253.302156,31.27 253.662156,31.76 253.662156,32.74 L253.662156,35.56 L254.612156,35.56 L254.612156,32.42 C254.612156,31.08 253.992156,30.41 252.892156,30.41 Z" id="m"></path>
            <path d="M258.256199,30.42 C257.396199,30.42 256.686199,30.71 256.246199,31.01 L256.486199,31.8 C256.816199,31.56 257.376199,31.23 258.096199,31.23 C258.956199,31.23 259.386199,31.7 259.386199,32.43 L259.386199,32.54 C256.916199,32.56 255.906199,33.01 255.906199,34.17 C255.906199,35.09 256.546199,35.66 257.586199,35.66 C258.436199,35.66 259.066199,35.29 259.386199,34.78 L259.386199,35.56 L260.336199,35.56 L260.336199,32.41 C260.336199,31.05 259.536199,30.42 258.256199,30.42 Z M257.876199,34.93 C257.236199,34.93 256.896199,34.61 256.896199,34.12 C256.896199,33.47 257.496199,33.19 259.386199,33.17 L259.386199,33.6 C259.386199,34.54 258.566199,34.93 257.876199,34.93 Z" id="a"></path>
            <path d="M264.130242,30.41 C263.600242,30.41 263.150242,30.67 262.860242,31.38 L262.860242,30.52 L261.920242,30.52 L261.920242,35.56 L262.860242,35.56 L262.860242,33.01 C262.860242,32 263.240242,31.34 264.050242,31.34 C264.240242,31.34 264.430242,31.39 264.570242,31.45 L264.760242,30.53 C264.590242,30.46 264.360242,30.41 264.130242,30.41 Z" id="r"></path>
            <path d="M267.324286,35.66 C267.854286,35.66 268.314286,35.49 268.584286,35.29 L268.424286,34.5 C268.214286,34.63 267.894286,34.79 267.534286,34.79 C267.114286,34.79 266.874286,34.54 266.874286,34.04 L266.874286,31.33 L268.294286,31.33 L268.294286,30.52 L266.874286,30.52 L266.874286,28.94 L265.924286,29.07 L265.924286,30.52 L265.194286,30.52 L265.194286,31.33 L265.924286,31.33 L265.924286,34.16 C265.924286,35.17 266.474286,35.66 267.324286,35.66 Z" id="t"></path>
            <path d="M272.228329,30.42 C271.498329,30.42 270.788329,30.76 270.388329,31.41 L270.388329,30.52 L269.438329,30.52 L269.438329,37.66 L270.388329,37.66 L270.388329,34.66 C270.768329,35.33 271.488329,35.66 272.178329,35.66 C273.638329,35.66 274.638329,34.55 274.638329,33.04 C274.638329,31.52 273.638329,30.42 272.228329,30.42 Z M272.038329,34.78 C271.078329,34.78 270.338329,34.04 270.338329,33.04 C270.338329,32.01 271.098329,31.3 272.048329,31.3 C273.038329,31.3 273.668329,32.04 273.668329,33.04 C273.668329,34.07 272.998329,34.78 272.038329,34.78 Z" id="p"></path>
            <path d="M278.632372,30.41 C277.812372,30.41 277.172372,30.77 276.842372,31.38 L276.842372,28.04 L275.892372,28.04 L275.892372,35.56 L276.842372,35.56 L276.842372,32.76 C276.842372,31.87 277.452372,31.27 278.302372,31.27 C279.092372,31.27 279.492372,31.76 279.492372,32.74 L279.492372,35.56 L280.442372,35.56 L280.442372,32.42 C280.442372,31.08 279.782372,30.41 278.632372,30.41 Z" id="h"></path>
            <path d="M284.326415,35.66 C285.916415,35.66 287.016415,34.57 287.016415,33.04 C287.016415,31.52 285.916415,30.42 284.326415,30.42 C282.746415,30.42 281.646415,31.52 281.646415,33.04 C281.646415,34.57 282.746415,35.66 284.326415,35.66 Z M284.326415,34.77 C283.326415,34.77 282.626415,34.08 282.626415,33.04 C282.626415,32.01 283.316415,31.31 284.336415,31.31 C285.336415,31.31 286.036415,32.01 286.036415,33.04 C286.036415,34.06 285.346415,34.77 284.326415,34.77 Z" id="o"></path>
            <path d="M291.010458,30.42 C290.200458,30.42 289.550458,30.78 289.210458,31.4 L289.210458,30.52 L288.260458,30.52 L288.260458,35.56 L289.210458,35.56 L289.210458,32.78 C289.210458,31.88 289.800458,31.28 290.670458,31.28 C291.460458,31.28 291.860458,31.77 291.860458,32.75 L291.860458,35.56 L292.810458,35.56 L292.810458,32.43 C292.810458,31.1 292.160458,30.42 291.010458,30.42 Z" id="n"></path>
            <path d="M298.914501,33.06 C298.914501,31.5 297.944501,30.42 296.524501,30.42 C295.094501,30.42 294.014501,31.52 294.014501,33.05 C294.014501,34.52 295.034501,35.66 296.654501,35.66 C297.544501,35.66 298.274501,35.36 298.724501,34.99 L298.474501,34.21 C298.074501,34.55 297.454501,34.83 296.734501,34.83 C295.704501,34.83 295.034501,34.22 294.974501,33.19 L298.914501,33.19 L298.914501,33.06 Z M295.014501,32.51 C295.174501,31.73 295.784501,31.2 296.524501,31.2 C297.284501,31.2 297.834501,31.74 297.934501,32.51 L295.014501,32.51 Z" id="e"></path>
            <path d="M300.748544,35.69 C301.098544,35.69 301.388544,35.4 301.388544,35.05 C301.388544,34.69 301.098544,34.41 300.748544,34.41 C300.388544,34.41 300.108544,34.69 300.108544,35.05 C300.108544,35.4 300.388544,35.69 300.748544,35.69 Z" id="."></path>
        </g>
    </g>
</svg>