<?xml version="1.0" encoding="UTF-8"?>
<svg width="307px" height="40px" viewBox="0 0 307 40" version="1.1" xmlns="http://www.w3.org/2000/svg" xmlns:xlink="http://www.w3.org/1999/xlink">
    <title>Freiheit erleben – m</title>
    <g id="Page-1" stroke="none" stroke-width="1" fill="none" fill-rule="evenodd">
        <g id="Freiheit-erleben-–-m" transform="translate(0.780000, 0.440000)" fill="#282830" fill-rule="nonzero">
            <polygon id="F" points="0.17 7.56 1.2 7.56 1.2 4.49 4.06 4.49 4.06 3.58 1.2 3.58 1.2 1.37 4.2 1.37 4.2 0.46 0.17 0.46"></polygon>
            <path d="M7.52404312,2.41 C6.99404313,2.41 6.54404312,2.67 6.25404312,3.38 L6.25404312,2.52 L5.31404312,2.52 L5.31404312,7.56 L6.25404312,7.56 L6.25404312,5.01 C6.25404312,4 6.63404312,3.34 7.44404312,3.34 C7.63404312,3.34 7.82404313,3.39 7.96404313,3.45 L8.15404313,2.53 C7.98404313,2.46 7.75404312,2.41 7.52404312,2.41 Z" id="r"></path>
            <path d="M13.3780863,5.06 C13.3780863,3.5 12.4080862,2.42 10.9880863,2.42 C9.55808625,2.42 8.47808625,3.52 8.47808625,5.05 C8.47808625,6.52 9.49808625,7.66 11.1180862,7.66 C12.0080862,7.66 12.7380863,7.36 13.1880862,6.99 L12.9380862,6.21 C12.5380862,6.55 11.9180862,6.83 11.1980862,6.83 C10.1680862,6.83 9.49808625,6.22 9.43808625,5.19 L13.3780863,5.19 L13.3780863,5.06 Z M9.47808625,4.51 C9.63808625,3.73 10.2480863,3.2 10.9880863,3.2 C11.7480863,3.2 12.2980862,3.74 12.3980863,4.51 L9.47808625,4.51 Z" id="e"></path>
            <path d="M15.0621294,1.54 C15.4221294,1.54 15.6921294,1.26 15.6921294,0.9 C15.6921294,0.54 15.4221294,0.26 15.0621294,0.26 C14.7021294,0.26 14.4221294,0.54 14.4221294,0.9 C14.4221294,1.26 14.7021294,1.54 15.0621294,1.54 Z M14.5721294,7.56 L15.5221294,7.56 L15.5221294,2.52 L14.5721294,2.52 L14.5721294,7.56 Z" id="i"></path>
            <path d="M19.8961725,2.41 C19.0761725,2.41 18.4361725,2.77 18.1061725,3.38 L18.1061725,0.04 L17.1561725,0.04 L17.1561725,7.56 L18.1061725,7.56 L18.1061725,4.76 C18.1061725,3.87 18.7161725,3.27 19.5661725,3.27 C20.3561725,3.27 20.7561725,3.76 20.7561725,4.74 L20.7561725,7.56 L21.7061725,7.56 L21.7061725,4.42 C21.7061725,3.08 21.0461725,2.41 19.8961725,2.41 Z" id="h"></path>
            <path d="M27.8102156,5.06 C27.8102156,3.5 26.8402156,2.42 25.4202156,2.42 C23.9902156,2.42 22.9102156,3.52 22.9102156,5.05 C22.9102156,6.52 23.9302156,7.66 25.5502156,7.66 C26.4402156,7.66 27.1702156,7.36 27.6202156,6.99 L27.3702156,6.21 C26.9702156,6.55 26.3502156,6.83 25.6302156,6.83 C24.6002156,6.83 23.9302156,6.22 23.8702156,5.19 L27.8102156,5.19 L27.8102156,5.06 Z M23.9102156,4.51 C24.0702156,3.73 24.6802156,3.2 25.4202156,3.2 C26.1802156,3.2 26.7302156,3.74 26.8302156,4.51 L23.9102156,4.51 Z" id="e"></path>
            <path d="M29.4942587,1.54 C29.8542587,1.54 30.1242587,1.26 30.1242587,0.9 C30.1242587,0.54 29.8542587,0.26 29.4942587,0.26 C29.1342587,0.26 28.8542587,0.54 28.8542587,0.9 C28.8542587,1.26 29.1342587,1.54 29.4942587,1.54 Z M29.0042587,7.56 L29.9542587,7.56 L29.9542587,2.52 L29.0042587,2.52 L29.0042587,7.56 Z" id="i"></path>
            <path d="M33.2083019,7.66 C33.7383019,7.66 34.1983019,7.49 34.4683019,7.29 L34.3083019,6.5 C34.0983019,6.63 33.7783019,6.79 33.4183019,6.79 C32.9983019,6.79 32.7583019,6.54 32.7583019,6.04 L32.7583019,3.33 L34.1783019,3.33 L34.1783019,2.52 L32.7583019,2.52 L32.7583019,0.94 L31.8083019,1.07 L31.8083019,2.52 L31.0783019,2.52 L31.0783019,3.33 L31.8083019,3.33 L31.8083019,6.16 C31.8083019,7.17 32.3583019,7.66 33.2083019,7.66 Z" id="t"></path>
            <path d="M42.2363881,5.06 C42.2363881,3.5 41.2663881,2.42 39.8463881,2.42 C38.4163881,2.42 37.3363881,3.52 37.3363881,5.05 C37.3363881,6.52 38.3563881,7.66 39.9763881,7.66 C40.8663881,7.66 41.5963881,7.36 42.0463881,6.99 L41.7963881,6.21 C41.3963881,6.55 40.7763881,6.83 40.0563881,6.83 C39.0263881,6.83 38.3563881,6.22 38.2963881,5.19 L42.2363881,5.19 L42.2363881,5.06 Z M38.3363881,4.51 C38.4963881,3.73 39.1063881,3.2 39.8463881,3.2 C40.6063881,3.2 41.1563881,3.74 41.2563881,4.51 L38.3363881,4.51 Z" id="e"></path>
            <path d="M45.6404312,2.41 C45.1104312,2.41 44.6604312,2.67 44.3704312,3.38 L44.3704312,2.52 L43.4304312,2.52 L43.4304312,7.56 L44.3704312,7.56 L44.3704312,5.01 C44.3704312,4 44.7504312,3.34 45.5604312,3.34 C45.7504312,3.34 45.9404312,3.39 46.0804312,3.45 L46.2704312,2.53 C46.1004312,2.46 45.8704312,2.41 45.6404312,2.41 Z" id="r"></path>
            <path d="M48.3044744,7.66 C48.6944744,7.66 48.9944744,7.56 49.1744744,7.47 L49.0444744,6.69 C48.9444744,6.74 48.7544744,6.81 48.5544744,6.81 C48.2544744,6.81 48.0744744,6.63 48.0744744,6.18 L48.0744744,0.04 L47.1244744,0.04 L47.1244744,6.33 C47.1244744,7.25 47.5744744,7.66 48.3044744,7.66 Z" id="l"></path>
            <path d="M54.5485175,5.06 C54.5485175,3.5 53.5785175,2.42 52.1585175,2.42 C50.7285175,2.42 49.6485175,3.52 49.6485175,5.05 C49.6485175,6.52 50.6685175,7.66 52.2885175,7.66 C53.1785175,7.66 53.9085175,7.36 54.3585175,6.99 L54.1085175,6.21 C53.7085175,6.55 53.0885175,6.83 52.3685175,6.83 C51.3385175,6.83 50.6685175,6.22 50.6085175,5.19 L54.5485175,5.19 L54.5485175,5.06 Z M50.6485175,4.51 C50.8085175,3.73 51.4185175,3.2 52.1585175,3.2 C52.9185175,3.2 53.4685175,3.74 53.5685175,4.51 L50.6485175,4.51 Z" id="e"></path>
            <path d="M58.5325606,2.42 C57.8025606,2.42 57.0925606,2.76 56.6925606,3.41 L56.6925606,0.04 L55.7425606,0.04 L55.7425606,7.56 L56.6925606,7.56 L56.6925606,6.66 C57.0725606,7.33 57.7925606,7.66 58.4825606,7.66 C59.9425606,7.66 60.9425606,6.55 60.9425606,5.04 C60.9425606,3.52 59.9425606,2.42 58.5325606,2.42 Z M58.3425606,6.78 C57.3825606,6.78 56.6425606,6.04 56.6425606,5.04 C56.6425606,4.01 57.4025606,3.3 58.3525606,3.3 C59.3425606,3.3 59.9725606,4.04 59.9725606,5.04 C59.9725606,6.07 59.3025606,6.78 58.3425606,6.78 Z" id="b"></path>
            <path d="M66.7066037,5.06 C66.7066037,3.5 65.7366038,2.42 64.3166037,2.42 C62.8866037,2.42 61.8066038,3.52 61.8066038,5.05 C61.8066038,6.52 62.8266037,7.66 64.4466037,7.66 C65.3366037,7.66 66.0666037,7.36 66.5166038,6.99 L66.2666038,6.21 C65.8666037,6.55 65.2466037,6.83 64.5266037,6.83 C63.4966037,6.83 62.8266037,6.22 62.7666037,5.19 L66.7066037,5.19 L66.7066037,5.06 Z M62.8066038,4.51 C62.9666037,3.73 63.5766038,3.2 64.3166037,3.2 C65.0766038,3.2 65.6266038,3.74 65.7266037,4.51 L62.8066038,4.51 Z" id="e"></path>
            <path d="M70.6506469,2.42 C69.8406469,2.42 69.1906469,2.78 68.8506469,3.4 L68.8506469,2.52 L67.9006469,2.52 L67.9006469,7.56 L68.8506469,7.56 L68.8506469,4.78 C68.8506469,3.88 69.4406469,3.28 70.3106469,3.28 C71.1006469,3.28 71.5006469,3.77 71.5006469,4.75 L71.5006469,7.56 L72.4506469,7.56 L72.4506469,4.43 C72.4506469,3.1 71.8006469,2.42 70.6506469,2.42 Z" id="n"></path>
            <polygon id="–" points="76.0887331 5.24 80.6887331 5.24 80.6887331 4.43 76.0887331 4.43"></polygon>
            <path d="M90.1568194,2.41 C89.3768194,2.41 88.7868194,2.79 88.4668194,3.5 C88.2368194,2.77 87.6968194,2.41 86.8968194,2.41 C86.1868194,2.41 85.6268194,2.75 85.3168194,3.34 L85.3168194,2.52 L84.3668194,2.52 L84.3668194,7.56 L85.3168194,7.56 L85.3168194,4.76 C85.3168194,3.87 85.8168194,3.27 86.5668194,3.27 C87.2968194,3.27 87.6468194,3.76 87.6468194,4.74 L87.6468194,7.56 L88.5968194,7.56 L88.5968194,4.71 C88.5968194,3.87 89.1068194,3.27 89.8368194,3.27 C90.5668194,3.27 90.9268194,3.76 90.9268194,4.74 L90.9268194,7.56 L91.8768194,7.56 L91.8768194,4.42 C91.8768194,3.08 91.2568194,2.41 90.1568194,2.41 Z" id="m"></path>
            <path d="M95.5208625,2.42 C94.6608625,2.42 93.9508625,2.71 93.5108625,3.01 L93.7508625,3.8 C94.0808625,3.56 94.6408625,3.23 95.3608625,3.23 C96.2208625,3.23 96.6508625,3.7 96.6508625,4.43 L96.6508625,4.54 C94.1808625,4.56 93.1708625,5.01 93.1708625,6.17 C93.1708625,7.09 93.8108625,7.66 94.8508625,7.66 C95.7008625,7.66 96.3308625,7.29 96.6508625,6.78 L96.6508625,7.56 L97.6008625,7.56 L97.6008625,4.41 C97.6008625,3.05 96.8008625,2.42 95.5208625,2.42 Z M95.1408625,6.93 C94.5008625,6.93 94.1608625,6.61 94.1608625,6.12 C94.1608625,5.47 94.7608625,5.19 96.6508625,5.17 L96.6508625,5.6 C96.6508625,6.54 95.8308625,6.93 95.1408625,6.93 Z" id="a"></path>
            <path d="M101.334906,7.66 C102.084906,7.66 102.724906,7.42 103.164906,7.1 L102.934906,6.29 C102.494906,6.59 101.944906,6.79 101.414906,6.79 C100.444906,6.79 99.7849056,6.08 99.7849056,5.04 C99.7849056,4 100.454906,3.3 101.444906,3.3 C101.984906,3.3 102.454906,3.5 102.804906,3.76 L103.104906,2.93 C102.684906,2.65 102.114906,2.42 101.394906,2.42 C99.8749056,2.42 98.7949056,3.49 98.7949056,5.06 C98.7949056,6.61 99.8549056,7.66 101.334906,7.66 Z" id="c"></path>
            <path d="M107.028949,2.41 C106.208949,2.41 105.568949,2.77 105.238949,3.38 L105.238949,0.04 L104.288949,0.04 L104.288949,7.56 L105.238949,7.56 L105.238949,4.76 C105.238949,3.87 105.848949,3.27 106.698949,3.27 C107.488949,3.27 107.888949,3.76 107.888949,4.74 L107.888949,7.56 L108.838949,7.56 L108.838949,4.42 C108.838949,3.08 108.178949,2.41 107.028949,2.41 Z" id="h"></path>
            <path d="M116.707035,0.04 L116.707035,3.42 C116.347035,2.75 115.657035,2.42 114.877035,2.42 C113.467035,2.42 112.447035,3.51 112.447035,5.05 C112.447035,6.57 113.457035,7.66 114.877035,7.66 C115.647035,7.66 116.307035,7.36 116.707035,6.64 L116.707035,7.57 L117.657035,7.57 L117.657035,0.04 L116.707035,0.04 Z M115.047035,6.78 C114.077035,6.78 113.427035,6.08 113.427035,5.05 C113.427035,4 114.097035,3.3 115.057035,3.3 C116.027035,3.3 116.757035,4.04 116.757035,5.04 C116.757035,6.03 116.027035,6.78 115.047035,6.78 Z" id="d"></path>
            <path d="M119.761078,1.54 C120.121078,1.54 120.391078,1.26 120.391078,0.9 C120.391078,0.54 120.121078,0.26 119.761078,0.26 C119.401078,0.26 119.121078,0.54 119.121078,0.9 C119.121078,1.26 119.401078,1.54 119.761078,1.54 Z M119.271078,7.56 L120.221078,7.56 L120.221078,2.52 L119.271078,2.52 L119.271078,7.56 Z" id="i"></path>
            <path d="M124.005121,7.66 C124.755121,7.66 125.395121,7.42 125.835121,7.1 L125.605121,6.29 C125.165121,6.59 124.615121,6.79 124.085121,6.79 C123.115121,6.79 122.455121,6.08 122.455121,5.04 C122.455121,4 123.125121,3.3 124.115121,3.3 C124.655121,3.3 125.125121,3.5 125.475121,3.76 L125.775121,2.93 C125.355121,2.65 124.785121,2.42 124.065121,2.42 C122.545121,2.42 121.465121,3.49 121.465121,5.06 C121.465121,6.61 122.525121,7.66 124.005121,7.66 Z" id="c"></path>
            <path d="M129.699164,2.41 C128.879164,2.41 128.239164,2.77 127.909164,3.38 L127.909164,0.04 L126.959164,0.04 L126.959164,7.56 L127.909164,7.56 L127.909164,4.76 C127.909164,3.87 128.519164,3.27 129.369164,3.27 C130.159164,3.27 130.559164,3.76 130.559164,4.74 L130.559164,7.56 L131.509164,7.56 L131.509164,4.42 C131.509164,3.08 130.849164,2.41 129.699164,2.41 Z" id="h"></path>
            <path d="M138.297251,2.42 C137.567251,2.42 136.857251,2.76 136.457251,3.41 L136.457251,0.04 L135.507251,0.04 L135.507251,7.56 L136.457251,7.56 L136.457251,6.66 C136.837251,7.33 137.557251,7.66 138.247251,7.66 C139.707251,7.66 140.707251,6.55 140.707251,5.04 C140.707251,3.52 139.707251,2.42 138.297251,2.42 Z M138.107251,6.78 C137.147251,6.78 136.407251,6.04 136.407251,5.04 C136.407251,4.01 137.167251,3.3 138.117251,3.3 C139.107251,3.3 139.737251,4.04 139.737251,5.04 C139.737251,6.07 139.067251,6.78 138.107251,6.78 Z" id="b"></path>
            <path d="M146.471294,5.06 C146.471294,3.5 145.501294,2.42 144.081294,2.42 C142.651294,2.42 141.571294,3.52 141.571294,5.05 C141.571294,6.52 142.591294,7.66 144.211294,7.66 C145.101294,7.66 145.831294,7.36 146.281294,6.99 L146.031294,6.21 C145.631294,6.55 145.011294,6.83 144.291294,6.83 C143.261294,6.83 142.591294,6.22 142.531294,5.19 L146.471294,5.19 L146.471294,5.06 Z M142.571294,4.51 C142.731294,3.73 143.341294,3.2 144.081294,3.2 C144.841294,3.2 145.391294,3.74 145.491294,4.51 L142.571294,4.51 Z" id="e"></path>
            <path d="M149.875337,2.41 C149.345337,2.41 148.895337,2.67 148.605337,3.38 L148.605337,2.52 L147.665337,2.52 L147.665337,7.56 L148.605337,7.56 L148.605337,5.01 C148.605337,4 148.985337,3.34 149.795337,3.34 C149.985337,3.34 150.175337,3.39 150.315337,3.45 L150.505337,2.53 C150.335337,2.46 150.105337,2.41 149.875337,2.41 Z" id="r"></path>
            <path d="M155.72938,5.06 C155.72938,3.5 154.75938,2.42 153.33938,2.42 C151.90938,2.42 150.82938,3.52 150.82938,5.05 C150.82938,6.52 151.84938,7.66 153.46938,7.66 C154.35938,7.66 155.08938,7.36 155.53938,6.99 L155.28938,6.21 C154.88938,6.55 154.26938,6.83 153.54938,6.83 C152.51938,6.83 151.84938,6.22 151.78938,5.19 L155.72938,5.19 L155.72938,5.06 Z M151.82938,4.51 C151.98938,3.73 152.59938,3.2 153.33938,3.2 C154.09938,3.2 154.64938,3.74 154.74938,4.51 L151.82938,4.51 Z" id="e"></path>
            <path d="M157.413423,1.54 C157.773423,1.54 158.043423,1.26 158.043423,0.9 C158.043423,0.54 157.773423,0.26 157.413423,0.26 C157.053423,0.26 156.773423,0.54 156.773423,0.9 C156.773423,1.26 157.053423,1.54 157.413423,1.54 Z M156.923423,7.56 L157.873423,7.56 L157.873423,2.52 L156.923423,2.52 L156.923423,7.56 Z" id="i"></path>
            <path d="M161.127466,7.66 C161.657466,7.66 162.117466,7.49 162.387466,7.29 L162.227466,6.5 C162.017466,6.63 161.697466,6.79 161.337466,6.79 C160.917466,6.79 160.677466,6.54 160.677466,6.04 L160.677466,3.33 L162.097466,3.33 L162.097466,2.52 L160.677466,2.52 L160.677466,0.94 L159.727466,1.07 L159.727466,2.52 L158.997466,2.52 L158.997466,3.33 L159.727466,3.33 L159.727466,6.16 C159.727466,7.17 160.277466,7.66 161.127466,7.66 Z" id="t"></path>
            <path d="M165.925552,7.56 L166.875552,7.56 L166.875552,3.33 L168.075552,3.33 L168.075552,2.52 L166.875552,2.52 L166.875552,1.78 C166.875552,1.1 167.135552,0.86 167.555552,0.86 C167.805552,0.86 168.055552,0.95 168.225552,1.05 L168.415552,0.23 C168.145552,0.1 167.805552,0 167.405552,0 C166.525552,0 165.925552,0.52 165.925552,1.73 L165.925552,2.52 L165.055552,2.52 L165.055552,3.33 L165.925552,3.33 L165.925552,7.56 Z" id="f"></path>
            <path d="M172.609596,2.52 L172.609596,5.31 C172.609596,6.2 172.009596,6.81 171.139596,6.81 C170.349596,6.81 169.949596,6.32 169.949596,5.34 L169.949596,2.52 L168.999596,2.52 L168.999596,5.66 C168.999596,6.99 169.669596,7.66 170.789596,7.66 C171.619596,7.66 172.269596,7.3 172.609596,6.68 L172.609596,7.56 L173.559596,7.56 L173.559596,2.52 L172.609596,2.52 Z M170.239596,1.46 C170.569596,1.46 170.819596,1.2 170.819596,0.88 C170.819596,0.56 170.569596,0.31 170.239596,0.31 C169.919596,0.31 169.669596,0.56 169.669596,0.88 C169.669596,1.2 169.919596,1.46 170.239596,1.46 Z M172.399596,1.46 C172.719596,1.46 172.969596,1.2 172.969596,0.88 C172.969596,0.56 172.719596,0.31 172.399596,0.31 C172.079596,0.31 171.819596,0.56 171.819596,0.88 C171.819596,1.2 172.079596,1.46 172.399596,1.46 Z" id="ü"></path>
            <path d="M177.403639,2.41 C176.873639,2.41 176.423639,2.67 176.133639,3.38 L176.133639,2.52 L175.193639,2.52 L175.193639,7.56 L176.133639,7.56 L176.133639,5.01 C176.133639,4 176.513639,3.34 177.323639,3.34 C177.513639,3.34 177.703639,3.39 177.843639,3.45 L178.033639,2.53 C177.863639,2.46 177.633639,2.41 177.403639,2.41 Z" id="r"></path>
            <path d="M185.821725,5.06 C185.821725,3.5 184.851725,2.42 183.431725,2.42 C182.001725,2.42 180.921725,3.52 180.921725,5.05 C180.921725,6.52 181.941725,7.66 183.561725,7.66 C184.451725,7.66 185.181725,7.36 185.631725,6.99 L185.381725,6.21 C184.981725,6.55 184.361725,6.83 183.641725,6.83 C182.611725,6.83 181.941725,6.22 181.881725,5.19 L185.821725,5.19 L185.821725,5.06 Z M181.921725,4.51 C182.081725,3.73 182.691725,3.2 183.431725,3.2 C184.191725,3.2 184.741725,3.74 184.841725,4.51 L181.921725,4.51 Z" id="e"></path>
            <path d="M187.505768,1.54 C187.865768,1.54 188.135768,1.26 188.135768,0.9 C188.135768,0.54 187.865768,0.26 187.505768,0.26 C187.145768,0.26 186.865768,0.54 186.865768,0.9 C186.865768,1.26 187.145768,1.54 187.505768,1.54 Z M187.015768,7.56 L187.965768,7.56 L187.965768,2.52 L187.015768,2.52 L187.015768,7.56 Z" id="i"></path>
            <path d="M192.349811,2.42 C191.539811,2.42 190.889811,2.78 190.549811,3.4 L190.549811,2.52 L189.599811,2.52 L189.599811,7.56 L190.549811,7.56 L190.549811,4.78 C190.549811,3.88 191.139811,3.28 192.009811,3.28 C192.799811,3.28 193.199811,3.77 193.199811,4.75 L193.199811,7.56 L194.149811,7.56 L194.149811,4.43 C194.149811,3.1 193.499811,2.42 192.349811,2.42 Z" id="n"></path>
            <path d="M202.017897,2.52 L202.017897,3.41 C201.607897,2.77 201.007897,2.42 200.197897,2.42 C198.747897,2.42 197.757897,3.53 197.757897,5.01 C197.757897,6.5 198.777897,7.56 200.197897,7.56 C200.987897,7.56 201.627897,7.24 202.017897,6.57 L202.017897,7.38 C202.017897,8.39 201.347897,8.89 200.307897,8.89 C199.457897,8.89 198.847897,8.59 198.407897,8.2 L198.137897,9.1 C198.647897,9.48 199.307897,9.76 200.307897,9.76 C201.867897,9.76 202.967897,8.97 202.967897,7.39 L202.967897,2.52 L202.017897,2.52 Z M200.397897,6.71 C199.417897,6.71 198.727897,6 198.727897,5 C198.727897,4.02 199.387897,3.26 200.387897,3.26 C201.357897,3.26 202.047897,4.07 202.047897,4.98 C202.047897,5.96 201.387897,6.71 200.397897,6.71 Z" id="g"></path>
            <path d="M206.791941,2.41 C206.261941,2.41 205.811941,2.67 205.521941,3.38 L205.521941,2.52 L204.581941,2.52 L204.581941,7.56 L205.521941,7.56 L205.521941,5.01 C205.521941,4 205.901941,3.34 206.711941,3.34 C206.901941,3.34 207.091941,3.39 207.231941,3.45 L207.421941,2.53 C207.251941,2.46 207.021941,2.41 206.791941,2.41 Z" id="r"></path>
            <path d="M210.425984,7.66 C212.015984,7.66 213.115984,6.57 213.115984,5.04 C213.115984,3.52 212.015984,2.42 210.425984,2.42 C208.845984,2.42 207.745984,3.52 207.745984,5.04 C207.745984,6.57 208.845984,7.66 210.425984,7.66 Z M210.425984,6.77 C209.425984,6.77 208.725984,6.08 208.725984,5.04 C208.725984,4.01 209.415984,3.31 210.435984,3.31 C211.435984,3.31 212.135984,4.01 212.135984,5.04 C212.135984,6.06 211.445984,6.77 210.425984,6.77 Z" id="o"></path>
            <path d="M217.550027,3.41 C218.190027,3.14 218.630027,2.55 218.630027,1.8 C218.630027,0.73 217.860027,0.01 216.560027,0.01 C215.340027,0.01 214.360027,0.73 214.360027,2.28 L214.360027,7.56 L215.290027,7.56 L215.290027,2.35 C215.290027,1.2 215.930027,0.88 216.570027,0.88 C217.260027,0.88 217.680027,1.27 217.680027,1.87 C217.680027,2.73 216.970027,3.11 216.400027,3.14 L216.190027,3.15 L216.190027,3.92 L216.350027,3.92 C217.510027,3.92 218.220027,4.43 218.220027,5.37 C218.220027,6.27 217.650027,6.78 216.750027,6.78 C216.430027,6.78 216.200027,6.73 215.960027,6.6 L215.840027,7.47 C216.060027,7.57 216.450027,7.64 216.900027,7.64 C218.270027,7.64 219.210027,6.8 219.210027,5.42 C219.210027,4.23 218.410027,3.6 217.550027,3.41 Z" id="ß"></path>
            <path d="M222.52407,2.42 C221.66407,2.42 220.95407,2.71 220.51407,3.01 L220.75407,3.8 C221.08407,3.56 221.64407,3.23 222.36407,3.23 C223.22407,3.23 223.65407,3.7 223.65407,4.43 L223.65407,4.54 C221.18407,4.56 220.17407,5.01 220.17407,6.17 C220.17407,7.09 220.81407,7.66 221.85407,7.66 C222.70407,7.66 223.33407,7.29 223.65407,6.78 L223.65407,7.56 L224.60407,7.56 L224.60407,4.41 C224.60407,3.05 223.80407,2.42 222.52407,2.42 Z M222.14407,6.93 C221.50407,6.93 221.16407,6.61 221.16407,6.12 C221.16407,5.47 221.76407,5.19 223.65407,5.17 L223.65407,5.6 C223.65407,6.54 222.83407,6.93 222.14407,6.93 Z" id="a"></path>
            <path d="M228.398113,2.41 C227.868113,2.41 227.418113,2.67 227.128113,3.38 L227.128113,2.52 L226.188113,2.52 L226.188113,7.56 L227.128113,7.56 L227.128113,5.01 C227.128113,4 227.508113,3.34 228.318113,3.34 C228.508113,3.34 228.698113,3.39 228.838113,3.45 L229.028113,2.53 C228.858113,2.46 228.628113,2.41 228.398113,2.41 Z" id="r"></path>
            <path d="M231.592156,7.66 C232.122156,7.66 232.582156,7.49 232.852156,7.29 L232.692156,6.5 C232.482156,6.63 232.162156,6.79 231.802156,6.79 C231.382156,6.79 231.142156,6.54 231.142156,6.04 L231.142156,3.33 L232.562156,3.33 L232.562156,2.52 L231.142156,2.52 L231.142156,0.94 L230.192156,1.07 L230.192156,2.52 L229.462156,2.52 L229.462156,3.33 L230.192156,3.33 L230.192156,6.16 C230.192156,7.17 230.742156,7.66 231.592156,7.66 Z" id="t"></path>
            <path d="M234.196199,1.54 C234.556199,1.54 234.826199,1.26 234.826199,0.9 C234.826199,0.54 234.556199,0.26 234.196199,0.26 C233.836199,0.26 233.556199,0.54 233.556199,0.9 C233.556199,1.26 233.836199,1.54 234.196199,1.54 Z M233.706199,7.56 L234.656199,7.56 L234.656199,2.52 L233.706199,2.52 L233.706199,7.56 Z" id="i"></path>
            <path d="M240.160242,2.52 L240.160242,3.41 C239.750242,2.77 239.150242,2.42 238.340242,2.42 C236.890242,2.42 235.900242,3.53 235.900242,5.01 C235.900242,6.5 236.920242,7.56 238.340242,7.56 C239.130242,7.56 239.770242,7.24 240.160242,6.57 L240.160242,7.38 C240.160242,8.39 239.490242,8.89 238.450242,8.89 C237.600242,8.89 236.990242,8.59 236.550242,8.2 L236.280242,9.1 C236.790242,9.48 237.450242,9.76 238.450242,9.76 C240.010242,9.76 241.110242,8.97 241.110242,7.39 L241.110242,2.52 L240.160242,2.52 Z M238.540242,6.71 C237.560242,6.71 236.870242,6 236.870242,5 C236.870242,4.02 237.530242,3.26 238.530242,3.26 C239.500242,3.26 240.190242,4.07 240.190242,4.98 C240.190242,5.96 239.530242,6.71 238.540242,6.71 Z" id="g"></path>
            <path d="M247.234286,5.06 C247.234286,3.5 246.264286,2.42 244.844286,2.42 C243.414286,2.42 242.334286,3.52 242.334286,5.05 C242.334286,6.52 243.354286,7.66 244.974286,7.66 C245.864286,7.66 246.594286,7.36 247.044286,6.99 L246.794286,6.21 C246.394286,6.55 245.774286,6.83 245.054286,6.83 C244.024286,6.83 243.354286,6.22 243.294286,5.19 L247.234286,5.19 L247.234286,5.06 Z M243.334286,4.51 C243.494286,3.73 244.104286,3.2 244.844286,3.2 C245.604286,3.2 246.154286,3.74 246.254286,4.51 L243.334286,4.51 Z" id="e"></path>
            <path d="M249.938329,7.66 C251.168329,7.66 251.878329,7.02 251.878329,6.08 C251.878329,5.17 251.198329,4.83 250.268329,4.58 C249.678329,4.42 249.208329,4.27 249.208329,3.81 C249.208329,3.4 249.578329,3.17 250.108329,3.17 C250.658329,3.17 251.178329,3.39 251.518329,3.62 L251.708329,2.84 C251.328329,2.61 250.758329,2.42 250.128329,2.42 C249.018329,2.42 248.268329,2.98 248.268329,3.93 C248.268329,4.86 248.998329,5.15 249.778329,5.39 C250.528329,5.62 250.948329,5.76 250.948329,6.22 C250.948329,6.66 250.578329,6.91 249.988329,6.91 C249.368329,6.91 248.748329,6.66 248.358329,6.34 L248.128329,7.13 C248.518329,7.45 249.248329,7.66 249.938329,7.66 Z" id="s"></path>
            <polygon id="F" points="255.736415 7.56 256.766415 7.56 256.766415 4.49 259.626415 4.49 259.626415 3.58 256.766415 3.58 256.766415 1.37 259.766415 1.37 259.766415 0.46 255.736415 0.46"></polygon>
            <path d="M262.700458,2.42 C261.840458,2.42 261.130458,2.71 260.690458,3.01 L260.930458,3.8 C261.260458,3.56 261.820458,3.23 262.540458,3.23 C263.400458,3.23 263.830458,3.7 263.830458,4.43 L263.830458,4.54 C261.360458,4.56 260.350458,5.01 260.350458,6.17 C260.350458,7.09 260.990458,7.66 262.030458,7.66 C262.880458,7.66 263.510458,7.29 263.830458,6.78 L263.830458,7.56 L264.780458,7.56 L264.780458,4.41 C264.780458,3.05 263.980458,2.42 262.700458,2.42 Z M262.320458,6.93 C261.680458,6.93 261.340458,6.61 261.340458,6.12 C261.340458,5.47 261.940458,5.19 263.830458,5.17 L263.830458,5.6 C263.830458,6.54 263.010458,6.93 262.320458,6.93 Z" id="a"></path>
            <path d="M269.104501,2.41 C268.284501,2.41 267.644501,2.77 267.314501,3.38 L267.314501,0.04 L266.364501,0.04 L266.364501,7.56 L267.314501,7.56 L267.314501,4.76 C267.314501,3.87 267.924501,3.27 268.774501,3.27 C269.564501,3.27 269.964501,3.76 269.964501,4.74 L269.964501,7.56 L270.914501,7.56 L270.914501,4.42 C270.914501,3.08 270.254501,2.41 269.104501,2.41 Z" id="h"></path>
            <path d="M274.718544,2.41 C274.188544,2.41 273.738544,2.67 273.448544,3.38 L273.448544,2.52 L272.508544,2.52 L272.508544,7.56 L273.448544,7.56 L273.448544,5.01 C273.448544,4 273.828544,3.34 274.638544,3.34 C274.828544,3.34 275.018544,3.39 275.158544,3.45 L275.348544,2.53 C275.178544,2.46 274.948544,2.41 274.718544,2.41 Z" id="r"></path>
            <path d="M279.932587,2.52 L279.932587,3.41 C279.522587,2.77 278.922587,2.42 278.112587,2.42 C276.662587,2.42 275.672587,3.53 275.672587,5.01 C275.672587,6.5 276.692587,7.56 278.112587,7.56 C278.902587,7.56 279.542587,7.24 279.932587,6.57 L279.932587,7.38 C279.932587,8.39 279.262587,8.89 278.222587,8.89 C277.372587,8.89 276.762587,8.59 276.322587,8.2 L276.052587,9.1 C276.562587,9.48 277.222587,9.76 278.222587,9.76 C279.782587,9.76 280.882587,8.97 280.882587,7.39 L280.882587,2.52 L279.932587,2.52 Z M278.312587,6.71 C277.332587,6.71 276.642587,6 276.642587,5 C276.642587,4.02 277.302587,3.26 278.302587,3.26 C279.272587,3.26 279.962587,4.07 279.962587,4.98 C279.962587,5.96 279.302587,6.71 278.312587,6.71 Z" id="g"></path>
            <path d="M287.006631,5.06 C287.006631,3.5 286.036631,2.42 284.616631,2.42 C283.186631,2.42 282.106631,3.52 282.106631,5.05 C282.106631,6.52 283.126631,7.66 284.746631,7.66 C285.636631,7.66 286.366631,7.36 286.816631,6.99 L286.566631,6.21 C286.166631,6.55 285.546631,6.83 284.826631,6.83 C283.796631,6.83 283.126631,6.22 283.066631,5.19 L287.006631,5.19 L287.006631,5.06 Z M283.106631,4.51 C283.266631,3.73 283.876631,3.2 284.616631,3.2 C285.376631,3.2 285.926631,3.74 286.026631,4.51 L283.106631,4.51 Z" id="e"></path>
            <path d="M288.480674,7.56 L289.430674,7.56 L289.430674,3.33 L290.630674,3.33 L290.630674,2.52 L289.430674,2.52 L289.430674,1.78 C289.430674,1.1 289.690674,0.86 290.110674,0.86 C290.360674,0.86 290.610674,0.95 290.780674,1.05 L290.970674,0.23 C290.700674,0.1 290.360674,0 289.960674,0 C289.080674,0 288.480674,0.52 288.480674,1.73 L288.480674,2.52 L287.610674,2.52 L287.610674,3.33 L288.480674,3.33 L288.480674,7.56 Z" id="f"></path>
            <path d="M295.164717,2.52 L295.164717,5.31 C295.164717,6.2 294.564717,6.81 293.694717,6.81 C292.904717,6.81 292.504717,6.32 292.504717,5.34 L292.504717,2.52 L291.554717,2.52 L291.554717,5.66 C291.554717,6.99 292.224717,7.66 293.344717,7.66 C294.174717,7.66 294.824717,7.3 295.164717,6.68 L295.164717,7.56 L296.114717,7.56 L296.114717,2.52 L295.164717,2.52 Z M292.794717,1.46 C293.124717,1.46 293.374717,1.2 293.374717,0.88 C293.374717,0.56 293.124717,0.31 292.794717,0.31 C292.474717,0.31 292.224717,0.56 292.224717,0.88 C292.224717,1.2 292.474717,1.46 292.794717,1.46 Z M294.954717,1.46 C295.274717,1.46 295.524717,1.2 295.524717,0.88 C295.524717,0.56 295.274717,0.31 294.954717,0.31 C294.634717,0.31 294.374717,0.56 294.374717,0.88 C294.374717,1.2 294.634717,1.46 294.954717,1.46 Z" id="ü"></path>
            <path d="M300.48876,2.41 C299.66876,2.41 299.02876,2.77 298.69876,3.38 L298.69876,0.04 L297.74876,0.04 L297.74876,7.56 L298.69876,7.56 L298.69876,4.76 C298.69876,3.87 299.30876,3.27 300.15876,3.27 C300.94876,3.27 301.34876,3.76 301.34876,4.74 L301.34876,7.56 L302.29876,7.56 L302.29876,4.42 C302.29876,3.08 301.63876,2.41 300.48876,2.41 Z" id="h"></path>
            <path d="M305.052803,7.66 C305.442803,7.66 305.742803,7.56 305.922803,7.47 L305.792803,6.69 C305.692803,6.74 305.502803,6.81 305.302803,6.81 C305.002803,6.81 304.822803,6.63 304.822803,6.18 L304.822803,0.04 L303.872803,0.04 L303.872803,6.33 C303.872803,7.25 304.322803,7.66 305.052803,7.66 Z" id="l"></path>
            <path d="M3.61,17.52 L3.61,20.31 C3.61,21.2 3.01,21.81 2.14,21.81 C1.35,21.81 0.95,21.32 0.95,20.34 L0.95,17.52 L0,17.52 L0,20.66 C0,21.99 0.67,22.66 1.79,22.66 C2.62,22.66 3.27,22.3 3.61,21.68 L3.61,22.56 L4.56,22.56 L4.56,17.52 L3.61,17.52 Z" id="u"></path>
            <path d="M8.94404313,17.42 C8.13404312,17.42 7.48404313,17.78 7.14404312,18.4 L7.14404312,17.52 L6.19404312,17.52 L6.19404312,22.56 L7.14404312,22.56 L7.14404312,19.78 C7.14404312,18.88 7.73404313,18.28 8.60404313,18.28 C9.39404312,18.28 9.79404312,18.77 9.79404312,19.75 L9.79404312,22.56 L10.7440431,22.56 L10.7440431,19.43 C10.7440431,18.1 10.0940431,17.42 8.94404313,17.42 Z" id="n"></path>
            <path d="M16.2080863,15.04 L16.2080863,18.42 C15.8480862,17.75 15.1580863,17.42 14.3780863,17.42 C12.9680863,17.42 11.9480862,18.51 11.9480862,20.05 C11.9480862,21.57 12.9580862,22.66 14.3780863,22.66 C15.1480863,22.66 15.8080863,22.36 16.2080863,21.64 L16.2080863,22.57 L17.1580862,22.57 L17.1580862,15.04 L16.2080863,15.04 Z M14.5480863,21.78 C13.5780863,21.78 12.9280862,21.08 12.9280862,20.05 C12.9280862,19 13.5980862,18.3 14.5580863,18.3 C15.5280862,18.3 16.2580862,19.04 16.2580862,20.04 C16.2580862,21.03 15.5280862,21.78 14.5480863,21.78 Z" id="d"></path>
            <path d="M23.4661725,22.66 C25.0561725,22.66 26.1561725,21.57 26.1561725,20.04 C26.1561725,18.52 25.0561725,17.42 23.4661725,17.42 C21.8861725,17.42 20.7861725,18.52 20.7861725,20.04 C20.7861725,21.57 21.8861725,22.66 23.4661725,22.66 Z M23.4661725,21.77 C22.4661725,21.77 21.7661725,21.08 21.7661725,20.04 C21.7661725,19.01 22.4561725,18.31 23.4761725,18.31 C24.4761725,18.31 25.1761725,19.01 25.1761725,20.04 C25.1761725,21.06 24.4861725,21.77 23.4661725,21.77 Z M22.3761725,16.46 C22.7061725,16.46 22.9561725,16.2 22.9561725,15.88 C22.9561725,15.56 22.7061725,15.31 22.3761725,15.31 C22.0561725,15.31 21.8061725,15.56 21.8061725,15.88 C21.8061725,16.2 22.0561725,16.46 22.3761725,16.46 Z M24.5361725,16.46 C24.8561725,16.46 25.1061725,16.2 25.1061725,15.88 C25.1061725,15.56 24.8561725,15.31 24.5361725,15.31 C24.2161725,15.31 23.9561725,15.56 23.9561725,15.88 C23.9561725,16.2 24.2161725,16.46 24.5361725,16.46 Z" id="ö"></path>
            <path d="M27.6802156,22.56 L28.6302156,22.56 L28.6302156,18.33 L29.8302156,18.33 L29.8302156,17.52 L28.6302156,17.52 L28.6302156,16.78 C28.6302156,16.1 28.8902156,15.86 29.3102156,15.86 C29.5602156,15.86 29.8102156,15.95 29.9802156,16.05 L30.1702156,15.23 C29.9002156,15.1 29.5602156,15 29.1602156,15 C28.2802156,15 27.6802156,15.52 27.6802156,16.73 L27.6802156,17.52 L26.8102156,17.52 L26.8102156,18.33 L27.6802156,18.33 L27.6802156,22.56 Z M31.1302156,22.56 L32.0802156,22.56 L32.0802156,18.33 L33.2802156,18.33 L33.2802156,17.52 L32.0802156,17.52 L32.0802156,16.78 C32.0802156,16.1 32.3402156,15.86 32.7602156,15.86 C33.0102156,15.86 33.2602156,15.95 33.4302156,16.05 L33.6202156,15.23 C33.3502156,15.1 33.0102156,15 32.6102156,15 C31.7302156,15 31.1302156,15.52 31.1302156,16.73 L31.1302156,17.52 L30.2602156,17.52 L30.2602156,18.33 L31.1302156,18.33 L31.1302156,22.56 Z" id="ff"></path>
            <path d="M37.0142587,17.42 C36.2042588,17.42 35.5542588,17.78 35.2142587,18.4 L35.2142587,17.52 L34.2642588,17.52 L34.2642588,22.56 L35.2142587,22.56 L35.2142587,19.78 C35.2142587,18.88 35.8042588,18.28 36.6742587,18.28 C37.4642587,18.28 37.8642587,18.77 37.8642587,19.75 L37.8642587,22.56 L38.8142588,22.56 L38.8142588,19.43 C38.8142588,18.1 38.1642588,17.42 37.0142587,17.42 Z" id="n"></path>
            <path d="M44.9183019,20.06 C44.9183019,18.5 43.9483019,17.42 42.5283019,17.42 C41.0983019,17.42 40.0183019,18.52 40.0183019,20.05 C40.0183019,21.52 41.0383019,22.66 42.6583019,22.66 C43.5483019,22.66 44.2783019,22.36 44.7283019,21.99 L44.4783019,21.21 C44.0783019,21.55 43.4583019,21.83 42.7383019,21.83 C41.7083019,21.83 41.0383019,21.22 40.9783019,20.19 L44.9183019,20.19 L44.9183019,20.06 Z M41.0183019,19.51 C41.1783019,18.73 41.7883019,18.2 42.5283019,18.2 C43.2883019,18.2 43.8383019,18.74 43.9383019,19.51 L41.0183019,19.51 Z" id="e"></path>
            <path d="M52.3863881,15.04 L52.3863881,18.42 C52.0263881,17.75 51.3363881,17.42 50.5563881,17.42 C49.1463881,17.42 48.1263881,18.51 48.1263881,20.05 C48.1263881,21.57 49.1363881,22.66 50.5563881,22.66 C51.3263881,22.66 51.9863881,22.36 52.3863881,21.64 L52.3863881,22.57 L53.3363881,22.57 L53.3363881,15.04 L52.3863881,15.04 Z M50.7263881,21.78 C49.7563881,21.78 49.1063881,21.08 49.1063881,20.05 C49.1063881,19 49.7763881,18.3 50.7363881,18.3 C51.7063881,18.3 52.4363881,19.04 52.4363881,20.04 C52.4363881,21.03 51.7063881,21.78 50.7263881,21.78 Z" id="d"></path>
            <path d="M57.0104313,17.42 C56.1504313,17.42 55.4404313,17.71 55.0004313,18.01 L55.2404313,18.8 C55.5704313,18.56 56.1304313,18.23 56.8504313,18.23 C57.7104313,18.23 58.1404313,18.7 58.1404313,19.43 L58.1404313,19.54 C55.6704313,19.56 54.6604313,20.01 54.6604313,21.17 C54.6604313,22.09 55.3004313,22.66 56.3404313,22.66 C57.1904313,22.66 57.8204313,22.29 58.1404313,21.78 L58.1404313,22.56 L59.0904313,22.56 L59.0904313,19.41 C59.0904313,18.05 58.2904313,17.42 57.0104313,17.42 Z M56.6304313,21.93 C55.9904313,21.93 55.6504313,21.61 55.6504313,21.12 C55.6504313,20.47 56.2504313,20.19 58.1404313,20.17 L58.1404313,20.6 C58.1404313,21.54 57.3204313,21.93 56.6304313,21.93 Z" id="a"></path>
            <path d="M62.1844744,22.66 C63.4144744,22.66 64.1244744,22.02 64.1244744,21.08 C64.1244744,20.17 63.4444744,19.83 62.5144744,19.58 C61.9244744,19.42 61.4544744,19.27 61.4544744,18.81 C61.4544744,18.4 61.8244744,18.17 62.3544744,18.17 C62.9044744,18.17 63.4244744,18.39 63.7644744,18.62 L63.9544744,17.84 C63.5744744,17.61 63.0044744,17.42 62.3744744,17.42 C61.2644744,17.42 60.5144744,17.98 60.5144744,18.93 C60.5144744,19.86 61.2444744,20.15 62.0244744,20.39 C62.7744744,20.62 63.1944744,20.76 63.1944744,21.22 C63.1944744,21.66 62.8244744,21.91 62.2344744,21.91 C61.6144744,21.91 60.9944744,21.66 60.6044744,21.34 L60.3744744,22.13 C60.7644744,22.45 61.4944744,22.66 62.1844744,22.66 Z" id="s"></path>
            <path d="M69.8825606,22.66 C71.3125606,22.66 72.2825606,21.9 72.2825606,20.56 C72.2825606,19.27 71.3825606,18.95 70.2825606,18.54 C69.3925606,18.21 68.7925606,17.95 68.7925606,17.26 C68.7925606,16.65 69.3025606,16.27 70.0925606,16.27 C70.6725606,16.27 71.3225606,16.47 71.7925606,16.74 L72.0625606,15.83 C71.5825606,15.56 70.8425606,15.35 70.1125606,15.35 C68.7225606,15.35 67.7725606,16.11 67.7725606,17.35 C67.7725606,18.54 68.6525606,19 69.7425606,19.4 C70.7125606,19.76 71.2625606,19.97 71.2625606,20.66 C71.2625606,21.36 70.7725606,21.74 69.9525606,21.74 C69.1825606,21.74 68.4125606,21.42 67.8825606,20.99 L67.6025606,21.95 C68.2125606,22.4 69.0425606,22.66 69.8825606,22.66 Z" id="S"></path>
            <path d="M75.3166037,22.66 C75.8466037,22.66 76.3066038,22.49 76.5766038,22.29 L76.4166038,21.5 C76.2066037,21.63 75.8866038,21.79 75.5266038,21.79 C75.1066038,21.79 74.8666038,21.54 74.8666038,21.04 L74.8666038,18.33 L76.2866038,18.33 L76.2866038,17.52 L74.8666038,17.52 L74.8666038,15.94 L73.9166038,16.07 L73.9166038,17.52 L73.1866038,17.52 L73.1866038,18.33 L73.9166038,18.33 L73.9166038,21.16 C73.9166038,22.17 74.4666038,22.66 75.3166037,22.66 Z" id="t"></path>
            <path d="M79.6806469,22.66 C81.2706469,22.66 82.3706469,21.57 82.3706469,20.04 C82.3706469,18.52 81.2706469,17.42 79.6806469,17.42 C78.1006469,17.42 77.0006469,18.52 77.0006469,20.04 C77.0006469,21.57 78.1006469,22.66 79.6806469,22.66 Z M79.6806469,21.77 C78.6806469,21.77 77.9806469,21.08 77.9806469,20.04 C77.9806469,19.01 78.6706469,18.31 79.6906469,18.31 C80.6906469,18.31 81.3906469,19.01 81.3906469,20.04 C81.3906469,21.06 80.7006469,21.77 79.6806469,21.77 Z" id="o"></path>
            <path d="M83.89469,22.56 L84.84469,22.56 L84.84469,18.33 L86.04469,18.33 L86.04469,17.52 L84.84469,17.52 L84.84469,16.78 C84.84469,16.1 85.10469,15.86 85.52469,15.86 C85.77469,15.86 86.02469,15.95 86.19469,16.05 L86.38469,15.23 C86.11469,15.1 85.77469,15 85.37469,15 C84.49469,15 83.89469,15.52 83.89469,16.73 L83.89469,17.52 L83.02469,17.52 L83.02469,18.33 L83.89469,18.33 L83.89469,22.56 Z M87.34469,22.56 L88.29469,22.56 L88.29469,18.33 L89.49469,18.33 L89.49469,17.52 L88.29469,17.52 L88.29469,16.78 C88.29469,16.1 88.55469,15.86 88.97469,15.86 C89.22469,15.86 89.47469,15.95 89.64469,16.05 L89.83469,15.23 C89.56469,15.1 89.22469,15 88.82469,15 C87.94469,15 87.34469,15.52 87.34469,16.73 L87.34469,17.52 L86.47469,17.52 L86.47469,18.33 L87.34469,18.33 L87.34469,22.56 Z" id="ff"></path>
            <path d="M94.3487331,15.04 L94.3487331,18.42 C93.9887331,17.75 93.2987331,17.42 92.5187331,17.42 C91.1087331,17.42 90.0887331,18.51 90.0887331,20.05 C90.0887331,21.57 91.0987331,22.66 92.5187331,22.66 C93.2887331,22.66 93.9487331,22.36 94.3487331,21.64 L94.3487331,22.57 L95.2987331,22.57 L95.2987331,15.04 L94.3487331,15.04 Z M92.6887331,21.78 C91.7187331,21.78 91.0687331,21.08 91.0687331,20.05 C91.0687331,19 91.7387331,18.3 92.6987331,18.3 C93.6687331,18.3 94.3987331,19.04 94.3987331,20.04 C94.3987331,21.03 93.6687331,21.78 92.6887331,21.78 Z" id="d"></path>
            <path d="M98.9727762,17.42 C98.1127762,17.42 97.4027762,17.71 96.9627762,18.01 L97.2027762,18.8 C97.5327762,18.56 98.0927762,18.23 98.8127762,18.23 C99.6727762,18.23 100.102776,18.7 100.102776,19.43 L100.102776,19.54 C97.6327762,19.56 96.6227762,20.01 96.6227762,21.17 C96.6227762,22.09 97.2627762,22.66 98.3027762,22.66 C99.1527762,22.66 99.7827762,22.29 100.102776,21.78 L100.102776,22.56 L101.052776,22.56 L101.052776,19.41 C101.052776,18.05 100.252776,17.42 98.9727762,17.42 Z M98.5927762,21.93 C97.9527762,21.93 97.6127762,21.61 97.6127762,21.12 C97.6127762,20.47 98.2127762,20.19 100.102776,20.17 L100.102776,20.6 C100.102776,21.54 99.2827762,21.93 98.5927762,21.93 Z" id="a"></path>
            <path d="M104.786819,22.66 C105.536819,22.66 106.176819,22.42 106.616819,22.1 L106.386819,21.29 C105.946819,21.59 105.396819,21.79 104.866819,21.79 C103.896819,21.79 103.236819,21.08 103.236819,20.04 C103.236819,19 103.906819,18.3 104.896819,18.3 C105.436819,18.3 105.906819,18.5 106.256819,18.76 L106.556819,17.93 C106.136819,17.65 105.566819,17.42 104.846819,17.42 C103.326819,17.42 102.246819,18.49 102.246819,20.06 C102.246819,21.61 103.306819,22.66 104.786819,22.66 Z" id="c"></path>
            <path d="M110.480862,17.41 C109.660862,17.41 109.020862,17.77 108.690862,18.38 L108.690862,15.04 L107.740862,15.04 L107.740862,22.56 L108.690862,22.56 L108.690862,19.76 C108.690862,18.87 109.300862,18.27 110.150862,18.27 C110.940862,18.27 111.340862,18.76 111.340862,19.74 L111.340862,22.56 L112.290862,22.56 L112.290862,19.42 C112.290862,18.08 111.630862,17.41 110.480862,17.41 Z" id="h"></path>
            <path d="M120.158949,15.04 L120.158949,18.42 C119.798949,17.75 119.108949,17.42 118.328949,17.42 C116.918949,17.42 115.898949,18.51 115.898949,20.05 C115.898949,21.57 116.908949,22.66 118.328949,22.66 C119.098949,22.66 119.758949,22.36 120.158949,21.64 L120.158949,22.57 L121.108949,22.57 L121.108949,15.04 L120.158949,15.04 Z M118.498949,21.78 C117.528949,21.78 116.878949,21.08 116.878949,20.05 C116.878949,19 117.548949,18.3 118.508949,18.3 C119.478949,18.3 120.208949,19.04 120.208949,20.04 C120.208949,21.03 119.478949,21.78 118.498949,21.78 Z" id="d"></path>
            <path d="M127.232992,20.06 C127.232992,18.5 126.262992,17.42 124.842992,17.42 C123.412992,17.42 122.332992,18.52 122.332992,20.05 C122.332992,21.52 123.352992,22.66 124.972992,22.66 C125.862992,22.66 126.592992,22.36 127.042992,21.99 L126.792992,21.21 C126.392992,21.55 125.772992,21.83 125.052992,21.83 C124.022992,21.83 123.352992,21.22 123.292992,20.19 L127.232992,20.19 L127.232992,20.06 Z M123.332992,19.51 C123.492992,18.73 124.102992,18.2 124.842992,18.2 C125.602992,18.2 126.152992,18.74 126.252992,19.51 L123.332992,19.51 Z" id="e"></path>
            <path d="M129.937035,22.66 C131.167035,22.66 131.877035,22.02 131.877035,21.08 C131.877035,20.17 131.197035,19.83 130.267035,19.58 C129.677035,19.42 129.207035,19.27 129.207035,18.81 C129.207035,18.4 129.577035,18.17 130.107035,18.17 C130.657035,18.17 131.177035,18.39 131.517035,18.62 L131.707035,17.84 C131.327035,17.61 130.757035,17.42 130.127035,17.42 C129.017035,17.42 128.267035,17.98 128.267035,18.93 C128.267035,19.86 128.997035,20.15 129.777035,20.39 C130.527035,20.62 130.947035,20.76 130.947035,21.22 C130.947035,21.66 130.577035,21.91 129.987035,21.91 C129.367035,21.91 128.747035,21.66 128.357035,21.34 L128.127035,22.13 C128.517035,22.45 129.247035,22.66 129.937035,22.66 Z" id="s"></path>
            <path d="M140.355121,22.56 L141.435121,22.56 L138.745121,15.46 L137.645121,15.46 L134.965121,22.56 L136.005121,22.56 L136.795121,20.4 L139.565121,20.4 L140.355121,22.56 Z M137.095121,19.56 L138.175121,16.6 L139.255121,19.56 L137.095121,19.56 Z" id="A"></path>
            <path d="M145.479164,17.52 L144.089164,21.23 L142.529164,17.52 L141.489164,17.52 L143.599164,22.33 L143.329164,22.95 C143.039164,23.63 142.689164,23.82 142.179164,23.82 C142.019164,23.82 141.879164,23.79 141.769164,23.75 L141.639164,24.59 C141.869164,24.67 142.119164,24.7 142.339164,24.7 C143.239164,24.7 143.799164,24.22 144.189164,23.24 L146.479164,17.52 L145.479164,17.52 Z" id="y"></path>
            <path d="M151.013207,17.52 L151.013207,18.41 C150.603207,17.77 150.003207,17.42 149.193207,17.42 C147.743207,17.42 146.753207,18.53 146.753207,20.01 C146.753207,21.5 147.773207,22.56 149.193207,22.56 C149.983207,22.56 150.623207,22.24 151.013207,21.57 L151.013207,22.38 C151.013207,23.39 150.343207,23.89 149.303207,23.89 C148.453207,23.89 147.843207,23.59 147.403207,23.2 L147.133207,24.1 C147.643207,24.48 148.303207,24.76 149.303207,24.76 C150.863207,24.76 151.963207,23.97 151.963207,22.39 L151.963207,17.52 L151.013207,17.52 Z M149.393207,21.71 C148.413207,21.71 147.723207,21 147.723207,20 C147.723207,19.02 148.383207,18.26 149.383207,18.26 C150.353207,18.26 151.043207,19.07 151.043207,19.98 C151.043207,20.96 150.383207,21.71 149.393207,21.71 Z" id="g"></path>
            <path d="M155.867251,22.66 C157.457251,22.66 158.557251,21.57 158.557251,20.04 C158.557251,18.52 157.457251,17.42 155.867251,17.42 C154.287251,17.42 153.187251,18.52 153.187251,20.04 C153.187251,21.57 154.287251,22.66 155.867251,22.66 Z M155.867251,21.77 C154.867251,21.77 154.167251,21.08 154.167251,20.04 C154.167251,19.01 154.857251,18.31 155.877251,18.31 C156.877251,18.31 157.577251,19.01 157.577251,20.04 C157.577251,21.06 156.887251,21.77 155.867251,21.77 Z" id="o"></path>
            <polygon id="X" points="167.675337 22.56 165.275337 18.94 167.585337 15.46 166.495337 15.46 164.725337 18.15 163.015337 15.46 161.825337 15.46 164.125337 18.96 161.755337 22.56 162.885337 22.56 164.685337 19.76 166.485337 22.56"></polygon>
            <path d="M175.923423,22.56 L177.003423,22.56 L174.313423,15.46 L173.213423,15.46 L170.533423,22.56 L171.573423,22.56 L172.363423,20.4 L175.133423,20.4 L175.923423,22.56 Z M172.663423,19.56 L173.743423,16.6 L174.823423,19.56 L172.663423,19.56 Z" id="A"></path>
            <path d="M178.467466,16.54 C178.827466,16.54 179.097466,16.26 179.097466,15.9 C179.097466,15.54 178.827466,15.26 178.467466,15.26 C178.107466,15.26 177.827466,15.54 177.827466,15.9 C177.827466,16.26 178.107466,16.54 178.467466,16.54 Z M177.977466,22.56 L178.927466,22.56 L178.927466,17.52 L177.977466,17.52 L177.977466,22.56 Z" id="i"></path>
            <path d="M182.771509,17.41 C182.241509,17.41 181.791509,17.67 181.501509,18.38 L181.501509,17.52 L180.561509,17.52 L180.561509,22.56 L181.501509,22.56 L181.501509,20.01 C181.501509,19 181.881509,18.34 182.691509,18.34 C182.881509,18.34 183.071509,18.39 183.211509,18.45 L183.401509,17.53 C183.231509,17.46 183.001509,17.41 182.771509,17.41 Z" id="r"></path>
            <path d="M184.305552,22.69 C184.655552,22.69 184.945552,22.4 184.945552,22.05 C184.945552,21.69 184.655552,21.41 184.305552,21.41 C183.945552,21.41 183.665552,21.69 183.665552,22.05 C183.665552,22.4 183.945552,22.69 184.305552,22.69 Z" id="."></path>
            <polygon id="L" points="190.123639 21.63 190.123639 15.46 189.093639 15.46 189.093639 22.56 193.153639 22.56 193.153639 21.63"></polygon>
            <path d="M196.217682,17.42 C195.357682,17.42 194.647682,17.71 194.207682,18.01 L194.447682,18.8 C194.777682,18.56 195.337682,18.23 196.057682,18.23 C196.917682,18.23 197.347682,18.7 197.347682,19.43 L197.347682,19.54 C194.877682,19.56 193.867682,20.01 193.867682,21.17 C193.867682,22.09 194.507682,22.66 195.547682,22.66 C196.397682,22.66 197.027682,22.29 197.347682,21.78 L197.347682,22.56 L198.297682,22.56 L198.297682,19.41 C198.297682,18.05 197.497682,17.42 196.217682,17.42 Z M195.837682,21.93 C195.197682,21.93 194.857682,21.61 194.857682,21.12 C194.857682,20.47 195.457682,20.19 197.347682,20.17 L197.347682,20.6 C197.347682,21.54 196.527682,21.93 195.837682,21.93 Z" id="a"></path>
            <path d="M201.391725,22.66 C202.621725,22.66 203.331725,22.02 203.331725,21.08 C203.331725,20.17 202.651725,19.83 201.721725,19.58 C201.131725,19.42 200.661725,19.27 200.661725,18.81 C200.661725,18.4 201.031725,18.17 201.561725,18.17 C202.111725,18.17 202.631725,18.39 202.971725,18.62 L203.161725,17.84 C202.781725,17.61 202.211725,17.42 201.581725,17.42 C200.471725,17.42 199.721725,17.98 199.721725,18.93 C199.721725,19.86 200.451725,20.15 201.231725,20.39 C201.981725,20.62 202.401725,20.76 202.401725,21.22 C202.401725,21.66 202.031725,21.91 201.441725,21.91 C200.821725,21.91 200.201725,21.66 199.811725,21.34 L199.581725,22.13 C199.971725,22.45 200.701725,22.66 201.391725,22.66 Z" id="s"></path>
            <path d="M206.185768,22.66 C207.415768,22.66 208.125768,22.02 208.125768,21.08 C208.125768,20.17 207.445768,19.83 206.515768,19.58 C205.925768,19.42 205.455768,19.27 205.455768,18.81 C205.455768,18.4 205.825768,18.17 206.355768,18.17 C206.905768,18.17 207.425768,18.39 207.765768,18.62 L207.955768,17.84 C207.575768,17.61 207.005768,17.42 206.375768,17.42 C205.265768,17.42 204.515768,17.98 204.515768,18.93 C204.515768,19.86 205.245768,20.15 206.025768,20.39 C206.775768,20.62 207.195768,20.76 207.195768,21.22 C207.195768,21.66 206.825768,21.91 206.235768,21.91 C205.615768,21.91 204.995768,21.66 204.605768,21.34 L204.375768,22.13 C204.765768,22.45 205.495768,22.66 206.185768,22.66 Z" id="s"></path>
            <path d="M213.883854,22.66 C215.313854,22.66 216.283854,21.9 216.283854,20.56 C216.283854,19.27 215.383854,18.95 214.283854,18.54 C213.393854,18.21 212.793854,17.95 212.793854,17.26 C212.793854,16.65 213.303854,16.27 214.093854,16.27 C214.673854,16.27 215.323854,16.47 215.793854,16.74 L216.063854,15.83 C215.583854,15.56 214.843854,15.35 214.113854,15.35 C212.723854,15.35 211.773854,16.11 211.773854,17.35 C211.773854,18.54 212.653854,19 213.743854,19.4 C214.713854,19.76 215.263854,19.97 215.263854,20.66 C215.263854,21.36 214.773854,21.74 213.953854,21.74 C213.183854,21.74 212.413854,21.42 211.883854,20.99 L211.603854,21.95 C212.213854,22.4 213.043854,22.66 213.883854,22.66 Z" id="S"></path>
            <path d="M219.947897,22.66 C221.537897,22.66 222.637897,21.57 222.637897,20.04 C222.637897,18.52 221.537897,17.42 219.947897,17.42 C218.367897,17.42 217.267897,18.52 217.267897,20.04 C217.267897,21.57 218.367897,22.66 219.947897,22.66 Z M219.947897,21.77 C218.947897,21.77 218.247897,21.08 218.247897,20.04 C218.247897,19.01 218.937897,18.31 219.957897,18.31 C220.957897,18.31 221.657897,19.01 221.657897,20.04 C221.657897,21.06 220.967897,21.77 219.947897,21.77 Z" id="o"></path>
            <path d="M226.631941,17.42 C225.821941,17.42 225.171941,17.78 224.831941,18.4 L224.831941,17.52 L223.881941,17.52 L223.881941,22.56 L224.831941,22.56 L224.831941,19.78 C224.831941,18.88 225.421941,18.28 226.291941,18.28 C227.081941,18.28 227.481941,18.77 227.481941,19.75 L227.481941,22.56 L228.431941,22.56 L228.431941,19.43 C228.431941,18.1 227.781941,17.42 226.631941,17.42 Z" id="n"></path>
            <path d="M232.775984,17.42 C231.965984,17.42 231.315984,17.78 230.975984,18.4 L230.975984,17.52 L230.025984,17.52 L230.025984,22.56 L230.975984,22.56 L230.975984,19.78 C230.975984,18.88 231.565984,18.28 232.435984,18.28 C233.225984,18.28 233.625984,18.77 233.625984,19.75 L233.625984,22.56 L234.575984,22.56 L234.575984,19.43 C234.575984,18.1 233.925984,17.42 232.775984,17.42 Z" id="n"></path>
            <path d="M240.680027,20.06 C240.680027,18.5 239.710027,17.42 238.290027,17.42 C236.860027,17.42 235.780027,18.52 235.780027,20.05 C235.780027,21.52 236.800027,22.66 238.420027,22.66 C239.310027,22.66 240.040027,22.36 240.490027,21.99 L240.240027,21.21 C239.840027,21.55 239.220027,21.83 238.500027,21.83 C237.470027,21.83 236.800027,21.22 236.740027,20.19 L240.680027,20.19 L240.680027,20.06 Z M236.780027,19.51 C236.940027,18.73 237.550027,18.2 238.290027,18.2 C239.050027,18.2 239.600027,18.74 239.700027,19.51 L236.780027,19.51 Z" id="e"></path>
            <polygon id="," points="241.36407 23.98 242.24407 23.98 243.24407 21.5 242.22407 21.5"></polygon>
            <polygon id="W" points="255.102156 15.46 253.552156 21.11 251.892156 15.46 250.872156 15.46 249.202156 21.15 247.632156 15.46 246.532156 15.46 248.582156 22.56 249.642156 22.56 251.332156 16.92 253.012156 22.56 254.072156 22.56 256.132156 15.46"></polygon>
            <path d="M257.596199,16.54 C257.956199,16.54 258.226199,16.26 258.226199,15.9 C258.226199,15.54 257.956199,15.26 257.596199,15.26 C257.236199,15.26 256.956199,15.54 256.956199,15.9 C256.956199,16.26 257.236199,16.54 257.596199,16.54 Z M257.106199,22.56 L258.056199,22.56 L258.056199,17.52 L257.106199,17.52 L257.106199,22.56 Z" id="i"></path>
            <path d="M262.440242,17.42 C261.630242,17.42 260.980242,17.78 260.640242,18.4 L260.640242,17.52 L259.690242,17.52 L259.690242,22.56 L260.640242,22.56 L260.640242,19.78 C260.640242,18.88 261.230242,18.28 262.100242,18.28 C262.890242,18.28 263.290242,18.77 263.290242,19.75 L263.290242,22.56 L264.240242,22.56 L264.240242,19.43 C264.240242,18.1 263.590242,17.42 262.440242,17.42 Z" id="n"></path>
            <path d="M269.704286,15.04 L269.704286,18.42 C269.344286,17.75 268.654286,17.42 267.874286,17.42 C266.464286,17.42 265.444286,18.51 265.444286,20.05 C265.444286,21.57 266.454286,22.66 267.874286,22.66 C268.644286,22.66 269.304286,22.36 269.704286,21.64 L269.704286,22.57 L270.654286,22.57 L270.654286,15.04 L269.704286,15.04 Z M268.044286,21.78 C267.074286,21.78 266.424286,21.08 266.424286,20.05 C266.424286,19 267.094286,18.3 268.054286,18.3 C269.024286,18.3 269.754286,19.04 269.754286,20.04 C269.754286,21.03 269.024286,21.78 268.044286,21.78 Z" id="d"></path>
            <path d="M278.222372,17.52 L278.222372,20.31 C278.222372,21.2 277.622372,21.81 276.752372,21.81 C275.962372,21.81 275.562372,21.32 275.562372,20.34 L275.562372,17.52 L274.612372,17.52 L274.612372,20.66 C274.612372,21.99 275.282372,22.66 276.402372,22.66 C277.232372,22.66 277.882372,22.3 278.222372,21.68 L278.222372,22.56 L279.172372,22.56 L279.172372,17.52 L278.222372,17.52 Z" id="u"></path>
            <path d="M283.556415,17.42 C282.746415,17.42 282.096415,17.78 281.756415,18.4 L281.756415,17.52 L280.806415,17.52 L280.806415,22.56 L281.756415,22.56 L281.756415,19.78 C281.756415,18.88 282.346415,18.28 283.216415,18.28 C284.006415,18.28 284.406415,18.77 284.406415,19.75 L284.406415,22.56 L285.356415,22.56 L285.356415,19.43 C285.356415,18.1 284.706415,17.42 283.556415,17.42 Z" id="n"></path>
            <path d="M290.820458,15.04 L290.820458,18.42 C290.460458,17.75 289.770458,17.42 288.990458,17.42 C287.580458,17.42 286.560458,18.51 286.560458,20.05 C286.560458,21.57 287.570458,22.66 288.990458,22.66 C289.760458,22.66 290.420458,22.36 290.820458,21.64 L290.820458,22.57 L291.770458,22.57 L291.770458,15.04 L290.820458,15.04 Z M289.160458,21.78 C288.190458,21.78 287.540458,21.08 287.540458,20.05 C287.540458,19 288.210458,18.3 289.170458,18.3 C290.140458,18.3 290.870458,19.04 290.870458,20.04 C290.870458,21.03 290.140458,21.78 289.160458,21.78 Z" id="d"></path>
            <polygon id="L" points="1.2 36.63 1.2 30.46 0.17 30.46 0.17 37.56 4.23 37.56 4.23 36.63"></polygon>
            <path d="M5.72404312,31.54 C6.08404312,31.54 6.35404312,31.26 6.35404312,30.9 C6.35404312,30.54 6.08404312,30.26 5.72404312,30.26 C5.36404312,30.26 5.08404312,30.54 5.08404312,30.9 C5.08404312,31.26 5.36404312,31.54 5.72404312,31.54 Z M5.23404312,37.56 L6.18404312,37.56 L6.18404312,32.52 L5.23404312,32.52 L5.23404312,37.56 Z" id="i"></path>
            <path d="M9.96808625,37.66 C10.7180862,37.66 11.3580862,37.42 11.7980863,37.1 L11.5680863,36.29 C11.1280862,36.59 10.5780862,36.79 10.0480863,36.79 C9.07808625,36.79 8.41808625,36.08 8.41808625,35.04 C8.41808625,34 9.08808625,33.3 10.0780862,33.3 C10.6180863,33.3 11.0880863,33.5 11.4380862,33.76 L11.7380862,32.93 C11.3180863,32.65 10.7480863,32.42 10.0280863,32.42 C8.50808625,32.42 7.42808625,33.49 7.42808625,35.06 C7.42808625,36.61 8.48808625,37.66 9.96808625,37.66 Z" id="c"></path>
            <path d="M15.6621294,32.41 C14.8421294,32.41 14.2021294,32.77 13.8721294,33.38 L13.8721294,30.04 L12.9221294,30.04 L12.9221294,37.56 L13.8721294,37.56 L13.8721294,34.76 C13.8721294,33.87 14.4821294,33.27 15.3321294,33.27 C16.1221294,33.27 16.5221294,33.76 16.5221294,34.74 L16.5221294,37.56 L17.4721294,37.56 L17.4721294,34.42 C17.4721294,33.08 16.8121294,32.41 15.6621294,32.41 Z" id="h"></path>
            <path d="M20.6461725,37.66 C21.1761725,37.66 21.6361725,37.49 21.9061725,37.29 L21.7461725,36.5 C21.5361725,36.63 21.2161725,36.79 20.8561725,36.79 C20.4361725,36.79 20.1961725,36.54 20.1961725,36.04 L20.1961725,33.33 L21.6161725,33.33 L21.6161725,32.52 L20.1961725,32.52 L20.1961725,30.94 L19.2461725,31.07 L19.2461725,32.52 L18.5161725,32.52 L18.5161725,33.33 L19.2461725,33.33 L19.2461725,36.16 C19.2461725,37.17 19.7961725,37.66 20.6461725,37.66 Z" id="t"></path>
            <path d="M27.9042587,32.41 C27.0842588,32.41 26.4442587,32.77 26.1142587,33.38 L26.1142587,30.04 L25.1642587,30.04 L25.1642587,37.56 L26.1142587,37.56 L26.1142587,34.76 C26.1142587,33.87 26.7242587,33.27 27.5742587,33.27 C28.3642587,33.27 28.7642587,33.76 28.7642587,34.74 L28.7642587,37.56 L29.7142587,37.56 L29.7142587,34.42 C29.7142587,33.08 29.0542587,32.41 27.9042587,32.41 Z" id="h"></path>
            <path d="M31.7983019,31.54 C32.1583019,31.54 32.4283019,31.26 32.4283019,30.9 C32.4283019,30.54 32.1583019,30.26 31.7983019,30.26 C31.4383019,30.26 31.1583019,30.54 31.1583019,30.9 C31.1583019,31.26 31.4383019,31.54 31.7983019,31.54 Z M31.3083019,37.56 L32.2583019,37.56 L32.2583019,32.52 L31.3083019,32.52 L31.3083019,37.56 Z" id="i"></path>
            <path d="M36.642345,32.42 C35.832345,32.42 35.182345,32.78 34.842345,33.4 L34.842345,32.52 L33.892345,32.52 L33.892345,37.56 L34.842345,37.56 L34.842345,34.78 C34.842345,33.88 35.432345,33.28 36.302345,33.28 C37.092345,33.28 37.492345,33.77 37.492345,34.75 L37.492345,37.56 L38.442345,37.56 L38.442345,34.43 C38.442345,33.1 37.792345,32.42 36.642345,32.42 Z" id="n"></path>
            <path d="M44.5463881,35.06 C44.5463881,33.5 43.5763881,32.42 42.1563881,32.42 C40.7263881,32.42 39.6463881,33.52 39.6463881,35.05 C39.6463881,36.52 40.6663881,37.66 42.2863881,37.66 C43.1763881,37.66 43.9063881,37.36 44.3563881,36.99 L44.1063881,36.21 C43.7063881,36.55 43.0863881,36.83 42.3663881,36.83 C41.3363881,36.83 40.6663881,36.22 40.6063881,35.19 L44.5463881,35.19 L44.5463881,35.06 Z M40.6463881,34.51 C40.8063881,33.73 41.4163881,33.2 42.1563881,33.2 C42.9163881,33.2 43.4663881,33.74 43.5663881,34.51 L40.6463881,34.51 Z" id="e"></path>
            <path d="M46.2304312,31.54 C46.5904312,31.54 46.8604312,31.26 46.8604312,30.9 C46.8604312,30.54 46.5904312,30.26 46.2304312,30.26 C45.8704312,30.26 45.5904312,30.54 45.5904312,30.9 C45.5904312,31.26 45.8704312,31.54 46.2304312,31.54 Z M45.7404313,37.56 L46.6904312,37.56 L46.6904312,32.52 L45.7404313,32.52 L45.7404313,37.56 Z" id="i"></path>
            <path d="M51.0744744,32.42 C50.2644744,32.42 49.6144744,32.78 49.2744744,33.4 L49.2744744,32.52 L48.3244744,32.52 L48.3244744,37.56 L49.2744744,37.56 L49.2744744,34.78 C49.2744744,33.88 49.8644744,33.28 50.7344744,33.28 C51.5244744,33.28 51.9244744,33.77 51.9244744,34.75 L51.9244744,37.56 L52.8744744,37.56 L52.8744744,34.43 C52.8744744,33.1 52.2244744,32.42 51.0744744,32.42 Z" id="n"></path>
            <polygon id="," points="53.9585175 38.98 54.8385175 38.98 55.8385175 36.5 54.8185175 36.5"></polygon>
            <polygon id="w" points="65.7966038 32.52 64.6166037 36.38 63.3766038 32.52 62.5566038 32.52 61.3266038 36.42 60.1266038 32.52 59.0766038 32.52 60.7666038 37.56 61.7466037 37.56 62.9566037 33.8 64.1766037 37.56 65.1566038 37.56 66.7966038 32.52"></polygon>
            <path d="M72.1706469,35.06 C72.1706469,33.5 71.2006469,32.42 69.7806469,32.42 C68.3506469,32.42 67.2706469,33.52 67.2706469,35.05 C67.2706469,36.52 68.2906469,37.66 69.9106469,37.66 C70.8006469,37.66 71.5306469,37.36 71.9806469,36.99 L71.7306469,36.21 C71.3306469,36.55 70.7106469,36.83 69.9906469,36.83 C68.9606469,36.83 68.2906469,36.22 68.2306469,35.19 L72.1706469,35.19 L72.1706469,35.06 Z M68.2706469,34.51 C68.4306469,33.73 69.0406469,33.2 69.7806469,33.2 C70.5406469,33.2 71.0906469,33.74 71.1906469,34.51 L68.2706469,34.51 Z" id="e"></path>
            <path d="M76.11469,32.42 C75.30469,32.42 74.65469,32.78 74.31469,33.4 L74.31469,32.52 L73.36469,32.52 L73.36469,37.56 L74.31469,37.56 L74.31469,34.78 C74.31469,33.88 74.90469,33.28 75.77469,33.28 C76.56469,33.28 76.96469,33.77 76.96469,34.75 L76.96469,37.56 L77.91469,37.56 L77.91469,34.43 C77.91469,33.1 77.26469,32.42 76.11469,32.42 Z" id="n"></path>
            <path d="M82.2587331,32.42 C81.4487331,32.42 80.7987331,32.78 80.4587331,33.4 L80.4587331,32.52 L79.5087331,32.52 L79.5087331,37.56 L80.4587331,37.56 L80.4587331,34.78 C80.4587331,33.88 81.0487331,33.28 81.9187331,33.28 C82.7087331,33.28 83.1087331,33.77 83.1087331,34.75 L83.1087331,37.56 L84.0587331,37.56 L84.0587331,34.43 C84.0587331,33.1 83.4087331,32.42 82.2587331,32.42 Z" id="n"></path>
            <path d="M91.9268194,30.04 L91.9268194,33.42 C91.5668194,32.75 90.8768194,32.42 90.0968194,32.42 C88.6868194,32.42 87.6668194,33.51 87.6668194,35.05 C87.6668194,36.57 88.6768194,37.66 90.0968194,37.66 C90.8668194,37.66 91.5268194,37.36 91.9268194,36.64 L91.9268194,37.57 L92.8768194,37.57 L92.8768194,30.04 L91.9268194,30.04 Z M90.2668194,36.78 C89.2968194,36.78 88.6468194,36.08 88.6468194,35.05 C88.6468194,34 89.3168194,33.3 90.2768194,33.3 C91.2468194,33.3 91.9768194,34.04 91.9768194,35.04 C91.9768194,36.03 91.2468194,36.78 90.2668194,36.78 Z" id="d"></path>
            <path d="M98.0408625,32.52 L98.0408625,35.31 C98.0408625,36.2 97.4408625,36.81 96.5708625,36.81 C95.7808625,36.81 95.3808625,36.32 95.3808625,35.34 L95.3808625,32.52 L94.4308625,32.52 L94.4308625,35.66 C94.4308625,36.99 95.1008625,37.66 96.2208625,37.66 C97.0508625,37.66 97.7008625,37.3 98.0408625,36.68 L98.0408625,37.56 L98.9908625,37.56 L98.9908625,32.52 L98.0408625,32.52 Z" id="u"></path>
            <path d="M106.898949,30.04 L106.898949,33.42 C106.538949,32.75 105.848949,32.42 105.068949,32.42 C103.658949,32.42 102.638949,33.51 102.638949,35.05 C102.638949,36.57 103.648949,37.66 105.068949,37.66 C105.838949,37.66 106.498949,37.36 106.898949,36.64 L106.898949,37.57 L107.848949,37.57 L107.848949,30.04 L106.898949,30.04 Z M105.238949,36.78 C104.268949,36.78 103.618949,36.08 103.618949,35.05 C103.618949,34 104.288949,33.3 105.248949,33.3 C106.218949,33.3 106.948949,34.04 106.948949,35.04 C106.948949,36.03 106.218949,36.78 105.238949,36.78 Z" id="d"></path>
            <path d="M113.012992,32.52 L113.012992,35.31 C113.012992,36.2 112.412992,36.81 111.542992,36.81 C110.752992,36.81 110.352992,36.32 110.352992,35.34 L110.352992,32.52 L109.402992,32.52 L109.402992,35.66 C109.402992,36.99 110.072992,37.66 111.192992,37.66 C112.022992,37.66 112.672992,37.3 113.012992,36.68 L113.012992,37.56 L113.962992,37.56 L113.962992,32.52 L113.012992,32.52 Z" id="u"></path>
            <path d="M117.807035,32.41 C117.277035,32.41 116.827035,32.67 116.537035,33.38 L116.537035,32.52 L115.597035,32.52 L115.597035,37.56 L116.537035,37.56 L116.537035,35.01 C116.537035,34 116.917035,33.34 117.727035,33.34 C117.917035,33.34 118.107035,33.39 118.247035,33.45 L118.437035,32.53 C118.267035,32.46 118.037035,32.41 117.807035,32.41 Z" id="r"></path>
            <path d="M121.301078,37.66 C122.051078,37.66 122.691078,37.42 123.131078,37.1 L122.901078,36.29 C122.461078,36.59 121.911078,36.79 121.381078,36.79 C120.411078,36.79 119.751078,36.08 119.751078,35.04 C119.751078,34 120.421078,33.3 121.411078,33.3 C121.951078,33.3 122.421078,33.5 122.771078,33.76 L123.071078,32.93 C122.651078,32.65 122.081078,32.42 121.361078,32.42 C119.841078,32.42 118.761078,33.49 118.761078,35.06 C118.761078,36.61 119.821078,37.66 121.301078,37.66 Z" id="c"></path>
            <path d="M126.995121,32.41 C126.175121,32.41 125.535121,32.77 125.205121,33.38 L125.205121,30.04 L124.255121,30.04 L124.255121,37.56 L125.205121,37.56 L125.205121,34.76 C125.205121,33.87 125.815121,33.27 126.665121,33.27 C127.455121,33.27 127.855121,33.76 127.855121,34.74 L127.855121,37.56 L128.805121,37.56 L128.805121,34.42 C128.805121,33.08 128.145121,32.41 126.995121,32.41 Z" id="h"></path>
            <path d="M136.673207,30.04 L136.673207,33.42 C136.313207,32.75 135.623207,32.42 134.843207,32.42 C133.433207,32.42 132.413207,33.51 132.413207,35.05 C132.413207,36.57 133.423207,37.66 134.843207,37.66 C135.613207,37.66 136.273207,37.36 136.673207,36.64 L136.673207,37.57 L137.623207,37.57 L137.623207,30.04 L136.673207,30.04 Z M135.013207,36.78 C134.043207,36.78 133.393207,36.08 133.393207,35.05 C133.393207,34 134.063207,33.3 135.023207,33.3 C135.993207,33.3 136.723207,34.04 136.723207,35.04 C136.723207,36.03 135.993207,36.78 135.013207,36.78 Z" id="d"></path>
            <path d="M139.727251,31.54 C140.087251,31.54 140.357251,31.26 140.357251,30.9 C140.357251,30.54 140.087251,30.26 139.727251,30.26 C139.367251,30.26 139.087251,30.54 139.087251,30.9 C139.087251,31.26 139.367251,31.54 139.727251,31.54 Z M139.237251,37.56 L140.187251,37.56 L140.187251,32.52 L139.237251,32.52 L139.237251,37.56 Z" id="i"></path>
            <path d="M146.331294,35.06 C146.331294,33.5 145.361294,32.42 143.941294,32.42 C142.511294,32.42 141.431294,33.52 141.431294,35.05 C141.431294,36.52 142.451294,37.66 144.071294,37.66 C144.961294,37.66 145.691294,37.36 146.141294,36.99 L145.891294,36.21 C145.491294,36.55 144.871294,36.83 144.151294,36.83 C143.121294,36.83 142.451294,36.22 142.391294,35.19 L146.331294,35.19 L146.331294,35.06 Z M142.431294,34.51 C142.591294,33.73 143.201294,33.2 143.941294,33.2 C144.701294,33.2 145.251294,33.74 145.351294,34.51 L142.431294,34.51 Z" id="e"></path>
            <path d="M151.93938,37.66 C153.36938,37.66 154.33938,36.9 154.33938,35.56 C154.33938,34.27 153.43938,33.95 152.33938,33.54 C151.44938,33.21 150.84938,32.95 150.84938,32.26 C150.84938,31.65 151.35938,31.27 152.14938,31.27 C152.72938,31.27 153.37938,31.47 153.84938,31.74 L154.11938,30.83 C153.63938,30.56 152.89938,30.35 152.16938,30.35 C150.77938,30.35 149.82938,31.11 149.82938,32.35 C149.82938,33.54 150.70938,34 151.79938,34.4 C152.76938,34.76 153.31938,34.97 153.31938,35.66 C153.31938,36.36 152.82938,36.74 152.00938,36.74 C151.23938,36.74 150.46938,36.42 149.93938,35.99 L149.65938,36.95 C150.26938,37.4 151.09938,37.66 151.93938,37.66 Z" id="S"></path>
            <path d="M157.373423,37.66 C157.903423,37.66 158.363423,37.49 158.633423,37.29 L158.473423,36.5 C158.263423,36.63 157.943423,36.79 157.583423,36.79 C157.163423,36.79 156.923423,36.54 156.923423,36.04 L156.923423,33.33 L158.343423,33.33 L158.343423,32.52 L156.923423,32.52 L156.923423,30.94 L155.973423,31.07 L155.973423,32.52 L155.243423,32.52 L155.243423,33.33 L155.973423,33.33 L155.973423,36.16 C155.973423,37.17 156.523423,37.66 157.373423,37.66 Z" id="t"></path>
            <path d="M161.507466,32.42 C160.647466,32.42 159.937466,32.71 159.497466,33.01 L159.737466,33.8 C160.067466,33.56 160.627466,33.23 161.347466,33.23 C162.207466,33.23 162.637466,33.7 162.637466,34.43 L162.637466,34.54 C160.167466,34.56 159.157466,35.01 159.157466,36.17 C159.157466,37.09 159.797466,37.66 160.837466,37.66 C161.687466,37.66 162.317466,37.29 162.637466,36.78 L162.637466,37.56 L163.587466,37.56 L163.587466,34.41 C163.587466,33.05 162.787466,32.42 161.507466,32.42 Z M161.127466,36.93 C160.487466,36.93 160.147466,36.61 160.147466,36.12 C160.147466,35.47 160.747466,35.19 162.637466,35.17 L162.637466,35.6 C162.637466,36.54 161.817466,36.93 161.127466,36.93 Z" id="a"></path>
            <path d="M169.041509,30.04 L169.041509,33.42 C168.681509,32.75 167.991509,32.42 167.211509,32.42 C165.801509,32.42 164.781509,33.51 164.781509,35.05 C164.781509,36.57 165.791509,37.66 167.211509,37.66 C167.981509,37.66 168.641509,37.36 169.041509,36.64 L169.041509,37.57 L169.991509,37.57 L169.991509,30.04 L169.041509,30.04 Z M167.381509,36.78 C166.411509,36.78 165.761509,36.08 165.761509,35.05 C165.761509,34 166.431509,33.3 167.391509,33.3 C168.361509,33.3 169.091509,34.04 169.091509,35.04 C169.091509,36.03 168.361509,36.78 167.381509,36.78 Z" id="d"></path>
            <path d="M173.225552,37.66 C173.755552,37.66 174.215552,37.49 174.485552,37.29 L174.325552,36.5 C174.115552,36.63 173.795552,36.79 173.435552,36.79 C173.015552,36.79 172.775552,36.54 172.775552,36.04 L172.775552,33.33 L174.195552,33.33 L174.195552,32.52 L172.775552,32.52 L172.775552,30.94 L171.825552,31.07 L171.825552,32.52 L171.095552,32.52 L171.095552,33.33 L171.825552,33.33 L171.825552,36.16 C171.825552,37.17 172.375552,37.66 173.225552,37.66 Z" id="t"></path>
            <path d="M179.893639,37.66 C180.643639,37.66 181.283639,37.42 181.723639,37.1 L181.493639,36.29 C181.053639,36.59 180.503639,36.79 179.973639,36.79 C179.003639,36.79 178.343639,36.08 178.343639,35.04 C178.343639,34 179.013639,33.3 180.003639,33.3 C180.543639,33.3 181.013639,33.5 181.363639,33.76 L181.663639,32.93 C181.243639,32.65 180.673639,32.42 179.953639,32.42 C178.433639,32.42 177.353639,33.49 177.353639,35.06 C177.353639,36.61 178.413639,37.66 179.893639,37.66 Z" id="c"></path>
            <path d="M185.057682,32.41 C184.527682,32.41 184.077682,32.67 183.787682,33.38 L183.787682,32.52 L182.847682,32.52 L182.847682,37.56 L183.787682,37.56 L183.787682,35.01 C183.787682,34 184.167682,33.34 184.977682,33.34 C185.167682,33.34 185.357682,33.39 185.497682,33.45 L185.687682,32.53 C185.517682,32.46 185.287682,32.41 185.057682,32.41 Z" id="r"></path>
            <path d="M190.111725,32.52 L190.111725,35.31 C190.111725,36.2 189.511725,36.81 188.641725,36.81 C187.851725,36.81 187.451725,36.32 187.451725,35.34 L187.451725,32.52 L186.501725,32.52 L186.501725,35.66 C186.501725,36.99 187.171725,37.66 188.291725,37.66 C189.121725,37.66 189.771725,37.3 190.111725,36.68 L190.111725,37.56 L191.061725,37.56 L191.061725,32.52 L190.111725,32.52 Z" id="u"></path>
            <path d="M193.185768,31.54 C193.545768,31.54 193.815768,31.26 193.815768,30.9 C193.815768,30.54 193.545768,30.26 193.185768,30.26 C192.825768,30.26 192.545768,30.54 192.545768,30.9 C192.545768,31.26 192.825768,31.54 193.185768,31.54 Z M192.695768,37.56 L193.645768,37.56 L193.645768,32.52 L192.695768,32.52 L192.695768,37.56 Z" id="i"></path>
            <path d="M196.789811,37.66 C198.019811,37.66 198.729811,37.02 198.729811,36.08 C198.729811,35.17 198.049811,34.83 197.119811,34.58 C196.529811,34.42 196.059811,34.27 196.059811,33.81 C196.059811,33.4 196.429811,33.17 196.959811,33.17 C197.509811,33.17 198.029811,33.39 198.369811,33.62 L198.559811,32.84 C198.179811,32.61 197.609811,32.42 196.979811,32.42 C195.869811,32.42 195.119811,32.98 195.119811,33.93 C195.119811,34.86 195.849811,35.15 196.629811,35.39 C197.379811,35.62 197.799811,35.76 197.799811,36.22 C197.799811,36.66 197.429811,36.91 196.839811,36.91 C196.219811,36.91 195.599811,36.66 195.209811,36.34 L194.979811,37.13 C195.369811,37.45 196.099811,37.66 196.789811,37.66 Z" id="s"></path>
            <path d="M201.653854,37.66 C202.183854,37.66 202.643854,37.49 202.913854,37.29 L202.753854,36.5 C202.543854,36.63 202.223854,36.79 201.863854,36.79 C201.443854,36.79 201.203854,36.54 201.203854,36.04 L201.203854,33.33 L202.623854,33.33 L202.623854,32.52 L201.203854,32.52 L201.203854,30.94 L200.253854,31.07 L200.253854,32.52 L199.523854,32.52 L199.523854,33.33 L200.253854,33.33 L200.253854,36.16 C200.253854,37.17 200.803854,37.66 201.653854,37.66 Z" id="t"></path>
            <path d="M204.657897,37.69 C205.007897,37.69 205.297897,37.4 205.297897,37.05 C205.297897,36.69 205.007897,36.41 204.657897,36.41 C204.297897,36.41 204.017897,36.69 204.017897,37.05 C204.017897,37.4 204.297897,37.69 204.657897,37.69 Z" id="."></path>
        </g>
    </g>
</svg>