<svg id="Copy" xmlns="http://www.w3.org/2000/svg" width="530.32" height="79.56" viewBox="0 0 530.32 79.56">
  <defs>
    <style>
      .cls-1 {
        fill: #fff;
        fill-rule: evenodd;
      }
    </style>
  </defs>
  <path id="DER_NEUE_TOYOTA_bZ4X" data-name="DER NEUE TOYOTA bZ4X" class="cls-1" d="M3872.95,2662.63h-10.24v32.46h10.24c10.19,0,16.59-6.58,16.59-16.5C3889.54,2669.03,3883.14,2662.63,3872.95,2662.63Zm-0.18,29.35h-6.63v-26.24h6.67c8.18,0,13.26,5.08,13.26,12.89C3886.07,2686.77,3881.04,2691.98,3872.77,2691.98Zm24.48,3.11h18.15v-3.11h-14.72v-11.66h13.94v-3.06h-13.94v-11.52h14.35v-3.11h-17.78v32.46Zm48.27,0-9.55-14.22a9.2,9.2,0,0,0,6.49-8.96c0-5.67-3.93-9.28-10.24-9.28h-9.33v32.46h3.43v-13.58h6.27l8.86,13.58h4.07Zm-13.76-16.5h-5.44v-12.94h5.58c3.61,0,7.09,1.69,7.09,6.35C3938.99,2676.76,3935.42,2678.59,3931.76,2678.59Zm55.46-15.96v27.02l-19.43-27.02h-3.24v32.46h3.38v-27.02l19.43,27.02h3.24v-32.46h-3.38Zm12.83,32.46h18.15v-3.11h-14.72v-11.66h13.94v-3.06h-13.94v-11.52h14.35v-3.11h-17.78v32.46Zm37.51,0.46c7.87,0,12.48-4.99,12.48-12.35v-20.57h-3.42v19.98c0,6.54-3.8,9.65-9.06,9.65s-9.05-3.11-9.05-9.65v-19.98h-3.43v20.57C4025.08,2690.56,4029.65,2695.55,4037.56,2695.55Zm21.72-.46h18.15v-3.11h-14.72v-11.66h13.94v-3.06h-13.94v-11.52h14.35v-3.11h-17.78v32.46Zm57.19-32.46h-21.58v3.11h9.19v29.35h3.43v-29.35h8.96v-3.11Zm19.05,32.92c9.69,0,16.92-7.09,16.92-16.73,0-9.6-7.23-16.64-16.87-16.64-9.69,0-16.92,6.99-16.92,16.68C4118.65,2688.51,4125.88,2695.55,4135.52,2695.55Zm0.05-3.29a13.42,13.42,0,1,1,13.39-13.4A13.039,13.039,0,0,1,4135.57,2692.26Zm44.57-29.63h-3.62l-9.5,16.09-9.56-16.09h-3.84l11.57,19.48v12.98h3.38v-12.98Zm18,32.92c9.69,0,16.92-7.09,16.92-16.73,0-9.6-7.23-16.64-16.87-16.64-9.69,0-16.92,6.99-16.92,16.68C4181.27,2688.51,4188.5,2695.55,4198.14,2695.55Zm0.05-3.29a13.42,13.42,0,1,1,13.39-13.4A13.039,13.039,0,0,1,4198.19,2692.26Zm40.68-29.63h-21.58v3.11h9.19v29.35h3.43v-29.35h8.96v-3.11Zm24.15,32.46h3.56l-12.48-32.46h-3.56l-12.48,32.46h3.47l3.98-10.51h13.53Zm-16.46-13.39,5.71-15.14,5.72,15.14h-11.43Zm50.15-10.02a10.352,10.352,0,0,0-8.96,5.08v-16.05h-3.2v34.38h3.2v-4.62a9.976,9.976,0,0,0,8.69,5.08c6.72,0,11.25-5.08,11.25-11.98C4307.69,2676.71,4303.16,2671.68,4296.71,2671.68Zm-0.54,20.85a8.917,8.917,0,0,1,.09-17.83c5.03,0,8.18,3.89,8.18,8.92C4304.44,2688.83,4301.06,2692.53,4296.17,2692.53Zm19.84-.55,17.37-27.61v-1.74h-21.67v3.11h17.01l-17.47,27.57v1.78h22.31v-3.11h-17.55Zm35.33,3.11h3.39v-7.27h4.75v-2.97h-4.75v-22.22h-2.43l-15.63,23.04v2.15h14.67v7.27Zm-10.88-10.24,10.88-16.18v16.18h-10.88Zm47.93,10.24-11.24-16.55,10.83-15.91h-3.7l-8.96,13.26-8.87-13.26h-3.98l10.84,16.05-11.16,16.41h3.8l9.23-13.71,9.24,13.71h3.97Z" transform="translate(-3858.09 -2616)"/>
  <path id="Vollelektrisch_in_eine_neue_Ära" data-name="Vollelektrisch in eine neue Ära" class="cls-1" d="M3874.46,2621.6l-6.95,18.84-6.98-18.84h-2.44l8.17,21.65h2.41l8.17-21.65h-2.38Zm10.65,21.95a7.955,7.955,0,1,0-8.02-7.95A7.647,7.647,0,0,0,3885.11,2643.55Zm0-2.04a5.915,5.915,0,1,1,5.85-5.91A5.6,5.6,0,0,1,3885.11,2641.51Zm14.98,2.04a5.116,5.116,0,0,0,2.4-.54l-0.33-1.8a4.36,4.36,0,0,1-1.59.39c-0.91,0-1.49-.58-1.49-2.01v-19.27h-2.14v19.58C3896.94,2642.43,3898.16,2643.55,3900.09,2643.55Zm8.17,0a5.163,5.163,0,0,0,2.41-.54l-0.33-1.8a4.36,4.36,0,0,1-1.59.39c-0.91,0-1.49-.58-1.49-2.01v-19.27h-2.14v19.58C3905.12,2642.43,3906.34,2643.55,3908.26,2643.55Zm18.28-8.08c0-4.57-2.93-7.83-7.19-7.83-4.3,0-7.53,3.38-7.53,7.96a7.613,7.613,0,0,0,7.92,7.95,9.572,9.572,0,0,0,6.31-2.19l-0.61-1.89a8.252,8.252,0,0,1-5.58,2.13c-3.5,0-5.79-2.25-5.88-5.85h12.56v-0.28Zm-12.44-1.4a5.377,5.377,0,0,1,5.25-4.54,4.889,4.889,0,0,1,4.94,4.54H3914.1Zm19.31,9.48a5.163,5.163,0,0,0,2.41-.54l-0.34-1.8a4.243,4.243,0,0,1-1.58.39c-0.92,0-1.5-.58-1.5-2.01v-19.27h-2.13v19.58C3930.27,2642.43,3931.49,2643.55,3933.41,2643.55Zm18.28-8.08c0-4.57-2.93-7.83-7.2-7.83-4.3,0-7.53,3.38-7.53,7.96a7.621,7.621,0,0,0,7.93,7.95,9.593,9.593,0,0,0,6.31-2.19l-0.61-1.89a8.252,8.252,0,0,1-5.58,2.13c-3.51,0-5.79-2.25-5.88-5.85h12.56v-0.28Zm-12.44-1.4a5.367,5.367,0,0,1,5.24-4.54,4.876,4.876,0,0,1,4.94,4.54h-10.18Zm16.26,9.18h2.13v-7.9l7.41,7.9h2.93l-7.68-8.08,7.4-7.23h-2.86l-7.2,7.26v-14.88h-2.13v22.93Zm20.43,0.3a6.355,6.355,0,0,0,3.57-1.06l-0.43-1.86a5.257,5.257,0,0,1-2.74.91c-1.37,0-2.17-.79-2.17-2.38v-9.36h4.45v-1.86h-4.45v-4.84l-2.13.36v4.48h-2.17v1.86h2.17v9.61C3972.04,2642.21,3973.62,2643.55,3975.94,2643.55Zm12.35-15.94c-1.74,0-3.08.79-3.96,3.08v-2.75h-2.11v15.31h2.11v-8.14c0-3.14,1.18-5.4,3.75-5.4a4.963,4.963,0,0,1,1.55.31l0.52-2.08A5.023,5.023,0,0,0,3988.29,2627.61Zm5.77-3.02a1.615,1.615,0,1,0-1.61-1.61A1.586,1.586,0,0,0,3994.06,2624.59Zm-1.09,18.66h2.13v-15.31h-2.13v15.31Zm11.28,0.3c3.56,0,5.64-1.86,5.64-4.57,0-2.8-2.26-3.72-4.85-4.45-1.95-.55-3.54-1.1-3.54-2.71,0-1.5,1.28-2.38,3.21-2.38a7.827,7.827,0,0,1,4.23,1.37l0.46-1.89a8.811,8.811,0,0,0-4.63-1.28c-3.21,0-5.4,1.65-5.4,4.39,0,2.84,2.32,3.66,4.63,4.36,2.41,0.76,3.78,1.22,3.78,2.8s-1.31,2.57-3.41,2.57a7.73,7.73,0,0,1-4.88-1.74l-0.58,1.89A8.723,8.723,0,0,0,4004.25,2643.55Zm15.96,0a9.58,9.58,0,0,0,5.64-1.76l-0.55-1.89a8.781,8.781,0,0,1-4.99,1.64c-3.21,0-5.46-2.38-5.46-5.97,0-3.54,2.25-5.92,5.64-5.92a7.247,7.247,0,0,1,4.45,1.56l0.7-1.95a9.039,9.039,0,0,0-5.24-1.62c-4.58,0-7.75,3.26-7.75,7.99S4015.82,2643.55,4020.21,2643.55Zm16.63-15.94a5.959,5.959,0,0,0-5.55,3.11v-10.4h-2.13v22.93h2.13v-8.78a4.785,4.785,0,0,1,4.94-4.91c2.65,0,4.06,1.68,4.06,4.85v8.84h2.13v-9.39C4042.42,2629.65,4040.29,2627.61,4036.84,2627.61Zm20.06-3.02a1.615,1.615,0,1,0-1.62-1.61A1.584,1.584,0,0,0,4056.9,2624.59Zm-1.1,18.66h2.13v-15.31h-2.13v15.31Zm14.81-15.61a6.044,6.044,0,0,0-5.61,3.14v-2.84h-2.13v15.31H4065v-8.72a4.775,4.775,0,0,1,4.94-4.94c2.65,0,4.06,1.68,4.06,4.88v8.78h2.13v-9.36C4076.13,2629.68,4074.03,2627.64,4070.61,2627.64Zm32.28,7.83c0-4.57-2.92-7.83-7.19-7.83-4.3,0-7.53,3.38-7.53,7.96a7.619,7.619,0,0,0,7.92,7.95,9.572,9.572,0,0,0,6.31-2.19l-0.61-1.89a8.225,8.225,0,0,1-5.57,2.13c-3.51,0-5.8-2.25-5.89-5.85h12.56v-0.28Zm-12.44-1.4a5.377,5.377,0,0,1,5.25-4.54,4.889,4.889,0,0,1,4.94,4.54h-10.19Zm17.27-9.48a1.615,1.615,0,1,0-1.62-1.61A1.586,1.586,0,0,0,4107.72,2624.59Zm-1.1,18.66h2.14v-15.31h-2.14v15.31Zm14.82-15.61a6.033,6.033,0,0,0-5.61,3.14v-2.84h-2.14v15.31h2.14v-8.72a4.769,4.769,0,0,1,4.94-4.94c2.65,0,4.05,1.68,4.05,4.88v8.78h2.14v-9.36C4126.96,2629.68,4124.85,2627.64,4121.44,2627.64Zm23.94,7.83c0-4.57-2.93-7.83-7.19-7.83-4.3,0-7.53,3.38-7.53,7.96a7.613,7.613,0,0,0,7.92,7.95,9.572,9.572,0,0,0,6.31-2.19l-0.61-1.89a8.252,8.252,0,0,1-5.58,2.13c-3.5,0-5.79-2.25-5.88-5.85h12.56v-0.28Zm-12.44-1.4a5.377,5.377,0,0,1,5.25-4.54,4.889,4.889,0,0,1,4.94,4.54h-10.19Zm32.25-6.43a6.044,6.044,0,0,0-5.61,3.14v-2.84h-2.13v15.31h2.13v-8.72a4.775,4.775,0,0,1,4.94-4.94c2.65,0,4.06,1.68,4.06,4.88v8.78h2.13v-9.36C4170.71,2629.68,4168.61,2627.64,4165.19,2627.64Zm23.95,7.83c0-4.57-2.93-7.83-7.2-7.83-4.3,0-7.53,3.38-7.53,7.96a7.621,7.621,0,0,0,7.93,7.95,9.593,9.593,0,0,0,6.31-2.19l-0.61-1.89a8.252,8.252,0,0,1-5.58,2.13c-3.51,0-5.79-2.25-5.89-5.85h12.57v-0.28Zm-12.44-1.4a5.359,5.359,0,0,1,5.24-4.54,4.889,4.889,0,0,1,4.94,4.54H4176.7Zm27.21-6.13v8.72a4.782,4.782,0,0,1-4.94,4.97c-2.66,0-4.09-1.67-4.09-4.87v-8.82h-2.13v9.39c0,4.21,2.13,6.22,5.52,6.22a5.938,5.938,0,0,0,5.64-3.2v2.9h2.13v-15.31h-2.13Zm20.75,7.53c0-4.57-2.93-7.83-7.2-7.83-4.29,0-7.53,3.38-7.53,7.96a7.621,7.621,0,0,0,7.93,7.95,9.593,9.593,0,0,0,6.31-2.19l-0.61-1.89a8.252,8.252,0,0,1-5.58,2.13c-3.5,0-5.79-2.25-5.88-5.85h12.56v-0.28Zm-12.44-1.4a5.367,5.367,0,0,1,5.24-4.54,4.876,4.876,0,0,1,4.94,4.54h-10.18Zm38.96,9.18h2.38l-8.33-21.65h-2.38l-8.32,21.65h2.32l2.65-7.01h9.03Zm-10.98-8.93,3.81-10.09,3.81,10.09h-7.62Zm0.64-15.31a1.51,1.51,0,1,0-1.52-1.49A1.5,1.5,0,0,0,4240.84,2619.01Zm6.47,0a1.51,1.51,0,1,0-1.5-1.49A1.477,1.477,0,0,0,4247.31,2619.01Zm15.55,8.6c-1.74,0-3.08.79-3.96,3.08v-2.75h-2.11v15.31h2.11v-8.14c0-3.14,1.19-5.4,3.75-5.4a4.848,4.848,0,0,1,1.55.31l0.52-2.08A5.023,5.023,0,0,0,4262.86,2627.61Zm10.5,0.03a10.1,10.1,0,0,0-5.95,1.83l0.61,1.92a8.189,8.189,0,0,1,5.03-1.86c2.87,0,4.33,1.68,4.33,4.21v0.39c-7.95.06-10.91,1.44-10.91,4.88,0,2.78,1.92,4.54,5.21,4.54a6.326,6.326,0,0,0,5.73-2.98v2.68h2.11v-9.51C4279.52,2629.65,4277.23,2627.64,4273.36,2627.64Zm-1.25,14.15c-2.23,0-3.42-1.13-3.42-2.84,0-2.23,2.02-3.2,8.69-3.26v1.52C4277.38,2640.54,4274.46,2641.79,4272.11,2641.79Z" transform="translate(-3858.09 -2616)"/>
</svg>
