<?xml version="1.0" encoding="UTF-8"?>
<svg width="298px" height="41px" viewBox="0 0 298 41" version="1.1" xmlns="http://www.w3.org/2000/svg" xmlns:xlink="http://www.w3.org/1999/xlink">
    <title>So sicher, wie ein G</title>
    <g id="Page-1" stroke="none" stroke-width="1" fill="none" fill-rule="evenodd">
        <g id="So-sicher,-wie-ein-G" transform="translate(0.230000, 0.450000)" fill="#282830" fill-rule="nonzero">
            <path d="M2.62,7.65 C4.05,7.65 5.02,6.89 5.02,5.55 C5.02,4.26 4.12,3.94 3.02,3.53 C2.13,3.2 1.53,2.94 1.53,2.25 C1.53,1.64 2.04,1.26 2.83,1.26 C3.41,1.26 4.06,1.46 4.53,1.73 L4.8,0.82 C4.32,0.55 3.58,0.34 2.85,0.34 C1.46,0.34 0.51,1.1 0.51,2.34 C0.51,3.53 1.39,3.99 2.48,4.39 C3.45,4.75 4,4.96 4,5.65 C4,6.35 3.51,6.73 2.69,6.73 C1.92,6.73 1.15,6.41 0.62,5.98 L0.34,6.94 C0.95,7.39 1.78,7.65 2.62,7.65 Z" id="S"></path>
            <path d="M8.68404313,7.65 C10.2740431,7.65 11.3740431,6.56 11.3740431,5.03 C11.3740431,3.51 10.2740431,2.41 8.68404313,2.41 C7.10404313,2.41 6.00404313,3.51 6.00404313,5.03 C6.00404313,6.56 7.10404313,7.65 8.68404313,7.65 Z M8.68404313,6.76 C7.68404313,6.76 6.98404313,6.07 6.98404313,5.03 C6.98404313,4 7.67404313,3.3 8.69404313,3.3 C9.69404313,3.3 10.3940431,4 10.3940431,5.03 C10.3940431,6.05 9.70404313,6.76 8.68404313,6.76 Z" id="o"></path>
            <path d="M16.5321294,7.65 C17.7621294,7.65 18.4721294,7.01 18.4721294,6.07 C18.4721294,5.16 17.7921294,4.82 16.8621294,4.57 C16.2721294,4.41 15.8021294,4.26 15.8021294,3.8 C15.8021294,3.39 16.1721294,3.16 16.7021294,3.16 C17.2521294,3.16 17.7721294,3.38 18.1121294,3.61 L18.3021294,2.83 C17.9221294,2.6 17.3521294,2.41 16.7221294,2.41 C15.6121294,2.41 14.8621294,2.97 14.8621294,3.92 C14.8621294,4.85 15.5921294,5.14 16.3721294,5.38 C17.1221294,5.61 17.5421294,5.75 17.5421294,6.21 C17.5421294,6.65 17.1721294,6.9 16.5821294,6.9 C15.9621294,6.9 15.3421294,6.65 14.9521294,6.33 L14.7221294,7.12 C15.1121294,7.44 15.8421294,7.65 16.5321294,7.65 Z" id="s"></path>
            <path d="M20.3061725,1.53 C20.6661725,1.53 20.9361725,1.25 20.9361725,0.89 C20.9361725,0.53 20.6661725,0.25 20.3061725,0.25 C19.9461725,0.25 19.6661725,0.53 19.6661725,0.89 C19.6661725,1.25 19.9461725,1.53 20.3061725,1.53 Z M19.8161725,7.55 L20.7661725,7.55 L20.7661725,2.51 L19.8161725,2.51 L19.8161725,7.55 Z" id="i"></path>
            <path d="M24.5502156,7.65 C25.3002156,7.65 25.9402156,7.41 26.3802156,7.09 L26.1502156,6.28 C25.7102156,6.58 25.1602156,6.78 24.6302156,6.78 C23.6602156,6.78 23.0002156,6.07 23.0002156,5.03 C23.0002156,3.99 23.6702156,3.29 24.6602156,3.29 C25.2002156,3.29 25.6702156,3.49 26.0202156,3.75 L26.3202156,2.92 C25.9002156,2.64 25.3302156,2.41 24.6102156,2.41 C23.0902156,2.41 22.0102156,3.48 22.0102156,5.05 C22.0102156,6.6 23.0702156,7.65 24.5502156,7.65 Z" id="c"></path>
            <path d="M30.2442588,2.4 C29.4242588,2.4 28.7842588,2.76 28.4542588,3.37 L28.4542588,0.03 L27.5042588,0.03 L27.5042588,7.55 L28.4542588,7.55 L28.4542588,4.75 C28.4542588,3.86 29.0642588,3.26 29.9142588,3.26 C30.7042588,3.26 31.1042588,3.75 31.1042588,4.73 L31.1042588,7.55 L32.0542588,7.55 L32.0542588,4.41 C32.0542588,3.07 31.3942588,2.4 30.2442588,2.4 Z" id="h"></path>
            <path d="M38.1583019,5.05 C38.1583019,3.49 37.1883019,2.41 35.7683019,2.41 C34.3383019,2.41 33.2583019,3.51 33.2583019,5.04 C33.2583019,6.51 34.2783019,7.65 35.8983019,7.65 C36.7883019,7.65 37.5183019,7.35 37.9683019,6.98 L37.7183019,6.2 C37.3183019,6.54 36.6983019,6.82 35.9783019,6.82 C34.9483019,6.82 34.2783019,6.21 34.2183019,5.18 L38.1583019,5.18 L38.1583019,5.05 Z M34.2583019,4.5 C34.4183019,3.72 35.0283019,3.19 35.7683019,3.19 C36.5283019,3.19 37.0783019,3.73 37.1783019,4.5 L34.2583019,4.5 Z" id="e"></path>
            <path d="M41.562345,2.4 C41.032345,2.4 40.582345,2.66 40.292345,3.37 L40.292345,2.51 L39.352345,2.51 L39.352345,7.55 L40.292345,7.55 L40.292345,5 C40.292345,3.99 40.672345,3.33 41.482345,3.33 C41.672345,3.33 41.862345,3.38 42.002345,3.44 L42.192345,2.52 C42.022345,2.45 41.792345,2.4 41.562345,2.4 Z" id="r"></path>
            <polygon id="," points="41.9463881 8.97 42.8263881 8.97 43.8263881 6.49 42.8063881 6.49"></polygon>
            <polygon id="w" points="53.7844744 2.51 52.6044744 6.37 51.3644744 2.51 50.5444744 2.51 49.3144744 6.41 48.1144744 2.51 47.0644744 2.51 48.7544744 7.55 49.7344744 7.55 50.9444744 3.79 52.1644744 7.55 53.1444744 7.55 54.7844744 2.51"></polygon>
            <path d="M56.2085175,1.53 C56.5685175,1.53 56.8385175,1.25 56.8385175,0.89 C56.8385175,0.53 56.5685175,0.25 56.2085175,0.25 C55.8485175,0.25 55.5685175,0.53 55.5685175,0.89 C55.5685175,1.25 55.8485175,1.53 56.2085175,1.53 Z M55.7185175,7.55 L56.6685175,7.55 L56.6685175,2.51 L55.7185175,2.51 L55.7185175,7.55 Z" id="i"></path>
            <path d="M62.8125606,5.05 C62.8125606,3.49 61.8425606,2.41 60.4225606,2.41 C58.9925606,2.41 57.9125606,3.51 57.9125606,5.04 C57.9125606,6.51 58.9325606,7.65 60.5525606,7.65 C61.4425606,7.65 62.1725606,7.35 62.6225606,6.98 L62.3725606,6.2 C61.9725606,6.54 61.3525606,6.82 60.6325606,6.82 C59.6025606,6.82 58.9325606,6.21 58.8725606,5.18 L62.8125606,5.18 L62.8125606,5.05 Z M58.9125606,4.5 C59.0725606,3.72 59.6825606,3.19 60.4225606,3.19 C61.1825606,3.19 61.7325606,3.73 61.8325606,4.5 L58.9125606,4.5 Z" id="e"></path>
            <path d="M70.9206469,5.05 C70.9206469,3.49 69.9506469,2.41 68.5306469,2.41 C67.1006469,2.41 66.0206469,3.51 66.0206469,5.04 C66.0206469,6.51 67.0406469,7.65 68.6606469,7.65 C69.5506469,7.65 70.2806469,7.35 70.7306469,6.98 L70.4806469,6.2 C70.0806469,6.54 69.4606469,6.82 68.7406469,6.82 C67.7106469,6.82 67.0406469,6.21 66.9806469,5.18 L70.9206469,5.18 L70.9206469,5.05 Z M67.0206469,4.5 C67.1806469,3.72 67.7906469,3.19 68.5306469,3.19 C69.2906469,3.19 69.8406469,3.73 69.9406469,4.5 L67.0206469,4.5 Z" id="e"></path>
            <path d="M72.60469,1.53 C72.96469,1.53 73.23469,1.25 73.23469,0.89 C73.23469,0.53 72.96469,0.25 72.60469,0.25 C72.24469,0.25 71.96469,0.53 71.96469,0.89 C71.96469,1.25 72.24469,1.53 72.60469,1.53 Z M72.11469,7.55 L73.06469,7.55 L73.06469,2.51 L72.11469,2.51 L72.11469,7.55 Z" id="i"></path>
            <path d="M77.4487331,2.41 C76.6387331,2.41 75.9887331,2.77 75.6487331,3.39 L75.6487331,2.51 L74.6987331,2.51 L74.6987331,7.55 L75.6487331,7.55 L75.6487331,4.77 C75.6487331,3.87 76.2387331,3.27 77.1087331,3.27 C77.8987331,3.27 78.2987331,3.76 78.2987331,4.74 L78.2987331,7.55 L79.2487331,7.55 L79.2487331,4.42 C79.2487331,3.09 78.5987331,2.41 77.4487331,2.41 Z" id="n"></path>
            <path d="M86.5668194,4.03 L86.5668194,4.87 L88.7968194,4.87 C88.7268194,5.74 87.9168194,6.68 86.5168194,6.68 C85.0568194,6.68 84.0368194,5.61 84.0368194,4.01 C84.0368194,2.37 85.1668194,1.32 86.6668194,1.32 C87.5768194,1.32 88.2768194,1.64 88.9468194,2.15 L89.3168194,1.2 C88.5968194,0.71 87.7768194,0.35 86.6568194,0.35 C84.5768194,0.35 82.9768194,1.84 82.9768194,4.01 C82.9768194,6.13 84.4168194,7.65 86.3968194,7.65 C87.6668194,7.65 88.4868194,7 88.8468194,6.42 L88.8468194,7.55 L89.7868194,7.55 L89.7868194,4.03 L86.5668194,4.03 Z" id="G"></path>
            <path d="M93.5208625,2.4 C92.9908625,2.4 92.5408625,2.66 92.2508625,3.37 L92.2508625,2.51 L91.3108625,2.51 L91.3108625,7.55 L92.2508625,7.55 L92.2508625,5 C92.2508625,3.99 92.6308625,3.33 93.4408625,3.33 C93.6308625,3.33 93.8208625,3.38 93.9608625,3.44 L94.1508625,2.52 C93.9808625,2.45 93.7508625,2.4 93.5208625,2.4 Z" id="r"></path>
            <path d="M97.1549056,7.65 C98.7449056,7.65 99.8449056,6.56 99.8449056,5.03 C99.8449056,3.51 98.7449056,2.41 97.1549056,2.41 C95.5749056,2.41 94.4749056,3.51 94.4749056,5.03 C94.4749056,6.56 95.5749056,7.65 97.1549056,7.65 Z M97.1549056,6.76 C96.1549056,6.76 95.4549056,6.07 95.4549056,5.03 C95.4549056,4 96.1449056,3.3 97.1649056,3.3 C98.1649056,3.3 98.8649056,4 98.8649056,5.03 C98.8649056,6.05 98.1749056,6.76 97.1549056,6.76 Z" id="o"></path>
            <path d="M104.278949,3.4 C104.918949,3.13 105.358949,2.54 105.358949,1.79 C105.358949,0.72 104.588949,3.55271368e-15 103.288949,3.55271368e-15 C102.068949,3.55271368e-15 101.088949,0.72 101.088949,2.27 L101.088949,7.55 L102.018949,7.55 L102.018949,2.34 C102.018949,1.19 102.658949,0.87 103.298949,0.87 C103.988949,0.87 104.408949,1.26 104.408949,1.86 C104.408949,2.72 103.698949,3.1 103.128949,3.13 L102.918949,3.14 L102.918949,3.91 L103.078949,3.91 C104.238949,3.91 104.948949,4.42 104.948949,5.36 C104.948949,6.26 104.378949,6.77 103.478949,6.77 C103.158949,6.77 102.928949,6.72 102.688949,6.59 L102.568949,7.46 C102.788949,7.56 103.178949,7.63 103.628949,7.63 C104.998949,7.63 105.938949,6.79 105.938949,5.41 C105.938949,4.22 105.138949,3.59 104.278949,3.4 Z" id="ß"></path>
            <path d="M111.702992,5.05 C111.702992,3.49 110.732992,2.41 109.312992,2.41 C107.882992,2.41 106.802992,3.51 106.802992,5.04 C106.802992,6.51 107.822992,7.65 109.442992,7.65 C110.332992,7.65 111.062992,7.35 111.512992,6.98 L111.262992,6.2 C110.862992,6.54 110.242992,6.82 109.522992,6.82 C108.492992,6.82 107.822992,6.21 107.762992,5.18 L111.702992,5.18 L111.702992,5.05 Z M107.802992,4.5 C107.962992,3.72 108.572992,3.19 109.312992,3.19 C110.072992,3.19 110.622992,3.73 110.722992,4.5 L107.802992,4.5 Z" id="e"></path>
            <path d="M115.107035,2.4 C114.577035,2.4 114.127035,2.66 113.837035,3.37 L113.837035,2.51 L112.897035,2.51 L112.897035,7.55 L113.837035,7.55 L113.837035,5 C113.837035,3.99 114.217035,3.33 115.027035,3.33 C115.217035,3.33 115.407035,3.38 115.547035,3.44 L115.737035,2.52 C115.567035,2.45 115.337035,2.4 115.107035,2.4 Z" id="r"></path>
            <path d="M117.321078,4.07 C117.671078,4.07 117.961078,3.79 117.961078,3.43 C117.961078,3.07 117.671078,2.79 117.321078,2.79 C116.961078,2.79 116.681078,3.07 116.681078,3.43 C116.681078,3.79 116.961078,4.07 117.321078,4.07 Z M117.321078,7.68 C117.671078,7.68 117.961078,7.39 117.961078,7.04 C117.961078,6.68 117.671078,6.4 117.321078,6.4 C116.961078,6.4 116.681078,6.68 116.681078,7.04 C116.681078,7.39 116.961078,7.68 117.321078,7.68 Z" id=":"></path>
            <path d="M124.529164,0.45 L122.109164,0.45 L122.109164,7.55 L124.529164,7.55 C126.719164,7.55 128.149164,6.11 128.149164,3.95 C128.149164,1.85 126.719164,0.45 124.529164,0.45 Z M124.419164,6.64 L123.139164,6.64 L123.139164,1.36 L124.429164,1.36 C126.069164,1.36 127.089164,2.36 127.089164,3.96 C127.089164,5.61 126.069164,6.64 124.419164,6.64 Z" id="D"></path>
            <path d="M131.583208,2.41 C130.723208,2.41 130.013208,2.7 129.573207,3 L129.813208,3.79 C130.143208,3.55 130.703208,3.22 131.423208,3.22 C132.283208,3.22 132.713208,3.69 132.713208,4.42 L132.713208,4.53 C130.243208,4.55 129.233208,5 129.233208,6.16 C129.233208,7.08 129.873208,7.65 130.913207,7.65 C131.763208,7.65 132.393208,7.28 132.713208,6.77 L132.713208,7.55 L133.663207,7.55 L133.663207,4.4 C133.663207,3.04 132.863208,2.41 131.583208,2.41 Z M131.203208,6.92 C130.563208,6.92 130.223208,6.6 130.223208,6.11 C130.223208,5.46 130.823207,5.18 132.713208,5.16 L132.713208,5.59 C132.713208,6.53 131.893208,6.92 131.203208,6.92 Z" id="a"></path>
            <path d="M137.997251,2.41 C137.187251,2.41 136.537251,2.77 136.197251,3.39 L136.197251,2.51 L135.247251,2.51 L135.247251,7.55 L136.197251,7.55 L136.197251,4.77 C136.197251,3.87 136.787251,3.27 137.657251,3.27 C138.447251,3.27 138.847251,3.76 138.847251,4.74 L138.847251,7.55 L139.797251,7.55 L139.797251,4.42 C139.797251,3.09 139.147251,2.41 137.997251,2.41 Z" id="n"></path>
            <polygon id="k" points="141.391294 7.55 142.341294 7.55 142.341294 4.95 144.581294 7.55 145.821294 7.55 143.471294 4.89 145.731294 2.51 144.531294 2.51 142.341294 4.89 142.341294 0.03 141.391294 0.03"></polygon>
            <path d="M152.97938,0.03 L152.97938,3.41 C152.61938,2.74 151.92938,2.41 151.14938,2.41 C149.73938,2.41 148.71938,3.5 148.71938,5.04 C148.71938,6.56 149.72938,7.65 151.14938,7.65 C151.91938,7.65 152.57938,7.35 152.97938,6.63 L152.97938,7.56 L153.92938,7.56 L153.92938,0.03 L152.97938,0.03 Z M151.31938,6.77 C150.34938,6.77 149.69938,6.07 149.69938,5.04 C149.69938,3.99 150.36938,3.29 151.32938,3.29 C152.29938,3.29 153.02938,4.03 153.02938,5.03 C153.02938,6.02 152.29938,6.77 151.31938,6.77 Z" id="d"></path>
            <path d="M160.053423,5.05 C160.053423,3.49 159.083423,2.41 157.663423,2.41 C156.233423,2.41 155.153423,3.51 155.153423,5.04 C155.153423,6.51 156.173423,7.65 157.793423,7.65 C158.683423,7.65 159.413423,7.35 159.863423,6.98 L159.613423,6.2 C159.213423,6.54 158.593423,6.82 157.873423,6.82 C156.843423,6.82 156.173423,6.21 156.113423,5.18 L160.053423,5.18 L160.053423,5.05 Z M156.153423,4.5 C156.313423,3.72 156.923423,3.19 157.663423,3.19 C158.423423,3.19 158.973423,3.73 159.073423,4.5 L156.153423,4.5 Z" id="e"></path>
            <path d="M163.457466,2.4 C162.927466,2.4 162.477466,2.66 162.187466,3.37 L162.187466,2.51 L161.247466,2.51 L161.247466,7.55 L162.187466,7.55 L162.187466,5 C162.187466,3.99 162.567466,3.33 163.377466,3.33 C163.567466,3.33 163.757466,3.38 163.897466,3.44 L164.087466,2.52 C163.917466,2.45 163.687466,2.4 163.457466,2.4 Z" id="r"></path>
            <path d="M171.875552,5.05 C171.875552,3.49 170.905552,2.41 169.485552,2.41 C168.055552,2.41 166.975552,3.51 166.975552,5.04 C166.975552,6.51 167.995552,7.65 169.615552,7.65 C170.505552,7.65 171.235552,7.35 171.685552,6.98 L171.435552,6.2 C171.035552,6.54 170.415552,6.82 169.695552,6.82 C168.665552,6.82 167.995552,6.21 167.935552,5.18 L171.875552,5.18 L171.875552,5.05 Z M167.975552,4.5 C168.135552,3.72 168.745552,3.19 169.485552,3.19 C170.245552,3.19 170.795552,3.73 170.895552,4.5 L167.975552,4.5 Z" id="e"></path>
            <path d="M175.279596,2.4 C174.749596,2.4 174.299596,2.66 174.009596,3.37 L174.009596,2.51 L173.069596,2.51 L173.069596,7.55 L174.009596,7.55 L174.009596,5 C174.009596,3.99 174.389596,3.33 175.199596,3.33 C175.389596,3.33 175.579596,3.38 175.719596,3.44 L175.909596,2.52 C175.739596,2.45 175.509596,2.4 175.279596,2.4 Z" id="r"></path>
            <path d="M179.523639,2.4 C178.703639,2.4 178.063639,2.76 177.733639,3.37 L177.733639,0.03 L176.783639,0.03 L176.783639,7.55 L177.733639,7.55 L177.733639,4.75 C177.733639,3.86 178.343639,3.26 179.193639,3.26 C179.983639,3.26 180.383639,3.75 180.383639,4.73 L180.383639,7.55 L181.333639,7.55 L181.333639,4.41 C181.333639,3.07 180.673639,2.4 179.523639,2.4 Z" id="h"></path>
            <path d="M185.217682,7.65 C186.807682,7.65 187.907682,6.56 187.907682,5.03 C187.907682,3.51 186.807682,2.41 185.217682,2.41 C183.637682,2.41 182.537682,3.51 182.537682,5.03 C182.537682,6.56 183.637682,7.65 185.217682,7.65 Z M185.217682,6.76 C184.217682,6.76 183.517682,6.07 183.517682,5.03 C183.517682,4 184.207682,3.3 185.227682,3.3 C186.227682,3.3 186.927682,4 186.927682,5.03 C186.927682,6.05 186.237682,6.76 185.217682,6.76 Z M184.127682,1.45 C184.457682,1.45 184.707682,1.19 184.707682,0.87 C184.707682,0.55 184.457682,0.3 184.127682,0.3 C183.807682,0.3 183.557682,0.55 183.557682,0.87 C183.557682,1.19 183.807682,1.45 184.127682,1.45 Z M186.287682,1.45 C186.607682,1.45 186.857682,1.19 186.857682,0.87 C186.857682,0.55 186.607682,0.3 186.287682,0.3 C185.967682,0.3 185.707682,0.55 185.707682,0.87 C185.707682,1.19 185.967682,1.45 186.287682,1.45 Z" id="ö"></path>
            <path d="M191.891725,2.4 C191.071725,2.4 190.431725,2.76 190.101725,3.37 L190.101725,0.03 L189.151725,0.03 L189.151725,7.55 L190.101725,7.55 L190.101725,4.75 C190.101725,3.86 190.711725,3.26 191.561725,3.26 C192.351725,3.26 192.751725,3.75 192.751725,4.73 L192.751725,7.55 L193.701725,7.55 L193.701725,4.41 C193.701725,3.07 193.041725,2.4 191.891725,2.4 Z" id="h"></path>
            <path d="M196.875768,7.65 C197.405768,7.65 197.865768,7.48 198.135768,7.28 L197.975768,6.49 C197.765768,6.62 197.445768,6.78 197.085768,6.78 C196.665768,6.78 196.425768,6.53 196.425768,6.03 L196.425768,3.32 L197.845768,3.32 L197.845768,2.51 L196.425768,2.51 L196.425768,0.93 L195.475768,1.06 L195.475768,2.51 L194.745768,2.51 L194.745768,3.32 L195.475768,3.32 L195.475768,6.15 C195.475768,7.16 196.025768,7.65 196.875768,7.65 Z" id="t"></path>
            <path d="M203.459811,5.05 C203.459811,3.49 202.489811,2.41 201.069811,2.41 C199.639811,2.41 198.559811,3.51 198.559811,5.04 C198.559811,6.51 199.579811,7.65 201.199811,7.65 C202.089811,7.65 202.819811,7.35 203.269811,6.98 L203.019811,6.2 C202.619811,6.54 201.999811,6.82 201.279811,6.82 C200.249811,6.82 199.579811,6.21 199.519811,5.18 L203.459811,5.18 L203.459811,5.05 Z M199.559811,4.5 C199.719811,3.72 200.329811,3.19 201.069811,3.19 C201.829811,3.19 202.379811,3.73 202.479811,4.5 L199.559811,4.5 Z" id="e"></path>
            <path d="M207.403854,2.41 C206.593854,2.41 205.943854,2.77 205.603854,3.39 L205.603854,2.51 L204.653854,2.51 L204.653854,7.55 L205.603854,7.55 L205.603854,4.77 C205.603854,3.87 206.193854,3.27 207.063854,3.27 C207.853854,3.27 208.253854,3.76 208.253854,4.74 L208.253854,7.55 L209.203854,7.55 L209.203854,4.42 C209.203854,3.09 208.553854,2.41 207.403854,2.41 Z" id="n"></path>
            <path d="M215.211941,7.65 C216.641941,7.65 217.611941,6.89 217.611941,5.55 C217.611941,4.26 216.711941,3.94 215.611941,3.53 C214.721941,3.2 214.121941,2.94 214.121941,2.25 C214.121941,1.64 214.631941,1.26 215.421941,1.26 C216.001941,1.26 216.651941,1.46 217.121941,1.73 L217.391941,0.82 C216.911941,0.55 216.171941,0.34 215.441941,0.34 C214.051941,0.34 213.101941,1.1 213.101941,2.34 C213.101941,3.53 213.981941,3.99 215.071941,4.39 C216.041941,4.75 216.591941,4.96 216.591941,5.65 C216.591941,6.35 216.101941,6.73 215.281941,6.73 C214.511941,6.73 213.741941,6.41 213.211941,5.98 L212.931941,6.94 C213.541941,7.39 214.371941,7.65 215.211941,7.65 Z" id="S"></path>
            <path d="M219.515984,1.53 C219.875984,1.53 220.145984,1.25 220.145984,0.89 C220.145984,0.53 219.875984,0.25 219.515984,0.25 C219.155984,0.25 218.875984,0.53 218.875984,0.89 C218.875984,1.25 219.155984,1.53 219.515984,1.53 Z M219.025984,7.55 L219.975984,7.55 L219.975984,2.51 L219.025984,2.51 L219.025984,7.55 Z" id="i"></path>
            <path d="M223.230027,7.65 C223.760027,7.65 224.220027,7.48 224.490027,7.28 L224.330027,6.49 C224.120027,6.62 223.800027,6.78 223.440027,6.78 C223.020027,6.78 222.780027,6.53 222.780027,6.03 L222.780027,3.32 L224.200027,3.32 L224.200027,2.51 L222.780027,2.51 L222.780027,0.93 L221.830027,1.06 L221.830027,2.51 L221.100027,2.51 L221.100027,3.32 L221.830027,3.32 L221.830027,6.15 C221.830027,7.16 222.380027,7.65 223.230027,7.65 Z" id="t"></path>
            <polygon id="z" points="224.92407 7.55 229.01407 7.55 229.01407 6.74 226.34407 6.74 228.96407 2.95 228.96407 2.51 225.03407 2.51 225.03407 3.32 227.59407 3.32 224.92407 7.13"></polygon>
            <path d="M233.048113,2.41 C232.318113,2.41 231.608113,2.75 231.208113,3.4 L231.208113,2.51 L230.258113,2.51 L230.258113,9.65 L231.208113,9.65 L231.208113,6.65 C231.588113,7.32 232.308113,7.65 232.998113,7.65 C234.458113,7.65 235.458113,6.54 235.458113,5.03 C235.458113,3.51 234.458113,2.41 233.048113,2.41 Z M232.858113,6.77 C231.898113,6.77 231.158113,6.03 231.158113,5.03 C231.158113,4 231.918113,3.29 232.868113,3.29 C233.858113,3.29 234.488113,4.03 234.488113,5.03 C234.488113,6.06 233.818113,6.77 232.858113,6.77 Z" id="p"></path>
            <path d="M239.002156,7.65 C240.592156,7.65 241.692156,6.56 241.692156,5.03 C241.692156,3.51 240.592156,2.41 239.002156,2.41 C237.422156,2.41 236.322156,3.51 236.322156,5.03 C236.322156,6.56 237.422156,7.65 239.002156,7.65 Z M239.002156,6.76 C238.002156,6.76 237.302156,6.07 237.302156,5.03 C237.302156,4 237.992156,3.3 239.012156,3.3 C240.012156,3.3 240.712156,4 240.712156,5.03 C240.712156,6.05 240.022156,6.76 239.002156,6.76 Z" id="o"></path>
            <path d="M244.446199,7.65 C245.676199,7.65 246.386199,7.01 246.386199,6.07 C246.386199,5.16 245.706199,4.82 244.776199,4.57 C244.186199,4.41 243.716199,4.26 243.716199,3.8 C243.716199,3.39 244.086199,3.16 244.616199,3.16 C245.166199,3.16 245.686199,3.38 246.026199,3.61 L246.216199,2.83 C245.836199,2.6 245.266199,2.41 244.636199,2.41 C243.526199,2.41 242.776199,2.97 242.776199,3.92 C242.776199,4.85 243.506199,5.14 244.286199,5.38 C245.036199,5.61 245.456199,5.75 245.456199,6.21 C245.456199,6.65 245.086199,6.9 244.496199,6.9 C243.876199,6.9 243.256199,6.65 242.866199,6.33 L242.636199,7.12 C243.026199,7.44 243.756199,7.65 244.446199,7.65 Z" id="s"></path>
            <path d="M248.220242,1.53 C248.580242,1.53 248.850242,1.25 248.850242,0.89 C248.850242,0.53 248.580242,0.25 248.220242,0.25 C247.860242,0.25 247.580242,0.53 247.580242,0.89 C247.580242,1.25 247.860242,1.53 248.220242,1.53 Z M247.730242,7.55 L248.680242,7.55 L248.680242,2.51 L247.730242,2.51 L247.730242,7.55 Z" id="i"></path>
            <path d="M251.934286,7.65 C252.464286,7.65 252.924286,7.48 253.194286,7.28 L253.034286,6.49 C252.824286,6.62 252.504286,6.78 252.144286,6.78 C251.724286,6.78 251.484286,6.53 251.484286,6.03 L251.484286,3.32 L252.904286,3.32 L252.904286,2.51 L251.484286,2.51 L251.484286,0.93 L250.534286,1.06 L250.534286,2.51 L249.804286,2.51 L249.804286,3.32 L250.534286,3.32 L250.534286,6.15 C250.534286,7.16 251.084286,7.65 251.934286,7.65 Z" id="t"></path>
            <path d="M254.538329,1.53 C254.898329,1.53 255.168329,1.25 255.168329,0.89 C255.168329,0.53 254.898329,0.25 254.538329,0.25 C254.178329,0.25 253.898329,0.53 253.898329,0.89 C253.898329,1.25 254.178329,1.53 254.538329,1.53 Z M254.048329,7.55 L254.998329,7.55 L254.998329,2.51 L254.048329,2.51 L254.048329,7.55 Z" id="i"></path>
            <path d="M258.922372,7.65 C260.512372,7.65 261.612372,6.56 261.612372,5.03 C261.612372,3.51 260.512372,2.41 258.922372,2.41 C257.342372,2.41 256.242372,3.51 256.242372,5.03 C256.242372,6.56 257.342372,7.65 258.922372,7.65 Z M258.922372,6.76 C257.922372,6.76 257.222372,6.07 257.222372,5.03 C257.222372,4 257.912372,3.3 258.932372,3.3 C259.932372,3.3 260.632372,4 260.632372,5.03 C260.632372,6.05 259.942372,6.76 258.922372,6.76 Z" id="o"></path>
            <path d="M265.606415,2.41 C264.796415,2.41 264.146415,2.77 263.806415,3.39 L263.806415,2.51 L262.856415,2.51 L262.856415,7.55 L263.806415,7.55 L263.806415,4.77 C263.806415,3.87 264.396415,3.27 265.266415,3.27 C266.056415,3.27 266.456415,3.76 266.456415,4.74 L266.456415,7.55 L267.406415,7.55 L267.406415,4.42 C267.406415,3.09 266.756415,2.41 265.606415,2.41 Z" id="n"></path>
            <path d="M274.144501,2.4 C273.324501,2.4 272.684501,2.76 272.354501,3.37 L272.354501,0.03 L271.404501,0.03 L271.404501,7.55 L272.354501,7.55 L272.354501,4.75 C272.354501,3.86 272.964501,3.26 273.814501,3.26 C274.604501,3.26 275.004501,3.75 275.004501,4.73 L275.004501,7.55 L275.954501,7.55 L275.954501,4.41 C275.954501,3.07 275.294501,2.4 274.144501,2.4 Z" id="h"></path>
            <path d="M279.608544,2.41 C278.748544,2.41 278.038544,2.7 277.598544,3 L277.838544,3.79 C278.168544,3.55 278.728544,3.22 279.448544,3.22 C280.308544,3.22 280.738544,3.69 280.738544,4.42 L280.738544,4.53 C278.268544,4.55 277.258544,5 277.258544,6.16 C277.258544,7.08 277.898544,7.65 278.938544,7.65 C279.788544,7.65 280.418544,7.28 280.738544,6.77 L280.738544,7.55 L281.688544,7.55 L281.688544,4.4 C281.688544,3.04 280.888544,2.41 279.608544,2.41 Z M279.228544,6.92 C278.588544,6.92 278.248544,6.6 278.248544,6.11 C278.248544,5.46 278.848544,5.18 280.738544,5.16 L280.738544,5.59 C280.738544,6.53 279.918544,6.92 279.228544,6.92 Z" id="a"></path>
            <path d="M284.782587,7.65 C286.012587,7.65 286.722587,7.01 286.722587,6.07 C286.722587,5.16 286.042587,4.82 285.112587,4.57 C284.522587,4.41 284.052587,4.26 284.052587,3.8 C284.052587,3.39 284.422587,3.16 284.952587,3.16 C285.502587,3.16 286.022587,3.38 286.362587,3.61 L286.552587,2.83 C286.172587,2.6 285.602587,2.41 284.972587,2.41 C283.862587,2.41 283.112587,2.97 283.112587,3.92 C283.112587,4.85 283.842587,5.14 284.622587,5.38 C285.372587,5.61 285.792587,5.75 285.792587,6.21 C285.792587,6.65 285.422587,6.9 284.832587,6.9 C284.212587,6.9 283.592587,6.65 283.202587,6.33 L282.972587,7.12 C283.362587,7.44 284.092587,7.65 284.782587,7.65 Z" id="s"></path>
            <path d="M289.646631,7.65 C290.176631,7.65 290.636631,7.48 290.906631,7.28 L290.746631,6.49 C290.536631,6.62 290.216631,6.78 289.856631,6.78 C289.436631,6.78 289.196631,6.53 289.196631,6.03 L289.196631,3.32 L290.616631,3.32 L290.616631,2.51 L289.196631,2.51 L289.196631,0.93 L288.246631,1.06 L288.246631,2.51 L287.516631,2.51 L287.516631,3.32 L288.246631,3.32 L288.246631,6.15 C288.246631,7.16 288.796631,7.65 289.646631,7.65 Z" id="t"></path>
            <path d="M4.48,15.03 L4.48,18.41 C4.12,17.74 3.43,17.41 2.65,17.41 C1.24,17.41 0.22,18.5 0.22,20.04 C0.22,21.56 1.23,22.65 2.65,22.65 C3.42,22.65 4.08,22.35 4.48,21.63 L4.48,22.56 L5.43,22.56 L5.43,15.03 L4.48,15.03 Z M2.82,21.77 C1.85,21.77 1.2,21.07 1.2,20.04 C1.2,18.99 1.87,18.29 2.83,18.29 C3.8,18.29 4.53,19.03 4.53,20.03 C4.53,21.02 3.8,21.77 2.82,21.77 Z" id="d"></path>
            <path d="M10.5940431,17.51 L10.5940431,20.3 C10.5940431,21.19 9.99404313,21.8 9.12404313,21.8 C8.33404313,21.8 7.93404313,21.31 7.93404313,20.33 L7.93404313,17.51 L6.98404313,17.51 L6.98404313,20.65 C6.98404313,21.98 7.65404313,22.65 8.77404312,22.65 C9.60404313,22.65 10.2540431,22.29 10.5940431,21.67 L10.5940431,22.55 L11.5440431,22.55 L11.5440431,17.51 L10.5940431,17.51 Z" id="u"></path>
            <path d="M20.0921294,20.05 C20.0921294,18.49 19.1221294,17.41 17.7021294,17.41 C16.2721294,17.41 15.1921294,18.51 15.1921294,20.04 C15.1921294,21.51 16.2121294,22.65 17.8321294,22.65 C18.7221294,22.65 19.4521294,22.35 19.9021294,21.98 L19.6521294,21.2 C19.2521294,21.54 18.6321294,21.82 17.9121294,21.82 C16.8821294,21.82 16.2121294,21.21 16.1521294,20.18 L20.0921294,20.18 L20.0921294,20.05 Z M16.1921294,19.5 C16.3521294,18.72 16.9621294,18.19 17.7021294,18.19 C18.4621294,18.19 19.0121294,18.73 19.1121294,19.5 L16.1921294,19.5 Z" id="e"></path>
            <path d="M21.7761725,16.53 C22.1361725,16.53 22.4061725,16.25 22.4061725,15.89 C22.4061725,15.53 22.1361725,15.25 21.7761725,15.25 C21.4161725,15.25 21.1361725,15.53 21.1361725,15.89 C21.1361725,16.25 21.4161725,16.53 21.7761725,16.53 Z M21.2861725,22.55 L22.2361725,22.55 L22.2361725,17.51 L21.2861725,17.51 L21.2861725,22.55 Z" id="i"></path>
            <path d="M26.6202156,17.41 C25.8102156,17.41 25.1602156,17.77 24.8202156,18.39 L24.8202156,17.51 L23.8702156,17.51 L23.8702156,22.55 L24.8202156,22.55 L24.8202156,19.77 C24.8202156,18.87 25.4102156,18.27 26.2802156,18.27 C27.0702156,18.27 27.4702156,18.76 27.4702156,19.74 L27.4702156,22.55 L28.4202156,22.55 L28.4202156,19.42 C28.4202156,18.09 27.7702156,17.41 26.6202156,17.41 Z" id="n"></path>
            <path d="M34.5242587,20.05 C34.5242587,18.49 33.5542587,17.41 32.1342588,17.41 C30.7042587,17.41 29.6242587,18.51 29.6242587,20.04 C29.6242587,21.51 30.6442587,22.65 32.2642587,22.65 C33.1542587,22.65 33.8842588,22.35 34.3342587,21.98 L34.0842587,21.2 C33.6842587,21.54 33.0642587,21.82 32.3442587,21.82 C31.3142587,21.82 30.6442587,21.21 30.5842587,20.18 L34.5242587,20.18 L34.5242587,20.05 Z M30.6242587,19.5 C30.7842587,18.72 31.3942587,18.19 32.1342588,18.19 C32.8942587,18.19 33.4442588,18.73 33.5442587,19.5 L30.6242587,19.5 Z" id="e"></path>
            <path d="M38.4683019,17.41 C37.6583019,17.41 37.0083019,17.77 36.6683019,18.39 L36.6683019,17.51 L35.7183019,17.51 L35.7183019,22.55 L36.6683019,22.55 L36.6683019,19.77 C36.6683019,18.87 37.2583019,18.27 38.1283019,18.27 C38.9183019,18.27 39.3183019,18.76 39.3183019,19.74 L39.3183019,22.55 L40.2683019,22.55 L40.2683019,19.42 C40.2683019,18.09 39.6183019,17.41 38.4683019,17.41 Z" id="n"></path>
            <path d="M47.0563881,17.41 C46.3263881,17.41 45.6163881,17.75 45.2163881,18.4 L45.2163881,15.03 L44.2663881,15.03 L44.2663881,22.55 L45.2163881,22.55 L45.2163881,21.65 C45.5963881,22.32 46.3163881,22.65 47.0063881,22.65 C48.4663881,22.65 49.4663881,21.54 49.4663881,20.03 C49.4663881,18.51 48.4663881,17.41 47.0563881,17.41 Z M46.8663881,21.77 C45.9063881,21.77 45.1663881,21.03 45.1663881,20.03 C45.1663881,19 45.9263881,18.29 46.8763881,18.29 C47.8663881,18.29 48.4963881,19.03 48.4963881,20.03 C48.4963881,21.06 47.8263881,21.77 46.8663881,21.77 Z" id="b"></path>
            <path d="M55.2304312,20.05 C55.2304312,18.49 54.2604312,17.41 52.8404313,17.41 C51.4104313,17.41 50.3304313,18.51 50.3304313,20.04 C50.3304313,21.51 51.3504312,22.65 52.9704313,22.65 C53.8604312,22.65 54.5904313,22.35 55.0404312,21.98 L54.7904312,21.2 C54.3904312,21.54 53.7704313,21.82 53.0504313,21.82 C52.0204313,21.82 51.3504312,21.21 51.2904312,20.18 L55.2304312,20.18 L55.2304312,20.05 Z M51.3304313,19.5 C51.4904313,18.72 52.1004312,18.19 52.8404313,18.19 C53.6004312,18.19 54.1504313,18.73 54.2504313,19.5 L51.3304313,19.5 Z" id="e"></path>
            <path d="M57.9344744,22.65 C59.1644744,22.65 59.8744744,22.01 59.8744744,21.07 C59.8744744,20.16 59.1944744,19.82 58.2644744,19.57 C57.6744744,19.41 57.2044744,19.26 57.2044744,18.8 C57.2044744,18.39 57.5744744,18.16 58.1044744,18.16 C58.6544744,18.16 59.1744744,18.38 59.5144744,18.61 L59.7044744,17.83 C59.3244744,17.6 58.7544744,17.41 58.1244744,17.41 C57.0144744,17.41 56.2644744,17.97 56.2644744,18.92 C56.2644744,19.85 56.9944744,20.14 57.7744744,20.38 C58.5244744,20.61 58.9444744,20.75 58.9444744,21.21 C58.9444744,21.65 58.5744744,21.9 57.9844744,21.9 C57.3644744,21.9 56.7444744,21.65 56.3544744,21.33 L56.1244744,22.12 C56.5144744,22.44 57.2444744,22.65 57.9344744,22.65 Z" id="s"></path>
            <path d="M62.7285175,22.65 C63.9585175,22.65 64.6685175,22.01 64.6685175,21.07 C64.6685175,20.16 63.9885175,19.82 63.0585175,19.57 C62.4685175,19.41 61.9985175,19.26 61.9985175,18.8 C61.9985175,18.39 62.3685175,18.16 62.8985175,18.16 C63.4485175,18.16 63.9685175,18.38 64.3085175,18.61 L64.4985175,17.83 C64.1185175,17.6 63.5485175,17.41 62.9185175,17.41 C61.8085175,17.41 61.0585175,17.97 61.0585175,18.92 C61.0585175,19.85 61.7885175,20.14 62.5685175,20.38 C63.3185175,20.61 63.7385175,20.75 63.7385175,21.21 C63.7385175,21.65 63.3685175,21.9 62.7785175,21.9 C62.1585175,21.9 61.5385175,21.65 61.1485175,21.33 L60.9185175,22.12 C61.3085175,22.44 62.0385175,22.65 62.7285175,22.65 Z" id="s"></path>
            <path d="M70.5225606,20.05 C70.5225606,18.49 69.5525606,17.41 68.1325606,17.41 C66.7025606,17.41 65.6225606,18.51 65.6225606,20.04 C65.6225606,21.51 66.6425606,22.65 68.2625606,22.65 C69.1525606,22.65 69.8825606,22.35 70.3325606,21.98 L70.0825606,21.2 C69.6825606,21.54 69.0625606,21.82 68.3425606,21.82 C67.3125606,21.82 66.6425606,21.21 66.5825606,20.18 L70.5225606,20.18 L70.5225606,20.05 Z M66.6225606,19.5 C66.7825606,18.72 67.3925606,18.19 68.1325606,18.19 C68.8925606,18.19 69.4425606,18.73 69.5425606,19.5 L66.6225606,19.5 Z" id="e"></path>
            <path d="M73.9266038,17.4 C73.3966038,17.4 72.9466038,17.66 72.6566038,18.37 L72.6566038,17.51 L71.7166038,17.51 L71.7166038,22.55 L72.6566038,22.55 L72.6566038,20 C72.6566038,18.99 73.0366038,18.33 73.8466038,18.33 C74.0366038,18.33 74.2266038,18.38 74.3666038,18.44 L74.5566038,17.52 C74.3866038,17.45 74.1566038,17.4 73.9266038,17.4 Z" id="r"></path>
            <path d="M79.7806469,20.05 C79.7806469,18.49 78.8106469,17.41 77.3906469,17.41 C75.9606469,17.41 74.8806469,18.51 74.8806469,20.04 C74.8806469,21.51 75.9006469,22.65 77.5206469,22.65 C78.4106469,22.65 79.1406469,22.35 79.5906469,21.98 L79.3406469,21.2 C78.9406469,21.54 78.3206469,21.82 77.6006469,21.82 C76.5706469,21.82 75.9006469,21.21 75.8406469,20.18 L79.7806469,20.18 L79.7806469,20.05 Z M75.8806469,19.5 C76.0406469,18.72 76.6506469,18.19 77.3906469,18.19 C78.1506469,18.19 78.7006469,18.73 78.8006469,19.5 L75.8806469,19.5 Z" id="e"></path>
            <path d="M83.72469,17.41 C82.91469,17.41 82.26469,17.77 81.92469,18.39 L81.92469,17.51 L80.97469,17.51 L80.97469,22.55 L81.92469,22.55 L81.92469,19.77 C81.92469,18.87 82.51469,18.27 83.38469,18.27 C84.17469,18.27 84.57469,18.76 84.57469,19.74 L84.57469,22.55 L85.52469,22.55 L85.52469,19.42 C85.52469,18.09 84.87469,17.41 83.72469,17.41 Z" id="n"></path>
            <path d="M92.3827763,22.65 C94.1327763,22.65 95.1827762,21.58 95.1827762,19.93 L95.1827762,15.45 L94.1627763,15.45 L94.1627763,19.78 C94.1627763,21.07 93.4227762,21.68 92.3827763,21.68 C91.3427763,21.68 90.6027763,21.07 90.6027763,19.78 L90.6027763,15.45 L89.5827763,15.45 L89.5827763,19.93 C89.5827763,21.58 90.6327763,22.65 92.3827763,22.65 Z M91.3227763,14.66 C91.6527763,14.66 91.9027763,14.4 91.9027763,14.08 C91.9027763,13.76 91.6527763,13.51 91.3227763,13.51 C91.0027762,13.51 90.7527762,13.76 90.7527762,14.08 C90.7527762,14.4 91.0027762,14.66 91.3227763,14.66 Z M93.4827763,14.66 C93.8027762,14.66 94.0527762,14.4 94.0527762,14.08 C94.0527762,13.76 93.8027762,13.51 93.4827763,13.51 C93.1627763,13.51 92.9027763,13.76 92.9027763,14.08 C92.9027763,14.4 93.1627763,14.66 93.4827763,14.66 Z" id="Ü"></path>
            <path d="M99.6768194,17.41 C98.9468194,17.41 98.2368194,17.75 97.8368194,18.4 L97.8368194,15.03 L96.8868194,15.03 L96.8868194,22.55 L97.8368194,22.55 L97.8368194,21.65 C98.2168194,22.32 98.9368194,22.65 99.6268194,22.65 C101.086819,22.65 102.086819,21.54 102.086819,20.03 C102.086819,18.51 101.086819,17.41 99.6768194,17.41 Z M99.4868194,21.77 C98.5268194,21.77 97.7868194,21.03 97.7868194,20.03 C97.7868194,19 98.5468194,18.29 99.4968194,18.29 C100.486819,18.29 101.116819,19.03 101.116819,20.03 C101.116819,21.06 100.446819,21.77 99.4868194,21.77 Z" id="b"></path>
            <path d="M107.850862,20.05 C107.850862,18.49 106.880863,17.41 105.460862,17.41 C104.030862,17.41 102.950862,18.51 102.950862,20.04 C102.950862,21.51 103.970862,22.65 105.590862,22.65 C106.480863,22.65 107.210862,22.35 107.660862,21.98 L107.410862,21.2 C107.010863,21.54 106.390862,21.82 105.670862,21.82 C104.640862,21.82 103.970862,21.21 103.910862,20.18 L107.850862,20.18 L107.850862,20.05 Z M103.950862,19.5 C104.110862,18.72 104.720862,18.19 105.460862,18.19 C106.220862,18.19 106.770862,18.73 106.870863,19.5 L103.950862,19.5 Z" id="e"></path>
            <path d="M111.254906,17.4 C110.724906,17.4 110.274906,17.66 109.984906,18.37 L109.984906,17.51 L109.044906,17.51 L109.044906,22.55 L109.984906,22.55 L109.984906,20 C109.984906,18.99 110.364906,18.33 111.174906,18.33 C111.364906,18.33 111.554906,18.38 111.694906,18.44 L111.884906,17.52 C111.714906,17.45 111.484906,17.4 111.254906,17.4 Z" id="r"></path>
            <path d="M115.548949,17.41 C114.818949,17.41 114.108949,17.75 113.708949,18.4 L113.708949,15.03 L112.758949,15.03 L112.758949,22.55 L113.708949,22.55 L113.708949,21.65 C114.088949,22.32 114.808949,22.65 115.498949,22.65 C116.958949,22.65 117.958949,21.54 117.958949,20.03 C117.958949,18.51 116.958949,17.41 115.548949,17.41 Z M115.358949,21.77 C114.398949,21.77 113.658949,21.03 113.658949,20.03 C113.658949,19 114.418949,18.29 115.368949,18.29 C116.358949,18.29 116.988949,19.03 116.988949,20.03 C116.988949,21.06 116.318949,21.77 115.358949,21.77 Z" id="b"></path>
            <path d="M120.372992,22.65 C120.762992,22.65 121.062992,22.55 121.242992,22.46 L121.112992,21.68 C121.012992,21.73 120.822992,21.8 120.622992,21.8 C120.322992,21.8 120.142992,21.62 120.142992,21.17 L120.142992,15.03 L119.192992,15.03 L119.192992,21.32 C119.192992,22.24 119.642992,22.65 120.372992,22.65 Z" id="l"></path>
            <path d="M122.667035,16.53 C123.027035,16.53 123.297035,16.25 123.297035,15.89 C123.297035,15.53 123.027035,15.25 122.667035,15.25 C122.307035,15.25 122.027035,15.53 122.027035,15.89 C122.027035,16.25 122.307035,16.53 122.667035,16.53 Z M122.177035,22.55 L123.127035,22.55 L123.127035,17.51 L122.177035,17.51 L122.177035,22.55 Z" id="i"></path>
            <path d="M126.911078,22.65 C127.661078,22.65 128.301078,22.41 128.741078,22.09 L128.511078,21.28 C128.071078,21.58 127.521078,21.78 126.991078,21.78 C126.021078,21.78 125.361078,21.07 125.361078,20.03 C125.361078,18.99 126.031078,18.29 127.021078,18.29 C127.561078,18.29 128.031078,18.49 128.381078,18.75 L128.681078,17.92 C128.261078,17.64 127.691078,17.41 126.971078,17.41 C125.451078,17.41 124.371078,18.48 124.371078,20.05 C124.371078,21.6 125.431078,22.65 126.911078,22.65 Z" id="c"></path>
            <polygon id="k" points="129.865121 22.55 130.815121 22.55 130.815121 19.95 133.055121 22.55 134.295121 22.55 131.945121 19.89 134.205121 17.51 133.005121 17.51 130.815121 19.89 130.815121 15.03 129.865121 15.03"></polygon>
            <path d="M138.073207,16.53 C138.433207,16.53 138.703207,16.25 138.703207,15.89 C138.703207,15.53 138.433207,15.25 138.073207,15.25 C137.713207,15.25 137.433207,15.53 137.433207,15.89 C137.433207,16.25 137.713207,16.53 138.073207,16.53 Z M137.583207,22.55 L138.533207,22.55 L138.533207,17.51 L137.583207,17.51 L137.583207,22.55 Z" id="i"></path>
            <path d="M145.957251,17.4 C145.177251,17.4 144.587251,17.78 144.267251,18.49 C144.037251,17.76 143.497251,17.4 142.697251,17.4 C141.987251,17.4 141.427251,17.74 141.117251,18.33 L141.117251,17.51 L140.167251,17.51 L140.167251,22.55 L141.117251,22.55 L141.117251,19.75 C141.117251,18.86 141.617251,18.26 142.367251,18.26 C143.097251,18.26 143.447251,18.75 143.447251,19.73 L143.447251,22.55 L144.397251,22.55 L144.397251,19.7 C144.397251,18.86 144.907251,18.26 145.637251,18.26 C146.367251,18.26 146.727251,18.75 146.727251,19.73 L146.727251,22.55 L147.677251,22.55 L147.677251,19.41 C147.677251,18.07 147.057251,17.4 145.957251,17.4 Z" id="m"></path>
            <path d="M153.675337,22.65 C155.105337,22.65 156.075337,21.89 156.075337,20.55 C156.075337,19.26 155.175337,18.94 154.075337,18.53 C153.185337,18.2 152.585337,17.94 152.585337,17.25 C152.585337,16.64 153.095337,16.26 153.885337,16.26 C154.465337,16.26 155.115337,16.46 155.585337,16.73 L155.855337,15.82 C155.375337,15.55 154.635337,15.34 153.905337,15.34 C152.515337,15.34 151.565337,16.1 151.565337,17.34 C151.565337,18.53 152.445337,18.99 153.535337,19.39 C154.505337,19.75 155.055337,19.96 155.055337,20.65 C155.055337,21.35 154.565337,21.73 153.745337,21.73 C152.975337,21.73 152.205337,21.41 151.675337,20.98 L151.395337,21.94 C152.005337,22.39 152.835337,22.65 153.675337,22.65 Z" id="S"></path>
            <path d="M159.10938,22.65 C159.63938,22.65 160.09938,22.48 160.36938,22.28 L160.20938,21.49 C159.99938,21.62 159.67938,21.78 159.31938,21.78 C158.89938,21.78 158.65938,21.53 158.65938,21.03 L158.65938,18.32 L160.07938,18.32 L160.07938,17.51 L158.65938,17.51 L158.65938,15.93 L157.70938,16.06 L157.70938,17.51 L156.97938,17.51 L156.97938,18.32 L157.70938,18.32 L157.70938,21.15 C157.70938,22.16 158.25938,22.65 159.10938,22.65 Z" id="t"></path>
            <path d="M163.243423,17.41 C162.383423,17.41 161.673423,17.7 161.233423,18 L161.473423,18.79 C161.803423,18.55 162.363423,18.22 163.083423,18.22 C163.943423,18.22 164.373423,18.69 164.373423,19.42 L164.373423,19.53 C161.903423,19.55 160.893423,20 160.893423,21.16 C160.893423,22.08 161.533423,22.65 162.573423,22.65 C163.423423,22.65 164.053423,22.28 164.373423,21.77 L164.373423,22.55 L165.323423,22.55 L165.323423,19.4 C165.323423,18.04 164.523423,17.41 163.243423,17.41 Z M162.863423,21.92 C162.223423,21.92 161.883423,21.6 161.883423,21.11 C161.883423,20.46 162.483423,20.18 164.373423,20.16 L164.373423,20.59 C164.373423,21.53 163.553423,21.92 162.863423,21.92 Z" id="a"></path>
            <path d="M170.777466,15.03 L170.777466,18.41 C170.417466,17.74 169.727466,17.41 168.947466,17.41 C167.537466,17.41 166.517466,18.5 166.517466,20.04 C166.517466,21.56 167.527466,22.65 168.947466,22.65 C169.717466,22.65 170.377466,22.35 170.777466,21.63 L170.777466,22.56 L171.727466,22.56 L171.727466,15.03 L170.777466,15.03 Z M169.117466,21.77 C168.147466,21.77 167.497466,21.07 167.497466,20.04 C167.497466,18.99 168.167466,18.29 169.127466,18.29 C170.097466,18.29 170.827466,19.03 170.827466,20.03 C170.827466,21.02 170.097466,21.77 169.117466,21.77 Z" id="d"></path>
            <path d="M174.961509,22.65 C175.491509,22.65 175.951509,22.48 176.221509,22.28 L176.061509,21.49 C175.851509,21.62 175.531509,21.78 175.171509,21.78 C174.751509,21.78 174.511509,21.53 174.511509,21.03 L174.511509,18.32 L175.931509,18.32 L175.931509,17.51 L174.511509,17.51 L174.511509,15.93 L173.561509,16.06 L173.561509,17.51 L172.831509,17.51 L172.831509,18.32 L173.561509,18.32 L173.561509,21.15 C173.561509,22.16 174.111509,22.65 174.961509,22.65 Z" id="t"></path>
            <polygon id="v" points="180.245552 17.51 178.775552 21.45 177.315552 17.51 176.265552 17.51 178.275552 22.55 179.245552 22.55 181.245552 17.51"></polygon>
            <path d="M186.519596,20.05 C186.519596,18.49 185.549596,17.41 184.129596,17.41 C182.699596,17.41 181.619596,18.51 181.619596,20.04 C181.619596,21.51 182.639596,22.65 184.259596,22.65 C185.149596,22.65 185.879596,22.35 186.329596,21.98 L186.079596,21.2 C185.679596,21.54 185.059596,21.82 184.339596,21.82 C183.309596,21.82 182.639596,21.21 182.579596,20.18 L186.519596,20.18 L186.519596,20.05 Z M182.619596,19.5 C182.779596,18.72 183.389596,18.19 184.129596,18.19 C184.889596,18.19 185.439596,18.73 185.539596,19.5 L182.619596,19.5 Z" id="e"></path>
            <path d="M189.923639,17.4 C189.393639,17.4 188.943639,17.66 188.653639,18.37 L188.653639,17.51 L187.713639,17.51 L187.713639,22.55 L188.653639,22.55 L188.653639,20 C188.653639,18.99 189.033639,18.33 189.843639,18.33 C190.033639,18.33 190.223639,18.38 190.363639,18.44 L190.553639,17.52 C190.383639,17.45 190.153639,17.4 189.923639,17.4 Z" id="r"></path>
            <polygon id="k" points="191.427682 22.55 192.377682 22.55 192.377682 19.95 194.617682 22.55 195.857682 22.55 193.507682 19.89 195.767682 17.51 194.567682 17.51 192.377682 19.89 192.377682 15.03 191.427682 15.03"></polygon>
            <path d="M201.121725,20.05 C201.121725,18.49 200.151725,17.41 198.731725,17.41 C197.301725,17.41 196.221725,18.51 196.221725,20.04 C196.221725,21.51 197.241725,22.65 198.861725,22.65 C199.751725,22.65 200.481725,22.35 200.931725,21.98 L200.681725,21.2 C200.281725,21.54 199.661725,21.82 198.941725,21.82 C197.911725,21.82 197.241725,21.21 197.181725,20.18 L201.121725,20.18 L201.121725,20.05 Z M197.221725,19.5 C197.381725,18.72 197.991725,18.19 198.731725,18.19 C199.491725,18.19 200.041725,18.73 200.141725,19.5 L197.221725,19.5 Z" id="e"></path>
            <path d="M205.055768,17.4 C204.235768,17.4 203.595768,17.76 203.265768,18.37 L203.265768,15.03 L202.315768,15.03 L202.315768,22.55 L203.265768,22.55 L203.265768,19.75 C203.265768,18.86 203.875768,18.26 204.725768,18.26 C205.515768,18.26 205.915768,18.75 205.915768,19.73 L205.915768,22.55 L206.865768,22.55 L206.865768,19.41 C206.865768,18.07 206.205768,17.4 205.055768,17.4 Z" id="h"></path>
            <path d="M210.669811,17.4 C210.139811,17.4 209.689811,17.66 209.399811,18.37 L209.399811,17.51 L208.459811,17.51 L208.459811,22.55 L209.399811,22.55 L209.399811,20 C209.399811,18.99 209.779811,18.33 210.589811,18.33 C210.779811,18.33 210.969811,18.38 211.109811,18.44 L211.299811,17.52 C211.129811,17.45 210.899811,17.4 210.669811,17.4 Z" id="r"></path>
            <polygon id="," points="211.053854 23.97 211.933854 23.97 212.933854 21.49 211.913854 21.49"></polygon>
            <polygon id="w" points="222.891941 17.51 221.711941 21.37 220.471941 17.51 219.651941 17.51 218.421941 21.41 217.221941 17.51 216.171941 17.51 217.861941 22.55 218.841941 22.55 220.051941 18.79 221.271941 22.55 222.251941 22.55 223.891941 17.51"></polygon>
            <path d="M226.885984,17.41 C226.025984,17.41 225.315984,17.7 224.875984,18 L225.115984,18.79 C225.445984,18.55 226.005984,18.22 226.725984,18.22 C227.585984,18.22 228.015984,18.69 228.015984,19.42 L228.015984,19.53 C225.545984,19.55 224.535984,20 224.535984,21.16 C224.535984,22.08 225.175984,22.65 226.215984,22.65 C227.065984,22.65 227.695984,22.28 228.015984,21.77 L228.015984,22.55 L228.965984,22.55 L228.965984,19.4 C228.965984,18.04 228.165984,17.41 226.885984,17.41 Z M226.505984,21.92 C225.865984,21.92 225.525984,21.6 225.525984,21.11 C225.525984,20.46 226.125984,20.18 228.015984,20.16 L228.015984,20.59 C228.015984,21.53 227.195984,21.92 226.505984,21.92 Z M225.825984,16.45 C226.155984,16.45 226.405984,16.19 226.405984,15.87 C226.405984,15.55 226.155984,15.3 225.825984,15.3 C225.505984,15.3 225.255984,15.55 225.255984,15.87 C225.255984,16.19 225.505984,16.45 225.825984,16.45 Z M227.985984,16.45 C228.305984,16.45 228.555984,16.19 228.555984,15.87 C228.555984,15.55 228.305984,15.3 227.985984,15.3 C227.665984,15.3 227.405984,15.55 227.405984,15.87 C227.405984,16.19 227.665984,16.45 227.985984,16.45 Z" id="ä"></path>
            <path d="M233.290027,17.4 C232.470027,17.4 231.830027,17.76 231.500027,18.37 L231.500027,15.03 L230.550027,15.03 L230.550027,22.55 L231.500027,22.55 L231.500027,19.75 C231.500027,18.86 232.110027,18.26 232.960027,18.26 C233.750027,18.26 234.150027,18.75 234.150027,19.73 L234.150027,22.55 L235.100027,22.55 L235.100027,19.41 C235.100027,18.07 234.440027,17.4 233.290027,17.4 Z" id="h"></path>
            <path d="M238.90407,17.4 C238.37407,17.4 237.92407,17.66 237.63407,18.37 L237.63407,17.51 L236.69407,17.51 L236.69407,22.55 L237.63407,22.55 L237.63407,20 C237.63407,18.99 238.01407,18.33 238.82407,18.33 C239.01407,18.33 239.20407,18.38 239.34407,18.44 L239.53407,17.52 C239.36407,17.45 239.13407,17.4 238.90407,17.4 Z" id="r"></path>
            <path d="M244.758113,20.05 C244.758113,18.49 243.788113,17.41 242.368113,17.41 C240.938113,17.41 239.858113,18.51 239.858113,20.04 C239.858113,21.51 240.878113,22.65 242.498113,22.65 C243.388113,22.65 244.118113,22.35 244.568113,21.98 L244.318113,21.2 C243.918113,21.54 243.298113,21.82 242.578113,21.82 C241.548113,21.82 240.878113,21.21 240.818113,20.18 L244.758113,20.18 L244.758113,20.05 Z M240.858113,19.5 C241.018113,18.72 241.628113,18.19 242.368113,18.19 C243.128113,18.19 243.678113,18.73 243.778113,19.5 L240.858113,19.5 Z" id="e"></path>
            <path d="M248.702156,17.41 C247.892156,17.41 247.242156,17.77 246.902156,18.39 L246.902156,17.51 L245.952156,17.51 L245.952156,22.55 L246.902156,22.55 L246.902156,19.77 C246.902156,18.87 247.492156,18.27 248.362156,18.27 C249.152156,18.27 249.552156,18.76 249.552156,19.74 L249.552156,22.55 L250.502156,22.55 L250.502156,19.42 C250.502156,18.09 249.852156,17.41 248.702156,17.41 Z" id="n"></path>
            <path d="M255.966199,15.03 L255.966199,18.41 C255.606199,17.74 254.916199,17.41 254.136199,17.41 C252.726199,17.41 251.706199,18.5 251.706199,20.04 C251.706199,21.56 252.716199,22.65 254.136199,22.65 C254.906199,22.65 255.566199,22.35 255.966199,21.63 L255.966199,22.56 L256.916199,22.56 L256.916199,15.03 L255.966199,15.03 Z M254.306199,21.77 C253.336199,21.77 252.686199,21.07 252.686199,20.04 C252.686199,18.99 253.356199,18.29 254.316199,18.29 C255.286199,18.29 256.016199,19.03 256.016199,20.03 C256.016199,21.02 255.286199,21.77 254.306199,21.77 Z" id="d"></path>
            <path d="M264.804286,15.03 L264.804286,18.41 C264.444286,17.74 263.754286,17.41 262.974286,17.41 C261.564286,17.41 260.544286,18.5 260.544286,20.04 C260.544286,21.56 261.554286,22.65 262.974286,22.65 C263.744286,22.65 264.404286,22.35 264.804286,21.63 L264.804286,22.56 L265.754286,22.56 L265.754286,15.03 L264.804286,15.03 Z M263.144286,21.77 C262.174286,21.77 261.524286,21.07 261.524286,20.04 C261.524286,18.99 262.194286,18.29 263.154286,18.29 C264.124286,18.29 264.854286,19.03 264.854286,20.03 C264.854286,21.02 264.124286,21.77 263.144286,21.77 Z" id="d"></path>
            <path d="M267.858329,16.53 C268.218329,16.53 268.488329,16.25 268.488329,15.89 C268.488329,15.53 268.218329,15.25 267.858329,15.25 C267.498329,15.25 267.218329,15.53 267.218329,15.89 C267.218329,16.25 267.498329,16.53 267.858329,16.53 Z M267.368329,22.55 L268.318329,22.55 L268.318329,17.51 L267.368329,17.51 L267.368329,22.55 Z" id="i"></path>
            <path d="M272.102372,22.65 C272.852372,22.65 273.492372,22.41 273.932372,22.09 L273.702372,21.28 C273.262372,21.58 272.712372,21.78 272.182372,21.78 C271.212372,21.78 270.552372,21.07 270.552372,20.03 C270.552372,18.99 271.222372,18.29 272.212372,18.29 C272.752372,18.29 273.222372,18.49 273.572372,18.75 L273.872372,17.92 C273.452372,17.64 272.882372,17.41 272.162372,17.41 C270.642372,17.41 269.562372,18.48 269.562372,20.05 C269.562372,21.6 270.622372,22.65 272.102372,22.65 Z" id="c"></path>
            <path d="M277.796415,17.4 C276.976415,17.4 276.336415,17.76 276.006415,18.37 L276.006415,15.03 L275.056415,15.03 L275.056415,22.55 L276.006415,22.55 L276.006415,19.75 C276.006415,18.86 276.616415,18.26 277.466415,18.26 C278.256415,18.26 278.656415,18.75 278.656415,19.73 L278.656415,22.55 L279.606415,22.55 L279.606415,19.41 C279.606415,18.07 278.946415,17.4 277.796415,17.4 Z" id="h"></path>
            <path d="M287.474501,15.03 L287.474501,18.41 C287.114501,17.74 286.424501,17.41 285.644501,17.41 C284.234501,17.41 283.214501,18.5 283.214501,20.04 C283.214501,21.56 284.224501,22.65 285.644501,22.65 C286.414501,22.65 287.074501,22.35 287.474501,21.63 L287.474501,22.56 L288.424501,22.56 L288.424501,15.03 L287.474501,15.03 Z M285.814501,21.77 C284.844501,21.77 284.194501,21.07 284.194501,20.04 C284.194501,18.99 284.864501,18.29 285.824501,18.29 C286.794501,18.29 287.524501,19.03 287.524501,20.03 C287.524501,21.02 286.794501,21.77 285.814501,21.77 Z" id="d"></path>
            <path d="M290.528544,16.53 C290.888544,16.53 291.158544,16.25 291.158544,15.89 C291.158544,15.53 290.888544,15.25 290.528544,15.25 C290.168544,15.25 289.888544,15.53 289.888544,15.89 C289.888544,16.25 290.168544,16.53 290.528544,16.53 Z M290.038544,22.55 L290.988544,22.55 L290.988544,17.51 L290.038544,17.51 L290.038544,22.55 Z" id="i"></path>
            <path d="M297.132587,20.05 C297.132587,18.49 296.162587,17.41 294.742587,17.41 C293.312587,17.41 292.232587,18.51 292.232587,20.04 C292.232587,21.51 293.252587,22.65 294.872587,22.65 C295.762587,22.65 296.492587,22.35 296.942587,21.98 L296.692587,21.2 C296.292587,21.54 295.672587,21.82 294.952587,21.82 C293.922587,21.82 293.252587,21.21 293.192587,20.18 L297.132587,20.18 L297.132587,20.05 Z M293.232587,19.5 C293.392587,18.72 294.002587,18.19 294.742587,18.19 C295.502587,18.19 296.052587,18.73 296.152587,19.5 L293.232587,19.5 Z" id="e"></path>
            <polygon id="T" points="4.89 30.45 0 30.45 0 31.36 1.95 31.36 1.95 37.55 2.97 37.55 2.97 31.36 4.89 31.36"></polygon>
            <polygon id="-" points="5.31404313 35.23 8.77404313 35.23 8.77404313 34.42 5.31404313 34.42"></polygon>
            <polygon id="M" points="10.1680863 37.55 11.1780862 37.55 11.1780862 31.84 13.2080863 35.15 13.9780862 35.15 16.0580862 31.84 16.0580862 37.55 17.0680863 37.55 17.0680863 30.45 15.8380862 30.45 13.5980863 33.97 11.4380863 30.45 10.1680863 30.45"></polygon>
            <path d="M20.8921294,32.41 C20.0321294,32.41 19.3221294,32.7 18.8821294,33 L19.1221294,33.79 C19.4521294,33.55 20.0121294,33.22 20.7321294,33.22 C21.5921294,33.22 22.0221294,33.69 22.0221294,34.42 L22.0221294,34.53 C19.5521294,34.55 18.5421294,35 18.5421294,36.16 C18.5421294,37.08 19.1821294,37.65 20.2221294,37.65 C21.0721294,37.65 21.7021294,37.28 22.0221294,36.77 L22.0221294,37.55 L22.9721294,37.55 L22.9721294,34.4 C22.9721294,33.04 22.1721294,32.41 20.8921294,32.41 Z M20.5121294,36.92 C19.8721294,36.92 19.5321294,36.6 19.5321294,36.11 C19.5321294,35.46 20.1321294,35.18 22.0221294,35.16 L22.0221294,35.59 C22.0221294,36.53 21.2021294,36.92 20.5121294,36.92 Z" id="a"></path>
            <path d="M26.1361725,37.65 C26.6661725,37.65 27.1261725,37.48 27.3961725,37.28 L27.2361725,36.49 C27.0261725,36.62 26.7061725,36.78 26.3461725,36.78 C25.9261725,36.78 25.6861725,36.53 25.6861725,36.03 L25.6861725,33.32 L27.1061725,33.32 L27.1061725,32.51 L25.6861725,32.51 L25.6861725,30.93 L24.7361725,31.06 L24.7361725,32.51 L24.0061725,32.51 L24.0061725,33.32 L24.7361725,33.32 L24.7361725,36.15 C24.7361725,37.16 25.2861725,37.65 26.1361725,37.65 Z" id="t"></path>
            <path d="M32.7202156,35.05 C32.7202156,33.49 31.7502156,32.41 30.3302156,32.41 C28.9002156,32.41 27.8202156,33.51 27.8202156,35.04 C27.8202156,36.51 28.8402156,37.65 30.4602156,37.65 C31.3502156,37.65 32.0802156,37.35 32.5302156,36.98 L32.2802156,36.2 C31.8802156,36.54 31.2602156,36.82 30.5402156,36.82 C29.5102156,36.82 28.8402156,36.21 28.7802156,35.18 L32.7202156,35.18 L32.7202156,35.05 Z M28.8202156,34.5 C28.9802156,33.72 29.5902156,33.19 30.3302156,33.19 C31.0902156,33.19 31.6402156,33.73 31.7402156,34.5 L28.8202156,34.5 Z" id="e"></path>
            <path d="M41.0483019,37.55 L42.1283019,37.55 L39.4383019,30.45 L38.3383019,30.45 L35.6583019,37.55 L36.6983019,37.55 L37.4883019,35.39 L40.2583019,35.39 L41.0483019,37.55 Z M37.7883019,34.55 L38.8683019,31.59 L39.9483019,34.55 L37.7883019,34.55 Z" id="A"></path>
            <path d="M44.572345,37.65 C45.802345,37.65 46.512345,37.01 46.512345,36.07 C46.512345,35.16 45.832345,34.82 44.902345,34.57 C44.312345,34.41 43.842345,34.26 43.842345,33.8 C43.842345,33.39 44.212345,33.16 44.742345,33.16 C45.292345,33.16 45.812345,33.38 46.152345,33.61 L46.342345,32.83 C45.962345,32.6 45.392345,32.41 44.762345,32.41 C43.652345,32.41 42.902345,32.97 42.902345,33.92 C42.902345,34.85 43.632345,35.14 44.412345,35.38 C45.162345,35.61 45.582345,35.75 45.582345,36.21 C45.582345,36.65 45.212345,36.9 44.622345,36.9 C44.002345,36.9 43.382345,36.65 42.992345,36.33 L42.762345,37.12 C43.152345,37.44 43.882345,37.65 44.572345,37.65 Z" id="s"></path>
            <path d="M49.3663881,37.65 C50.5963881,37.65 51.3063881,37.01 51.3063881,36.07 C51.3063881,35.16 50.6263881,34.82 49.6963881,34.57 C49.1063881,34.41 48.6363881,34.26 48.6363881,33.8 C48.6363881,33.39 49.0063881,33.16 49.5363881,33.16 C50.0863881,33.16 50.6063881,33.38 50.9463881,33.61 L51.1363881,32.83 C50.7563881,32.6 50.1863881,32.41 49.5563881,32.41 C48.4463881,32.41 47.6963881,32.97 47.6963881,33.92 C47.6963881,34.85 48.4263881,35.14 49.2063881,35.38 C49.9563881,35.61 50.3763881,35.75 50.3763881,36.21 C50.3763881,36.65 50.0063881,36.9 49.4163881,36.9 C48.7963881,36.9 48.1763881,36.65 47.7863881,36.33 L47.5563881,37.12 C47.9463881,37.44 48.6763881,37.65 49.3663881,37.65 Z" id="s"></path>
            <path d="M53.1404313,31.53 C53.5004313,31.53 53.7704313,31.25 53.7704313,30.89 C53.7704313,30.53 53.5004313,30.25 53.1404313,30.25 C52.7804313,30.25 52.5004313,30.53 52.5004313,30.89 C52.5004313,31.25 52.7804313,31.53 53.1404313,31.53 Z M52.6504313,37.55 L53.6004313,37.55 L53.6004313,32.51 L52.6504313,32.51 L52.6504313,37.55 Z" id="i"></path>
            <path d="M56.7444744,37.65 C57.9744744,37.65 58.6844744,37.01 58.6844744,36.07 C58.6844744,35.16 58.0044744,34.82 57.0744744,34.57 C56.4844744,34.41 56.0144744,34.26 56.0144744,33.8 C56.0144744,33.39 56.3844744,33.16 56.9144744,33.16 C57.4644744,33.16 57.9844744,33.38 58.3244744,33.61 L58.5144744,32.83 C58.1344744,32.6 57.5644744,32.41 56.9344744,32.41 C55.8244744,32.41 55.0744744,32.97 55.0744744,33.92 C55.0744744,34.85 55.8044744,35.14 56.5844744,35.38 C57.3344744,35.61 57.7544744,35.75 57.7544744,36.21 C57.7544744,36.65 57.3844744,36.9 56.7944744,36.9 C56.1744744,36.9 55.5544744,36.65 55.1644744,36.33 L54.9344744,37.12 C55.3244744,37.44 56.0544744,37.65 56.7444744,37.65 Z" id="s"></path>
            <path d="M61.6085175,37.65 C62.1385175,37.65 62.5985175,37.48 62.8685175,37.28 L62.7085175,36.49 C62.4985175,36.62 62.1785175,36.78 61.8185175,36.78 C61.3985175,36.78 61.1585175,36.53 61.1585175,36.03 L61.1585175,33.32 L62.5785175,33.32 L62.5785175,32.51 L61.1585175,32.51 L61.1585175,30.93 L60.2085175,31.06 L60.2085175,32.51 L59.4785175,32.51 L59.4785175,33.32 L60.2085175,33.32 L60.2085175,36.15 C60.2085175,37.16 60.7585175,37.65 61.6085175,37.65 Z" id="t"></path>
            <path d="M68.1925606,35.05 C68.1925606,33.49 67.2225606,32.41 65.8025606,32.41 C64.3725606,32.41 63.2925606,33.51 63.2925606,35.04 C63.2925606,36.51 64.3125606,37.65 65.9325606,37.65 C66.8225606,37.65 67.5525606,37.35 68.0025606,36.98 L67.7525606,36.2 C67.3525606,36.54 66.7325606,36.82 66.0125606,36.82 C64.9825606,36.82 64.3125606,36.21 64.2525606,35.18 L68.1925606,35.18 L68.1925606,35.05 Z M64.2925606,34.5 C64.4525606,33.72 65.0625606,33.19 65.8025606,33.19 C66.5625606,33.19 67.1125606,33.73 67.2125606,34.5 L64.2925606,34.5 Z" id="e"></path>
            <path d="M72.1366038,32.41 C71.3266038,32.41 70.6766037,32.77 70.3366038,33.39 L70.3366038,32.51 L69.3866038,32.51 L69.3866038,37.55 L70.3366038,37.55 L70.3366038,34.77 C70.3366038,33.87 70.9266037,33.27 71.7966038,33.27 C72.5866038,33.27 72.9866038,33.76 72.9866038,34.74 L72.9866038,37.55 L73.9366038,37.55 L73.9366038,34.42 C73.9366038,33.09 73.2866037,32.41 72.1366038,32.41 Z" id="n"></path>
            <polygon id="z" points="75.1106469 37.55 79.2006469 37.55 79.2006469 36.74 76.5306469 36.74 79.1506469 32.95 79.1506469 32.51 75.2206469 32.51 75.2206469 33.32 77.7806469 33.32 75.1106469 37.13"></polygon>
            <path d="M81.82469,37.65 C83.05469,37.65 83.76469,37.01 83.76469,36.07 C83.76469,35.16 83.08469,34.82 82.15469,34.57 C81.56469,34.41 81.09469,34.26 81.09469,33.8 C81.09469,33.39 81.46469,33.16 81.99469,33.16 C82.54469,33.16 83.06469,33.38 83.40469,33.61 L83.59469,32.83 C83.21469,32.6 82.64469,32.41 82.01469,32.41 C80.90469,32.41 80.15469,32.97 80.15469,33.92 C80.15469,34.85 80.88469,35.14 81.66469,35.38 C82.41469,35.61 82.83469,35.75 82.83469,36.21 C82.83469,36.65 82.46469,36.9 81.87469,36.9 C81.25469,36.9 80.63469,36.65 80.24469,36.33 L80.01469,37.12 C80.40469,37.44 81.13469,37.65 81.82469,37.65 Z" id="s"></path>
            <path d="M88.2487331,32.51 L86.8587331,36.22 L85.2987331,32.51 L84.2587331,32.51 L86.3687331,37.32 L86.0987331,37.94 C85.8087331,38.62 85.4587331,38.81 84.9487331,38.81 C84.7887331,38.81 84.6487331,38.78 84.5387331,38.74 L84.4087331,39.58 C84.6387331,39.66 84.8887331,39.69 85.1087331,39.69 C86.0087331,39.69 86.5687331,39.21 86.9587331,38.23 L89.2487331,32.51 L88.2487331,32.51 Z" id="y"></path>
            <path d="M91.5227762,37.65 C92.7527762,37.65 93.4627763,37.01 93.4627763,36.07 C93.4627763,35.16 92.7827763,34.82 91.8527763,34.57 C91.2627763,34.41 90.7927763,34.26 90.7927763,33.8 C90.7927763,33.39 91.1627763,33.16 91.6927762,33.16 C92.2427762,33.16 92.7627763,33.38 93.1027763,33.61 L93.2927763,32.83 C92.9127763,32.6 92.3427763,32.41 91.7127763,32.41 C90.6027763,32.41 89.8527763,32.97 89.8527763,33.92 C89.8527763,34.85 90.5827762,35.14 91.3627762,35.38 C92.1127762,35.61 92.5327763,35.75 92.5327763,36.21 C92.5327763,36.65 92.1627763,36.9 91.5727763,36.9 C90.9527762,36.9 90.3327762,36.65 89.9427762,36.33 L89.7127763,37.12 C90.1027763,37.44 90.8327762,37.65 91.5227762,37.65 Z" id="s"></path>
            <path d="M96.3868194,37.65 C96.9168194,37.65 97.3768194,37.48 97.6468194,37.28 L97.4868194,36.49 C97.2768194,36.62 96.9568194,36.78 96.5968194,36.78 C96.1768194,36.78 95.9368194,36.53 95.9368194,36.03 L95.9368194,33.32 L97.3568194,33.32 L97.3568194,32.51 L95.9368194,32.51 L95.9368194,30.93 L94.9868194,31.06 L94.9868194,32.51 L94.2568194,32.51 L94.2568194,33.32 L94.9868194,33.32 L94.9868194,36.15 C94.9868194,37.16 95.5368194,37.65 96.3868194,37.65 Z" id="t"></path>
            <path d="M102.970862,35.05 C102.970862,33.49 102.000862,32.41 100.580862,32.41 C99.1508625,32.41 98.0708625,33.51 98.0708625,35.04 C98.0708625,36.51 99.0908625,37.65 100.710862,37.65 C101.600862,37.65 102.330862,37.35 102.780862,36.98 L102.530862,36.2 C102.130863,36.54 101.510863,36.82 100.790862,36.82 C99.7608625,36.82 99.0908625,36.21 99.0308625,35.18 L102.970862,35.18 L102.970862,35.05 Z M99.0708625,34.5 C99.2308625,33.72 99.8408625,33.19 100.580862,33.19 C101.340862,33.19 101.890862,33.73 101.990862,34.5 L99.0708625,34.5 Z" id="e"></path>
            <path d="M109.954906,32.4 C109.174906,32.4 108.584906,32.78 108.264906,33.49 C108.034906,32.76 107.494906,32.4 106.694906,32.4 C105.984906,32.4 105.424906,32.74 105.114906,33.33 L105.114906,32.51 L104.164906,32.51 L104.164906,37.55 L105.114906,37.55 L105.114906,34.75 C105.114906,33.86 105.614906,33.26 106.364906,33.26 C107.094906,33.26 107.444906,33.75 107.444906,34.73 L107.444906,37.55 L108.394906,37.55 L108.394906,34.7 C108.394906,33.86 108.904906,33.26 109.634906,33.26 C110.364906,33.26 110.724906,33.75 110.724906,34.73 L110.724906,37.55 L111.674906,37.55 L111.674906,34.41 C111.674906,33.07 111.054906,32.4 109.954906,32.4 Z" id="m"></path>
            <path d="M117.768949,35.05 C117.768949,33.49 116.798949,32.41 115.378949,32.41 C113.948949,32.41 112.868949,33.51 112.868949,35.04 C112.868949,36.51 113.888949,37.65 115.508949,37.65 C116.398949,37.65 117.128949,37.35 117.578949,36.98 L117.328949,36.2 C116.928949,36.54 116.308949,36.82 115.588949,36.82 C114.558949,36.82 113.888949,36.21 113.828949,35.18 L117.768949,35.18 L117.768949,35.05 Z M113.868949,34.5 C114.028949,33.72 114.638949,33.19 115.378949,33.19 C116.138949,33.19 116.688949,33.73 116.788949,34.5 L113.868949,34.5 Z" id="e"></path>
            <path d="M124.157035,32.41 C123.427035,32.41 122.717035,32.75 122.317035,33.4 L122.317035,30.03 L121.367035,30.03 L121.367035,37.55 L122.317035,37.55 L122.317035,36.65 C122.697035,37.32 123.417035,37.65 124.107035,37.65 C125.567035,37.65 126.567035,36.54 126.567035,35.03 C126.567035,33.51 125.567035,32.41 124.157035,32.41 Z M123.967035,36.77 C123.007035,36.77 122.267035,36.03 122.267035,35.03 C122.267035,34 123.027035,33.29 123.977035,33.29 C124.967035,33.29 125.597035,34.03 125.597035,35.03 C125.597035,36.06 124.927035,36.77 123.967035,36.77 Z" id="b"></path>
            <path d="M132.331078,35.05 C132.331078,33.49 131.361078,32.41 129.941078,32.41 C128.511078,32.41 127.431078,33.51 127.431078,35.04 C127.431078,36.51 128.451078,37.65 130.071078,37.65 C130.961078,37.65 131.691078,37.35 132.141078,36.98 L131.891078,36.2 C131.491078,36.54 130.871078,36.82 130.151078,36.82 C129.121078,36.82 128.451078,36.21 128.391078,35.18 L132.331078,35.18 L132.331078,35.05 Z M128.431078,34.5 C128.591078,33.72 129.201078,33.19 129.941078,33.19 C130.701078,33.19 131.251078,33.73 131.351078,34.5 L128.431078,34.5 Z" id="e"></path>
            <path d="M134.015121,31.53 C134.375121,31.53 134.645121,31.25 134.645121,30.89 C134.645121,30.53 134.375121,30.25 134.015121,30.25 C133.655121,30.25 133.375121,30.53 133.375121,30.89 C133.375121,31.25 133.655121,31.53 134.015121,31.53 Z M133.525121,37.55 L134.475121,37.55 L134.475121,32.51 L133.525121,32.51 L133.525121,37.55 Z" id="i"></path>
            <path d="M141.899164,32.4 C141.119164,32.4 140.529164,32.78 140.209164,33.49 C139.979164,32.76 139.439164,32.4 138.639164,32.4 C137.929164,32.4 137.369164,32.74 137.059164,33.33 L137.059164,32.51 L136.109164,32.51 L136.109164,37.55 L137.059164,37.55 L137.059164,34.75 C137.059164,33.86 137.559164,33.26 138.309164,33.26 C139.039164,33.26 139.389164,33.75 139.389164,34.73 L139.389164,37.55 L140.339164,37.55 L140.339164,34.7 C140.339164,33.86 140.849164,33.26 141.579164,33.26 C142.309164,33.26 142.669164,33.75 142.669164,34.73 L142.669164,37.55 L143.619164,37.55 L143.619164,34.41 C143.619164,33.07 142.999164,32.4 141.899164,32.4 Z" id="m"></path>
            <polygon id="F" points="147.717251 37.55 148.747251 37.55 148.747251 34.48 151.607251 34.48 151.607251 33.57 148.747251 33.57 148.747251 31.36 151.747251 31.36 151.747251 30.45 147.717251 30.45"></polygon>
            <path d="M154.681294,32.41 C153.821294,32.41 153.111294,32.7 152.671294,33 L152.911294,33.79 C153.241294,33.55 153.801294,33.22 154.521294,33.22 C155.381294,33.22 155.811294,33.69 155.811294,34.42 L155.811294,34.53 C153.341294,34.55 152.331294,35 152.331294,36.16 C152.331294,37.08 152.971294,37.65 154.011294,37.65 C154.861294,37.65 155.491294,37.28 155.811294,36.77 L155.811294,37.55 L156.761294,37.55 L156.761294,34.4 C156.761294,33.04 155.961294,32.41 154.681294,32.41 Z M154.301294,36.92 C153.661294,36.92 153.321294,36.6 153.321294,36.11 C153.321294,35.46 153.921294,35.18 155.811294,35.16 L155.811294,35.59 C155.811294,36.53 154.991294,36.92 154.301294,36.92 Z" id="a"></path>
            <path d="M161.085337,32.4 C160.265337,32.4 159.625337,32.76 159.295337,33.37 L159.295337,30.03 L158.345337,30.03 L158.345337,37.55 L159.295337,37.55 L159.295337,34.75 C159.295337,33.86 159.905337,33.26 160.755337,33.26 C161.545337,33.26 161.945337,33.75 161.945337,34.73 L161.945337,37.55 L162.895337,37.55 L162.895337,34.41 C162.895337,33.07 162.235337,32.4 161.085337,32.4 Z" id="h"></path>
            <path d="M166.69938,32.4 C166.16938,32.4 165.71938,32.66 165.42938,33.37 L165.42938,32.51 L164.48938,32.51 L164.48938,37.55 L165.42938,37.55 L165.42938,35 C165.42938,33.99 165.80938,33.33 166.61938,33.33 C166.80938,33.33 166.99938,33.38 167.13938,33.44 L167.32938,32.52 C167.15938,32.45 166.92938,32.4 166.69938,32.4 Z" id="r"></path>
            <path d="M172.553423,35.05 C172.553423,33.49 171.583423,32.41 170.163423,32.41 C168.733423,32.41 167.653423,33.51 167.653423,35.04 C167.653423,36.51 168.673423,37.65 170.293423,37.65 C171.183423,37.65 171.913423,37.35 172.363423,36.98 L172.113423,36.2 C171.713423,36.54 171.093423,36.82 170.373423,36.82 C169.343423,36.82 168.673423,36.21 168.613423,35.18 L172.553423,35.18 L172.553423,35.05 Z M168.653423,34.5 C168.813423,33.72 169.423423,33.19 170.163423,33.19 C170.923423,33.19 171.473423,33.73 171.573423,34.5 L168.653423,34.5 Z" id="e"></path>
            <path d="M176.497466,32.41 C175.687466,32.41 175.037466,32.77 174.697466,33.39 L174.697466,32.51 L173.747466,32.51 L173.747466,37.55 L174.697466,37.55 L174.697466,34.77 C174.697466,33.87 175.287466,33.27 176.157466,33.27 C176.947466,33.27 177.347466,33.76 177.347466,34.74 L177.347466,37.55 L178.297466,37.55 L178.297466,34.42 C178.297466,33.09 177.647466,32.41 176.497466,32.41 Z" id="n"></path>
            <path d="M185.845552,32.51 L185.845552,35.3 C185.845552,36.19 185.245552,36.8 184.375552,36.8 C183.585552,36.8 183.185552,36.31 183.185552,35.33 L183.185552,32.51 L182.235552,32.51 L182.235552,35.65 C182.235552,36.98 182.905552,37.65 184.025552,37.65 C184.855552,37.65 185.505552,37.29 185.845552,36.67 L185.845552,37.55 L186.795552,37.55 L186.795552,32.51 L185.845552,32.51 Z" id="u"></path>
            <path d="M191.179596,32.41 C190.369596,32.41 189.719596,32.77 189.379596,33.39 L189.379596,32.51 L188.429596,32.51 L188.429596,37.55 L189.379596,37.55 L189.379596,34.77 C189.379596,33.87 189.969596,33.27 190.839596,33.27 C191.629596,33.27 192.029596,33.76 192.029596,34.74 L192.029596,37.55 L192.979596,37.55 L192.979596,34.42 C192.979596,33.09 192.329596,32.41 191.179596,32.41 Z" id="n"></path>
            <path d="M196.153639,37.65 C196.683639,37.65 197.143639,37.48 197.413639,37.28 L197.253639,36.49 C197.043639,36.62 196.723639,36.78 196.363639,36.78 C195.943639,36.78 195.703639,36.53 195.703639,36.03 L195.703639,33.32 L197.123639,33.32 L197.123639,32.51 L195.703639,32.51 L195.703639,30.93 L194.753639,31.06 L194.753639,32.51 L194.023639,32.51 L194.023639,33.32 L194.753639,33.32 L194.753639,36.15 C194.753639,37.16 195.303639,37.65 196.153639,37.65 Z" id="t"></path>
            <path d="M202.737682,35.05 C202.737682,33.49 201.767682,32.41 200.347682,32.41 C198.917682,32.41 197.837682,33.51 197.837682,35.04 C197.837682,36.51 198.857682,37.65 200.477682,37.65 C201.367682,37.65 202.097682,37.35 202.547682,36.98 L202.297682,36.2 C201.897682,36.54 201.277682,36.82 200.557682,36.82 C199.527682,36.82 198.857682,36.21 198.797682,35.18 L202.737682,35.18 L202.737682,35.05 Z M198.837682,34.5 C198.997682,33.72 199.607682,33.19 200.347682,33.19 C201.107682,33.19 201.657682,33.73 201.757682,34.5 L198.837682,34.5 Z" id="e"></path>
            <path d="M206.141725,32.4 C205.611725,32.4 205.161725,32.66 204.871725,33.37 L204.871725,32.51 L203.931725,32.51 L203.931725,37.55 L204.871725,37.55 L204.871725,35 C204.871725,33.99 205.251725,33.33 206.061725,33.33 C206.251725,33.33 206.441725,33.38 206.581725,33.44 L206.771725,32.52 C206.601725,32.45 206.371725,32.4 206.141725,32.4 Z" id="r"></path>
            <path d="M209.155768,37.65 C210.385768,37.65 211.095768,37.01 211.095768,36.07 C211.095768,35.16 210.415768,34.82 209.485768,34.57 C208.895768,34.41 208.425768,34.26 208.425768,33.8 C208.425768,33.39 208.795768,33.16 209.325768,33.16 C209.875768,33.16 210.395768,33.38 210.735768,33.61 L210.925768,32.83 C210.545768,32.6 209.975768,32.41 209.345768,32.41 C208.235768,32.41 207.485768,32.97 207.485768,33.92 C207.485768,34.85 208.215768,35.14 208.995768,35.38 C209.745768,35.61 210.165768,35.75 210.165768,36.21 C210.165768,36.65 209.795768,36.9 209.205768,36.9 C208.585768,36.9 207.965768,36.65 207.575768,36.33 L207.345768,37.12 C207.735768,37.44 208.465768,37.65 209.155768,37.65 Z" id="s"></path>
            <path d="M214.019811,37.65 C214.549811,37.65 215.009811,37.48 215.279811,37.28 L215.119811,36.49 C214.909811,36.62 214.589811,36.78 214.229811,36.78 C213.809811,36.78 213.569811,36.53 213.569811,36.03 L213.569811,33.32 L214.989811,33.32 L214.989811,32.51 L213.569811,32.51 L213.569811,30.93 L212.619811,31.06 L212.619811,32.51 L211.889811,32.51 L211.889811,33.32 L212.619811,33.32 L212.619811,36.15 C212.619811,37.16 213.169811,37.65 214.019811,37.65 Z" id="t"></path>
            <path d="M219.683854,32.51 L219.683854,35.3 C219.683854,36.19 219.083854,36.8 218.213854,36.8 C217.423854,36.8 217.023854,36.31 217.023854,35.33 L217.023854,32.51 L216.073854,32.51 L216.073854,35.65 C216.073854,36.98 216.743854,37.65 217.863854,37.65 C218.693854,37.65 219.343854,37.29 219.683854,36.67 L219.683854,37.55 L220.633854,37.55 L220.633854,32.51 L219.683854,32.51 Z M217.313854,31.45 C217.643854,31.45 217.893854,31.19 217.893854,30.87 C217.893854,30.55 217.643854,30.3 217.313854,30.3 C216.993854,30.3 216.743854,30.55 216.743854,30.87 C216.743854,31.19 216.993854,31.45 217.313854,31.45 Z M219.473854,31.45 C219.793854,31.45 220.043854,31.19 220.043854,30.87 C220.043854,30.55 219.793854,30.3 219.473854,30.3 C219.153854,30.3 218.893854,30.55 218.893854,30.87 C218.893854,31.19 219.153854,31.45 219.473854,31.45 Z" id="ü"></path>
            <path d="M223.887897,37.65 C224.417898,37.65 224.877897,37.48 225.147897,37.28 L224.987897,36.49 C224.777897,36.62 224.457897,36.78 224.097897,36.78 C223.677898,36.78 223.437897,36.53 223.437897,36.03 L223.437897,33.32 L224.857897,33.32 L224.857897,32.51 L223.437897,32.51 L223.437897,30.93 L222.487897,31.06 L222.487897,32.51 L221.757897,32.51 L221.757897,33.32 L222.487897,33.32 L222.487897,36.15 C222.487897,37.16 223.037898,37.65 223.887897,37.65 Z" id="t"></path>
            <polygon id="z" points="225.581941 37.55 229.671941 37.55 229.671941 36.74 227.001941 36.74 229.621941 32.95 229.621941 32.51 225.691941 32.51 225.691941 33.32 228.251941 33.32 225.581941 37.13"></polygon>
            <path d="M235.275984,35.05 C235.275984,33.49 234.305984,32.41 232.885984,32.41 C231.455984,32.41 230.375984,33.51 230.375984,35.04 C230.375984,36.51 231.395984,37.65 233.015984,37.65 C233.905984,37.65 234.635984,37.35 235.085984,36.98 L234.835984,36.2 C234.435984,36.54 233.815984,36.82 233.095984,36.82 C232.065984,36.82 231.395984,36.21 231.335984,35.18 L235.275984,35.18 L235.275984,35.05 Z M231.375984,34.5 C231.535984,33.72 232.145984,33.19 232.885984,33.19 C233.645984,33.19 234.195984,33.73 234.295984,34.5 L231.375984,34.5 Z" id="e"></path>
            <path d="M239.220027,32.41 C238.410027,32.41 237.760027,32.77 237.420027,33.39 L237.420027,32.51 L236.470027,32.51 L236.470027,37.55 L237.420027,37.55 L237.420027,34.77 C237.420027,33.87 238.010027,33.27 238.880027,33.27 C239.670027,33.27 240.070027,33.76 240.070027,34.74 L240.070027,37.55 L241.020027,37.55 L241.020027,34.42 C241.020027,33.09 240.370027,32.41 239.220027,32.41 Z" id="n"></path>
            <path d="M243.25407,37.68 C243.60407,37.68 243.89407,37.39 243.89407,37.04 C243.89407,36.68 243.60407,36.4 243.25407,36.4 C242.89407,36.4 242.61407,36.68 242.61407,37.04 C242.61407,37.39 242.89407,37.68 243.25407,37.68 Z" id="."></path>
        </g>
    </g>
</svg>