<svg width="659" height="580" viewBox="0 0 659 580" fill="none" xmlns="http://www.w3.org/2000/svg">
<g filter="url(#filter0_f_1_239)">
<path d="M323.339 436.468L323.375 436.453L323.409 436.435L323.492 436.393C421.138 393.11 535.331 437.018 578.553 534.474C621.779 631.94 577.633 746.087 479.98 789.396L301.783 868.428L-53.2828 1025.9L-210.434 671.555L-289.27 493.758L-289.286 493.723L-289.303 493.688L-289.32 493.656C-332.521 396.196 -288.392 282.087 -190.736 238.776C-93.0666 195.46 21.1539 239.368 64.3807 336.836L143.26 514.692L143.868 516.064L145.239 515.455L323.339 436.468Z" stroke="#1EDC82" stroke-width="3"/>
</g>
<path d="M323.137 436.011L323.16 436.001L323.183 435.989L323.278 435.941C421.178 392.538 535.674 436.558 579.01 534.271C622.349 631.991 578.088 746.433 480.182 789.853L301.985 868.885L-53.5372 1026.56L-210.891 671.758L-289.728 493.96L-289.738 493.937L-289.749 493.914L-289.772 493.869C-333.094 396.154 -288.85 281.743 -190.939 238.319C-93.0178 194.891 21.4986 238.912 64.8377 336.633L143.717 514.49L144.123 515.404L145.037 514.998L323.137 436.011Z" stroke="#1EDC82" stroke-width="2"/>
<defs>
<filter id="filter0_f_1_239" x="-313.401" y="214.586" width="916.047" height="819.291" filterUnits="userSpaceOnUse" color-interpolation-filters="sRGB">
<feFlood flood-opacity="0" result="BackgroundImageFix"/>
<feBlend mode="normal" in="SourceGraphic" in2="BackgroundImageFix" result="shape"/>
<feGaussianBlur stdDeviation="3" result="effect1_foregroundBlur_1_239"/>
</filter>
</defs>
</svg>
