<svg width="702" height="434" viewBox="0 0 702 434" fill="none" xmlns="http://www.w3.org/2000/svg">
<g filter="url(#filter0_f_1_242)">
<path d="M330.419 -225.952L330.454 -225.968L330.489 -225.985L330.584 -226.034C438.561 -273.899 564.84 -225.346 612.636 -117.577C660.436 -9.79768 611.618 116.426 503.633 164.318L306.727 251.647L-85.7613 425.714L-259.476 34.0247L-346.589 -162.44L-346.605 -162.475L-346.622 -162.51L-346.643 -162.55C-394.417 -270.323 -345.618 -396.507 -237.63 -444.4C-129.627 -492.299 -3.32079 -443.746 44.4798 -335.965L131.641 -139.435L132.249 -138.064L133.62 -138.672L330.419 -225.952Z" stroke="#1EDC82" stroke-width="3"/>
</g>
<path d="M330.216 -226.409L330.24 -226.42L330.263 -226.431L330.37 -226.486C438.601 -274.471 565.183 -225.806 613.093 -117.78C661.005 -9.74707 612.073 116.772 503.835 164.775L306.93 252.104L-86.0157 426.374L-259.933 34.2274L-347.046 -162.237L-347.057 -162.261L-347.069 -162.284L-347.094 -162.335C-394.99 -270.364 -346.077 -396.851 -237.832 -444.857C-129.578 -492.868 -2.97606 -444.202 44.9369 -336.168L132.098 -139.638L132.503 -138.724L133.418 -139.129L330.216 -226.409Z" stroke="#1EDC82" stroke-width="2"/>
<defs>
<filter id="filter0_f_1_242" x="-372.479" y="-470.356" width="1010.96" height="904.049" filterUnits="userSpaceOnUse" color-interpolation-filters="sRGB">
<feFlood flood-opacity="0" result="BackgroundImageFix"/>
<feBlend mode="normal" in="SourceGraphic" in2="BackgroundImageFix" result="shape"/>
<feGaussianBlur stdDeviation="3" result="effect1_foregroundBlur_1_242"/>
</filter>
</defs>
</svg>
