<svg width="244" height="48" viewBox="0 0 244 48" fill="none" xmlns="http://www.w3.org/2000/svg">
<rect width="244" height="48" rx="24" fill="#1EDC82"/>
<rect width="244" height="48" rx="24" stroke="#28282D"/>
<path d="M63.7783 27.5H65.9668V19.0361L69.5088 23.9404H70.0977L73.6748 19.0537V27.5H75.8633V15.5469H73.9561L69.8076 21.1191L65.6855 15.5469H63.7783V27.5ZM87.1221 22.8242C87.1221 20.3369 85.2939 18.1924 82.5693 18.1924C79.8535 18.1924 77.8848 20.3457 77.8848 22.9824C77.8848 25.6191 79.8535 27.7725 82.5693 27.7725C84.8193 27.7725 86.4277 26.2871 86.8848 24.6611H84.5645C84.2568 25.4258 83.5977 25.874 82.5254 25.874C81.2773 25.874 80.2402 25.0215 80.0205 23.5449H87.0781C87.1133 23.2109 87.1221 23.0527 87.1221 22.8242ZM80.1084 21.9014C80.4688 20.627 81.4883 20.0469 82.5605 20.0469C83.8086 20.0469 84.8633 20.8906 84.9512 21.9014H80.1084ZM88.8623 27.5H90.9893V22.8857C90.9893 21.2598 92.1318 20.1523 93.3799 20.1523C94.6631 20.1523 95.4717 20.8818 95.4717 22.6748V27.5H97.5986V22.6309C97.5986 19.792 96.3945 18.1924 93.9688 18.1924C92.5801 18.1924 91.499 18.834 90.9365 19.8184L90.9893 18.8076V15.125H88.8623V27.5ZM100.024 27.5H102.151V23.2988C102.151 21.374 103.145 20.293 104.604 20.293H105.456V18.4648H104.489C103.312 18.4648 102.485 19.1064 102.063 20.0996V18.4648H100.024V27.5ZM119.976 22.8242C119.976 20.3369 118.147 18.1924 115.423 18.1924C112.707 18.1924 110.738 20.3457 110.738 22.9824C110.738 25.6191 112.707 27.7725 115.423 27.7725C117.673 27.7725 119.281 26.2871 119.738 24.6611H117.418C117.11 25.4258 116.451 25.874 115.379 25.874C114.131 25.874 113.094 25.0215 112.874 23.5449H119.932C119.967 23.2109 119.976 23.0527 119.976 22.8242ZM112.962 21.9014C113.322 20.627 114.342 20.0469 115.414 20.0469C116.662 20.0469 117.717 20.8906 117.805 21.9014H112.962ZM121.716 27.5H123.843V23.2988C123.843 21.374 124.836 20.293 126.295 20.293H127.147V18.4648H126.181C125.003 18.4648 124.177 19.1064 123.755 20.0996V18.4648H121.716V27.5ZM129.617 27.5H131.744V20.2842H134.108V18.4648H131.744V18.1133C131.744 17.4014 132.166 16.7773 132.957 16.7773H134.152V15.0107H132.421C130.382 15.0107 129.617 16.5664 129.617 17.9463V18.4648H127.815V20.2842H129.617V27.5ZM138.846 27.7725C140.313 27.7725 141.509 27.1045 142.098 25.9795V27.5H144.119V18.4648H142.098V19.9941C141.518 18.8691 140.313 18.1924 138.837 18.1924C136.42 18.1924 134.592 20.3457 134.592 22.9824C134.592 25.6367 136.402 27.7725 138.846 27.7725ZM139.355 25.8037C137.923 25.8037 136.701 24.7402 136.701 22.9824C136.701 21.2861 137.896 20.1611 139.355 20.1611C140.832 20.1611 142.01 21.4092 142.01 22.9824C142.01 24.582 140.841 25.8037 139.355 25.8037ZM146.624 27.5H148.751V22.8857C148.751 21.2598 149.894 20.1523 151.142 20.1523C152.425 20.1523 153.233 20.8818 153.233 22.6748V27.5H155.36V22.6309C155.36 19.792 154.156 18.1924 151.73 18.1924C150.342 18.1924 149.261 18.834 148.698 19.8184L148.751 18.8076V15.125H146.624V27.5ZM157.786 27.5H159.913V23.2988C159.913 21.374 160.906 20.293 162.365 20.293H163.218V18.4648H162.251C161.073 18.4648 160.247 19.1064 159.825 20.0996V18.4648H157.786V27.5ZM172.991 22.8242C172.991 20.3369 171.163 18.1924 168.438 18.1924C165.723 18.1924 163.754 20.3457 163.754 22.9824C163.754 25.6191 165.723 27.7725 168.438 27.7725C170.688 27.7725 172.297 26.2871 172.754 24.6611H170.434C170.126 25.4258 169.467 25.874 168.395 25.874C167.146 25.874 166.109 25.0215 165.89 23.5449H172.947C172.982 23.2109 172.991 23.0527 172.991 22.8242ZM165.978 21.9014C166.338 20.627 167.357 20.0469 168.43 20.0469C169.678 20.0469 170.732 20.8906 170.82 21.9014H165.978ZM174.731 27.5H176.858V22.8857C176.858 21.1191 178.001 20.1523 179.249 20.1523C180.532 20.1523 181.341 20.8818 181.341 22.6748V27.5H183.468V22.6309C183.468 19.792 182.264 18.1924 179.838 18.1924C178.449 18.1924 177.271 18.8867 176.753 19.8711V18.4648H174.731V27.5Z" fill="#161528"/>
</svg>
