<svg width="250" height="442" viewBox="0 0 250 442" fill="none" xmlns="http://www.w3.org/2000/svg">
<path d="M26.5312 27H34.7656C41.5156 27 46.0156 22.75 46.0156 16.3594C46.0156 10 41.5 5.75 34.7188 5.75H26.5312V27ZM30.3594 23.5312V9.20312H34.6094C39.375 9.20312 42.0938 12.0781 42.0938 16.4219C42.0938 20.7969 39.2969 23.5312 34.6406 23.5312H30.3594ZM64.5625 18.6875C64.5625 14.2656 61.3125 10.4531 56.4688 10.4531C51.6406 10.4531 48.1406 14.2812 48.1406 18.9688C48.1406 23.6562 51.6406 27.4844 56.4688 27.4844C60.4688 27.4844 63.3281 24.8438 64.1406 21.9531H60.0156C59.4688 23.3125 58.2969 24.1094 56.3906 24.1094C54.1719 24.1094 52.3281 22.5938 51.9375 19.9688H64.4844C64.5469 19.375 64.5625 19.0938 64.5625 18.6875ZM52.0938 17.0469C52.7344 14.7812 54.5469 13.75 56.4531 13.75C58.6719 13.75 60.5469 15.25 60.7031 17.0469H52.0938ZM69.5156 8.4375C71.0469 8.4375 71.9062 7.48438 71.9062 6.26562C71.9062 5.09375 71.0469 4.10938 69.5312 4.10938C68.0469 4.10938 67.1875 5.09375 67.1875 6.26562C67.1875 7.46875 68.0625 8.4375 69.5156 8.4375ZM67.6562 27H71.4375V10.9375H67.6562V27ZM75.875 27H79.6562V18.7969C79.6562 15.6562 81.6875 13.9375 83.9062 13.9375C86.1875 13.9375 87.625 15.2344 87.625 18.4219V27H91.4062V18.3438C91.4062 13.2969 89.2656 10.4531 84.9531 10.4531C82.4844 10.4531 80.3906 11.6875 79.4688 13.4375V10.9375H75.875V27ZM111 18.6875C111 14.2656 107.75 10.4531 102.906 10.4531C98.0781 10.4531 94.5781 14.2812 94.5781 18.9688C94.5781 23.6562 98.0781 27.4844 102.906 27.4844C106.906 27.4844 109.766 24.8438 110.578 21.9531H106.453C105.906 23.3125 104.734 24.1094 102.828 24.1094C100.609 24.1094 98.7656 22.5938 98.375 19.9688H110.922C110.984 19.375 111 19.0938 111 18.6875ZM98.5312 17.0469C99.1719 14.7812 100.984 13.75 102.891 13.75C105.109 13.75 106.984 15.25 107.141 17.0469H98.5312ZM36.25 53.1562L43.8281 43.75H39.2812L30.4219 54.9375V43.75H26.5312V65H30.4219V60.0938L33.7031 55.9844L40.2969 65H44.9062L36.25 53.1562ZM52.8281 65.4844C55.4375 65.4844 57.5625 64.2969 58.6094 62.2969V65H62.2031V48.9375H58.6094V51.6562C57.5781 49.6562 55.4375 48.4531 52.8125 48.4531C48.5156 48.4531 45.2656 52.2812 45.2656 56.9688C45.2656 61.6875 48.4844 65.4844 52.8281 65.4844ZM53.7344 61.9844C51.1875 61.9844 49.0156 60.0938 49.0156 56.9688C49.0156 53.9531 51.1406 51.9531 53.7344 51.9531C56.3594 51.9531 58.4531 54.1719 58.4531 56.9688C58.4531 59.8125 56.375 61.9844 53.7344 61.9844ZM66.6562 65H70.4375V57.5312C70.4375 54.1094 72.2031 52.1875 74.7969 52.1875H76.3125V48.9375H74.5938C72.5 48.9375 71.0312 50.0781 70.2812 51.8438V48.9375H66.6562V65ZM79.0312 65H82.8125V57.5312C82.8125 54.1094 84.5781 52.1875 87.1719 52.1875H88.6875V48.9375H86.9688C84.875 48.9375 83.4062 50.0781 82.6562 51.8438V48.9375H79.0312V65ZM93.2656 46.4375C94.7969 46.4375 95.6562 45.4844 95.6562 44.2656C95.6562 43.0938 94.7969 42.1094 93.2812 42.1094C91.7969 42.1094 90.9375 43.0938 90.9375 44.2656C90.9375 45.4688 91.8125 46.4375 93.2656 46.4375ZM91.4062 65H95.1875V48.9375H91.4062V65ZM114.906 56.6875C114.906 52.2656 111.656 48.4531 106.812 48.4531C101.984 48.4531 98.4844 52.2812 98.4844 56.9688C98.4844 61.6562 101.984 65.4844 106.812 65.4844C110.812 65.4844 113.672 62.8438 114.484 59.9531H110.359C109.812 61.3125 108.641 62.1094 106.734 62.1094C104.516 62.1094 102.672 60.5938 102.281 57.9688H114.828C114.891 57.375 114.906 57.0938 114.906 56.6875ZM102.438 55.0469C103.078 52.7812 104.891 51.75 106.797 51.75C109.016 51.75 110.891 53.25 111.047 55.0469H102.438ZM118 65H121.781V57.5312C121.781 54.1094 123.547 52.1875 126.141 52.1875H127.656V48.9375H125.938C123.844 48.9375 122.375 50.0781 121.625 51.8438V48.9375H118V65ZM145.031 56.6875C145.031 52.2656 141.781 48.4531 136.938 48.4531C132.109 48.4531 128.609 52.2812 128.609 56.9688C128.609 61.6562 132.109 65.4844 136.938 65.4844C140.938 65.4844 143.797 62.8438 144.609 59.9531H140.484C139.938 61.3125 138.766 62.1094 136.859 62.1094C134.641 62.1094 132.797 60.5938 132.406 57.9688H144.953C145.016 57.375 145.031 57.0938 145.031 56.6875ZM132.562 55.0469C133.203 52.7812 135.016 51.75 136.922 51.75C139.141 51.75 141.016 53.25 141.172 55.0469H132.562ZM165.094 65.4844C169.578 65.4844 172.875 61.6875 172.875 56.9688C172.875 52.2812 169.609 48.4688 165.047 48.4688C162.734 48.4688 160.688 49.7031 159.625 51.5625L159.719 49.4531V43H155.938V65H159.531V62.2969C160.625 64.2656 162.75 65.4844 165.094 65.4844ZM164.406 62C161.844 62 159.672 59.9062 159.672 56.9688C159.672 54.1562 161.781 51.9531 164.391 51.9531C167 51.9531 169.125 53.9531 169.125 56.9688C169.125 60.0781 166.953 62 164.406 62ZM191.875 56.6875C191.875 52.2656 188.625 48.4531 183.781 48.4531C178.953 48.4531 175.453 52.2812 175.453 56.9688C175.453 61.6562 178.953 65.4844 183.781 65.4844C187.781 65.4844 190.641 62.8438 191.453 59.9531H187.328C186.781 61.3125 185.609 62.1094 183.703 62.1094C181.484 62.1094 179.641 60.5938 179.25 57.9688H191.797C191.859 57.375 191.875 57.0938 191.875 56.6875ZM179.406 55.0469C180.047 52.7812 181.859 51.75 183.766 51.75C185.984 51.75 187.859 53.25 188.016 55.0469H179.406ZM196.828 46.4375C198.359 46.4375 199.219 45.4844 199.219 44.2656C199.219 43.0938 198.359 42.1094 196.844 42.1094C195.359 42.1094 194.5 43.0938 194.5 44.2656C194.5 45.4688 195.375 46.4375 196.828 46.4375ZM194.969 65H198.75V48.9375H194.969V65ZM36.25 103.453C43.2031 103.453 47.2031 98.5312 47.1562 91.5625H36.0625V94.8125H42.9375C42.3438 97.7812 40.0156 99.875 36.2188 99.875C32.2031 99.875 28.9219 96.9688 28.9219 92.3594C28.9219 87.8281 32.2031 84.8125 36.2188 84.8125C39.2344 84.8125 41.6094 86.2812 42.7188 88.7656H46.6719C45.6719 83.9844 40.8125 81.25 36.3125 81.25C30.0625 81.25 25.0469 86.1719 25.0469 92.3594C25.0469 98.5 30.0625 103.453 36.25 103.453ZM57.6562 103.484C61.9062 103.484 65.1875 101.234 65.1875 95.5156V86.9375H61.4219V95.4062C61.4219 98.3438 60.1719 99.9688 57.6406 99.9688C55.125 99.9688 53.8438 98.375 53.8438 95.4062V86.9375H50.0938V95.5156C50.0938 101.234 53.3594 103.484 57.6562 103.484ZM71.1406 84.4375C72.6719 84.4375 73.5312 83.4844 73.5312 82.2656C73.5312 81.0938 72.6719 80.1094 71.1562 80.1094C69.6719 80.1094 68.8125 81.0938 68.8125 82.2656C68.8125 83.4688 69.6875 84.4375 71.1406 84.4375ZM69.2812 103H73.0625V86.9375H69.2812V103ZM84.125 103.484C86.8125 103.484 88.7344 101.984 89.6875 100.297V103H93.2812V81H89.5156V87.8906L89.5938 89.5625C88.75 88.0469 86.7969 86.4531 84.1719 86.4531C79.4844 86.4531 76.3594 90.2812 76.3594 94.9688C76.3594 99.6875 79.5625 103.484 84.125 103.484ZM84.8125 100C82.0469 100 80.0781 97.8125 80.0781 94.9688C80.0781 92.0469 82.1406 89.9531 84.8125 89.9531C87.4688 89.9531 89.5469 92.1562 89.5469 94.9688C89.5469 97.8125 87.4531 100 84.8125 100ZM113 94.6875C113 90.2656 109.75 86.4531 104.906 86.4531C100.078 86.4531 96.5781 90.2812 96.5781 94.9688C96.5781 99.6562 100.078 103.484 104.906 103.484C108.906 103.484 111.766 100.844 112.578 97.9531H108.453C107.906 99.3125 106.734 100.109 104.828 100.109C102.609 100.109 100.766 98.5938 100.375 95.9688H112.922C112.984 95.375 113 95.0938 113 94.6875ZM100.531 93.0469C101.172 90.7812 102.984 89.75 104.891 89.75C107.109 89.75 108.984 91.25 109.141 93.0469H100.531ZM126.125 103.453C130.656 103.453 135.391 100.844 136.375 95.1562H132.391C131.562 98.4219 129.031 99.875 126.016 99.875C122 99.875 118.797 96.9688 118.797 92.3594C118.797 87.8281 122 84.8125 126.016 84.8125C129.047 84.8125 131.562 86.2812 132.406 89.5469H136.375C135.391 83.875 130.609 81.25 126.125 81.25C119.859 81.25 114.906 86.1719 114.906 92.3438C114.906 98.5156 119.859 103.453 126.125 103.453ZM146.953 103.484C151.906 103.484 155.453 99.7031 155.453 94.9688C155.453 90.2656 151.906 86.4531 146.969 86.4531C142.047 86.4531 138.516 90.2812 138.516 94.9688C138.516 99.6875 142.062 103.484 146.953 103.484ZM146.984 99.9688C144.281 99.9688 142.266 97.875 142.266 94.9688C142.266 92.0781 144.281 89.9531 146.984 89.9531C149.688 89.9531 151.703 92.0781 151.703 94.9688C151.703 97.875 149.688 99.9688 146.984 99.9688ZM178.438 86.4531C176.141 86.4531 174.188 87.6094 172.812 90.0781C171.922 87.7188 170.141 86.4531 167.453 86.4531C165.078 86.4531 163.156 87.7344 162.328 89.4375L162.281 86.9375H158.75V103H162.484V94.7969C162.484 91.9062 164.328 89.9375 166.359 89.9375C168.422 89.9375 169.734 91.25 169.734 94.4219V103H173.469V94.7969C173.469 91.9062 175.328 89.9375 177.344 89.9375C179.422 89.9375 180.734 91.25 180.734 94.4219V103H184.469V94.3438C184.469 89.2969 182.469 86.4531 178.438 86.4531ZM190.766 90.625C192.109 90.625 193 89.6875 193 88.5312C193 87.4062 192.109 86.4531 190.781 86.4531C189.438 86.4531 188.562 87.4062 188.562 88.5312C188.562 89.6719 189.453 90.625 190.766 90.625ZM190.766 103.531C192.109 103.531 193 102.594 193 101.438C193 100.312 192.109 99.3594 190.781 99.3594C189.438 99.3594 188.562 100.312 188.562 101.438C188.562 102.594 189.453 103.531 190.766 103.531Z" fill="white"/>
<path d="M32 151.25C27.7188 151.25 24.25 154.75 24.25 159C24.25 163.281 27.7188 166.75 32 166.75C36.25 166.75 39.75 163.281 39.75 159C39.75 154.75 36.25 151.25 32 151.25ZM32 152.75C35.4375 152.75 38.25 155.562 38.25 159C38.25 162.469 35.4375 165.25 32 165.25C28.5312 165.25 25.75 162.469 25.75 159C25.75 155.562 28.5312 152.75 32 152.75ZM36.375 156.844L35.6562 156.125C35.5312 155.969 35.2812 155.969 35.125 156.125L30.7188 160.5L28.8438 158.625C28.6875 158.469 28.4688 158.469 28.3125 158.625L27.5938 159.312C27.4688 159.469 27.4688 159.719 27.5938 159.844L30.4375 162.719C30.5938 162.875 30.8125 162.875 30.9688 162.719L36.375 157.375C36.5 157.219 36.5 156.969 36.375 156.844Z" fill="#1EDC82"/>
<path d="M52.9531 163H54.4219L49.9297 152.375H48.6016L44.1016 163H45.5703L46.5781 160.594H51.9453L52.9531 163ZM47.0703 159.422L49.2109 154.32L49.2578 154.141H49.2734L49.3125 154.32L51.4531 159.422H47.0703ZM55.8203 163H57.1719V159.25C57.1719 157.328 58.2109 156.211 59.6094 156.211H60.3125V155.031H59.5391C58.3828 155.031 57.5078 155.711 57.1172 156.812V155.031H55.8203V163ZM66.2578 163.227C68.4844 163.227 70.1719 161.359 70.1719 159.016C70.1719 156.688 68.4922 154.812 66.2422 154.812C64.8594 154.812 63.7266 155.633 63.2031 156.711L63.2266 155.617V152H61.8828V163H63.1719V161.305C63.7422 162.492 64.9453 163.227 66.2578 163.227ZM66.0234 161.977C64.4922 161.977 63.2188 160.711 63.2188 159.016C63.2188 157.367 64.4688 156.062 66.0234 156.062C67.5781 156.062 68.8359 157.297 68.8359 159.016C68.8359 160.773 67.5547 161.977 66.0234 161.977ZM79.5938 158.82C79.5938 156.68 77.9531 154.805 75.6562 154.805C73.3516 154.805 71.6016 156.688 71.6016 159.016C71.6016 161.352 73.3516 163.219 75.6562 163.219C77.4688 163.219 78.8906 162.062 79.3438 160.602H77.8359C77.4844 161.5 76.6953 161.969 75.625 161.969C74.3125 161.969 73.125 160.969 72.9609 159.367H79.5703C79.5859 159.078 79.5938 158.961 79.5938 158.82ZM73.0234 158.18C73.3281 156.805 74.4375 156.07 75.6328 156.07C76.9922 156.07 78.1406 157.047 78.2188 158.18H73.0234ZM82.0469 153.477C82.625 153.477 82.9766 153.094 82.9766 152.617C82.9766 152.148 82.625 151.766 82.0547 151.766C81.4922 151.766 81.1406 152.148 81.1406 152.617C81.1406 153.094 81.4922 153.477 82.0469 153.477ZM81.3828 163H82.7266V155.031H81.3828V163ZM88.3828 163H89.8516V161.859H88.6484C87.9375 161.859 87.2188 161.594 87.2188 160.109V156.211H89.8516V155.031H87.2188V152.656L85.875 152.664V155.031H84.1016V156.211H85.875V160.047C85.875 162.531 87.1719 163 88.3828 163ZM94.2422 163.227C96.1406 163.227 97.4531 162.383 97.4531 160.75C97.4531 159.016 95.9922 158.625 94.5312 158.398C93.0469 158.148 92.6172 157.867 92.6172 157.109C92.6172 156.469 93.1094 155.93 94.1406 155.93C95.2031 155.93 95.8438 156.438 95.8828 157.195H97.2031C97.2031 155.805 95.9844 154.805 94.1406 154.805C92.2422 154.805 91.2891 155.836 91.2891 157.141C91.2891 158.75 92.5938 159.273 94.0781 159.492C95.3281 159.695 96.0859 159.93 96.0859 160.82C96.0859 161.625 95.4609 162.133 94.2578 162.133C92.9453 162.133 92.2266 161.43 92.2109 160.562L90.9141 160.555C90.9141 161.914 92.0156 163.227 94.2422 163.227ZM102.758 163.227C105.141 163.227 106.914 161.359 106.914 159.016C106.914 156.68 105.133 154.805 102.758 154.805C100.391 154.805 98.6172 156.688 98.6172 159.016C98.6172 161.359 100.398 163.227 102.758 163.227ZM102.773 161.961C101.188 161.961 99.9609 160.711 99.9609 159.016C99.9609 157.336 101.188 156.07 102.773 156.07C104.352 156.07 105.57 157.336 105.57 159.016C105.57 160.711 104.352 161.961 102.773 161.961ZM108.82 163H110.172V159.25C110.172 157.328 111.211 156.211 112.609 156.211H113.312V155.031H112.539C111.383 155.031 110.508 155.711 110.117 156.812V155.031H108.82V163ZM118.242 163H119.711V161.859H118.508C117.797 161.859 117.078 161.594 117.078 160.109V156.211H119.711V155.031H117.078V152.656L115.734 152.664V155.031H113.961V156.211H115.734V160.047C115.734 162.531 117.031 163 118.242 163ZM128.82 163.227C130.898 163.227 132.438 162.055 132.438 159.289V155.031H131.094V159.25C131.094 161.047 130.273 161.961 128.805 161.961C127.344 161.961 126.516 161.039 126.516 159.25V155.031H125.18V159.289C125.18 162.055 126.703 163.227 128.82 163.227ZM134.805 163H136.148V158.812C136.148 157.109 137.359 156.062 138.688 156.062C140.07 156.062 140.914 156.867 140.914 158.703V163H142.258V158.68C142.258 156.133 141.148 154.805 139.031 154.805C137.68 154.805 136.547 155.547 136.094 156.57V155.031H134.805V163ZM147.992 163.227C149.438 163.227 150.562 162.383 151.07 161.305V163H152.359V152H151.016V155.938L151.047 156.711C150.586 155.75 149.492 154.805 148 154.805C145.711 154.805 144.07 156.688 144.07 159.016C144.07 161.359 145.742 163.227 147.992 163.227ZM148.211 161.977C146.609 161.977 145.406 160.688 145.406 159.016C145.406 157.328 146.641 156.062 148.211 156.062C149.781 156.062 151.031 157.359 151.031 159.016C151.031 160.688 149.773 161.977 148.211 161.977ZM158.531 159.305H163.586V158.18H158.531V159.305ZM165.062 163H171.688V161.852H166.906L171.5 155.914V155.031H165.289V156.18H169.68L165.062 162.133V163ZM180.5 158.82C180.5 156.68 178.859 154.805 176.562 154.805C174.258 154.805 172.508 156.688 172.508 159.016C172.508 161.352 174.258 163.219 176.562 163.219C178.375 163.219 179.797 162.062 180.25 160.602H178.742C178.391 161.5 177.602 161.969 176.531 161.969C175.219 161.969 174.031 160.969 173.867 159.367H180.477C180.492 159.078 180.5 158.961 180.5 158.82ZM173.93 158.18C174.234 156.805 175.344 156.07 176.539 156.07C177.898 156.07 179.047 157.047 179.125 158.18H173.93ZM182.953 153.477C183.531 153.477 183.883 153.094 183.883 152.617C183.883 152.148 183.531 151.766 182.961 151.766C182.398 151.766 182.047 152.148 182.047 152.617C182.047 153.094 182.398 153.477 182.953 153.477ZM182.289 163H183.633V155.031H182.289V163ZM189.289 163H190.758V161.859H189.555C188.844 161.859 188.125 161.594 188.125 160.109V156.211H190.758V155.031H188.125V152.656L186.781 152.664V155.031H185.008V156.211H186.781V160.047C186.781 162.531 188.078 163 189.289 163ZM45.875 189H47.2266V182.203H49.4922V181.031H47.2266V180.578C47.2266 179.727 47.7109 179.07 48.5312 179.07H49.5547V177.938H48.2188C46.6016 177.938 45.875 179.172 45.875 180.469V181.031H44.1719V182.203H45.875V189ZM50.9297 189H52.2734V177.984H50.9297V189ZM62.1719 184.82C62.1719 182.68 60.5312 180.805 58.2344 180.805C55.9297 180.805 54.1797 182.688 54.1797 185.016C54.1797 187.352 55.9297 189.219 58.2344 189.219C60.0469 189.219 61.4688 188.062 61.9219 186.602H60.4141C60.0625 187.5 59.2734 187.969 58.2031 187.969C56.8906 187.969 55.7031 186.969 55.5391 185.367H62.1484C62.1641 185.078 62.1719 184.961 62.1719 184.82ZM55.6016 184.18C55.9062 182.805 57.0156 182.07 58.2109 182.07C59.5703 182.07 60.7188 183.047 60.7969 184.18H55.6016ZM62.6172 189H64.1953L66.3047 185.891L68.4062 189H70.0234L67.25 184.938L69.9453 181.031H68.3594L66.3203 184.031H66.3125L64.2812 181.031H62.6875L65.3828 184.938L62.6172 189ZM72.2812 179.477C72.8594 179.477 73.2109 179.094 73.2109 178.617C73.2109 178.148 72.8594 177.766 72.2891 177.766C71.7266 177.766 71.375 178.148 71.375 178.617C71.375 179.094 71.7266 179.477 72.2812 179.477ZM71.6172 189H72.9609V181.031H71.6172V189ZM79.9141 189.227C82.1406 189.227 83.8281 187.359 83.8281 185.016C83.8281 182.688 82.1484 180.812 79.8984 180.812C78.5156 180.812 77.3828 181.633 76.8594 182.711L76.8828 181.617V178H75.5391V189H76.8281V187.305C77.3984 188.492 78.6016 189.227 79.9141 189.227ZM79.6797 187.977C78.1484 187.977 76.875 186.711 76.875 185.016C76.875 183.367 78.125 182.062 79.6797 182.062C81.2344 182.062 82.4922 183.297 82.4922 185.016C82.4922 186.773 81.2109 187.977 79.6797 187.977ZM93.25 184.82C93.25 182.68 91.6094 180.805 89.3125 180.805C87.0078 180.805 85.2578 182.688 85.2578 185.016C85.2578 187.352 87.0078 189.219 89.3125 189.219C91.125 189.219 92.5469 188.062 93 186.602H91.4922C91.1406 187.5 90.3516 187.969 89.2812 187.969C87.9688 187.969 86.7812 186.969 86.6172 185.367H93.2266C93.2422 185.078 93.25 184.961 93.25 184.82ZM86.6797 184.18C86.9844 182.805 88.0938 182.07 89.2891 182.07C90.6484 182.07 91.7969 183.047 91.875 184.18H86.6797ZM95.0391 189H96.3828V177.984H95.0391V189Z" fill="white"/>
<path d="M32 209.25C27.7188 209.25 24.25 212.75 24.25 217C24.25 221.281 27.7188 224.75 32 224.75C36.25 224.75 39.75 221.281 39.75 217C39.75 212.75 36.25 209.25 32 209.25ZM32 210.75C35.4375 210.75 38.25 213.562 38.25 217C38.25 220.469 35.4375 223.25 32 223.25C28.5312 223.25 25.75 220.469 25.75 217C25.75 213.562 28.5312 210.75 32 210.75ZM36.375 214.844L35.6562 214.125C35.5312 213.969 35.2812 213.969 35.125 214.125L30.7188 218.5L28.8438 216.625C28.6875 216.469 28.4688 216.469 28.3125 216.625L27.5938 217.312C27.4688 217.469 27.4688 217.719 27.5938 217.844L30.4375 220.719C30.5938 220.875 30.8125 220.875 30.9688 220.719L36.375 215.375C36.5 215.219 36.5 214.969 36.375 214.844Z" fill="#1EDC82"/>
<path d="M52.9531 221H54.4219L49.9297 210.375H48.6016L44.1016 221H45.5703L46.5781 218.594H51.9453L52.9531 221ZM47.0703 217.422L49.2109 212.32L49.2578 212.141H49.2734L49.3125 212.32L51.4531 217.422H47.0703ZM58.3047 221H59.7734V219.859H58.5703C57.8594 219.859 57.1406 219.594 57.1406 218.109V214.211H59.7734V213.031H57.1406V210.656L55.7969 210.664V213.031H54.0234V214.211H55.7969V218.047C55.7969 220.531 57.0938 221 58.3047 221ZM64.5859 221H66.0547V219.859H64.8516C64.1406 219.859 63.4219 219.594 63.4219 218.109V214.211H66.0547V213.031H63.4219V210.656L62.0781 210.664V213.031H60.3047V214.211H62.0781V218.047C62.0781 220.531 63.375 221 64.5859 221ZM67.7891 221H69.1406V217.25C69.1406 215.328 70.1797 214.211 71.5781 214.211H72.2812V213.031H71.5078C70.3516 213.031 69.4766 213.711 69.0859 214.812V213.031H67.7891V221ZM76.6406 221.227C78.0625 221.227 79.2578 220.484 79.7969 219.305V221H81.0859V213.031H79.7969V214.742C79.2578 213.555 78.0703 212.812 76.6328 212.812C74.4688 212.812 72.7891 214.688 72.7891 217.016C72.7891 219.359 74.4609 221.227 76.6406 221.227ZM76.9375 219.969C75.4062 219.969 74.125 218.781 74.125 217.016C74.125 215.297 75.3906 214.07 76.9453 214.07C78.4922 214.07 79.75 215.367 79.75 217.016C79.75 218.688 78.5 219.969 76.9375 219.969ZM88.9609 221H90.4844L87.4844 216.227L90.0781 213.031H88.4297L85.0078 217.273V210H83.6641V221H85.0078V218.758L86.5 217.109L88.9609 221ZM94.9766 221H96.4453V219.859H95.2422C94.5312 219.859 93.8125 219.594 93.8125 218.109V214.211H96.4453V213.031H93.8125V210.656L92.4688 210.664V213.031H90.6953V214.211H92.4688V218.047C92.4688 220.531 93.7656 221 94.9766 221ZM98.8438 211.477C99.4219 211.477 99.7734 211.094 99.7734 210.617C99.7734 210.148 99.4219 209.766 98.8516 209.766C98.2891 209.766 97.9375 210.148 97.9375 210.617C97.9375 211.094 98.2891 211.477 98.8438 211.477ZM98.1797 221H99.5234V213.031H98.1797V221ZM104.148 221H105.422L108.664 213.031H107.227L104.977 218.656L104.789 219.367L104.594 218.656L102.344 213.031H100.914L104.148 221ZM117.109 216.82C117.109 214.68 115.469 212.805 113.172 212.805C110.867 212.805 109.117 214.688 109.117 217.016C109.117 219.352 110.867 221.219 113.172 221.219C114.984 221.219 116.406 220.062 116.859 218.602H115.352C115 219.5 114.211 219.969 113.141 219.969C111.828 219.969 110.641 218.969 110.477 217.367H117.086C117.102 217.078 117.109 216.961 117.109 216.82ZM110.539 216.18C110.844 214.805 111.953 214.07 113.148 214.07C114.508 214.07 115.656 215.047 115.734 216.18H110.539ZM121.555 221.227C123.453 221.227 124.766 220.383 124.766 218.75C124.766 217.016 123.305 216.625 121.844 216.398C120.359 216.148 119.93 215.867 119.93 215.109C119.93 214.469 120.422 213.93 121.453 213.93C122.516 213.93 123.156 214.438 123.195 215.195H124.516C124.516 213.805 123.297 212.805 121.453 212.805C119.555 212.805 118.602 213.836 118.602 215.141C118.602 216.75 119.906 217.273 121.391 217.492C122.641 217.695 123.398 217.93 123.398 218.82C123.398 219.625 122.773 220.133 121.57 220.133C120.258 220.133 119.539 219.43 119.523 218.562L118.227 218.555C118.227 219.914 119.328 221.227 121.555 221.227ZM135.484 221.203C138.938 221.203 140.906 218.625 140.898 215.406H135.406V216.656H139.461C139.172 218.477 137.859 219.93 135.453 219.93C133.141 219.93 131.289 218.188 131.289 215.68C131.289 213.195 133.141 211.414 135.453 211.414C137.164 211.414 138.555 212.273 139.148 213.727H140.555C139.984 211.453 137.742 210.141 135.484 210.141C132.375 210.141 129.906 212.586 129.906 215.68C129.906 218.75 132.375 221.203 135.484 221.203ZM150.156 216.82C150.156 214.68 148.516 212.805 146.219 212.805C143.914 212.805 142.164 214.688 142.164 217.016C142.164 219.352 143.914 221.219 146.219 221.219C148.031 221.219 149.453 220.062 149.906 218.602H148.398C148.047 219.5 147.258 219.969 146.188 219.969C144.875 219.969 143.688 218.969 143.523 217.367H150.133C150.148 217.078 150.156 216.961 150.156 216.82ZM143.586 216.18C143.891 214.805 145 214.07 146.195 214.07C147.555 214.07 148.703 215.047 148.781 216.18H143.586ZM151.945 221H153.289V216.812C153.289 215.188 154.5 214.062 155.828 214.062C157.211 214.062 158.055 214.867 158.055 216.703V221H159.398V216.68C159.398 214.133 158.289 212.805 156.172 212.805C154.82 212.805 153.742 213.516 153.266 214.547L153.289 213.695V210H151.945V221ZM165.062 221.227C166.484 221.227 167.68 220.484 168.219 219.305V221H169.508V213.031H168.219V214.742C167.68 213.555 166.492 212.812 165.055 212.812C162.891 212.812 161.211 214.688 161.211 217.016C161.211 219.359 162.883 221.227 165.062 221.227ZM165.359 219.969C163.828 219.969 162.547 218.781 162.547 217.016C162.547 215.297 163.812 214.07 165.367 214.07C166.914 214.07 168.172 215.367 168.172 217.016C168.172 218.688 166.922 219.969 165.359 219.969ZM172.086 221H173.43V209.984H172.086V221ZM179.086 221H180.555V219.859H179.352C178.641 219.859 177.922 219.594 177.922 218.109V214.211H180.555V213.031H177.922V210.656L176.578 210.664V213.031H174.805V214.211H176.578V218.047C176.578 220.531 177.875 221 179.086 221Z" fill="white"/>
<path d="M32 241.25C27.7188 241.25 24.25 244.75 24.25 249C24.25 253.281 27.7188 256.75 32 256.75C36.25 256.75 39.75 253.281 39.75 249C39.75 244.75 36.25 241.25 32 241.25ZM32 242.75C35.4375 242.75 38.25 245.562 38.25 249C38.25 252.469 35.4375 255.25 32 255.25C28.5312 255.25 25.75 252.469 25.75 249C25.75 245.562 28.5312 242.75 32 242.75ZM36.375 246.844L35.6562 246.125C35.5312 245.969 35.2812 245.969 35.125 246.125L30.7188 250.5L28.8438 248.625C28.6875 248.469 28.4688 248.469 28.3125 248.625L27.5938 249.312C27.4688 249.469 27.4688 249.719 27.5938 249.844L30.4375 252.719C30.5938 252.875 30.8125 252.875 30.9688 252.719L36.375 247.375C36.5 247.219 36.5 246.969 36.375 246.844Z" fill="#1EDC82"/>
<path d="M48.7578 253.227C51.3672 253.227 52.9609 252.055 52.9609 250.062C52.9609 247.883 50.9844 247.234 49.2188 246.953C47.3125 246.695 46.2422 246.219 46.2422 245.102C46.2422 244.227 46.7734 243.359 48.6953 243.359C50.2891 243.359 51.1484 244.109 51.1484 245.164H52.5391C52.5391 243.391 51.2109 242.141 48.7109 242.141C45.9453 242.141 44.8594 243.508 44.8594 245.094C44.8594 247.242 47.0156 247.828 48.7891 248.125C50.375 248.367 51.5625 248.812 51.5625 250.062C51.5625 251.375 50.5625 252.039 48.75 252.039C47 252.039 45.9688 251.039 45.9688 249.922H44.5859C44.5859 251.531 45.875 253.227 48.7578 253.227ZM57.8828 253H59.3516V251.859H58.1484C57.4375 251.859 56.7188 251.594 56.7188 250.109V246.211H59.3516V245.031H56.7188V242.656L55.375 242.664V245.031H53.6016V246.211H55.375V250.047C55.375 252.531 56.6719 253 57.8828 253ZM64.0156 253.227C65.4375 253.227 66.6328 252.484 67.1719 251.305V253H68.4609V245.031H67.1719V246.742C66.6328 245.555 65.4453 244.812 64.0078 244.812C61.8438 244.812 60.1641 246.688 60.1641 249.016C60.1641 251.359 61.8359 253.227 64.0156 253.227ZM64.3125 251.969C62.7812 251.969 61.5 250.781 61.5 249.016C61.5 247.297 62.7656 246.07 64.3203 246.07C65.8672 246.07 67.125 247.367 67.125 249.016C67.125 250.688 65.875 251.969 64.3125 251.969ZM71.0391 253H72.3906V249.25C72.3906 247.328 73.4297 246.211 74.8281 246.211H75.5312V245.031H74.7578C73.6016 245.031 72.7266 245.711 72.3359 246.812V245.031H71.0391V253ZM82.3984 253H83.9219L80.9219 248.227L83.5156 245.031H81.8672L78.4453 249.273V242H77.1016V253H78.4453V250.758L79.9375 249.109L82.3984 253ZM92.2969 248.82C92.2969 246.68 90.6562 244.805 88.3594 244.805C86.0547 244.805 84.3047 246.688 84.3047 249.016C84.3047 251.352 86.0547 253.219 88.3594 253.219C90.1719 253.219 91.5938 252.062 92.0469 250.602H90.5391C90.1875 251.5 89.3984 251.969 88.3281 251.969C87.0156 251.969 85.8281 250.969 85.6641 249.367H92.2734C92.2891 249.078 92.2969 248.961 92.2969 248.82ZM85.7266 248.18C86.0312 246.805 87.1406 246.07 88.3359 246.07C89.6953 246.07 90.8438 247.047 90.9219 248.18H85.7266ZM98.1953 253H103.18C104.836 253 106.383 251.922 106.383 250C106.383 248.758 105.484 247.711 104.359 247.383C105.148 247.039 105.766 246.148 105.766 245.172C105.766 243.508 104.5 242.375 102.734 242.375H98.1953V253ZM99.5938 246.984V243.578H102.68C103.617 243.578 104.367 244.328 104.367 245.273C104.367 246.234 103.617 246.984 102.672 246.984H99.5938ZM99.5938 251.781V248.055H103.086C104.141 248.055 104.961 248.883 104.961 249.898C104.961 250.977 104.133 251.781 103.07 251.781H99.5938ZM115.625 248.82C115.625 246.68 113.984 244.805 111.688 244.805C109.383 244.805 107.633 246.688 107.633 249.016C107.633 251.352 109.383 253.219 111.688 253.219C113.5 253.219 114.922 252.062 115.375 250.602H113.867C113.516 251.5 112.727 251.969 111.656 251.969C110.344 251.969 109.156 250.969 108.992 249.367H115.602C115.617 249.078 115.625 248.961 115.625 248.82ZM109.055 248.18C109.359 246.805 110.469 246.07 111.664 246.07C113.023 246.07 114.172 247.047 114.25 248.18H109.055ZM117.414 253H118.758V248.812C118.758 247.109 119.969 246.062 121.297 246.062C122.68 246.062 123.523 246.867 123.523 248.703V253H124.867V248.68C124.867 246.133 123.758 244.805 121.641 244.805C120.289 244.805 119.156 245.547 118.703 246.57V245.031H117.414V253ZM134.672 248.82C134.672 246.68 133.031 244.805 130.734 244.805C128.43 244.805 126.68 246.688 126.68 249.016C126.68 251.352 128.43 253.219 130.734 253.219C132.547 253.219 133.969 252.062 134.422 250.602H132.914C132.562 251.5 131.773 251.969 130.703 251.969C129.391 251.969 128.203 250.969 128.039 249.367H134.648C134.664 249.078 134.672 248.961 134.672 248.82ZM128.102 248.18C128.406 246.805 129.516 246.07 130.711 246.07C132.07 246.07 133.219 247.047 133.297 248.18H128.102ZM137.047 253H138.398V246.203H140.664V245.031H138.398V244.578C138.398 243.727 138.883 243.07 139.703 243.07H140.727V241.938H139.391C137.773 241.938 137.047 243.172 137.047 244.469V245.031H135.344V246.203H137.047V253ZM142.766 243.477C143.344 243.477 143.695 243.094 143.695 242.617C143.695 242.148 143.344 241.766 142.773 241.766C142.211 241.766 141.859 242.148 141.859 242.617C141.859 243.094 142.211 243.477 142.766 243.477ZM142.102 253H143.445V245.031H142.102V253ZM149.102 253H150.57V251.859H149.367C148.656 251.859 147.938 251.594 147.938 250.109V246.211H150.57V245.031H147.938V242.656L146.594 242.664V245.031H144.82V246.211H146.594V250.047C146.594 252.531 147.891 253 149.102 253ZM154.961 253.227C156.859 253.227 158.172 252.383 158.172 250.75C158.172 249.016 156.711 248.625 155.25 248.398C153.766 248.148 153.336 247.867 153.336 247.109C153.336 246.469 153.828 245.93 154.859 245.93C155.922 245.93 156.562 246.438 156.602 247.195H157.922C157.922 245.805 156.703 244.805 154.859 244.805C152.961 244.805 152.008 245.836 152.008 247.141C152.008 248.75 153.312 249.273 154.797 249.492C156.047 249.695 156.805 249.93 156.805 250.82C156.805 251.625 156.18 252.133 154.977 252.133C153.664 252.133 152.945 251.43 152.93 250.562L151.633 250.555C151.633 251.914 152.734 253.227 154.961 253.227Z" fill="white"/>
<path d="M32 273.25C27.7188 273.25 24.25 276.75 24.25 281C24.25 285.281 27.7188 288.75 32 288.75C36.25 288.75 39.75 285.281 39.75 281C39.75 276.75 36.25 273.25 32 273.25ZM32 274.75C35.4375 274.75 38.25 277.562 38.25 281C38.25 284.469 35.4375 287.25 32 287.25C28.5312 287.25 25.75 284.469 25.75 281C25.75 277.562 28.5312 274.75 32 274.75ZM36.375 278.844L35.6562 278.125C35.5312 277.969 35.2812 277.969 35.125 278.125L30.7188 282.5L28.8438 280.625C28.6875 280.469 28.4688 280.469 28.3125 280.625L27.5938 281.312C27.4688 281.469 27.4688 281.719 27.5938 281.844L30.4375 284.719C30.5938 284.875 30.8125 284.875 30.9688 284.719L36.375 279.375C36.5 279.219 36.5 278.969 36.375 278.844Z" fill="#1EDC82"/>
<path d="M47.7734 285H49.125L51.9297 276.289L54.7266 285H56.0859L59.6953 274.375H58.2344L55.5391 282.469L55.375 283.156H55.3516L55.2109 282.508L52.6562 274.375H51.1953L48.6406 282.516L48.5156 283.156H48.4844L48.3281 282.531L45.625 274.375H44.1562L47.7734 285ZM67.4219 280.82C67.4219 278.68 65.7812 276.805 63.4844 276.805C61.1797 276.805 59.4297 278.688 59.4297 281.016C59.4297 283.352 61.1797 285.219 63.4844 285.219C65.2969 285.219 66.7188 284.062 67.1719 282.602H65.6641C65.3125 283.5 64.5234 283.969 63.4531 283.969C62.1406 283.969 60.9531 282.969 60.7891 281.367H67.3984C67.4141 281.078 67.4219 280.961 67.4219 280.82ZM60.8516 280.18C61.1562 278.805 62.2656 278.07 63.4609 278.07C64.8203 278.07 65.9688 279.047 66.0469 280.18H60.8516ZM69.875 275.477C70.4531 275.477 70.8047 275.094 70.8047 274.617C70.8047 274.148 70.4531 273.766 69.8828 273.766C69.3203 273.766 68.9688 274.148 68.9688 274.617C68.9688 275.094 69.3203 275.477 69.875 275.477ZM69.2109 285H70.5547V277.031H69.2109V285ZM76.2109 285H77.6797V283.859H76.4766C75.7656 283.859 75.0469 283.594 75.0469 282.109V278.211H77.6797V277.031H75.0469V274.656L73.7031 274.664V277.031H71.9297V278.211H73.7031V282.047C73.7031 284.531 75 285 76.2109 285ZM86.4844 280.82C86.4844 278.68 84.8438 276.805 82.5469 276.805C80.2422 276.805 78.4922 278.688 78.4922 281.016C78.4922 283.352 80.2422 285.219 82.5469 285.219C84.3594 285.219 85.7812 284.062 86.2344 282.602H84.7266C84.375 283.5 83.5859 283.969 82.5156 283.969C81.2031 283.969 80.0156 282.969 79.8516 281.367H86.4609C86.4766 281.078 86.4844 280.961 86.4844 280.82ZM79.9141 280.18C80.2188 278.805 81.3281 278.07 82.5234 278.07C83.8828 278.07 85.0312 279.047 85.1094 280.18H79.9141ZM88.2734 285H89.625V281.25C89.625 279.328 90.6641 278.211 92.0625 278.211H92.7656V277.031H91.9922C90.8359 277.031 89.9609 277.711 89.5703 278.812V277.031H88.2734V285ZM101.266 280.82C101.266 278.68 99.625 276.805 97.3281 276.805C95.0234 276.805 93.2734 278.688 93.2734 281.016C93.2734 283.352 95.0234 285.219 97.3281 285.219C99.1406 285.219 100.562 284.062 101.016 282.602H99.5078C99.1562 283.5 98.3672 283.969 97.2969 283.969C95.9844 283.969 94.7969 282.969 94.6328 281.367H101.242C101.258 281.078 101.266 280.961 101.266 280.82ZM94.6953 280.18C95 278.805 96.1094 278.07 97.3047 278.07C98.6641 278.07 99.8125 279.047 99.8906 280.18H94.6953ZM103.055 285H104.398V280.812C104.398 279.109 105.609 278.062 106.938 278.062C108.32 278.062 109.164 278.867 109.164 280.703V285H110.508V280.68C110.508 278.133 109.398 276.805 107.281 276.805C105.93 276.805 104.797 277.547 104.344 278.57V277.031H103.055V285ZM115.852 285H117.32V283.859H116.117C115.406 283.859 114.688 283.594 114.688 282.109V278.211H117.32V277.031H114.688V274.656L113.344 274.664V277.031H111.57V278.211H113.344V282.047C113.344 284.531 114.641 285 115.852 285ZM120.422 285H121.656L123.641 279.031H123.648L125.617 285H126.883L129.625 277.031H128.203L126.352 282.672L126.141 283.266H126.117L125.938 282.695L124.18 277.031H123.148L121.336 282.797L121.18 283.266H121.164L121.016 282.789L119.125 277.031H117.68L120.422 285ZM131.688 275.477C132.266 275.477 132.617 275.094 132.617 274.617C132.617 274.148 132.266 273.766 131.695 273.766C131.133 273.766 130.781 274.148 130.781 274.617C130.781 275.094 131.133 275.477 131.688 275.477ZM131.023 285H132.367V277.031H131.023V285ZM138.344 285.227C140.234 285.227 141.703 284.047 142.156 282.328H140.781C140.367 283.422 139.422 283.969 138.352 283.969C136.969 283.969 135.617 282.852 135.617 281.016C135.617 279.195 136.961 278.07 138.352 278.07C139.43 278.07 140.367 278.609 140.781 279.641H142.164C141.688 277.992 140.242 276.805 138.344 276.805C136.039 276.805 134.273 278.688 134.273 281.016C134.273 283.344 136.039 285.227 138.344 285.227ZM149.258 285H150.781L147.781 280.227L150.375 277.031H148.727L145.305 281.273V274H143.961V285H145.305V282.758L146.797 281.109L149.258 285ZM152.195 285H153.539V273.984H152.195V285ZM159.539 285.227C161.617 285.227 163.156 284.055 163.156 281.289V277.031H161.812V281.25C161.812 283.047 160.992 283.961 159.523 283.961C158.062 283.961 157.234 283.039 157.234 281.25V277.031H155.898V281.289C155.898 284.055 157.422 285.227 159.539 285.227ZM165.523 285H166.867V280.812C166.867 279.109 168.078 278.062 169.406 278.062C170.789 278.062 171.633 278.867 171.633 280.703V285H172.977V280.68C172.977 278.133 171.867 276.805 169.75 276.805C168.398 276.805 167.266 277.547 166.812 278.57V277.031H165.523V285ZM178.953 288C181.742 288 183.086 286.148 183.086 283.93V277.031H181.797V278.742C181.32 277.688 180.188 276.812 178.664 276.812C176.445 276.812 174.789 278.688 174.789 280.867C174.789 283.062 176.461 284.852 178.703 284.852C180.055 284.852 181.234 284.195 181.797 282.984V283.969C181.797 285.453 181.023 286.852 178.953 286.852C177.219 286.852 176.555 286.008 176.398 285.047H175.125C175.211 286.5 176.273 288 178.953 288ZM178.938 283.664C177.375 283.664 176.125 282.453 176.125 280.867C176.125 279.266 177.375 278.07 178.945 278.07C180.508 278.07 181.75 279.352 181.75 280.867C181.75 282.398 180.5 283.664 178.938 283.664ZM190.281 275.477C190.859 275.477 191.211 275.094 191.211 274.617C191.211 274.148 190.859 273.766 190.289 273.766C189.727 273.766 189.375 274.148 189.375 274.617C189.375 275.094 189.727 275.477 190.281 275.477ZM189.617 285H190.961V277.031H189.617V285ZM203.273 276.805C202.039 276.805 200.961 277.492 200.344 278.852C199.93 277.5 198.992 276.805 197.562 276.805C196.281 276.805 195.227 277.57 194.82 278.57L194.805 277.031H193.539V285H194.867V280.812C194.867 279.188 195.984 278.062 197.203 278.062C198.477 278.062 199.25 278.867 199.25 280.703V285H200.578V280.812C200.578 279.188 201.695 278.062 202.906 278.062C204.188 278.062 204.961 278.875 204.961 280.703V285H206.297V280.68C206.297 278.133 205.25 276.805 203.273 276.805ZM45.4453 311H46.8281V306.547H51.7656V305.367H46.8281V301.633H52.5078V300.375H45.4453V311ZM56.9453 311.227C59.3281 311.227 61.1016 309.359 61.1016 307.016C61.1016 304.68 59.3203 302.805 56.9453 302.805C54.5781 302.805 52.8047 304.688 52.8047 307.016C52.8047 309.359 54.5859 311.227 56.9453 311.227ZM56.9609 309.961C55.375 309.961 54.1484 308.711 54.1484 307.016C54.1484 305.336 55.375 304.07 56.9609 304.07C58.5391 304.07 59.7578 305.336 59.7578 307.016C59.7578 308.711 58.5391 309.961 56.9609 309.961ZM68.3047 311H69.8281L66.8281 306.227L69.4219 303.031H67.7734L64.3516 307.273V300H63.0078V311H64.3516V308.758L65.8438 307.109L68.3047 311ZM74.6641 311.227C76.7422 311.227 78.2812 310.055 78.2812 307.289V303.031H76.9375V307.25C76.9375 309.047 76.1172 309.961 74.6484 309.961C73.1875 309.961 72.3594 309.039 72.3594 307.25V303.031H71.0234V307.289C71.0234 310.055 72.5469 311.227 74.6641 311.227ZM83.3047 311.227C85.2031 311.227 86.5156 310.383 86.5156 308.75C86.5156 307.016 85.0547 306.625 83.5938 306.398C82.1094 306.148 81.6797 305.867 81.6797 305.109C81.6797 304.469 82.1719 303.93 83.2031 303.93C84.2656 303.93 84.9062 304.438 84.9453 305.195H86.2656C86.2656 303.805 85.0469 302.805 83.2031 302.805C81.3047 302.805 80.3516 303.836 80.3516 305.141C80.3516 306.75 81.6562 307.273 83.1406 307.492C84.3906 307.695 85.1484 307.93 85.1484 308.82C85.1484 309.625 84.5234 310.133 83.3203 310.133C82.0078 310.133 81.2891 309.43 81.2734 308.562L79.9766 308.555C79.9766 309.914 81.0781 311.227 83.3047 311.227Z" fill="white"/>
<path d="M32 331.25C27.7188 331.25 24.25 334.75 24.25 339C24.25 343.281 27.7188 346.75 32 346.75C36.25 346.75 39.75 343.281 39.75 339C39.75 334.75 36.25 331.25 32 331.25ZM32 332.75C35.4375 332.75 38.25 335.562 38.25 339C38.25 342.469 35.4375 345.25 32 345.25C28.5312 345.25 25.75 342.469 25.75 339C25.75 335.562 28.5312 332.75 32 332.75ZM36.375 336.844L35.6562 336.125C35.5312 335.969 35.2812 335.969 35.125 336.125L30.7188 340.5L28.8438 338.625C28.6875 338.469 28.4688 338.469 28.3125 338.625L27.5938 339.312C27.4688 339.469 27.4688 339.719 27.5938 339.844L30.4375 342.719C30.5938 342.875 30.8125 342.875 30.9688 342.719L36.375 337.375C36.5 337.219 36.5 336.969 36.375 336.844Z" fill="#1EDC82"/>
<path d="M52.9531 343H54.4219L49.9297 332.375H48.6016L44.1016 343H45.5703L46.5781 340.594H51.9453L52.9531 343ZM47.0703 339.422L49.2109 334.32L49.2578 334.141H49.2734L49.3125 334.32L51.4531 339.422H47.0703ZM59.0078 343.227C61.0859 343.227 62.625 342.055 62.625 339.289V335.031H61.2812V339.25C61.2812 341.047 60.4609 341.961 58.9922 341.961C57.5312 341.961 56.7031 341.039 56.7031 339.25V335.031H55.3672V339.289C55.3672 342.055 56.8906 343.227 59.0078 343.227ZM65.1484 343H66.5312V335.258C66.5312 334.289 67.3125 333.555 68.2188 333.555H71.1406L68.9453 337.086L68.9375 338.039H69.9141C71.0859 338.039 71.9297 338.844 71.9297 339.922C71.9297 341.047 70.9922 341.805 70.0312 341.805H67.9766V343H70.1328C71.7891 343 73.3359 341.922 73.3359 340C73.3359 338.625 72.2734 337.391 70.7656 337.281H70.2344L72.5234 333.516V332.375H68.1797C66.4141 332.375 65.1484 333.508 65.1484 335.172V343ZM82.5938 338.82C82.5938 336.68 80.9531 334.805 78.6562 334.805C76.3516 334.805 74.6016 336.688 74.6016 339.016C74.6016 341.352 76.3516 343.219 78.6562 343.219C80.4688 343.219 81.8906 342.062 82.3438 340.602H80.8359C80.4844 341.5 79.6953 341.969 78.625 341.969C77.3125 341.969 76.125 340.969 75.9609 339.367H82.5703C82.5859 339.078 82.5938 338.961 82.5938 338.82ZM76.0234 338.18C76.3281 336.805 77.4375 336.07 78.6328 336.07C79.9922 336.07 81.1406 337.047 81.2188 338.18H76.0234ZM84.3828 343H85.7344V339.25C85.7344 337.328 86.7734 336.211 88.1719 336.211H88.875V335.031H88.1016C86.9453 335.031 86.0703 335.711 85.6797 336.812V335.031H84.3828V343ZM93.5469 346C96.3359 346 97.6797 344.148 97.6797 341.93V335.031H96.3906V336.742C95.9141 335.688 94.7812 334.812 93.2578 334.812C91.0391 334.812 89.3828 336.688 89.3828 338.867C89.3828 341.062 91.0547 342.852 93.2969 342.852C94.6484 342.852 95.8281 342.195 96.3906 340.984V341.969C96.3906 343.453 95.6172 344.852 93.5469 344.852C91.8125 344.852 91.1484 344.008 90.9922 343.047H89.7188C89.8047 344.5 90.8672 346 93.5469 346ZM93.5312 341.664C91.9688 341.664 90.7188 340.453 90.7188 338.867C90.7188 337.266 91.9688 336.07 93.5391 336.07C95.1016 336.07 96.3438 337.352 96.3438 338.867C96.3438 340.398 95.0938 341.664 93.5312 341.664ZM107.578 338.82C107.578 336.68 105.938 334.805 103.641 334.805C101.336 334.805 99.5859 336.688 99.5859 339.016C99.5859 341.352 101.336 343.219 103.641 343.219C105.453 343.219 106.875 342.062 107.328 340.602H105.82C105.469 341.5 104.68 341.969 103.609 341.969C102.297 341.969 101.109 340.969 100.945 339.367H107.555C107.57 339.078 107.578 338.961 107.578 338.82ZM101.008 338.18C101.312 336.805 102.422 336.07 103.617 336.07C104.977 336.07 106.125 337.047 106.203 338.18H101.008ZM110.656 343H111.891L113.875 337.031H113.883L115.852 343H117.117L119.859 335.031H118.438L116.586 340.672L116.375 341.266H116.352L116.172 340.695L114.414 335.031H113.383L111.57 340.797L111.414 341.266H111.398L111.25 340.789L109.359 335.031H107.914L110.656 343ZM123.094 333.797C123.539 333.797 123.836 333.508 123.836 333.148C123.836 332.781 123.539 332.492 123.094 332.492C122.664 332.492 122.359 332.781 122.359 333.148C122.359 333.508 122.664 333.797 123.094 333.797ZM125.727 333.797C126.172 333.797 126.469 333.508 126.469 333.148C126.469 332.781 126.172 332.492 125.727 332.492C125.297 332.492 125 332.781 125 333.148C125 333.508 125.289 333.797 125.727 333.797ZM124.461 343.227C126.844 343.227 128.617 341.359 128.617 339.016C128.617 336.68 126.836 334.805 124.461 334.805C122.094 334.805 120.32 336.688 120.32 339.016C120.32 341.359 122.102 343.227 124.461 343.227ZM124.477 341.961C122.891 341.961 121.664 340.711 121.664 339.016C121.664 337.336 122.891 336.07 124.477 336.07C126.055 336.07 127.273 337.336 127.273 339.016C127.273 340.711 126.055 341.961 124.477 341.961ZM130.523 343H131.867V338.812C131.867 337.188 133.078 336.062 134.406 336.062C135.789 336.062 136.633 336.867 136.633 338.703V343H137.977V338.68C137.977 336.133 136.867 334.805 134.75 334.805C133.398 334.805 132.32 335.516 131.844 336.547L131.867 335.695V332H130.523V343ZM140.461 343H141.805V338.812C141.805 337.109 143.016 336.062 144.344 336.062C145.727 336.062 146.57 336.867 146.57 338.703V343H147.914V338.68C147.914 336.133 146.805 334.805 144.688 334.805C143.336 334.805 142.203 335.547 141.75 336.57V335.031H140.461V343ZM150.398 343H151.742V331.984H150.398V343ZM154.984 333.477C155.562 333.477 155.914 333.094 155.914 332.617C155.914 332.148 155.562 331.766 154.992 331.766C154.43 331.766 154.078 332.148 154.078 332.617C154.078 333.094 154.43 333.477 154.984 333.477ZM154.32 343H155.664V335.031H154.32V343ZM161.641 343.227C163.531 343.227 165 342.047 165.453 340.328H164.078C163.664 341.422 162.719 341.969 161.648 341.969C160.266 341.969 158.914 340.852 158.914 339.016C158.914 337.195 160.258 336.07 161.648 336.07C162.727 336.07 163.664 336.609 164.078 337.641H165.461C164.984 335.992 163.539 334.805 161.641 334.805C159.336 334.805 157.57 336.688 157.57 339.016C157.57 341.344 159.336 343.227 161.641 343.227ZM167.258 343H168.602V338.812C168.602 337.188 169.812 336.062 171.141 336.062C172.523 336.062 173.367 336.867 173.367 338.703V343H174.711V338.68C174.711 336.133 173.602 334.805 171.484 334.805C170.133 334.805 169.055 335.516 168.578 336.547L168.602 335.695V332H167.258V343ZM184.516 338.82C184.516 336.68 182.875 334.805 180.578 334.805C178.273 334.805 176.523 336.688 176.523 339.016C176.523 341.352 178.273 343.219 180.578 343.219C182.391 343.219 183.812 342.062 184.266 340.602H182.758C182.406 341.5 181.617 341.969 180.547 341.969C179.234 341.969 178.047 340.969 177.883 339.367H184.492C184.508 339.078 184.516 338.961 184.516 338.82ZM177.945 338.18C178.25 336.805 179.359 336.07 180.555 336.07C181.914 336.07 183.062 337.047 183.141 338.18H177.945ZM47.7422 369H49.125V359.617H52.4922V358.375H44.3828V359.617H47.7422V369ZM60.0312 364.82C60.0312 362.68 58.3906 360.805 56.0938 360.805C53.7891 360.805 52.0391 362.688 52.0391 365.016C52.0391 367.352 53.7891 369.219 56.0938 369.219C57.9062 369.219 59.3281 368.062 59.7812 366.602H58.2734C57.9219 367.5 57.1328 367.969 56.0625 367.969C54.75 367.969 53.5625 366.969 53.3984 365.367H60.0078C60.0234 365.078 60.0312 364.961 60.0312 364.82ZM53.4609 364.18C53.7656 362.805 54.875 362.07 56.0703 362.07C57.4297 362.07 58.5781 363.047 58.6562 364.18H53.4609ZM65 369.227C66.4219 369.227 67.6172 368.484 68.1562 367.305V369H69.4453V361.031H68.1562V362.742C67.6172 361.555 66.4297 360.812 64.9922 360.812C62.8281 360.812 61.1484 362.688 61.1484 365.016C61.1484 367.359 62.8203 369.227 65 369.227ZM65.2969 367.969C63.7656 367.969 62.4844 366.781 62.4844 365.016C62.4844 363.297 63.75 362.07 65.3047 362.07C66.8516 362.07 68.1094 363.367 68.1094 365.016C68.1094 366.688 66.8594 367.969 65.2969 367.969ZM81.7578 360.805C80.5234 360.805 79.4453 361.492 78.8281 362.852C78.4141 361.5 77.4766 360.805 76.0469 360.805C74.7656 360.805 73.7109 361.57 73.3047 362.57L73.2891 361.031H72.0234V369H73.3516V364.812C73.3516 363.188 74.4688 362.062 75.6875 362.062C76.9609 362.062 77.7344 362.867 77.7344 364.703V369H79.0625V364.812C79.0625 363.188 80.1797 362.062 81.3906 362.062C82.6719 362.062 83.4453 362.875 83.4453 364.703V369H84.7812V364.68C84.7812 362.133 83.7344 360.805 81.7578 360.805ZM92.5703 369H94.0938L91.0938 364.227L93.6875 361.031H92.0391L88.6172 365.273V358H87.2734V369H88.6172V366.758L90.1094 365.109L92.5703 369ZM98.9297 369.227C101.008 369.227 102.547 368.055 102.547 365.289V361.031H101.203V365.25C101.203 367.047 100.383 367.961 98.9141 367.961C97.4531 367.961 96.625 367.039 96.625 365.25V361.031H95.2891V365.289C95.2891 368.055 96.8125 369.227 98.9297 369.227ZM104.914 369H106.258V357.984H104.914V369ZM111.914 369H113.383V367.859H112.18C111.469 367.859 110.75 367.594 110.75 366.109V362.211H113.383V361.031H110.75V358.656L109.406 358.664V361.031H107.633V362.211H109.406V366.047C109.406 368.531 110.703 369 111.914 369ZM118.477 369.227C120.555 369.227 122.094 368.055 122.094 365.289V361.031H120.75V365.25C120.75 367.047 119.93 367.961 118.461 367.961C117 367.961 116.172 367.039 116.172 365.25V361.031H114.836V365.289C114.836 368.055 116.359 369.227 118.477 369.227ZM124.461 369H125.812V365.25C125.812 363.328 126.852 362.211 128.25 362.211H128.953V361.031H128.18C127.023 361.031 126.148 361.711 125.758 362.812V361.031H124.461V369Z" fill="white"/>
<rect x="46.5" y="410" width="157" height="32" rx="16" fill="#1EDC82"/>
<rect x="46.5" y="410" width="157" height="32" rx="16" stroke="#28282D"/>
<path d="M76.4717 429H78.1738V422.417L80.9287 426.231H81.3867L84.1689 422.431V429H85.8711V419.703H84.3877L81.1611 424.037L77.9551 419.703H76.4717V429ZM94.6279 425.363C94.6279 423.429 93.2061 421.761 91.0869 421.761C88.9746 421.761 87.4434 423.436 87.4434 425.486C87.4434 427.537 88.9746 429.212 91.0869 429.212C92.8369 429.212 94.0879 428.057 94.4434 426.792H92.6387C92.3994 427.387 91.8867 427.735 91.0527 427.735C90.082 427.735 89.2754 427.072 89.1045 425.924H94.5938C94.6211 425.664 94.6279 425.541 94.6279 425.363ZM89.1729 424.646C89.4531 423.654 90.2461 423.203 91.0801 423.203C92.0508 423.203 92.8711 423.859 92.9395 424.646H89.1729ZM95.9814 429H97.6357V425.411C97.6357 424.146 98.5244 423.285 99.4951 423.285C100.493 423.285 101.122 423.853 101.122 425.247V429H102.776V425.213C102.776 423.005 101.84 421.761 99.9531 421.761C98.873 421.761 98.0322 422.26 97.5947 423.025L97.6357 422.239V419.375H95.9814V429ZM104.663 429H106.317V425.732C106.317 424.235 107.09 423.395 108.225 423.395H108.888V421.973H108.136C107.22 421.973 106.577 422.472 106.249 423.244V421.973H104.663V429ZM120.181 425.363C120.181 423.429 118.759 421.761 116.64 421.761C114.527 421.761 112.996 423.436 112.996 425.486C112.996 427.537 114.527 429.212 116.64 429.212C118.39 429.212 119.641 428.057 119.996 426.792H118.191C117.952 427.387 117.439 427.735 116.605 427.735C115.635 427.735 114.828 427.072 114.657 425.924H120.146C120.174 425.664 120.181 425.541 120.181 425.363ZM114.726 424.646C115.006 423.654 115.799 423.203 116.633 423.203C117.604 423.203 118.424 423.859 118.492 424.646H114.726ZM121.534 429H123.188V425.732C123.188 424.235 123.961 423.395 125.096 423.395H125.759V421.973H125.007C124.091 421.973 123.448 422.472 123.12 423.244V421.973H121.534V429ZM127.68 429H129.334V423.388H131.173V421.973H129.334V421.699C129.334 421.146 129.662 420.66 130.277 420.66H131.207V419.286H129.86C128.274 419.286 127.68 420.496 127.68 421.569V421.973H126.278V423.388H127.68V429ZM134.857 429.212C135.999 429.212 136.929 428.692 137.387 427.817V429H138.959V421.973H137.387V423.162C136.936 422.287 135.999 421.761 134.851 421.761C132.971 421.761 131.549 423.436 131.549 425.486C131.549 427.551 132.957 429.212 134.857 429.212ZM135.254 427.681C134.14 427.681 133.189 426.854 133.189 425.486C133.189 424.167 134.119 423.292 135.254 423.292C136.402 423.292 137.318 424.263 137.318 425.486C137.318 426.73 136.409 427.681 135.254 427.681ZM140.907 429H142.562V425.411C142.562 424.146 143.45 423.285 144.421 423.285C145.419 423.285 146.048 423.853 146.048 425.247V429H147.702V425.213C147.702 423.005 146.766 421.761 144.879 421.761C143.799 421.761 142.958 422.26 142.521 423.025L142.562 422.239V419.375H140.907V429ZM149.589 429H151.243V425.732C151.243 424.235 152.016 423.395 153.15 423.395H153.813V421.973H153.062C152.146 421.973 151.503 422.472 151.175 423.244V421.973H149.589V429ZM161.415 425.363C161.415 423.429 159.993 421.761 157.874 421.761C155.762 421.761 154.23 423.436 154.23 425.486C154.23 427.537 155.762 429.212 157.874 429.212C159.624 429.212 160.875 428.057 161.23 426.792H159.426C159.187 427.387 158.674 427.735 157.84 427.735C156.869 427.735 156.062 427.072 155.892 425.924H161.381C161.408 425.664 161.415 425.541 161.415 425.363ZM155.96 424.646C156.24 423.654 157.033 423.203 157.867 423.203C158.838 423.203 159.658 423.859 159.727 424.646H155.96ZM162.769 429H164.423V425.411C164.423 424.037 165.312 423.285 166.282 423.285C167.28 423.285 167.909 423.853 167.909 425.247V429H169.563V425.213C169.563 423.005 168.627 421.761 166.74 421.761C165.66 421.761 164.744 422.301 164.341 423.066V421.973H162.769V429ZM171.922 426.197H173.152L173.392 424.222V419.703H171.689V424.215L171.922 426.197ZM172.544 429.164C173.132 429.164 173.521 428.761 173.521 428.255C173.521 427.756 173.132 427.339 172.544 427.339C171.97 427.339 171.587 427.756 171.587 428.255C171.587 428.754 171.97 429.164 172.544 429.164Z" fill="#161528"/>
</svg>
