<svg width="202" height="378" viewBox="0 0 202 378" fill="none" xmlns="http://www.w3.org/2000/svg">
<path d="M2.53125 27H10.7656C17.5156 27 22.0156 22.75 22.0156 16.3594C22.0156 10 17.5 5.75 10.7188 5.75H2.53125V27ZM6.35938 23.5312V9.20312H10.6094C15.375 9.20312 18.0938 12.0781 18.0938 16.4219C18.0938 20.7969 15.2969 23.5312 10.6406 23.5312H6.35938ZM40.5625 18.6875C40.5625 14.2656 37.3125 10.4531 32.4688 10.4531C27.6406 10.4531 24.1406 14.2812 24.1406 18.9688C24.1406 23.6562 27.6406 27.4844 32.4688 27.4844C36.4688 27.4844 39.3281 24.8438 40.1406 21.9531H36.0156C35.4688 23.3125 34.2969 24.1094 32.3906 24.1094C30.1719 24.1094 28.3281 22.5938 27.9375 19.9688H40.4844C40.5469 19.375 40.5625 19.0938 40.5625 18.6875ZM28.0938 17.0469C28.7344 14.7812 30.5469 13.75 32.4531 13.75C34.6719 13.75 36.5469 15.25 36.7031 17.0469H28.0938ZM45.5156 8.4375C47.0469 8.4375 47.9062 7.48438 47.9062 6.26562C47.9062 5.09375 47.0469 4.10938 45.5312 4.10938C44.0469 4.10938 43.1875 5.09375 43.1875 6.26562C43.1875 7.46875 44.0625 8.4375 45.5156 8.4375ZM43.6562 27H47.4375V10.9375H43.6562V27ZM51.875 27H55.6562V18.7969C55.6562 15.6562 57.6875 13.9375 59.9062 13.9375C62.1875 13.9375 63.625 15.2344 63.625 18.4219V27H67.4062V18.3438C67.4062 13.2969 65.2656 10.4531 60.9531 10.4531C58.4844 10.4531 56.3906 11.6875 55.4688 13.4375V10.9375H51.875V27ZM87 18.6875C87 14.2656 83.75 10.4531 78.9062 10.4531C74.0781 10.4531 70.5781 14.2812 70.5781 18.9688C70.5781 23.6562 74.0781 27.4844 78.9062 27.4844C82.9062 27.4844 85.7656 24.8438 86.5781 21.9531H82.4531C81.9062 23.3125 80.7344 24.1094 78.8281 24.1094C76.6094 24.1094 74.7656 22.5938 74.375 19.9688H86.9219C86.9844 19.375 87 19.0938 87 18.6875ZM74.5312 17.0469C75.1719 14.7812 76.9844 13.75 78.8906 13.75C81.1094 13.75 82.9844 15.25 83.1406 17.0469H74.5312ZM12.25 53.1562L19.8281 43.75H15.2812L6.42188 54.9375V43.75H2.53125V65H6.42188V60.0938L9.70312 55.9844L16.2969 65H20.9062L12.25 53.1562ZM28.8281 65.4844C31.4375 65.4844 33.5625 64.2969 34.6094 62.2969V65H38.2031V48.9375H34.6094V51.6562C33.5781 49.6562 31.4375 48.4531 28.8125 48.4531C24.5156 48.4531 21.2656 52.2812 21.2656 56.9688C21.2656 61.6875 24.4844 65.4844 28.8281 65.4844ZM29.7344 61.9844C27.1875 61.9844 25.0156 60.0938 25.0156 56.9688C25.0156 53.9531 27.1406 51.9531 29.7344 51.9531C32.3594 51.9531 34.4531 54.1719 34.4531 56.9688C34.4531 59.8125 32.375 61.9844 29.7344 61.9844ZM42.6562 65H46.4375V57.5312C46.4375 54.1094 48.2031 52.1875 50.7969 52.1875H52.3125V48.9375H50.5938C48.5 48.9375 47.0312 50.0781 46.2812 51.8438V48.9375H42.6562V65ZM55.0312 65H58.8125V57.5312C58.8125 54.1094 60.5781 52.1875 63.1719 52.1875H64.6875V48.9375H62.9688C60.875 48.9375 59.4062 50.0781 58.6562 51.8438V48.9375H55.0312V65ZM69.2656 46.4375C70.7969 46.4375 71.6562 45.4844 71.6562 44.2656C71.6562 43.0938 70.7969 42.1094 69.2812 42.1094C67.7969 42.1094 66.9375 43.0938 66.9375 44.2656C66.9375 45.4688 67.8125 46.4375 69.2656 46.4375ZM67.4062 65H71.1875V48.9375H67.4062V65ZM90.9062 56.6875C90.9062 52.2656 87.6562 48.4531 82.8125 48.4531C77.9844 48.4531 74.4844 52.2812 74.4844 56.9688C74.4844 61.6562 77.9844 65.4844 82.8125 65.4844C86.8125 65.4844 89.6719 62.8438 90.4844 59.9531H86.3594C85.8125 61.3125 84.6406 62.1094 82.7344 62.1094C80.5156 62.1094 78.6719 60.5938 78.2812 57.9688H90.8281C90.8906 57.375 90.9062 57.0938 90.9062 56.6875ZM78.4375 55.0469C79.0781 52.7812 80.8906 51.75 82.7969 51.75C85.0156 51.75 86.8906 53.25 87.0469 55.0469H78.4375ZM94 65H97.7812V57.5312C97.7812 54.1094 99.5469 52.1875 102.141 52.1875H103.656V48.9375H101.938C99.8438 48.9375 98.375 50.0781 97.625 51.8438V48.9375H94V65ZM121.031 56.6875C121.031 52.2656 117.781 48.4531 112.938 48.4531C108.109 48.4531 104.609 52.2812 104.609 56.9688C104.609 61.6562 108.109 65.4844 112.938 65.4844C116.938 65.4844 119.797 62.8438 120.609 59.9531H116.484C115.938 61.3125 114.766 62.1094 112.859 62.1094C110.641 62.1094 108.797 60.5938 108.406 57.9688H120.953C121.016 57.375 121.031 57.0938 121.031 56.6875ZM108.562 55.0469C109.203 52.7812 111.016 51.75 112.922 51.75C115.141 51.75 117.016 53.25 117.172 55.0469H108.562ZM141.094 65.4844C145.578 65.4844 148.875 61.6875 148.875 56.9688C148.875 52.2812 145.609 48.4688 141.047 48.4688C138.734 48.4688 136.688 49.7031 135.625 51.5625L135.719 49.4531V43H131.938V65H135.531V62.2969C136.625 64.2656 138.75 65.4844 141.094 65.4844ZM140.406 62C137.844 62 135.672 59.9062 135.672 56.9688C135.672 54.1562 137.781 51.9531 140.391 51.9531C143 51.9531 145.125 53.9531 145.125 56.9688C145.125 60.0781 142.953 62 140.406 62ZM167.875 56.6875C167.875 52.2656 164.625 48.4531 159.781 48.4531C154.953 48.4531 151.453 52.2812 151.453 56.9688C151.453 61.6562 154.953 65.4844 159.781 65.4844C163.781 65.4844 166.641 62.8438 167.453 59.9531H163.328C162.781 61.3125 161.609 62.1094 159.703 62.1094C157.484 62.1094 155.641 60.5938 155.25 57.9688H167.797C167.859 57.375 167.875 57.0938 167.875 56.6875ZM155.406 55.0469C156.047 52.7812 157.859 51.75 159.766 51.75C161.984 51.75 163.859 53.25 164.016 55.0469H155.406ZM172.828 46.4375C174.359 46.4375 175.219 45.4844 175.219 44.2656C175.219 43.0938 174.359 42.1094 172.844 42.1094C171.359 42.1094 170.5 43.0938 170.5 44.2656C170.5 45.4688 171.375 46.4375 172.828 46.4375ZM170.969 65H174.75V48.9375H170.969V65ZM12.25 103.453C19.2031 103.453 23.2031 98.5312 23.1562 91.5625H12.0625V94.8125H18.9375C18.3438 97.7812 16.0156 99.875 12.2188 99.875C8.20312 99.875 4.92188 96.9688 4.92188 92.3594C4.92188 87.8281 8.20312 84.8125 12.2188 84.8125C15.2344 84.8125 17.6094 86.2812 18.7188 88.7656H22.6719C21.6719 83.9844 16.8125 81.25 12.3125 81.25C6.0625 81.25 1.04688 86.1719 1.04688 92.3594C1.04688 98.5 6.0625 103.453 12.25 103.453ZM33.6562 103.484C37.9062 103.484 41.1875 101.234 41.1875 95.5156V86.9375H37.4219V95.4062C37.4219 98.3438 36.1719 99.9688 33.6406 99.9688C31.125 99.9688 29.8438 98.375 29.8438 95.4062V86.9375H26.0938V95.5156C26.0938 101.234 29.3594 103.484 33.6562 103.484ZM47.1406 84.4375C48.6719 84.4375 49.5312 83.4844 49.5312 82.2656C49.5312 81.0938 48.6719 80.1094 47.1562 80.1094C45.6719 80.1094 44.8125 81.0938 44.8125 82.2656C44.8125 83.4688 45.6875 84.4375 47.1406 84.4375ZM45.2812 103H49.0625V86.9375H45.2812V103ZM60.125 103.484C62.8125 103.484 64.7344 101.984 65.6875 100.297V103H69.2812V81H65.5156V87.8906L65.5938 89.5625C64.75 88.0469 62.7969 86.4531 60.1719 86.4531C55.4844 86.4531 52.3594 90.2812 52.3594 94.9688C52.3594 99.6875 55.5625 103.484 60.125 103.484ZM60.8125 100C58.0469 100 56.0781 97.8125 56.0781 94.9688C56.0781 92.0469 58.1406 89.9531 60.8125 89.9531C63.4688 89.9531 65.5469 92.1562 65.5469 94.9688C65.5469 97.8125 63.4531 100 60.8125 100ZM89 94.6875C89 90.2656 85.75 86.4531 80.9062 86.4531C76.0781 86.4531 72.5781 90.2812 72.5781 94.9688C72.5781 99.6562 76.0781 103.484 80.9062 103.484C84.9062 103.484 87.7656 100.844 88.5781 97.9531H84.4531C83.9062 99.3125 82.7344 100.109 80.8281 100.109C78.6094 100.109 76.7656 98.5938 76.375 95.9688H88.9219C88.9844 95.375 89 95.0938 89 94.6875ZM76.5312 93.0469C77.1719 90.7812 78.9844 89.75 80.8906 89.75C83.1094 89.75 84.9844 91.25 85.1406 93.0469H76.5312ZM102.125 103.453C106.656 103.453 111.391 100.844 112.375 95.1562H108.391C107.562 98.4219 105.031 99.875 102.016 99.875C98 99.875 94.7969 96.9688 94.7969 92.3594C94.7969 87.8281 98 84.8125 102.016 84.8125C105.047 84.8125 107.562 86.2812 108.406 89.5469H112.375C111.391 83.875 106.609 81.25 102.125 81.25C95.8594 81.25 90.9062 86.1719 90.9062 92.3438C90.9062 98.5156 95.8594 103.453 102.125 103.453ZM122.953 103.484C127.906 103.484 131.453 99.7031 131.453 94.9688C131.453 90.2656 127.906 86.4531 122.969 86.4531C118.047 86.4531 114.516 90.2812 114.516 94.9688C114.516 99.6875 118.062 103.484 122.953 103.484ZM122.984 99.9688C120.281 99.9688 118.266 97.875 118.266 94.9688C118.266 92.0781 120.281 89.9531 122.984 89.9531C125.688 89.9531 127.703 92.0781 127.703 94.9688C127.703 97.875 125.688 99.9688 122.984 99.9688ZM154.438 86.4531C152.141 86.4531 150.188 87.6094 148.812 90.0781C147.922 87.7188 146.141 86.4531 143.453 86.4531C141.078 86.4531 139.156 87.7344 138.328 89.4375L138.281 86.9375H134.75V103H138.484V94.7969C138.484 91.9062 140.328 89.9375 142.359 89.9375C144.422 89.9375 145.734 91.25 145.734 94.4219V103H149.469V94.7969C149.469 91.9062 151.328 89.9375 153.344 89.9375C155.422 89.9375 156.734 91.25 156.734 94.4219V103H160.469V94.3438C160.469 89.2969 158.469 86.4531 154.438 86.4531ZM166.766 90.625C168.109 90.625 169 89.6875 169 88.5312C169 87.4062 168.109 86.4531 166.781 86.4531C165.438 86.4531 164.562 87.4062 164.562 88.5312C164.562 89.6719 165.453 90.625 166.766 90.625ZM166.766 103.531C168.109 103.531 169 102.594 169 101.438C169 100.312 168.109 99.3594 166.781 99.3594C165.438 99.3594 164.562 100.312 164.562 101.438C164.562 102.594 165.453 103.531 166.766 103.531Z" fill="white"/>
<path d="M8 151.25C3.71875 151.25 0.25 154.75 0.25 159C0.25 163.281 3.71875 166.75 8 166.75C12.25 166.75 15.75 163.281 15.75 159C15.75 154.75 12.25 151.25 8 151.25ZM8 152.75C11.4375 152.75 14.25 155.562 14.25 159C14.25 162.469 11.4375 165.25 8 165.25C4.53125 165.25 1.75 162.469 1.75 159C1.75 155.562 4.53125 152.75 8 152.75ZM12.375 156.844L11.6562 156.125C11.5312 155.969 11.2812 155.969 11.125 156.125L6.71875 160.5L4.84375 158.625C4.6875 158.469 4.46875 158.469 4.3125 158.625L3.59375 159.312C3.46875 159.469 3.46875 159.719 3.59375 159.844L6.4375 162.719C6.59375 162.875 6.8125 162.875 6.96875 162.719L12.375 157.375C12.5 157.219 12.5 156.969 12.375 156.844Z" fill="#1EDC82"/>
<path d="M28.9531 163H30.4219L25.9297 152.375H24.6016L20.1016 163H21.5703L22.5781 160.594H27.9453L28.9531 163ZM23.0703 159.422L25.2109 154.32L25.2578 154.141H25.2734L25.3125 154.32L27.4531 159.422H23.0703ZM31.8203 163H33.1719V159.25C33.1719 157.328 34.2109 156.211 35.6094 156.211H36.3125V155.031H35.5391C34.3828 155.031 33.5078 155.711 33.1172 156.812V155.031H31.8203V163ZM42.2578 163.227C44.4844 163.227 46.1719 161.359 46.1719 159.016C46.1719 156.688 44.4922 154.812 42.2422 154.812C40.8594 154.812 39.7266 155.633 39.2031 156.711L39.2266 155.617V152H37.8828V163H39.1719V161.305C39.7422 162.492 40.9453 163.227 42.2578 163.227ZM42.0234 161.977C40.4922 161.977 39.2188 160.711 39.2188 159.016C39.2188 157.367 40.4688 156.062 42.0234 156.062C43.5781 156.062 44.8359 157.297 44.8359 159.016C44.8359 160.773 43.5547 161.977 42.0234 161.977ZM55.5938 158.82C55.5938 156.68 53.9531 154.805 51.6562 154.805C49.3516 154.805 47.6016 156.688 47.6016 159.016C47.6016 161.352 49.3516 163.219 51.6562 163.219C53.4688 163.219 54.8906 162.062 55.3438 160.602H53.8359C53.4844 161.5 52.6953 161.969 51.625 161.969C50.3125 161.969 49.125 160.969 48.9609 159.367H55.5703C55.5859 159.078 55.5938 158.961 55.5938 158.82ZM49.0234 158.18C49.3281 156.805 50.4375 156.07 51.6328 156.07C52.9922 156.07 54.1406 157.047 54.2188 158.18H49.0234ZM58.0469 153.477C58.625 153.477 58.9766 153.094 58.9766 152.617C58.9766 152.148 58.625 151.766 58.0547 151.766C57.4922 151.766 57.1406 152.148 57.1406 152.617C57.1406 153.094 57.4922 153.477 58.0469 153.477ZM57.3828 163H58.7266V155.031H57.3828V163ZM64.3828 163H65.8516V161.859H64.6484C63.9375 161.859 63.2188 161.594 63.2188 160.109V156.211H65.8516V155.031H63.2188V152.656L61.875 152.664V155.031H60.1016V156.211H61.875V160.047C61.875 162.531 63.1719 163 64.3828 163ZM70.2422 163.227C72.1406 163.227 73.4531 162.383 73.4531 160.75C73.4531 159.016 71.9922 158.625 70.5312 158.398C69.0469 158.148 68.6172 157.867 68.6172 157.109C68.6172 156.469 69.1094 155.93 70.1406 155.93C71.2031 155.93 71.8438 156.438 71.8828 157.195H73.2031C73.2031 155.805 71.9844 154.805 70.1406 154.805C68.2422 154.805 67.2891 155.836 67.2891 157.141C67.2891 158.75 68.5938 159.273 70.0781 159.492C71.3281 159.695 72.0859 159.93 72.0859 160.82C72.0859 161.625 71.4609 162.133 70.2578 162.133C68.9453 162.133 68.2266 161.43 68.2109 160.562L66.9141 160.555C66.9141 161.914 68.0156 163.227 70.2422 163.227ZM78.7578 163.227C81.1406 163.227 82.9141 161.359 82.9141 159.016C82.9141 156.68 81.1328 154.805 78.7578 154.805C76.3906 154.805 74.6172 156.688 74.6172 159.016C74.6172 161.359 76.3984 163.227 78.7578 163.227ZM78.7734 161.961C77.1875 161.961 75.9609 160.711 75.9609 159.016C75.9609 157.336 77.1875 156.07 78.7734 156.07C80.3516 156.07 81.5703 157.336 81.5703 159.016C81.5703 160.711 80.3516 161.961 78.7734 161.961ZM84.8203 163H86.1719V159.25C86.1719 157.328 87.2109 156.211 88.6094 156.211H89.3125V155.031H88.5391C87.3828 155.031 86.5078 155.711 86.1172 156.812V155.031H84.8203V163ZM94.2422 163H95.7109V161.859H94.5078C93.7969 161.859 93.0781 161.594 93.0781 160.109V156.211H95.7109V155.031H93.0781V152.656L91.7344 152.664V155.031H89.9609V156.211H91.7344V160.047C91.7344 162.531 93.0312 163 94.2422 163ZM104.82 163.227C106.898 163.227 108.438 162.055 108.438 159.289V155.031H107.094V159.25C107.094 161.047 106.273 161.961 104.805 161.961C103.344 161.961 102.516 161.039 102.516 159.25V155.031H101.18V159.289C101.18 162.055 102.703 163.227 104.82 163.227ZM110.805 163H112.148V158.812C112.148 157.109 113.359 156.062 114.688 156.062C116.07 156.062 116.914 156.867 116.914 158.703V163H118.258V158.68C118.258 156.133 117.148 154.805 115.031 154.805C113.68 154.805 112.547 155.547 112.094 156.57V155.031H110.805V163ZM123.992 163.227C125.438 163.227 126.562 162.383 127.07 161.305V163H128.359V152H127.016V155.938L127.047 156.711C126.586 155.75 125.492 154.805 124 154.805C121.711 154.805 120.07 156.688 120.07 159.016C120.07 161.359 121.742 163.227 123.992 163.227ZM124.211 161.977C122.609 161.977 121.406 160.688 121.406 159.016C121.406 157.328 122.641 156.062 124.211 156.062C125.781 156.062 127.031 157.359 127.031 159.016C127.031 160.688 125.773 161.977 124.211 161.977ZM134.531 159.305H139.586V158.18H134.531V159.305ZM141.062 163H147.688V161.852H142.906L147.5 155.914V155.031H141.289V156.18H145.68L141.062 162.133V163ZM156.5 158.82C156.5 156.68 154.859 154.805 152.562 154.805C150.258 154.805 148.508 156.688 148.508 159.016C148.508 161.352 150.258 163.219 152.562 163.219C154.375 163.219 155.797 162.062 156.25 160.602H154.742C154.391 161.5 153.602 161.969 152.531 161.969C151.219 161.969 150.031 160.969 149.867 159.367H156.477C156.492 159.078 156.5 158.961 156.5 158.82ZM149.93 158.18C150.234 156.805 151.344 156.07 152.539 156.07C153.898 156.07 155.047 157.047 155.125 158.18H149.93ZM158.953 153.477C159.531 153.477 159.883 153.094 159.883 152.617C159.883 152.148 159.531 151.766 158.961 151.766C158.398 151.766 158.047 152.148 158.047 152.617C158.047 153.094 158.398 153.477 158.953 153.477ZM158.289 163H159.633V155.031H158.289V163ZM165.289 163H166.758V161.859H165.555C164.844 161.859 164.125 161.594 164.125 160.109V156.211H166.758V155.031H164.125V152.656L162.781 152.664V155.031H161.008V156.211H162.781V160.047C162.781 162.531 164.078 163 165.289 163ZM21.875 189H23.2266V182.203H25.4922V181.031H23.2266V180.578C23.2266 179.727 23.7109 179.07 24.5312 179.07H25.5547V177.938H24.2188C22.6016 177.938 21.875 179.172 21.875 180.469V181.031H20.1719V182.203H21.875V189ZM26.9297 189H28.2734V177.984H26.9297V189ZM38.1719 184.82C38.1719 182.68 36.5312 180.805 34.2344 180.805C31.9297 180.805 30.1797 182.688 30.1797 185.016C30.1797 187.352 31.9297 189.219 34.2344 189.219C36.0469 189.219 37.4688 188.062 37.9219 186.602H36.4141C36.0625 187.5 35.2734 187.969 34.2031 187.969C32.8906 187.969 31.7031 186.969 31.5391 185.367H38.1484C38.1641 185.078 38.1719 184.961 38.1719 184.82ZM31.6016 184.18C31.9062 182.805 33.0156 182.07 34.2109 182.07C35.5703 182.07 36.7188 183.047 36.7969 184.18H31.6016ZM38.6172 189H40.1953L42.3047 185.891L44.4062 189H46.0234L43.25 184.938L45.9453 181.031H44.3594L42.3203 184.031H42.3125L40.2812 181.031H38.6875L41.3828 184.938L38.6172 189ZM48.2812 179.477C48.8594 179.477 49.2109 179.094 49.2109 178.617C49.2109 178.148 48.8594 177.766 48.2891 177.766C47.7266 177.766 47.375 178.148 47.375 178.617C47.375 179.094 47.7266 179.477 48.2812 179.477ZM47.6172 189H48.9609V181.031H47.6172V189ZM55.9141 189.227C58.1406 189.227 59.8281 187.359 59.8281 185.016C59.8281 182.688 58.1484 180.812 55.8984 180.812C54.5156 180.812 53.3828 181.633 52.8594 182.711L52.8828 181.617V178H51.5391V189H52.8281V187.305C53.3984 188.492 54.6016 189.227 55.9141 189.227ZM55.6797 187.977C54.1484 187.977 52.875 186.711 52.875 185.016C52.875 183.367 54.125 182.062 55.6797 182.062C57.2344 182.062 58.4922 183.297 58.4922 185.016C58.4922 186.773 57.2109 187.977 55.6797 187.977ZM69.25 184.82C69.25 182.68 67.6094 180.805 65.3125 180.805C63.0078 180.805 61.2578 182.688 61.2578 185.016C61.2578 187.352 63.0078 189.219 65.3125 189.219C67.125 189.219 68.5469 188.062 69 186.602H67.4922C67.1406 187.5 66.3516 187.969 65.2812 187.969C63.9688 187.969 62.7812 186.969 62.6172 185.367H69.2266C69.2422 185.078 69.25 184.961 69.25 184.82ZM62.6797 184.18C62.9844 182.805 64.0938 182.07 65.2891 182.07C66.6484 182.07 67.7969 183.047 67.875 184.18H62.6797ZM71.0391 189H72.3828V177.984H71.0391V189Z" fill="white"/>
<path d="M8 209.25C3.71875 209.25 0.25 212.75 0.25 217C0.25 221.281 3.71875 224.75 8 224.75C12.25 224.75 15.75 221.281 15.75 217C15.75 212.75 12.25 209.25 8 209.25ZM8 210.75C11.4375 210.75 14.25 213.562 14.25 217C14.25 220.469 11.4375 223.25 8 223.25C4.53125 223.25 1.75 220.469 1.75 217C1.75 213.562 4.53125 210.75 8 210.75ZM12.375 214.844L11.6562 214.125C11.5312 213.969 11.2812 213.969 11.125 214.125L6.71875 218.5L4.84375 216.625C4.6875 216.469 4.46875 216.469 4.3125 216.625L3.59375 217.312C3.46875 217.469 3.46875 217.719 3.59375 217.844L6.4375 220.719C6.59375 220.875 6.8125 220.875 6.96875 220.719L12.375 215.375C12.5 215.219 12.5 214.969 12.375 214.844Z" fill="#1EDC82"/>
<path d="M28.9531 221H30.4219L25.9297 210.375H24.6016L20.1016 221H21.5703L22.5781 218.594H27.9453L28.9531 221ZM23.0703 217.422L25.2109 212.32L25.2578 212.141H25.2734L25.3125 212.32L27.4531 217.422H23.0703ZM34.3047 221H35.7734V219.859H34.5703C33.8594 219.859 33.1406 219.594 33.1406 218.109V214.211H35.7734V213.031H33.1406V210.656L31.7969 210.664V213.031H30.0234V214.211H31.7969V218.047C31.7969 220.531 33.0938 221 34.3047 221ZM40.5859 221H42.0547V219.859H40.8516C40.1406 219.859 39.4219 219.594 39.4219 218.109V214.211H42.0547V213.031H39.4219V210.656L38.0781 210.664V213.031H36.3047V214.211H38.0781V218.047C38.0781 220.531 39.375 221 40.5859 221ZM43.7891 221H45.1406V217.25C45.1406 215.328 46.1797 214.211 47.5781 214.211H48.2812V213.031H47.5078C46.3516 213.031 45.4766 213.711 45.0859 214.812V213.031H43.7891V221ZM52.6406 221.227C54.0625 221.227 55.2578 220.484 55.7969 219.305V221H57.0859V213.031H55.7969V214.742C55.2578 213.555 54.0703 212.812 52.6328 212.812C50.4688 212.812 48.7891 214.688 48.7891 217.016C48.7891 219.359 50.4609 221.227 52.6406 221.227ZM52.9375 219.969C51.4062 219.969 50.125 218.781 50.125 217.016C50.125 215.297 51.3906 214.07 52.9453 214.07C54.4922 214.07 55.75 215.367 55.75 217.016C55.75 218.688 54.5 219.969 52.9375 219.969ZM64.9609 221H66.4844L63.4844 216.227L66.0781 213.031H64.4297L61.0078 217.273V210H59.6641V221H61.0078V218.758L62.5 217.109L64.9609 221ZM70.9766 221H72.4453V219.859H71.2422C70.5312 219.859 69.8125 219.594 69.8125 218.109V214.211H72.4453V213.031H69.8125V210.656L68.4688 210.664V213.031H66.6953V214.211H68.4688V218.047C68.4688 220.531 69.7656 221 70.9766 221ZM74.8438 211.477C75.4219 211.477 75.7734 211.094 75.7734 210.617C75.7734 210.148 75.4219 209.766 74.8516 209.766C74.2891 209.766 73.9375 210.148 73.9375 210.617C73.9375 211.094 74.2891 211.477 74.8438 211.477ZM74.1797 221H75.5234V213.031H74.1797V221ZM80.1484 221H81.4219L84.6641 213.031H83.2266L80.9766 218.656L80.7891 219.367L80.5938 218.656L78.3438 213.031H76.9141L80.1484 221ZM93.1094 216.82C93.1094 214.68 91.4688 212.805 89.1719 212.805C86.8672 212.805 85.1172 214.688 85.1172 217.016C85.1172 219.352 86.8672 221.219 89.1719 221.219C90.9844 221.219 92.4062 220.062 92.8594 218.602H91.3516C91 219.5 90.2109 219.969 89.1406 219.969C87.8281 219.969 86.6406 218.969 86.4766 217.367H93.0859C93.1016 217.078 93.1094 216.961 93.1094 216.82ZM86.5391 216.18C86.8438 214.805 87.9531 214.07 89.1484 214.07C90.5078 214.07 91.6562 215.047 91.7344 216.18H86.5391ZM97.5547 221.227C99.4531 221.227 100.766 220.383 100.766 218.75C100.766 217.016 99.3047 216.625 97.8438 216.398C96.3594 216.148 95.9297 215.867 95.9297 215.109C95.9297 214.469 96.4219 213.93 97.4531 213.93C98.5156 213.93 99.1562 214.438 99.1953 215.195H100.516C100.516 213.805 99.2969 212.805 97.4531 212.805C95.5547 212.805 94.6016 213.836 94.6016 215.141C94.6016 216.75 95.9062 217.273 97.3906 217.492C98.6406 217.695 99.3984 217.93 99.3984 218.82C99.3984 219.625 98.7734 220.133 97.5703 220.133C96.2578 220.133 95.5391 219.43 95.5234 218.562L94.2266 218.555C94.2266 219.914 95.3281 221.227 97.5547 221.227ZM111.484 221.203C114.938 221.203 116.906 218.625 116.898 215.406H111.406V216.656H115.461C115.172 218.477 113.859 219.93 111.453 219.93C109.141 219.93 107.289 218.188 107.289 215.68C107.289 213.195 109.141 211.414 111.453 211.414C113.164 211.414 114.555 212.273 115.148 213.727H116.555C115.984 211.453 113.742 210.141 111.484 210.141C108.375 210.141 105.906 212.586 105.906 215.68C105.906 218.75 108.375 221.203 111.484 221.203ZM126.156 216.82C126.156 214.68 124.516 212.805 122.219 212.805C119.914 212.805 118.164 214.688 118.164 217.016C118.164 219.352 119.914 221.219 122.219 221.219C124.031 221.219 125.453 220.062 125.906 218.602H124.398C124.047 219.5 123.258 219.969 122.188 219.969C120.875 219.969 119.688 218.969 119.523 217.367H126.133C126.148 217.078 126.156 216.961 126.156 216.82ZM119.586 216.18C119.891 214.805 121 214.07 122.195 214.07C123.555 214.07 124.703 215.047 124.781 216.18H119.586ZM127.945 221H129.289V216.812C129.289 215.188 130.5 214.062 131.828 214.062C133.211 214.062 134.055 214.867 134.055 216.703V221H135.398V216.68C135.398 214.133 134.289 212.805 132.172 212.805C130.82 212.805 129.742 213.516 129.266 214.547L129.289 213.695V210H127.945V221ZM141.062 221.227C142.484 221.227 143.68 220.484 144.219 219.305V221H145.508V213.031H144.219V214.742C143.68 213.555 142.492 212.812 141.055 212.812C138.891 212.812 137.211 214.688 137.211 217.016C137.211 219.359 138.883 221.227 141.062 221.227ZM141.359 219.969C139.828 219.969 138.547 218.781 138.547 217.016C138.547 215.297 139.812 214.07 141.367 214.07C142.914 214.07 144.172 215.367 144.172 217.016C144.172 218.688 142.922 219.969 141.359 219.969ZM148.086 221H149.43V209.984H148.086V221ZM155.086 221H156.555V219.859H155.352C154.641 219.859 153.922 219.594 153.922 218.109V214.211H156.555V213.031H153.922V210.656L152.578 210.664V213.031H150.805V214.211H152.578V218.047C152.578 220.531 153.875 221 155.086 221Z" fill="white"/>
<path d="M8 241.25C3.71875 241.25 0.25 244.75 0.25 249C0.25 253.281 3.71875 256.75 8 256.75C12.25 256.75 15.75 253.281 15.75 249C15.75 244.75 12.25 241.25 8 241.25ZM8 242.75C11.4375 242.75 14.25 245.562 14.25 249C14.25 252.469 11.4375 255.25 8 255.25C4.53125 255.25 1.75 252.469 1.75 249C1.75 245.562 4.53125 242.75 8 242.75ZM12.375 246.844L11.6562 246.125C11.5312 245.969 11.2812 245.969 11.125 246.125L6.71875 250.5L4.84375 248.625C4.6875 248.469 4.46875 248.469 4.3125 248.625L3.59375 249.312C3.46875 249.469 3.46875 249.719 3.59375 249.844L6.4375 252.719C6.59375 252.875 6.8125 252.875 6.96875 252.719L12.375 247.375C12.5 247.219 12.5 246.969 12.375 246.844Z" fill="#1EDC82"/>
<path d="M24.7578 253.227C27.3672 253.227 28.9609 252.055 28.9609 250.062C28.9609 247.883 26.9844 247.234 25.2188 246.953C23.3125 246.695 22.2422 246.219 22.2422 245.102C22.2422 244.227 22.7734 243.359 24.6953 243.359C26.2891 243.359 27.1484 244.109 27.1484 245.164H28.5391C28.5391 243.391 27.2109 242.141 24.7109 242.141C21.9453 242.141 20.8594 243.508 20.8594 245.094C20.8594 247.242 23.0156 247.828 24.7891 248.125C26.375 248.367 27.5625 248.812 27.5625 250.062C27.5625 251.375 26.5625 252.039 24.75 252.039C23 252.039 21.9688 251.039 21.9688 249.922H20.5859C20.5859 251.531 21.875 253.227 24.7578 253.227ZM33.8828 253H35.3516V251.859H34.1484C33.4375 251.859 32.7188 251.594 32.7188 250.109V246.211H35.3516V245.031H32.7188V242.656L31.375 242.664V245.031H29.6016V246.211H31.375V250.047C31.375 252.531 32.6719 253 33.8828 253ZM40.0156 253.227C41.4375 253.227 42.6328 252.484 43.1719 251.305V253H44.4609V245.031H43.1719V246.742C42.6328 245.555 41.4453 244.812 40.0078 244.812C37.8438 244.812 36.1641 246.688 36.1641 249.016C36.1641 251.359 37.8359 253.227 40.0156 253.227ZM40.3125 251.969C38.7812 251.969 37.5 250.781 37.5 249.016C37.5 247.297 38.7656 246.07 40.3203 246.07C41.8672 246.07 43.125 247.367 43.125 249.016C43.125 250.688 41.875 251.969 40.3125 251.969ZM47.0391 253H48.3906V249.25C48.3906 247.328 49.4297 246.211 50.8281 246.211H51.5312V245.031H50.7578C49.6016 245.031 48.7266 245.711 48.3359 246.812V245.031H47.0391V253ZM58.3984 253H59.9219L56.9219 248.227L59.5156 245.031H57.8672L54.4453 249.273V242H53.1016V253H54.4453V250.758L55.9375 249.109L58.3984 253ZM68.2969 248.82C68.2969 246.68 66.6562 244.805 64.3594 244.805C62.0547 244.805 60.3047 246.688 60.3047 249.016C60.3047 251.352 62.0547 253.219 64.3594 253.219C66.1719 253.219 67.5938 252.062 68.0469 250.602H66.5391C66.1875 251.5 65.3984 251.969 64.3281 251.969C63.0156 251.969 61.8281 250.969 61.6641 249.367H68.2734C68.2891 249.078 68.2969 248.961 68.2969 248.82ZM61.7266 248.18C62.0312 246.805 63.1406 246.07 64.3359 246.07C65.6953 246.07 66.8438 247.047 66.9219 248.18H61.7266ZM74.1953 253H79.1797C80.8359 253 82.3828 251.922 82.3828 250C82.3828 248.758 81.4844 247.711 80.3594 247.383C81.1484 247.039 81.7656 246.148 81.7656 245.172C81.7656 243.508 80.5 242.375 78.7344 242.375H74.1953V253ZM75.5938 246.984V243.578H78.6797C79.6172 243.578 80.3672 244.328 80.3672 245.273C80.3672 246.234 79.6172 246.984 78.6719 246.984H75.5938ZM75.5938 251.781V248.055H79.0859C80.1406 248.055 80.9609 248.883 80.9609 249.898C80.9609 250.977 80.1328 251.781 79.0703 251.781H75.5938ZM91.625 248.82C91.625 246.68 89.9844 244.805 87.6875 244.805C85.3828 244.805 83.6328 246.688 83.6328 249.016C83.6328 251.352 85.3828 253.219 87.6875 253.219C89.5 253.219 90.9219 252.062 91.375 250.602H89.8672C89.5156 251.5 88.7266 251.969 87.6562 251.969C86.3438 251.969 85.1562 250.969 84.9922 249.367H91.6016C91.6172 249.078 91.625 248.961 91.625 248.82ZM85.0547 248.18C85.3594 246.805 86.4688 246.07 87.6641 246.07C89.0234 246.07 90.1719 247.047 90.25 248.18H85.0547ZM93.4141 253H94.7578V248.812C94.7578 247.109 95.9688 246.062 97.2969 246.062C98.6797 246.062 99.5234 246.867 99.5234 248.703V253H100.867V248.68C100.867 246.133 99.7578 244.805 97.6406 244.805C96.2891 244.805 95.1562 245.547 94.7031 246.57V245.031H93.4141V253ZM110.672 248.82C110.672 246.68 109.031 244.805 106.734 244.805C104.43 244.805 102.68 246.688 102.68 249.016C102.68 251.352 104.43 253.219 106.734 253.219C108.547 253.219 109.969 252.062 110.422 250.602H108.914C108.562 251.5 107.773 251.969 106.703 251.969C105.391 251.969 104.203 250.969 104.039 249.367H110.648C110.664 249.078 110.672 248.961 110.672 248.82ZM104.102 248.18C104.406 246.805 105.516 246.07 106.711 246.07C108.07 246.07 109.219 247.047 109.297 248.18H104.102ZM113.047 253H114.398V246.203H116.664V245.031H114.398V244.578C114.398 243.727 114.883 243.07 115.703 243.07H116.727V241.938H115.391C113.773 241.938 113.047 243.172 113.047 244.469V245.031H111.344V246.203H113.047V253ZM118.766 243.477C119.344 243.477 119.695 243.094 119.695 242.617C119.695 242.148 119.344 241.766 118.773 241.766C118.211 241.766 117.859 242.148 117.859 242.617C117.859 243.094 118.211 243.477 118.766 243.477ZM118.102 253H119.445V245.031H118.102V253ZM125.102 253H126.57V251.859H125.367C124.656 251.859 123.938 251.594 123.938 250.109V246.211H126.57V245.031H123.938V242.656L122.594 242.664V245.031H120.82V246.211H122.594V250.047C122.594 252.531 123.891 253 125.102 253ZM130.961 253.227C132.859 253.227 134.172 252.383 134.172 250.75C134.172 249.016 132.711 248.625 131.25 248.398C129.766 248.148 129.336 247.867 129.336 247.109C129.336 246.469 129.828 245.93 130.859 245.93C131.922 245.93 132.562 246.438 132.602 247.195H133.922C133.922 245.805 132.703 244.805 130.859 244.805C128.961 244.805 128.008 245.836 128.008 247.141C128.008 248.75 129.312 249.273 130.797 249.492C132.047 249.695 132.805 249.93 132.805 250.82C132.805 251.625 132.18 252.133 130.977 252.133C129.664 252.133 128.945 251.43 128.93 250.562L127.633 250.555C127.633 251.914 128.734 253.227 130.961 253.227Z" fill="white"/>
<path d="M8 273.25C3.71875 273.25 0.25 276.75 0.25 281C0.25 285.281 3.71875 288.75 8 288.75C12.25 288.75 15.75 285.281 15.75 281C15.75 276.75 12.25 273.25 8 273.25ZM8 274.75C11.4375 274.75 14.25 277.562 14.25 281C14.25 284.469 11.4375 287.25 8 287.25C4.53125 287.25 1.75 284.469 1.75 281C1.75 277.562 4.53125 274.75 8 274.75ZM12.375 278.844L11.6562 278.125C11.5312 277.969 11.2812 277.969 11.125 278.125L6.71875 282.5L4.84375 280.625C4.6875 280.469 4.46875 280.469 4.3125 280.625L3.59375 281.312C3.46875 281.469 3.46875 281.719 3.59375 281.844L6.4375 284.719C6.59375 284.875 6.8125 284.875 6.96875 284.719L12.375 279.375C12.5 279.219 12.5 278.969 12.375 278.844Z" fill="#1EDC82"/>
<path d="M23.7734 285H25.125L27.9297 276.289L30.7266 285H32.0859L35.6953 274.375H34.2344L31.5391 282.469L31.375 283.156H31.3516L31.2109 282.508L28.6562 274.375H27.1953L24.6406 282.516L24.5156 283.156H24.4844L24.3281 282.531L21.625 274.375H20.1562L23.7734 285ZM43.4219 280.82C43.4219 278.68 41.7812 276.805 39.4844 276.805C37.1797 276.805 35.4297 278.688 35.4297 281.016C35.4297 283.352 37.1797 285.219 39.4844 285.219C41.2969 285.219 42.7188 284.062 43.1719 282.602H41.6641C41.3125 283.5 40.5234 283.969 39.4531 283.969C38.1406 283.969 36.9531 282.969 36.7891 281.367H43.3984C43.4141 281.078 43.4219 280.961 43.4219 280.82ZM36.8516 280.18C37.1562 278.805 38.2656 278.07 39.4609 278.07C40.8203 278.07 41.9688 279.047 42.0469 280.18H36.8516ZM45.875 275.477C46.4531 275.477 46.8047 275.094 46.8047 274.617C46.8047 274.148 46.4531 273.766 45.8828 273.766C45.3203 273.766 44.9688 274.148 44.9688 274.617C44.9688 275.094 45.3203 275.477 45.875 275.477ZM45.2109 285H46.5547V277.031H45.2109V285ZM52.2109 285H53.6797V283.859H52.4766C51.7656 283.859 51.0469 283.594 51.0469 282.109V278.211H53.6797V277.031H51.0469V274.656L49.7031 274.664V277.031H47.9297V278.211H49.7031V282.047C49.7031 284.531 51 285 52.2109 285ZM62.4844 280.82C62.4844 278.68 60.8438 276.805 58.5469 276.805C56.2422 276.805 54.4922 278.688 54.4922 281.016C54.4922 283.352 56.2422 285.219 58.5469 285.219C60.3594 285.219 61.7812 284.062 62.2344 282.602H60.7266C60.375 283.5 59.5859 283.969 58.5156 283.969C57.2031 283.969 56.0156 282.969 55.8516 281.367H62.4609C62.4766 281.078 62.4844 280.961 62.4844 280.82ZM55.9141 280.18C56.2188 278.805 57.3281 278.07 58.5234 278.07C59.8828 278.07 61.0312 279.047 61.1094 280.18H55.9141ZM64.2734 285H65.625V281.25C65.625 279.328 66.6641 278.211 68.0625 278.211H68.7656V277.031H67.9922C66.8359 277.031 65.9609 277.711 65.5703 278.812V277.031H64.2734V285ZM77.2656 280.82C77.2656 278.68 75.625 276.805 73.3281 276.805C71.0234 276.805 69.2734 278.688 69.2734 281.016C69.2734 283.352 71.0234 285.219 73.3281 285.219C75.1406 285.219 76.5625 284.062 77.0156 282.602H75.5078C75.1562 283.5 74.3672 283.969 73.2969 283.969C71.9844 283.969 70.7969 282.969 70.6328 281.367H77.2422C77.2578 281.078 77.2656 280.961 77.2656 280.82ZM70.6953 280.18C71 278.805 72.1094 278.07 73.3047 278.07C74.6641 278.07 75.8125 279.047 75.8906 280.18H70.6953ZM79.0547 285H80.3984V280.812C80.3984 279.109 81.6094 278.062 82.9375 278.062C84.3203 278.062 85.1641 278.867 85.1641 280.703V285H86.5078V280.68C86.5078 278.133 85.3984 276.805 83.2812 276.805C81.9297 276.805 80.7969 277.547 80.3438 278.57V277.031H79.0547V285ZM91.8516 285H93.3203V283.859H92.1172C91.4062 283.859 90.6875 283.594 90.6875 282.109V278.211H93.3203V277.031H90.6875V274.656L89.3438 274.664V277.031H87.5703V278.211H89.3438V282.047C89.3438 284.531 90.6406 285 91.8516 285ZM96.4219 285H97.6562L99.6406 279.031H99.6484L101.617 285H102.883L105.625 277.031H104.203L102.352 282.672L102.141 283.266H102.117L101.938 282.695L100.18 277.031H99.1484L97.3359 282.797L97.1797 283.266H97.1641L97.0156 282.789L95.125 277.031H93.6797L96.4219 285ZM107.688 275.477C108.266 275.477 108.617 275.094 108.617 274.617C108.617 274.148 108.266 273.766 107.695 273.766C107.133 273.766 106.781 274.148 106.781 274.617C106.781 275.094 107.133 275.477 107.688 275.477ZM107.023 285H108.367V277.031H107.023V285ZM114.344 285.227C116.234 285.227 117.703 284.047 118.156 282.328H116.781C116.367 283.422 115.422 283.969 114.352 283.969C112.969 283.969 111.617 282.852 111.617 281.016C111.617 279.195 112.961 278.07 114.352 278.07C115.43 278.07 116.367 278.609 116.781 279.641H118.164C117.688 277.992 116.242 276.805 114.344 276.805C112.039 276.805 110.273 278.688 110.273 281.016C110.273 283.344 112.039 285.227 114.344 285.227ZM125.258 285H126.781L123.781 280.227L126.375 277.031H124.727L121.305 281.273V274H119.961V285H121.305V282.758L122.797 281.109L125.258 285ZM128.195 285H129.539V273.984H128.195V285ZM135.539 285.227C137.617 285.227 139.156 284.055 139.156 281.289V277.031H137.812V281.25C137.812 283.047 136.992 283.961 135.523 283.961C134.062 283.961 133.234 283.039 133.234 281.25V277.031H131.898V281.289C131.898 284.055 133.422 285.227 135.539 285.227ZM141.523 285H142.867V280.812C142.867 279.109 144.078 278.062 145.406 278.062C146.789 278.062 147.633 278.867 147.633 280.703V285H148.977V280.68C148.977 278.133 147.867 276.805 145.75 276.805C144.398 276.805 143.266 277.547 142.812 278.57V277.031H141.523V285ZM154.953 288C157.742 288 159.086 286.148 159.086 283.93V277.031H157.797V278.742C157.32 277.688 156.188 276.812 154.664 276.812C152.445 276.812 150.789 278.688 150.789 280.867C150.789 283.062 152.461 284.852 154.703 284.852C156.055 284.852 157.234 284.195 157.797 282.984V283.969C157.797 285.453 157.023 286.852 154.953 286.852C153.219 286.852 152.555 286.008 152.398 285.047H151.125C151.211 286.5 152.273 288 154.953 288ZM154.938 283.664C153.375 283.664 152.125 282.453 152.125 280.867C152.125 279.266 153.375 278.07 154.945 278.07C156.508 278.07 157.75 279.352 157.75 280.867C157.75 282.398 156.5 283.664 154.938 283.664ZM166.281 275.477C166.859 275.477 167.211 275.094 167.211 274.617C167.211 274.148 166.859 273.766 166.289 273.766C165.727 273.766 165.375 274.148 165.375 274.617C165.375 275.094 165.727 275.477 166.281 275.477ZM165.617 285H166.961V277.031H165.617V285ZM179.273 276.805C178.039 276.805 176.961 277.492 176.344 278.852C175.93 277.5 174.992 276.805 173.562 276.805C172.281 276.805 171.227 277.57 170.82 278.57L170.805 277.031H169.539V285H170.867V280.812C170.867 279.188 171.984 278.062 173.203 278.062C174.477 278.062 175.25 278.867 175.25 280.703V285H176.578V280.812C176.578 279.188 177.695 278.062 178.906 278.062C180.188 278.062 180.961 278.875 180.961 280.703V285H182.297V280.68C182.297 278.133 181.25 276.805 179.273 276.805ZM21.4453 311H22.8281V306.547H27.7656V305.367H22.8281V301.633H28.5078V300.375H21.4453V311ZM32.9453 311.227C35.3281 311.227 37.1016 309.359 37.1016 307.016C37.1016 304.68 35.3203 302.805 32.9453 302.805C30.5781 302.805 28.8047 304.688 28.8047 307.016C28.8047 309.359 30.5859 311.227 32.9453 311.227ZM32.9609 309.961C31.375 309.961 30.1484 308.711 30.1484 307.016C30.1484 305.336 31.375 304.07 32.9609 304.07C34.5391 304.07 35.7578 305.336 35.7578 307.016C35.7578 308.711 34.5391 309.961 32.9609 309.961ZM44.3047 311H45.8281L42.8281 306.227L45.4219 303.031H43.7734L40.3516 307.273V300H39.0078V311H40.3516V308.758L41.8438 307.109L44.3047 311ZM50.6641 311.227C52.7422 311.227 54.2812 310.055 54.2812 307.289V303.031H52.9375V307.25C52.9375 309.047 52.1172 309.961 50.6484 309.961C49.1875 309.961 48.3594 309.039 48.3594 307.25V303.031H47.0234V307.289C47.0234 310.055 48.5469 311.227 50.6641 311.227ZM59.3047 311.227C61.2031 311.227 62.5156 310.383 62.5156 308.75C62.5156 307.016 61.0547 306.625 59.5938 306.398C58.1094 306.148 57.6797 305.867 57.6797 305.109C57.6797 304.469 58.1719 303.93 59.2031 303.93C60.2656 303.93 60.9062 304.438 60.9453 305.195H62.2656C62.2656 303.805 61.0469 302.805 59.2031 302.805C57.3047 302.805 56.3516 303.836 56.3516 305.141C56.3516 306.75 57.6562 307.273 59.1406 307.492C60.3906 307.695 61.1484 307.93 61.1484 308.82C61.1484 309.625 60.5234 310.133 59.3203 310.133C58.0078 310.133 57.2891 309.43 57.2734 308.562L55.9766 308.555C55.9766 309.914 57.0781 311.227 59.3047 311.227Z" fill="white"/>
<path d="M8 331.25C3.71875 331.25 0.25 334.75 0.25 339C0.25 343.281 3.71875 346.75 8 346.75C12.25 346.75 15.75 343.281 15.75 339C15.75 334.75 12.25 331.25 8 331.25ZM8 332.75C11.4375 332.75 14.25 335.562 14.25 339C14.25 342.469 11.4375 345.25 8 345.25C4.53125 345.25 1.75 342.469 1.75 339C1.75 335.562 4.53125 332.75 8 332.75ZM12.375 336.844L11.6562 336.125C11.5312 335.969 11.2812 335.969 11.125 336.125L6.71875 340.5L4.84375 338.625C4.6875 338.469 4.46875 338.469 4.3125 338.625L3.59375 339.312C3.46875 339.469 3.46875 339.719 3.59375 339.844L6.4375 342.719C6.59375 342.875 6.8125 342.875 6.96875 342.719L12.375 337.375C12.5 337.219 12.5 336.969 12.375 336.844Z" fill="#1EDC82"/>
<path d="M28.9531 343H30.4219L25.9297 332.375H24.6016L20.1016 343H21.5703L22.5781 340.594H27.9453L28.9531 343ZM23.0703 339.422L25.2109 334.32L25.2578 334.141H25.2734L25.3125 334.32L27.4531 339.422H23.0703ZM35.0078 343.227C37.0859 343.227 38.625 342.055 38.625 339.289V335.031H37.2812V339.25C37.2812 341.047 36.4609 341.961 34.9922 341.961C33.5312 341.961 32.7031 341.039 32.7031 339.25V335.031H31.3672V339.289C31.3672 342.055 32.8906 343.227 35.0078 343.227ZM41.1484 343H42.5312V335.258C42.5312 334.289 43.3125 333.555 44.2188 333.555H47.1406L44.9453 337.086L44.9375 338.039H45.9141C47.0859 338.039 47.9297 338.844 47.9297 339.922C47.9297 341.047 46.9922 341.805 46.0312 341.805H43.9766V343H46.1328C47.7891 343 49.3359 341.922 49.3359 340C49.3359 338.625 48.2734 337.391 46.7656 337.281H46.2344L48.5234 333.516V332.375H44.1797C42.4141 332.375 41.1484 333.508 41.1484 335.172V343ZM58.5938 338.82C58.5938 336.68 56.9531 334.805 54.6562 334.805C52.3516 334.805 50.6016 336.688 50.6016 339.016C50.6016 341.352 52.3516 343.219 54.6562 343.219C56.4688 343.219 57.8906 342.062 58.3438 340.602H56.8359C56.4844 341.5 55.6953 341.969 54.625 341.969C53.3125 341.969 52.125 340.969 51.9609 339.367H58.5703C58.5859 339.078 58.5938 338.961 58.5938 338.82ZM52.0234 338.18C52.3281 336.805 53.4375 336.07 54.6328 336.07C55.9922 336.07 57.1406 337.047 57.2188 338.18H52.0234ZM60.3828 343H61.7344V339.25C61.7344 337.328 62.7734 336.211 64.1719 336.211H64.875V335.031H64.1016C62.9453 335.031 62.0703 335.711 61.6797 336.812V335.031H60.3828V343ZM69.5469 346C72.3359 346 73.6797 344.148 73.6797 341.93V335.031H72.3906V336.742C71.9141 335.688 70.7812 334.812 69.2578 334.812C67.0391 334.812 65.3828 336.688 65.3828 338.867C65.3828 341.062 67.0547 342.852 69.2969 342.852C70.6484 342.852 71.8281 342.195 72.3906 340.984V341.969C72.3906 343.453 71.6172 344.852 69.5469 344.852C67.8125 344.852 67.1484 344.008 66.9922 343.047H65.7188C65.8047 344.5 66.8672 346 69.5469 346ZM69.5312 341.664C67.9688 341.664 66.7188 340.453 66.7188 338.867C66.7188 337.266 67.9688 336.07 69.5391 336.07C71.1016 336.07 72.3438 337.352 72.3438 338.867C72.3438 340.398 71.0938 341.664 69.5312 341.664ZM83.5781 338.82C83.5781 336.68 81.9375 334.805 79.6406 334.805C77.3359 334.805 75.5859 336.688 75.5859 339.016C75.5859 341.352 77.3359 343.219 79.6406 343.219C81.4531 343.219 82.875 342.062 83.3281 340.602H81.8203C81.4688 341.5 80.6797 341.969 79.6094 341.969C78.2969 341.969 77.1094 340.969 76.9453 339.367H83.5547C83.5703 339.078 83.5781 338.961 83.5781 338.82ZM77.0078 338.18C77.3125 336.805 78.4219 336.07 79.6172 336.07C80.9766 336.07 82.125 337.047 82.2031 338.18H77.0078ZM86.6562 343H87.8906L89.875 337.031H89.8828L91.8516 343H93.1172L95.8594 335.031H94.4375L92.5859 340.672L92.375 341.266H92.3516L92.1719 340.695L90.4141 335.031H89.3828L87.5703 340.797L87.4141 341.266H87.3984L87.25 340.789L85.3594 335.031H83.9141L86.6562 343ZM99.0938 333.797C99.5391 333.797 99.8359 333.508 99.8359 333.148C99.8359 332.781 99.5391 332.492 99.0938 332.492C98.6641 332.492 98.3594 332.781 98.3594 333.148C98.3594 333.508 98.6641 333.797 99.0938 333.797ZM101.727 333.797C102.172 333.797 102.469 333.508 102.469 333.148C102.469 332.781 102.172 332.492 101.727 332.492C101.297 332.492 101 332.781 101 333.148C101 333.508 101.289 333.797 101.727 333.797ZM100.461 343.227C102.844 343.227 104.617 341.359 104.617 339.016C104.617 336.68 102.836 334.805 100.461 334.805C98.0938 334.805 96.3203 336.688 96.3203 339.016C96.3203 341.359 98.1016 343.227 100.461 343.227ZM100.477 341.961C98.8906 341.961 97.6641 340.711 97.6641 339.016C97.6641 337.336 98.8906 336.07 100.477 336.07C102.055 336.07 103.273 337.336 103.273 339.016C103.273 340.711 102.055 341.961 100.477 341.961ZM106.523 343H107.867V338.812C107.867 337.188 109.078 336.062 110.406 336.062C111.789 336.062 112.633 336.867 112.633 338.703V343H113.977V338.68C113.977 336.133 112.867 334.805 110.75 334.805C109.398 334.805 108.32 335.516 107.844 336.547L107.867 335.695V332H106.523V343ZM116.461 343H117.805V338.812C117.805 337.109 119.016 336.062 120.344 336.062C121.727 336.062 122.57 336.867 122.57 338.703V343H123.914V338.68C123.914 336.133 122.805 334.805 120.688 334.805C119.336 334.805 118.203 335.547 117.75 336.57V335.031H116.461V343ZM126.398 343H127.742V331.984H126.398V343ZM130.984 333.477C131.562 333.477 131.914 333.094 131.914 332.617C131.914 332.148 131.562 331.766 130.992 331.766C130.43 331.766 130.078 332.148 130.078 332.617C130.078 333.094 130.43 333.477 130.984 333.477ZM130.32 343H131.664V335.031H130.32V343ZM137.641 343.227C139.531 343.227 141 342.047 141.453 340.328H140.078C139.664 341.422 138.719 341.969 137.648 341.969C136.266 341.969 134.914 340.852 134.914 339.016C134.914 337.195 136.258 336.07 137.648 336.07C138.727 336.07 139.664 336.609 140.078 337.641H141.461C140.984 335.992 139.539 334.805 137.641 334.805C135.336 334.805 133.57 336.688 133.57 339.016C133.57 341.344 135.336 343.227 137.641 343.227ZM143.258 343H144.602V338.812C144.602 337.188 145.812 336.062 147.141 336.062C148.523 336.062 149.367 336.867 149.367 338.703V343H150.711V338.68C150.711 336.133 149.602 334.805 147.484 334.805C146.133 334.805 145.055 335.516 144.578 336.547L144.602 335.695V332H143.258V343ZM160.516 338.82C160.516 336.68 158.875 334.805 156.578 334.805C154.273 334.805 152.523 336.688 152.523 339.016C152.523 341.352 154.273 343.219 156.578 343.219C158.391 343.219 159.812 342.062 160.266 340.602H158.758C158.406 341.5 157.617 341.969 156.547 341.969C155.234 341.969 154.047 340.969 153.883 339.367H160.492C160.508 339.078 160.516 338.961 160.516 338.82ZM153.945 338.18C154.25 336.805 155.359 336.07 156.555 336.07C157.914 336.07 159.062 337.047 159.141 338.18H153.945ZM23.7422 369H25.125V359.617H28.4922V358.375H20.3828V359.617H23.7422V369ZM36.0312 364.82C36.0312 362.68 34.3906 360.805 32.0938 360.805C29.7891 360.805 28.0391 362.688 28.0391 365.016C28.0391 367.352 29.7891 369.219 32.0938 369.219C33.9062 369.219 35.3281 368.062 35.7812 366.602H34.2734C33.9219 367.5 33.1328 367.969 32.0625 367.969C30.75 367.969 29.5625 366.969 29.3984 365.367H36.0078C36.0234 365.078 36.0312 364.961 36.0312 364.82ZM29.4609 364.18C29.7656 362.805 30.875 362.07 32.0703 362.07C33.4297 362.07 34.5781 363.047 34.6562 364.18H29.4609ZM41 369.227C42.4219 369.227 43.6172 368.484 44.1562 367.305V369H45.4453V361.031H44.1562V362.742C43.6172 361.555 42.4297 360.812 40.9922 360.812C38.8281 360.812 37.1484 362.688 37.1484 365.016C37.1484 367.359 38.8203 369.227 41 369.227ZM41.2969 367.969C39.7656 367.969 38.4844 366.781 38.4844 365.016C38.4844 363.297 39.75 362.07 41.3047 362.07C42.8516 362.07 44.1094 363.367 44.1094 365.016C44.1094 366.688 42.8594 367.969 41.2969 367.969ZM57.7578 360.805C56.5234 360.805 55.4453 361.492 54.8281 362.852C54.4141 361.5 53.4766 360.805 52.0469 360.805C50.7656 360.805 49.7109 361.57 49.3047 362.57L49.2891 361.031H48.0234V369H49.3516V364.812C49.3516 363.188 50.4688 362.062 51.6875 362.062C52.9609 362.062 53.7344 362.867 53.7344 364.703V369H55.0625V364.812C55.0625 363.188 56.1797 362.062 57.3906 362.062C58.6719 362.062 59.4453 362.875 59.4453 364.703V369H60.7812V364.68C60.7812 362.133 59.7344 360.805 57.7578 360.805ZM68.5703 369H70.0938L67.0938 364.227L69.6875 361.031H68.0391L64.6172 365.273V358H63.2734V369H64.6172V366.758L66.1094 365.109L68.5703 369ZM74.9297 369.227C77.0078 369.227 78.5469 368.055 78.5469 365.289V361.031H77.2031V365.25C77.2031 367.047 76.3828 367.961 74.9141 367.961C73.4531 367.961 72.625 367.039 72.625 365.25V361.031H71.2891V365.289C71.2891 368.055 72.8125 369.227 74.9297 369.227ZM80.9141 369H82.2578V357.984H80.9141V369ZM87.9141 369H89.3828V367.859H88.1797C87.4688 367.859 86.75 367.594 86.75 366.109V362.211H89.3828V361.031H86.75V358.656L85.4062 358.664V361.031H83.6328V362.211H85.4062V366.047C85.4062 368.531 86.7031 369 87.9141 369ZM94.4766 369.227C96.5547 369.227 98.0938 368.055 98.0938 365.289V361.031H96.75V365.25C96.75 367.047 95.9297 367.961 94.4609 367.961C93 367.961 92.1719 367.039 92.1719 365.25V361.031H90.8359V365.289C90.8359 368.055 92.3594 369.227 94.4766 369.227ZM100.461 369H101.812V365.25C101.812 363.328 102.852 362.211 104.25 362.211H104.953V361.031H104.18C103.023 361.031 102.148 361.711 101.758 362.812V361.031H100.461V369Z" fill="white"/>
</svg>
