<svg width="344" height="354" viewBox="0 0 344 354" fill="none" xmlns="http://www.w3.org/2000/svg">
<path d="M10 136.812C4.64844 136.812 0.3125 141.188 0.3125 146.5C0.3125 151.852 4.64844 156.188 10 156.188C15.3125 156.188 19.6875 151.852 19.6875 146.5C19.6875 141.188 15.3125 136.812 10 136.812ZM10 138.688C14.2969 138.688 17.8125 142.203 17.8125 146.5C17.8125 150.836 14.2969 154.312 10 154.312C5.66406 154.312 2.1875 150.836 2.1875 146.5C2.1875 142.203 5.66406 138.688 10 138.688ZM15.4688 143.805L14.5703 142.906C14.4141 142.711 14.1016 142.711 13.9062 142.906L8.39844 148.375L6.05469 146.031C5.85938 145.836 5.58594 145.836 5.39062 146.031L4.49219 146.891C4.33594 147.086 4.33594 147.398 4.49219 147.555L8.04688 151.148C8.24219 151.344 8.51562 151.344 8.71094 151.148L15.4688 144.469C15.625 144.273 15.625 143.961 15.4688 143.805ZM10 182.812C4.64844 182.812 0.3125 187.188 0.3125 192.5C0.3125 197.852 4.64844 202.188 10 202.188C15.3125 202.188 19.6875 197.852 19.6875 192.5C19.6875 187.188 15.3125 182.812 10 182.812ZM10 184.688C14.2969 184.688 17.8125 188.203 17.8125 192.5C17.8125 196.836 14.2969 200.312 10 200.312C5.66406 200.312 2.1875 196.836 2.1875 192.5C2.1875 188.203 5.66406 184.688 10 184.688ZM15.4688 189.805L14.5703 188.906C14.4141 188.711 14.1016 188.711 13.9062 188.906L8.39844 194.375L6.05469 192.031C5.85938 191.836 5.58594 191.836 5.39062 192.031L4.49219 192.891C4.33594 193.086 4.33594 193.398 4.49219 193.555L8.04688 197.148C8.24219 197.344 8.51562 197.344 8.71094 197.148L15.4688 190.469C15.625 190.273 15.625 189.961 15.4688 189.805ZM10 228.812C4.64844 228.812 0.3125 233.188 0.3125 238.5C0.3125 243.852 4.64844 248.188 10 248.188C15.3125 248.188 19.6875 243.852 19.6875 238.5C19.6875 233.188 15.3125 228.812 10 228.812ZM10 230.688C14.2969 230.688 17.8125 234.203 17.8125 238.5C17.8125 242.836 14.2969 246.312 10 246.312C5.66406 246.312 2.1875 242.836 2.1875 238.5C2.1875 234.203 5.66406 230.688 10 230.688ZM15.4688 235.805L14.5703 234.906C14.4141 234.711 14.1016 234.711 13.9062 234.906L8.39844 240.375L6.05469 238.031C5.85938 237.836 5.58594 237.836 5.39062 238.031L4.49219 238.891C4.33594 239.086 4.33594 239.398 4.49219 239.555L8.04688 243.148C8.24219 243.344 8.51562 243.344 8.71094 243.148L15.4688 236.469C15.625 236.273 15.625 235.961 15.4688 235.805ZM10 274.812C4.64844 274.812 0.3125 279.188 0.3125 284.5C0.3125 289.852 4.64844 294.188 10 294.188C15.3125 294.188 19.6875 289.852 19.6875 284.5C19.6875 279.188 15.3125 274.812 10 274.812ZM10 276.688C14.2969 276.688 17.8125 280.203 17.8125 284.5C17.8125 288.836 14.2969 292.312 10 292.312C5.66406 292.312 2.1875 288.836 2.1875 284.5C2.1875 280.203 5.66406 276.688 10 276.688ZM15.4688 281.805L14.5703 280.906C14.4141 280.711 14.1016 280.711 13.9062 280.906L8.39844 286.375L6.05469 284.031C5.85938 283.836 5.58594 283.836 5.39062 284.031L4.49219 284.891C4.33594 285.086 4.33594 285.398 4.49219 285.555L8.04688 289.148C8.24219 289.344 8.51562 289.344 8.71094 289.148L15.4688 282.469C15.625 282.273 15.625 281.961 15.4688 281.805ZM10 320.812C4.64844 320.812 0.3125 325.188 0.3125 330.5C0.3125 335.852 4.64844 340.188 10 340.188C15.3125 340.188 19.6875 335.852 19.6875 330.5C19.6875 325.188 15.3125 320.812 10 320.812ZM10 322.688C14.2969 322.688 17.8125 326.203 17.8125 330.5C17.8125 334.836 14.2969 338.312 10 338.312C5.66406 338.312 2.1875 334.836 2.1875 330.5C2.1875 326.203 5.66406 322.688 10 322.688ZM15.4688 327.805L14.5703 326.906C14.4141 326.711 14.1016 326.711 13.9062 326.906L8.39844 332.375L6.05469 330.031C5.85938 329.836 5.58594 329.836 5.39062 330.031L4.49219 330.891C4.33594 331.086 4.33594 331.398 4.49219 331.555L8.04688 335.148C8.24219 335.344 8.51562 335.344 8.71094 335.148L15.4688 328.469C15.625 328.273 15.625 327.961 15.4688 327.805Z" fill="#1EDC82"/>
<path d="M39.0039 154H40.8398L35.2246 140.719H33.5645L27.9395 154H29.7754L31.0352 150.992H37.7441L39.0039 154ZM31.6504 149.527L34.3262 143.15L34.3848 142.926H34.4043L34.4531 143.15L37.1289 149.527H31.6504ZM42.5879 154H44.2773V149.312C44.2773 146.91 45.5762 145.514 47.3242 145.514H48.2031V144.039H47.2363C45.791 144.039 44.6973 144.889 44.209 146.266V144.039H42.5879V154ZM55.6348 154.283C58.418 154.283 60.5273 151.949 60.5273 149.02C60.5273 146.109 58.4277 143.766 55.6152 143.766C53.8867 143.766 52.4707 144.791 51.8164 146.139L51.8457 144.771V140.25H50.166V154H51.7773V151.881C52.4902 153.365 53.9941 154.283 55.6348 154.283ZM55.3418 152.721C53.4277 152.721 51.8359 151.139 51.8359 149.02C51.8359 146.959 53.3984 145.328 55.3418 145.328C57.2852 145.328 58.8574 146.871 58.8574 149.02C58.8574 151.217 57.2559 152.721 55.3418 152.721ZM72.3047 148.775C72.3047 146.1 70.2539 143.756 67.3828 143.756C64.502 143.756 62.3145 146.109 62.3145 149.02C62.3145 151.939 64.502 154.273 67.3828 154.273C69.6484 154.273 71.4258 152.828 71.9922 151.002H70.1074C69.668 152.125 68.6816 152.711 67.3438 152.711C65.7031 152.711 64.2188 151.461 64.0137 149.459H72.2754C72.2949 149.098 72.3047 148.951 72.3047 148.775ZM64.0918 147.975C64.4727 146.256 65.8594 145.338 67.3535 145.338C69.0527 145.338 70.4883 146.559 70.5859 147.975H64.0918ZM75.3711 142.096C76.0938 142.096 76.5332 141.617 76.5332 141.021C76.5332 140.436 76.0938 139.957 75.3809 139.957C74.6777 139.957 74.2383 140.436 74.2383 141.021C74.2383 141.617 74.6777 142.096 75.3711 142.096ZM74.541 154H76.2207V144.039H74.541V154ZM83.291 154H85.127V152.574H83.623C82.7344 152.574 81.8359 152.242 81.8359 150.387V145.514H85.127V144.039H81.8359V141.07L80.1562 141.08V144.039H77.9395V145.514H80.1562V150.309C80.1562 153.414 81.7773 154 83.291 154ZM90.6152 154.283C92.9883 154.283 94.6289 153.229 94.6289 151.188C94.6289 149.02 92.8027 148.531 90.9766 148.248C89.1211 147.936 88.584 147.584 88.584 146.637C88.584 145.836 89.1992 145.162 90.4883 145.162C91.8164 145.162 92.6172 145.797 92.666 146.744H94.3164C94.3164 145.006 92.793 143.756 90.4883 143.756C88.1152 143.756 86.9238 145.045 86.9238 146.676C86.9238 148.688 88.5547 149.342 90.4102 149.615C91.9727 149.869 92.9199 150.162 92.9199 151.275C92.9199 152.281 92.1387 152.916 90.6348 152.916C88.9941 152.916 88.0957 152.037 88.0762 150.953L86.4551 150.943C86.4551 152.643 87.832 154.283 90.6152 154.283ZM101.26 154.283C104.238 154.283 106.455 151.949 106.455 149.02C106.455 146.1 104.229 143.756 101.26 143.756C98.3008 143.756 96.084 146.109 96.084 149.02C96.084 151.949 98.3105 154.283 101.26 154.283ZM101.279 152.701C99.2969 152.701 97.7637 151.139 97.7637 149.02C97.7637 146.92 99.2969 145.338 101.279 145.338C103.252 145.338 104.775 146.92 104.775 149.02C104.775 151.139 103.252 152.701 101.279 152.701ZM108.838 154H110.527V149.312C110.527 146.91 111.826 145.514 113.574 145.514H114.453V144.039H113.486C112.041 144.039 110.947 144.889 110.459 146.266V144.039H108.838V154ZM120.615 154H122.451V152.574H120.947C120.059 152.574 119.16 152.242 119.16 150.387V145.514H122.451V144.039H119.16V141.07L117.48 141.08V144.039H115.264V145.514H117.48V150.309C117.48 153.414 119.102 154 120.615 154ZM133.838 154.283C136.436 154.283 138.359 152.818 138.359 149.361V144.039H136.68V149.312C136.68 151.559 135.654 152.701 133.818 152.701C131.992 152.701 130.957 151.549 130.957 149.312V144.039H129.287V149.361C129.287 152.818 131.191 154.283 133.838 154.283ZM141.318 154H142.998V148.766C142.998 146.637 144.512 145.328 146.172 145.328C147.9 145.328 148.955 146.334 148.955 148.629V154H150.635V148.6C150.635 145.416 149.248 143.756 146.602 143.756C144.912 143.756 143.496 144.684 142.93 145.963V144.039H141.318V154ZM157.803 154.283C159.609 154.283 161.016 153.229 161.65 151.881V154H163.262V140.25H161.582V145.172L161.621 146.139C161.045 144.938 159.678 143.756 157.812 143.756C154.951 143.756 152.9 146.109 152.9 149.02C152.9 151.949 154.99 154.283 157.803 154.283ZM158.076 152.721C156.074 152.721 154.57 151.109 154.57 149.02C154.57 146.91 156.113 145.328 158.076 145.328C160.039 145.328 161.602 146.949 161.602 149.02C161.602 151.109 160.029 152.721 158.076 152.721ZM170.977 149.381H177.295V147.975H170.977V149.381ZM179.141 154H187.422V152.564H181.445L187.188 145.143V144.039H179.424V145.475H184.912L179.141 152.916V154ZM198.438 148.775C198.438 146.1 196.387 143.756 193.516 143.756C190.635 143.756 188.447 146.109 188.447 149.02C188.447 151.939 190.635 154.273 193.516 154.273C195.781 154.273 197.559 152.828 198.125 151.002H196.24C195.801 152.125 194.814 152.711 193.477 152.711C191.836 152.711 190.352 151.461 190.146 149.459H198.408C198.428 149.098 198.438 148.951 198.438 148.775ZM190.225 147.975C190.605 146.256 191.992 145.338 193.486 145.338C195.186 145.338 196.621 146.559 196.719 147.975H190.225ZM201.504 142.096C202.227 142.096 202.666 141.617 202.666 141.021C202.666 140.436 202.227 139.957 201.514 139.957C200.811 139.957 200.371 140.436 200.371 141.021C200.371 141.617 200.811 142.096 201.504 142.096ZM200.674 154H202.354V144.039H200.674V154ZM209.424 154H211.26V152.574H209.756C208.867 152.574 207.969 152.242 207.969 150.387V145.514H211.26V144.039H207.969V141.07L206.289 141.08V144.039H204.072V145.514H206.289V150.309C206.289 153.414 207.91 154 209.424 154ZM219.102 154H220.791V145.504H223.623V144.039H220.791V143.473C220.791 142.408 221.396 141.588 222.422 141.588H223.701V140.172H222.031C220.01 140.172 219.102 141.715 219.102 143.336V144.039H216.973V145.504H219.102V154ZM225.42 154H227.1V140.23H225.42V154ZM239.473 148.775C239.473 146.1 237.422 143.756 234.551 143.756C231.67 143.756 229.482 146.109 229.482 149.02C229.482 151.939 231.67 154.273 234.551 154.273C236.816 154.273 238.594 152.828 239.16 151.002H237.275C236.836 152.125 235.85 152.711 234.512 152.711C232.871 152.711 231.387 151.461 231.182 149.459H239.443C239.463 149.098 239.473 148.951 239.473 148.775ZM231.26 147.975C231.641 146.256 233.027 145.338 234.521 145.338C236.221 145.338 237.656 146.559 237.754 147.975H231.26ZM240.029 154H242.002L244.639 150.113L247.266 154H249.287L245.82 148.922L249.189 144.039H247.207L244.658 147.789H244.648L242.109 144.039H240.117L243.486 148.922L240.029 154ZM252.109 142.096C252.832 142.096 253.271 141.617 253.271 141.021C253.271 140.436 252.832 139.957 252.119 139.957C251.416 139.957 250.977 140.436 250.977 141.021C250.977 141.617 251.416 142.096 252.109 142.096ZM251.279 154H252.959V144.039H251.279V154ZM261.65 154.283C264.434 154.283 266.543 151.949 266.543 149.02C266.543 146.109 264.443 143.766 261.631 143.766C259.902 143.766 258.486 144.791 257.832 146.139L257.861 144.771V140.25H256.182V154H257.793V151.881C258.506 153.365 260.01 154.283 261.65 154.283ZM261.357 152.721C259.443 152.721 257.852 151.139 257.852 149.02C257.852 146.959 259.414 145.328 261.357 145.328C263.301 145.328 264.873 146.871 264.873 149.02C264.873 151.217 263.271 152.721 261.357 152.721ZM278.32 148.775C278.32 146.1 276.27 143.756 273.398 143.756C270.518 143.756 268.33 146.109 268.33 149.02C268.33 151.939 270.518 154.273 273.398 154.273C275.664 154.273 277.441 152.828 278.008 151.002H276.123C275.684 152.125 274.697 152.711 273.359 152.711C271.719 152.711 270.234 151.461 270.029 149.459H278.291C278.311 149.098 278.32 148.951 278.32 148.775ZM270.107 147.975C270.488 146.256 271.875 145.338 273.369 145.338C275.068 145.338 276.504 146.559 276.602 147.975H270.107ZM280.557 154H282.236V140.23H280.557V154ZM39.0039 200H40.8398L35.2246 186.719H33.5645L27.9395 200H29.7754L31.0352 196.992H37.7441L39.0039 200ZM31.6504 195.527L34.3262 189.15L34.3848 188.926H34.4043L34.4531 189.15L37.1289 195.527H31.6504ZM45.6934 200H47.5293V198.574H46.0254C45.1367 198.574 44.2383 198.242 44.2383 196.387V191.514H47.5293V190.039H44.2383V187.07L42.5586 187.08V190.039H40.3418V191.514H42.5586V196.309C42.5586 199.414 44.1797 200 45.6934 200ZM53.5449 200H55.3809V198.574H53.877C52.9883 198.574 52.0898 198.242 52.0898 196.387V191.514H55.3809V190.039H52.0898V187.07L50.4102 187.08V190.039H48.1934V191.514H50.4102V196.309C50.4102 199.414 52.0312 200 53.5449 200ZM57.5488 200H59.2383V195.312C59.2383 192.91 60.5371 191.514 62.2852 191.514H63.1641V190.039H62.1973C60.752 190.039 59.6582 190.889 59.1699 192.266V190.039H57.5488V200ZM68.6133 200.283C70.3906 200.283 71.8848 199.355 72.5586 197.881V200H74.1699V190.039H72.5586V192.178C71.8848 190.693 70.4004 189.766 68.6035 189.766C65.8984 189.766 63.7988 192.109 63.7988 195.02C63.7988 197.949 65.8887 200.283 68.6133 200.283ZM68.9844 198.711C67.0703 198.711 65.4688 197.227 65.4688 195.02C65.4688 192.871 67.0508 191.338 68.9941 191.338C70.9277 191.338 72.5 192.959 72.5 195.02C72.5 197.109 70.9375 198.711 68.9844 198.711ZM84.0137 200H85.918L82.168 194.033L85.4102 190.039H83.3496L79.0723 195.342V186.25H77.3926V200H79.0723V197.197L80.9375 195.137L84.0137 200ZM91.5332 200H93.3691V198.574H91.8652C90.9766 198.574 90.0781 198.242 90.0781 196.387V191.514H93.3691V190.039H90.0781V187.07L88.3984 187.08V190.039H86.1816V191.514H88.3984V196.309C88.3984 199.414 90.0195 200 91.5332 200ZM96.3672 188.096C97.0898 188.096 97.5293 187.617 97.5293 187.021C97.5293 186.436 97.0898 185.957 96.377 185.957C95.6738 185.957 95.2344 186.436 95.2344 187.021C95.2344 187.617 95.6738 188.096 96.3672 188.096ZM95.5371 200H97.2168V190.039H95.5371V200ZM102.998 200H104.59L108.643 190.039H106.846L104.033 197.07L103.799 197.959L103.555 197.07L100.742 190.039H98.9551L102.998 200ZM119.199 194.775C119.199 192.1 117.148 189.756 114.277 189.756C111.396 189.756 109.209 192.109 109.209 195.02C109.209 197.939 111.396 200.273 114.277 200.273C116.543 200.273 118.32 198.828 118.887 197.002H117.002C116.562 198.125 115.576 198.711 114.238 198.711C112.598 198.711 111.113 197.461 110.908 195.459H119.17C119.189 195.098 119.199 194.951 119.199 194.775ZM110.986 193.975C111.367 192.256 112.754 191.338 114.248 191.338C115.947 191.338 117.383 192.559 117.48 193.975H110.986ZM124.756 200.283C127.129 200.283 128.77 199.229 128.77 197.188C128.77 195.02 126.943 194.531 125.117 194.248C123.262 193.936 122.725 193.584 122.725 192.637C122.725 191.836 123.34 191.162 124.629 191.162C125.957 191.162 126.758 191.797 126.807 192.744H128.457C128.457 191.006 126.934 189.756 124.629 189.756C122.256 189.756 121.064 191.045 121.064 192.676C121.064 194.688 122.695 195.342 124.551 195.615C126.113 195.869 127.061 196.162 127.061 197.275C127.061 198.281 126.279 198.916 124.775 198.916C123.135 198.916 122.236 198.037 122.217 196.953L120.596 196.943C120.596 198.643 121.973 200.283 124.756 200.283ZM142.168 200.254C146.484 200.254 148.945 197.031 148.936 193.008H142.07V194.57H147.139C146.777 196.846 145.137 198.662 142.129 198.662C139.238 198.662 136.924 196.484 136.924 193.35C136.924 190.244 139.238 188.018 142.129 188.018C144.268 188.018 146.006 189.092 146.748 190.908H148.506C147.793 188.066 144.99 186.426 142.168 186.426C138.281 186.426 135.195 189.482 135.195 193.35C135.195 197.188 138.281 200.254 142.168 200.254ZM160.508 194.775C160.508 192.1 158.457 189.756 155.586 189.756C152.705 189.756 150.518 192.109 150.518 195.02C150.518 197.939 152.705 200.273 155.586 200.273C157.852 200.273 159.629 198.828 160.195 197.002H158.311C157.871 198.125 156.885 198.711 155.547 198.711C153.906 198.711 152.422 197.461 152.217 195.459H160.479C160.498 195.098 160.508 194.951 160.508 194.775ZM152.295 193.975C152.676 192.256 154.062 191.338 155.557 191.338C157.256 191.338 158.691 192.559 158.789 193.975H152.295ZM162.744 200H164.424V194.766C164.424 192.734 165.938 191.328 167.598 191.328C169.326 191.328 170.381 192.334 170.381 194.629V200H172.061V194.6C172.061 191.416 170.674 189.756 168.027 189.756C166.338 189.756 164.99 190.645 164.395 191.934L164.424 190.869V186.25H162.744V200ZM179.141 200.283C180.918 200.283 182.412 199.355 183.086 197.881V200H184.697V190.039H183.086V192.178C182.412 190.693 180.928 189.766 179.131 189.766C176.426 189.766 174.326 192.109 174.326 195.02C174.326 197.949 176.416 200.283 179.141 200.283ZM179.512 198.711C177.598 198.711 175.996 197.227 175.996 195.02C175.996 192.871 177.578 191.338 179.521 191.338C181.455 191.338 183.027 192.959 183.027 195.02C183.027 197.109 181.465 198.711 179.512 198.711ZM187.92 200H189.6V186.23H187.92V200ZM196.67 200H198.506V198.574H197.002C196.113 198.574 195.215 198.242 195.215 196.387V191.514H198.506V190.039H195.215V187.07L193.535 187.08V190.039H191.318V191.514H193.535V196.309C193.535 199.414 195.156 200 196.67 200ZM33.7598 246.283C37.0215 246.283 39.0137 244.818 39.0137 242.328C39.0137 239.604 36.543 238.793 34.3359 238.441C31.9531 238.119 30.6152 237.523 30.6152 236.127C30.6152 235.033 31.2793 233.949 33.6816 233.949C35.6738 233.949 36.748 234.887 36.748 236.205H38.4863C38.4863 233.988 36.8262 232.426 33.7012 232.426C30.2441 232.426 28.8867 234.135 28.8867 236.117C28.8867 238.803 31.582 239.535 33.7988 239.906C35.7812 240.209 37.2656 240.766 37.2656 242.328C37.2656 243.969 36.0156 244.799 33.75 244.799C31.5625 244.799 30.2734 243.549 30.2734 242.152H28.5449C28.5449 244.164 30.1562 246.283 33.7598 246.283ZM45.166 246H47.002V244.574H45.498C44.6094 244.574 43.7109 244.242 43.7109 242.387V237.514H47.002V236.039H43.7109V233.07L42.0312 233.08V236.039H39.8145V237.514H42.0312V242.309C42.0312 245.414 43.6523 246 45.166 246ZM52.832 246.283C54.6094 246.283 56.1035 245.355 56.7773 243.881V246H58.3887V236.039H56.7773V238.178C56.1035 236.693 54.6191 235.766 52.8223 235.766C50.1172 235.766 48.0176 238.109 48.0176 241.02C48.0176 243.949 50.1074 246.283 52.832 246.283ZM53.2031 244.711C51.2891 244.711 49.6875 243.227 49.6875 241.02C49.6875 238.871 51.2695 237.338 53.2129 237.338C55.1465 237.338 56.7188 238.959 56.7188 241.02C56.7188 243.109 55.1562 244.711 53.2031 244.711ZM61.6113 246H63.3008V241.312C63.3008 238.91 64.5996 237.514 66.3477 237.514H67.2266V236.039H66.2598C64.8145 236.039 63.7207 236.889 63.2324 238.266V236.039H61.6113V246ZM75.8105 246H77.7148L73.9648 240.033L77.207 236.039H75.1465L70.8691 241.342V232.25H69.1895V246H70.8691V243.197L72.7344 241.137L75.8105 246ZM88.1836 240.775C88.1836 238.1 86.1328 235.756 83.2617 235.756C80.3809 235.756 78.1934 238.109 78.1934 241.02C78.1934 243.939 80.3809 246.273 83.2617 246.273C85.5273 246.273 87.3047 244.828 87.8711 243.002H85.9863C85.5469 244.125 84.5605 244.711 83.2227 244.711C81.582 244.711 80.0977 243.461 79.8926 241.459H88.1543C88.1738 241.098 88.1836 240.951 88.1836 240.775ZM79.9707 239.975C80.3516 238.256 81.7383 237.338 83.2324 237.338C84.9316 237.338 86.3672 238.559 86.4648 239.975H79.9707ZM95.5566 246H101.787C103.857 246 105.791 244.652 105.791 242.25C105.791 240.697 104.668 239.389 103.262 238.979C104.248 238.549 105.02 237.436 105.02 236.215C105.02 234.135 103.438 232.719 101.23 232.719H95.5566V246ZM97.3047 238.48V234.223H101.162C102.334 234.223 103.271 235.16 103.271 236.342C103.271 237.543 102.334 238.48 101.152 238.48H97.3047ZM97.3047 244.477V239.818H101.67C102.988 239.818 104.014 240.854 104.014 242.123C104.014 243.471 102.979 244.477 101.65 244.477H97.3047ZM117.344 240.775C117.344 238.1 115.293 235.756 112.422 235.756C109.541 235.756 107.354 238.109 107.354 241.02C107.354 243.939 109.541 246.273 112.422 246.273C114.688 246.273 116.465 244.828 117.031 243.002H115.146C114.707 244.125 113.721 244.711 112.383 244.711C110.742 244.711 109.258 243.461 109.053 241.459H117.314C117.334 241.098 117.344 240.951 117.344 240.775ZM109.131 239.975C109.512 238.256 110.898 237.338 112.393 237.338C114.092 237.338 115.527 238.559 115.625 239.975H109.131ZM119.58 246H121.26V240.766C121.26 238.637 122.773 237.328 124.434 237.328C126.162 237.328 127.217 238.334 127.217 240.629V246H128.896V240.6C128.896 237.416 127.51 235.756 124.863 235.756C123.174 235.756 121.758 236.684 121.191 237.963V236.039H119.58V246ZM141.152 240.775C141.152 238.1 139.102 235.756 136.23 235.756C133.35 235.756 131.162 238.109 131.162 241.02C131.162 243.939 133.35 246.273 136.23 246.273C138.496 246.273 140.273 244.828 140.84 243.002H138.955C138.516 244.125 137.529 244.711 136.191 244.711C134.551 244.711 133.066 243.461 132.861 241.459H141.123C141.143 241.098 141.152 240.951 141.152 240.775ZM132.939 239.975C133.32 238.256 134.707 237.338 136.201 237.338C137.9 237.338 139.336 238.559 139.434 239.975H132.939ZM144.121 246H145.811V237.504H148.643V236.039H145.811V235.473C145.811 234.408 146.416 233.588 147.441 233.588H148.721V232.172H147.051C145.029 232.172 144.121 233.715 144.121 235.336V236.039H141.992V237.504H144.121V246ZM151.27 234.096C151.992 234.096 152.432 233.617 152.432 233.021C152.432 232.436 151.992 231.957 151.279 231.957C150.576 231.957 150.137 232.436 150.137 233.021C150.137 233.617 150.576 234.096 151.27 234.096ZM150.439 246H152.119V236.039H150.439V246ZM159.189 246H161.025V244.574H159.521C158.633 244.574 157.734 244.242 157.734 242.387V237.514H161.025V236.039H157.734V233.07L156.055 233.08V236.039H153.838V237.514H156.055V242.309C156.055 245.414 157.676 246 159.189 246ZM166.514 246.283C168.887 246.283 170.527 245.229 170.527 243.188C170.527 241.02 168.701 240.531 166.875 240.248C165.02 239.936 164.482 239.584 164.482 238.637C164.482 237.836 165.098 237.162 166.387 237.162C167.715 237.162 168.516 237.797 168.564 238.744H170.215C170.215 237.006 168.691 235.756 166.387 235.756C164.014 235.756 162.822 237.045 162.822 238.676C162.822 240.688 164.453 241.342 166.309 241.615C167.871 241.869 168.818 242.162 168.818 243.275C168.818 244.281 168.037 244.916 166.533 244.916C164.893 244.916 163.994 244.037 163.975 242.953L162.354 242.943C162.354 244.643 163.73 246.283 166.514 246.283ZM32.5293 292H34.2188L37.7246 281.111L41.2207 292H42.9199L47.4316 278.719H45.6055L42.2363 288.836L42.0312 289.695H42.002L41.8262 288.885L38.6328 278.719H36.8066L33.6133 288.895L33.457 289.695H33.418L33.2227 288.914L29.8438 278.719H28.0078L32.5293 292ZM57.0898 286.775C57.0898 284.1 55.0391 281.756 52.168 281.756C49.2871 281.756 47.0996 284.109 47.0996 287.02C47.0996 289.939 49.2871 292.273 52.168 292.273C54.4336 292.273 56.2109 290.828 56.7773 289.002H54.8926C54.4531 290.125 53.4668 290.711 52.1289 290.711C50.4883 290.711 49.0039 289.461 48.7988 287.459H57.0605C57.0801 287.098 57.0898 286.951 57.0898 286.775ZM48.877 285.975C49.2578 284.256 50.6445 283.338 52.1387 283.338C53.8379 283.338 55.2734 284.559 55.3711 285.975H48.877ZM60.1562 280.096C60.8789 280.096 61.3184 279.617 61.3184 279.021C61.3184 278.436 60.8789 277.957 60.166 277.957C59.4629 277.957 59.0234 278.436 59.0234 279.021C59.0234 279.617 59.4629 280.096 60.1562 280.096ZM59.3262 292H61.0059V282.039H59.3262V292ZM68.0762 292H69.9121V290.574H68.4082C67.5195 290.574 66.6211 290.242 66.6211 288.387V283.514H69.9121V282.039H66.6211V279.07L64.9414 279.08V282.039H62.7246V283.514H64.9414V288.309C64.9414 291.414 66.5625 292 68.0762 292ZM80.918 286.775C80.918 284.1 78.8672 281.756 75.9961 281.756C73.1152 281.756 70.9277 284.109 70.9277 287.02C70.9277 289.939 73.1152 292.273 75.9961 292.273C78.2617 292.273 80.0391 290.828 80.6055 289.002H78.7207C78.2812 290.125 77.2949 290.711 75.957 290.711C74.3164 290.711 72.832 289.461 72.627 287.459H80.8887C80.9082 287.098 80.918 286.951 80.918 286.775ZM72.7051 285.975C73.0859 284.256 74.4727 283.338 75.9668 283.338C77.666 283.338 79.1016 284.559 79.1992 285.975H72.7051ZM83.1543 292H84.8438V287.312C84.8438 284.91 86.1426 283.514 87.8906 283.514H88.7695V282.039H87.8027C86.3574 282.039 85.2637 282.889 84.7754 284.266V282.039H83.1543V292ZM99.3945 286.775C99.3945 284.1 97.3438 281.756 94.4727 281.756C91.5918 281.756 89.4043 284.109 89.4043 287.02C89.4043 289.939 91.5918 292.273 94.4727 292.273C96.7383 292.273 98.5156 290.828 99.082 289.002H97.1973C96.7578 290.125 95.7715 290.711 94.4336 290.711C92.793 290.711 91.3086 289.461 91.1035 287.459H99.3652C99.3848 287.098 99.3945 286.951 99.3945 286.775ZM91.1816 285.975C91.5625 284.256 92.9492 283.338 94.4434 283.338C96.1426 283.338 97.5781 284.559 97.6758 285.975H91.1816ZM101.631 292H103.311V286.766C103.311 284.637 104.824 283.328 106.484 283.328C108.213 283.328 109.268 284.334 109.268 286.629V292H110.947V286.6C110.947 283.416 109.561 281.756 106.914 281.756C105.225 281.756 103.809 282.684 103.242 283.963V282.039H101.631V292ZM117.627 292H119.463V290.574H117.959C117.07 290.574 116.172 290.242 116.172 288.387V283.514H119.463V282.039H116.172V279.07L114.492 279.08V282.039H112.275V283.514H114.492V288.309C114.492 291.414 116.113 292 117.627 292ZM123.34 292H124.883L127.363 284.539H127.373L129.834 292H131.416L134.844 282.039H133.066L130.752 289.09L130.488 289.832H130.459L130.234 289.119L128.037 282.039H126.748L124.482 289.246L124.287 289.832H124.268L124.082 289.236L121.719 282.039H119.912L123.34 292ZM137.422 280.096C138.145 280.096 138.584 279.617 138.584 279.021C138.584 278.436 138.145 277.957 137.432 277.957C136.729 277.957 136.289 278.436 136.289 279.021C136.289 279.617 136.729 280.096 137.422 280.096ZM136.592 292H138.271V282.039H136.592V292ZM145.742 292.283C148.105 292.283 149.941 290.809 150.508 288.66H148.789C148.271 290.027 147.09 290.711 145.752 290.711C144.023 290.711 142.334 289.314 142.334 287.02C142.334 284.744 144.014 283.338 145.752 283.338C147.1 283.338 148.271 284.012 148.789 285.301H150.518C149.922 283.24 148.115 281.756 145.742 281.756C142.861 281.756 140.654 284.109 140.654 287.02C140.654 289.93 142.861 292.283 145.742 292.283ZM159.385 292H161.289L157.539 286.033L160.781 282.039H158.721L154.443 287.342V278.25H152.764V292H154.443V289.197L156.309 287.137L159.385 292ZM163.057 292H164.736V278.23H163.057V292ZM172.236 292.283C174.834 292.283 176.758 290.818 176.758 287.361V282.039H175.078V287.312C175.078 289.559 174.053 290.701 172.217 290.701C170.391 290.701 169.355 289.549 169.355 287.312V282.039H167.686V287.361C167.686 290.818 169.59 292.283 172.236 292.283ZM179.717 292H181.396V286.766C181.396 284.637 182.91 283.328 184.57 283.328C186.299 283.328 187.354 284.334 187.354 286.629V292H189.033V286.6C189.033 283.416 187.646 281.756 185 281.756C183.311 281.756 181.895 282.684 181.328 283.963V282.039H179.717V292ZM196.504 295.75C199.99 295.75 201.67 293.436 201.67 290.662V282.039H200.059V284.178C199.463 282.859 198.047 281.766 196.143 281.766C193.369 281.766 191.299 284.109 191.299 286.834C191.299 289.578 193.389 291.814 196.191 291.814C197.881 291.814 199.355 290.994 200.059 289.48V290.711C200.059 292.566 199.092 294.314 196.504 294.314C194.336 294.314 193.506 293.26 193.311 292.059H191.719C191.826 293.875 193.154 295.75 196.504 295.75ZM196.484 290.33C194.531 290.33 192.969 288.816 192.969 286.834C192.969 284.832 194.531 283.338 196.494 283.338C198.447 283.338 200 284.939 200 286.834C200 288.748 198.438 290.33 196.484 290.33ZM210.664 280.096C211.387 280.096 211.826 279.617 211.826 279.021C211.826 278.436 211.387 277.957 210.674 277.957C209.971 277.957 209.531 278.436 209.531 279.021C209.531 279.617 209.971 280.096 210.664 280.096ZM209.834 292H211.514V282.039H209.834V292ZM226.904 281.756C225.361 281.756 224.014 282.615 223.242 284.314C222.725 282.625 221.553 281.756 219.766 281.756C218.164 281.756 216.846 282.713 216.338 283.963L216.318 282.039H214.736V292H216.396V286.766C216.396 284.734 217.793 283.328 219.316 283.328C220.908 283.328 221.875 284.334 221.875 286.629V292H223.535V286.766C223.535 284.734 224.932 283.328 226.445 283.328C228.047 283.328 229.014 284.344 229.014 286.629V292H230.684V286.6C230.684 283.416 229.375 281.756 226.904 281.756ZM238.936 292H240.664V286.434H246.836V284.959H240.664V280.291H247.764V278.719H238.936V292ZM253.311 292.283C256.289 292.283 258.506 289.949 258.506 287.02C258.506 284.1 256.279 281.756 253.311 281.756C250.352 281.756 248.135 284.109 248.135 287.02C248.135 289.949 250.361 292.283 253.311 292.283ZM253.33 290.701C251.348 290.701 249.814 289.139 249.814 287.02C249.814 284.92 251.348 283.338 253.33 283.338C255.303 283.338 256.826 284.92 256.826 287.02C256.826 289.139 255.303 290.701 253.33 290.701ZM267.51 292H269.414L265.664 286.033L268.906 282.039H266.846L262.568 287.342V278.25H260.889V292H262.568V289.197L264.434 287.137L267.51 292ZM275.459 292.283C278.057 292.283 279.98 290.818 279.98 287.361V282.039H278.301V287.312C278.301 289.559 277.275 290.701 275.439 290.701C273.613 290.701 272.578 289.549 272.578 287.312V282.039H270.908V287.361C270.908 290.818 272.812 292.283 275.459 292.283ZM286.26 292.283C288.633 292.283 290.273 291.229 290.273 289.188C290.273 287.02 288.447 286.531 286.621 286.248C284.766 285.936 284.229 285.584 284.229 284.637C284.229 283.836 284.844 283.162 286.133 283.162C287.461 283.162 288.262 283.797 288.311 284.744H289.961C289.961 283.006 288.438 281.756 286.133 281.756C283.76 281.756 282.568 283.045 282.568 284.676C282.568 286.688 284.199 287.342 286.055 287.615C287.617 287.869 288.564 288.162 288.564 289.275C288.564 290.281 287.783 290.916 286.279 290.916C284.639 290.916 283.74 290.037 283.721 288.953L282.1 288.943C282.1 290.643 283.477 292.283 286.26 292.283ZM39.0039 338H40.8398L35.2246 324.719H33.5645L27.9395 338H29.7754L31.0352 334.992H37.7441L39.0039 338ZM31.6504 333.527L34.3262 327.15L34.3848 326.926H34.4043L34.4531 327.15L37.1289 333.527H31.6504ZM46.5723 338.283C49.1699 338.283 51.0938 336.818 51.0938 333.361V328.039H49.4141V333.312C49.4141 335.559 48.3887 336.701 46.5527 336.701C44.7266 336.701 43.6914 335.549 43.6914 333.312V328.039H42.0215V333.361C42.0215 336.818 43.9258 338.283 46.5723 338.283ZM54.248 338H55.9766V328.322C55.9766 327.111 56.9531 326.193 58.0859 326.193H61.7383L58.9941 330.607L58.9844 331.799H60.2051C61.6699 331.799 62.7246 332.805 62.7246 334.152C62.7246 335.559 61.5527 336.506 60.3516 336.506H57.7832V338H60.4785C62.5488 338 64.4824 336.652 64.4824 334.25C64.4824 332.531 63.1543 330.988 61.2695 330.852H60.6055L63.4668 326.145V324.719H58.0371C55.8301 324.719 54.248 326.135 54.248 328.215V338ZM76.0547 332.775C76.0547 330.1 74.0039 327.756 71.1328 327.756C68.252 327.756 66.0645 330.109 66.0645 333.02C66.0645 335.939 68.252 338.273 71.1328 338.273C73.3984 338.273 75.1758 336.828 75.7422 335.002H73.8574C73.418 336.125 72.4316 336.711 71.0938 336.711C69.4531 336.711 67.9688 335.461 67.7637 333.459H76.0254C76.0449 333.098 76.0547 332.951 76.0547 332.775ZM67.8418 331.975C68.2227 330.256 69.6094 329.338 71.1035 329.338C72.8027 329.338 74.2383 330.559 74.3359 331.975H67.8418ZM78.291 338H79.9805V333.312C79.9805 330.91 81.2793 329.514 83.0273 329.514H83.9062V328.039H82.9395C81.4941 328.039 80.4004 328.889 79.9121 330.266V328.039H78.291V338ZM89.7461 341.75C93.2324 341.75 94.9121 339.436 94.9121 336.662V328.039H93.3008V330.178C92.7051 328.859 91.2891 327.766 89.3848 327.766C86.6113 327.766 84.541 330.109 84.541 332.834C84.541 335.578 86.6309 337.814 89.4336 337.814C91.123 337.814 92.5977 336.994 93.3008 335.48V336.711C93.3008 338.566 92.334 340.314 89.7461 340.314C87.5781 340.314 86.748 339.26 86.5527 338.059H84.9609C85.0684 339.875 86.3965 341.75 89.7461 341.75ZM89.7266 336.33C87.7734 336.33 86.2109 334.816 86.2109 332.834C86.2109 330.832 87.7734 329.338 89.7363 329.338C91.6895 329.338 93.2422 330.939 93.2422 332.834C93.2422 334.748 91.6797 336.33 89.7266 336.33ZM107.285 332.775C107.285 330.1 105.234 327.756 102.363 327.756C99.4824 327.756 97.2949 330.109 97.2949 333.02C97.2949 335.939 99.4824 338.273 102.363 338.273C104.629 338.273 106.406 336.828 106.973 335.002H105.088C104.648 336.125 103.662 336.711 102.324 336.711C100.684 336.711 99.1992 335.461 98.9941 333.459H107.256C107.275 333.098 107.285 332.951 107.285 332.775ZM99.0723 331.975C99.4531 330.256 100.84 329.338 102.334 329.338C104.033 329.338 105.469 330.559 105.566 331.975H99.0723ZM111.133 338H112.676L115.156 330.539H115.166L117.627 338H119.209L122.637 328.039H120.859L118.545 335.09L118.281 335.832H118.252L118.027 335.119L115.83 328.039H114.541L112.275 335.246L112.08 335.832H112.061L111.875 335.236L109.512 328.039H107.705L111.133 338ZM126.68 326.496C127.236 326.496 127.607 326.135 127.607 325.686C127.607 325.227 127.236 324.865 126.68 324.865C126.143 324.865 125.762 325.227 125.762 325.686C125.762 326.135 126.143 326.496 126.68 326.496ZM129.971 326.496C130.527 326.496 130.898 326.135 130.898 325.686C130.898 325.227 130.527 324.865 129.971 324.865C129.434 324.865 129.062 325.227 129.062 325.686C129.062 326.135 129.424 326.496 129.971 326.496ZM128.389 338.283C131.367 338.283 133.584 335.949 133.584 333.02C133.584 330.1 131.357 327.756 128.389 327.756C125.43 327.756 123.213 330.109 123.213 333.02C123.213 335.949 125.439 338.283 128.389 338.283ZM128.408 336.701C126.426 336.701 124.893 335.139 124.893 333.02C124.893 330.92 126.426 329.338 128.408 329.338C130.381 329.338 131.904 330.92 131.904 333.02C131.904 335.139 130.381 336.701 128.408 336.701ZM135.967 338H137.646V332.766C137.646 330.734 139.16 329.328 140.82 329.328C142.549 329.328 143.604 330.334 143.604 332.629V338H145.283V332.6C145.283 329.416 143.896 327.756 141.25 327.756C139.561 327.756 138.213 328.645 137.617 329.934L137.646 328.869V324.25H135.967V338ZM148.389 338H150.068V332.766C150.068 330.637 151.582 329.328 153.242 329.328C154.971 329.328 156.025 330.334 156.025 332.629V338H157.705V332.6C157.705 329.416 156.318 327.756 153.672 327.756C151.982 327.756 150.566 328.684 150 329.963V328.039H148.389V338ZM160.811 338H162.49V324.23H160.811V338ZM166.543 326.096C167.266 326.096 167.705 325.617 167.705 325.021C167.705 324.436 167.266 323.957 166.553 323.957C165.85 323.957 165.41 324.436 165.41 325.021C165.41 325.617 165.85 326.096 166.543 326.096ZM165.713 338H167.393V328.039H165.713V338ZM174.863 338.283C177.227 338.283 179.062 336.809 179.629 334.66H177.91C177.393 336.027 176.211 336.711 174.873 336.711C173.145 336.711 171.455 335.314 171.455 333.02C171.455 330.744 173.135 329.338 174.873 329.338C176.221 329.338 177.393 330.012 177.91 331.301H179.639C179.043 329.24 177.236 327.756 174.863 327.756C171.982 327.756 169.775 330.109 169.775 333.02C169.775 335.93 171.982 338.283 174.863 338.283ZM181.885 338H183.564V332.766C183.564 330.734 185.078 329.328 186.738 329.328C188.467 329.328 189.521 330.334 189.521 332.629V338H191.201V332.6C191.201 329.416 189.814 327.756 187.168 327.756C185.479 327.756 184.131 328.645 183.535 329.934L183.564 328.869V324.25H181.885V338ZM203.457 332.775C203.457 330.1 201.406 327.756 198.535 327.756C195.654 327.756 193.467 330.109 193.467 333.02C193.467 335.939 195.654 338.273 198.535 338.273C200.801 338.273 202.578 336.828 203.145 335.002H201.26C200.82 336.125 199.834 336.711 198.496 336.711C196.855 336.711 195.371 335.461 195.166 333.459H203.428C203.447 333.098 203.457 332.951 203.457 332.775ZM195.244 331.975C195.625 330.256 197.012 329.338 198.506 329.338C200.205 329.338 201.641 330.559 201.738 331.975H195.244ZM213.701 338H215.43V326.271H219.639V324.719H209.502V326.271H213.701V338ZM229.062 332.775C229.062 330.1 227.012 327.756 224.141 327.756C221.26 327.756 219.072 330.109 219.072 333.02C219.072 335.939 221.26 338.273 224.141 338.273C226.406 338.273 228.184 336.828 228.75 335.002H226.865C226.426 336.125 225.439 336.711 224.102 336.711C222.461 336.711 220.977 335.461 220.771 333.459H229.033C229.053 333.098 229.062 332.951 229.062 332.775ZM220.85 331.975C221.23 330.256 222.617 329.338 224.111 329.338C225.811 329.338 227.246 330.559 227.344 331.975H220.85ZM235.273 338.283C237.051 338.283 238.545 337.355 239.219 335.881V338H240.83V328.039H239.219V330.178C238.545 328.693 237.061 327.766 235.264 327.766C232.559 327.766 230.459 330.109 230.459 333.02C230.459 335.949 232.549 338.283 235.273 338.283ZM235.645 336.711C233.73 336.711 232.129 335.227 232.129 333.02C232.129 330.871 233.711 329.338 235.654 329.338C237.588 329.338 239.16 330.959 239.16 333.02C239.16 335.109 237.598 336.711 235.645 336.711ZM256.221 327.756C254.678 327.756 253.33 328.615 252.559 330.314C252.041 328.625 250.869 327.756 249.082 327.756C247.48 327.756 246.162 328.713 245.654 329.963L245.635 328.039H244.053V338H245.713V332.766C245.713 330.734 247.109 329.328 248.633 329.328C250.225 329.328 251.191 330.334 251.191 332.629V338H252.852V332.766C252.852 330.734 254.248 329.328 255.762 329.328C257.363 329.328 258.33 330.344 258.33 332.629V338H260V332.6C260 329.416 258.691 327.756 256.221 327.756ZM269.736 338H271.641L267.891 332.033L271.133 328.039H269.072L264.795 333.342V324.25H263.115V338H264.795V335.197L266.66 333.137L269.736 338ZM277.686 338.283C280.283 338.283 282.207 336.818 282.207 333.361V328.039H280.527V333.312C280.527 335.559 279.502 336.701 277.666 336.701C275.84 336.701 274.805 335.549 274.805 333.312V328.039H273.135V333.361C273.135 336.818 275.039 338.283 277.686 338.283ZM285.166 338H286.846V324.23H285.166V338ZM293.916 338H295.752V336.574H294.248C293.359 336.574 292.461 336.242 292.461 334.387V329.514H295.752V328.039H292.461V325.07L290.781 325.08V328.039H288.564V329.514H290.781V334.309C290.781 337.414 292.402 338 293.916 338ZM302.119 338.283C304.717 338.283 306.641 336.818 306.641 333.361V328.039H304.961V333.312C304.961 335.559 303.936 336.701 302.1 336.701C300.273 336.701 299.238 335.549 299.238 333.312V328.039H297.568V333.361C297.568 336.818 299.473 338.283 302.119 338.283ZM309.6 338H311.289V333.312C311.289 330.91 312.588 329.514 314.336 329.514H315.215V328.039H314.248C312.803 328.039 311.709 328.889 311.221 330.266V328.039H309.6V338Z" fill="white"/>
<path d="M3.16406 34H13.457C21.8945 34 27.5195 28.6875 27.5195 20.6992C27.5195 12.75 21.875 7.4375 13.3984 7.4375H3.16406V34ZM7.94922 29.6641V11.7539H13.2617C19.2188 11.7539 22.6172 15.3477 22.6172 20.7773C22.6172 26.2461 19.1211 29.6641 13.3008 29.6641H7.94922ZM50.7031 23.6094C50.7031 18.082 46.6406 13.3164 40.5859 13.3164C34.5508 13.3164 30.1758 18.1016 30.1758 23.9609C30.1758 29.8203 34.5508 34.6055 40.5859 34.6055C45.5859 34.6055 49.1602 31.3047 50.1758 27.6914H45.0195C44.3359 29.3906 42.8711 30.3867 40.4883 30.3867C37.7148 30.3867 35.4102 28.4922 34.9219 25.2109H50.6055C50.6836 24.4688 50.7031 24.1172 50.7031 23.6094ZM35.1172 21.5586C35.918 18.7266 38.1836 17.4375 40.5664 17.4375C43.3398 17.4375 45.6836 19.3125 45.8789 21.5586H35.1172ZM56.8945 10.7969C58.8086 10.7969 59.8828 9.60547 59.8828 8.08203C59.8828 6.61719 58.8086 5.38672 56.9141 5.38672C55.0586 5.38672 53.9844 6.61719 53.9844 8.08203C53.9844 9.58594 55.0781 10.7969 56.8945 10.7969ZM54.5703 34H59.2969V13.9219H54.5703V34ZM64.8438 34H69.5703V23.7461C69.5703 19.8203 72.1094 17.6719 74.8828 17.6719C77.7344 17.6719 79.5312 19.293 79.5312 23.2773V34H84.2578V23.1797C84.2578 16.8711 81.582 13.3164 76.1914 13.3164C73.1055 13.3164 70.4883 14.8594 69.3359 17.0469V13.9219H64.8438V34ZM108.75 23.6094C108.75 18.082 104.688 13.3164 98.6328 13.3164C92.5977 13.3164 88.2227 18.1016 88.2227 23.9609C88.2227 29.8203 92.5977 34.6055 98.6328 34.6055C103.633 34.6055 107.207 31.3047 108.223 27.6914H103.066C102.383 29.3906 100.918 30.3867 98.5352 30.3867C95.7617 30.3867 93.457 28.4922 92.9688 25.2109H108.652C108.73 24.4688 108.75 24.1172 108.75 23.6094ZM93.1641 21.5586C93.9648 18.7266 96.2305 17.4375 98.6133 17.4375C101.387 17.4375 103.73 19.3125 103.926 21.5586H93.1641ZM134.922 19.1953L144.395 7.4375H138.711L127.637 21.4219V7.4375H122.773V34H127.637V27.8672L131.738 22.7305L139.98 34H145.742L134.922 19.1953ZM155.645 34.6055C158.906 34.6055 161.562 33.1211 162.871 30.6211V34H167.363V13.9219H162.871V17.3203C161.582 14.8203 158.906 13.3164 155.625 13.3164C150.254 13.3164 146.191 18.1016 146.191 23.9609C146.191 29.8594 150.215 34.6055 155.645 34.6055ZM156.777 30.2305C153.594 30.2305 150.879 27.8672 150.879 23.9609C150.879 20.1914 153.535 17.6914 156.777 17.6914C160.059 17.6914 162.676 20.4648 162.676 23.9609C162.676 27.5156 160.078 30.2305 156.777 30.2305ZM172.93 34H177.656V24.6641C177.656 20.3867 179.863 17.9844 183.105 17.9844H185V13.9219H182.852C180.234 13.9219 178.398 15.3477 177.461 17.5547V13.9219H172.93V34ZM188.398 34H193.125V24.6641C193.125 20.3867 195.332 17.9844 198.574 17.9844H200.469V13.9219H198.32C195.703 13.9219 193.867 15.3477 192.93 17.5547V13.9219H188.398V34ZM206.191 10.7969C208.105 10.7969 209.18 9.60547 209.18 8.08203C209.18 6.61719 208.105 5.38672 206.211 5.38672C204.355 5.38672 203.281 6.61719 203.281 8.08203C203.281 9.58594 204.375 10.7969 206.191 10.7969ZM203.867 34H208.594V13.9219H203.867V34ZM233.242 23.6094C233.242 18.082 229.18 13.3164 223.125 13.3164C217.09 13.3164 212.715 18.1016 212.715 23.9609C212.715 29.8203 217.09 34.6055 223.125 34.6055C228.125 34.6055 231.699 31.3047 232.715 27.6914H227.559C226.875 29.3906 225.41 30.3867 223.027 30.3867C220.254 30.3867 217.949 28.4922 217.461 25.2109H233.145C233.223 24.4688 233.242 24.1172 233.242 23.6094ZM217.656 21.5586C218.457 18.7266 220.723 17.4375 223.105 17.4375C225.879 17.4375 228.223 19.3125 228.418 21.5586H217.656ZM237.109 34H241.836V24.6641C241.836 20.3867 244.043 17.9844 247.285 17.9844H249.18V13.9219H247.031C244.414 13.9219 242.578 15.3477 241.641 17.5547V13.9219H237.109V34ZM270.898 23.6094C270.898 18.082 266.836 13.3164 260.781 13.3164C254.746 13.3164 250.371 18.1016 250.371 23.9609C250.371 29.8203 254.746 34.6055 260.781 34.6055C265.781 34.6055 269.355 31.3047 270.371 27.6914H265.215C264.531 29.3906 263.066 30.3867 260.684 30.3867C257.91 30.3867 255.605 28.4922 255.117 25.2109H270.801C270.879 24.4688 270.898 24.1172 270.898 23.6094ZM255.312 21.5586C256.113 18.7266 258.379 17.4375 260.762 17.4375C263.535 17.4375 265.879 19.3125 266.074 21.5586H255.312ZM295.977 34.6055C301.582 34.6055 305.703 29.8594 305.703 23.9609C305.703 18.1016 301.621 13.3359 295.918 13.3359C293.027 13.3359 290.469 14.8789 289.141 17.2031L289.258 14.5664V6.5H284.531V34H289.023V30.6211C290.391 33.082 293.047 34.6055 295.977 34.6055ZM295.117 30.25C291.914 30.25 289.199 27.6328 289.199 23.9609C289.199 20.4453 291.836 17.6914 295.098 17.6914C298.359 17.6914 301.016 20.1914 301.016 23.9609C301.016 27.8477 298.301 30.25 295.117 30.25ZM329.453 23.6094C329.453 18.082 325.391 13.3164 319.336 13.3164C313.301 13.3164 308.926 18.1016 308.926 23.9609C308.926 29.8203 313.301 34.6055 319.336 34.6055C324.336 34.6055 327.91 31.3047 328.926 27.6914H323.77C323.086 29.3906 321.621 30.3867 319.238 30.3867C316.465 30.3867 314.16 28.4922 313.672 25.2109H329.355C329.434 24.4688 329.453 24.1172 329.453 23.6094ZM313.867 21.5586C314.668 18.7266 316.934 17.4375 319.316 17.4375C322.09 17.4375 324.434 19.3125 324.629 21.5586H313.867ZM335.645 10.7969C337.559 10.7969 338.633 9.60547 338.633 8.08203C338.633 6.61719 337.559 5.38672 335.664 5.38672C333.809 5.38672 332.734 6.61719 332.734 8.08203C332.734 9.58594 333.828 10.7969 335.645 10.7969ZM333.32 34H338.047V13.9219H333.32V34ZM15.3125 82.5664C24.0039 82.5664 29.0039 76.4141 28.9453 67.7031H15.0781V71.7656H23.6719C22.9297 75.4766 20.0195 78.0938 15.2734 78.0938C10.2539 78.0938 6.15234 74.4609 6.15234 68.6992C6.15234 63.0352 10.2539 59.2656 15.2734 59.2656C19.043 59.2656 22.0117 61.1016 23.3984 64.207H28.3398C27.0898 58.2305 21.0156 54.8125 15.3906 54.8125C7.57812 54.8125 1.30859 60.9648 1.30859 68.6992C1.30859 76.375 7.57812 82.5664 15.3125 82.5664ZM42.0703 82.6055C47.3828 82.6055 51.4844 79.793 51.4844 72.6445V61.9219H46.7773V72.5078C46.7773 76.1797 45.2148 78.2109 42.0508 78.2109C38.9062 78.2109 37.3047 76.2188 37.3047 72.5078V61.9219H32.6172V72.6445C32.6172 79.793 36.6992 82.6055 42.0703 82.6055ZM58.9258 58.7969C60.8398 58.7969 61.9141 57.6055 61.9141 56.082C61.9141 54.6172 60.8398 53.3867 58.9453 53.3867C57.0898 53.3867 56.0156 54.6172 56.0156 56.082C56.0156 57.5859 57.1094 58.7969 58.9258 58.7969ZM56.6016 82H61.3281V61.9219H56.6016V82ZM75.1562 82.6055C78.5156 82.6055 80.918 80.7305 82.1094 78.6211V82H86.6016V54.5H81.8945V63.1133L81.9922 65.2031C80.9375 63.3086 78.4961 61.3164 75.2148 61.3164C69.3555 61.3164 65.4492 66.1016 65.4492 71.9609C65.4492 77.8594 69.4531 82.6055 75.1562 82.6055ZM76.0156 78.25C72.5586 78.25 70.0977 75.5156 70.0977 71.9609C70.0977 68.3086 72.6758 65.6914 76.0156 65.6914C79.3359 65.6914 81.9336 68.4453 81.9336 71.9609C81.9336 75.5156 79.3164 78.25 76.0156 78.25ZM111.25 71.6094C111.25 66.082 107.188 61.3164 101.133 61.3164C95.0977 61.3164 90.7227 66.1016 90.7227 71.9609C90.7227 77.8203 95.0977 82.6055 101.133 82.6055C106.133 82.6055 109.707 79.3047 110.723 75.6914H105.566C104.883 77.3906 103.418 78.3867 101.035 78.3867C98.2617 78.3867 95.957 76.4922 95.4688 73.2109H111.152C111.23 72.4688 111.25 72.1172 111.25 71.6094ZM95.6641 69.5586C96.4648 66.7266 98.7305 65.4375 101.113 65.4375C103.887 65.4375 106.23 67.3125 106.426 69.5586H95.6641ZM127.656 82.5664C133.32 82.5664 139.238 79.3047 140.469 72.1953H135.488C134.453 76.2773 131.289 78.0938 127.52 78.0938C122.5 78.0938 118.496 74.4609 118.496 68.6992C118.496 63.0352 122.5 59.2656 127.52 59.2656C131.309 59.2656 134.453 61.1016 135.508 65.1836H140.469C139.238 58.0938 133.262 54.8125 127.656 54.8125C119.824 54.8125 113.633 60.9648 113.633 68.6797C113.633 76.3945 119.824 82.5664 127.656 82.5664ZM153.691 82.6055C159.883 82.6055 164.316 77.8789 164.316 71.9609C164.316 66.082 159.883 61.3164 153.711 61.3164C147.559 61.3164 143.145 66.1016 143.145 71.9609C143.145 77.8594 147.578 82.6055 153.691 82.6055ZM153.73 78.2109C150.352 78.2109 147.832 75.5938 147.832 71.9609C147.832 68.3477 150.352 65.6914 153.73 65.6914C157.109 65.6914 159.629 68.3477 159.629 71.9609C159.629 75.5938 157.109 78.2109 153.73 78.2109ZM193.047 61.3164C190.176 61.3164 187.734 62.7617 186.016 65.8477C184.902 62.8984 182.676 61.3164 179.316 61.3164C176.348 61.3164 173.945 62.918 172.91 65.0469L172.852 61.9219H168.438V82H173.105V71.7461C173.105 68.1328 175.41 65.6719 177.949 65.6719C180.527 65.6719 182.168 67.3125 182.168 71.2773V82H186.836V71.7461C186.836 68.1328 189.16 65.6719 191.68 65.6719C194.277 65.6719 195.918 67.3125 195.918 71.2773V82H200.586V71.1797C200.586 64.8711 198.086 61.3164 193.047 61.3164ZM208.457 66.5312C210.137 66.5312 211.25 65.3594 211.25 63.9141C211.25 62.5078 210.137 61.3164 208.477 61.3164C206.797 61.3164 205.703 62.5078 205.703 63.9141C205.703 65.3398 206.816 66.5312 208.457 66.5312ZM208.457 82.6641C210.137 82.6641 211.25 81.4922 211.25 80.0469C211.25 78.6406 210.137 77.4492 208.477 77.4492C206.797 77.4492 205.703 78.6406 205.703 80.0469C205.703 81.4922 206.816 82.6641 208.457 82.6641Z" fill="white"/>
</svg>
