<svg width="960" height="99" viewBox="0 0 960 99" fill="none" xmlns="http://www.w3.org/2000/svg">
<line x1="645" y1="19" x2="645" y2="84" stroke="#1EDC82" stroke-width="2"/>
<path d="M220.795 44V42.2812H212.889V37.3828H219.678V35.75H212.889V31.1201H220.698V29.3906H210.987V44H220.795ZM225.188 44V38.2422C225.188 35.9004 226.854 34.4609 228.68 34.4609C230.581 34.4609 231.741 35.5674 231.741 38.0918V44H233.589V38.0596C233.589 34.5576 232.063 32.7314 229.152 32.7314C227.294 32.7314 225.736 33.752 225.113 35.1592V33.043H223.341V44H225.188ZM242.956 44V42.4316H241.302C240.324 42.4316 239.336 42.0664 239.336 40.0254V34.665H242.956V33.043H239.336V29.7773L237.488 29.7881V33.043H235.05V34.665H237.488V39.9395C237.488 43.3555 239.271 44 240.937 44H242.956ZM249.466 44.3115C251.453 44.3115 253 43.1514 253.698 41.6689V44H255.471V28.875H253.623V34.2891L253.666 35.3525C253.032 34.0312 251.528 32.7314 249.477 32.7314C246.329 32.7314 244.073 35.3203 244.073 38.5215C244.073 41.7441 246.372 44.3115 249.466 44.3115ZM249.767 42.5928C247.564 42.5928 245.91 40.8203 245.91 38.5215C245.91 36.2012 247.607 34.4609 249.767 34.4609C251.926 34.4609 253.645 36.2441 253.645 38.5215C253.645 40.8203 251.915 42.5928 249.767 42.5928ZM269.092 38.2529C269.092 35.3096 266.836 32.7314 263.678 32.7314C260.509 32.7314 258.103 35.3203 258.103 38.5215C258.103 41.7334 260.509 44.3008 263.678 44.3008C266.17 44.3008 268.125 42.7109 268.748 40.7021H266.675C266.191 41.9375 265.106 42.582 263.635 42.582C261.83 42.582 260.197 41.207 259.972 39.0049H269.06C269.081 38.6074 269.092 38.4463 269.092 38.2529ZM260.058 37.3721C260.477 35.4814 262.002 34.4717 263.646 34.4717C265.515 34.4717 267.094 35.8145 267.201 37.3721H260.058ZM276.225 44.3115C278.824 44.3115 280.844 42.6895 281.467 40.3262H279.576C279.007 41.8301 277.707 42.582 276.235 42.582C274.334 42.582 272.476 41.0459 272.476 38.5215C272.476 36.0186 274.323 34.4717 276.235 34.4717C277.718 34.4717 279.007 35.2129 279.576 36.6309H281.478C280.822 34.3643 278.835 32.7314 276.225 32.7314C273.056 32.7314 270.628 35.3203 270.628 38.5215C270.628 41.7227 273.056 44.3115 276.225 44.3115ZM293.326 44L289.201 37.4365L292.768 33.043H290.501L285.796 38.876V28.875H283.948V44H285.796V40.917L287.848 38.6504L291.231 44H293.326ZM304.842 38.2529C304.842 35.3096 302.586 32.7314 299.428 32.7314C296.259 32.7314 293.853 35.3203 293.853 38.5215C293.853 41.7334 296.259 44.3008 299.428 44.3008C301.92 44.3008 303.875 42.7109 304.498 40.7021H302.425C301.941 41.9375 300.856 42.582 299.385 42.582C297.58 42.582 295.947 41.207 295.722 39.0049H304.81C304.831 38.6074 304.842 38.4463 304.842 38.2529ZM295.808 37.3721C296.227 35.4814 297.752 34.4717 299.396 34.4717C301.265 34.4717 302.844 35.8145 302.951 37.3721H295.808ZM313.779 30.9053C314.574 30.9053 315.058 30.3789 315.058 29.7236C315.058 29.0791 314.574 28.5527 313.79 28.5527C313.017 28.5527 312.533 29.0791 312.533 29.7236C312.533 30.3789 313.017 30.9053 313.779 30.9053ZM311.169 47.7598C313.532 47.7598 314.703 46.3633 314.703 43.957V33.043H312.845V44.0752C312.845 45.3105 312.189 46.2129 310.976 46.2129H309.848V47.7598H311.169ZM328.324 38.2529C328.324 35.3096 326.068 32.7314 322.91 32.7314C319.741 32.7314 317.335 35.3203 317.335 38.5215C317.335 41.7334 319.741 44.3008 322.91 44.3008C325.402 44.3008 327.357 42.7109 327.98 40.7021H325.907C325.424 41.9375 324.339 42.582 322.867 42.582C321.062 42.582 319.43 41.207 319.204 39.0049H328.292C328.313 38.6074 328.324 38.4463 328.324 38.2529ZM319.29 37.3721C319.709 35.4814 321.234 34.4717 322.878 34.4717C324.747 34.4717 326.326 35.8145 326.434 37.3721H319.29ZM336.714 44V42.4316H335.06C334.082 42.4316 333.094 42.0664 333.094 40.0254V34.665H336.714V33.043H333.094V29.7773L331.246 29.7881V33.043H328.808V34.665H331.246V39.9395C331.246 43.3555 333.029 44 334.694 44H336.714ZM347.188 44V42.4209H340.613L346.93 34.2568V33.043H338.39V34.6221H344.427L338.078 42.8076V44H347.188ZM355.749 44V42.4316H354.095C353.117 42.4316 352.129 42.0664 352.129 40.0254V34.665H355.749V33.043H352.129V29.7773L350.281 29.7881V33.043H347.843V34.665H350.281V39.9395C350.281 43.3555 352.064 44 353.729 44H355.749ZM368.274 44.3115C371.132 44.3115 373.248 42.7002 373.248 38.8975V33.043H371.4V38.8438C371.4 41.3145 370.272 42.5713 368.253 42.5713C366.244 42.5713 365.105 41.3037 365.105 38.8438V33.043H363.269V38.8975C363.269 42.7002 365.363 44.3115 368.274 44.3115ZM378.351 44V38.2422C378.351 35.9004 380.016 34.4609 381.842 34.4609C383.743 34.4609 384.903 35.5674 384.903 38.0918V44H386.751V38.0596C386.751 34.5576 385.226 32.7314 382.314 32.7314C380.456 32.7314 378.898 33.752 378.275 35.1592V33.043H376.503V44H378.351ZM393.819 44.3115C396.43 44.3115 398.234 43.1514 398.234 40.9062C398.234 38.5215 396.226 37.9844 394.217 37.6729C392.176 37.3291 391.585 36.9424 391.585 35.9004C391.585 35.0195 392.262 34.2783 393.68 34.2783C395.141 34.2783 396.021 34.9766 396.075 36.0186H397.891C397.891 34.1064 396.215 32.7314 393.68 32.7314C391.069 32.7314 389.759 34.1494 389.759 35.9434C389.759 38.1562 391.553 38.876 393.594 39.1768C395.312 39.4561 396.354 39.7783 396.354 41.0029C396.354 42.1094 395.495 42.8076 393.841 42.8076C392.036 42.8076 391.048 41.8408 391.026 40.6484L389.243 40.6377C389.243 42.5068 390.758 44.3115 393.819 44.3115ZM410.824 38.2529C410.824 35.3096 408.568 32.7314 405.41 32.7314C402.241 32.7314 399.835 35.3203 399.835 38.5215C399.835 41.7334 402.241 44.3008 405.41 44.3008C407.902 44.3008 409.857 42.7109 410.48 40.7021H408.407C407.924 41.9375 406.839 42.582 405.367 42.582C403.562 42.582 401.93 41.207 401.704 39.0049H410.792C410.813 38.6074 410.824 38.4463 410.824 38.2529ZM401.79 37.3721C402.209 35.4814 403.734 34.4717 405.378 34.4717C407.247 34.4717 408.826 35.8145 408.934 37.3721H401.79ZM415.143 44V38.8438C415.143 36.2012 416.571 34.665 418.494 34.665H419.461V33.043H418.397C416.808 33.043 415.604 33.9775 415.067 35.4922V33.043H413.284V44H415.143ZM431.148 38.2529C431.148 35.3096 428.893 32.7314 425.734 32.7314C422.565 32.7314 420.159 35.3203 420.159 38.5215C420.159 41.7334 422.565 44.3008 425.734 44.3008C428.227 44.3008 430.182 42.7109 430.805 40.7021H428.731C428.248 41.9375 427.163 42.582 425.691 42.582C423.887 42.582 422.254 41.207 422.028 39.0049H431.116C431.138 38.6074 431.148 38.4463 431.148 38.2529ZM422.114 37.3721C422.533 35.4814 424.059 34.4717 425.702 34.4717C427.571 34.4717 429.15 35.8145 429.258 37.3721H422.114ZM443.416 44.3115C445.371 44.3115 447.015 43.291 447.756 41.6689V44H449.528V33.043H447.756V35.3955C447.015 33.7627 445.382 32.7422 443.405 32.7422C440.43 32.7422 438.12 35.3203 438.12 38.5215C438.12 41.7441 440.419 44.3115 443.416 44.3115ZM443.824 42.582C441.719 42.582 439.957 40.9492 439.957 38.5215C439.957 36.1582 441.697 34.4717 443.835 34.4717C445.962 34.4717 447.691 36.2549 447.691 38.5215C447.691 40.8203 445.973 42.582 443.824 42.582ZM462.451 44L458.326 37.4365L461.893 33.043H459.626L454.921 38.876V28.875H453.073V44H454.921V40.917L456.973 38.6504L460.356 44H462.451ZM470.647 44V42.4316H468.993C468.016 42.4316 467.027 42.0664 467.027 40.0254V34.665H470.647V33.043H467.027V29.7773L465.18 29.7881V33.043H462.741V34.665H465.18V39.9395C465.18 43.3555 466.963 44 468.628 44H470.647ZM477.651 44.3115C480.509 44.3115 482.625 42.7002 482.625 38.8975V33.043H480.777V38.8438C480.777 41.3145 479.649 42.5713 477.63 42.5713C475.621 42.5713 474.482 41.3037 474.482 38.8438V33.043H472.646V38.8975C472.646 42.7002 474.74 44.3115 477.651 44.3115ZM495.945 38.2529C495.945 35.3096 493.689 32.7314 490.531 32.7314C487.362 32.7314 484.956 35.3203 484.956 38.5215C484.956 41.7334 487.362 44.3008 490.531 44.3008C493.023 44.3008 494.979 42.7109 495.602 40.7021H493.528C493.045 41.9375 491.96 42.582 490.488 42.582C488.684 42.582 487.051 41.207 486.825 39.0049H495.913C495.935 38.6074 495.945 38.4463 495.945 38.2529ZM486.911 37.3721C487.33 35.4814 488.855 34.4717 490.499 34.4717C492.368 34.4717 493.947 35.8145 494.055 37.3721H486.911ZM500.253 44V28.8535H498.405V44H500.253ZM505.646 44V28.8535H503.798V44H505.646ZM519.256 38.2529C519.256 35.3096 517 32.7314 513.842 32.7314C510.673 32.7314 508.267 35.3203 508.267 38.5215C508.267 41.7334 510.673 44.3008 513.842 44.3008C516.334 44.3008 518.289 42.7109 518.912 40.7021H516.839C516.355 41.9375 515.271 42.582 513.799 42.582C511.994 42.582 510.361 41.207 510.136 39.0049H519.224C519.245 38.6074 519.256 38.4463 519.256 38.2529ZM510.222 37.3721C510.641 35.4814 512.166 34.4717 513.81 34.4717C515.679 34.4717 517.258 35.8145 517.365 37.3721H510.222ZM523.563 44V38.2422C523.563 35.9004 525.229 34.4609 527.055 34.4609C528.956 34.4609 530.116 35.5674 530.116 38.0918V44H531.964V38.0596C531.964 34.5576 530.438 32.7314 527.527 32.7314C525.669 32.7314 524.111 33.752 523.488 35.1592V33.043H521.716V44H523.563ZM211.46 70C214.468 70 216.605 68.1094 216.605 64.9941V55.3906H214.726V64.8975C214.726 66.96 213.426 68.2812 211.471 68.2812H209.397V70H211.46ZM224.866 70.3115C228.143 70.3115 230.581 67.7441 230.581 64.5215C230.581 61.3096 228.132 58.7314 224.866 58.7314C221.611 58.7314 219.173 61.3203 219.173 64.5215C219.173 67.7441 221.622 70.3115 224.866 70.3115ZM224.888 68.5713C222.707 68.5713 221.021 66.8525 221.021 64.5215C221.021 62.2119 222.707 60.4717 224.888 60.4717C227.058 60.4717 228.733 62.2119 228.733 64.5215C228.733 66.8525 227.058 68.5713 224.888 68.5713ZM239.218 70.3115C242.279 70.3115 244.6 67.7441 244.6 64.5215C244.6 61.3203 242.29 58.7422 239.196 58.7422C237.295 58.7422 235.737 59.8701 235.018 61.3525L235.05 59.8486V54.875H233.202V70H234.975V67.6689C235.759 69.3018 237.413 70.3115 239.218 70.3115ZM238.896 68.5928C236.79 68.5928 235.039 66.8525 235.039 64.5215C235.039 62.2549 236.758 60.4609 238.896 60.4609C241.033 60.4609 242.763 62.1582 242.763 64.5215C242.763 66.9385 241.001 68.5928 238.896 68.5928ZM251.142 70.3115C253.752 70.3115 255.557 69.1514 255.557 66.9062C255.557 64.5215 253.548 63.9844 251.539 63.6729C249.498 63.3291 248.907 62.9424 248.907 61.9004C248.907 61.0195 249.584 60.2783 251.002 60.2783C252.463 60.2783 253.344 60.9766 253.397 62.0186H255.213C255.213 60.1064 253.537 58.7314 251.002 58.7314C248.392 58.7314 247.081 60.1494 247.081 61.9434C247.081 64.1562 248.875 64.876 250.916 65.1768C252.635 65.4561 253.677 65.7783 253.677 67.0029C253.677 68.1094 252.817 68.8076 251.163 68.8076C249.358 68.8076 248.37 67.8408 248.349 66.6484L246.565 66.6377C246.565 68.5068 248.08 70.3115 251.142 70.3115ZM268.222 70.3115C271.079 70.3115 273.195 68.7002 273.195 64.8975V59.043H271.348V64.8438C271.348 67.3145 270.22 68.5713 268.2 68.5713C266.191 68.5713 265.053 67.3037 265.053 64.8438V59.043H263.216V64.8975C263.216 68.7002 265.311 70.3115 268.222 70.3115ZM278.298 70V64.2422C278.298 61.9004 279.963 60.4609 281.789 60.4609C283.69 60.4609 284.851 61.5674 284.851 64.0918V70H286.698V64.0596C286.698 60.5576 285.173 58.7314 282.262 58.7314C280.403 58.7314 278.846 59.752 278.223 61.1592V59.043H276.45V70H278.298ZM294.583 70.3115C296.57 70.3115 298.117 69.1514 298.815 67.6689V70H300.588V54.875H298.74V60.2891L298.783 61.3525C298.149 60.0312 296.646 58.7314 294.594 58.7314C291.446 58.7314 289.19 61.3203 289.19 64.5215C289.19 67.7441 291.489 70.3115 294.583 70.3115ZM294.884 68.5928C292.682 68.5928 291.027 66.8203 291.027 64.5215C291.027 62.2012 292.725 60.4609 294.884 60.4609C297.043 60.4609 298.762 62.2441 298.762 64.5215C298.762 66.8203 297.032 68.5928 294.884 68.5928ZM313.414 70L316.143 61.793H316.153L318.86 70H320.601L324.371 59.043H322.416L319.87 66.7988L319.58 67.6152H319.548L319.301 66.8311L316.884 59.043H315.466L312.974 66.9707L312.759 67.6152H312.737L312.533 66.96L309.934 59.043H307.946L311.717 70H313.414ZM335.994 64.2529C335.994 61.3096 333.738 58.7314 330.58 58.7314C327.411 58.7314 325.005 61.3203 325.005 64.5215C325.005 67.7334 327.411 70.3008 330.58 70.3008C333.072 70.3008 335.027 68.7109 335.65 66.7021H333.577C333.094 67.9375 332.009 68.582 330.537 68.582C328.732 68.582 327.1 67.207 326.874 65.0049H335.962C335.983 64.6074 335.994 64.4463 335.994 64.2529ZM326.96 63.3721C327.379 61.4814 328.904 60.4717 330.548 60.4717C332.417 60.4717 333.996 61.8145 334.104 63.3721H326.96ZM340.312 70V64.8438C340.312 62.2012 341.741 60.665 343.664 60.665H344.631V59.043H343.567C341.978 59.043 340.774 59.9775 340.237 61.4922V59.043H338.454V70H340.312ZM350.722 70.3115C352.709 70.3115 354.256 69.1514 354.954 67.6689V70H356.727V54.875H354.879V60.2891L354.922 61.3525C354.288 60.0312 352.784 58.7314 350.732 58.7314C347.585 58.7314 345.329 61.3203 345.329 64.5215C345.329 67.7441 347.628 70.3115 350.722 70.3115ZM351.022 68.5928C348.82 68.5928 347.166 66.8203 347.166 64.5215C347.166 62.2012 348.863 60.4609 351.022 60.4609C353.182 60.4609 354.9 62.2441 354.9 64.5215C354.9 66.8203 353.171 68.5928 351.022 68.5928ZM370.348 64.2529C370.348 61.3096 368.092 58.7314 364.934 58.7314C361.765 58.7314 359.358 61.3203 359.358 64.5215C359.358 67.7334 361.765 70.3008 364.934 70.3008C367.426 70.3008 369.381 68.7109 370.004 66.7021H367.931C367.447 67.9375 366.362 68.582 364.891 68.582C363.086 68.582 361.453 67.207 361.228 65.0049H370.315C370.337 64.6074 370.348 64.4463 370.348 64.2529ZM361.313 63.3721C361.732 61.4814 363.258 60.4717 364.901 60.4717C366.771 60.4717 368.35 61.8145 368.457 63.3721H361.313ZM382.83 70V57.0986H387.46V55.3906H376.31V57.0986H380.929V70H382.83ZM397.826 64.2529C397.826 61.3096 395.57 58.7314 392.412 58.7314C389.243 58.7314 386.837 61.3203 386.837 64.5215C386.837 67.7334 389.243 70.3008 392.412 70.3008C394.904 70.3008 396.859 68.7109 397.482 66.7021H395.409C394.926 67.9375 393.841 68.582 392.369 68.582C390.564 68.582 388.932 67.207 388.706 65.0049H397.794C397.815 64.6074 397.826 64.4463 397.826 64.2529ZM388.792 63.3721C389.211 61.4814 390.736 60.4717 392.38 60.4717C394.249 60.4717 395.828 61.8145 395.936 63.3721H388.792ZM401.199 56.9053C401.994 56.9053 402.478 56.3789 402.478 55.7236C402.478 55.0791 401.994 54.5527 401.21 54.5527C400.437 54.5527 399.953 55.0791 399.953 55.7236C399.953 56.3789 400.437 56.9053 401.199 56.9053ZM402.134 70V59.043H400.286V70H402.134ZM407.526 70V54.8535H405.679V70H407.526ZM421.212 70.3115C424.069 70.3115 426.186 68.7002 426.186 64.8975V59.043H424.338V64.8438C424.338 67.3145 423.21 68.5713 421.19 68.5713C419.182 68.5713 418.043 67.3037 418.043 64.8438V59.043H416.206V64.8975C416.206 68.7002 418.301 70.3115 421.212 70.3115ZM431.288 70V64.2422C431.288 61.9004 432.953 60.4609 434.779 60.4609C436.681 60.4609 437.841 61.5674 437.841 64.0918V70H439.688V64.0596C439.688 60.5576 438.163 58.7314 435.252 58.7314C433.394 58.7314 431.836 59.752 431.213 61.1592V59.043H429.44V70H431.288ZM446.757 70.3115C449.367 70.3115 451.172 69.1514 451.172 66.9062C451.172 64.5215 449.163 63.9844 447.154 63.6729C445.113 63.3291 444.522 62.9424 444.522 61.9004C444.522 61.0195 445.199 60.2783 446.617 60.2783C448.078 60.2783 448.959 60.9766 449.013 62.0186H450.828C450.828 60.1064 449.152 58.7314 446.617 58.7314C444.007 58.7314 442.696 60.1494 442.696 61.9434C442.696 64.1562 444.49 64.876 446.531 65.1768C448.25 65.4561 449.292 65.7783 449.292 67.0029C449.292 68.1094 448.433 68.8076 446.778 68.8076C444.974 68.8076 443.985 67.8408 443.964 66.6484L442.181 66.6377C442.181 68.5068 443.695 70.3115 446.757 70.3115ZM463.762 64.2529C463.762 61.3096 461.506 58.7314 458.348 58.7314C455.179 58.7314 452.772 61.3203 452.772 64.5215C452.772 67.7334 455.179 70.3008 458.348 70.3008C460.84 70.3008 462.795 68.7109 463.418 66.7021H461.345C460.861 67.9375 459.776 68.582 458.305 68.582C456.5 68.582 454.867 67.207 454.642 65.0049H463.729C463.751 64.6074 463.762 64.4463 463.762 64.2529ZM454.728 63.3721C455.146 61.4814 456.672 60.4717 458.315 60.4717C460.185 60.4717 461.764 61.8145 461.871 63.3721H454.728ZM468.08 70V64.8438C468.08 62.2012 469.509 60.665 471.432 60.665H472.398V59.043H471.335C469.745 59.043 468.542 59.9775 468.005 61.4922V59.043H466.222V70H468.08ZM484.086 64.2529C484.086 61.3096 481.83 58.7314 478.672 58.7314C475.503 58.7314 473.097 61.3203 473.097 64.5215C473.097 67.7334 475.503 70.3008 478.672 70.3008C481.164 70.3008 483.119 68.7109 483.742 66.7021H481.669C481.186 67.9375 480.101 68.582 478.629 68.582C476.824 68.582 475.191 67.207 474.966 65.0049H484.054C484.075 64.6074 484.086 64.4463 484.086 64.2529ZM475.052 63.3721C475.471 61.4814 476.996 60.4717 478.64 60.4717C480.509 60.4717 482.088 61.8145 482.195 63.3721H475.052ZM488.394 70V64.2422C488.394 61.9004 490.059 60.4609 491.885 60.4609C493.786 60.4609 494.946 61.5674 494.946 64.0918V70H496.794V64.0596C496.794 60.5576 495.269 58.7314 492.357 58.7314C490.499 58.7314 488.941 59.752 488.318 61.1592V59.043H486.546V70H488.394ZM510.232 70V57.0986H514.862V55.3906H503.712V57.0986H508.331V70H510.232ZM525.229 64.2529C525.229 61.3096 522.973 58.7314 519.814 58.7314C516.646 58.7314 514.239 61.3203 514.239 64.5215C514.239 67.7334 516.646 70.3008 519.814 70.3008C522.307 70.3008 524.262 68.7109 524.885 66.7021H522.812C522.328 67.9375 521.243 68.582 519.771 68.582C517.967 68.582 516.334 67.207 516.108 65.0049H525.196C525.218 64.6074 525.229 64.4463 525.229 64.2529ZM516.194 63.3721C516.613 61.4814 518.139 60.4717 519.782 60.4717C521.651 60.4717 523.23 61.8145 523.338 63.3721H516.194ZM532.061 70.3115C534.016 70.3115 535.659 69.291 536.4 67.6689V70H538.173V59.043H536.4V61.3955C535.659 59.7627 534.026 58.7422 532.05 58.7422C529.074 58.7422 526.765 61.3203 526.765 64.5215C526.765 67.7441 529.063 70.3115 532.061 70.3115ZM532.469 68.582C530.363 68.582 528.602 66.9492 528.602 64.5215C528.602 62.1582 530.342 60.4717 532.479 60.4717C534.606 60.4717 536.336 62.2549 536.336 64.5215C536.336 66.8203 534.617 68.582 532.469 68.582ZM555.103 58.7314C553.405 58.7314 551.923 59.6768 551.074 61.5459C550.505 59.6875 549.216 58.7314 547.25 58.7314C545.488 58.7314 544.038 59.7842 543.479 61.1592L543.458 59.043H541.718V70H543.544V64.2422C543.544 62.0078 545.08 60.4609 546.756 60.4609C548.507 60.4609 549.57 61.5674 549.57 64.0918V70H551.396V64.2422C551.396 62.0078 552.933 60.4609 554.598 60.4609C556.359 60.4609 557.423 61.5781 557.423 64.0918V70H559.26V64.0596C559.26 60.5576 557.82 58.7314 555.103 58.7314ZM566.339 70.3115C568.949 70.3115 570.754 69.1514 570.754 66.9062C570.754 64.5215 568.745 63.9844 566.736 63.6729C564.695 63.3291 564.104 62.9424 564.104 61.9004C564.104 61.0195 564.781 60.2783 566.199 60.2783C567.66 60.2783 568.541 60.9766 568.595 62.0186H570.41C570.41 60.1064 568.734 58.7314 566.199 58.7314C563.589 58.7314 562.278 60.1494 562.278 61.9434C562.278 64.1562 564.072 64.876 566.113 65.1768C567.832 65.4561 568.874 65.7783 568.874 67.0029C568.874 68.1094 568.015 68.8076 566.36 68.8076C564.556 68.8076 563.567 67.8408 563.546 66.6484L561.763 66.6377C561.763 68.5068 563.277 70.3115 566.339 70.3115ZM575.373 65.7998L575.631 62.7812V55.3906H573.729V62.7705L573.987 65.7998H575.373ZM574.696 70.2148C575.416 70.2148 575.91 69.71 575.91 69.0762C575.91 68.4424 575.416 67.916 574.696 67.916C573.977 67.916 573.493 68.4424 573.493 69.0762C573.493 69.6992 573.987 70.2148 574.696 70.2148Z" fill="white"/>
<rect x="706" y="32" width="188.083" height="37.0208" rx="18.5104" fill="#1EDC82"/>
<rect x="706" y="32" width="188.083" height="37.0208" rx="18.5104" stroke="#28282D"/>
<path d="M748.821 53.2396H750.285C752.215 53.2396 753.631 52.0947 753.631 50.0961V44.0258H751.958V50.0012C751.958 51.0649 751.294 51.7288 750.291 51.7288H748.821V53.2396ZM762.147 49.6354C762.147 47.7181 760.738 46.065 758.638 46.065C756.545 46.065 755.027 47.7249 755.027 49.7573C755.027 51.7898 756.545 53.4496 758.638 53.4496C760.372 53.4496 761.612 52.3047 761.964 51.0513H760.176C759.939 51.6407 759.431 51.9863 758.604 51.9863C757.642 51.9863 756.843 51.3291 756.673 50.1909H762.114C762.141 49.9335 762.147 49.8115 762.147 49.6354ZM756.741 48.924C757.019 47.9417 757.805 47.4945 758.631 47.4945C759.593 47.4945 760.406 48.1449 760.474 48.924H756.741ZM766.219 53.2396H767.635V51.8779H766.558C766.036 51.8779 765.548 51.6407 765.548 50.6652V47.6842H767.635V46.275H765.548V44.2222L763.909 44.2358V46.275H762.466V47.6842H763.909V50.5906C763.909 52.8873 765.169 53.2396 766.219 53.2396ZM768.428 53.2396H774.43V51.8575H770.684L774.268 47.3048V46.275H768.611V47.6571H772.039L768.428 52.2234V53.2396ZM778.577 53.2396H779.992V51.8779H778.915C778.394 51.8779 777.906 51.6407 777.906 50.6652V47.6842H779.992V46.275H777.906V44.2222L776.266 44.2358V46.275H774.823V47.6842H776.266V50.5906C776.266 52.8873 777.526 53.2396 778.577 53.2396ZM791.334 49.6354C791.334 47.7181 789.924 46.065 787.824 46.065C785.731 46.065 784.213 47.7249 784.213 49.7573C784.213 51.7898 785.731 53.4496 787.824 53.4496C789.559 53.4496 790.798 52.3047 791.151 51.0513H789.362C789.125 51.6407 788.617 51.9863 787.79 51.9863C786.828 51.9863 786.029 51.3291 785.86 50.1909H791.3C791.327 49.9335 791.334 49.8115 791.334 49.6354ZM785.927 48.924C786.205 47.9417 786.991 47.4945 787.817 47.4945C788.78 47.4945 789.593 48.1449 789.66 48.924H785.927ZM792.675 53.2396H794.315V49.6828C794.315 48.321 795.195 47.5758 796.157 47.5758C797.147 47.5758 797.77 48.1381 797.77 49.5202V53.2396H799.409V49.4863C799.409 47.298 798.481 46.065 796.611 46.065C795.541 46.065 794.633 46.6002 794.233 47.359V46.275H792.675V53.2396ZM803.996 53.2396H805.412V51.8779H804.335C803.813 51.8779 803.325 51.6407 803.325 50.6652V47.6842H805.412V46.275H803.325V44.2222L801.686 44.2358V46.275H800.243V47.6842H801.686V50.5906C801.686 52.8873 802.946 53.2396 803.996 53.2396ZM809.423 53.4496C810.588 53.4496 811.421 52.7993 811.835 52.0676V53.2396H813.393V43.7006H811.76V46.6883L811.794 47.4132C811.428 46.756 810.581 46.065 809.443 46.065C807.41 46.065 806.056 47.7249 806.056 49.7573C806.056 51.8033 807.444 53.4496 809.423 53.4496ZM809.721 51.9388C808.522 51.9388 807.668 50.9904 807.668 49.7573C807.668 48.4904 808.562 47.5826 809.721 47.5826C810.872 47.5826 811.774 48.5378 811.774 49.7573C811.774 50.9904 810.866 51.9388 809.721 51.9388ZM821.943 49.6354C821.943 47.7181 820.533 46.065 818.433 46.065C816.34 46.065 814.822 47.7249 814.822 49.7573C814.822 51.7898 816.34 53.4496 818.433 53.4496C820.168 53.4496 821.407 52.3047 821.76 51.0513H819.971C819.734 51.6407 819.226 51.9863 818.399 51.9863C817.437 51.9863 816.638 51.3291 816.469 50.1909H821.909C821.936 49.9335 821.943 49.8115 821.943 49.6354ZM816.536 48.924C816.814 47.9417 817.6 47.4945 818.426 47.4945C819.389 47.4945 820.202 48.1449 820.269 48.924H816.536ZM826.387 53.4496C828.176 53.4496 829.49 52.3047 829.849 50.6923H828.182C827.877 51.5594 827.186 51.9321 826.394 51.9321C825.391 51.9321 824.416 51.1326 824.416 49.7573C824.416 48.3888 825.384 47.5894 826.394 47.5894C827.186 47.5894 827.871 47.962 828.182 48.7343H829.856C829.463 47.2032 828.182 46.065 826.387 46.065C824.307 46.065 822.79 47.7316 822.79 49.7573C822.79 51.7898 824.307 53.4496 826.387 53.4496ZM835.73 53.2396H837.572L835.113 49.0324L837.274 46.275H835.276L832.823 49.5405V43.7006H831.184V53.2396H832.823V51.302L833.921 50.1028L835.73 53.2396ZM844.855 49.6354C844.855 47.7181 843.446 46.065 841.346 46.065C839.253 46.065 837.735 47.7249 837.735 49.7573C837.735 51.7898 839.253 53.4496 841.346 53.4496C843.08 53.4496 844.32 52.3047 844.672 51.0513H842.884C842.647 51.6407 842.139 51.9863 841.312 51.9863C840.35 51.9863 839.551 51.3291 839.381 50.1909H844.822C844.849 49.9335 844.855 49.8115 844.855 49.6354ZM839.449 48.924C839.727 47.9417 840.513 47.4945 841.339 47.4945C842.301 47.4945 843.114 48.1449 843.182 48.924H839.449ZM846.197 53.2396H847.836V49.6828C847.836 48.321 848.717 47.5758 849.679 47.5758C850.668 47.5758 851.292 48.1381 851.292 49.5202V53.2396H852.931V49.4863C852.931 47.298 852.003 46.065 850.133 46.065C849.063 46.065 848.155 46.6002 847.755 47.359V46.275H846.197V53.2396Z" fill="#161528"/>
</svg>
