<svg width="285" height="48" viewBox="0 0 285 48" fill="none" xmlns="http://www.w3.org/2000/svg">
<rect width="285" height="48" rx="24" fill="#1EDC82"/>
<rect width="285" height="48" rx="24" stroke="#28282D"/>
<path d="M57.3447 27.5H59.6562L54.6816 15.5381H52.6074L47.6328 27.5H49.9443L50.8936 25.1885H56.3955L57.3447 27.5ZM51.6406 23.3604L53.5654 18.6494L53.6357 18.3594H53.6621L53.7148 18.6494L55.6484 23.3604H51.6406ZM66.8984 27.5H69.2891L66.0986 22.042L68.9023 18.4648H66.3096L63.1279 22.7012V15.125H61.001V27.5H63.1279V24.9863L64.5518 23.4307L66.8984 27.5ZM74.3516 27.5H76.1885V25.7334H74.791C74.1143 25.7334 73.4814 25.4258 73.4814 24.1602V20.293H76.1885V18.4648H73.4814V15.8018L71.3545 15.8193V18.4648H69.4824V20.293H71.3545V24.0635C71.3545 27.043 72.9893 27.5 74.3516 27.5ZM81.8662 27.7725C84.2568 27.7725 86.1025 26.5068 86.1025 23.29V18.4648H83.9844V23.2285C83.9844 24.8809 83.2812 25.7949 81.8574 25.7949C80.4424 25.7949 79.7217 24.8984 79.7217 23.2285V18.4648H77.6123V23.29C77.6123 26.5068 79.4492 27.7725 81.8662 27.7725ZM97.001 22.8242C97.001 20.3369 95.1729 18.1924 92.4482 18.1924C89.7324 18.1924 87.7637 20.3457 87.7637 22.9824C87.7637 25.6191 89.7324 27.7725 92.4482 27.7725C94.6982 27.7725 96.3066 26.2871 96.7637 24.6611H94.4434C94.1357 25.4258 93.4766 25.874 92.4043 25.874C91.1562 25.874 90.1191 25.0215 89.8994 23.5449H96.957C96.9922 23.2109 97.001 23.0527 97.001 22.8242ZM89.9873 21.9014C90.3477 20.627 91.3672 20.0469 92.4395 20.0469C93.6875 20.0469 94.7422 20.8906 94.8301 21.9014H89.9873ZM98.7412 27.5H100.868V15.1162H98.7412V27.5ZM103.364 27.5H105.491V15.1162H103.364V27.5ZM116.583 22.8242C116.583 20.3369 114.755 18.1924 112.03 18.1924C109.314 18.1924 107.346 20.3457 107.346 22.9824C107.346 25.6191 109.314 27.7725 112.03 27.7725C114.28 27.7725 115.889 26.2871 116.346 24.6611H114.025C113.718 25.4258 113.059 25.874 111.986 25.874C110.738 25.874 109.701 25.0215 109.481 23.5449H116.539C116.574 23.2109 116.583 23.0527 116.583 22.8242ZM109.569 21.9014C109.93 20.627 110.949 20.0469 112.021 20.0469C113.27 20.0469 114.324 20.8906 114.412 21.9014H109.569ZM121.812 27.5H123.711C126.216 27.5 128.053 26.0146 128.053 23.4219V15.5469H125.882V23.2988C125.882 24.6787 125.021 25.54 123.72 25.54H121.812V27.5ZM134.609 27.7725C137.396 27.7725 139.391 25.6455 139.391 22.9824C139.391 20.3369 137.396 18.1924 134.618 18.1924C131.85 18.1924 129.863 20.3457 129.863 22.9824C129.863 25.6367 131.858 27.7725 134.609 27.7725ZM134.627 25.7949C133.106 25.7949 131.973 24.6172 131.973 22.9824C131.973 21.3564 133.106 20.1611 134.627 20.1611C136.147 20.1611 137.281 21.3564 137.281 22.9824C137.281 24.6172 136.147 25.7949 134.627 25.7949ZM146.396 27.7725C148.918 27.7725 150.772 25.6367 150.772 22.9824C150.772 20.3457 148.936 18.2012 146.369 18.2012C145.068 18.2012 143.917 18.8955 143.319 19.9414L143.372 18.7549V15.125H141.245V27.5H143.267V25.9795C143.882 27.0869 145.077 27.7725 146.396 27.7725ZM146.009 25.8125C144.567 25.8125 143.346 24.6348 143.346 22.9824C143.346 21.4004 144.532 20.1611 146 20.1611C147.468 20.1611 148.663 21.2861 148.663 22.9824C148.663 24.7314 147.441 25.8125 146.009 25.8125ZM156.477 27.7725C157.944 27.7725 159.14 27.1045 159.729 25.9795V27.5H161.75V18.4648H159.729V19.9941C159.148 18.8691 157.944 18.1924 156.468 18.1924C154.051 18.1924 152.223 20.3457 152.223 22.9824C152.223 25.6367 154.033 27.7725 156.477 27.7725ZM156.986 25.8037C155.554 25.8037 154.332 24.7402 154.332 22.9824C154.332 21.2861 155.527 20.1611 156.986 20.1611C158.463 20.1611 159.641 21.4092 159.641 22.9824C159.641 24.582 158.472 25.8037 156.986 25.8037ZM164.255 27.5H166.382V22.8857C166.382 21.1191 167.524 20.1523 168.772 20.1523C170.056 20.1523 170.864 20.8818 170.864 22.6748V27.5H172.991V22.6309C172.991 19.792 171.787 18.1924 169.361 18.1924C167.973 18.1924 166.795 18.8867 166.276 19.8711V18.4648H164.255V27.5ZM179.557 30.9277C182.624 30.9277 184.303 29.0029 184.303 26.4629V18.4648H182.281V20.0029C181.807 19.0713 180.69 18.1924 179.073 18.1924C176.56 18.1924 174.775 20.3457 174.775 22.7979C174.775 25.2588 176.577 27.2803 179.144 27.2803C180.488 27.2803 181.657 26.7529 182.272 25.5664V26.4893C182.272 27.9043 181.517 29.1348 179.548 29.1348C177.939 29.1348 177.333 28.4404 177.148 27.4912H175.145C175.206 29.2051 176.472 30.9277 179.557 30.9277ZM179.539 25.4346C178.045 25.4346 176.885 24.3184 176.885 22.7891C176.885 21.2334 178.045 20.1611 179.539 20.1611C181.033 20.1611 182.193 21.3828 182.193 22.7891C182.193 24.2305 181.024 25.4346 179.539 25.4346ZM195.403 22.8242C195.403 20.3369 193.575 18.1924 190.851 18.1924C188.135 18.1924 186.166 20.3457 186.166 22.9824C186.166 25.6191 188.135 27.7725 190.851 27.7725C193.101 27.7725 194.709 26.2871 195.166 24.6611H192.846C192.538 25.4258 191.879 25.874 190.807 25.874C189.559 25.874 188.521 25.0215 188.302 23.5449H195.359C195.395 23.2109 195.403 23.0527 195.403 22.8242ZM188.39 21.9014C188.75 20.627 189.77 20.0469 190.842 20.0469C192.09 20.0469 193.145 20.8906 193.232 21.9014H188.39ZM202.294 27.7725C204.816 27.7725 206.671 25.6367 206.671 22.9824C206.671 20.3457 204.834 18.2012 202.268 18.2012C200.967 18.2012 199.815 18.8955 199.218 19.9414L199.271 18.7549V15.125H197.144V27.5H199.165V25.9795C199.78 27.0869 200.976 27.7725 202.294 27.7725ZM201.907 25.8125C200.466 25.8125 199.244 24.6348 199.244 22.9824C199.244 21.4004 200.431 20.1611 201.898 20.1611C203.366 20.1611 204.562 21.2861 204.562 22.9824C204.562 24.7314 203.34 25.8125 201.907 25.8125ZM212.867 27.7725C215.653 27.7725 217.648 25.6455 217.648 22.9824C217.648 20.3369 215.653 18.1924 212.876 18.1924C210.107 18.1924 208.121 20.3457 208.121 22.9824C208.121 25.6367 210.116 27.7725 212.867 27.7725ZM212.885 25.7949C211.364 25.7949 210.23 24.6172 210.23 22.9824C210.23 21.3564 211.364 20.1611 212.885 20.1611C214.405 20.1611 215.539 21.3564 215.539 22.9824C215.539 24.6172 214.405 25.7949 212.885 25.7949ZM223.045 27.5H224.882V25.7334H223.484C222.808 25.7334 222.175 25.4258 222.175 24.1602V20.293H224.882V18.4648H222.175V15.8018L220.048 15.8193V18.4648H218.176V20.293H220.048V24.0635C220.048 27.043 221.683 27.5 223.045 27.5ZM234.954 22.8242C234.954 20.3369 233.126 18.1924 230.401 18.1924C227.686 18.1924 225.717 20.3457 225.717 22.9824C225.717 25.6191 227.686 27.7725 230.401 27.7725C232.651 27.7725 234.26 26.2871 234.717 24.6611H232.396C232.089 25.4258 231.43 25.874 230.357 25.874C229.109 25.874 228.072 25.0215 227.853 23.5449H234.91C234.945 23.2109 234.954 23.0527 234.954 22.8242ZM227.94 21.9014C228.301 20.627 229.32 20.0469 230.393 20.0469C231.641 20.0469 232.695 20.8906 232.783 21.9014H227.94Z" fill="#161528"/>
</svg>
