<svg width="285" height="124" viewBox="0 0 285 124" fill="none" xmlns="http://www.w3.org/2000/svg">
<rect y="76" width="285" height="48" rx="24" fill="#1EDC82"/>
<rect y="76" width="285" height="48" rx="24" stroke="#28282D"/>
<path d="M57.3447 103.5H59.6562L54.6816 91.5381H52.6074L47.6328 103.5H49.9443L50.8936 101.188H56.3955L57.3447 103.5ZM51.6406 99.3604L53.5654 94.6494L53.6357 94.3594H53.6621L53.7148 94.6494L55.6484 99.3604H51.6406ZM66.8984 103.5H69.2891L66.0986 98.042L68.9023 94.4648H66.3096L63.1279 98.7012V91.125H61.001V103.5H63.1279V100.986L64.5518 99.4307L66.8984 103.5ZM74.3516 103.5H76.1885V101.733H74.791C74.1143 101.733 73.4814 101.426 73.4814 100.16V96.293H76.1885V94.4648H73.4814V91.8018L71.3545 91.8193V94.4648H69.4824V96.293H71.3545V100.063C71.3545 103.043 72.9893 103.5 74.3516 103.5ZM81.8662 103.772C84.2568 103.772 86.1025 102.507 86.1025 99.29V94.4648H83.9844V99.2285C83.9844 100.881 83.2812 101.795 81.8574 101.795C80.4424 101.795 79.7217 100.898 79.7217 99.2285V94.4648H77.6123V99.29C77.6123 102.507 79.4492 103.772 81.8662 103.772ZM97.001 98.8242C97.001 96.3369 95.1729 94.1924 92.4482 94.1924C89.7324 94.1924 87.7637 96.3457 87.7637 98.9824C87.7637 101.619 89.7324 103.772 92.4482 103.772C94.6982 103.772 96.3066 102.287 96.7637 100.661H94.4434C94.1357 101.426 93.4766 101.874 92.4043 101.874C91.1562 101.874 90.1191 101.021 89.8994 99.5449H96.957C96.9922 99.2109 97.001 99.0527 97.001 98.8242ZM89.9873 97.9014C90.3477 96.627 91.3672 96.0469 92.4395 96.0469C93.6875 96.0469 94.7422 96.8906 94.8301 97.9014H89.9873ZM98.7412 103.5H100.868V91.1162H98.7412V103.5ZM103.364 103.5H105.491V91.1162H103.364V103.5ZM116.583 98.8242C116.583 96.3369 114.755 94.1924 112.03 94.1924C109.314 94.1924 107.346 96.3457 107.346 98.9824C107.346 101.619 109.314 103.772 112.03 103.772C114.28 103.772 115.889 102.287 116.346 100.661H114.025C113.718 101.426 113.059 101.874 111.986 101.874C110.738 101.874 109.701 101.021 109.481 99.5449H116.539C116.574 99.2109 116.583 99.0527 116.583 98.8242ZM109.569 97.9014C109.93 96.627 110.949 96.0469 112.021 96.0469C113.27 96.0469 114.324 96.8906 114.412 97.9014H109.569ZM121.812 103.5H123.711C126.216 103.5 128.053 102.015 128.053 99.4219V91.5469H125.882V99.2988C125.882 100.679 125.021 101.54 123.72 101.54H121.812V103.5ZM134.609 103.772C137.396 103.772 139.391 101.646 139.391 98.9824C139.391 96.3369 137.396 94.1924 134.618 94.1924C131.85 94.1924 129.863 96.3457 129.863 98.9824C129.863 101.637 131.858 103.772 134.609 103.772ZM134.627 101.795C133.106 101.795 131.973 100.617 131.973 98.9824C131.973 97.3564 133.106 96.1611 134.627 96.1611C136.147 96.1611 137.281 97.3564 137.281 98.9824C137.281 100.617 136.147 101.795 134.627 101.795ZM146.396 103.772C148.918 103.772 150.772 101.637 150.772 98.9824C150.772 96.3457 148.936 94.2012 146.369 94.2012C145.068 94.2012 143.917 94.8955 143.319 95.9414L143.372 94.7549V91.125H141.245V103.5H143.267V101.979C143.882 103.087 145.077 103.772 146.396 103.772ZM146.009 101.812C144.567 101.812 143.346 100.635 143.346 98.9824C143.346 97.4004 144.532 96.1611 146 96.1611C147.468 96.1611 148.663 97.2861 148.663 98.9824C148.663 100.731 147.441 101.812 146.009 101.812ZM156.477 103.772C157.944 103.772 159.14 103.104 159.729 101.979V103.5H161.75V94.4648H159.729V95.9941C159.148 94.8691 157.944 94.1924 156.468 94.1924C154.051 94.1924 152.223 96.3457 152.223 98.9824C152.223 101.637 154.033 103.772 156.477 103.772ZM156.986 101.804C155.554 101.804 154.332 100.74 154.332 98.9824C154.332 97.2861 155.527 96.1611 156.986 96.1611C158.463 96.1611 159.641 97.4092 159.641 98.9824C159.641 100.582 158.472 101.804 156.986 101.804ZM164.255 103.5H166.382V98.8857C166.382 97.1191 167.524 96.1523 168.772 96.1523C170.056 96.1523 170.864 96.8818 170.864 98.6748V103.5H172.991V98.6309C172.991 95.792 171.787 94.1924 169.361 94.1924C167.973 94.1924 166.795 94.8867 166.276 95.8711V94.4648H164.255V103.5ZM179.557 106.928C182.624 106.928 184.303 105.003 184.303 102.463V94.4648H182.281V96.0029C181.807 95.0713 180.69 94.1924 179.073 94.1924C176.56 94.1924 174.775 96.3457 174.775 98.7979C174.775 101.259 176.577 103.28 179.144 103.28C180.488 103.28 181.657 102.753 182.272 101.566V102.489C182.272 103.904 181.517 105.135 179.548 105.135C177.939 105.135 177.333 104.44 177.148 103.491H175.145C175.206 105.205 176.472 106.928 179.557 106.928ZM179.539 101.435C178.045 101.435 176.885 100.318 176.885 98.7891C176.885 97.2334 178.045 96.1611 179.539 96.1611C181.033 96.1611 182.193 97.3828 182.193 98.7891C182.193 100.23 181.024 101.435 179.539 101.435ZM195.403 98.8242C195.403 96.3369 193.575 94.1924 190.851 94.1924C188.135 94.1924 186.166 96.3457 186.166 98.9824C186.166 101.619 188.135 103.772 190.851 103.772C193.101 103.772 194.709 102.287 195.166 100.661H192.846C192.538 101.426 191.879 101.874 190.807 101.874C189.559 101.874 188.521 101.021 188.302 99.5449H195.359C195.395 99.2109 195.403 99.0527 195.403 98.8242ZM188.39 97.9014C188.75 96.627 189.77 96.0469 190.842 96.0469C192.09 96.0469 193.145 96.8906 193.232 97.9014H188.39ZM202.294 103.772C204.816 103.772 206.671 101.637 206.671 98.9824C206.671 96.3457 204.834 94.2012 202.268 94.2012C200.967 94.2012 199.815 94.8955 199.218 95.9414L199.271 94.7549V91.125H197.144V103.5H199.165V101.979C199.78 103.087 200.976 103.772 202.294 103.772ZM201.907 101.812C200.466 101.812 199.244 100.635 199.244 98.9824C199.244 97.4004 200.431 96.1611 201.898 96.1611C203.366 96.1611 204.562 97.2861 204.562 98.9824C204.562 100.731 203.34 101.812 201.907 101.812ZM212.867 103.772C215.653 103.772 217.648 101.646 217.648 98.9824C217.648 96.3369 215.653 94.1924 212.876 94.1924C210.107 94.1924 208.121 96.3457 208.121 98.9824C208.121 101.637 210.116 103.772 212.867 103.772ZM212.885 101.795C211.364 101.795 210.23 100.617 210.23 98.9824C210.23 97.3564 211.364 96.1611 212.885 96.1611C214.405 96.1611 215.539 97.3564 215.539 98.9824C215.539 100.617 214.405 101.795 212.885 101.795ZM223.045 103.5H224.882V101.733H223.484C222.808 101.733 222.175 101.426 222.175 100.16V96.293H224.882V94.4648H222.175V91.8018L220.048 91.8193V94.4648H218.176V96.293H220.048V100.063C220.048 103.043 221.683 103.5 223.045 103.5ZM234.954 98.8242C234.954 96.3369 233.126 94.1924 230.401 94.1924C227.686 94.1924 225.717 96.3457 225.717 98.9824C225.717 101.619 227.686 103.772 230.401 103.772C232.651 103.772 234.26 102.287 234.717 100.661H232.396C232.089 101.426 231.43 101.874 230.357 101.874C229.109 101.874 228.072 101.021 227.853 99.5449H234.91C234.945 99.2109 234.954 99.0527 234.954 98.8242ZM227.94 97.9014C228.301 96.627 229.32 96.0469 230.393 96.0469C231.641 96.0469 232.695 96.8906 232.783 97.9014H227.94Z" fill="#161528"/>
<path d="M21.4521 19H23.4717L17.2949 4.39062H15.4688L9.28125 19H11.3008L12.6865 15.6914H20.0664L21.4521 19ZM13.3633 14.0801L16.3066 7.06543L16.3711 6.81836H16.3926L16.4463 7.06543L19.3896 14.0801H13.3633ZM29.7773 19.3115C32.6348 19.3115 34.751 17.7002 34.751 13.8975V8.04297H32.9033V13.8438C32.9033 16.3145 31.7754 17.5713 29.7559 17.5713C27.7471 17.5713 26.6084 16.3037 26.6084 13.8438V8.04297H24.7715V13.8975C24.7715 17.7002 26.8662 19.3115 29.7773 19.3115ZM38.8115 19H40.6699V9.6543H43.7852V8.04297H40.6699V7.41992C40.6699 6.24902 41.3359 5.34668 42.4639 5.34668H43.8711V3.78906H42.0342C39.8105 3.78906 38.8115 5.48633 38.8115 7.26953V8.04297H36.4697V9.6543H38.8115V19ZM55.666 19.3115C57.6533 19.3115 59.2002 18.1514 59.8984 16.6689V19H61.6709V3.875H59.8232V9.28906L59.8662 10.3525C59.2324 9.03125 57.7285 7.73145 55.6768 7.73145C52.5293 7.73145 50.2734 10.3203 50.2734 13.5215C50.2734 16.7441 52.5723 19.3115 55.666 19.3115ZM55.9668 17.5928C53.7646 17.5928 52.1104 15.8203 52.1104 13.5215C52.1104 11.2012 53.8076 9.46094 55.9668 9.46094C58.126 9.46094 59.8447 11.2441 59.8447 13.5215C59.8447 15.8203 58.1152 17.5928 55.9668 17.5928ZM75.292 13.2529C75.292 10.3096 73.0361 7.73145 69.8779 7.73145C66.709 7.73145 64.3027 10.3203 64.3027 13.5215C64.3027 16.7334 66.709 19.3008 69.8779 19.3008C72.3701 19.3008 74.3252 17.7109 74.9482 15.7021H72.875C72.3916 16.9375 71.3066 17.582 69.835 17.582C68.0303 17.582 66.3975 16.207 66.1719 14.0049H75.2598C75.2812 13.6074 75.292 13.4463 75.292 13.2529ZM66.2578 12.3721C66.6768 10.4814 68.2021 9.47168 69.8457 9.47168C71.7148 9.47168 73.2939 10.8145 73.4014 12.3721H66.2578ZM77.752 19H79.6104V13.8438C79.6104 11.2012 81.0391 9.66504 82.9619 9.66504H83.9287V8.04297H82.8652C81.2754 8.04297 80.0723 8.97754 79.5352 10.4922V8.04297H77.752V19ZM96.293 19.3115C99.8809 19.3115 102.072 17.7002 102.072 14.9609C102.072 11.9639 99.3545 11.0723 96.9268 10.6855C94.3057 10.3311 92.834 9.67578 92.834 8.13965C92.834 6.93652 93.5645 5.74414 96.207 5.74414C98.3984 5.74414 99.5801 6.77539 99.5801 8.22559H101.492C101.492 5.78711 99.666 4.06836 96.2285 4.06836C92.4258 4.06836 90.9326 5.94824 90.9326 8.12891C90.9326 11.083 93.8975 11.8887 96.3359 12.2969C98.5166 12.6299 100.149 13.2422 100.149 14.9609C100.149 16.7656 98.7744 17.6787 96.2822 17.6787C93.876 17.6787 92.458 16.3037 92.458 14.7676H90.5566C90.5566 16.9805 92.3291 19.3115 96.293 19.3115ZM109.312 19.3115C112.17 19.3115 114.286 17.7002 114.286 13.8975V8.04297H112.438V13.8438C112.438 16.3145 111.311 17.5713 109.291 17.5713C107.282 17.5713 106.144 16.3037 106.144 13.8438V8.04297H104.307V13.8975C104.307 17.7002 106.401 19.3115 109.312 19.3115ZM122.214 19.3115C124.813 19.3115 126.833 17.6895 127.456 15.3262H125.565C124.996 16.8301 123.696 17.582 122.225 17.582C120.323 17.582 118.465 16.0459 118.465 13.5215C118.465 11.0186 120.312 9.47168 122.225 9.47168C123.707 9.47168 124.996 10.2129 125.565 11.6309H127.467C126.812 9.36426 124.824 7.73145 122.214 7.73145C119.045 7.73145 116.617 10.3203 116.617 13.5215C116.617 16.7227 119.045 19.3115 122.214 19.3115ZM129.938 19H131.785V13.2422C131.785 11.0078 133.45 9.46094 135.276 9.46094C137.178 9.46094 138.338 10.5674 138.338 13.0918V19H140.186V13.0596C140.186 9.55762 138.66 7.73145 135.749 7.73145C133.891 7.73145 132.408 8.70898 131.753 10.127L131.785 8.95605V3.875H129.938V19ZM153.667 13.2529C153.667 10.3096 151.411 7.73145 148.253 7.73145C145.084 7.73145 142.678 10.3203 142.678 13.5215C142.678 16.7334 145.084 19.3008 148.253 19.3008C150.745 19.3008 152.7 17.7109 153.323 15.7021H151.25C150.767 16.9375 149.682 17.582 148.21 17.582C146.405 17.582 144.772 16.207 144.547 14.0049H153.635C153.656 13.6074 153.667 13.4463 153.667 13.2529ZM144.633 12.3721C145.052 10.4814 146.577 9.47168 148.221 9.47168C150.09 9.47168 151.669 10.8145 151.776 12.3721H144.633ZM161.562 19H163.41V13.2422C163.41 10.9004 165.075 9.46094 166.901 9.46094C168.803 9.46094 169.963 10.5674 169.963 13.0918V19H171.811V13.0596C171.811 9.55762 170.285 7.73145 167.374 7.73145C165.516 7.73145 163.958 8.75195 163.335 10.1592V8.04297H161.562V19ZM179.599 19.3115C181.554 19.3115 183.197 18.291 183.938 16.6689V19H185.711V8.04297H183.938V10.3955C183.197 8.7627 181.564 7.74219 179.588 7.74219C176.612 7.74219 174.303 10.3203 174.303 13.5215C174.303 16.7441 176.602 19.3115 179.599 19.3115ZM180.007 17.582C177.901 17.582 176.14 15.9492 176.14 13.5215C176.14 11.1582 177.88 9.47168 180.018 9.47168C182.145 9.47168 183.874 11.2549 183.874 13.5215C183.874 15.8203 182.155 17.582 180.007 17.582ZM193.929 19.3115C196.528 19.3115 198.548 17.6895 199.171 15.3262H197.28C196.711 16.8301 195.411 17.582 193.939 17.582C192.038 17.582 190.18 16.0459 190.18 13.5215C190.18 11.0186 192.027 9.47168 193.939 9.47168C195.422 9.47168 196.711 10.2129 197.28 11.6309H199.182C198.526 9.36426 196.539 7.73145 193.929 7.73145C190.76 7.73145 188.332 10.3203 188.332 13.5215C188.332 16.7227 190.76 19.3115 193.929 19.3115ZM201.652 19H203.5V13.2422C203.5 11.0078 205.165 9.46094 206.991 9.46094C208.893 9.46094 210.053 10.5674 210.053 13.0918V19H211.9V13.0596C211.9 9.55762 210.375 7.73145 207.464 7.73145C205.605 7.73145 204.123 8.70898 203.468 10.127L203.5 8.95605V3.875H201.652V19ZM230.817 13.2529C230.817 10.3096 228.562 7.73145 225.403 7.73145C222.234 7.73145 219.828 10.3203 219.828 13.5215C219.828 16.7334 222.234 19.3008 225.403 19.3008C227.896 19.3008 229.851 17.7109 230.474 15.7021H228.4C227.917 16.9375 226.832 17.582 225.36 17.582C223.556 17.582 221.923 16.207 221.697 14.0049H230.785C230.807 13.6074 230.817 13.4463 230.817 13.2529ZM221.783 12.3721C222.202 10.4814 223.728 9.47168 225.371 9.47168C227.24 9.47168 228.819 10.8145 228.927 12.3721H221.783ZM234.19 5.90527C234.985 5.90527 235.469 5.37891 235.469 4.72363C235.469 4.0791 234.985 3.55273 234.201 3.55273C233.428 3.55273 232.944 4.0791 232.944 4.72363C232.944 5.37891 233.428 5.90527 234.19 5.90527ZM233.277 19H235.125V8.04297H233.277V19ZM238.67 19H240.518V13.2422C240.518 10.9004 242.183 9.46094 244.009 9.46094C245.91 9.46094 247.07 10.5674 247.07 13.0918V19H248.918V13.0596C248.918 9.55762 247.393 7.73145 244.481 7.73145C242.623 7.73145 241.065 8.75195 240.442 10.1592V8.04297H238.67V19ZM262.399 13.2529C262.399 10.3096 260.144 7.73145 256.985 7.73145C253.816 7.73145 251.41 10.3203 251.41 13.5215C251.41 16.7334 253.816 19.3008 256.985 19.3008C259.478 19.3008 261.433 17.7109 262.056 15.7021H259.982C259.499 16.9375 258.414 17.582 256.942 17.582C255.138 17.582 253.505 16.207 253.279 14.0049H262.367C262.389 13.6074 262.399 13.4463 262.399 13.2529ZM253.365 12.3721C253.784 10.4814 255.31 9.47168 256.953 9.47168C258.822 9.47168 260.401 10.8145 260.509 12.3721H253.365ZM264.859 19H266.718V13.8438C266.718 11.2012 268.146 9.66504 270.069 9.66504H271.036V8.04297H269.973C268.383 8.04297 267.18 8.97754 266.643 10.4922V8.04297H264.859V19ZM15.3506 45H17.1982V39.2422C17.1982 36.9004 18.8633 35.4609 20.6895 35.4609C22.5908 35.4609 23.751 36.5674 23.751 39.0918V45H25.5986V39.0596C25.5986 35.5576 24.0732 33.7314 21.1621 33.7314C19.3037 33.7314 17.7461 34.752 17.123 36.1592V34.043H15.3506V45ZM39.0801 39.2529C39.0801 36.3096 36.8242 33.7314 33.666 33.7314C30.4971 33.7314 28.0908 36.3203 28.0908 39.5215C28.0908 42.7334 30.4971 45.3008 33.666 45.3008C36.1582 45.3008 38.1133 43.7109 38.7363 41.7021H36.6631C36.1797 42.9375 35.0947 43.582 33.623 43.582C31.8184 43.582 30.1855 42.207 29.96 40.0049H39.0479C39.0693 39.6074 39.0801 39.4463 39.0801 39.2529ZM30.0459 38.3721C30.4648 36.4814 31.9902 35.4717 33.6338 35.4717C35.5029 35.4717 37.082 36.8145 37.1895 38.3721H30.0459ZM46.2451 45.3115C49.1025 45.3115 51.2188 43.7002 51.2188 39.8975V34.043H49.3711V39.8438C49.3711 42.3145 48.2432 43.5713 46.2236 43.5713C44.2148 43.5713 43.0762 42.3037 43.0762 39.8438V34.043H41.2393V39.8975C41.2393 43.7002 43.334 45.3115 46.2451 45.3115ZM64.5391 39.2529C64.5391 36.3096 62.2832 33.7314 59.125 33.7314C55.9561 33.7314 53.5498 36.3203 53.5498 39.5215C53.5498 42.7334 55.9561 45.3008 59.125 45.3008C61.6172 45.3008 63.5723 43.7109 64.1953 41.7021H62.1221C61.6387 42.9375 60.5537 43.582 59.082 43.582C57.2773 43.582 55.6445 42.207 55.4189 40.0049H64.5068C64.5283 39.6074 64.5391 39.4463 64.5391 39.2529ZM55.5049 38.3721C55.9238 36.4814 57.4492 35.4717 59.0928 35.4717C60.9619 35.4717 62.541 36.8145 62.6484 38.3721H55.5049ZM66.999 45H68.8467V39.2422C68.8467 36.9004 70.5117 35.4609 72.3379 35.4609C74.2393 35.4609 75.3994 36.5674 75.3994 39.0918V45H77.2471V39.0596C77.2471 35.5576 75.7217 33.7314 72.8105 33.7314C70.9521 33.7314 69.3945 34.752 68.7715 36.1592V34.043H66.999V45ZM86.3135 45H88.2148V38.5332H96.6582V45H98.5703V30.3906H96.6582V36.8252H88.2148V30.3906H86.3135V45ZM112.406 39.2529C112.406 36.3096 110.15 33.7314 106.992 33.7314C103.823 33.7314 101.417 36.3203 101.417 39.5215C101.417 42.7334 103.823 45.3008 106.992 45.3008C109.484 45.3008 111.439 43.7109 112.062 41.7021H109.989C109.506 42.9375 108.421 43.582 106.949 43.582C105.145 43.582 103.512 42.207 103.286 40.0049H112.374C112.396 39.6074 112.406 39.4463 112.406 39.2529ZM103.372 38.3721C103.791 36.4814 105.316 35.4717 106.96 35.4717C108.829 35.4717 110.408 36.8145 110.516 38.3721H103.372ZM114.866 45H116.725V39.8438C116.725 37.2012 118.153 35.665 120.076 35.665H121.043V34.043H119.979C118.39 34.043 117.187 34.9775 116.649 36.4922V34.043H114.866V45ZM127.037 45.3115C128.992 45.3115 130.636 44.291 131.377 42.6689V45H133.149V34.043H131.377V36.3955C130.636 34.7627 129.003 33.7422 127.026 33.7422C124.051 33.7422 121.741 36.3203 121.741 39.5215C121.741 42.7441 124.04 45.3115 127.037 45.3115ZM127.445 43.582C125.34 43.582 123.578 41.9492 123.578 39.5215C123.578 37.1582 125.318 35.4717 127.456 35.4717C129.583 35.4717 131.312 37.2549 131.312 39.5215C131.312 41.8203 129.594 43.582 127.445 43.582ZM141.399 45.3115C144.257 45.3115 146.373 43.7002 146.373 39.8975V34.043H144.525V39.8438C144.525 42.3145 143.397 43.5713 141.378 43.5713C139.369 43.5713 138.23 42.3037 138.23 39.8438V34.043H136.394V39.8975C136.394 43.7002 138.488 45.3115 141.399 45.3115ZM153.28 45.3115C155.891 45.3115 157.695 44.1514 157.695 41.9062C157.695 39.5215 155.687 38.9844 153.678 38.6729C151.637 38.3291 151.046 37.9424 151.046 36.9004C151.046 36.0195 151.723 35.2783 153.141 35.2783C154.602 35.2783 155.482 35.9766 155.536 37.0186H157.352C157.352 35.1064 155.676 33.7314 153.141 33.7314C150.53 33.7314 149.22 35.1494 149.22 36.9434C149.22 39.1562 151.014 39.876 153.055 40.1768C154.773 40.4561 155.815 40.7783 155.815 42.0029C155.815 43.1094 154.956 43.8076 153.302 43.8076C151.497 43.8076 150.509 42.8408 150.487 41.6484L148.704 41.6377C148.704 43.5068 150.219 45.3115 153.28 45.3115ZM161.025 45H162.884V35.6543H165.999V34.043H162.884V33.4199C162.884 32.249 163.55 31.3467 164.678 31.3467H166.085V29.7891H164.248C162.024 29.7891 161.025 31.4863 161.025 33.2695V34.043H158.684V35.6543H161.025V45ZM172.423 45.3115C175.699 45.3115 178.138 42.7441 178.138 39.5215C178.138 36.3096 175.688 33.7314 172.423 33.7314C169.168 33.7314 166.729 36.3203 166.729 39.5215C166.729 42.7441 169.179 45.3115 172.423 45.3115ZM172.444 43.5713C170.264 43.5713 168.577 41.8525 168.577 39.5215C168.577 37.2119 170.264 35.4717 172.444 35.4717C174.614 35.4717 176.29 37.2119 176.29 39.5215C176.29 41.8525 174.614 43.5713 172.444 43.5713ZM180.759 45H182.617V39.8438C182.617 37.2012 184.046 35.665 185.969 35.665H186.936V34.043H185.872C184.282 34.043 183.079 34.9775 182.542 36.4922V34.043H180.759V45ZM193.026 45.3115C195.014 45.3115 196.561 44.1514 197.259 42.6689V45H199.031V29.875H197.184V35.2891L197.227 36.3525C196.593 35.0312 195.089 33.7314 193.037 33.7314C189.89 33.7314 187.634 36.3203 187.634 39.5215C187.634 42.7441 189.933 45.3115 193.026 45.3115ZM193.327 43.5928C191.125 43.5928 189.471 41.8203 189.471 39.5215C189.471 37.2012 191.168 35.4609 193.327 35.4609C195.486 35.4609 197.205 37.2441 197.205 39.5215C197.205 41.8203 195.476 43.5928 193.327 43.5928ZM212.652 39.2529C212.652 36.3096 210.396 33.7314 207.238 33.7314C204.069 33.7314 201.663 36.3203 201.663 39.5215C201.663 42.7334 204.069 45.3008 207.238 45.3008C209.73 45.3008 211.686 43.7109 212.309 41.7021H210.235C209.752 42.9375 208.667 43.582 207.195 43.582C205.391 43.582 203.758 42.207 203.532 40.0049H212.62C212.642 39.6074 212.652 39.4463 212.652 39.2529ZM203.618 38.3721C204.037 36.4814 205.562 35.4717 207.206 35.4717C209.075 35.4717 210.654 36.8145 210.762 38.3721H203.618ZM215.112 45H216.971V39.8438C216.971 37.2012 218.399 35.665 220.322 35.665H221.289V34.043H220.226C218.636 34.043 217.433 34.9775 216.896 36.4922V34.043H215.112V45ZM228.153 45.3115C231.011 45.3115 233.127 43.7002 233.127 39.8975V34.043H231.279V39.8438C231.279 42.3145 230.151 43.5713 228.132 43.5713C226.123 43.5713 224.984 42.3037 224.984 39.8438V34.043H223.147V39.8975C223.147 43.7002 225.242 45.3115 228.153 45.3115ZM236.382 45H238.229V39.2422C238.229 36.9004 239.895 35.4609 241.721 35.4609C243.622 35.4609 244.782 36.5674 244.782 39.0918V45H246.63V39.0596C246.63 35.5576 245.104 33.7314 242.193 33.7314C240.335 33.7314 238.777 34.752 238.154 36.1592V34.043H236.382V45ZM254.848 49.125C258.683 49.125 260.53 46.5791 260.53 43.5283V34.043H258.758V36.3955C258.103 34.9453 256.545 33.7422 254.45 33.7422C251.399 33.7422 249.122 36.3203 249.122 39.3174C249.122 42.3359 251.421 44.7959 254.504 44.7959C256.362 44.7959 257.984 43.8936 258.758 42.2285V43.582C258.758 45.623 257.694 47.5459 254.848 47.5459C252.463 47.5459 251.55 46.3857 251.335 45.0645H249.584C249.702 47.0625 251.163 49.125 254.848 49.125ZM254.826 43.1631C252.678 43.1631 250.959 41.498 250.959 39.3174C250.959 37.1152 252.678 35.4717 254.837 35.4717C256.985 35.4717 258.693 37.2334 258.693 39.3174C258.693 41.4229 256.975 43.1631 254.826 43.1631ZM265.944 40.7891H267.717V40.1982C267.717 39.2207 268.297 38.5117 269.231 37.7598C270.413 36.8037 271.756 35.751 271.756 33.9248C271.756 31.6152 269.897 30.0684 267.201 30.0684C264.183 30.0684 262.561 31.8086 262.561 34.1611H264.43C264.43 32.6787 265.439 31.7871 267.147 31.7871C268.974 31.7871 269.897 32.6895 269.897 34.0215C269.897 34.9883 268.898 35.7402 267.889 36.6533C266.868 37.5771 265.944 38.6299 265.944 40.1553V40.7891ZM266.911 45.2256C267.631 45.2256 268.136 44.71 268.136 44.0762C268.136 43.4424 267.631 42.916 266.911 42.916C266.191 42.916 265.697 43.4424 265.697 44.0762C265.697 44.6992 266.202 45.2256 266.911 45.2256Z" fill="white"/>
</svg>
