<svg width="202" height="163" viewBox="0 0 202 163" fill="none" xmlns="http://www.w3.org/2000/svg">
<path d="M40.7041 19H42.7236L36.5469 4.39062H34.7207L28.5332 19H30.5527L31.9385 15.6914H39.3184L40.7041 19ZM32.6152 14.0801L35.5586 7.06543L35.623 6.81836H35.6445L35.6982 7.06543L38.6416 14.0801H32.6152ZM49.0293 19.3115C51.8867 19.3115 54.0029 17.7002 54.0029 13.8975V8.04297H52.1553V13.8438C52.1553 16.3145 51.0273 17.5713 49.0078 17.5713C46.999 17.5713 45.8604 16.3037 45.8604 13.8438V8.04297H44.0234V13.8975C44.0234 17.7002 46.1182 19.3115 49.0293 19.3115ZM58.0635 19H59.9219V9.6543H63.0371V8.04297H59.9219V7.41992C59.9219 6.24902 60.5879 5.34668 61.7158 5.34668H63.123V3.78906H61.2861C59.0625 3.78906 58.0635 5.48633 58.0635 7.26953V8.04297H55.7217V9.6543H58.0635V19ZM74.918 19.3115C76.9053 19.3115 78.4521 18.1514 79.1504 16.6689V19H80.9229V3.875H79.0752V9.28906L79.1182 10.3525C78.4844 9.03125 76.9805 7.73145 74.9287 7.73145C71.7812 7.73145 69.5254 10.3203 69.5254 13.5215C69.5254 16.7441 71.8242 19.3115 74.918 19.3115ZM75.2188 17.5928C73.0166 17.5928 71.3623 15.8203 71.3623 13.5215C71.3623 11.2012 73.0596 9.46094 75.2188 9.46094C77.3779 9.46094 79.0967 11.2441 79.0967 13.5215C79.0967 15.8203 77.3672 17.5928 75.2188 17.5928ZM94.5439 13.2529C94.5439 10.3096 92.2881 7.73145 89.1299 7.73145C85.9609 7.73145 83.5547 10.3203 83.5547 13.5215C83.5547 16.7334 85.9609 19.3008 89.1299 19.3008C91.6221 19.3008 93.5771 17.7109 94.2002 15.7021H92.127C91.6436 16.9375 90.5586 17.582 89.0869 17.582C87.2822 17.582 85.6494 16.207 85.4238 14.0049H94.5117C94.5332 13.6074 94.5439 13.4463 94.5439 13.2529ZM85.5098 12.3721C85.9287 10.4814 87.4541 9.47168 89.0977 9.47168C90.9668 9.47168 92.5459 10.8145 92.6533 12.3721H85.5098ZM97.0039 19H98.8623V13.8438C98.8623 11.2012 100.291 9.66504 102.214 9.66504H103.181V8.04297H102.117C100.527 8.04297 99.3242 8.97754 98.7871 10.4922V8.04297H97.0039V19ZM115.545 19.3115C119.133 19.3115 121.324 17.7002 121.324 14.9609C121.324 11.9639 118.606 11.0723 116.179 10.6855C113.558 10.3311 112.086 9.67578 112.086 8.13965C112.086 6.93652 112.816 5.74414 115.459 5.74414C117.65 5.74414 118.832 6.77539 118.832 8.22559H120.744C120.744 5.78711 118.918 4.06836 115.48 4.06836C111.678 4.06836 110.185 5.94824 110.185 8.12891C110.185 11.083 113.149 11.8887 115.588 12.2969C117.769 12.6299 119.401 13.2422 119.401 14.9609C119.401 16.7656 118.026 17.6787 115.534 17.6787C113.128 17.6787 111.71 16.3037 111.71 14.7676H109.809C109.809 16.9805 111.581 19.3115 115.545 19.3115ZM128.564 19.3115C131.422 19.3115 133.538 17.7002 133.538 13.8975V8.04297H131.69V13.8438C131.69 16.3145 130.562 17.5713 128.543 17.5713C126.534 17.5713 125.396 16.3037 125.396 13.8438V8.04297H123.559V13.8975C123.559 17.7002 125.653 19.3115 128.564 19.3115ZM141.466 19.3115C144.065 19.3115 146.085 17.6895 146.708 15.3262H144.817C144.248 16.8301 142.948 17.582 141.477 17.582C139.575 17.582 137.717 16.0459 137.717 13.5215C137.717 11.0186 139.564 9.47168 141.477 9.47168C142.959 9.47168 144.248 10.2129 144.817 11.6309H146.719C146.063 9.36426 144.076 7.73145 141.466 7.73145C138.297 7.73145 135.869 10.3203 135.869 13.5215C135.869 16.7227 138.297 19.3115 141.466 19.3115ZM149.189 19H151.037V13.2422C151.037 11.0078 152.702 9.46094 154.528 9.46094C156.43 9.46094 157.59 10.5674 157.59 13.0918V19H159.438V13.0596C159.438 9.55762 157.912 7.73145 155.001 7.73145C153.143 7.73145 151.66 8.70898 151.005 10.127L151.037 8.95605V3.875H149.189V19ZM172.919 13.2529C172.919 10.3096 170.663 7.73145 167.505 7.73145C164.336 7.73145 161.93 10.3203 161.93 13.5215C161.93 16.7334 164.336 19.3008 167.505 19.3008C169.997 19.3008 171.952 17.7109 172.575 15.7021H170.502C170.019 16.9375 168.934 17.582 167.462 17.582C165.657 17.582 164.024 16.207 163.799 14.0049H172.887C172.908 13.6074 172.919 13.4463 172.919 13.2529ZM163.885 12.3721C164.304 10.4814 165.829 9.47168 167.473 9.47168C169.342 9.47168 170.921 10.8145 171.028 12.3721H163.885ZM44.2383 45H46.0859V39.2422C46.0859 36.9004 47.751 35.4609 49.5771 35.4609C51.4785 35.4609 52.6387 36.5674 52.6387 39.0918V45H54.4863V39.0596C54.4863 35.5576 52.9609 33.7314 50.0498 33.7314C48.1914 33.7314 46.6338 34.752 46.0107 36.1592V34.043H44.2383V45ZM62.2744 45.3115C64.2295 45.3115 65.873 44.291 66.6143 42.6689V45H68.3867V34.043H66.6143V36.3955C65.873 34.7627 64.2402 33.7422 62.2637 33.7422C59.2881 33.7422 56.9785 36.3203 56.9785 39.5215C56.9785 42.7441 59.2773 45.3115 62.2744 45.3115ZM62.6826 43.582C60.5771 43.582 58.8154 41.9492 58.8154 39.5215C58.8154 37.1582 60.5557 35.4717 62.6934 35.4717C64.8203 35.4717 66.5498 37.2549 66.5498 39.5215C66.5498 41.8203 64.8311 43.582 62.6826 43.582ZM76.6045 45.3115C79.2041 45.3115 81.2236 43.6895 81.8467 41.3262H79.9561C79.3867 42.8301 78.0869 43.582 76.6152 43.582C74.7139 43.582 72.8555 42.0459 72.8555 39.5215C72.8555 37.0186 74.7031 35.4717 76.6152 35.4717C78.0977 35.4717 79.3867 36.2129 79.9561 37.6309H81.8574C81.2021 35.3643 79.2148 33.7314 76.6045 33.7314C73.4355 33.7314 71.0078 36.3203 71.0078 39.5215C71.0078 42.7227 73.4355 45.3115 76.6045 45.3115ZM84.3281 45H86.1758V39.2422C86.1758 37.0078 87.8408 35.4609 89.667 35.4609C91.5684 35.4609 92.7285 36.5674 92.7285 39.0918V45H94.5762V39.0596C94.5762 35.5576 93.0508 33.7314 90.1396 33.7314C88.2812 33.7314 86.7988 34.709 86.1436 36.127L86.1758 34.9561V29.875H84.3281V45ZM113.493 39.2529C113.493 36.3096 111.237 33.7314 108.079 33.7314C104.91 33.7314 102.504 36.3203 102.504 39.5215C102.504 42.7334 104.91 45.3008 108.079 45.3008C110.571 45.3008 112.526 43.7109 113.149 41.7021H111.076C110.593 42.9375 109.508 43.582 108.036 43.582C106.231 43.582 104.599 42.207 104.373 40.0049H113.461C113.482 39.6074 113.493 39.4463 113.493 39.2529ZM104.459 38.3721C104.878 36.4814 106.403 35.4717 108.047 35.4717C109.916 35.4717 111.495 36.8145 111.603 38.3721H104.459ZM116.866 31.9053C117.661 31.9053 118.145 31.3789 118.145 30.7236C118.145 30.0791 117.661 29.5527 116.877 29.5527C116.104 29.5527 115.62 30.0791 115.62 30.7236C115.62 31.3789 116.104 31.9053 116.866 31.9053ZM115.953 45H117.801V34.043H115.953V45ZM121.346 45H123.193V39.2422C123.193 36.9004 124.858 35.4609 126.685 35.4609C128.586 35.4609 129.746 36.5674 129.746 39.0918V45H131.594V39.0596C131.594 35.5576 130.068 33.7314 127.157 33.7314C125.299 33.7314 123.741 34.752 123.118 36.1592V34.043H121.346V45ZM145.075 39.2529C145.075 36.3096 142.819 33.7314 139.661 33.7314C136.492 33.7314 134.086 36.3203 134.086 39.5215C134.086 42.7334 136.492 45.3008 139.661 45.3008C142.153 45.3008 144.108 43.7109 144.731 41.7021H142.658C142.175 42.9375 141.09 43.582 139.618 43.582C137.813 43.582 136.181 42.207 135.955 40.0049H145.043C145.064 39.6074 145.075 39.4463 145.075 39.2529ZM136.041 38.3721C136.46 36.4814 137.985 35.4717 139.629 35.4717C141.498 35.4717 143.077 36.8145 143.185 38.3721H136.041ZM147.535 45H149.394V39.8438C149.394 37.2012 150.822 35.665 152.745 35.665H153.712V34.043H152.648C151.059 34.043 149.855 34.9775 149.318 36.4922V34.043H147.535V45ZM70.1162 71H71.9639V65.2422C71.9639 62.9004 73.6289 61.4609 75.4551 61.4609C77.3564 61.4609 78.5166 62.5674 78.5166 65.0918V71H80.3643V65.0596C80.3643 61.5576 78.8389 59.7314 75.9277 59.7314C74.0693 59.7314 72.5117 60.752 71.8887 62.1592V60.043H70.1162V71ZM93.8457 65.2529C93.8457 62.3096 91.5898 59.7314 88.4316 59.7314C85.2627 59.7314 82.8564 62.3203 82.8564 65.5215C82.8564 68.7334 85.2627 71.3008 88.4316 71.3008C90.9238 71.3008 92.8789 69.7109 93.502 67.7021H91.4287C90.9453 68.9375 89.8604 69.582 88.3887 69.582C86.584 69.582 84.9512 68.207 84.7256 66.0049H93.8135C93.835 65.6074 93.8457 65.4463 93.8457 65.2529ZM84.8115 64.3721C85.2305 62.4814 86.7559 61.4717 88.3994 61.4717C90.2686 61.4717 91.8477 62.8145 91.9551 64.3721H84.8115ZM101.011 71.3115C103.868 71.3115 105.984 69.7002 105.984 65.8975V60.043H104.137V65.8438C104.137 68.3145 103.009 69.5713 100.989 69.5713C98.9805 69.5713 97.8418 68.3037 97.8418 65.8438V60.043H96.0049V65.8975C96.0049 69.7002 98.0996 71.3115 101.011 71.3115ZM119.305 65.2529C119.305 62.3096 117.049 59.7314 113.891 59.7314C110.722 59.7314 108.315 62.3203 108.315 65.5215C108.315 68.7334 110.722 71.3008 113.891 71.3008C116.383 71.3008 118.338 69.7109 118.961 67.7021H116.888C116.404 68.9375 115.319 69.582 113.848 69.582C112.043 69.582 110.41 68.207 110.185 66.0049H119.272C119.294 65.6074 119.305 65.4463 119.305 65.2529ZM110.271 64.3721C110.689 62.4814 112.215 61.4717 113.858 61.4717C115.728 61.4717 117.307 62.8145 117.414 64.3721H110.271ZM121.765 71H123.612V65.2422C123.612 62.9004 125.277 61.4609 127.104 61.4609C129.005 61.4609 130.165 62.5674 130.165 65.0918V71H132.013V65.0596C132.013 61.5576 130.487 59.7314 127.576 59.7314C125.718 59.7314 124.16 60.752 123.537 62.1592V60.043H121.765V71ZM8.93945 97H10.8408V90.5332H19.2842V97H21.1963V82.3906H19.2842V88.8252H10.8408V82.3906H8.93945V97ZM35.0322 91.2529C35.0322 88.3096 32.7764 85.7314 29.6182 85.7314C26.4492 85.7314 24.043 88.3203 24.043 91.5215C24.043 94.7334 26.4492 97.3008 29.6182 97.3008C32.1104 97.3008 34.0654 95.7109 34.6885 93.7021H32.6152C32.1318 94.9375 31.0469 95.582 29.5752 95.582C27.7705 95.582 26.1377 94.207 25.9121 92.0049H35C35.0215 91.6074 35.0322 91.4463 35.0322 91.2529ZM25.998 90.3721C26.417 88.4814 27.9424 87.4717 29.5859 87.4717C31.4551 87.4717 33.0342 88.8145 33.1416 90.3721H25.998ZM37.4922 97H39.3506V91.8438C39.3506 89.2012 40.7793 87.665 42.7021 87.665H43.6689V86.043H42.6055C41.0156 86.043 39.8125 86.9775 39.2754 88.4922V86.043H37.4922V97ZM49.6631 97.3115C51.6182 97.3115 53.2617 96.291 54.0029 94.6689V97H55.7754V86.043H54.0029V88.3955C53.2617 86.7627 51.6289 85.7422 49.6523 85.7422C46.6768 85.7422 44.3672 88.3203 44.3672 91.5215C44.3672 94.7441 46.666 97.3115 49.6631 97.3115ZM50.0713 95.582C47.9658 95.582 46.2041 93.9492 46.2041 91.5215C46.2041 89.1582 47.9443 87.4717 50.082 87.4717C52.209 87.4717 53.9385 89.2549 53.9385 91.5215C53.9385 93.8203 52.2197 95.582 50.0713 95.582ZM64.0254 97.3115C66.8828 97.3115 68.999 95.7002 68.999 91.8975V86.043H67.1514V91.8438C67.1514 94.3145 66.0234 95.5713 64.0039 95.5713C61.9951 95.5713 60.8564 94.3037 60.8564 91.8438V86.043H59.0195V91.8975C59.0195 95.7002 61.1143 97.3115 64.0254 97.3115ZM75.9062 97.3115C78.5166 97.3115 80.3213 96.1514 80.3213 93.9062C80.3213 91.5215 78.3125 90.9844 76.3037 90.6729C74.2627 90.3291 73.6719 89.9424 73.6719 88.9004C73.6719 88.0195 74.3486 87.2783 75.7666 87.2783C77.2275 87.2783 78.1084 87.9766 78.1621 89.0186H79.9775C79.9775 87.1064 78.3018 85.7314 75.7666 85.7314C73.1562 85.7314 71.8457 87.1494 71.8457 88.9434C71.8457 91.1562 73.6396 91.876 75.6807 92.1768C77.3994 92.4561 78.4414 92.7783 78.4414 94.0029C78.4414 95.1094 77.582 95.8076 75.9277 95.8076C74.123 95.8076 73.1348 94.8408 73.1133 93.6484L71.3301 93.6377C71.3301 95.5068 72.8447 97.3115 75.9062 97.3115ZM83.6514 97H85.5098V87.6543H88.625V86.043H85.5098V85.4199C85.5098 84.249 86.1758 83.3467 87.3037 83.3467H88.7109V81.7891H86.874C84.6504 81.7891 83.6514 83.4863 83.6514 85.2695V86.043H81.3096V87.6543H83.6514V97ZM95.0488 97.3115C98.3252 97.3115 100.764 94.7441 100.764 91.5215C100.764 88.3096 98.3145 85.7314 95.0488 85.7314C91.7939 85.7314 89.3555 88.3203 89.3555 91.5215C89.3555 94.7441 91.8047 97.3115 95.0488 97.3115ZM95.0703 95.5713C92.8896 95.5713 91.2031 93.8525 91.2031 91.5215C91.2031 89.2119 92.8896 87.4717 95.0703 87.4717C97.2402 87.4717 98.916 89.2119 98.916 91.5215C98.916 93.8525 97.2402 95.5713 95.0703 95.5713ZM103.385 97H105.243V91.8438C105.243 89.2012 106.672 87.665 108.595 87.665H109.562V86.043H108.498C106.908 86.043 105.705 86.9775 105.168 88.4922V86.043H103.385V97ZM115.652 97.3115C117.64 97.3115 119.187 96.1514 119.885 94.6689V97H121.657V81.875H119.81V87.2891L119.853 88.3525C119.219 87.0312 117.715 85.7314 115.663 85.7314C112.516 85.7314 110.26 88.3203 110.26 91.5215C110.26 94.7441 112.559 97.3115 115.652 97.3115ZM115.953 95.5928C113.751 95.5928 112.097 93.8203 112.097 91.5215C112.097 89.2012 113.794 87.4609 115.953 87.4609C118.112 87.4609 119.831 89.2441 119.831 91.5215C119.831 93.8203 118.102 95.5928 115.953 95.5928ZM135.278 91.2529C135.278 88.3096 133.022 85.7314 129.864 85.7314C126.695 85.7314 124.289 88.3203 124.289 91.5215C124.289 94.7334 126.695 97.3008 129.864 97.3008C132.356 97.3008 134.312 95.7109 134.935 93.7021H132.861C132.378 94.9375 131.293 95.582 129.821 95.582C128.017 95.582 126.384 94.207 126.158 92.0049H135.246C135.268 91.6074 135.278 91.4463 135.278 91.2529ZM126.244 90.3721C126.663 88.4814 128.188 87.4717 129.832 87.4717C131.701 87.4717 133.28 88.8145 133.388 90.3721H126.244ZM137.738 97H139.597V91.8438C139.597 89.2012 141.025 87.665 142.948 87.665H143.915V86.043H142.852C141.262 86.043 140.059 86.9775 139.521 88.4922V86.043H137.738V97ZM150.779 97.3115C153.637 97.3115 155.753 95.7002 155.753 91.8975V86.043H153.905V91.8438C153.905 94.3145 152.777 95.5713 150.758 95.5713C148.749 95.5713 147.61 94.3037 147.61 91.8438V86.043H145.773V91.8975C145.773 95.7002 147.868 97.3115 150.779 97.3115ZM159.008 97H160.855V91.2422C160.855 88.9004 162.521 87.4609 164.347 87.4609C166.248 87.4609 167.408 88.5674 167.408 91.0918V97H169.256V91.0596C169.256 87.5576 167.73 85.7314 164.819 85.7314C162.961 85.7314 161.403 86.752 160.78 88.1592V86.043H159.008V97ZM177.474 101.125C181.309 101.125 183.156 98.5791 183.156 95.5283V86.043H181.384V88.3955C180.729 86.9453 179.171 85.7422 177.076 85.7422C174.025 85.7422 171.748 88.3203 171.748 91.3174C171.748 94.3359 174.047 96.7959 177.13 96.7959C178.988 96.7959 180.61 95.8936 181.384 94.2285V95.582C181.384 97.623 180.32 99.5459 177.474 99.5459C175.089 99.5459 174.176 98.3857 173.961 97.0645H172.21C172.328 99.0625 173.789 101.125 177.474 101.125ZM177.452 95.1631C175.304 95.1631 173.585 93.498 173.585 91.3174C173.585 89.1152 175.304 87.4717 177.463 87.4717C179.611 87.4717 181.319 89.2334 181.319 91.3174C181.319 93.4229 179.601 95.1631 177.452 95.1631ZM188.57 92.7891H190.343V92.1982C190.343 91.2207 190.923 90.5117 191.857 89.7598C193.039 88.8037 194.382 87.751 194.382 85.9248C194.382 83.6152 192.523 82.0684 189.827 82.0684C186.809 82.0684 185.187 83.8086 185.187 86.1611H187.056C187.056 84.6787 188.065 83.7871 189.773 83.7871C191.6 83.7871 192.523 84.6895 192.523 86.0215C192.523 86.9883 191.524 87.7402 190.515 88.6533C189.494 89.5771 188.57 90.6299 188.57 92.1553V92.7891ZM189.537 97.2256C190.257 97.2256 190.762 96.71 190.762 96.0762C190.762 95.4424 190.257 94.916 189.537 94.916C188.817 94.916 188.323 95.4424 188.323 96.0762C188.323 96.6992 188.828 97.2256 189.537 97.2256Z" fill="white"/>
<rect y="128" width="202" height="34.214" rx="17.107" fill="#1EDC82"/>
<rect y="128" width="202" height="34.214" rx="17.107" stroke="#28282D"/>
<path d="M40.8437 147.898H42.4821L38.9562 139.42H37.4861L33.9602 147.898H35.5985L36.2713 146.26H40.1709L40.8437 147.898ZM36.8008 144.964L38.1651 141.625L38.2149 141.42H38.2336L38.271 141.625L39.6414 144.964H36.8008ZM47.6151 147.898H49.3095L47.0482 144.03L49.0354 141.495H47.1978L44.9427 144.497V139.127H43.4352V147.898H44.9427V146.117L45.9519 145.014L47.6151 147.898ZM52.8977 147.898H54.1996V146.646H53.2092C52.7295 146.646 52.281 146.428 52.281 145.531V142.79H54.1996V141.495H52.281V139.607L50.7735 139.62V141.495H49.4466V142.79H50.7735V145.463C50.7735 147.575 51.9321 147.898 52.8977 147.898ZM58.2239 148.092C59.9183 148.092 61.2265 147.195 61.2265 144.915V141.495H59.7252V144.871C59.7252 146.042 59.2268 146.69 58.2176 146.69C57.2147 146.69 56.7039 146.055 56.7039 144.871V141.495H55.2088V144.915C55.2088 147.195 56.5108 148.092 58.2239 148.092ZM68.951 144.584C68.951 142.821 67.6552 141.301 65.7241 141.301C63.7992 141.301 62.4038 142.828 62.4038 144.697C62.4038 146.565 63.7992 148.092 65.7241 148.092C67.3188 148.092 68.4588 147.039 68.7828 145.886H67.1382C66.9202 146.428 66.453 146.746 65.693 146.746C64.8084 146.746 64.0733 146.142 63.9176 145.095H68.9198C68.9447 144.858 68.951 144.746 68.951 144.584ZM63.9799 143.93C64.2353 143.027 64.9579 142.616 65.7179 142.616C66.6025 142.616 67.35 143.214 67.4123 143.93H63.9799ZM70.1844 147.898H71.6919V139.121H70.1844V147.898ZM73.4611 147.898H74.9686V139.121H73.4611V147.898ZM82.8302 144.584C82.8302 142.821 81.5344 141.301 79.6033 141.301C77.6784 141.301 76.283 142.828 76.283 144.697C76.283 146.565 77.6784 148.092 79.6033 148.092C81.198 148.092 82.338 147.039 82.662 145.886H81.0174C80.7994 146.428 80.3322 146.746 79.5722 146.746C78.6876 146.746 77.9525 146.142 77.7968 145.095H82.799C82.8239 144.858 82.8302 144.746 82.8302 144.584ZM77.8591 143.93C78.1145 143.027 78.8371 142.616 79.5971 142.616C80.4817 142.616 81.2292 143.214 81.2915 143.93H77.8591ZM86.5367 147.898H87.8822C89.6576 147.898 90.9596 146.846 90.9596 145.008V139.426H89.4209V144.921C89.4209 145.899 88.8104 146.509 87.8885 146.509H86.5367V147.898ZM95.6067 148.092C97.5815 148.092 98.9956 146.584 98.9956 144.697C98.9956 142.821 97.5815 141.301 95.613 141.301C93.6507 141.301 92.2428 142.828 92.2428 144.697C92.2428 146.578 93.6569 148.092 95.6067 148.092ZM95.6192 146.69C94.5415 146.69 93.7379 145.855 93.7379 144.697C93.7379 143.544 94.5415 142.697 95.6192 142.697C96.6969 142.697 97.5005 143.544 97.5005 144.697C97.5005 145.855 96.6969 146.69 95.6192 146.69ZM103.96 148.092C105.748 148.092 107.063 146.578 107.063 144.697C107.063 142.828 105.761 141.308 103.942 141.308C103.02 141.308 102.204 141.8 101.78 142.541L101.817 141.7V139.127H100.31V147.898H101.743V146.821C102.179 147.606 103.026 148.092 103.96 148.092ZM103.686 146.702C102.665 146.702 101.799 145.868 101.799 144.697C101.799 143.575 102.64 142.697 103.68 142.697C104.72 142.697 105.568 143.494 105.568 144.697C105.568 145.936 104.702 146.702 103.686 146.702ZM111.106 148.092C112.146 148.092 112.993 147.618 113.41 146.821V147.898H114.843V141.495H113.41V142.578C112.999 141.781 112.146 141.301 111.099 141.301C109.386 141.301 108.091 142.828 108.091 144.697C108.091 146.578 109.374 148.092 111.106 148.092ZM111.467 146.696C110.451 146.696 109.586 145.942 109.586 144.697C109.586 143.494 110.433 142.697 111.467 142.697C112.513 142.697 113.348 143.581 113.348 144.697C113.348 145.83 112.52 146.696 111.467 146.696ZM116.619 147.898H118.126V144.628C118.126 143.376 118.936 142.691 119.821 142.691C120.73 142.691 121.303 143.208 121.303 144.478V147.898H122.811V144.447C122.811 142.435 121.957 141.301 120.238 141.301C119.254 141.301 118.419 141.794 118.051 142.491V141.495H116.619V147.898ZM127.464 150.328C129.638 150.328 130.828 148.964 130.828 147.163V141.495H129.395V142.585C129.059 141.924 128.268 141.301 127.121 141.301C125.34 141.301 124.075 142.828 124.075 144.566C124.075 146.31 125.352 147.743 127.171 147.743C128.124 147.743 128.953 147.369 129.389 146.528V147.182C129.389 148.185 128.853 149.057 127.458 149.057C126.318 149.057 125.888 148.565 125.757 147.892H124.337C124.381 149.107 125.278 150.328 127.464 150.328ZM127.452 146.435C126.393 146.435 125.57 145.643 125.57 144.559C125.57 143.457 126.393 142.697 127.452 142.697C128.511 142.697 129.333 143.563 129.333 144.559C129.333 145.581 128.504 146.435 127.452 146.435ZM138.696 144.584C138.696 142.821 137.4 141.301 135.469 141.301C133.544 141.301 132.149 142.828 132.149 144.697C132.149 146.565 133.544 148.092 135.469 148.092C137.064 148.092 138.204 147.039 138.528 145.886H136.883C136.665 146.428 136.198 146.746 135.438 146.746C134.553 146.746 133.818 146.142 133.662 145.095H138.665C138.69 144.858 138.696 144.746 138.696 144.584ZM133.725 143.93C133.98 143.027 134.703 142.616 135.463 142.616C136.347 142.616 137.095 143.214 137.157 143.93H133.725ZM143.58 148.092C145.368 148.092 146.682 146.578 146.682 144.697C146.682 142.828 145.38 141.308 143.561 141.308C142.639 141.308 141.823 141.8 141.399 142.541L141.437 141.7V139.127H139.929V147.898H141.362V146.821C141.798 147.606 142.645 148.092 143.58 148.092ZM143.306 146.702C142.284 146.702 141.418 145.868 141.418 144.697C141.418 143.575 142.259 142.697 143.299 142.697C144.34 142.697 145.187 143.494 145.187 144.697C145.187 145.936 144.321 146.702 143.306 146.702ZM151.074 148.092C153.048 148.092 154.462 146.584 154.462 144.697C154.462 142.821 153.048 141.301 151.08 141.301C149.118 141.301 147.71 142.828 147.71 144.697C147.71 146.578 149.124 148.092 151.074 148.092ZM151.086 146.69C150.008 146.69 149.205 145.855 149.205 144.697C149.205 143.544 150.008 142.697 151.086 142.697C152.164 142.697 152.967 143.544 152.967 144.697C152.967 145.855 152.164 146.69 151.086 146.69ZM158.287 147.898H159.589V146.646H158.599C158.119 146.646 157.671 146.428 157.671 145.531V142.79H159.589V141.495H157.671V139.607L156.163 139.62V141.495H154.836V142.79H156.163V145.463C156.163 147.575 157.322 147.898 158.287 147.898ZM166.728 144.584C166.728 142.821 165.433 141.301 163.501 141.301C161.577 141.301 160.181 142.828 160.181 144.697C160.181 146.565 161.577 148.092 163.501 148.092C165.096 148.092 166.236 147.039 166.56 145.886H164.915C164.697 146.428 164.23 146.746 163.47 146.746C162.586 146.746 161.851 146.142 161.695 145.095H166.697C166.722 144.858 166.728 144.746 166.728 144.584ZM161.757 143.93C162.013 143.027 162.735 142.616 163.495 142.616C164.38 142.616 165.127 143.214 165.19 143.93H161.757Z" fill="#161528"/>
</svg>
