<svg width="183" height="40" viewBox="0 0 183 40" fill="none" xmlns="http://www.w3.org/2000/svg">
<path d="M44.8834 7.34872H40.2478L40.2551 19.4364C40.2551 22.9285 37.6877 24.5487 35.1624 24.5487C32.6371 24.5487 29.9966 22.8764 29.9417 19.1523V7.34872H25.3062V19.1217C25.3665 22.8494 27.0104 25.1458 28.3984 26.4171C30.1995 28.0697 32.6005 28.9796 35.1606 28.9796C39.9991 28.9796 44.898 25.5665 44.898 19.0444L44.8797 7.34692L44.8834 7.34872Z" fill="#1EDC82"/>
<path d="M102.688 19.6794C102.797 19.0543 102.857 18.411 102.857 17.755C102.857 11.5658 97.8219 6.53052 91.6327 6.53052C85.4435 6.53052 80.4082 11.5658 80.4082 17.755C80.4082 23.9442 85.4435 28.9795 91.6327 28.9795C95.9793 28.9795 98.9267 27.6112 101.451 24.3785L97.5529 22.058C95.7721 24.1241 93.8351 24.4748 91.6309 24.4748C88.5908 24.4748 86.0177 22.4451 85.1909 19.6721L102.686 19.6812L102.688 19.6794ZM91.6327 11.0352C94.7 11.0352 97.2913 13.1013 98.0945 15.9142H85.1709C85.9741 13.1013 88.5654 11.0352 91.6327 11.0352Z" fill="#1EDC82"/>
<path d="M136.939 6.53052C130.73 6.53052 125.714 11.3963 125.714 17.755C125.714 24.1137 130.732 28.9795 136.939 28.9795C143.145 28.9795 148.163 24.0719 148.163 17.755C148.163 11.4382 143.189 6.53052 136.939 6.53052ZM136.939 24.4973C133.198 24.4973 130.307 21.6371 130.307 17.755C130.307 13.8729 133.198 11.0127 136.939 11.0127C140.68 11.0127 143.571 13.8729 143.571 17.755C143.571 21.6371 140.68 24.4973 136.939 24.4973Z" fill="#1EDC82"/>
<path d="M121.622 21.3493C120.412 23.2264 118.287 24.4748 115.87 24.4748C112.114 24.4748 109.057 21.4602 109.057 17.755C109.057 14.0499 112.114 11.0352 115.87 11.0352C118.247 11.0352 120.344 12.2436 121.563 14.068L124.83 10.8462C122.744 8.22228 119.505 6.53052 115.87 6.53052C109.595 6.53052 104.49 11.5658 104.49 17.755C104.49 23.9442 109.595 28.9795 115.87 28.9795C119.544 28.9795 122.814 27.2514 124.898 24.5784L121.624 21.3493H121.622Z" fill="#1EDC82"/>
<path d="M53.4693 2.65306C53.4693 4.11854 52.2818 5.30612 50.8163 5.30612C49.3508 5.30612 48.1632 4.11854 48.1632 2.65306C48.1632 1.18758 49.3508 0 50.8163 0C52.2818 0 53.4693 1.18758 53.4693 2.65306Z" fill="#1EDC82"/>
<path d="M17.3261 30.2041C17.0547 33.2773 14.5753 35.5087 11.4285 35.5087C8.28172 35.5087 5.80057 33.2773 5.531 30.2041L0.816284 30.2346C1.12803 35.8013 5.69055 40 11.4285 40C17.1665 40 21.7309 35.8013 22.0408 30.2346L17.3261 30.2041Z" fill="#1EDC82"/>
<path d="M53.0612 7.34692H48.5714V28.5714H53.0612V7.34692Z" fill="#1EDC82"/>
<path d="M22.449 7.34872C22.449 7.34872 11.0365 7.34872 11.0219 7.34872C4.9268 7.34872 0 12.0367 0 18.1632C0 24.2898 4.9268 28.9796 11.02 28.9796C17.1133 28.9796 22.0419 24.2502 22.0419 18.1632C22.0419 15.4785 21.1036 13.0689 19.5338 11.2095H22.449V7.34692V7.34872ZM11.0219 24.5523C7.41119 24.5523 4.62013 21.8442 4.62013 18.165C4.62013 14.4859 7.41119 11.7778 11.0219 11.7778C14.6325 11.7778 17.4236 14.4859 17.4236 18.165C17.4236 21.8442 14.6325 24.5523 11.0219 24.5523Z" fill="#1EDC82"/>
<path d="M73.6919 0.408203V8.69143C71.807 7.36198 69.4757 6.58752 66.9379 6.58752C60.6173 6.58752 55.5103 11.441 55.5103 17.7836C55.5103 24.1261 60.6191 28.9796 66.9379 28.9796C69.4757 28.9796 71.8052 28.1054 73.6919 26.6563V28.4627H78.3674V0.408203H73.6919ZM66.9379 24.5088C63.1293 24.5088 60.1857 21.6559 60.1857 17.7836C60.1857 13.9113 63.1293 11.0583 66.9379 11.0583C70.7465 11.0583 73.6901 13.9113 73.6901 17.7836C73.6901 21.6559 70.7465 24.5088 66.9379 24.5088Z" fill="#1EDC82"/>
<path d="M182.037 16.7508C181.988 10.3181 177.402 6.95133 172.871 6.95133C170.483 6.95133 168.253 7.85382 166.595 9.49126C166.432 9.65158 166.268 9.82812 166.101 10.0227C164.394 8.03035 161.961 6.98015 159.543 6.93872C159.492 6.93872 159.441 6.93872 159.39 6.93872C157.546 6.93872 155.937 7.54218 154.563 8.69866V7.40528H150.221L150.204 28.5714H154.834L154.85 16.5706C154.859 13.384 157.25 11.5052 159.386 11.5052C159.412 11.5052 159.438 11.5052 159.463 11.5052C162.458 11.5574 163.8 14.2289 163.8 16.8553L163.811 28.5696H168.441L168.446 16.7238C168.446 14.1334 169.816 11.5178 172.873 11.5178C174.046 11.5178 175.136 11.9573 175.943 12.7553C176.9 13.7011 177.406 15.1097 177.411 16.8318V28.5714H182.041V16.7526L182.037 16.7508Z" fill="#1EDC82"/>
</svg>
