<svg width="24" height="24" viewBox="0 0 24 24" fill="none" xmlns="http://www.w3.org/2000/svg">
<g clip-path="url(#clip0_1_117)">
<path d="M24 12C24 18.6299 18.6299 24 12 24C5.37005 24 0 18.6299 0 12C0 5.37005 5.37005 0 12 0C18.6299 0 24 5.37005 24 12ZM14.2513 10.4509H5.41136C4.77108 10.4509 4.25473 10.9673 4.25473 11.6076V12.3924C4.25473 13.0327 4.77108 13.5491 5.41136 13.5491H14.2513L10.5955 17.0602C10.1205 17.5146 10.1205 18.2582 10.5955 18.7126L11.1325 19.2496C11.5869 19.704 12.3305 19.704 12.7642 19.2496L19.1876 12.8262C19.642 12.3718 19.642 11.6282 19.1876 11.1945L12.7642 4.77108C12.3098 4.3167 11.5663 4.3167 11.1325 4.77108L10.5955 5.30809C10.1411 5.76248 10.1411 6.52668 10.5955 6.98107L14.2513 10.4923V10.4509Z" fill="#1EDC82"/>
</g>
<defs>
<clipPath id="clip0_1_117">
<rect width="24" height="24" fill="white"/>
</clipPath>
</defs>
</svg>
