<svg width="263" height="47" viewBox="0 0 263 47" fill="none" xmlns="http://www.w3.org/2000/svg">
<path d="M12.4521 16H14.4717L8.29492 1.39062H6.46875L0.28125 16H2.30078L3.68652 12.6914H11.0664L12.4521 16ZM4.36328 11.0801L7.30664 4.06543L7.37109 3.81836H7.39258L7.44629 4.06543L10.3896 11.0801H4.36328ZM20.7773 16.3115C23.6348 16.3115 25.751 14.7002 25.751 10.8975V5.04297H23.9033V10.8438C23.9033 13.3145 22.7754 14.5713 20.7559 14.5713C18.7471 14.5713 17.6084 13.3037 17.6084 10.8438V5.04297H15.7715V10.8975C15.7715 14.7002 17.8662 16.3115 20.7773 16.3115ZM29.8115 16H31.6699V6.6543H34.7852V5.04297H31.6699V4.41992C31.6699 3.24902 32.3359 2.34668 33.4639 2.34668H34.8711V0.789062H33.0342C30.8105 0.789062 29.8115 2.48633 29.8115 4.26953V5.04297H27.4697V6.6543H29.8115V16ZM46.666 16.3115C48.6533 16.3115 50.2002 15.1514 50.8984 13.6689V16H52.6709V0.875H50.8232V6.28906L50.8662 7.35254C50.2324 6.03125 48.7285 4.73145 46.6768 4.73145C43.5293 4.73145 41.2734 7.32031 41.2734 10.5215C41.2734 13.7441 43.5723 16.3115 46.666 16.3115ZM46.9668 14.5928C44.7646 14.5928 43.1104 12.8203 43.1104 10.5215C43.1104 8.20117 44.8076 6.46094 46.9668 6.46094C49.126 6.46094 50.8447 8.24414 50.8447 10.5215C50.8447 12.8203 49.1152 14.5928 46.9668 14.5928ZM66.292 10.2529C66.292 7.30957 64.0361 4.73145 60.8779 4.73145C57.709 4.73145 55.3027 7.32031 55.3027 10.5215C55.3027 13.7334 57.709 16.3008 60.8779 16.3008C63.3701 16.3008 65.3252 14.7109 65.9482 12.7021H63.875C63.3916 13.9375 62.3066 14.582 60.835 14.582C59.0303 14.582 57.3975 13.207 57.1719 11.0049H66.2598C66.2812 10.6074 66.292 10.4463 66.292 10.2529ZM57.2578 9.37207C57.6768 7.48145 59.2021 6.47168 60.8457 6.47168C62.7148 6.47168 64.2939 7.81445 64.4014 9.37207H57.2578ZM68.752 16H70.6104V10.8438C70.6104 8.20117 72.0391 6.66504 73.9619 6.66504H74.9287V5.04297H73.8652C72.2754 5.04297 71.0723 5.97754 70.5352 7.49219V5.04297H68.752V16ZM87.293 16.3115C90.8809 16.3115 93.0723 14.7002 93.0723 11.9609C93.0723 8.96387 90.3545 8.07227 87.9268 7.68555C85.3057 7.33105 83.834 6.67578 83.834 5.13965C83.834 3.93652 84.5645 2.74414 87.207 2.74414C89.3984 2.74414 90.5801 3.77539 90.5801 5.22559H92.4922C92.4922 2.78711 90.666 1.06836 87.2285 1.06836C83.4258 1.06836 81.9326 2.94824 81.9326 5.12891C81.9326 8.08301 84.8975 8.88867 87.3359 9.29688C89.5166 9.62988 91.1494 10.2422 91.1494 11.9609C91.1494 13.7656 89.7744 14.6787 87.2822 14.6787C84.876 14.6787 83.458 13.3037 83.458 11.7676H81.5566C81.5566 13.9805 83.3291 16.3115 87.293 16.3115ZM100.312 16.3115C103.17 16.3115 105.286 14.7002 105.286 10.8975V5.04297H103.438V10.8438C103.438 13.3145 102.311 14.5713 100.291 14.5713C98.2822 14.5713 97.1436 13.3037 97.1436 10.8438V5.04297H95.3066V10.8975C95.3066 14.7002 97.4014 16.3115 100.312 16.3115ZM113.214 16.3115C115.813 16.3115 117.833 14.6895 118.456 12.3262H116.565C115.996 13.8301 114.696 14.582 113.225 14.582C111.323 14.582 109.465 13.0459 109.465 10.5215C109.465 8.01855 111.312 6.47168 113.225 6.47168C114.707 6.47168 115.996 7.21289 116.565 8.63086H118.467C117.812 6.36426 115.824 4.73145 113.214 4.73145C110.045 4.73145 107.617 7.32031 107.617 10.5215C107.617 13.7227 110.045 16.3115 113.214 16.3115ZM120.938 16H122.785V10.2422C122.785 8.00781 124.45 6.46094 126.276 6.46094C128.178 6.46094 129.338 7.56738 129.338 10.0918V16H131.186V10.0596C131.186 6.55762 129.66 4.73145 126.749 4.73145C124.891 4.73145 123.408 5.70898 122.753 7.12695L122.785 5.95605V0.875H120.938V16ZM144.667 10.2529C144.667 7.30957 142.411 4.73145 139.253 4.73145C136.084 4.73145 133.678 7.32031 133.678 10.5215C133.678 13.7334 136.084 16.3008 139.253 16.3008C141.745 16.3008 143.7 14.7109 144.323 12.7021H142.25C141.767 13.9375 140.682 14.582 139.21 14.582C137.405 14.582 135.772 13.207 135.547 11.0049H144.635C144.656 10.6074 144.667 10.4463 144.667 10.2529ZM135.633 9.37207C136.052 7.48145 137.577 6.47168 139.221 6.47168C141.09 6.47168 142.669 7.81445 142.776 9.37207H135.633ZM152.562 16H154.41V10.2422C154.41 7.90039 156.075 6.46094 157.901 6.46094C159.803 6.46094 160.963 7.56738 160.963 10.0918V16H162.811V10.0596C162.811 6.55762 161.285 4.73145 158.374 4.73145C156.516 4.73145 154.958 5.75195 154.335 7.15918V5.04297H152.562V16ZM170.599 16.3115C172.554 16.3115 174.197 15.291 174.938 13.6689V16H176.711V5.04297H174.938V7.39551C174.197 5.7627 172.564 4.74219 170.588 4.74219C167.612 4.74219 165.303 7.32031 165.303 10.5215C165.303 13.7441 167.602 16.3115 170.599 16.3115ZM171.007 14.582C168.901 14.582 167.14 12.9492 167.14 10.5215C167.14 8.1582 168.88 6.47168 171.018 6.47168C173.145 6.47168 174.874 8.25488 174.874 10.5215C174.874 12.8203 173.155 14.582 171.007 14.582ZM184.929 16.3115C187.528 16.3115 189.548 14.6895 190.171 12.3262H188.28C187.711 13.8301 186.411 14.582 184.939 14.582C183.038 14.582 181.18 13.0459 181.18 10.5215C181.18 8.01855 183.027 6.47168 184.939 6.47168C186.422 6.47168 187.711 7.21289 188.28 8.63086H190.182C189.526 6.36426 187.539 4.73145 184.929 4.73145C181.76 4.73145 179.332 7.32031 179.332 10.5215C179.332 13.7227 181.76 16.3115 184.929 16.3115ZM192.652 16H194.5V10.2422C194.5 8.00781 196.165 6.46094 197.991 6.46094C199.893 6.46094 201.053 7.56738 201.053 10.0918V16H202.9V10.0596C202.9 6.55762 201.375 4.73145 198.464 4.73145C196.605 4.73145 195.123 5.70898 194.468 7.12695L194.5 5.95605V0.875H192.652V16ZM221.817 10.2529C221.817 7.30957 219.562 4.73145 216.403 4.73145C213.234 4.73145 210.828 7.32031 210.828 10.5215C210.828 13.7334 213.234 16.3008 216.403 16.3008C218.896 16.3008 220.851 14.7109 221.474 12.7021H219.4C218.917 13.9375 217.832 14.582 216.36 14.582C214.556 14.582 212.923 13.207 212.697 11.0049H221.785C221.807 10.6074 221.817 10.4463 221.817 10.2529ZM212.783 9.37207C213.202 7.48145 214.728 6.47168 216.371 6.47168C218.24 6.47168 219.819 7.81445 219.927 9.37207H212.783ZM225.19 2.90527C225.985 2.90527 226.469 2.37891 226.469 1.72363C226.469 1.0791 225.985 0.552734 225.201 0.552734C224.428 0.552734 223.944 1.0791 223.944 1.72363C223.944 2.37891 224.428 2.90527 225.19 2.90527ZM224.277 16H226.125V5.04297H224.277V16ZM229.67 16H231.518V10.2422C231.518 7.90039 233.183 6.46094 235.009 6.46094C236.91 6.46094 238.07 7.56738 238.07 10.0918V16H239.918V10.0596C239.918 6.55762 238.393 4.73145 235.481 4.73145C233.623 4.73145 232.065 5.75195 231.442 7.15918V5.04297H229.67V16ZM253.399 10.2529C253.399 7.30957 251.144 4.73145 247.985 4.73145C244.816 4.73145 242.41 7.32031 242.41 10.5215C242.41 13.7334 244.816 16.3008 247.985 16.3008C250.478 16.3008 252.433 14.7109 253.056 12.7021H250.982C250.499 13.9375 249.414 14.582 247.942 14.582C246.138 14.582 244.505 13.207 244.279 11.0049H253.367C253.389 10.6074 253.399 10.4463 253.399 10.2529ZM244.365 9.37207C244.784 7.48145 246.31 6.47168 247.953 6.47168C249.822 6.47168 251.401 7.81445 251.509 9.37207H244.365ZM255.859 16H257.718V10.8438C257.718 8.20117 259.146 6.66504 261.069 6.66504H262.036V5.04297H260.973C259.383 5.04297 258.18 5.97754 257.643 7.49219V5.04297H255.859V16ZM6.35059 42H8.19824V36.2422C8.19824 33.9004 9.86328 32.4609 11.6895 32.4609C13.5908 32.4609 14.751 33.5674 14.751 36.0918V42H16.5986V36.0596C16.5986 32.5576 15.0732 30.7314 12.1621 30.7314C10.3037 30.7314 8.74609 31.752 8.12305 33.1592V31.043H6.35059V42ZM30.0801 36.2529C30.0801 33.3096 27.8242 30.7314 24.666 30.7314C21.4971 30.7314 19.0908 33.3203 19.0908 36.5215C19.0908 39.7334 21.4971 42.3008 24.666 42.3008C27.1582 42.3008 29.1133 40.7109 29.7363 38.7021H27.6631C27.1797 39.9375 26.0947 40.582 24.623 40.582C22.8184 40.582 21.1855 39.207 20.96 37.0049H30.0479C30.0693 36.6074 30.0801 36.4463 30.0801 36.2529ZM21.0459 35.3721C21.4648 33.4814 22.9902 32.4717 24.6338 32.4717C26.5029 32.4717 28.082 33.8145 28.1895 35.3721H21.0459ZM37.2451 42.3115C40.1025 42.3115 42.2188 40.7002 42.2188 36.8975V31.043H40.3711V36.8438C40.3711 39.3145 39.2432 40.5713 37.2236 40.5713C35.2148 40.5713 34.0762 39.3037 34.0762 36.8438V31.043H32.2393V36.8975C32.2393 40.7002 34.334 42.3115 37.2451 42.3115ZM55.5391 36.2529C55.5391 33.3096 53.2832 30.7314 50.125 30.7314C46.9561 30.7314 44.5498 33.3203 44.5498 36.5215C44.5498 39.7334 46.9561 42.3008 50.125 42.3008C52.6172 42.3008 54.5723 40.7109 55.1953 38.7021H53.1221C52.6387 39.9375 51.5537 40.582 50.082 40.582C48.2773 40.582 46.6445 39.207 46.4189 37.0049H55.5068C55.5283 36.6074 55.5391 36.4463 55.5391 36.2529ZM46.5049 35.3721C46.9238 33.4814 48.4492 32.4717 50.0928 32.4717C51.9619 32.4717 53.541 33.8145 53.6484 35.3721H46.5049ZM57.999 42H59.8467V36.2422C59.8467 33.9004 61.5117 32.4609 63.3379 32.4609C65.2393 32.4609 66.3994 33.5674 66.3994 36.0918V42H68.2471V36.0596C68.2471 32.5576 66.7217 30.7314 63.8105 30.7314C61.9521 30.7314 60.3945 31.752 59.7715 33.1592V31.043H57.999V42ZM77.3135 42H79.2148V35.5332H87.6582V42H89.5703V27.3906H87.6582V33.8252H79.2148V27.3906H77.3135V42ZM103.406 36.2529C103.406 33.3096 101.15 30.7314 97.9922 30.7314C94.8232 30.7314 92.417 33.3203 92.417 36.5215C92.417 39.7334 94.8232 42.3008 97.9922 42.3008C100.484 42.3008 102.439 40.7109 103.062 38.7021H100.989C100.506 39.9375 99.4209 40.582 97.9492 40.582C96.1445 40.582 94.5117 39.207 94.2861 37.0049H103.374C103.396 36.6074 103.406 36.4463 103.406 36.2529ZM94.3721 35.3721C94.791 33.4814 96.3164 32.4717 97.96 32.4717C99.8291 32.4717 101.408 33.8145 101.516 35.3721H94.3721ZM105.866 42H107.725V36.8438C107.725 34.2012 109.153 32.665 111.076 32.665H112.043V31.043H110.979C109.39 31.043 108.187 31.9775 107.649 33.4922V31.043H105.866V42ZM118.037 42.3115C119.992 42.3115 121.636 41.291 122.377 39.6689V42H124.149V31.043H122.377V33.3955C121.636 31.7627 120.003 30.7422 118.026 30.7422C115.051 30.7422 112.741 33.3203 112.741 36.5215C112.741 39.7441 115.04 42.3115 118.037 42.3115ZM118.445 40.582C116.34 40.582 114.578 38.9492 114.578 36.5215C114.578 34.1582 116.318 32.4717 118.456 32.4717C120.583 32.4717 122.312 34.2549 122.312 36.5215C122.312 38.8203 120.594 40.582 118.445 40.582ZM132.399 42.3115C135.257 42.3115 137.373 40.7002 137.373 36.8975V31.043H135.525V36.8438C135.525 39.3145 134.397 40.5713 132.378 40.5713C130.369 40.5713 129.23 39.3037 129.23 36.8438V31.043H127.394V36.8975C127.394 40.7002 129.488 42.3115 132.399 42.3115ZM144.28 42.3115C146.891 42.3115 148.695 41.1514 148.695 38.9062C148.695 36.5215 146.687 35.9844 144.678 35.6729C142.637 35.3291 142.046 34.9424 142.046 33.9004C142.046 33.0195 142.723 32.2783 144.141 32.2783C145.602 32.2783 146.482 32.9766 146.536 34.0186H148.352C148.352 32.1064 146.676 30.7314 144.141 30.7314C141.53 30.7314 140.22 32.1494 140.22 33.9434C140.22 36.1562 142.014 36.876 144.055 37.1768C145.773 37.4561 146.815 37.7783 146.815 39.0029C146.815 40.1094 145.956 40.8076 144.302 40.8076C142.497 40.8076 141.509 39.8408 141.487 38.6484L139.704 38.6377C139.704 40.5068 141.219 42.3115 144.28 42.3115ZM152.025 42H153.884V32.6543H156.999V31.043H153.884V30.4199C153.884 29.249 154.55 28.3467 155.678 28.3467H157.085V26.7891H155.248C153.024 26.7891 152.025 28.4863 152.025 30.2695V31.043H149.684V32.6543H152.025V42ZM163.423 42.3115C166.699 42.3115 169.138 39.7441 169.138 36.5215C169.138 33.3096 166.688 30.7314 163.423 30.7314C160.168 30.7314 157.729 33.3203 157.729 36.5215C157.729 39.7441 160.179 42.3115 163.423 42.3115ZM163.444 40.5713C161.264 40.5713 159.577 38.8525 159.577 36.5215C159.577 34.2119 161.264 32.4717 163.444 32.4717C165.614 32.4717 167.29 34.2119 167.29 36.5215C167.29 38.8525 165.614 40.5713 163.444 40.5713ZM171.759 42H173.617V36.8438C173.617 34.2012 175.046 32.665 176.969 32.665H177.936V31.043H176.872C175.282 31.043 174.079 31.9775 173.542 33.4922V31.043H171.759V42ZM184.026 42.3115C186.014 42.3115 187.561 41.1514 188.259 39.6689V42H190.031V26.875H188.184V32.2891L188.227 33.3525C187.593 32.0312 186.089 30.7314 184.037 30.7314C180.89 30.7314 178.634 33.3203 178.634 36.5215C178.634 39.7441 180.933 42.3115 184.026 42.3115ZM184.327 40.5928C182.125 40.5928 180.471 38.8203 180.471 36.5215C180.471 34.2012 182.168 32.4609 184.327 32.4609C186.486 32.4609 188.205 34.2441 188.205 36.5215C188.205 38.8203 186.476 40.5928 184.327 40.5928ZM203.652 36.2529C203.652 33.3096 201.396 30.7314 198.238 30.7314C195.069 30.7314 192.663 33.3203 192.663 36.5215C192.663 39.7334 195.069 42.3008 198.238 42.3008C200.73 42.3008 202.686 40.7109 203.309 38.7021H201.235C200.752 39.9375 199.667 40.582 198.195 40.582C196.391 40.582 194.758 39.207 194.532 37.0049H203.62C203.642 36.6074 203.652 36.4463 203.652 36.2529ZM194.618 35.3721C195.037 33.4814 196.562 32.4717 198.206 32.4717C200.075 32.4717 201.654 33.8145 201.762 35.3721H194.618ZM206.112 42H207.971V36.8438C207.971 34.2012 209.399 32.665 211.322 32.665H212.289V31.043H211.226C209.636 31.043 208.433 31.9775 207.896 33.4922V31.043H206.112V42ZM219.153 42.3115C222.011 42.3115 224.127 40.7002 224.127 36.8975V31.043H222.279V36.8438C222.279 39.3145 221.151 40.5713 219.132 40.5713C217.123 40.5713 215.984 39.3037 215.984 36.8438V31.043H214.147V36.8975C214.147 40.7002 216.242 42.3115 219.153 42.3115ZM227.382 42H229.229V36.2422C229.229 33.9004 230.895 32.4609 232.721 32.4609C234.622 32.4609 235.782 33.5674 235.782 36.0918V42H237.63V36.0596C237.63 32.5576 236.104 30.7314 233.193 30.7314C231.335 30.7314 229.777 31.752 229.154 33.1592V31.043H227.382V42ZM245.848 46.125C249.683 46.125 251.53 43.5791 251.53 40.5283V31.043H249.758V33.3955C249.103 31.9453 247.545 30.7422 245.45 30.7422C242.399 30.7422 240.122 33.3203 240.122 36.3174C240.122 39.3359 242.421 41.7959 245.504 41.7959C247.362 41.7959 248.984 40.8936 249.758 39.2285V40.582C249.758 42.623 248.694 44.5459 245.848 44.5459C243.463 44.5459 242.55 43.3857 242.335 42.0645H240.584C240.702 44.0625 242.163 46.125 245.848 46.125ZM245.826 40.1631C243.678 40.1631 241.959 38.498 241.959 36.3174C241.959 34.1152 243.678 32.4717 245.837 32.4717C247.985 32.4717 249.693 34.2334 249.693 36.3174C249.693 38.4229 247.975 40.1631 245.826 40.1631ZM256.944 37.7891H258.717V37.1982C258.717 36.2207 259.297 35.5117 260.231 34.7598C261.413 33.8037 262.756 32.751 262.756 30.9248C262.756 28.6152 260.897 27.0684 258.201 27.0684C255.183 27.0684 253.561 28.8086 253.561 31.1611H255.43C255.43 29.6787 256.439 28.7871 258.147 28.7871C259.974 28.7871 260.897 29.6895 260.897 31.0215C260.897 31.9883 259.898 32.7402 258.889 33.6533C257.868 34.5771 256.944 35.6299 256.944 37.1553V37.7891ZM257.911 42.2256C258.631 42.2256 259.136 41.71 259.136 41.0762C259.136 40.4424 258.631 39.916 257.911 39.916C257.191 39.916 256.697 40.4424 256.697 41.0762C256.697 41.6992 257.202 42.2256 257.911 42.2256Z" fill="white"/>
</svg>
