<svg width="187" height="99" viewBox="0 0 187 99" fill="none" xmlns="http://www.w3.org/2000/svg">
<path d="M32.7041 16H34.7236L28.5469 1.39062H26.7207L20.5332 16H22.5527L23.9385 12.6914H31.3184L32.7041 16ZM24.6152 11.0801L27.5586 4.06543L27.623 3.81836H27.6445L27.6982 4.06543L30.6416 11.0801H24.6152ZM41.0293 16.3115C43.8867 16.3115 46.0029 14.7002 46.0029 10.8975V5.04297H44.1553V10.8438C44.1553 13.3145 43.0273 14.5713 41.0078 14.5713C38.999 14.5713 37.8604 13.3037 37.8604 10.8438V5.04297H36.0234V10.8975C36.0234 14.7002 38.1182 16.3115 41.0293 16.3115ZM50.0635 16H51.9219V6.6543H55.0371V5.04297H51.9219V4.41992C51.9219 3.24902 52.5879 2.34668 53.7158 2.34668H55.123V0.789062H53.2861C51.0625 0.789062 50.0635 2.48633 50.0635 4.26953V5.04297H47.7217V6.6543H50.0635V16ZM66.918 16.3115C68.9053 16.3115 70.4521 15.1514 71.1504 13.6689V16H72.9229V0.875H71.0752V6.28906L71.1182 7.35254C70.4844 6.03125 68.9805 4.73145 66.9287 4.73145C63.7812 4.73145 61.5254 7.32031 61.5254 10.5215C61.5254 13.7441 63.8242 16.3115 66.918 16.3115ZM67.2188 14.5928C65.0166 14.5928 63.3623 12.8203 63.3623 10.5215C63.3623 8.20117 65.0596 6.46094 67.2188 6.46094C69.3779 6.46094 71.0967 8.24414 71.0967 10.5215C71.0967 12.8203 69.3672 14.5928 67.2188 14.5928ZM86.5439 10.2529C86.5439 7.30957 84.2881 4.73145 81.1299 4.73145C77.9609 4.73145 75.5547 7.32031 75.5547 10.5215C75.5547 13.7334 77.9609 16.3008 81.1299 16.3008C83.6221 16.3008 85.5771 14.7109 86.2002 12.7021H84.127C83.6436 13.9375 82.5586 14.582 81.0869 14.582C79.2822 14.582 77.6494 13.207 77.4238 11.0049H86.5117C86.5332 10.6074 86.5439 10.4463 86.5439 10.2529ZM77.5098 9.37207C77.9287 7.48145 79.4541 6.47168 81.0977 6.47168C82.9668 6.47168 84.5459 7.81445 84.6533 9.37207H77.5098ZM89.0039 16H90.8623V10.8438C90.8623 8.20117 92.291 6.66504 94.2139 6.66504H95.1807V5.04297H94.1172C92.5273 5.04297 91.3242 5.97754 90.7871 7.49219V5.04297H89.0039V16ZM107.545 16.3115C111.133 16.3115 113.324 14.7002 113.324 11.9609C113.324 8.96387 110.606 8.07227 108.179 7.68555C105.558 7.33105 104.086 6.67578 104.086 5.13965C104.086 3.93652 104.816 2.74414 107.459 2.74414C109.65 2.74414 110.832 3.77539 110.832 5.22559H112.744C112.744 2.78711 110.918 1.06836 107.48 1.06836C103.678 1.06836 102.185 2.94824 102.185 5.12891C102.185 8.08301 105.149 8.88867 107.588 9.29688C109.769 9.62988 111.401 10.2422 111.401 11.9609C111.401 13.7656 110.026 14.6787 107.534 14.6787C105.128 14.6787 103.71 13.3037 103.71 11.7676H101.809C101.809 13.9805 103.581 16.3115 107.545 16.3115ZM120.564 16.3115C123.422 16.3115 125.538 14.7002 125.538 10.8975V5.04297H123.69V10.8438C123.69 13.3145 122.562 14.5713 120.543 14.5713C118.534 14.5713 117.396 13.3037 117.396 10.8438V5.04297H115.559V10.8975C115.559 14.7002 117.653 16.3115 120.564 16.3115ZM133.466 16.3115C136.065 16.3115 138.085 14.6895 138.708 12.3262H136.817C136.248 13.8301 134.948 14.582 133.477 14.582C131.575 14.582 129.717 13.0459 129.717 10.5215C129.717 8.01855 131.564 6.47168 133.477 6.47168C134.959 6.47168 136.248 7.21289 136.817 8.63086H138.719C138.063 6.36426 136.076 4.73145 133.466 4.73145C130.297 4.73145 127.869 7.32031 127.869 10.5215C127.869 13.7227 130.297 16.3115 133.466 16.3115ZM141.189 16H143.037V10.2422C143.037 8.00781 144.702 6.46094 146.528 6.46094C148.43 6.46094 149.59 7.56738 149.59 10.0918V16H151.438V10.0596C151.438 6.55762 149.912 4.73145 147.001 4.73145C145.143 4.73145 143.66 5.70898 143.005 7.12695L143.037 5.95605V0.875H141.189V16ZM164.919 10.2529C164.919 7.30957 162.663 4.73145 159.505 4.73145C156.336 4.73145 153.93 7.32031 153.93 10.5215C153.93 13.7334 156.336 16.3008 159.505 16.3008C161.997 16.3008 163.952 14.7109 164.575 12.7021H162.502C162.019 13.9375 160.934 14.582 159.462 14.582C157.657 14.582 156.024 13.207 155.799 11.0049H164.887C164.908 10.6074 164.919 10.4463 164.919 10.2529ZM155.885 9.37207C156.304 7.48145 157.829 6.47168 159.473 6.47168C161.342 6.47168 162.921 7.81445 163.028 9.37207H155.885ZM36.2383 42H38.0859V36.2422C38.0859 33.9004 39.751 32.4609 41.5771 32.4609C43.4785 32.4609 44.6387 33.5674 44.6387 36.0918V42H46.4863V36.0596C46.4863 32.5576 44.9609 30.7314 42.0498 30.7314C40.1914 30.7314 38.6338 31.752 38.0107 33.1592V31.043H36.2383V42ZM54.2744 42.3115C56.2295 42.3115 57.873 41.291 58.6143 39.6689V42H60.3867V31.043H58.6143V33.3955C57.873 31.7627 56.2402 30.7422 54.2637 30.7422C51.2881 30.7422 48.9785 33.3203 48.9785 36.5215C48.9785 39.7441 51.2773 42.3115 54.2744 42.3115ZM54.6826 40.582C52.5771 40.582 50.8154 38.9492 50.8154 36.5215C50.8154 34.1582 52.5557 32.4717 54.6934 32.4717C56.8203 32.4717 58.5498 34.2549 58.5498 36.5215C58.5498 38.8203 56.8311 40.582 54.6826 40.582ZM68.6045 42.3115C71.2041 42.3115 73.2236 40.6895 73.8467 38.3262H71.9561C71.3867 39.8301 70.0869 40.582 68.6152 40.582C66.7139 40.582 64.8555 39.0459 64.8555 36.5215C64.8555 34.0186 66.7031 32.4717 68.6152 32.4717C70.0977 32.4717 71.3867 33.2129 71.9561 34.6309H73.8574C73.2021 32.3643 71.2148 30.7314 68.6045 30.7314C65.4355 30.7314 63.0078 33.3203 63.0078 36.5215C63.0078 39.7227 65.4355 42.3115 68.6045 42.3115ZM76.3281 42H78.1758V36.2422C78.1758 34.0078 79.8408 32.4609 81.667 32.4609C83.5684 32.4609 84.7285 33.5674 84.7285 36.0918V42H86.5762V36.0596C86.5762 32.5576 85.0508 30.7314 82.1396 30.7314C80.2812 30.7314 78.7988 31.709 78.1436 33.127L78.1758 31.9561V26.875H76.3281V42ZM105.493 36.2529C105.493 33.3096 103.237 30.7314 100.079 30.7314C96.9102 30.7314 94.5039 33.3203 94.5039 36.5215C94.5039 39.7334 96.9102 42.3008 100.079 42.3008C102.571 42.3008 104.526 40.7109 105.149 38.7021H103.076C102.593 39.9375 101.508 40.582 100.036 40.582C98.2314 40.582 96.5986 39.207 96.373 37.0049H105.461C105.482 36.6074 105.493 36.4463 105.493 36.2529ZM96.459 35.3721C96.8779 33.4814 98.4033 32.4717 100.047 32.4717C101.916 32.4717 103.495 33.8145 103.603 35.3721H96.459ZM108.866 28.9053C109.661 28.9053 110.145 28.3789 110.145 27.7236C110.145 27.0791 109.661 26.5527 108.877 26.5527C108.104 26.5527 107.62 27.0791 107.62 27.7236C107.62 28.3789 108.104 28.9053 108.866 28.9053ZM107.953 42H109.801V31.043H107.953V42ZM113.346 42H115.193V36.2422C115.193 33.9004 116.858 32.4609 118.685 32.4609C120.586 32.4609 121.746 33.5674 121.746 36.0918V42H123.594V36.0596C123.594 32.5576 122.068 30.7314 119.157 30.7314C117.299 30.7314 115.741 31.752 115.118 33.1592V31.043H113.346V42ZM137.075 36.2529C137.075 33.3096 134.819 30.7314 131.661 30.7314C128.492 30.7314 126.086 33.3203 126.086 36.5215C126.086 39.7334 128.492 42.3008 131.661 42.3008C134.153 42.3008 136.108 40.7109 136.731 38.7021H134.658C134.175 39.9375 133.09 40.582 131.618 40.582C129.813 40.582 128.181 39.207 127.955 37.0049H137.043C137.064 36.6074 137.075 36.4463 137.075 36.2529ZM128.041 35.3721C128.46 33.4814 129.985 32.4717 131.629 32.4717C133.498 32.4717 135.077 33.8145 135.185 35.3721H128.041ZM139.535 42H141.394V36.8438C141.394 34.2012 142.822 32.665 144.745 32.665H145.712V31.043H144.648C143.059 31.043 141.855 31.9775 141.318 33.4922V31.043H139.535V42ZM62.1162 68H63.9639V62.2422C63.9639 59.9004 65.6289 58.4609 67.4551 58.4609C69.3564 58.4609 70.5166 59.5674 70.5166 62.0918V68H72.3643V62.0596C72.3643 58.5576 70.8389 56.7314 67.9277 56.7314C66.0693 56.7314 64.5117 57.752 63.8887 59.1592V57.043H62.1162V68ZM85.8457 62.2529C85.8457 59.3096 83.5898 56.7314 80.4316 56.7314C77.2627 56.7314 74.8564 59.3203 74.8564 62.5215C74.8564 65.7334 77.2627 68.3008 80.4316 68.3008C82.9238 68.3008 84.8789 66.7109 85.502 64.7021H83.4287C82.9453 65.9375 81.8604 66.582 80.3887 66.582C78.584 66.582 76.9512 65.207 76.7256 63.0049H85.8135C85.835 62.6074 85.8457 62.4463 85.8457 62.2529ZM76.8115 61.3721C77.2305 59.4814 78.7559 58.4717 80.3994 58.4717C82.2686 58.4717 83.8477 59.8145 83.9551 61.3721H76.8115ZM93.0107 68.3115C95.8682 68.3115 97.9844 66.7002 97.9844 62.8975V57.043H96.1367V62.8438C96.1367 65.3145 95.0088 66.5713 92.9893 66.5713C90.9805 66.5713 89.8418 65.3037 89.8418 62.8438V57.043H88.0049V62.8975C88.0049 66.7002 90.0996 68.3115 93.0107 68.3115ZM111.305 62.2529C111.305 59.3096 109.049 56.7314 105.891 56.7314C102.722 56.7314 100.315 59.3203 100.315 62.5215C100.315 65.7334 102.722 68.3008 105.891 68.3008C108.383 68.3008 110.338 66.7109 110.961 64.7021H108.888C108.404 65.9375 107.319 66.582 105.848 66.582C104.043 66.582 102.41 65.207 102.185 63.0049H111.272C111.294 62.6074 111.305 62.4463 111.305 62.2529ZM102.271 61.3721C102.689 59.4814 104.215 58.4717 105.858 58.4717C107.728 58.4717 109.307 59.8145 109.414 61.3721H102.271ZM113.765 68H115.612V62.2422C115.612 59.9004 117.277 58.4609 119.104 58.4609C121.005 58.4609 122.165 59.5674 122.165 62.0918V68H124.013V62.0596C124.013 58.5576 122.487 56.7314 119.576 56.7314C117.718 56.7314 116.16 57.752 115.537 59.1592V57.043H113.765V68ZM0.939453 94H2.84082V87.5332H11.2842V94H13.1963V79.3906H11.2842V85.8252H2.84082V79.3906H0.939453V94ZM27.0322 88.2529C27.0322 85.3096 24.7764 82.7314 21.6182 82.7314C18.4492 82.7314 16.043 85.3203 16.043 88.5215C16.043 91.7334 18.4492 94.3008 21.6182 94.3008C24.1104 94.3008 26.0654 92.7109 26.6885 90.7021H24.6152C24.1318 91.9375 23.0469 92.582 21.5752 92.582C19.7705 92.582 18.1377 91.207 17.9121 89.0049H27C27.0215 88.6074 27.0322 88.4463 27.0322 88.2529ZM17.998 87.3721C18.417 85.4814 19.9424 84.4717 21.5859 84.4717C23.4551 84.4717 25.0342 85.8145 25.1416 87.3721H17.998ZM29.4922 94H31.3506V88.8438C31.3506 86.2012 32.7793 84.665 34.7021 84.665H35.6689V83.043H34.6055C33.0156 83.043 31.8125 83.9775 31.2754 85.4922V83.043H29.4922V94ZM41.6631 94.3115C43.6182 94.3115 45.2617 93.291 46.0029 91.6689V94H47.7754V83.043H46.0029V85.3955C45.2617 83.7627 43.6289 82.7422 41.6523 82.7422C38.6768 82.7422 36.3672 85.3203 36.3672 88.5215C36.3672 91.7441 38.666 94.3115 41.6631 94.3115ZM42.0713 92.582C39.9658 92.582 38.2041 90.9492 38.2041 88.5215C38.2041 86.1582 39.9443 84.4717 42.082 84.4717C44.209 84.4717 45.9385 86.2549 45.9385 88.5215C45.9385 90.8203 44.2197 92.582 42.0713 92.582ZM56.0254 94.3115C58.8828 94.3115 60.999 92.7002 60.999 88.8975V83.043H59.1514V88.8438C59.1514 91.3145 58.0234 92.5713 56.0039 92.5713C53.9951 92.5713 52.8564 91.3037 52.8564 88.8438V83.043H51.0195V88.8975C51.0195 92.7002 53.1143 94.3115 56.0254 94.3115ZM67.9062 94.3115C70.5166 94.3115 72.3213 93.1514 72.3213 90.9062C72.3213 88.5215 70.3125 87.9844 68.3037 87.6729C66.2627 87.3291 65.6719 86.9424 65.6719 85.9004C65.6719 85.0195 66.3486 84.2783 67.7666 84.2783C69.2275 84.2783 70.1084 84.9766 70.1621 86.0186H71.9775C71.9775 84.1064 70.3018 82.7314 67.7666 82.7314C65.1562 82.7314 63.8457 84.1494 63.8457 85.9434C63.8457 88.1562 65.6396 88.876 67.6807 89.1768C69.3994 89.4561 70.4414 89.7783 70.4414 91.0029C70.4414 92.1094 69.582 92.8076 67.9277 92.8076C66.123 92.8076 65.1348 91.8408 65.1133 90.6484L63.3301 90.6377C63.3301 92.5068 64.8447 94.3115 67.9062 94.3115ZM75.6514 94H77.5098V84.6543H80.625V83.043H77.5098V82.4199C77.5098 81.249 78.1758 80.3467 79.3037 80.3467H80.7109V78.7891H78.874C76.6504 78.7891 75.6514 80.4863 75.6514 82.2695V83.043H73.3096V84.6543H75.6514V94ZM87.0488 94.3115C90.3252 94.3115 92.7637 91.7441 92.7637 88.5215C92.7637 85.3096 90.3145 82.7314 87.0488 82.7314C83.7939 82.7314 81.3555 85.3203 81.3555 88.5215C81.3555 91.7441 83.8047 94.3115 87.0488 94.3115ZM87.0703 92.5713C84.8896 92.5713 83.2031 90.8525 83.2031 88.5215C83.2031 86.2119 84.8896 84.4717 87.0703 84.4717C89.2402 84.4717 90.916 86.2119 90.916 88.5215C90.916 90.8525 89.2402 92.5713 87.0703 92.5713ZM95.3848 94H97.2432V88.8438C97.2432 86.2012 98.6719 84.665 100.595 84.665H101.562V83.043H100.498C98.9082 83.043 97.7051 83.9775 97.168 85.4922V83.043H95.3848V94ZM107.652 94.3115C109.64 94.3115 111.187 93.1514 111.885 91.6689V94H113.657V78.875H111.81V84.2891L111.853 85.3525C111.219 84.0312 109.715 82.7314 107.663 82.7314C104.516 82.7314 102.26 85.3203 102.26 88.5215C102.26 91.7441 104.559 94.3115 107.652 94.3115ZM107.953 92.5928C105.751 92.5928 104.097 90.8203 104.097 88.5215C104.097 86.2012 105.794 84.4609 107.953 84.4609C110.112 84.4609 111.831 86.2441 111.831 88.5215C111.831 90.8203 110.102 92.5928 107.953 92.5928ZM127.278 88.2529C127.278 85.3096 125.022 82.7314 121.864 82.7314C118.695 82.7314 116.289 85.3203 116.289 88.5215C116.289 91.7334 118.695 94.3008 121.864 94.3008C124.356 94.3008 126.312 92.7109 126.935 90.7021H124.861C124.378 91.9375 123.293 92.582 121.821 92.582C120.017 92.582 118.384 91.207 118.158 89.0049H127.246C127.268 88.6074 127.278 88.4463 127.278 88.2529ZM118.244 87.3721C118.663 85.4814 120.188 84.4717 121.832 84.4717C123.701 84.4717 125.28 85.8145 125.388 87.3721H118.244ZM129.738 94H131.597V88.8438C131.597 86.2012 133.025 84.665 134.948 84.665H135.915V83.043H134.852C133.262 83.043 132.059 83.9775 131.521 85.4922V83.043H129.738V94ZM142.779 94.3115C145.637 94.3115 147.753 92.7002 147.753 88.8975V83.043H145.905V88.8438C145.905 91.3145 144.777 92.5713 142.758 92.5713C140.749 92.5713 139.61 91.3037 139.61 88.8438V83.043H137.773V88.8975C137.773 92.7002 139.868 94.3115 142.779 94.3115ZM151.008 94H152.855V88.2422C152.855 85.9004 154.521 84.4609 156.347 84.4609C158.248 84.4609 159.408 85.5674 159.408 88.0918V94H161.256V88.0596C161.256 84.5576 159.73 82.7314 156.819 82.7314C154.961 82.7314 153.403 83.752 152.78 85.1592V83.043H151.008V94ZM169.474 98.125C173.309 98.125 175.156 95.5791 175.156 92.5283V83.043H173.384V85.3955C172.729 83.9453 171.171 82.7422 169.076 82.7422C166.025 82.7422 163.748 85.3203 163.748 88.3174C163.748 91.3359 166.047 93.7959 169.13 93.7959C170.988 93.7959 172.61 92.8936 173.384 91.2285V92.582C173.384 94.623 172.32 96.5459 169.474 96.5459C167.089 96.5459 166.176 95.3857 165.961 94.0645H164.21C164.328 96.0625 165.789 98.125 169.474 98.125ZM169.452 92.1631C167.304 92.1631 165.585 90.498 165.585 88.3174C165.585 86.1152 167.304 84.4717 169.463 84.4717C171.611 84.4717 173.319 86.2334 173.319 88.3174C173.319 90.4229 171.601 92.1631 169.452 92.1631ZM180.57 89.7891H182.343V89.1982C182.343 88.2207 182.923 87.5117 183.857 86.7598C185.039 85.8037 186.382 84.751 186.382 82.9248C186.382 80.6152 184.523 79.0684 181.827 79.0684C178.809 79.0684 177.187 80.8086 177.187 83.1611H179.056C179.056 81.6787 180.065 80.7871 181.773 80.7871C183.6 80.7871 184.523 81.6895 184.523 83.0215C184.523 83.9883 183.524 84.7402 182.515 85.6533C181.494 86.5771 180.57 87.6299 180.57 89.1553V89.7891ZM181.537 94.2256C182.257 94.2256 182.762 93.71 182.762 93.0762C182.762 92.4424 182.257 91.916 181.537 91.916C180.817 91.916 180.323 92.4424 180.323 93.0762C180.323 93.6992 180.828 94.2256 181.537 94.2256Z" fill="white"/>
</svg>
